<svg width="50" height="50" viewBox="0 0 50 50" fill="none" xmlns="http://www.w3.org/2000/svg">
<path d="M24.9998 50C38.7843 50 49.9996 38.7847 49.9996 25.0002V24.9998C49.9996 11.2153 38.7854 0 24.9998 0C11.2153 0 0 11.2142 0 24.9998V25.0002C0 38.7847 11.2142 50 24.9998 50ZM2.13391 26.0415H6.91646C6.90948 26.1701 6.90643 26.2996 6.9073 26.4295C6.93302 29.3526 9.11019 31.9222 11.971 32.4057C12.3193 32.4645 12.669 32.4938 13.0156 32.4938C14.4555 32.4938 15.8515 31.9928 16.9602 31.0564C18.3404 29.8902 19.1326 28.1843 19.1326 26.3758C19.1326 26.2634 19.1295 26.1522 19.1234 26.041L23.9578 26.0415V32.1004C23.9578 32.2574 23.9979 32.4026 24.0598 32.536C24.0781 32.5756 24.1086 32.6057 24.1321 32.6432C24.1884 32.7326 24.2503 32.8141 24.3305 32.8826C24.3466 32.8965 24.3532 32.9174 24.3702 32.9305C24.3976 32.951 24.4329 32.9536 24.4617 32.9711C24.5428 33.0212 24.627 33.0591 24.7207 33.0857C24.7774 33.1018 24.8305 33.1132 24.889 33.1197C24.9269 33.1241 24.96 33.1424 24.9993 33.1424C25.059 33.1424 25.1104 33.118 25.1675 33.1084C25.2055 33.1023 25.2434 33.114 25.2809 33.1036C26.853 32.6637 28.4582 33.1916 29.4643 34.3827C30.2412 35.3017 30.5564 36.4727 30.3519 37.6794C30.0333 39.5602 28.3387 40.991 26.41 41.008C26.049 41.0171 25.6615 40.9613 25.2818 40.855C25.2443 40.8445 25.2064 40.8563 25.1684 40.8497C25.1113 40.8406 25.0595 40.8162 24.9993 40.8162C24.9609 40.8162 24.9282 40.834 24.8907 40.8379C24.8306 40.8445 24.7761 40.8563 24.7181 40.8728C24.6261 40.8994 24.5433 40.9365 24.4635 40.9857C24.4339 41.0036 24.3977 41.0062 24.3698 41.0272C24.3523 41.0402 24.3458 41.062 24.3292 41.076C24.2499 41.144 24.1884 41.2251 24.1322 41.314C24.1086 41.3515 24.0777 41.382 24.0594 41.4221C23.9979 41.5555 23.9578 41.7007 23.9578 41.8577V47.8935C12.151 47.3621 2.66891 37.8472 2.13431 26.041L2.13391 26.0415ZM26.0411 47.894V43.0832C26.1688 43.0902 26.2952 43.0924 26.4286 43.0919C29.3514 43.0666 31.9209 40.8895 32.4057 38.0282C32.71 36.2329 32.2178 34.4141 31.0559 33.0391C29.8173 31.5734 27.9436 30.7708 26.041 30.8759V26.0423H32.2923C32.6407 26.0423 32.9663 25.8679 33.1594 25.578C33.3526 25.2876 33.3879 24.9201 33.2532 24.5988C33.0513 24.1162 32.9489 23.6031 32.9489 23.0738C32.9489 21.902 33.4559 20.7894 34.3396 20.0216C35.2311 19.2469 36.376 18.9147 37.5597 19.0791C39.4483 19.345 40.9619 21.0575 41.0064 22.9779C41.0195 23.5408 40.9175 24.0862 40.703 24.598C40.5682 24.9198 40.6031 25.2873 40.7967 25.5776C40.9898 25.868 41.315 26.0424 41.6642 26.0424H47.8929C47.3614 37.8514 37.8501 47.3625 26.0415 47.8937L26.0411 47.894ZM47.8645 23.9589H43.0271C43.0768 23.6206 43.0977 23.2767 43.089 22.9296C43.021 19.9698 40.7688 17.4278 37.8504 17.0163C36.0844 16.7691 34.3069 17.2905 32.9729 18.4493C31.6336 19.6129 30.8659 21.2987 30.8659 23.074C30.8659 23.3727 30.8872 23.6683 30.93 23.959H26.0406V17.9001C26.0406 17.574 25.888 17.2666 25.6282 17.07C25.3684 16.8725 25.03 16.808 24.7179 16.8969C23.1485 17.3385 21.541 16.8093 20.5345 15.6178C19.7576 14.6988 19.4424 13.5277 19.6469 12.3211C19.9655 10.4403 21.6601 9.00948 23.5888 8.99251C23.9541 8.99338 24.3373 9.03916 24.717 9.14553C25.0305 9.23447 25.3679 9.17039 25.6286 8.97376C25.888 8.77584 26.0406 8.46892 26.0406 8.14282V2.10738C37.8474 2.63882 47.3295 12.1533 47.8641 23.9588L47.8645 23.9589ZM23.9574 2.13546V6.91756C23.8292 6.91059 23.701 6.90623 23.5698 6.90884C20.6471 6.93413 18.0776 9.11128 17.5927 11.9725C17.2884 13.7678 17.7806 15.5867 18.9425 16.9617C20.1811 18.4278 22.0517 19.2331 23.9574 19.1254V23.9589H17.8984C17.5723 23.9589 17.2645 24.1115 17.0679 24.3718C16.8713 24.6316 16.8077 24.969 16.8961 25.2825C16.9995 25.6496 17.0496 26.0079 17.0496 26.3768C17.0496 27.5704 16.5273 28.6961 15.6161 29.4656C14.6976 30.2425 13.5261 30.5568 12.3194 30.3528C10.4391 30.0345 9.00827 28.3404 8.99086 26.4125C8.98781 26.0315 9.03838 25.6622 9.14475 25.2825C9.23282 24.9686 9.16917 24.6316 8.97167 24.3718C8.77506 24.1119 8.46771 23.9593 8.1416 23.9593L2.10572 23.9589C2.63715 12.1521 12.1516 2.67003 23.9571 2.13544L23.9574 2.13546Z" fill="url(#paint0_linear_1_1833)"/>
<defs>
<linearGradient id="paint0_linear_1_1833" x1="23.523" y1="4.22251e-06" x2="23.523" y2="50" gradientUnits="userSpaceOnUse">
<stop stop-color="#FF9649"/>
<stop offset="1" stop-color="#FF5C00"/>
</linearGradient>
</defs>
</svg>
