<svg width="51" height="50" viewBox="0 0 51 50" fill="none" xmlns="http://www.w3.org/2000/svg">
<path d="M44.8958 18.3206C42.7734 11.7894 37.7177 6.69714 31.1986 4.53295C30.2765 1.84251 27.7635 0 24.8576 0C22.1122 0 19.6432 1.71516 18.6274 4.22032C11.3468 6.22803 5.66349 11.8864 3.61873 19.1698C1.47017 20.2999 0 22.5509 0 25.1416C0 27.7736 1.5185 30.0526 3.72286 31.1639C5.86796 38.4039 11.6213 43.9637 18.9213 45.8589C19.9428 48.2887 22.3464 50 25.1437 50C28.1337 50 30.672 48.0433 31.5549 45.3449C38.0262 43.0686 42.9886 37.9074 44.9998 31.3654C47.8761 30.5941 50.0028 27.9721 50.0028 24.8561C50.0028 21.7025 47.8245 19.0552 44.896 18.3198L44.8958 18.3206ZM42.6317 18.1422C41.7702 18.2216 40.9575 18.4666 40.2203 18.8407C38.5649 14.5898 35.2549 11.1746 31.0506 9.38056C31.3872 8.59185 31.5742 7.75122 31.593 6.88979C36.7041 8.91669 40.7012 12.9853 42.6318 18.1427L42.6317 18.1422ZM38.5426 29.6741C37.187 33.7638 34.1194 37.079 30.151 38.7488C28.915 37.3768 27.1309 36.5074 25.1433 36.5074C22.9563 36.5074 21.0153 37.5577 19.7815 39.1757C15.6152 37.8246 12.2729 34.7194 10.61 30.6634C12.35 29.4422 13.4923 27.4243 13.4923 25.1415C13.4923 22.8194 12.3125 20.7676 10.521 19.5535C12.1106 15.4818 15.3901 12.3047 19.536 10.8821C20.7935 12.5106 22.7641 13.4933 24.8577 13.4933C26.8384 13.4933 28.6931 12.6318 29.9636 11.1533C33.956 12.76 37.0598 16.0438 38.4716 20.1073C37.2603 21.3277 36.5101 23.0062 36.5101 24.857C36.5101 26.743 37.2905 28.4487 38.5427 29.6742L38.5426 29.6741ZM24.8576 2.0833C27.0062 2.0833 28.8609 3.53036 29.3766 5.63617C29.4721 5.9745 29.5201 6.34771 29.5201 6.7462C29.5201 7.66221 29.2485 8.55601 28.7366 9.32983C28.7366 9.33026 28.7362 9.33026 28.7357 9.3307C27.8712 10.6321 26.4216 11.4095 24.8576 11.4095C23.2157 11.4095 21.6845 10.5358 20.8618 9.12924C20.86 9.12619 20.8565 9.12401 20.8548 9.12095C20.8535 9.11921 20.8539 9.11703 20.8526 9.11529C20.4223 8.40593 20.1943 7.58674 20.1943 6.74652C20.1943 6.29178 20.2636 5.83355 20.4009 5.38271C20.9878 3.43997 22.8211 2.0832 24.8576 2.0832L24.8576 2.0833ZM18.126 6.54649C18.1238 6.6132 18.1112 6.67947 18.1112 6.74618C18.1112 7.53358 18.2634 8.30397 18.5297 9.03247C14.0007 10.6918 10.3946 14.1872 8.60753 18.6621C8.01546 18.4917 7.39284 18.3953 6.74671 18.3953C6.50736 18.3953 6.27105 18.4088 6.03779 18.4332C8.04114 12.8277 12.486 8.44998 18.1255 6.54642L18.126 6.54649ZM2.08382 25.1413C2.08382 22.5703 4.17523 20.4784 6.74714 20.4784C9.31771 20.4784 11.4096 22.5698 11.4096 25.1413C11.4096 27.7123 9.31815 29.8042 6.74714 29.8042C4.17523 29.8042 2.08382 27.7127 2.08382 25.1413ZM6.149 31.8573C6.3465 31.8747 6.54489 31.8874 6.74675 31.8874C7.42995 31.8874 8.08912 31.7836 8.71092 31.5939C10.5756 36.0384 14.2314 39.4732 18.7714 41.0575C18.5329 41.7473 18.3973 42.4841 18.3973 43.2536C18.3973 43.353 18.4078 43.4503 18.4122 43.5488C12.7404 41.7376 8.2309 37.431 6.1492 31.8573L6.149 31.8573ZM25.1445 47.9173C22.5726 47.9173 20.4812 45.8259 20.4812 43.2545C20.4812 40.6834 22.5726 38.5911 25.1445 38.5911C27.7164 38.5911 29.8078 40.6834 29.8078 43.2545C29.8078 45.8259 27.7159 47.9173 25.1445 47.9173ZM31.8779 42.9942C31.8443 42.1148 31.6451 41.2781 31.3046 40.5156C35.4688 38.653 38.7199 35.1883 40.3121 30.9173C41.0568 31.2805 41.8751 31.5111 42.7415 31.5774C40.8942 36.756 36.9616 40.8849 31.8779 42.9943L31.8779 42.9942ZM43.2569 29.5202C40.6863 29.5202 38.5945 27.4288 38.5945 24.8573C38.5945 22.2863 40.6859 20.1945 43.2569 20.1945C45.8288 20.1945 47.9202 22.2863 47.9202 24.8573C47.9202 27.4284 45.8288 29.5202 43.2569 29.5202Z" fill="#0C0058"/>
</svg>
