<svg width="686" height="322" viewBox="0 0 686 322" fill="none" xmlns="http://www.w3.org/2000/svg">
<mask id="mask0_33_7316" style="mask-type:alpha" maskUnits="userSpaceOnUse" x="0" y="0" width="686" height="322">
<rect width="686" height="322" fill="url(#paint0_linear_33_7316)"/>
</mask>
<g mask="url(#mask0_33_7316)">
<rect width="686" height="322" fill="url(#paint1_linear_33_7316)"/>
<ellipse opacity="0.46" cx="168.848" cy="262.584" rx="309.34" ry="564.416" transform="rotate(138.454 168.848 262.584)" fill="url(#paint2_linear_33_7316)"/>
<path d="M775.751 145.649C778.923 142.874 782.382 140.469 786 138.278V-24H577.551C569.849 1.75811 565.778 29.4495 545.411 46.9324C535.018 55.8533 521.04 61.2869 513.621 72.6313C498.338 95.9899 519.373 129.348 505.451 153.478C497.569 167.152 479.647 175.107 476.408 190.431C472.755 207.697 490.155 224.286 486.58 241.575C484.849 249.952 478.484 256.614 472.58 262.993C466.307 269.768 458.683 278.594 460.194 288.37C461.069 294.02 464.744 300.049 470.894 301.269C476.702 302.419 482.662 301.581 488.481 303.061C497.655 305.394 506.375 307.065 515.932 306.998C525.569 306.931 535.172 305.666 544.602 303.807C568.484 299.095 592.471 291.376 616.667 294.235C623.279 295.017 630.355 296.518 636.324 293.67C647.109 288.527 664.069 293.591 673.576 286.489C680.881 281.024 697.684 262.791 706.925 263.328C723.074 264.264 724.942 273.152 745.951 262.244C753.382 258.385 754.904 247.009 763.313 238.236C771.722 229.463 776.643 217.031 774.01 205.368C771.631 194.836 763.538 185.943 762.186 175.244C760.777 164.121 767.129 153.184 775.751 145.649Z" fill="#4C308E"/>
<path d="M756.82 112.019C763.713 101.518 759.198 87.1301 764.694 75.893C768.886 67.3213 777.945 62.3095 786 56.7276V-24H671.257C670.389 -16.6436 669.005 -9.51824 664.482 -3.6797C660.493 1.4714 654.52 4.88287 648.363 7.36493C635.682 12.4794 621.808 14.1567 608.734 18.2373C595.661 22.3178 582.57 29.6595 577.08 41.7894C571.993 53.021 574.386 65.8914 576.081 78.0323C577.777 90.1731 578.322 103.696 570.514 113.381C558.176 128.673 530.941 127.129 519.935 143.33C516.201 148.83 515.025 155.592 514.896 162.158C514.638 175.245 518.194 188.189 523.469 200.256C528.718 212.284 535.853 224.568 534.058 237.497C532.235 250.626 521.674 260.818 511.703 269.943L480 298.963C480.636 298.995 481.273 299.018 481.905 299.044C491.05 296.139 502.196 298.056 511.746 299.297C518.923 300.23 526.035 301.57 533.144 303C537.716 302.45 542.256 301.704 546.762 300.815C570.43 296.146 594.202 288.498 618.18 291.33C624.732 292.106 631.745 293.592 637.661 290.771C638.017 290.603 638.379 290.444 638.749 290.296C639.13 289.873 639.492 289.444 639.85 289.013C646.488 280.918 650.434 270.603 658.887 264.266C667.005 258.182 677.775 256.878 687.667 254.149C697.559 251.419 708.053 245.854 710.424 236.223C712.082 229.524 709.346 222.522 709.925 215.658C711.438 197.694 734.055 187.276 737.629 169.586C740.241 156.657 732.035 142.23 738.517 130.629C742.748 123.06 752.057 119.278 756.82 112.019Z" fill="#3B2C7C"/>
<path d="M776.145 151.18C779.297 148.315 782.734 145.831 786.329 143.57V92.8457C784.911 94.367 783.396 95.7939 781.792 97.1173C778.162 100.097 773.959 102.697 771.825 106.877C767.584 115.226 773.564 125.584 770.97 134.578C768.868 141.896 761.767 146.372 755.952 151.291C750.137 156.21 744.853 164.024 747.944 170.985C749.627 174.775 753.561 177.507 754.208 181.603C755.098 187.231 749.312 192.246 750.005 197.902C750.796 204.438 759.557 207.595 760.659 214.083C761.697 220.148 755.555 225.119 754.581 231.194C754.199 233.59 754.642 236.043 754.449 238.453C754.109 242.742 751.79 246.634 749.069 249.969C741.223 259.584 729.421 265.869 717.063 267.013C711.389 267.539 705.624 267.031 700.019 268.041C684.44 270.849 669.308 287.254 659.634 300.926C665.273 300.573 670.613 299.721 674.621 296.611C681.88 290.967 698.575 272.141 707.76 272.695C723.807 273.661 725.664 282.839 746.54 271.575C753.923 267.59 755.437 255.843 763.792 246.785C772.148 237.726 777.039 224.888 774.422 212.845C773.51 208.642 771.757 204.713 769.867 200.81C773.472 200 776.137 196.139 775.818 192.28C775.394 187.122 770.551 182.245 765.103 183.905C764.437 184.109 763.802 184.4 763.212 184.77C762.978 183.767 762.798 182.752 762.671 181.729C761.265 170.255 767.577 158.961 776.145 151.18Z" fill="#8F5BD9"/>
<path d="M488.121 134.589C487.135 134.505 486.184 135.023 485.483 135.663L485 136.28C484.778 136.623 484.652 137.018 484.635 137.426C484.609 137.625 484.6 137.827 484.608 138.028C484.555 138.752 484.729 139.474 485.105 140.095C485.85 141.258 487.258 141.77 488.543 141.224C489.098 141.008 489.564 140.61 489.863 140.095L489.888 140.035C490.016 139.945 490.134 139.843 490.242 139.73C490.802 139.162 491.118 138.398 491.122 137.6C491.088 136.82 490.832 136.014 490.242 135.47L489.63 135C489.173 134.73 488.652 134.589 488.121 134.589V134.589Z" fill="white"/>
<path d="M479.907 164.813C479.607 163.991 479.189 163.334 478.432 162.872C477.768 161.928 476.765 161.278 475.632 161.059C473.825 160.751 472.384 161.301 471.339 162.807C471.288 162.879 471.246 162.954 471.2 163.028C470.894 163.31 470.631 163.635 470.42 163.993C468.917 166.561 470.42 170.011 473.257 170.817C474.058 171.051 474.904 171.082 475.72 170.907C476.536 170.731 477.295 170.355 477.928 169.812C478.322 169.589 478.693 169.329 479.038 169.036C480.404 167.89 480.389 165.762 479.647 164.312C479.773 164.56 479.865 164.742 479.928 164.874C479.917 164.853 479.907 164.834 479.907 164.813Z" fill="white"/>
<path d="M479.924 164.873C480.029 165.139 480.168 165.368 479.924 164.873V164.873Z" fill="#8F5BD9"/>
<path d="M464.815 185.929C468.149 185.929 468.154 180.746 464.815 180.746C461.476 180.746 461.476 185.929 464.815 185.929Z" fill="white"/>
<path d="M517.516 44.1321C517.032 44.0003 516.522 44.0003 516.038 44.1321L515.969 44.1416C515.904 44.1416 515.841 44.1569 515.778 44.1703H515.736L515.659 44.1932C515.612 44.2066 515.564 44.2199 515.518 44.2371L515.405 44.2811C515.363 44.2983 515.321 44.3154 515.281 44.3365L515.155 44.4052C515.13 44.4205 515.105 44.432 515.082 44.4473C514.876 44.5576 514.689 44.7031 514.532 44.8771C514.359 45.0349 514.214 45.2209 514.102 45.4273C514.087 45.4502 514.076 45.475 514.062 45.4999C514.049 45.5247 514.013 45.582 513.992 45.626C513.971 45.6699 513.953 45.7081 513.936 45.7501C513.919 45.7922 513.906 45.8246 513.892 45.8628C513.875 45.9091 513.861 45.9563 513.85 46.0042C513.85 46.029 513.833 46.0539 513.827 46.0787V46.1169C513.804 46.2244 513.789 46.3337 513.783 46.4436C513.76 46.5512 513.746 46.6604 513.739 46.7703V46.8066C513.739 46.8295 513.739 46.8543 513.739 46.8772C513.737 47.0855 513.766 47.2929 513.825 47.4924C513.824 47.5038 513.824 47.5153 513.825 47.5268V47.5268C513.89 47.7539 513.982 47.9721 514.1 48.1763C514.278 48.4791 514.512 48.745 514.79 48.9595C514.853 49.0073 514.92 49.0493 514.981 49.0914L515.075 49.1563C515.279 49.2761 515.498 49.3686 515.726 49.4314C515.88 49.4723 516.036 49.5005 516.194 49.5155C516.629 49.6063 517.079 49.5925 517.507 49.4753C517.971 49.3477 518.393 49.1014 518.733 48.7609L519.167 48.1992C519.417 47.7743 519.549 47.2901 519.549 46.797C519.517 46.0665 519.229 45.3705 518.735 44.8312C518.395 44.498 517.975 44.2573 517.516 44.1321V44.1321Z" fill="white"/>
<path d="M490.645 70.1939C490.067 69.292 489.193 68.6198 488.173 68.2931L487.408 67.9703C486.647 67.7596 485.843 67.7547 485.079 67.9561C484.315 68.1574 483.617 68.5579 483.059 69.1165L482.359 70.022C481.958 70.7062 481.747 71.4851 481.748 72.2782C481.798 73.4538 482.262 74.5739 483.059 75.4398C483.606 75.9865 484.286 76.3815 485.032 76.586C485.81 76.7981 486.63 76.7981 487.408 76.586L488.173 76.2632L489.16 75.8467C489.632 75.5967 490.032 75.2296 490.322 74.7807C490.575 74.5274 490.759 74.2128 490.855 73.8676C491.112 73.3773 491.235 72.8275 491.21 72.2743C491.16 71.9075 491.113 71.5408 491.063 71.174L490.645 70.1939Z" fill="white"/>
<path d="M495.891 54.1343C498.768 54.1343 498.772 49.6621 495.891 49.6621C493.01 49.6621 493.008 54.1343 495.891 54.1343Z" fill="white"/>
<path d="M547.255 49.2452C567.491 31.1923 571.539 2.59796 579.192 -24H536.15C534.369 -18.481 533.397 -12.7442 533.487 -6.93283C533.678 4.52934 537.976 15.9915 535.846 27.2626C533.599 39.1451 524.974 47.969 515.774 56.5141C515.627 56.3555 515.472 56.1989 515.306 56.048C512.268 53.2799 507.502 53.4747 504.081 55.4118C501.769 56.7185 500.097 58.9517 499.616 61.4638C499.503 61.7198 499.4 61.9835 499.31 62.2509C498.325 65.1489 498.199 69.3097 500.086 71.9231C495.287 77.5357 491.552 83.6565 490.207 90.9197C487.585 105.083 495.121 119.193 495.144 133.605C495.153 138.898 494.143 144.064 492.433 149.044C492.252 148.938 492.066 148.84 491.875 148.752C488.055 147.008 483.248 148.561 481.848 152.731C480.772 155.935 482.627 159.868 485.71 161.061C485.969 161.29 486.248 161.495 486.543 161.674C484.708 164.794 482.714 167.818 480.568 170.733C476.447 176.363 471.818 181.882 469.853 188.575C464.67 206.231 479.532 223.799 479.355 242.199C479.223 255.74 469.094 279.318 469.094 279.318C470.951 276.821 472.978 274.488 474.879 272.354C480.747 265.767 487.069 258.888 488.79 250.238C492.345 232.393 475.058 215.256 478.684 197.426C481.903 181.603 499.698 173.388 507.544 159.269C521.379 134.348 500.476 99.9022 515.663 75.7858C523.035 64.0677 536.927 58.4569 547.255 49.2452Z" fill="#8F5BD9"/>
<path d="M579.19 88.0319C592.12 88.0319 602.601 77.5503 602.601 64.6205C602.601 51.6907 592.12 41.209 579.19 41.209C566.26 41.209 555.778 51.6907 555.778 64.6205C555.778 77.5503 566.26 88.0319 579.19 88.0319Z" fill="#654EC6"/>
<path d="M592.633 49.7389C592.165 55.2789 590.601 60.8572 587.284 65.3236C585.019 68.3706 582.01 70.8044 578.787 72.8141C573.041 76.3979 565.796 78.6426 559.408 77.143C561.256 80.0612 563.728 82.5342 566.644 84.3848C569.561 86.2353 572.851 87.4175 576.279 87.8465C579.706 88.2755 583.186 87.9407 586.469 86.8661C589.752 85.7915 592.757 84.0038 595.267 81.6312C597.778 79.2585 599.732 76.3597 600.99 73.1427C602.248 69.9256 602.779 66.4701 602.544 63.0238C602.309 59.5775 601.314 56.2259 599.631 53.2094C597.948 50.1929 595.618 47.5861 592.809 45.5762C592.809 46.9631 592.75 48.3481 592.633 49.7389Z" fill="#4B3AAF"/>
<path d="M712.357 185.781C721.499 176.638 721.499 161.815 712.357 152.672C703.214 143.529 688.391 143.529 679.248 152.672C670.105 161.815 670.105 176.638 679.248 185.781C688.391 194.924 703.214 194.924 712.357 185.781Z" fill="#166FEF"/>
<path d="M678.69 166.539C678.774 165.547 677.996 164.68 677.14 164.17C676.285 163.66 675.305 163.366 674.51 162.766C674.156 162.497 673.847 162.175 673.593 161.811C671.987 166.649 671.995 171.878 673.618 176.711C674.565 176.062 675.711 175.769 676.854 175.884C679.062 176.134 681.099 177.909 683.261 177.386C683.326 177.004 683.39 176.622 683.452 176.24C684.337 176.585 685.271 176.937 686.213 176.813C687.155 176.688 688.077 175.89 687.991 174.942C687.919 174.113 687.103 173.508 686.272 173.385C685.441 173.263 684.62 173.512 683.825 173.756C683.792 173.015 683.743 172.228 683.305 171.628C682.868 171.028 682.386 169.832 681.882 170.375C680.428 169.872 678.619 171.903 677.524 170.833C676.951 170.277 677.188 169.305 677.607 168.636C678.025 167.968 678.623 167.33 678.69 166.539Z" fill="#B8DD90"/>
<path d="M692.246 191.445C691.821 191.636 691.453 191.942 691.036 192.15C694.961 192.961 699.027 192.757 702.85 191.556C704.928 188.874 706.99 186.178 709.036 183.469C709.469 182.896 709.918 182.285 710.018 181.571C710.085 181.076 709.985 180.545 710.209 180.098C710.4 179.7 710.809 179.458 711.191 179.238C712.87 178.283 714.316 177.291 715.993 176.328C715.732 175.089 715.471 173.85 715.21 172.611C712.51 170.771 709.864 168.856 707.271 166.866C708.161 165.237 710.618 165.407 712.046 164.223C713.611 162.925 713.41 160.323 712.173 158.713C710.935 157.103 708.984 156.241 707.116 155.441L711.634 151.989C707.929 148.583 703.225 146.463 698.22 145.941C693.215 145.419 688.176 146.523 683.848 149.091C684.59 151.379 685.55 153.592 686.713 155.699C686.986 156.189 687.286 156.686 687.718 157.036C688.113 157.335 688.593 157.5 689.088 157.507C689.583 157.514 690.068 157.363 690.471 157.076C690.28 158.121 691.033 159.154 691.974 159.655C692.916 160.155 694.007 160.26 695.056 160.44C698.056 160.957 700.902 162.139 703.387 163.898C703.612 164.576 703.169 165.82 702.8 166.431C701.312 166.448 699.9 165.787 698.42 165.619C696.939 165.451 695.138 166.047 694.809 167.499C696.022 168.284 697.134 169.325 698.156 170.343C699.398 170.618 699.083 172.491 699.658 173.622C700.466 175.211 702.829 174.987 704.308 175.983C705.996 177.129 705.951 180.052 704.225 181.141C703.905 180.186 702.248 181.158 701.442 180.539C701.184 180.348 701.06 180.012 700.869 179.758C700.656 179.509 700.36 179.346 700.037 179.297C699.713 179.249 699.383 179.318 699.106 179.492C698.563 179.857 698.342 180.984 698.804 181.444C699.15 181.812 699.352 182.292 699.374 182.796C699.395 183.301 699.234 183.796 698.92 184.192C699.104 184.2 699.287 184.159 699.45 184.073C699.614 183.988 699.751 183.86 699.849 183.704C698.535 185.806 701.024 189.025 699.354 190.849C697.684 192.674 694.488 190.427 692.246 191.445Z" fill="#B8DD90"/>
<g style="mix-blend-mode:multiply" opacity="0.42">
<path d="M709.245 154.337C708.777 159.877 707.213 165.455 703.896 169.921C701.631 172.968 698.622 175.402 695.399 177.412C689.653 180.996 682.409 183.24 676.019 181.741C677.866 184.66 680.336 187.135 683.253 188.987C686.169 190.839 689.46 192.022 692.888 192.452C696.316 192.882 699.796 192.549 703.08 191.475C706.364 190.401 709.369 188.613 711.88 186.241C714.391 183.868 716.347 180.969 717.605 177.752C718.864 174.534 719.395 171.078 719.16 167.632C718.925 164.185 717.93 160.833 716.247 157.816C714.563 154.799 712.233 152.192 709.423 150.182C709.414 151.563 709.362 152.954 709.245 154.337Z" fill="#166FEF"/>
</g>
<path d="M518.462 229.515C519.025 230.253 519.616 230.967 520.237 231.659C521.108 232.614 522.088 233.852 523.417 234.121C524.013 234.241 524.686 233.739 524.466 233.072C524.057 231.85 522.993 231.061 522.13 230.153C521.28 229.267 520.481 228.335 519.734 227.36C518.224 225.342 516.914 223.181 515.822 220.909C515.34 219.929 513.636 220.622 514.037 221.662C514.173 222.017 514.318 222.368 514.467 222.716C514.317 222.782 514.19 222.891 514.101 223.029C514.012 223.167 513.966 223.328 513.969 223.492C513.892 225.926 513.942 228.352 514.093 230.782C514.104 230.973 514.12 231.164 514.133 231.355C513.927 231.812 513.755 232.283 513.617 232.765C513.573 232.897 513.558 233.038 513.571 233.177C513.585 233.316 513.628 233.451 513.696 233.573C513.765 233.694 513.859 233.8 513.971 233.883C514.084 233.967 514.212 234.026 514.349 234.056C514.349 234.123 514.36 234.192 514.368 234.26C514.483 235.456 514.504 236.744 514.975 237.863C515.264 238.543 516.515 238.391 516.618 237.649C516.773 236.53 516.513 235.378 516.391 234.26C516.318 233.585 516.255 232.911 516.2 232.237C516.406 231.855 516.643 231.491 516.911 231.148C517.373 230.556 517.984 230.094 518.462 229.515ZM515.946 228.717C515.887 227.63 515.84 226.543 515.803 225.456C516.259 226.285 516.753 227.094 517.287 227.884C516.789 228.07 516.334 228.353 515.946 228.717V228.717Z" fill="white"/>
<path d="M532.795 239.461C532.501 240.044 532.579 240.989 533.274 241.289C534.856 241.969 536.839 240.819 538.062 239.799C539.221 238.832 540.035 237.423 539.896 235.873C539.781 234.588 539.154 233.199 537.985 232.532C537.338 232.178 536.587 232.064 535.865 232.211C535.542 232.275 535.223 232.358 534.91 232.458C535.208 231.048 535.366 229.592 534.933 228.197C534.482 226.753 533.418 225.389 531.903 224.988C530.214 224.541 528.539 225.578 527.962 226.969C527.84 226.997 527.726 227.049 527.626 227.122C527.525 227.196 527.441 227.289 527.379 227.397C527.316 227.505 527.276 227.624 527.262 227.747C527.248 227.871 527.259 227.996 527.295 228.115C527.794 230.136 528.405 232.127 528.993 234.121C529.278 235.093 529.564 236.066 529.851 237.039C530.13 237.982 530.409 239.044 531.03 239.818C531.553 240.473 532.464 239.868 532.524 239.199C532.608 238.261 532.193 237.193 531.918 236.303L531.018 233.397C530.653 232.211 530.294 231.025 529.914 229.846C530.025 229.7 530.078 229.518 530.062 229.336C530.047 229.153 529.963 228.983 529.828 228.858C529.064 228.081 529.536 227.088 530.55 226.967C531.45 226.86 532.147 227.429 532.525 228.207C533.099 229.367 532.908 230.69 532.631 231.898C532.472 232.574 532.073 233.375 532.44 234.041C532.72 234.493 533.165 234.819 533.681 234.951C534.191 235.059 534.72 235.052 535.227 234.93C535.59 234.863 536.077 234.649 536.449 234.687C537.032 234.748 537.179 235.484 537.124 235.965C536.868 238.053 533.616 237.828 532.795 239.461Z" fill="white"/>
<path d="M530.302 205.465C531.498 205.744 531.985 203.988 530.808 203.625C528.823 203.012 526.67 204.045 525.619 205.784C524.368 207.859 524.743 210.541 525.726 212.636C526.622 214.547 528.319 216.266 530.449 216.667C531.452 216.858 532.741 216.858 533.666 216.339C534.527 215.825 535.191 215.038 535.553 214.103C535.905 213.148 534.633 212.644 533.996 213.196C533.562 213.558 533.053 213.82 532.506 213.964C531.959 214.108 531.387 214.13 530.831 214.029C529.54 213.773 528.575 212.715 527.965 211.609C527.272 210.355 526.876 208.743 527.354 207.348C527.761 206.153 529.003 205.163 530.302 205.465Z" fill="white"/>
<path d="M657.78 149.14C657.374 149.382 656.915 149.522 656.443 149.549C655.654 149.584 654.863 149.276 654.227 149.931C653.984 150.196 653.852 150.544 653.86 150.903C653.867 151.262 654.013 151.605 654.267 151.859C654.84 152.464 655.769 152.569 656.56 152.51C657.967 152.394 659.289 151.785 660.293 150.791C662.325 148.804 662.642 145.597 660.617 143.491C659.922 142.778 659.056 142.254 658.102 141.969C657.147 141.684 656.136 141.647 655.163 141.862C655.315 139.325 655.267 136.78 655.02 134.251C654.93 133.426 654.225 133.03 653.471 133.361C650.317 134.738 648.657 138.469 649.57 141.753C649.847 142.754 651.327 142.326 651.115 141.329C650.697 139.359 651.52 137.195 653.089 135.944C653.238 138.469 653.188 141.037 652.707 143.51C652.529 144.431 653.534 145.509 654.458 144.848C656.008 143.759 658.904 144.298 659.276 146.43C659.481 147.551 658.717 148.607 657.78 149.14Z" fill="#FF6810"/>
<path d="M663.493 127.725L663.239 127.755C663.072 127.758 662.906 127.781 662.746 127.826L662.497 127.931C662.379 127.994 662.279 128.086 662.207 128.198C662.061 128.376 661.982 128.599 661.983 128.829C661.991 129.012 662.039 129.192 662.125 129.354C662.188 129.472 662.28 129.572 662.392 129.645C662.492 129.738 662.613 129.803 662.746 129.836C662.906 129.88 663.072 129.904 663.239 129.906L663.493 129.935C663.637 129.936 663.781 129.907 663.915 129.852C664.049 129.796 664.17 129.715 664.272 129.612C664.479 129.405 664.595 129.125 664.595 128.833C664.595 128.54 664.479 128.26 664.272 128.053C664.171 127.948 664.05 127.865 663.916 127.809C663.782 127.752 663.638 127.724 663.493 127.725Z" fill="#FF6810"/>
<path d="M665.531 138.606C666.967 138.606 666.969 136.373 665.531 136.373C664.092 136.373 664.09 138.606 665.531 138.606Z" fill="#FF6810"/>
<path d="M671.367 134.504C671.073 135.194 671.57 136.223 672.449 135.912C674.191 135.312 675.2 133.95 676.136 132.42C676.942 131.104 677.723 129.554 677.517 127.965C677.426 127.233 677.089 126.553 676.56 126.038C676.032 125.523 675.344 125.204 674.609 125.132C673.917 125.064 673.218 125.141 672.558 125.357C672.655 124.326 672.749 123.294 672.812 122.262C672.88 121.078 672.621 119.651 671.348 119.206C670.011 118.738 668.693 119.722 667.91 120.734C667.493 121.241 667.19 121.831 667.023 122.466C666.856 123.1 666.829 123.764 666.943 124.41C667.058 125.109 668.164 125.065 668.311 124.41C668.458 123.641 668.778 122.916 669.247 122.289C669.504 122.006 669.794 121.755 670.112 121.542C670.466 121.275 670.494 121.091 670.533 121.655C670.588 122.505 670.366 123.422 670.267 124.263L669.906 127.342C669.788 128.347 671.022 128.783 671.765 128.41C672.863 127.856 675.335 126.991 674.659 129.151C674.015 131.197 672.193 132.563 671.367 134.504Z" fill="#FF6810"/>
<path d="M663.182 103.76C676.387 103.76 687.092 93.0547 687.092 79.8495C687.092 66.6444 676.387 55.9395 663.182 55.9395C649.976 55.9395 639.271 66.6444 639.271 79.8495C639.271 93.0547 649.976 103.76 663.182 103.76Z" fill="#654EC6"/>
<g style="mix-blend-mode:multiply" opacity="0.23">
<path d="M676.911 64.6411C676.434 70.3034 674.837 75.9963 671.446 80.5563C669.13 83.6702 666.058 86.1556 662.767 88.1978C656.896 91.858 649.509 94.1524 642.974 92.6183C644.86 95.6001 647.383 98.1274 650.362 100.019C653.341 101.91 656.701 103.119 660.202 103.558C663.703 103.998 667.258 103.657 670.612 102.56C673.965 101.463 677.035 99.6376 679.6 97.2144C682.164 94.7912 684.161 91.8303 685.446 88.5443C686.732 85.2582 687.274 81.7284 687.034 78.2081C686.794 74.6878 685.778 71.2643 684.058 68.1831C682.339 65.1019 679.959 62.4394 677.089 60.3867C677.085 61.8157 677.03 63.2293 676.911 64.6411Z" fill="#166FEF"/>
</g>
<path d="M639.283 79.1588C639.283 78.899 639.304 78.6411 639.319 78.3832C627.815 84.2442 620.848 90.6095 622.212 94.9518C623.66 99.5634 634.102 100.683 648.101 98.4114C654.462 97.3513 660.74 95.8402 666.887 93.8896C674.076 91.6335 680.663 88.978 686.241 86.1985C698.223 80.2267 705.549 73.6722 704.153 69.2249C702.838 65.0431 694.133 63.7403 682.086 65.2132C682.277 65.4539 682.455 65.6965 682.633 65.9448C689.229 65.7251 693.747 66.9 694.57 69.5248C695.38 72.1019 692.454 75.5826 687.08 79.1149C681.79 82.5936 674.13 86.1202 665.319 88.8864C657.185 91.4386 649.486 92.8981 643.373 93.2458C636.134 93.6527 631.12 92.4931 630.249 89.7193C629.366 86.8996 632.927 83.0082 639.283 79.1588Z" fill="#6449B7"/>
<path d="M523.971 200.266C527.365 200.266 530.116 197.514 530.116 194.12C530.116 190.726 527.365 187.975 523.971 187.975C520.577 187.975 517.825 190.726 517.825 194.12C517.825 197.514 520.577 200.266 523.971 200.266Z" fill="#FFF9E9"/>
<path d="M646.462 173.182C649.856 173.182 652.608 170.43 652.608 167.036C652.608 163.642 649.856 160.891 646.462 160.891C643.068 160.891 640.316 163.642 640.316 167.036C640.316 170.43 643.068 173.182 646.462 173.182Z" fill="#FFF9E9"/>
<path d="M550.251 251.884C551.202 249.548 550.08 246.884 547.744 245.933C545.409 244.982 542.745 246.104 541.793 248.439C540.842 250.775 541.964 253.439 544.3 254.39C546.635 255.341 549.299 254.219 550.251 251.884Z" fill="#FFF9E9"/>
<path d="M667.52 248.398C668.471 246.062 667.349 243.398 665.014 242.447C662.678 241.496 660.014 242.618 659.063 244.953C658.112 247.288 659.234 249.953 661.569 250.904C663.905 251.855 666.569 250.733 667.52 248.398Z" fill="#FFF9E9"/>
<path d="M599.268 91.2663C601.79 91.2663 603.834 89.2221 603.834 86.7005C603.834 84.1789 601.79 82.1348 599.268 82.1348C596.746 82.1348 594.702 84.1789 594.702 86.7005C594.702 89.2221 596.746 91.2663 599.268 91.2663Z" fill="#FFF9E9"/>
<path d="M524.459 108.761C526.135 108.49 527.275 106.912 527.004 105.236C526.734 103.561 525.156 102.421 523.48 102.692C521.804 102.962 520.665 104.54 520.935 106.216C521.206 107.892 522.784 109.031 524.459 108.761Z" fill="#7767D3"/>
<path d="M680.621 49.3761C682.318 49.3761 683.694 47.9999 683.694 46.3023C683.694 44.6047 682.318 43.2285 680.621 43.2285C678.923 43.2285 677.547 44.6047 677.547 46.3023C677.547 47.9999 678.923 49.3761 680.621 49.3761Z" fill="white"/>
<path d="M502.346 203.309C504.013 202.987 505.103 201.375 504.781 199.708C504.459 198.041 502.847 196.951 501.18 197.273C499.513 197.595 498.423 199.207 498.745 200.873C499.067 202.54 500.679 203.631 502.346 203.309Z" fill="#7767D3"/>
<path d="M628.228 52.8549C631.857 50.8004 633.133 46.1936 631.078 42.5653C629.024 38.937 624.417 37.6611 620.788 39.7156C617.16 41.7701 615.884 46.3769 617.939 50.0052C619.993 53.6335 624.6 54.9094 628.228 52.8549Z" fill="white"/>
<path d="M553.193 92.7664C554.846 92.3791 555.872 90.7252 555.485 89.0724C555.097 87.4195 553.443 86.3937 551.791 86.781C550.138 87.1684 549.112 88.8223 549.499 90.4751C549.887 92.1279 551.54 93.1538 553.193 92.7664Z" fill="#7767D3"/>
<path d="M526.997 81.5231C528.197 80.3227 528.197 78.3765 526.997 77.1761C525.797 75.9757 523.85 75.9757 522.65 77.1761C521.45 78.3765 521.45 80.3227 522.65 81.5231C523.85 82.7235 525.797 82.7235 526.997 81.5231Z" fill="#7767D3"/>
<path d="M580.888 20.4352C582.088 19.2348 582.088 17.2886 580.888 16.0882C579.687 14.8879 577.741 14.8879 576.541 16.0882C575.34 17.2886 575.34 19.2348 576.541 20.4352C577.741 21.6356 579.687 21.6356 580.888 20.4352Z" fill="white"/>
<path d="M692.658 13.7137C696.076 12.9478 698.226 9.55605 697.46 6.138C696.694 2.71995 693.302 0.569957 689.884 1.33586C686.466 2.10177 684.316 5.49353 685.082 8.91159C685.848 12.3296 689.24 14.4796 692.658 13.7137Z" fill="#7767D3"/>
<path d="M635.975 17.8469C639.542 17.0049 641.751 13.4305 640.91 9.86327C640.068 6.29599 636.493 4.08668 632.926 4.92863C629.359 5.77059 627.149 9.34498 627.991 12.9123C628.833 16.4795 632.408 18.6888 635.975 17.8469Z" fill="white"/>
<path d="M595.047 257.105C594.982 257.371 594.919 257.638 594.855 257.912C594.911 257.638 594.982 257.371 595.047 257.105Z" fill="#282828"/>
<path d="M629.266 269.76C629.098 270.035 628.93 270.307 628.762 270.575C628.93 270.307 629.098 270.035 629.266 269.76Z" fill="#282828"/>
<path d="M633.538 239.895C633.258 238.222 632.893 236.564 632.445 234.928C632.228 234.451 631.999 233.983 631.76 233.524L631.538 233.264L631.261 233.073C630.825 232.924 630.387 232.789 629.945 232.668C628.555 232.6 627.161 232.625 625.775 232.744C624.799 232.963 623.828 233.213 622.861 233.495C619.428 234.605 615.732 234.605 612.299 233.495L607.777 231.26C605.922 233.132 603.303 236.227 603.303 236.227C603.303 236.227 598.718 241.738 595.065 257.029C600.046 254.354 605.702 253.399 611.112 254.459C618.691 255.959 625.631 261.422 629.717 269.03C632.473 264.416 634.936 259.635 637.093 254.713C636.339 253.375 635.752 251.948 635.345 250.467C634.09 247.65 633.502 244.582 633.626 241.501C633.605 240.966 633.573 240.426 633.538 239.895Z" fill="#282828"/>
<path d="M595.065 257.015C594.481 259.462 593.919 262.159 593.405 265.126C589.674 286.625 605.823 287.313 615.906 284.589C619.224 283.693 624.474 277.733 629.716 269.018C625.618 261.409 618.687 255.945 611.109 254.445C605.702 253.385 600.044 254.34 595.065 257.015Z" fill="#FCD1A6"/>
<path d="M631.261 233.073C630.825 232.924 630.387 232.789 629.945 232.668C628.555 232.6 627.161 232.625 625.775 232.744C624.799 232.963 623.828 233.213 622.861 233.495C619.428 234.605 615.732 234.605 612.299 233.495L607.777 231.26C605.922 233.132 603.303 236.227 603.303 236.227C603.303 236.227 598.718 241.738 595.065 257.029C600.046 254.354 605.702 253.399 611.112 254.459C615.812 255.388 620.261 257.844 623.942 261.388C628.096 253.156 630.789 243.931 632.218 234.452C632.071 234.144 631.92 233.837 631.763 233.535L631.542 233.275L631.261 233.073Z" fill="#383838"/>
<path d="M595.065 257.016C595.065 257.044 595.052 257.073 595.046 257.101C594.473 259.526 593.913 262.195 593.405 265.125C590.807 280.097 597.852 284.974 605.775 285.637C610.742 279.905 615.944 274.423 620.165 267.947C621.543 265.827 622.803 263.632 623.938 261.373C620.257 257.829 615.808 255.373 611.108 254.444C605.702 253.386 600.046 254.341 595.065 257.016Z" fill="#F2A479"/>
<path d="M625.822 289.709C624.755 291.429 623.748 293.656 624.839 295.36C625.396 296.231 626.382 296.718 627.339 297.114C634.251 299.97 642.038 300.144 649.41 298.883C656.782 297.622 663.841 294.997 670.85 292.388L685.116 287.073C668.017 285.997 649.104 285.256 629.04 284.922C627.912 286.479 626.84 288.075 625.822 289.709Z" fill="#C6345A"/>
<path d="M651.438 304.201C652.449 304.094 653.632 304.081 654.235 303.262C652.776 301.036 650.382 299.632 648.076 298.295L641.581 294.552C638.832 292.97 635.978 291.343 632.77 290.972C630.138 290.667 627.217 290.896 624.625 291.454C622.8 291.845 621.088 292.569 619.36 293.251C616.813 294.258 614.181 294.971 611.607 295.897C609.174 296.772 606.32 298.19 605.76 300.99C609.449 303.076 614.236 298.717 618.127 300.394C620.508 301.42 621.446 304.228 622.248 306.698C622.951 308.863 623.776 311.039 625.192 312.811C626.608 314.584 628.73 315.941 631.007 315.929C631.342 315.956 631.675 315.864 631.949 315.669C632.646 315.069 631.949 313.977 631.345 313.283C630.19 311.926 629.389 310.304 629.013 308.562C628.638 306.82 628.7 305.012 629.194 303.3C630.807 306.517 632.478 309.816 635.153 312.225C637.827 314.634 641.77 315.986 645.106 314.632C643.716 314.167 642.491 313.311 641.576 312.168C640.661 311.024 640.096 309.64 639.948 308.183C642.905 309.6 646.195 310.18 649.459 309.86C649.977 309.808 650.563 309.688 650.821 309.237C651.473 308.104 649.318 307.185 649.263 305.879C649.211 304.876 650.428 304.314 651.438 304.201Z" fill="#C6345A"/>
<path d="M464.928 304.391L461.317 306.437C461.317 306.437 582.293 312.579 592.483 314.3L633.158 286.768L514.597 282.947C514.03 283.675 464.928 304.391 464.928 304.391Z" fill="#C6345A"/>
<path d="M539.856 274.973C538.652 275.355 490.11 273.582 490.11 273.582C490.11 273.582 464.079 294.997 461.739 301.122L464.928 304.392C464.928 304.392 505.636 303.219 524.042 308.156C524.042 308.156 576.861 308.588 593.124 312.466L627.364 285.938L625.616 279.802C625.616 279.802 547.725 272.489 539.856 274.973Z" fill="#FFD252"/>
<path d="M468.444 299.154C468.444 299.154 506.623 296.916 526.729 306.11L536.608 289.463L490.031 286.162C488.423 286.987 470.141 292.803 468.444 299.154Z" fill="#936221"/>
<path d="M530.027 301.047C537.787 299.343 546.409 299.37 555.259 301.225C558.173 301.836 561.111 302.64 564.059 303.032C567.197 303.45 570.319 303.395 573.511 303.848C576.623 304.304 579.659 305.181 582.536 306.453C594.244 297.64 606.534 289.628 619.321 282.471C615.335 280.813 611.261 279.374 607.118 278.161C594.651 277.099 578.306 275.8 564.899 275.051L530.027 301.047Z" fill="#936221"/>
<path d="M521.843 303.47C505.274 300.536 461.739 301.111 461.739 301.111L464.928 304.391C464.928 304.391 505.636 303.218 524.042 308.154C524.042 308.154 576.861 308.586 593.124 312.464L627.364 285.937L625.616 279.801L591.325 308.265C567.069 303.35 521.843 303.47 521.843 303.47Z" fill="#D6973C"/>
<path d="M593.125 312.466L627.364 285.939L625.616 279.803L591.325 308.267C591.325 308.267 593.046 311.314 593.125 312.466Z" fill="#936221"/>
<path d="M468.011 296.997C468.011 296.997 506.218 294.615 526.359 303.783L536.245 287.033L489.619 283.877C488.003 284.714 469.705 290.613 468.011 296.997Z" fill="#EDD19A"/>
<path d="M520.127 256.227C520.127 256.227 484.507 268.325 467.743 291.736C467.743 291.736 505.431 293.074 526.359 303.783L566.757 273.662C555.914 265.375 543.921 260.047 532.08 258.146L520.127 256.227Z" fill="#FFF9E9"/>
<path d="M512.066 278.919C509.823 277.719 507.472 277.347 505.189 276.995C503.403 276.72 501.626 276.455 499.855 276.172C498.793 276 497.721 275.773 496.695 275.826C494.032 275.966 491.555 276.839 489.617 278.47C488.603 279.324 487.38 280.497 486.895 281.89C486.221 283.185 485.789 284.971 486.685 286.555C487.317 287.672 488.427 288.335 489.467 288.79C494.376 290.932 499.423 290.23 504.461 292.364C507.327 293.579 510.45 295.73 513.021 294.878C514.55 294.37 515.505 292.863 516.235 291.3C517.088 289.461 517.746 287.288 517.146 284.952C516.47 282.339 514.318 280.128 512.066 278.919Z" fill="#FFEA92"/>
<path d="M518.738 300.522C521.345 301.447 523.89 302.536 526.359 303.783L566.757 273.662C562.861 270.677 558.719 268.027 554.376 265.74C552.254 267.591 535.811 278.058 518.738 300.522Z" fill="#EDD19A"/>
<path d="M566.758 273.662C566.758 273.662 547.857 279.057 526.359 303.783C526.359 303.783 563.346 294.109 587.418 305.796L626.227 274.535C590.402 268.72 566.758 273.662 566.758 273.662Z" fill="#FFF9E9"/>
<path d="M566.757 273.663C566.757 273.663 546.263 280.922 526.066 303.034C540.132 296.814 561.251 294.035 579.652 299.787C586.871 290.055 591.672 282.332 600.364 275.777C602.272 274.377 604.325 273.186 606.489 272.226C582.009 270.476 566.757 273.663 566.757 273.663Z" fill="#EDD19A"/>
<path d="M526.206 303.96C536.245 299.819 546.878 294.315 558.873 292.666C563.13 292.082 567.502 291.665 572.013 291.711C574.085 291.726 580.825 291.52 580.825 291.52C580.825 291.52 600.706 264.051 615.995 254.721C602.731 257.382 567.577 270.237 562.249 272.978C550.766 278.881 532.615 294.116 526.206 303.96Z" fill="#FFF9E9"/>
<path d="M578.013 279.657C573.856 276.726 569.193 279.657 565.326 280.134C561.559 280.604 557.901 280.998 554.833 282.982C552.951 284.193 551.39 285.841 550.282 287.785C550.091 288.11 549.921 288.484 550.022 288.901C550.183 289.567 550.934 289.934 551.551 290.081C555.272 290.956 558.585 288.824 562.356 289.069C563.899 289.168 565.47 289.665 567.03 289.833C571.806 290.33 576.009 287.575 578.638 283.764C579.123 283.059 579.583 282.19 579.303 281.257C579.111 280.595 578.578 280.056 578.013 279.657Z" fill="#FFEA92"/>
<path d="M521.668 275.71C520.537 275.238 519.649 274.459 518.611 273.737C516.347 272.147 514.487 272.867 512.263 272.743C509.898 272.609 507.846 270.546 505.541 269.946C503.418 269.394 501.454 270.137 499.915 271.257C499.567 271.511 499.974 272.334 500.388 272.151C502.681 271.14 504.666 270.605 507.413 272.227C509.426 273.419 511.1 274.47 513.253 274.489C514.433 274.501 515.658 274.262 516.882 274.77C517.918 275.198 518.77 276.147 519.733 276.803C521.379 277.92 523.586 278.904 525.15 278.077C525.532 277.871 525.401 277.08 524.959 276.841C523.882 276.254 522.77 276.172 521.668 275.71Z" fill="#EDD19A"/>
<path d="M535.88 266.431C535.236 266.064 534.839 265.395 534.277 264.903C533.8 264.468 533.263 264.105 532.682 263.825C531.727 263.397 530.892 263.573 530.094 263.961C529.083 264.452 528.006 265.029 527.228 265.871C526.788 266.347 526.451 266.908 526.239 267.521C526.027 268.133 525.943 268.782 525.994 269.428C526.118 271.193 527.14 272.976 528.458 274.227C529.776 275.478 531.396 276.256 532.999 276.73C534.038 277.037 535.101 277.23 536.094 277.052C537.11 276.871 537.981 276.304 538.769 275.658C539.865 274.756 540.87 273.612 541.156 272.055C541.443 270.498 540.774 268.46 539.353 267.594C538.247 266.905 537.005 267.069 535.88 266.431Z" fill="#AFCC93"/>
<path d="M512.941 267.522C510.559 266.88 507.988 266.083 505.917 267.056C505.426 267.287 505.789 268.255 506.331 268.081C508.624 267.338 511.871 268.624 514.382 269.589C516.265 270.315 519.037 272.808 520.896 272.049C521.469 271.816 521.435 270.624 520.642 270.452C518.013 269.879 515.57 268.232 512.941 267.522Z" fill="#EDD19A"/>
<path d="M580.187 272.76L575.114 274.065C574.185 274.499 573.299 275.076 572.298 275.341C571.297 275.607 570.297 275.555 569.277 275.597C568.513 275.602 567.753 275.716 567.021 275.935C566.188 276.22 565.289 277.047 564.293 276.583C563.72 276.315 563.338 277.108 563.926 277.446C565.384 278.279 566.41 277.41 567.772 277.187C569.646 276.875 571.652 277.53 573.518 277.007C575.385 276.484 576.991 275.381 578.986 275.024C580.039 274.844 581.109 274.793 582.174 274.873C583.171 274.942 583.932 275.165 584.803 274.747C585.164 274.575 585.112 273.996 584.816 273.71C583.582 272.514 581.626 272.678 580.187 272.76Z" fill="#EDD19A"/>
<path d="M575.902 271.265C573.26 272.176 570.671 272.76 567.775 272.564C567.168 272.524 567.149 273.561 567.775 273.71C570.431 274.31 572.996 273.901 575.455 273.217C576.792 272.846 578.145 272.453 579.495 272.071C580.915 271.66 582.502 271.459 583.851 270.869C584.629 270.529 584.424 269.282 583.452 269.203C580.796 268.974 578.206 270.47 575.902 271.265Z" fill="#EDD19A"/>
<path d="M637.808 308.681L722.903 315.799L744.083 297.874L669.686 284.73L637.808 308.681Z" fill="#C6345A"/>
<path d="M688.948 290.081C688.213 290.312 658.56 289.229 658.56 289.229C658.56 289.229 642.66 302.311 641.231 306.051L643.18 308.057C643.18 308.057 668.045 307.341 679.286 310.349C679.286 310.349 711.552 310.613 721.484 312.98L742.4 296.776L741.332 293.028C741.332 293.028 693.749 288.568 688.948 290.081Z" fill="#FFD252"/>
<path d="M645.327 304.858C645.327 304.858 668.647 303.49 680.929 309.108L686.963 298.941L658.526 296.922C657.531 297.426 646.364 300.978 645.327 304.858Z" fill="#936221"/>
<path d="M704.242 290.135L682.943 306.014C687.685 304.974 692.95 304.99 698.356 306.123C700.137 306.505 701.93 306.988 703.732 307.227C705.642 307.483 707.553 307.448 709.505 307.725C711.406 308.005 713.261 308.54 715.018 309.317C722.17 303.933 729.677 299.038 737.488 294.666C735.054 293.654 732.567 292.775 730.038 292.034C722.419 291.386 712.434 290.593 704.242 290.135Z" fill="#936221"/>
<path d="M677.945 307.495C667.82 305.703 641.231 306.052 641.231 306.052L643.18 308.058C643.18 308.058 668.045 307.342 679.286 310.351C679.286 310.351 711.552 310.614 721.484 312.981L742.4 296.777L741.332 293.029L720.385 310.414C705.571 307.42 677.945 307.495 677.945 307.495Z" fill="#D6973C"/>
<path d="M645.062 303.539C645.062 303.539 668.406 302.086 680.703 307.685L686.742 297.453L658.26 295.525C657.273 296.035 646.097 299.64 645.062 303.539Z" fill="#EDD19A"/>
<path d="M676.898 278.635C676.898 278.635 655.139 286.024 644.899 300.325C644.899 300.325 667.921 301.137 680.703 307.684L705.38 289.285C698.758 284.223 691.434 280.969 684.199 279.808L676.898 278.635Z" fill="#FFF9E9"/>
<path d="M676.047 305.692C677.639 306.258 679.194 306.923 680.702 307.685L705.379 289.286C703 287.462 700.47 285.842 697.817 284.445C696.52 285.578 686.477 291.974 676.047 305.692Z" fill="#EDD19A"/>
<path d="M696.515 287.389C694.269 288.325 692.058 289.344 689.884 290.446C687.71 291.547 685.565 292.737 683.448 294.016C681.348 295.29 679.298 296.637 677.297 298.058C676.376 298.716 675.492 299.447 674.479 299.969C673.851 300.288 673.178 300.486 672.533 300.762C671.703 301.139 670.945 301.656 670.292 302.29C669.843 302.699 669.43 303.147 669.058 303.627C670.294 303.929 671.522 304.256 672.726 304.613C673.803 304.109 674.854 303.537 675.889 302.949C679.119 301.119 682.249 299.113 685.374 297.111L694.614 291.189C696.049 290.27 697.593 289.208 698.053 287.559C697.807 287.03 697.043 287.16 696.515 287.389Z" fill="#EDD19A"/>
<path d="M705.379 289.286C705.379 289.286 693.835 292.582 680.703 307.685C680.703 307.685 703.297 301.776 718.001 308.915L741.707 289.812C719.824 286.268 705.379 289.286 705.379 289.286Z" fill="#FFF9E9"/>
<path d="M696.105 285.873L667.696 302.278L665.575 304.952H669.235L697.644 288.535C697.999 288.33 698.258 287.994 698.365 287.599C698.471 287.203 698.416 286.782 698.212 286.427C698.008 286.073 697.671 285.814 697.276 285.707C696.881 285.601 696.459 285.656 696.105 285.86V285.873Z" fill="#BCDD33"/>
<path d="M665.571 304.946H669.233L669.01 304.123L668.416 303.911V303.452L667.692 303.091V302.279L665.571 304.946Z" fill="#FFDF97"/>
<path d="M669.233 304.944L697.644 288.534C697.951 288.357 698.187 288.08 698.313 287.749C698.44 287.419 698.448 287.055 698.338 286.719L669.012 304.103L669.233 304.944Z" fill="#86991A"/>
<path d="M665.852 304.944H669.233L669.009 304.121L666.377 304.667L665.852 304.944Z" fill="#C4A974"/>
<path d="M666.441 304.946L666.633 304.497L666.185 304.176L665.571 304.946H666.441Z" fill="#262626"/>
<path d="M662.627 298.331C661.339 298.122 660.025 298.159 658.743 297.949C657.461 297.738 656.285 297.217 655.003 297.041C653.911 296.901 652.805 296.921 651.719 297.1C651.367 297.154 651.448 297.748 651.803 297.723C653.025 297.622 654.256 297.715 655.45 297.998C656.596 298.279 657.649 298.816 658.8 299.053C659.891 299.278 661.013 299.334 662.107 299.551C663.338 299.796 664.514 300.208 665.737 300.489C666.388 300.64 666.872 299.679 666.215 299.36C665.091 298.814 663.848 298.529 662.627 298.331Z" fill="#EDD19A"/>
<path d="M667.951 295.172C666.664 294.964 665.349 294.999 664.067 294.79C662.786 294.582 661.609 294.059 660.327 293.883C659.236 293.743 658.13 293.763 657.045 293.942C656.693 293.996 656.774 294.592 657.129 294.565C658.351 294.465 659.581 294.558 660.774 294.84C661.92 295.121 662.973 295.658 664.125 295.894C665.217 296.12 666.337 296.175 667.432 296.393C668.662 296.638 669.839 297.05 671.061 297.333C671.711 297.484 672.194 296.523 671.537 296.204C670.416 295.656 669.174 295.369 667.951 295.172Z" fill="#EDD19A"/>
<path d="M673.697 291.828C672.41 291.62 671.093 291.657 669.813 291.446C668.534 291.236 667.355 290.713 666.071 290.537C664.98 290.397 663.874 290.417 662.789 290.598C662.438 290.652 662.518 291.246 662.873 291.219C664.096 291.119 665.326 291.212 666.52 291.494C667.666 291.775 668.719 292.314 669.871 292.551C670.962 292.774 672.083 292.829 673.178 293.047C674.408 293.292 675.583 293.704 676.807 293.987C677.459 294.138 677.942 293.177 677.283 292.858C676.16 292.312 674.918 292.025 673.697 291.828Z" fill="#EDD19A"/>
<path d="M679.778 288.121C678.491 287.913 677.174 287.949 675.895 287.739C674.615 287.529 673.436 287.006 672.152 286.83C671.061 286.69 669.955 286.71 668.87 286.891C668.519 286.945 668.599 287.539 668.954 287.512C670.177 287.412 671.407 287.505 672.601 287.787C673.747 288.068 674.8 288.607 675.952 288.844C677.043 289.067 678.164 289.122 679.259 289.34C680.489 289.585 681.666 289.997 682.888 290.28C683.54 290.431 684.023 289.47 683.364 289.151C682.241 288.605 680.999 288.318 679.778 288.121Z" fill="#EDD19A"/>
<path d="M685.744 284.233C684.457 284.025 683.142 284.061 681.86 283.851C680.579 283.641 679.402 283.117 678.12 282.941C677.029 282.801 675.923 282.822 674.838 283.002C674.486 283.056 674.567 283.65 674.922 283.625C676.144 283.524 677.374 283.616 678.567 283.898C679.713 284.179 680.766 284.718 681.918 284.955C683.01 285.18 684.13 285.236 685.225 285.452C686.455 285.698 687.632 286.109 688.854 286.391C689.504 286.542 689.987 285.581 689.33 285.262C688.209 284.714 686.967 284.43 685.744 284.233Z" fill="#EDD19A"/>
<path d="M575.253 202.65C575.253 202.65 546.856 225.112 549.234 239.631C551.047 250.711 573.396 263.568 583.907 269.05C585.453 269.856 587.214 270.151 588.938 269.893C590.662 269.634 592.26 268.836 593.501 267.612V267.612C596.881 264.284 609.6 268.311 593.243 255.621L574.21 238.427L588.292 221.404C588.292 221.404 587.054 197.744 575.253 202.65Z" fill="#F2A479"/>
<path d="M603.126 260.644C601.76 259.307 600.115 258.195 598.248 257.813C596.711 257.498 595.11 257.698 593.597 258.109C589.486 259.262 585.937 261.876 583.617 265.46C583.35 265.875 582.662 266.696 582.776 267.221C582.908 267.794 583.913 267.955 584.362 268.177C585.869 268.935 587.143 270.086 588.051 271.508C588.972 272.966 589.47 274.651 590.299 276.164C591.129 277.677 592.449 279.089 594.156 279.322C595.127 279.455 596.105 279.192 597.037 278.888C599.301 278.151 601.513 277.146 603.324 275.602C605.135 274.059 606.522 271.925 606.83 269.565C607.256 266.247 605.517 262.963 603.126 260.644Z" fill="#FCD1A6"/>
<path d="M594.861 274.59C594.305 274.836 593.698 274.943 593.092 274.902C591.797 274.877 590.519 274.603 589.328 274.094C589.628 274.791 589.928 275.488 590.293 276.153C591.124 277.664 592.442 279.078 594.15 279.311C595.12 279.445 596.098 279.181 597.031 278.877C599.294 278.14 601.507 277.135 603.318 275.591C605.129 274.048 606.516 271.914 606.823 269.555C607.15 267.05 606.235 264.563 604.735 262.486C604.812 263.143 604.926 263.803 604.999 264.45C605.259 266.46 605.215 268.756 603.774 270.181C603.453 270.498 603.033 270.77 602.584 270.733C601.82 270.67 601.413 269.816 601.163 269.089C601.207 270.093 601.247 271.127 600.92 272.078C600.594 273.03 599.81 273.893 598.819 274.008C598.656 273.282 598.339 272.601 597.889 272.01C597.438 271.419 596.865 270.932 596.209 270.582C596.547 272.076 596.215 273.912 594.861 274.59Z" fill="#F2A479"/>
<path d="M549.234 239.63C551.047 250.71 573.396 263.567 583.907 269.049C585.453 269.855 587.214 270.15 588.938 269.892C590.662 269.633 592.259 268.835 593.501 267.611V267.611C593.627 267.487 593.747 267.361 593.862 267.229C583.376 263.42 573.567 257.96 564.805 251.056C560.058 247.309 555.505 242.961 553.211 237.364C552.028 234.477 551.614 231.333 552.011 228.238C549.86 232.218 548.663 236.155 549.234 239.63Z" fill="#FCD1A6"/>
<path d="M575.252 202.65C575.252 202.65 559.568 215.048 552.5 227.38C557.597 226.998 562.762 227.063 567.3 229.271C570.721 230.935 573.47 233.741 575.338 237.069L588.298 221.404C588.298 221.404 587.053 197.744 575.252 202.65Z" fill="#FF7626"/>
<path d="M564.947 224.575C561.495 223.62 557.878 223.931 554.304 224.485C553.657 225.44 553.049 226.413 552.493 227.377C557.59 226.995 562.756 227.06 567.293 229.269C570.714 230.932 573.463 233.739 575.332 237.067L577.099 234.929C576.717 234.293 576.334 233.666 575.912 233.055C573.245 229.163 569.503 225.824 564.947 224.575Z" fill="#FF6810"/>
<path d="M659.143 287.414C669.218 285.089 697.094 242.937 688.479 215.997C679.863 189.057 622.256 178.968 622.256 178.968C622.256 178.968 569.597 171.678 571.222 212.681C572.848 253.683 646.552 246.112 646.552 246.112C646.552 246.112 640.383 252.441 636.652 270.794C632.921 289.147 649.068 289.739 659.143 287.414Z" fill="#FF6810"/>
<path d="M648.371 225.336C634.765 231.608 620.206 236.078 605.261 236.989C598.134 237.423 590.857 237.025 584.095 234.735C583.392 234.494 582.691 234.232 581.993 233.95C601.175 249.275 639.709 246.699 645.732 246.191L645.104 246.241C645.308 246.113 645.511 245.983 645.711 245.859C645.646 244.818 645.576 243.779 645.52 242.737C645.293 238.374 645.769 234.32 646.43 229.965C646.881 228.347 647.533 226.792 648.371 225.336Z" fill="#FF843D"/>
<path d="M618.869 240.117C613.762 237.67 608.015 236.888 602.44 237.883C600.476 238.239 597.354 239.522 597.505 241.87C606.144 244.669 615.654 245.915 623.991 246.398C624.005 245.415 623.74 244.447 623.226 243.609C622.246 241.998 620.571 240.938 618.869 240.117Z" fill="#FF6810"/>
<path d="M646.391 246.125L646.177 246.146L646.391 246.125Z" fill="#D8A04E"/>
<path d="M646.17 246.15L645.898 246.175L646.17 246.15Z" fill="#D8A04E"/>
<path d="M645.111 246.238L645.348 246.221L645.111 246.238Z" fill="#D8A04E"/>
<path d="M645.574 246.201L645.396 246.216L645.574 246.201Z" fill="#D8A04E"/>
<path d="M644.712 199.946C644.232 199.119 643.39 198.184 642.5 198.538C641.863 198.79 641.644 199.566 641.51 200.238C638.463 215.541 636.6 231.055 635.938 246.644C640.125 246.58 643.365 246.373 645.107 246.238C647.069 245.011 648.939 243.643 650.703 242.146C652.134 227.516 651.983 212.466 644.712 199.946Z" fill="#FF6810"/>
<path d="M645.751 246.188L645.627 246.199L645.751 246.188Z" fill="#D8A04E"/>
<path d="M645.641 245.898C647.41 244.759 649.102 243.505 650.707 242.144C651.035 238.782 651.28 235.399 651.372 232.02L646.844 235.124L646.462 238.532L645.641 245.898Z" fill="#FF6810"/>
<path d="M666.654 193.973C666.95 194.133 667.245 194.294 667.537 194.458C667.243 194.292 666.95 194.129 666.654 193.973Z" fill="white"/>
<path d="M651.371 232.029C651.277 235.401 651.035 238.784 650.706 242.154C657.643 236.281 662.95 228.472 665.708 219.802C665.807 219.491 665.899 219.178 665.993 218.866C666.021 218.773 666.048 218.675 666.075 218.587C666.141 218.354 666.205 218.121 666.266 217.888L666.34 217.613C666.509 216.976 666.664 216.34 666.807 215.703L666.858 215.458C666.914 215.206 666.965 214.952 667.015 214.694C667.032 214.614 667.047 214.534 667.063 214.453C667.19 213.796 667.303 213.137 667.403 212.474C667.403 212.413 667.42 212.352 667.429 212.283C667.469 212.002 667.51 211.72 667.546 211.437L667.569 211.246C667.653 210.565 667.723 209.882 667.779 209.198C667.779 209.162 667.779 209.125 667.779 209.091C667.804 208.778 667.827 208.464 667.844 208.151C667.844 208.109 667.844 208.069 667.844 208.027C667.884 207.326 667.911 206.623 667.92 205.926V205.889C667.92 205.551 667.92 205.213 667.92 204.875V204.793C667.92 204.08 667.892 203.369 667.855 202.657C667.705 199.729 667.295 196.82 666.631 193.965C665.357 193.269 664.062 192.6 662.745 191.955C663.742 200.712 663.737 209.792 660.644 218.035C658.626 223.329 655.459 228.108 651.371 232.029Z" fill="white"/>
<path d="M571.222 212.681C571.317 215.522 571.821 218.335 572.718 221.032C574 221.796 575.309 222.512 576.627 223.204C584.494 227.336 593.524 230.729 602.124 228.486C608.648 226.786 614.022 221.991 617.789 216.391C621.557 210.792 623.903 204.39 626.195 198.052C628.245 192.433 630.296 186.814 632.346 181.197C626.279 179.668 622.265 178.964 622.265 178.964C622.265 178.964 569.597 171.679 571.222 212.681Z" fill="#FF6810"/>
<path d="M672.953 274.119L672.59 274.631C672.71 274.461 672.832 274.291 672.953 274.119Z" fill="#282828"/>
<path d="M672.59 274.631L672.504 274.749L672.59 274.631Z" fill="#282828"/>
<path d="M688.478 215.997C685.527 206.766 676.825 199.515 666.654 193.969C668.634 202.458 668.355 211.485 665.699 219.799C662.238 230.669 654.768 240.196 645.102 246.238C646.026 246.167 641.77 251.003 638.085 264.635C638.154 264.379 638.224 264.125 638.293 263.871C643.304 261.557 648.892 260.792 654.34 261.676C661.921 262.956 668.859 267.621 672.947 274.116C683.622 258.971 694.25 234.063 688.478 215.997Z" fill="#282828"/>
<path d="M672.503 274.75C672.335 274.986 672.167 275.217 671.999 275.445C672.167 275.216 672.335 274.984 672.503 274.75Z" fill="#282828"/>
<path d="M654.346 261.679C648.898 260.796 643.31 261.56 638.299 263.874C637.714 265.962 637.153 268.268 636.639 270.798C632.908 289.152 649.056 289.739 659.139 287.418C662.457 286.654 667.709 281.564 672.949 274.123C668.857 267.624 661.926 262.959 654.346 261.679Z" fill="#FCD1A6"/>
<path d="M638.304 263.873C638.304 263.898 638.291 263.923 638.283 263.948C637.71 266.018 637.15 268.295 636.642 270.798C634.044 283.58 641.092 287.745 649.012 288.31C653.979 283.422 659.183 278.736 663.405 273.218C664.771 271.423 666.03 269.549 667.176 267.606C663.218 264.298 658.398 262.191 653.283 261.531C648.168 260.871 642.971 261.687 638.304 263.883V263.873Z" fill="#F2A479"/>
<path d="M654.346 261.679C659.064 262.505 663.486 264.546 667.176 267.601C672.716 258.21 675.671 247.305 676.472 236.386C676.854 231.153 676.764 225.844 675.591 220.732C674.378 215.443 672.036 210.483 669.505 205.683C668.974 204.673 668.432 203.668 667.879 202.668C668.188 208.464 667.453 214.268 665.709 219.804C662.247 230.674 654.778 240.201 645.111 246.243C646.036 246.173 641.959 250.828 638.305 263.878C643.313 261.564 648.899 260.798 654.346 261.679V261.679Z" fill="#383838"/>
<path d="M652.556 261.446C656.497 252.561 658.655 242.989 658.908 233.273C655.194 238.448 650.51 242.851 645.117 246.239C646.042 246.168 641.965 250.824 638.311 263.874C642.763 261.827 647.677 260.989 652.556 261.446V261.446Z" fill="#282828"/>
<path d="M638.275 263.946C637.702 266.017 637.143 268.294 636.634 270.797C634.949 279.086 637.322 283.751 641.357 286.16C641.689 284.403 642.151 282.674 642.738 280.985C644.694 275.388 648.062 270.413 650.777 265.14C651.403 263.925 651.994 262.693 652.548 261.444C647.666 260.987 642.751 261.824 638.296 263.872C638.296 263.891 638.291 263.922 638.275 263.946Z" fill="#C67F5C"/>
<path d="M557.236 197.035C563.053 194.289 565.543 187.347 562.797 181.53C560.051 175.713 553.109 173.223 547.292 175.969C541.475 178.715 538.985 185.657 541.731 191.474C544.477 197.291 551.419 199.781 557.236 197.035Z" fill="#F2A479"/>
<path d="M629.587 181.048C630.043 180.706 630.647 180.654 631.209 180.551C633.883 180.056 636.126 178.127 637.53 175.804C638.934 173.481 639.59 170.782 640.014 168.1C640.251 166.629 640.424 165.127 640.245 163.648C639.752 159.574 636.306 156.039 632.244 155.445C628.922 154.96 626.198 156.551 623.659 158.441C623.025 158.913 622.53 159.396 622.307 160.183C621.558 162.796 622.362 166.21 623.334 168.657C619.536 168.231 615.918 165.746 614.6 162.162C613.435 158.993 614.101 155.487 614.581 152.144C615.374 146.619 615.274 140.159 611.051 136.508C607.929 133.809 603.461 133.486 599.334 133.425C593.464 133.337 587.461 133.541 581.963 135.597C576.465 137.652 571.839 141.406 567.492 145.315C565.485 147.12 563.357 149.051 560.694 149.5C558.38 149.882 556.055 149.086 553.736 148.736C551.701 148.431 549.629 148.47 547.608 148.853C546.574 149.034 545.561 149.316 544.583 149.697C543.779 150.026 543.775 150.347 543.752 151.158C543.626 155.594 543.43 160.019 543.621 164.456C543.793 168.422 544.24 172.388 545.187 176.249C546.496 181.587 548.744 186.68 549.732 192.084C550.588 196.757 550.496 201.636 552.173 206.087C555.064 213.765 562.825 218.743 570.818 220.589C585.931 224.079 601.785 218.08 614.598 209.339C619.07 206.282 623.386 202.818 626.387 198.314C629.388 193.809 630.96 188.116 629.575 182.882C629.134 182.521 629.128 181.39 629.587 181.048Z" fill="#FCD1A6"/>
<path opacity="0.59" d="M629.588 181.047C630.044 180.705 630.648 180.653 631.21 180.55C633.884 180.055 636.127 178.126 637.531 175.803C638.935 173.48 639.591 170.781 640.015 168.098C640.252 166.627 640.425 165.126 640.246 163.647C639.753 159.572 636.307 156.038 632.245 155.444C628.923 154.959 626.199 156.55 623.66 158.44C623.026 158.911 622.531 159.395 622.308 160.182C621.559 162.795 622.363 166.209 623.335 168.656C619.537 168.23 615.919 165.745 614.601 162.161C613.436 158.992 614.102 155.486 614.582 152.143C615.375 146.618 615.275 140.157 611.052 136.507C609.172 134.883 606.805 134.119 604.32 133.754C603.758 140.908 603.519 148.261 606.318 154.816C607.414 157.381 608.945 159.735 610.259 162.197C615.78 172.542 617.36 184.959 614.462 196.32C612.64 203.347 609.198 209.85 604.411 215.307C607.946 213.559 611.353 211.562 614.607 209.334C619.079 206.277 623.395 202.813 626.396 198.309C629.397 193.804 630.969 188.111 629.584 182.877C629.135 182.52 629.129 181.389 629.588 181.047Z" fill="#F2A479"/>
<path d="M605.367 196.51C610.706 194.296 614.145 190.358 613.048 187.713C611.952 185.067 606.734 184.718 601.395 186.931C596.057 189.145 592.618 193.084 593.714 195.729C594.811 198.374 600.028 198.724 605.367 196.51Z" fill="#FFAB8A"/>
<path d="M560.01 207.442C564.769 207.442 568.626 205.12 568.626 202.257C568.626 199.394 564.769 197.072 560.01 197.072C555.252 197.072 551.395 199.394 551.395 202.257C551.395 205.12 555.252 207.442 560.01 207.442Z" fill="#FFAB8A"/>
<path d="M603.628 184.996C605.968 179.112 603.096 172.445 597.213 170.105C591.33 167.764 584.663 170.636 582.322 176.519C579.981 182.402 582.853 189.069 588.737 191.41C594.62 193.751 601.287 190.879 603.628 184.996Z" fill="#F2A479"/>
<path d="M561.475 197.868C567.489 197.868 572.364 192.993 572.364 186.979C572.364 180.965 567.489 176.09 561.475 176.09C555.461 176.09 550.586 180.965 550.586 186.979C550.586 192.993 555.461 197.868 561.475 197.868Z" fill="#F2A479"/>
<path d="M551.911 191.055C550.976 181.808 548.162 172.849 543.641 164.729C543.82 168.601 544.269 172.471 545.194 176.242C546.502 181.58 548.751 186.673 549.738 192.077C550.594 196.75 550.503 201.629 552.18 206.08C554.663 212.675 560.74 217.277 567.463 219.613C562.479 217.281 557.989 214.205 555.378 209.469C552.346 203.952 552.528 197.321 551.911 191.055Z" fill="#FFE1C5"/>
<path d="M629.587 181.048C630.044 180.706 630.647 180.654 631.209 180.551C633.883 180.056 636.126 178.127 637.53 175.804C638.934 173.481 639.59 170.781 640.014 168.099C640.251 166.628 640.425 165.127 640.245 163.648C639.752 159.573 636.306 156.039 632.244 155.445C628.922 154.96 626.198 156.551 623.659 158.441C623.025 158.912 622.53 159.396 622.307 160.183C621.558 162.796 622.362 166.21 623.334 168.657C619.537 168.231 615.918 165.746 614.6 162.162C613.435 158.993 614.102 155.487 614.581 152.144C615.374 146.619 615.275 140.158 611.051 136.508C607.929 133.808 603.461 133.485 599.335 133.424C598.379 133.409 597.405 133.403 596.438 133.413C601.377 140.449 606.132 147.613 610.109 155.223C615.427 165.402 619.348 176.48 620.07 187.942C620.453 194.213 619.877 200.506 618.362 206.603C621.418 204.217 624.24 201.529 626.385 198.31C629.388 193.805 630.959 188.112 629.574 182.878C629.134 182.521 629.129 181.39 629.587 181.048Z" fill="#F2A479"/>
<path d="M611.057 136.504C607.935 133.805 603.467 133.482 599.34 133.421C593.47 133.333 587.467 133.537 581.969 135.593C576.471 137.648 571.844 141.402 567.498 145.311C565.491 147.116 563.362 149.047 560.699 149.496C558.386 149.878 556.061 149.082 553.742 148.732C551.707 148.427 549.635 148.466 547.613 148.849C546.58 149.03 545.567 149.313 544.589 149.693C543.785 150.022 543.781 150.343 543.758 151.155C543.632 155.59 543.435 160.015 543.626 164.453C543.736 167.33 544.035 170.196 544.521 173.034C547.204 171.523 549.752 169.784 552.135 167.834C552.521 172.162 554.195 176.275 556.94 179.644C562.016 174.113 566.506 168.071 570.337 161.616C571.012 164.036 572.233 166.27 573.906 168.145C575.579 170.02 577.66 171.487 579.988 172.432C580.861 166.226 583.288 160.341 587.045 155.325C590.807 159.868 595.818 163.665 601.51 165.209L600.259 147.137C605.585 150.241 608.959 156.57 614.014 159.589C613.763 157.151 614.216 154.603 614.57 152.138C615.38 146.616 615.28 140.155 611.057 136.504Z" fill="#F2A479"/>
<path d="M634.846 120.323C633.821 119.678 632.676 119.177 631.841 118.297C634.075 117.223 635.972 116.858 638.205 115.784C633.62 111.501 627.188 109.585 620.937 110.074C622.789 107.667 624.739 105.34 626.787 103.092C622.622 101.638 618.349 100.167 613.939 100.249C609.975 100.322 606.155 101.648 602.416 102.968C599.021 104.168 595.216 106.542 591.827 107.757C583.752 102.7 573.297 102.716 564.234 105.656C555.171 108.596 547.22 114.151 539.539 119.792C542.719 119.366 545.887 121.649 548.557 123.422C543.445 123.233 538.447 124.962 534.543 128.269C532.422 130.082 530.619 132.37 528.082 133.53C530.451 135.604 532.682 137.757 535.051 139.834C530.869 146.204 528.183 153.438 527.192 160.993C527.149 161.185 527.166 161.385 527.242 161.566C527.41 161.862 527.815 161.885 528.16 161.862C532.767 161.531 537.077 159.464 540.219 156.078C536.05 161.822 535.034 169.714 537.611 176.328C542.745 170.95 548.92 166.674 555.759 163.759C555.542 167.561 556.497 170.125 557.2 173.867C562.956 169.767 567.223 163.907 569.357 157.171C574.17 163.07 582.019 166.453 589.588 167.282C589.444 162.026 588.699 156.804 587.366 151.718C589.703 154.75 593.176 155.785 596.899 156.685C599.929 157.412 602.997 157.965 606.09 158.342C605.422 153.782 604.409 149.281 603.058 144.875C605.448 147.313 608.407 148.601 611.464 150.119C611.781 146.591 611.922 142.652 611.292 139.167C615.55 146.373 610.216 156.483 613.565 164.155C615.403 168.358 619.948 171.238 624.54 171.091C622.479 168.281 622.412 164.285 623.976 161.171C625.541 158.057 628.605 156.412 631.906 155.298C631.951 151.043 631.594 146.793 630.842 142.604C633.582 143.026 636.793 144.132 639.515 143.62C639.11 139.045 637.212 134.731 634.113 131.341C636.231 130.29 637.945 129.465 640.306 129.35C640.147 127.528 639.571 125.767 638.625 124.202C637.678 122.638 636.386 121.311 634.846 120.323V120.323Z" fill="#9E7654"/>
<path d="M563.152 117.791C558.813 116.122 554.171 115.384 549.528 115.624C547.948 115.708 546.351 115.903 544.752 116.035C542.992 117.263 541.254 118.519 539.529 119.789C542.71 119.363 545.877 121.646 548.548 123.419C543.438 123.233 538.443 124.963 534.543 128.269C532.422 130.082 530.619 132.371 528.082 133.53C530.451 135.605 532.682 137.758 535.051 139.834C530.869 146.205 528.183 153.438 527.192 160.993C527.149 161.185 527.166 161.385 527.242 161.567C527.41 161.863 527.815 161.886 528.16 161.863C532.767 161.532 537.077 159.464 540.219 156.078C536.302 161.475 535.17 168.767 537.183 175.113C538.197 164.873 542.607 155.266 549.711 147.822C545.858 149.557 541.595 150.172 537.408 149.596C541.168 147.88 544.689 145.684 547.885 143.063L536.914 144.253C540.838 141.944 544.401 139.068 547.488 135.719C543.611 137.273 538.767 135.91 536.278 132.552C541.337 131.324 546.256 129.573 550.953 127.327L543.311 126.538C548.688 125.9 554.113 125.786 559.511 126.196C555.272 124.244 551.449 121.492 548.252 118.093C553.144 119.427 558.318 119.322 563.152 117.791V117.791Z" fill="#BF8F6B"/>
<path opacity="0.49" d="M639.193 125.26C637.427 125.793 635.617 126.172 633.785 126.391C628.327 127.008 622.363 125.699 618.613 121.686C620.713 125.04 623.221 128.12 626.08 130.855C620.386 131.518 614.427 128.945 610.989 124.36C612.212 127.755 614.091 130.876 616.517 133.547C613.564 133.136 610.729 132.112 608.195 130.539C605.662 128.966 603.486 126.88 601.807 124.415C602.791 128.086 605.036 131.293 608.148 133.474C602.409 133.334 596.782 131.852 591.719 129.147C594.175 133.092 597.884 136.098 602.252 137.685C596.622 138.298 590.929 138 585.393 136.804C588.227 139.327 591.337 141.522 594.663 143.347C589.909 143.663 585.137 143.113 580.579 141.723C582.741 144.849 585.391 147.606 588.427 149.892C585.12 149.698 581.853 149.062 578.715 148.001L589.163 167.227L589.589 167.278C589.445 162.023 588.699 156.801 587.367 151.715C589.703 154.746 593.178 155.782 596.9 156.681C599.929 157.408 602.998 157.961 606.09 158.338C605.423 153.78 604.409 149.279 603.059 144.875C605.448 147.313 608.408 148.601 611.464 150.119C611.781 146.591 611.923 142.652 611.292 139.167C615.55 146.373 610.217 156.483 613.566 164.155C615.403 168.358 619.948 171.238 624.541 171.091C622.479 168.281 622.412 164.285 623.977 161.171C625.542 158.057 628.606 156.412 631.907 155.298C631.951 151.043 631.595 146.793 630.843 142.604C633.582 143.026 636.794 144.132 639.516 143.62C639.111 139.045 637.212 134.731 634.113 131.341C636.232 130.29 637.946 129.465 640.307 129.35C640.188 127.93 639.811 126.544 639.193 125.26V125.26Z" fill="#75563E"/>
<path d="M639.517 143.611C639.47 143.043 639.398 142.478 639.3 141.918L634.151 141.204C631.683 140.862 629.146 140.495 626.989 139.249C625.331 138.294 624 136.869 622.695 135.467C623.748 138.943 625.353 142.227 627.448 145.194C623.495 144.074 620.126 141.475 618.041 137.935C618.598 140.879 619.376 143.776 620.37 146.602C617 144.284 614.042 141.418 611.617 138.124C611.566 138.62 611.545 139.119 611.554 139.618C615.327 146.79 610.291 156.63 613.567 164.138C615.405 168.34 619.95 171.221 624.542 171.074C622.481 168.264 622.414 164.267 623.979 161.154C625.543 158.04 628.607 156.395 631.909 155.281C631.953 151.026 631.597 146.775 630.844 142.587C633.584 143.017 636.795 144.13 639.517 143.611Z" fill="#563E2E"/>
<path d="M631.039 172.808C630.485 173.329 629.834 173.654 629.537 174.401C629.318 174.955 629.331 175.433 629.994 175.469C631.817 175.564 633.706 173.683 634.724 172.389C637.003 169.488 638.021 165.289 636.241 162.06C635.791 161.185 635.09 160.464 634.227 159.989C632.376 159.051 629.96 159.888 628.71 161.544C627.461 163.201 627.237 165.459 627.656 167.491C627.683 167.729 627.782 167.953 627.938 168.133C628.561 168.739 629.425 167.707 630.244 167.419C630.942 167.174 631.753 167.564 632.155 168.183C632.556 168.802 632.592 169.604 632.449 170.33C632.248 171.282 631.755 172.148 631.039 172.808Z" fill="#965E42"/>
<path d="M630.782 198.143C627.771 200.355 624.617 202.313 624.478 206.046C623.755 224.15 621.53 251.957 621.53 251.957C621.53 251.957 620.294 284.703 620.447 288.98C620.6 293.257 638.796 293.183 638.796 293.183L644.962 251.957L649.234 213.733C649.433 212.168 646.594 186.522 630.782 198.143Z" fill="#FCD1A6"/>
<path d="M621.52 251.958C621.52 251.958 620.481 279.49 620.428 287.361C621.765 282.394 622.055 277.081 622.304 271.91C622.89 259.662 623.475 247.414 624.061 235.166C623.614 235.33 623.169 235.504 622.724 235.691C622.724 235.67 622.724 235.649 622.724 235.628C622.082 244.924 621.52 251.958 621.52 251.958Z" fill="#FFE1C5"/>
<path opacity="0.87" d="M630.781 198.144C627.803 200.398 624.616 202.314 624.477 206.047C624.118 215.066 623.384 226.488 622.738 235.692C626.977 233.885 631.648 233.122 636.187 233.822C639.986 234.415 643.546 236.049 646.473 238.542L649.245 213.734C649.432 212.17 649.067 184.296 630.781 198.144Z" fill="#FF6810"/>
<path d="M638.786 293.186L644.962 251.958L646.462 238.542C644.818 237.138 642.964 236.002 640.968 235.174C640.259 254.545 638.83 273.871 636.681 293.153C637.97 293.188 638.786 293.186 638.786 293.186Z" fill="#F2A479"/>
<path d="M646.463 238.542L649.235 213.734C649.378 212.588 647.898 198.541 640.893 195.65C641.416 198.325 641.477 201.167 641.487 203.895C641.525 214.324 641.352 224.75 640.969 235.174C642.966 236.002 644.82 237.138 646.463 238.542V238.542Z" fill="#FF6810"/>
<path d="M622.993 231.974C622.905 233.244 622.819 234.488 622.735 235.691C626.974 233.884 631.645 233.122 636.184 233.821C637.83 234.078 639.438 234.532 640.975 235.174C641.04 233.383 641.099 231.594 641.151 229.807C639.85 229.579 638.529 229.484 637.208 229.525C632.371 229.589 627.573 230.415 622.993 231.974Z" fill="white"/>
<path d="M640.97 235.173C641.214 235.274 641.457 235.381 641.696 235.492L641.806 235.543C641.998 235.635 642.189 235.734 642.38 235.826L642.59 235.935C642.746 236.017 642.903 236.101 643.058 236.187C643.14 236.231 643.218 236.277 643.298 236.323C643.442 236.405 643.583 236.487 643.724 236.573L643.975 236.726C644.11 236.81 644.244 236.896 644.378 236.984C644.462 237.037 644.544 237.093 644.626 237.148C644.76 237.238 644.892 237.339 645.024 237.425C645.102 237.481 645.18 237.534 645.257 237.591C645.396 237.694 645.534 237.8 645.671 237.905C645.736 237.956 645.803 238.004 645.862 238.056C646.053 238.214 646.26 238.375 646.452 238.541L647.1 232.747C645.591 231.637 644.011 230.619 642.229 230.072C641.869 229.964 641.503 229.875 641.134 229.805C641.088 231.594 641.033 233.383 640.97 235.173Z" fill="#EDD19A"/>
<path d="M644.236 303.512C645.535 304.221 646.883 304.836 648.27 305.353C650.068 306.012 652.454 306.515 653.929 304.912C655.075 303.662 653.929 301.813 652.318 302.146C651.936 302.224 651.321 301.676 651.002 301.504C650.395 301.177 649.791 300.85 649.18 300.531C647.816 299.822 646.5 299.023 645.241 298.142C644.292 297.494 643.398 296.77 642.566 295.977C639.994 292.156 636.25 289.273 631.899 287.763C629.415 286.897 626.504 286.364 623.862 286.695C621.411 286.998 620.249 289.222 618.683 290.855C616.098 293.553 612.799 295.479 609.448 297.068C608.138 297.689 606.563 298.722 606.867 300.142C606.967 300.541 607.183 300.901 607.488 301.177C609.192 302.81 611.996 301.882 614.079 300.768C616.161 299.655 618.744 298.445 620.727 299.727C620.998 299.903 621.243 300.117 621.455 300.361C621.533 301.24 621.691 302.109 621.927 302.959C622.471 304.981 623.285 306.971 624.068 308.903C625.608 312.723 627.635 317.536 631.681 319.219C632.636 319.618 633.733 318.435 633.4 317.499C632.766 315.759 631.748 314.225 630.884 312.59C630.171 311.215 629.537 309.8 628.987 308.352C629.587 308.32 630.184 308.256 630.777 308.161C630.968 308.131 631.159 308.095 631.35 308.062C631.866 308.922 632.413 309.764 632.999 310.578C634.289 312.42 635.803 314.095 637.507 315.562C638.38 316.296 639.311 317.079 640.327 317.61C641.473 318.212 642.62 318.475 643.852 318.772C645.877 319.255 646.968 316.59 645.248 315.459C644.578 315.018 643.932 314.414 643.338 313.931C642.589 313.317 641.961 312.897 641.324 312.347C640.042 311.211 638.872 309.953 637.832 308.591C637.412 308.037 637.011 307.469 636.631 306.887C637.183 306.734 637.729 306.568 638.275 306.398C638.671 306.753 639.074 307.097 639.49 307.43C642.503 309.837 646.035 312.217 649.982 312.551C650.838 312.624 651.679 311.883 651.892 311.096C652.147 310.173 651.688 309.401 650.981 308.855C649.69 307.858 648.225 307.08 646.851 306.198C645.705 305.454 644.696 304.784 643.743 304.027C643.923 303.871 644.088 303.699 644.236 303.512V303.512Z" fill="#FCD1A6"/>
<path d="M653.929 304.912L653.979 304.855C650.753 304.881 647.539 304.464 644.427 303.617C645.664 304.284 646.946 304.864 648.263 305.354C650.068 306.013 652.454 306.515 653.929 304.912Z" fill="#F2A479"/>
<path d="M623.566 299C623.293 298.235 622.962 297.45 622.296 297.005C621.421 296.419 620.259 296.612 619.226 296.826C615.103 297.685 610.612 302.32 606.824 299.748C606.821 299.877 606.833 300.005 606.86 300.131C606.96 300.53 607.176 300.89 607.481 301.166C609.185 302.799 611.989 301.871 614.072 300.757C616.154 299.643 618.737 298.434 620.72 299.716C620.991 299.892 621.236 300.106 621.448 300.35C621.526 301.229 621.684 302.098 621.919 302.948C622.464 304.969 623.278 306.96 624.061 308.891C625.601 312.712 627.628 317.524 631.674 319.207C631.925 319.306 632.204 319.306 632.455 319.207C629.951 316.831 628.285 313.629 627.106 310.362C625.74 306.649 624.917 302.738 623.566 299Z" fill="#F2A479"/>
<path d="M636.625 306.897C637.177 306.745 637.723 306.578 638.27 306.408C638.665 306.764 639.068 307.108 639.485 307.44C642.497 309.847 646.03 312.227 649.977 312.562C650.63 312.617 651.274 312.199 651.637 311.647C648.511 310.823 645.715 308.852 642.985 307.033C641.332 305.929 638.375 305.95 636.625 306.897Z" fill="#F2A479"/>
<path d="M632.99 310.586C634.28 312.428 635.794 314.102 637.498 315.57C638.371 316.304 639.302 317.087 640.318 317.618C641.464 318.22 642.61 318.483 643.843 318.779C644.229 318.886 644.64 318.857 645.008 318.697C645.375 318.538 645.677 318.256 645.862 317.901C645.379 317.58 644.76 317.392 644.204 317.182C639.764 315.501 636.243 310.756 631.928 309.012C632.268 309.549 632.619 310.072 632.99 310.586Z" fill="#F2A479"/>
<path d="M572.131 198.682C567.929 201.97 570.401 207.057 573.816 210.433C575.583 212.179 577.712 213.812 580.189 213.969C587.943 214.458 590.845 202.791 586.32 197.826C582.493 193.637 577.36 194.594 572.131 198.682Z" fill="#383838"/>
<path d="M584.822 202.844C583.954 203.335 583.675 204.436 583.517 205.418C582.823 204.311 581.047 204.373 580.078 205.259C579.11 206.145 578.819 207.54 578.762 208.845C578.69 210.558 578.943 212.269 579.509 213.888C579.731 213.928 579.955 213.955 580.179 213.97C585.055 214.278 588.012 209.779 588.409 205.163C588.28 204.666 588.065 204.194 587.773 203.771C587.126 202.846 585.809 202.284 584.822 202.844Z" fill="#FF5676"/>
<path d="M584.516 212.77C586.797 211.166 588.159 208.186 588.419 205.163C588.29 204.666 588.074 204.194 587.783 203.771C587.126 202.846 585.809 202.284 584.822 202.844C583.955 203.335 583.676 204.436 583.517 205.418C583.124 204.791 582.386 204.541 581.645 204.6C581.584 205.089 581.572 205.583 581.609 206.075C581.698 207.12 582.119 208.176 582.946 208.826C582.955 208.314 583.069 207.81 583.282 207.344C583.494 206.879 583.801 206.462 584.182 206.121C584.933 207.634 585.059 209.395 584.841 211.07C584.765 211.643 584.657 212.21 584.516 212.77Z" fill="#C6345A"/>
<path d="M571.625 199.131C571.981 200.002 572.56 200.765 573.304 201.343C575.526 203.014 578.934 202.273 580.844 200.254C582.056 198.972 582.755 197.323 583.093 195.579C579.82 194.359 576.002 195.665 572.131 198.691C571.95 198.827 571.784 198.974 571.625 199.131Z" fill="#FFF9E9"/>
<path d="M571.625 199.13C571.8 199.539 572.02 199.928 572.28 200.289C572.837 200.245 573.388 200.15 573.927 200.006C576.904 199.218 579.57 197.54 581.568 195.196C578.661 194.793 575.413 196.123 572.129 198.69C571.95 198.826 571.784 198.973 571.625 199.13Z" fill="#EDD19A"/>
<path d="M593.382 156.254C592.304 155.241 591.048 154.436 589.678 153.877C588.798 153.493 587.848 153.29 586.887 153.281C585.277 153.314 583.768 154.124 582.532 155.159C581.387 156.122 580.451 157.308 579.781 158.646C579.208 159.773 578.466 161.582 578.81 162.864C578.948 163.372 579.416 163.968 580.008 163.828C580.57 163.695 581.133 162.892 581.601 162.55C582.754 161.711 584.071 161.125 585.466 160.831C587.046 160.486 588.688 160.564 590.228 161.056C591.478 161.471 592.876 162.14 594.026 161.498C594.926 160.997 595.272 159.811 595.05 158.806C594.829 157.801 594.147 156.959 593.382 156.254Z" fill="#563E2E"/>
<path d="M559.787 162.724C558.435 162.123 556.985 161.776 555.508 161.702C554.544 161.626 553.576 161.747 552.661 162.059C551.152 162.622 549.987 163.883 549.169 165.268C548.405 166.556 547.912 167.986 547.721 169.471C547.559 170.72 547.448 172.677 548.197 173.773C548.491 174.207 549.131 174.616 549.643 174.289C550.155 173.962 550.407 173.036 550.728 172.558C551.539 171.386 552.589 170.399 553.809 169.662C555.187 168.816 556.763 168.348 558.379 168.306C559.697 168.285 561.245 168.457 562.112 167.471C562.794 166.707 562.731 165.467 562.19 164.592C561.65 163.717 560.729 163.142 559.787 162.724Z" fill="#563E2E"/>
<path d="M578.048 191.393C577.007 191.279 576.805 189.496 576.082 188.894C575.284 188.23 574.136 187.907 573.183 188.43C572.229 188.954 571.702 190.041 571.379 191.024C570.997 192.171 570.346 194.108 571.119 195.199C571.832 196.203 573.358 196.28 574.461 196.089C575.782 195.86 577.049 195.384 578.195 194.687C578.839 194.305 579.477 193.783 579.685 193.059C579.894 192.335 579.447 191.397 578.694 191.363C578.482 191.353 578.262 191.416 578.048 191.393Z" fill="#F2A479"/>
<path d="M591.936 191.104C598.262 191.104 603.39 185.976 603.39 179.65C603.39 173.324 598.262 168.195 591.936 168.195C585.61 168.195 580.481 173.324 580.481 179.65C580.481 185.976 585.61 191.104 591.936 191.104Z" fill="#FFF9E9"/>
<path d="M582 184.118C582.001 184.587 582.035 185.056 582.101 185.52C583.104 187.201 584.521 188.597 586.217 189.575C587.913 190.552 589.831 191.079 591.788 191.104C593.746 191.129 595.677 190.652 597.397 189.718C599.118 188.785 600.57 187.425 601.616 185.771C601.708 185.224 601.754 184.672 601.755 184.118C601.719 181.522 600.662 179.045 598.814 177.222C596.965 175.399 594.474 174.377 591.878 174.377C589.281 174.377 586.79 175.399 584.941 177.222C583.093 179.045 582.036 181.522 582 184.118V184.118Z" fill="#383838"/>
<path d="M591.174 189.504C591.174 190.051 591.282 190.592 591.493 191.096C591.64 191.096 591.787 191.096 591.936 191.096C594.617 191.1 597.214 190.158 599.27 188.437C599.014 187.47 598.414 186.63 597.584 186.073C596.753 185.516 595.749 185.28 594.757 185.41C593.766 185.539 592.855 186.025 592.196 186.777C591.536 187.529 591.173 188.495 591.174 189.495V189.504Z" fill="#FFF9E9"/>
<path d="M599.937 178.852C601.961 176.828 601.961 173.547 599.937 171.523C597.913 169.499 594.631 169.499 592.607 171.523C590.583 173.547 590.583 176.828 592.607 178.852C594.631 180.876 597.913 180.876 599.937 178.852Z" fill="#FFF9E9"/>
<path d="M585.821 183.289C587.425 182.908 588.417 181.298 588.036 179.694C587.654 178.09 586.044 177.098 584.44 177.479C582.836 177.861 581.844 179.471 582.226 181.075C582.607 182.679 584.217 183.671 585.821 183.289Z" fill="#FFF9E9"/>
<path d="M560.734 196.841C566.748 196.841 571.623 191.965 571.623 185.952C571.623 179.938 566.748 175.062 560.734 175.062C554.72 175.062 549.845 179.938 549.845 185.952C549.845 191.965 554.72 196.841 560.734 196.841Z" fill="#FFF9E9"/>
<path d="M551.291 190.199C551.291 190.647 551.323 191.094 551.387 191.537C552.341 193.134 553.688 194.46 555.301 195.388C556.913 196.317 558.736 196.817 560.597 196.84C562.457 196.864 564.292 196.41 565.928 195.523C567.563 194.636 568.944 193.344 569.938 191.772C570.155 190.491 570.104 189.178 569.787 187.918C569.471 186.658 568.897 185.477 568.101 184.45C567.304 183.424 566.304 182.573 565.162 181.953C564.02 181.333 562.762 180.956 561.467 180.847C560.173 180.739 558.869 180.9 557.64 181.32C556.411 181.741 555.282 182.412 554.326 183.292C553.369 184.171 552.606 185.239 552.083 186.429C551.561 187.619 551.291 188.904 551.291 190.203V190.199Z" fill="#383838"/>
<path d="M560.012 195.31C560.011 195.829 560.113 196.344 560.314 196.823C560.455 196.823 560.594 196.823 560.736 196.823C563.284 196.826 565.752 195.931 567.707 194.295C567.464 193.376 566.894 192.577 566.105 192.047C565.316 191.517 564.36 191.293 563.418 191.416C562.475 191.539 561.609 192.001 560.982 192.716C560.356 193.431 560.01 194.35 560.012 195.3V195.31Z" fill="#FFF9E9"/>
<path d="M568.342 185.192C570.267 183.267 570.267 180.147 568.342 178.222C566.417 176.297 563.297 176.297 561.372 178.222C559.447 180.147 559.447 183.267 561.372 185.192C563.297 187.117 566.417 187.117 568.342 185.192Z" fill="#FFF9E9"/>
<path d="M554.737 189.431C556.285 189.179 557.336 187.721 557.084 186.174C556.833 184.626 555.375 183.575 553.828 183.826C552.28 184.078 551.229 185.536 551.48 187.083C551.731 188.631 553.19 189.682 554.737 189.431Z" fill="#FFF9E9"/>
</g>
<defs>
<linearGradient id="paint0_linear_33_7316" x1="300.438" y1="-43.9536" x2="326.193" y2="323.179" gradientUnits="userSpaceOnUse">
<stop stop-color="#454369"/>
<stop offset="1" stop-color="#302D5C"/>
</linearGradient>
<linearGradient id="paint1_linear_33_7316" x1="300.438" y1="-43.9536" x2="326.193" y2="323.179" gradientUnits="userSpaceOnUse">
<stop stop-color="#454369"/>
<stop offset="1" stop-color="#302D5C"/>
</linearGradient>
<linearGradient id="paint2_linear_33_7316" x1="130.463" y1="-455.92" x2="458.747" y2="747.946" gradientUnits="userSpaceOnUse">
<stop stop-color="#323056"/>
<stop offset="1" stop-color="#302D5C"/>
</linearGradient>
</defs>
</svg>
