<svg width="686" height="322" viewBox="0 0 686 322" fill="none" xmlns="http://www.w3.org/2000/svg">
<mask id="mask0_33_7107" style="mask-type:alpha" maskUnits="userSpaceOnUse" x="0" y="0" width="686" height="322">
<rect width="686" height="322" fill="url(#paint0_linear_33_7107)"/>
</mask>
<g mask="url(#mask0_33_7107)">
<rect width="686" height="322" fill="url(#paint1_linear_33_7107)"/>
<ellipse opacity="0.46" cx="-33.6676" cy="285.588" rx="309.34" ry="564.416" transform="rotate(56.4345 -33.6676 285.588)" fill="url(#paint2_linear_33_7107)"/>
<path d="M464.862 499.909C232.01 513.306 626.523 32.2948 573.441 -83.508C512.585 -106.469 484.864 -119.751 543.392 -106.347C558.509 -102.885 568.176 -94.9926 573.441 -83.508C686.803 -40.7371 915.145 35.6173 915.145 35.6173L693.325 616.482C693.325 616.482 720.807 485.183 464.862 499.909Z" fill="#3B2C7C"/>
<g opacity="0.4">
<path d="M519.12 66.4277C519.444 65.5782 519.018 64.6265 518.169 64.3021C517.319 63.9777 516.368 64.4034 516.043 65.2529C515.719 66.1024 516.145 67.054 516.994 67.3784C517.844 67.7028 518.795 67.2772 519.12 66.4277Z" fill="white"/>
<path opacity="0.4" d="M479.782 266.375C479.629 264.829 478.253 263.7 476.707 263.852C475.16 264.004 474.031 265.381 474.183 266.927C474.335 268.473 475.712 269.603 477.258 269.451C478.804 269.298 479.934 267.921 479.782 266.375Z" fill="white"/>
<path d="M499.914 59.0931C500.218 59.2093 500.481 59.4131 500.67 59.6787C500.858 59.9443 500.963 60.2598 500.973 60.5853C500.982 60.9108 500.894 61.2317 500.721 61.5074C500.547 61.7832 500.296 62.0013 499.999 62.1342C499.702 62.2672 499.372 62.309 499.051 62.2544C498.73 62.1999 498.432 62.0513 498.195 61.8275C497.959 61.6038 497.794 61.3149 497.721 60.9974C497.649 60.6799 497.672 60.3481 497.789 60.0439C497.944 59.636 498.256 59.3066 498.654 59.1283C499.053 58.95 499.506 58.9374 499.914 59.0931V59.0931Z" fill="white"/>
<path opacity="0.4" d="M488.301 285.452C488.661 284.509 488.189 283.452 487.245 283.092C486.302 282.732 485.246 283.205 484.886 284.148C484.525 285.091 484.998 286.147 485.941 286.508C486.884 286.868 487.941 286.395 488.301 285.452Z" fill="white"/>
</g>
<path d="M532.696 234.122C468.443 421.237 527.109 625.587 527.109 625.587C527.109 625.587 579.247 630.623 581.856 630.874C584.465 631.125 510.021 480.023 601.177 258.993C601.495 258.226 601.807 257.458 602.116 256.689C607.467 243.435 626.881 245.803 628.854 259.962L628.944 260.606C646.716 387.973 601.593 632.78 601.593 632.78L689.917 641.313C770.24 475.776 646.783 170.425 637.521 71.2533C628.249 -28.0102 674.231 -108.146 674.231 -108.146L598.679 -115.433C598.679 -115.433 596.947 47.008 532.696 234.122Z" fill="#7048AA"/>
<path d="M712.256 643.469C712.256 643.469 761.721 487.147 719.953 341.346C678.186 195.546 643.987 111.829 644.604 44.4524C645.449 -47.8406 692.313 -106.4 692.313 -106.4L709.339 -104.757C709.339 -104.757 638.609 4.85124 665.791 112.73C692.973 220.609 793.663 401.083 769.523 528.706C745.383 656.33 738.857 646.037 738.857 646.037L712.256 643.469Z" fill="#45358B"/>
<g opacity="0.4">
<path opacity="0.4" d="M543.982 236.491C544.171 235.994 543.922 235.438 543.426 235.248C542.929 235.059 542.373 235.307 542.183 235.804C541.994 236.301 542.242 236.857 542.739 237.047C543.236 237.236 543.792 236.987 543.982 236.491Z" fill="white"/>
<path opacity="0.4" d="M601.51 181.278C601.7 180.781 601.451 180.225 600.954 180.035C600.457 179.846 599.901 180.094 599.712 180.591C599.522 181.088 599.771 181.644 600.267 181.834C600.764 182.023 601.32 181.774 601.51 181.278Z" fill="white"/>
<path d="M547.247 15.229C547.437 14.7324 547.188 14.1761 546.691 13.9865C546.195 13.7968 545.638 14.0457 545.449 14.5423C545.259 15.0389 545.508 15.5952 546.005 15.7848C546.501 15.9745 547.058 15.7256 547.247 15.229Z" fill="white"/>
<path opacity="0.4" d="M566.036 283.096C566.226 282.6 565.977 282.043 565.48 281.854C564.984 281.664 564.428 281.913 564.238 282.409C564.048 282.906 564.297 283.462 564.794 283.652C565.29 283.842 565.847 283.593 566.036 283.096Z" fill="white"/>
<path opacity="0.4" d="M535.715 315.924C535.905 315.428 535.656 314.871 535.159 314.682C534.663 314.492 534.106 314.741 533.917 315.238C533.727 315.734 533.976 316.29 534.472 316.48C534.969 316.67 535.525 316.421 535.715 315.924Z" fill="white"/>
<path opacity="0.4" d="M508.78 322.045C508.97 321.549 508.721 320.992 508.225 320.803C507.728 320.613 507.172 320.862 506.982 321.359C506.792 321.855 507.041 322.412 507.538 322.601C508.034 322.791 508.591 322.542 508.78 322.045Z" fill="white"/>
<path opacity="0.4" d="M648.895 305.438C649.084 304.941 648.835 304.385 648.339 304.195C647.842 304.006 647.286 304.255 647.096 304.751C646.907 305.248 647.156 305.804 647.652 305.994C648.149 306.183 648.705 305.935 648.895 305.438Z" fill="white"/>
<path d="M574.6 18.4073C574.951 17.4872 574.49 16.4565 573.57 16.1051C572.65 15.7538 571.619 16.2148 571.268 17.1349C570.917 18.055 571.378 19.0856 572.298 19.437C573.218 19.7883 574.248 19.3273 574.6 18.4073Z" fill="white"/>
<path opacity="0.4" d="M548.2 159.654C548.529 159.78 548.814 160 549.018 160.288C549.222 160.576 549.337 160.918 549.346 161.27C549.356 161.623 549.261 161.97 549.074 162.269C548.886 162.567 548.614 162.804 548.292 162.948C547.97 163.092 547.613 163.137 547.265 163.078C546.917 163.019 546.595 162.858 546.339 162.616C546.082 162.373 545.904 162.06 545.825 161.716C545.747 161.373 545.772 161.013 545.898 160.684C546.067 160.242 546.404 159.885 546.836 159.692C547.267 159.499 547.758 159.485 548.2 159.654V159.654Z" fill="white"/>
<path opacity="0.4" d="M570.76 204.919C571.111 203.999 570.65 202.968 569.73 202.617C568.81 202.265 567.78 202.727 567.428 203.647C567.077 204.567 567.538 205.597 568.458 205.949C569.378 206.3 570.409 205.839 570.76 204.919Z" fill="white"/>
<path d="M492.514 85.5635C492.865 84.6434 492.404 83.6127 491.484 83.2613C490.564 82.91 489.533 83.3711 489.182 84.2911C488.831 85.2112 489.292 86.2419 490.212 86.5932C491.132 86.9446 492.163 86.4836 492.514 85.5635Z" fill="white"/>
<path opacity="0.4" d="M479.851 315.321C480.202 314.401 479.741 313.371 478.821 313.019C477.901 312.668 476.87 313.129 476.519 314.049C476.168 314.969 476.629 316 477.549 316.351C478.469 316.702 479.499 316.241 479.851 315.321Z" fill="white"/>
<path opacity="0.4" d="M516.996 210.843C517.934 208.388 516.703 205.638 514.249 204.7C511.794 203.763 509.044 204.993 508.107 207.448C507.169 209.903 508.399 212.653 510.854 213.59C513.309 214.527 516.059 213.297 516.996 210.843Z" fill="white"/>
<path opacity="0.4" d="M457.561 296.768C458.498 294.314 457.268 291.564 454.813 290.626C452.358 289.689 449.608 290.919 448.671 293.374C447.734 295.828 448.964 298.578 451.418 299.516C453.873 300.453 456.623 299.223 457.561 296.768Z" fill="white"/>
<path opacity="0.4" d="M513.458 249.951C515.202 245.386 512.914 240.271 508.348 238.528C503.783 236.784 498.668 239.072 496.925 243.637C495.181 248.203 497.469 253.318 502.034 255.061C506.6 256.805 511.715 254.517 513.458 249.951Z" fill="white"/>
<path opacity="0.4" d="M656.144 180.907C657.123 178.343 655.839 175.471 653.275 174.492C650.711 173.513 647.839 174.798 646.86 177.362C645.881 179.925 647.165 182.798 649.729 183.777C652.293 184.756 655.165 183.471 656.144 180.907Z" fill="white"/>
<path opacity="0.4" d="M538.747 280.233C539.726 277.67 538.441 274.797 535.877 273.818C533.313 272.839 530.441 274.124 529.462 276.688C528.483 279.252 529.768 282.124 532.332 283.103C534.896 284.082 537.768 282.797 538.747 280.233Z" fill="white"/>
<path opacity="0.4" d="M486.121 211.683C487.1 209.119 485.815 206.247 483.251 205.268C480.687 204.288 477.815 205.573 476.836 208.137C475.857 210.701 477.142 213.573 479.706 214.552C482.27 215.531 485.142 214.246 486.121 211.683Z" fill="white"/>
<path opacity="0.4" d="M597.908 161.862C598.443 160.462 597.741 158.894 596.341 158.359C594.941 157.825 593.373 158.526 592.838 159.926C592.304 161.326 593.005 162.894 594.405 163.429C595.805 163.964 597.373 163.262 597.908 161.862Z" fill="white"/>
<path d="M560.903 42.7782C561.438 41.3782 560.736 39.8099 559.336 39.2753C557.936 38.7406 556.368 39.4421 555.833 40.8421C555.299 42.2421 556 43.8104 557.4 44.345C558.8 44.8796 560.368 44.1781 560.903 42.7782Z" fill="white"/>
<path opacity="0.4" d="M688.503 194.022C689.037 192.622 688.336 191.054 686.936 190.519C685.536 189.985 683.967 190.686 683.433 192.086C682.898 193.486 683.6 195.055 685 195.589C686.4 196.124 687.968 195.422 688.503 194.022Z" fill="white"/>
<path opacity="0.4" d="M509.758 172.393C510.292 170.993 509.591 169.425 508.191 168.89C506.791 168.356 505.222 169.057 504.688 170.457C504.153 171.857 504.855 173.426 506.255 173.96C507.655 174.495 509.223 173.793 509.758 172.393Z" fill="white"/>
</g>
<g opacity="0.2">
<path opacity="0.2" d="M439.407 321.243C440.178 319.225 439.167 316.966 437.15 316.195C435.132 315.425 432.873 316.436 432.102 318.453C431.332 320.47 432.343 322.73 434.36 323.5C436.377 324.271 438.637 323.26 439.407 321.243Z" fill="white"/>
</g>
<g opacity="0.6">
<path d="M524.268 30.6673C523.358 28.6322 520.97 27.7204 518.935 28.6307C516.9 29.541 515.988 31.9287 516.899 33.9637C517.809 35.9987 520.197 36.9105 522.232 36.0002C524.267 35.09 525.178 32.7023 524.268 30.6673Z" fill="white"/>
</g>
<path opacity="0.1" d="M789.755 581.827C823.262 494.085 779.295 395.793 691.553 362.286C603.811 328.78 505.519 372.746 472.012 460.488C438.505 548.23 482.472 646.522 570.214 680.029C657.956 713.536 756.248 669.569 789.755 581.827Z" fill="#78F4CE"/>
<path opacity="0.2" d="M690.166 12.039C689.969 9.35943 687.638 7.34636 684.958 7.54263C682.279 7.73889 680.266 10.0702 680.462 12.7498C680.658 15.4293 682.99 17.4425 685.669 17.2462C688.349 17.0499 690.362 14.7186 690.166 12.039Z" fill="black"/>
<path d="M577.691 244.438C577.691 244.438 575.862 253.782 574.113 255.77C572.363 257.758 565.604 258.812 564.192 258.812C562.8 258.812 554.808 263.523 554.808 263.523L557.114 259.746C557.114 259.746 553.039 262.132 550.693 262.788C548.347 263.424 540.414 262.43 540.414 262.43L544.49 255.472L577.691 244.438Z" fill="#FFB91D"/>
<path d="M632.065 249.432C632.065 249.432 638.408 257.643 638.249 258.061C638.089 258.498 634.531 263.528 634.531 263.528C634.531 263.528 632.622 265.079 625.505 261.162C618.387 257.245 615.067 248.895 615.326 248.856C615.604 248.796 632.065 249.432 632.065 249.432Z" fill="#2E3A3A"/>
<path d="M593.158 283.224C591.727 284.357 588.108 285.809 588.108 285.809C588.108 285.809 591.548 282.051 590.434 276.743C589.341 271.435 605.007 258.85 608.566 256.325C612.145 253.8 623.139 255.669 624.411 255.45C625.704 255.231 624.849 257.379 624.849 257.379L628.527 256.325L629.422 257.379C629.422 257.379 632.583 268.949 632.722 275.51C632.861 282.071 622.006 284.079 617.93 285.073C613.855 286.067 611.429 290.779 611.429 290.779C611.429 290.779 609.719 284.934 611.429 283.065C613.139 281.216 615.326 279.487 615.326 279.487C615.326 279.487 609.719 281.335 608.725 283.622C607.731 285.908 604.113 289.626 599.639 290.759C595.166 291.892 589.699 288.91 589.699 288.91C589.699 288.91 593.735 288.016 595.584 285.67C597.433 283.343 597.592 276.723 597.592 276.723C597.592 276.723 594.59 282.071 593.158 283.224Z" fill="#FFB91D"/>
<path d="M646.957 226.88C646.957 226.88 651.927 239.088 652.564 246.583C653.2 254.078 634.551 263.502 634.551 263.502C634.551 263.502 636.858 253.641 620.833 251.295C610.575 243.163 629.561 226.026 646.957 226.88Z" fill="#C7D2D3"/>
<path d="M635.962 126.361C635.962 126.361 653.08 130.695 653.756 135.606C658.209 167.674 656.738 208.033 655.724 217.457C654.71 226.881 656.46 235.41 653.756 235.867C651.052 236.304 652.086 246.563 628.229 235.867C604.371 225.171 621.668 129.642 622.324 129.86C623 130.079 635.962 126.361 635.962 126.361Z" fill="#4E5E5E"/>
<path d="M655.705 155.871C658.11 157.919 660.476 160.603 662.564 163.645C659.224 163.167 654.055 163.327 648.13 166.746C643.736 169.291 641.052 173.486 639.422 177.502C639.044 177.84 638.686 178.198 638.329 178.556C638.189 178.536 638.07 178.516 637.971 178.516C638.388 174.897 639.422 170.285 641.927 165.553C645.426 158.933 651.828 156.666 655.705 155.871Z" fill="#6D7C7C"/>
<path d="M649.064 168.374C655.724 164.537 661.271 165.133 663.975 165.829C666.043 169.268 667.713 173.026 668.627 176.763C665.188 174.079 660.357 171.396 654.691 171.197C650.615 171.058 646.678 172.25 642.921 174.716C644.392 172.231 646.36 169.924 649.064 168.374Z" fill="#6D7C7C"/>
<path d="M653.776 154.357C649.541 155.47 643.716 158.154 640.277 164.655C638.448 168.114 637.334 171.514 636.698 174.536L635.764 170.759C635.823 158.73 639.203 152.11 641.569 148.969C645.486 149.963 649.859 151.613 653.776 154.357Z" fill="#6D7C7C"/>
<path d="M669.184 179.729C669.721 183.705 669.323 187.562 667.534 190.843C665.804 184.799 662.822 180.067 658.905 177.343C655.645 175.077 651.827 174.262 647.871 174.997C646.579 175.236 645.426 175.614 644.432 176.051C647.732 174.003 651.132 172.989 654.611 173.089C660.734 173.288 665.943 176.846 669.184 179.729Z" fill="#6D7C7C"/>
<path d="M639.521 148.513C637.473 151.436 635.067 156.486 634.193 164.557L629.958 147.499C629.978 147.479 634.113 147.38 639.521 148.513Z" fill="#6D7C7C"/>
<path d="M653.776 154.359C653.855 154.399 653.915 154.459 653.995 154.499C654.571 154.916 655.148 155.373 655.724 155.87C651.827 156.666 645.446 158.932 641.947 165.533C639.442 170.244 638.388 174.877 637.99 178.495C637.811 178.475 637.692 178.475 637.692 178.475L636.718 174.539C637.374 171.517 638.467 168.137 640.296 164.658C643.716 158.157 649.521 155.473 653.776 154.359Z" fill="#4E5E5E"/>
<path d="M648.13 166.74C654.055 163.321 659.224 163.162 662.564 163.639C663.041 164.355 663.518 165.07 663.975 165.826C661.271 165.13 655.725 164.534 649.064 168.371C646.36 169.921 644.392 172.228 642.921 174.733C646.679 172.248 650.615 171.075 654.691 171.214C660.357 171.393 665.188 174.096 668.627 176.78C668.866 177.775 669.065 178.749 669.184 179.723C665.943 176.86 660.754 173.281 654.611 173.083C651.152 172.983 647.732 173.977 644.432 176.045C645.446 175.607 646.579 175.23 647.871 174.991C651.828 174.256 655.625 175.051 658.906 177.337C662.822 180.061 665.804 184.793 667.534 190.836C667.136 191.552 666.679 192.248 666.162 192.904C664.631 186.522 661.729 181.592 657.832 178.888C654.949 176.88 651.728 176.204 648.229 176.86C645.545 177.377 643.637 178.431 642.245 179.683C640.953 179.007 639.243 178.689 638.309 178.57C638.666 178.212 639.044 177.854 639.402 177.516C641.052 173.48 643.716 169.285 648.13 166.74Z" fill="#4E5E5E"/>
<path d="M639.064 186.049C641.012 185.373 642.901 184.339 643.637 182.769C644.332 181.278 643.497 180.304 642.265 179.648C643.637 178.415 645.565 177.341 648.249 176.824C651.748 176.168 654.969 176.844 657.852 178.852C661.748 181.556 664.651 186.487 666.182 192.869C666.142 192.928 666.102 192.968 666.063 193.028C657.076 204.022 634.133 196.288 634.133 196.288L633.656 187.222C633.656 187.222 635.207 187.083 637.096 186.626C637.732 186.487 638.408 186.288 639.064 186.049Z" fill="#6D7C7C"/>
<path d="M641.548 148.973C639.183 152.114 635.803 158.735 635.743 170.763L634.192 164.54C635.067 156.488 637.473 151.439 639.521 148.496C640.196 148.635 640.853 148.794 641.548 148.973Z" fill="#4E5E5E"/>
<path d="M653.419 178.313C658.389 180.838 660.914 189.188 661.292 190.361C661.669 191.534 664.512 189.825 666.381 187.638C668.25 185.451 668.648 183.343 668.906 181.315C669.165 179.288 670.616 181.097 669.701 187.101C668.787 193.105 664.473 197.857 655.566 199.407C645.387 191.972 644.273 176.981 644.273 176.981C644.273 176.981 648.429 175.808 653.419 178.313Z" fill="white"/>
<path d="M571.409 158.875L576.121 162.732C576.121 162.732 579.202 166.271 579.958 172.255C575.524 167.722 571.27 164.362 568.108 162.155C570.136 160.247 571.409 158.875 571.409 158.875Z" fill="#6D7C7C"/>
<path d="M548.545 174.661C549.817 174.383 551.129 173.946 552.462 173.369C553.456 177.345 554.489 182.932 554.967 190.228C555.285 194.94 555.126 199.095 554.788 202.634C551.547 202.992 548.585 202.674 545.881 201.839C546.597 199.513 547.233 196.948 547.69 194.165C548.903 186.928 548.863 179.85 548.545 174.661Z" fill="#6D7C7C"/>
<path d="M545.583 174.972C545.941 174.992 546.318 174.932 546.676 174.912C546.975 179.962 546.994 186.841 545.841 193.859C545.404 196.523 544.788 198.988 544.092 201.235C527.69 194.595 521.566 169.266 521.566 169.266L526.417 167.357C526.417 167.338 535.145 174.554 545.583 174.972Z" fill="#6D7C7C"/>
<path d="M554.191 172.55C555.424 171.914 556.657 171.159 557.869 170.363C559.977 174.956 562.701 181.914 563.516 188.654C563.993 192.59 564.132 196.487 564.132 199.946C561.528 201.139 559.042 201.954 556.716 202.372C557.034 198.833 557.154 194.738 556.855 190.105C556.339 182.431 555.245 176.626 554.191 172.55Z" fill="#6D7C7C"/>
<path d="M574.749 185.155C575.246 186.189 575.703 187.183 576.14 188.137C574.371 191.139 571.906 194.3 568.526 197.64C567.671 198.157 566.836 198.595 566.001 199.012C565.981 195.732 565.822 192.074 565.385 188.416C564.53 181.219 561.647 173.942 559.46 169.27C560.593 168.475 561.687 167.64 562.74 166.805C565.941 170.284 570.395 176.109 574.749 185.155Z" fill="#6D7C7C"/>
<path d="M580.117 175.173C580.077 178.354 579.301 182.032 577.274 186.107C576.995 185.531 576.737 184.954 576.458 184.358C572.025 175.133 567.532 169.208 564.231 165.63C565.106 164.894 565.921 164.178 566.677 163.482C570.156 165.888 575.106 169.785 580.117 175.173Z" fill="#6D7C7C"/>
<path d="M546.676 174.915C547.293 174.875 547.909 174.795 548.545 174.656C548.863 179.845 548.903 186.923 547.69 194.16C547.233 196.943 546.597 199.508 545.881 201.834C545.285 201.655 544.668 201.456 544.092 201.218C544.788 198.971 545.404 196.506 545.841 193.842C547.014 186.843 546.975 179.984 546.676 174.915Z" fill="#4E5E5E"/>
<path d="M552.462 173.364C553.038 173.105 553.615 172.847 554.211 172.549C555.265 176.624 556.339 182.43 556.856 190.104C557.154 194.756 557.035 198.852 556.716 202.371C556.06 202.49 555.424 202.569 554.788 202.629C555.146 199.07 555.285 194.935 554.967 190.223C554.49 182.927 553.456 177.34 552.462 173.364Z" fill="#4E5E5E"/>
<path d="M565.385 188.437C565.822 192.115 565.981 195.754 566.001 199.034C565.365 199.372 564.748 199.65 564.112 199.929C564.112 196.489 563.973 192.573 563.496 188.636C562.681 181.896 559.957 174.938 557.85 170.345C558.386 169.988 558.903 169.63 559.44 169.252C561.627 173.964 564.51 181.24 565.385 188.437Z" fill="#4E5E5E"/>
<path d="M576.438 184.344C576.737 184.96 576.995 185.517 577.254 186.093C576.916 186.769 576.538 187.445 576.14 188.141C575.703 187.187 575.246 186.193 574.748 185.159C570.394 176.093 565.941 170.288 562.74 166.808C563.237 166.411 563.734 165.993 564.211 165.596C567.532 169.214 572.025 175.119 576.438 184.344Z" fill="#4E5E5E"/>
<path d="M579.958 172.272C580.077 173.186 580.137 174.16 580.117 175.194C575.087 169.786 570.136 165.91 566.657 163.484C567.174 163.027 567.651 162.589 568.089 162.172C571.27 164.379 575.524 167.719 579.958 172.272Z" fill="#4E5E5E"/>
<path d="M583.377 240.327C576.955 251.778 553.456 258.419 553.456 258.419L537.65 239.372L557.81 213.328C557.83 213.328 587.771 227.464 583.377 240.327Z" fill="#FF6810"/>
<path d="M553.456 247.101C554.828 253.245 554.748 258.036 554.748 258.036L553.456 258.434L548.645 240.342L550.215 238.016C550.215 237.996 552.084 240.958 553.456 247.101Z" fill="white"/>
<path d="M605.903 226.35C626.241 223.467 632.722 233.388 632.722 233.388C632.722 233.388 628.826 245.197 618.01 258.438C607.195 271.679 589.52 280.267 589.52 280.267L566.498 268.756L582.701 241.201C582.701 241.201 585.564 229.252 605.903 226.35Z" fill="#FF6810"/>
<path d="M587.214 257.779C591.985 265.652 591.17 279.41 591.17 279.41L589.52 280.265L574.132 255.771L574.907 254.439C574.907 254.439 582.442 249.906 587.214 257.779Z" fill="white"/>
<path d="M532.56 254.5L530.373 264.779L526.596 266.806L521.805 251.398L524.151 250.285L532.56 254.5Z" fill="#A5AAAA"/>
<path d="M563.535 280.684C563.674 280.863 564.211 287.602 564.211 287.602L559.38 293.07L557.73 293.487L554.827 279.889L556.656 278.119C556.636 278.139 563.396 280.505 563.535 280.684Z" fill="#A5AAAA"/>
<path d="M551.189 244.336C553.495 253.005 553.436 258.412 553.436 258.412L527.292 266.444C527.292 266.444 532.063 255.191 524.131 250.281L542.223 234.117C542.263 234.097 548.903 235.648 551.189 244.336Z" fill="#C7D2D3"/>
<path d="M583.198 256.509C588.606 259.928 590.276 274.024 589.52 280.287C579.719 288.1 559.38 293.09 559.38 293.09C559.38 293.09 561.687 289.929 561.03 285.277C560.394 280.625 556.637 278.159 556.637 278.159L573.715 256.052C573.715 256.012 577.79 253.069 583.198 256.509Z" fill="#C7D2D3"/>
<path d="M628.228 147.477C628.228 147.477 641.211 158.133 635.505 216.961C601.528 226.962 567.372 222.25 562.322 202.031C562.322 202.031 563.257 182.547 574.549 161.692C584.947 159.286 628.228 147.477 628.228 147.477Z" fill="#FF6810"/>
<path d="M562.363 201.297C562.363 201.297 566.18 209.289 583.198 212.43C600.236 215.572 636.003 211.158 636.003 211.158L635.486 216.963L580.653 218.971L561.349 208.573L562.303 202.032L562.363 201.297Z" fill="white"/>
<path d="M589.242 160.559H591.131L586.936 188.512C586.936 188.512 591.568 194.098 593.119 204.118C594.491 212.906 593.954 218.95 593.954 218.95H590.952C590.952 218.95 592.165 213.244 590.952 205.53C589.739 197.816 585.206 190.46 585.206 190.46C585.206 190.46 582.681 193.025 579.182 198.81C575.683 204.595 572.761 213.025 572.761 213.025L570.494 211.812C570.494 211.812 575.703 196.384 583.974 188.392C585.942 177.975 589.242 160.559 589.242 160.559Z" fill="white"/>
<path d="M629.345 17.4129L627.836 17.8477L636.58 48.2037L638.09 47.7689L629.345 17.4129Z" fill="#6D7C7C"/>
<path d="M626.738 11.1539C628.786 10.5574 630.913 11.7503 631.489 13.7782C632.086 15.8259 630.893 17.9532 628.865 18.5298C626.817 19.1262 624.69 17.9333 624.114 15.9055C623.537 13.8577 624.71 11.7304 626.738 11.1539Z" fill="#6D7C7C"/>
<path d="M569.678 44.692C569.678 44.692 594.768 36.839 611.528 46.879C628.288 56.9388 651.807 84.9514 644.432 116.145C637.076 147.339 600.753 152.567 600.753 152.567C600.753 152.567 567.213 167.458 544.389 144.953C521.566 122.447 526.556 86.2238 535.403 68.788C544.25 51.3721 569.678 44.692 569.678 44.692Z" fill="#445A5E"/>
<path d="M641.211 98.3936C645.903 100.819 645.128 108.692 640.933 111.257C636.738 113.821 634.233 108.712 634.233 108.712L634.034 101.097C634.034 101.097 636.539 95.9681 641.211 98.3936Z" fill="#F2986B"/>
<path d="M545.185 126.702L549.062 133.263C549.062 133.263 549.638 138.929 544.747 138.988C539.837 139.048 535.006 132.785 537.67 128.233C540.334 123.68 545.185 126.702 545.185 126.702Z" fill="#F2986B"/>
<path d="M574.013 59.7819C599.361 52.4855 616.4 57.6745 625.605 72.5258C634.81 87.377 642.822 105.867 635.943 126.384C629.064 146.881 600.872 153.064 600.872 153.064C600.872 153.064 573.715 162.826 556.975 149.128C540.235 135.43 537.193 115.489 537.074 98.0333C536.994 80.5379 548.664 67.0783 574.013 59.7819Z" fill="#FDB082"/>
<path d="M613.218 93.0226C619.123 91.3128 625.306 94.7324 627.016 100.637C628.725 106.542 625.306 112.725 619.401 114.435C613.496 116.144 607.313 112.725 605.604 106.82C603.894 100.896 607.313 94.7324 613.218 93.0226Z" fill="#543A2E"/>
<path d="M613.06 94.773C618.269 93.2819 623.696 96.284 625.187 101.473C626.678 106.682 623.676 112.109 618.487 113.601C613.278 115.092 607.851 112.09 606.36 106.901C604.849 101.712 607.851 96.284 613.06 94.773Z" fill="white"/>
<path d="M612.563 97.0353C616.798 95.8225 621.231 98.2679 622.444 102.503C623.657 106.737 621.211 111.171 616.977 112.384C612.742 113.596 608.309 111.151 607.096 106.916C605.883 102.682 608.328 98.2679 612.563 97.0353Z" fill="#35ADD2"/>
<path d="M613.397 99.9445C616.042 99.189 618.785 100.7 619.561 103.344C620.316 105.988 618.805 108.732 616.161 109.507C613.517 110.263 610.773 108.752 610.018 106.108C609.242 103.463 610.753 100.7 613.397 99.9445Z" fill="#3F2C24"/>
<path d="M617.95 98.8915C618.785 98.6529 619.66 99.1301 619.898 99.9651C620.137 100.8 619.66 101.675 618.825 101.913C617.99 102.152 617.115 101.675 616.876 100.84C616.618 100.005 617.115 99.1301 617.95 98.8915Z" fill="white"/>
<path d="M612.066 108.096C612.563 107.957 613.079 108.235 613.239 108.733C613.378 109.23 613.099 109.746 612.602 109.906C612.105 110.045 611.588 109.766 611.429 109.269C611.29 108.752 611.568 108.235 612.066 108.096Z" fill="white"/>
<path d="M627.552 95.1311C626.976 95.9263 625.147 97.8349 625.147 97.8349L624.252 96.821C624.252 96.821 626.101 94.813 626.638 94.296C627.174 93.7791 628.149 94.3358 627.552 95.1311Z" fill="#543A2E"/>
<path d="M621.608 91.0547C621.37 92.009 620.435 94.4942 620.435 94.4942L619.223 93.8977C619.223 93.8977 620.157 91.3331 620.455 90.6372C620.714 89.9613 621.827 90.1004 621.608 91.0547Z" fill="#543A2E"/>
<path d="M614.411 90.6225C614.65 91.5767 614.928 94.221 614.928 94.221L613.576 94.2408C613.576 94.2408 613.238 91.5171 613.199 90.7815C613.139 90.0459 614.193 89.6682 614.411 90.6225Z" fill="#543A2E"/>
<path d="M597.194 117.779C600.177 118.892 600.932 122.093 600.276 123.445C599.62 124.797 597.691 125.274 597.851 124.956C598.348 124.757 599.361 124.201 599.381 123.147C599.401 122.093 598.487 119.966 595.942 119.469C593.397 118.972 591.31 119.787 591.31 119.787L590.753 117.858C590.753 117.858 593.834 116.526 597.194 117.779Z" fill="#F2986B"/>
<path d="M615.545 87.1366C615.545 87.1366 611.608 86.1027 607.254 86.7389C602.9 87.3751 602.085 87.2558 602.026 85.1087C601.966 82.9615 611.549 82.7031 615.545 87.1366Z" fill="#FF773B"/>
<path d="M640.912 100.521C642.125 99.7852 643.258 102.449 642.881 104.934C642.523 107.42 641.748 107.996 641.748 107.996C641.748 107.996 642.463 106.008 642.304 104.596C642.145 103.185 640.972 102.668 640.455 104.139C639.938 105.61 638.507 108.612 638.507 108.612L638.229 104.994C638.229 104.994 639.7 101.256 640.912 100.521Z" fill="#E0784B"/>
<g opacity="0.68">
<path opacity="0.68" d="M620.694 115.689C623.816 114.795 627.096 116.584 627.991 119.725C628.885 122.846 627.096 126.127 623.955 127.022C620.834 127.916 617.553 126.127 616.658 122.986C615.764 119.864 617.573 116.584 620.694 115.689Z" fill="#F98A70"/>
</g>
<path d="M645.227 50.995C651.609 60.0608 659.263 82.7651 658.09 92.2285C656.898 101.692 650.734 102.666 650.734 102.666C650.734 102.666 652.623 76.5025 633.199 47.9531C633.199 47.9531 638.845 41.949 645.227 50.995Z" fill="#6D7C7C"/>
<path d="M558.526 108.794C564.43 107.084 570.613 110.504 572.323 116.409C574.033 122.313 570.613 128.496 564.709 130.206C558.804 131.916 552.621 128.496 550.911 122.592C549.181 116.667 552.601 110.484 558.526 108.794Z" fill="#543A2E"/>
<path d="M559.578 110.181C564.787 108.69 570.215 111.692 571.706 116.881C573.197 122.09 570.195 127.518 565.006 129.009C559.797 130.5 554.37 127.498 552.878 122.309C551.387 117.12 554.389 111.672 559.578 110.181Z" fill="white"/>
<path d="M561.21 111.834C565.444 110.621 569.878 113.067 571.091 117.301C572.303 121.536 569.858 125.97 565.623 127.182C561.389 128.395 556.955 125.95 555.742 121.715C554.53 117.48 556.975 113.067 561.21 111.834Z" fill="#35ADD2"/>
<path d="M562.044 114.734C564.688 113.978 567.432 115.489 568.187 118.133C568.943 120.777 567.432 123.521 564.787 124.296C562.143 125.052 559.4 123.541 558.644 120.897C557.889 118.253 559.42 115.489 562.044 114.734Z" fill="#3F2C24"/>
<path d="M566.399 113.737C567.234 113.499 568.108 113.976 568.347 114.811C568.586 115.646 568.108 116.521 567.273 116.759C566.438 116.998 565.564 116.521 565.325 115.686C565.087 114.851 565.564 113.976 566.399 113.737Z" fill="white"/>
<path d="M560.534 122.942C561.031 122.803 561.548 123.081 561.707 123.578C561.846 124.075 561.567 124.592 561.07 124.751C560.573 124.89 560.057 124.612 559.897 124.115C559.738 123.598 560.037 123.081 560.534 122.942Z" fill="white"/>
<path d="M547.829 117C548.565 117.159 551.189 117.874 551.189 117.874L550.97 119.206C550.97 119.206 548.405 118.55 547.491 118.192C546.576 117.835 547.093 116.84 547.829 117Z" fill="#543A2E"/>
<path d="M551.149 110.595C551.765 111.012 553.913 112.702 553.913 112.702L553.197 113.855C553.197 113.855 551.07 112.265 550.374 111.569C549.658 110.873 550.533 110.177 551.149 110.595Z" fill="#543A2E"/>
<path d="M557.353 106.865C557.711 107.522 558.864 110.007 558.864 110.007L557.691 110.703C557.691 110.703 556.518 108.317 556.219 107.382C555.901 106.448 556.995 106.209 557.353 106.865Z" fill="#543A2E"/>
<path d="M590.753 117.854L591.31 119.782C591.31 119.782 589.123 120.199 587.234 121.989C585.345 123.758 585.703 126.045 586.28 126.919C586.856 127.794 588.009 127.734 588.526 127.635C588.844 127.814 586.956 128.43 585.683 127.635C584.411 126.84 583.337 123.718 585.266 121.213C587.433 118.37 590.753 117.854 590.753 117.854Z" fill="#F2986B"/>
<path d="M563.774 96.1272C564.868 97.9762 564.251 98.5129 560.215 100.302C556.199 102.092 553.416 105.054 553.416 105.054C554.45 99.169 562.681 94.2782 563.774 96.1272Z" fill="#FF773B"/>
<path d="M539.062 129.867C540.493 129.847 543.714 132.233 543.714 132.233L545.404 135.454C545.404 135.454 542.601 133.685 541.368 132.71C540.135 131.736 539.44 132.77 540.056 134.062C540.672 135.355 542.342 136.647 542.342 136.647C542.342 136.647 541.388 136.567 539.758 134.659C538.108 132.73 537.63 129.887 539.062 129.867Z" fill="#E0784B"/>
<g opacity="0.68">
<path opacity="0.68" d="M564.251 131.953C567.372 131.058 570.652 132.848 571.547 135.989C572.442 139.11 570.652 142.391 567.511 143.285C564.39 144.18 561.109 142.391 560.215 139.249C559.32 136.128 561.109 132.848 564.251 131.953Z" fill="#F98A70"/>
</g>
<path d="M517.63 81.2506C516.377 115.764 531.885 136.898 531.885 136.898C531.885 136.898 526.139 139.363 520.095 131.987C514.051 124.612 508.465 101.291 509.041 90.2171C509.637 79.1631 517.63 81.2506 517.63 81.2506Z" fill="#6D7C7C"/>
<path d="M572.124 53.2023C625.465 37.8341 637.692 85.0321 637.056 98.0741C633.517 85.9665 626.598 79.5648 621.668 80.7377C613.576 81.7716 606.916 73.501 606.916 73.501C606.916 73.501 609.441 78.2128 603.457 81.6324C597.472 85.0321 587.631 80.5986 587.631 80.5986C587.631 80.5986 590.176 89.9229 578.446 92.3285C566.716 94.7341 553.396 82.2885 553.396 82.2885C553.396 82.2885 558.287 92.1893 551.308 97.7759C544.35 103.343 541.288 97.935 541.288 97.935C541.288 97.935 537.809 110.699 540.95 125.451C535.304 111.096 518.803 68.5705 572.124 53.2023Z" fill="#FF773B"/>
<path d="M565.882 31.5303C600.614 21.5301 636.619 35.1885 648.508 76.4618C660.397 117.755 629.243 142.11 629.243 142.11C629.243 142.11 623.378 143.501 626.738 139.962C630.078 136.424 654.134 123.342 638.349 82.9431C621.39 39.5425 572.124 53.181 572.124 53.181C572.124 53.181 523.137 67.8334 531.865 113.62C539.977 156.205 567.313 154.515 572.025 155.708C576.737 156.921 571.031 158.849 571.031 158.849C571.031 158.849 531.686 154.794 519.797 113.501C507.928 72.247 531.149 41.5306 565.882 31.5303Z" fill="#FF6810"/>
<path d="M605.524 30.83C605.524 30.83 602.98 35.3033 601.648 40.6712C600.316 46.0391 600.117 51.9836 600.117 51.9836C600.117 51.9836 598.129 51.7052 595.763 51.4468C595.743 35.8202 601.528 29.8359 601.528 29.8359C603.099 30.154 605.524 30.83 605.524 30.83Z" fill="#E6EFEF"/>
<path d="M534.807 49.0469C534.807 49.0469 542.899 51.035 551.169 64.2759C549.301 65.767 547.77 67.0592 547.77 67.0592C547.77 67.0592 544.45 62.1287 540.473 58.2916C536.477 54.4546 531.944 52.0092 531.944 52.0092C531.944 52.0092 533.654 50.1602 534.807 49.0469Z" fill="#E6EFEF"/>
<path d="M551.984 35.9053C554.111 37.1976 558.386 37.8338 566.994 35.3685C575.603 32.8834 578.863 30.0602 579.977 27.8534C580.494 28.0721 580.971 28.3306 581.369 28.6686C581.369 28.6686 585.643 35.0703 568.326 40.0605C551.01 45.0507 551.229 37.3566 551.229 37.3566C551.408 36.8397 551.666 36.3626 551.984 35.9053Z" fill="white"/>
<path d="M565.066 28.7289C565.066 28.7289 574.788 25.6076 579.977 27.8541C578.864 30.0808 575.583 32.904 566.995 35.3692C558.386 37.8544 554.112 37.1983 551.984 35.906C555.185 31.2538 565.066 28.7289 565.066 28.7289Z" fill="#6D7C7C"/>
<path d="M600.753 152.571C618.586 146.806 622.741 143.188 626.737 139.967C629.501 140.563 629.799 141.498 629.302 144.46C628.785 147.422 628.109 150.544 619.958 155.434C611.389 160.584 601.548 161.995 601.548 161.995C601.548 161.995 593.536 163.665 584.053 162.949C575.364 162.293 573.913 163.228 571.905 161.001C569.897 158.774 569.997 157.701 572.024 155.733C577.134 156.329 582.581 157.184 600.753 152.571Z" fill="#A5AAAA"/>
<path d="M568.088 35.9209C572.104 34.6684 575.603 33.2568 577.392 31.5669C579.182 29.8571 580.375 29.3402 580.375 31.1494C580.375 32.9586 577.87 34.9865 577.87 34.9865C577.87 34.9865 574.669 37.1933 569.5 38.7639C564.33 40.3147 563.257 39.261 562.72 38.5253C562.203 37.75 564.072 37.1734 568.088 35.9209Z" fill="#EFEFEF"/>
<path d="M594.769 133.242C602.264 130.419 602.483 134.992 600.495 136.622C598.507 138.252 592.622 140.24 590.753 137.596C588.884 134.972 594.769 133.242 594.769 133.242Z" fill="#7F1B13"/>
<g opacity="0.19">
<path opacity="0.19" d="M571.925 50.3772C571.925 50.3772 607.572 42.8621 626.917 62.8427C646.281 82.8432 648.806 110.756 640.555 125.051C632.305 139.346 619.819 147.656 600.157 153.322C580.494 159.008 563.357 156.503 550.553 147.497C537.75 138.491 533.535 122.864 531.507 111.711C529.479 100.557 530.115 83.1215 541.129 69.6819C552.124 56.2422 571.925 50.3772 571.925 50.3772Z" fill="#BAEEF7"/>
</g>
<path d="M630.257 61.171C643.021 76.3602 652.862 105.486 640.575 126.839C628.289 148.191 601.31 154.493 601.31 154.493C601.31 154.493 600.893 153.042 600.753 152.565C632.702 143.36 643.717 121.749 643.657 109.065C643.597 96.4005 636.301 68.3282 616.559 58.4473C596.817 48.5465 573.059 54.3319 573.059 54.3319C573.059 54.3319 571.429 48.6856 570.713 46.1806C592.165 39.9777 617.493 46.0017 630.257 61.171Z" fill="#E6EFEF"/>
<path d="M570.713 46.1602C571.428 48.6851 573.059 54.3115 573.059 54.3115C573.059 54.3115 549.877 62.0652 538.406 80.9523C526.954 99.8394 535.702 127.474 542.382 138.23C549.062 148.986 569.897 161.431 601.846 152.226C601.986 152.704 602.403 154.155 602.403 154.155C602.403 154.155 576.2 163.161 554.43 151.63C532.68 140.119 525.542 110.198 528.266 90.5549C530.99 70.9123 549.241 52.3433 570.713 46.1602Z" fill="#E6EFEF"/>
<path d="M562.303 202.053C562.303 202.053 565.683 212.272 587.334 214.836C608.984 217.401 630.635 212.55 634.81 213.544C638.985 214.538 636.897 226.387 632.722 233.385C622.265 227.242 602.125 232.093 595.107 234.101C588.089 236.109 583.616 241.517 581.966 241.378C580.316 241.239 577.333 240.384 573.755 235.234C570.176 230.085 560.613 219.25 557.631 216.805C554.649 214.399 556.239 206.546 562.303 202.053Z" fill="#A5AAAA"/>
<path d="M558.526 281.059C562.641 286.566 558.764 293.047 557.552 293.624C556.339 294.22 555.583 294.657 555.305 294.657C555.027 294.657 543.416 290.303 542.303 276.903C542.303 276.884 554.41 275.552 558.526 281.059Z" fill="#C7D2D3"/>
<path d="M511.666 249.944C512.56 249.526 522.302 248.194 526.139 252.946C529.976 257.697 526.596 266.803 526.596 266.803C526.596 266.803 524.787 268.075 523.316 268.155C521.845 268.234 517.431 263.244 514.886 258.91C512.361 254.596 510.771 250.381 511.666 249.944Z" fill="#C7D2D3"/>
<path d="M582.681 250.642C586.777 249.171 589.898 253.246 588.308 258.415C586.717 263.585 577.651 268.416 574.45 267.143C571.249 265.871 571.548 261.497 574.828 257.64C574.808 257.64 578.586 252.113 582.681 250.642Z" fill="white"/>
<path d="M542.979 233.108C545.404 231.458 550.056 229.887 551.746 233.108C553.456 236.329 550.971 240.106 545.484 243.745C539.977 247.383 534.708 244.679 535.483 241.756C536.259 238.814 542.979 233.108 542.979 233.108Z" fill="white"/>
<path d="M577.671 262.989C580.494 260.882 585.624 254.341 586.339 253.307C587.055 252.273 587.831 252.91 587.91 253.307C587.91 253.307 588.805 256.866 586.777 260.047C584.749 263.228 579.52 266.588 576.677 266.707C573.814 266.826 574.848 265.097 577.671 262.989Z" fill="#EFEFEF"/>
<path d="M540.97 241.732C543.157 240.062 547.968 233.959 549.042 233.064C550.115 232.17 550.97 232.229 551.228 232.846C551.228 232.846 552.521 235.032 550.692 237.776C548.863 240.52 544.767 243.601 541.864 244.277C538.982 244.953 538.803 243.422 540.97 241.732Z" fill="#EFEFEF"/>
<path d="M575.285 179.21L572.641 169.807L583.297 170.284L575.285 179.21Z" fill="white"/>
<path d="M512.68 163.781C513.495 163.941 516.437 164.577 516.775 164.318C517.093 164.06 515.721 162.171 514.767 160.938C513.813 159.706 512.719 157.917 513.932 157.837C515.165 157.738 519.061 160.263 519.678 160.243C520.294 160.223 519.459 158.354 518.902 156.386C518.346 154.417 518.902 153.006 519.857 153.384C520.811 153.761 523.097 158.891 523.515 159.467C523.932 160.064 524.668 159.368 524.688 158.414C524.728 157.459 525.483 156.465 526.457 156.485C527.431 156.505 526.915 156.962 527.272 158.93C527.63 160.899 527.571 164.02 527.571 164.02C527.909 164.994 522.282 170.203 521.069 170.163C519.857 170.124 515.523 167.718 513.256 166.227C511.01 164.736 511.864 163.622 512.68 163.781Z" fill="white"/>
<path d="M546.775 174.637C546.775 174.637 543.773 182.172 543.097 185.87C542.421 189.568 544.926 192.868 545.284 197.52C545.642 202.172 544.052 202.491 538.425 199.489C533.753 197.003 527.908 186.367 527.908 186.367L544.549 173.066L546.775 174.637Z" fill="white"/>
<path d="M545.146 171.534C546.001 173.303 544.828 178.293 540.514 183.343C536.199 188.393 530.931 192.27 528.843 189.407C526.318 185.928 521.547 173.701 521.547 173.701L531.368 165.729C531.388 165.729 544.291 169.764 545.146 171.534Z" fill="#C7D2D3"/>
<path d="M523.992 167.637C526.477 165.589 527.59 164.078 527.59 164.078C528.425 163.641 532.123 165.192 532.183 166.007C532.243 166.822 530.732 169.227 528.644 171.494C526.557 173.76 522.799 175.43 522.044 174.874C521.288 174.317 520.513 171.911 520.214 170.778C519.936 169.625 521.507 169.685 523.992 167.637Z" fill="white"/>
<path d="M527.709 165.212C527.709 165.212 530.712 167.101 530.592 167.816C530.473 168.532 529.399 170.262 528.982 170.182C528.544 170.103 526.099 167.598 525.94 167.14C525.801 166.663 527.431 165.013 527.709 165.212Z" fill="#EFEFEF"/>
<path d="M542.083 185.334C542.083 185.334 541.626 187.938 542.54 190.364C543.475 192.789 544.867 197.143 544.588 198.674C544.33 200.205 543.853 199.807 542.6 196.885C541.348 193.962 539.359 190.503 539.002 188.714C538.644 186.924 539.618 185.93 541.248 183.743C542.898 181.596 542.461 183.386 542.083 185.334Z" fill="#EFEFEF"/>
<path d="M636.341 184.915C636.341 184.915 642.086 178.076 643.518 177.26C644.949 176.425 652.564 176.346 656.699 184.119C660.834 191.873 658.369 198.175 656.699 199.03C653.717 200.521 645.247 200.064 634.909 197.619C637.712 190.641 636.341 184.915 636.341 184.915Z" fill="#C7D2D3"/>
<path d="M632.802 192.094C634.353 188.297 633.418 185.832 633.418 185.832C633.418 185.832 634.89 184.36 636.54 184.5C637.772 184.599 639.184 186.229 639.104 189.788C639.025 193.347 637.812 197.283 635.506 197.78C633.2 198.277 629.959 195.732 629.959 195.732C629.959 195.732 631.251 195.891 632.802 192.094Z" fill="white"/>
<path d="M637.891 186.228C638.607 187.222 638.646 189.766 638.348 190.621C638.07 191.476 635.068 190.343 634.551 190.045C634.034 189.766 634.193 186.864 634.193 186.864C634.193 186.864 637.175 185.233 637.891 186.228Z" fill="#EFEFEF"/>
<path d="M666.361 188.649C668.608 186.223 669.045 184.076 669.284 183.042C669.542 182.008 669.602 183.996 669.602 183.996C669.602 183.996 669.602 188.569 667.415 191.71C665.228 194.852 661.808 196.064 661.351 196.064C660.894 196.064 661.073 193.003 661.351 192.486C661.649 192.009 664.115 191.074 666.361 188.649Z" fill="#EFEFEF"/>
<path d="M638.547 148.311C636.778 148.927 637.334 158.848 637.891 165.627C638.428 172.407 639.263 178.113 638.527 180.041C637.791 181.97 636.837 182.387 636.837 182.387C636.837 182.387 632.722 167.317 630.296 160.538C627.871 153.758 626.022 149.464 627.433 146.402C628.845 143.36 637.593 142.128 638.547 148.311Z" fill="white"/>
<path d="M568.089 158.392C568.884 157.756 576.896 155.947 574.172 162.368C571.031 168.81 566.18 182.985 563.536 192.886C563.536 192.886 561.826 180.997 563.416 172.249C565.007 163.521 567.313 159.008 568.089 158.392Z" fill="white"/>
<path d="M634.213 145.491C635.843 144.516 637.056 146.505 636.957 148.035C636.957 148.035 636.559 152.767 636.698 158.175C636.818 163.582 638.269 173.642 637.971 173.801C637.672 173.96 634.551 160.461 633.656 155.272C632.742 150.103 632.583 146.485 634.213 145.491Z" fill="#EFEFEF"/>
<path d="M573.396 161.235C573.396 161.235 569.042 174.099 568.088 174.496C567.134 174.894 568.207 165.41 569.599 161.832C571.01 158.233 574.172 158.969 573.396 161.235Z" fill="#EFEFEF"/>
<path d="M625.028 184.475C625.306 184.117 625.525 182.805 625.525 182.805L628.845 182.924C628.845 182.924 631.549 201.911 630.495 203.68C629.421 205.469 624.292 205.111 623.199 204.674C622.105 204.237 620.574 185.787 620.853 185.111C621.131 184.435 624.749 184.833 625.028 184.475Z" fill="#2E3A3A"/>
<path d="M637.852 210.124C645.009 211.357 647.852 206.903 648.13 203.901C648.329 201.297 649.184 200.919 649.9 202.629C649.045 206.486 648.369 212.271 639.482 212.053C630.595 211.834 628.527 202.609 628.527 202.609L629.959 202.052C629.979 202.052 631.271 209.011 637.852 210.124Z" fill="#2E3A3A"/>
<path d="M621.529 184.078C622.662 183.502 623.736 181.732 623.736 181.732L627.354 183.124C627.354 183.124 626.559 185.45 624.173 185.907C621.788 186.365 619.243 185.987 618.746 185.907C618.249 185.828 618.646 184.615 618.746 184.297C618.865 183.979 620.396 184.655 621.529 184.078Z" fill="#F44D37"/>
<path d="M620.833 193.345C620.833 193.345 619.998 192.928 619.859 191.854C619.719 190.78 620.773 190.025 620.773 190.025C620.773 190.025 619.382 188.713 620.376 187.739C621.37 186.764 622.125 187.758 623.258 187.639C624.392 187.52 628.01 185.393 627.851 184.697C627.672 184.001 627.632 184.021 625.883 183.683C624.153 183.345 623.855 183.206 623.656 182.391C623.457 181.575 624.173 181.237 625.525 181.098C626.877 180.959 627.056 180.701 628.885 180.601C630.714 180.502 632.821 185.074 632.821 185.074C635.267 187.341 634.253 193.186 631.171 195.174C628.089 197.162 620.733 196.248 620.018 195.035C619.302 193.822 620.833 193.345 620.833 193.345Z" fill="white"/>
<path d="M635.247 252.214C639.422 257.145 638.925 261.042 638.925 261.042L634.531 263.507C634.531 263.507 631.131 255.733 628.288 254.023C625.445 252.314 622.781 252.055 622.781 252.055L625.823 247.363C625.843 247.383 631.072 247.284 635.247 252.214Z" fill="#A5AAAA"/>
<path d="M615.187 291.642C615.783 290.787 619.262 289.236 619.262 289.236C619.262 289.236 617.592 291.224 617.394 292.119C617.175 293.034 618.149 294.525 617.135 296.075C616.121 297.626 613.179 297.686 613.179 297.686C613.179 297.686 614.63 296.075 614.63 295.439C614.59 294.783 614.59 292.497 615.187 291.642Z" fill="#FFB91D"/>
<path d="M598.864 296.289C599.997 295.712 604.152 292.432 604.152 292.432C604.152 292.432 603.297 295.931 601.588 297.68C599.878 299.43 596.021 300.424 592.243 301.08C588.466 301.716 586.736 304.659 586.736 304.659C586.736 304.659 587.174 299.867 588.943 298.157C590.732 296.428 597.731 296.865 598.864 296.289Z" fill="#FFB91D"/>
<path d="M587.731 288.298C587.731 288.298 584.948 289.948 584.311 290.445C583.675 290.942 581.667 292.732 581.389 293.089C581.111 293.447 581.389 291.081 582.701 289.232C583.993 287.364 587.731 288.298 587.731 288.298Z" fill="#FFB91D"/>
<path d="M590.435 305.777C590.435 305.777 591.727 308.998 590.872 310.847C590.017 312.696 585.663 310.847 585.663 310.847C585.663 310.847 587.671 310.131 588.884 309.276C590.077 308.422 590.435 305.777 590.435 305.777Z" fill="#FFB91D"/>
<path d="M568.386 300.361C569.46 300.083 572.82 300.858 572.82 300.858C570.037 300.58 566.518 302.29 566.518 302.29C566.518 302.29 567.313 300.639 568.386 300.361Z" fill="#FFB91D"/>
<path d="M551.329 267.34C551.667 266.803 551.209 265.948 551.687 265.948C552.164 265.948 556.16 265.232 556.16 265.232C556.16 265.232 555.086 267.101 553.098 268.155C551.09 269.229 549.241 268.93 549.241 268.93C549.241 268.93 550.991 267.877 551.329 267.34Z" fill="#FFB91D"/>
<path d="M532.561 268.973C533.793 268.933 533.813 267.442 536.239 265.792C538.664 264.142 540.314 265.653 541.169 265.713C541.169 265.713 538.107 268.774 535.781 269.927C533.455 271.061 530.394 268.953 530.394 268.953C530.394 268.953 531.328 269.013 532.561 268.973Z" fill="#FFB91D"/>
<path d="M529.181 274.739C529.538 274.659 532.043 274.381 532.043 274.381C532.043 274.381 532.043 275.236 530.692 275.097C529.32 274.938 528.823 274.818 529.181 274.739Z" fill="#FFB91D"/>
<path d="M545.583 266.147C544.788 267.22 543.376 268.99 543.376 268.99C543.376 268.99 543.376 267.498 543.833 266.823C544.291 266.127 545.583 266.147 545.583 266.147Z" fill="#FFB91D"/>
<path d="M619.78 276.59C622.066 274.88 624.213 270.387 623.636 267.942C623.06 265.516 627.891 258.2 628.487 257.583C628.647 257.424 629.124 270.586 628.925 273.011C628.706 275.437 626.857 276.928 624.213 277.504C621.569 278.081 616.937 280.268 616.937 280.268C616.937 280.268 617.493 278.3 619.78 276.59Z" fill="#F2790A"/>
<path d="M600.654 273.706C600.654 273.706 612.603 265.495 619.044 257.165C621.271 256.529 623.855 256.747 623.855 256.747C623.855 256.747 619.72 259.391 618.865 261.817C618.01 264.242 611.787 272.593 608.447 274.302C605.087 276.012 602.244 279.114 601.588 280.287C600.952 281.44 599.62 284.66 599.62 284.66C599.62 284.66 600.594 277.941 600.594 277.245C600.574 276.509 600.654 273.706 600.654 273.706Z" fill="#F2790A"/>
<path d="M617.93 271.301C618.507 270.227 618.785 267.305 619.64 264.8C620.495 262.295 623.218 260.665 622.96 260.943C621.489 262.434 622.224 270.009 620.793 272.653C619.361 275.297 612.145 275.874 612.145 275.874C612.145 275.874 617.353 272.375 617.93 271.301Z" fill="#F2790A"/>
<path d="M609.003 276.752L605.544 280.788C605.544 280.788 602.721 284.426 602.363 284.645C602.005 284.863 602.801 282.637 603.496 280.569C604.212 278.521 608.725 276.652 609.003 276.752Z" fill="#F2790A"/>
<path d="M622.205 279.65C622.205 279.65 612.065 285.794 612.145 285.694C612.225 285.595 612.94 283.209 613.994 282.155C615.068 281.082 622.205 279.65 622.205 279.65Z" fill="#F2790A"/>
<path d="M602.006 295.654C602.006 295.654 599.601 298.06 598.626 298.537C597.672 299.014 593.438 298.279 593.438 298.279C593.438 298.279 596.38 297.961 598.09 297.185C599.819 296.39 602.006 295.654 602.006 295.654Z" fill="#F2790A"/>
<path d="M566.438 253.465L574.132 249.25C574.132 249.25 572.721 253.664 571.329 254.578C569.937 255.493 560.732 257.68 560.732 257.68C560.732 257.68 564.629 255.91 565.166 255.373C565.703 254.837 566.438 253.465 566.438 253.465Z" fill="#F2790A"/>
<path d="M552.7 260.523C550.751 261.438 545.562 260.841 545.562 260.841L557.809 257.004C557.809 256.984 554.648 259.608 552.7 260.523Z" fill="#F2790A"/>
<path d="M603.397 167.166C605.007 167.086 608.288 166.868 610.932 166.43C612.94 166.112 614.491 165.794 615.445 165.595C616.081 165.456 616.697 165.913 616.757 166.57L617.234 171.261C617.294 171.838 616.896 172.375 616.32 172.454C614.153 172.832 608.785 173.607 603.218 173.289C602.622 173.25 602.164 172.753 602.184 172.156C602.224 170.784 602.303 169.214 602.343 168.22C602.403 167.643 602.84 167.186 603.397 167.166Z" fill="#6D7C7C"/>
<path d="M604.491 167.739C605.823 167.68 608.527 167.521 610.714 167.202C612.384 166.964 613.656 166.725 614.451 166.566C614.988 166.467 615.485 166.805 615.545 167.282L615.942 170.781C615.982 171.218 615.664 171.596 615.187 171.676C613.398 171.954 608.944 172.531 604.352 172.292C603.855 172.272 603.477 171.894 603.497 171.437C603.517 170.423 603.596 169.25 603.636 168.495C603.656 168.097 604.034 167.759 604.491 167.739Z" fill="white"/>
<path d="M609.301 174.537C610.176 174.537 610.892 175.253 610.892 176.128C610.892 177.002 610.176 177.718 609.301 177.718C608.427 177.718 607.711 177.002 607.711 176.128C607.711 175.253 608.427 174.537 609.301 174.537Z" fill="#6D7C7C"/>
</g>
<defs>
<linearGradient id="paint0_linear_33_7107" x1="300.438" y1="-43.9536" x2="326.193" y2="323.179" gradientUnits="userSpaceOnUse">
<stop stop-color="#454369"/>
<stop offset="1" stop-color="#302D5C"/>
</linearGradient>
<linearGradient id="paint1_linear_33_7107" x1="300.438" y1="-43.9536" x2="326.193" y2="323.179" gradientUnits="userSpaceOnUse">
<stop stop-color="#454369"/>
<stop offset="1" stop-color="#302D5C"/>
</linearGradient>
<linearGradient id="paint2_linear_33_7107" x1="-72.0528" y1="-432.915" x2="256.232" y2="770.951" gradientUnits="userSpaceOnUse">
<stop stop-color="#323056"/>
<stop offset="1" stop-color="#302D5C"/>
</linearGradient>
</defs>
</svg>
