<svg width="44" height="50" viewBox="0 0 44 50" fill="none" xmlns="http://www.w3.org/2000/svg">
<path d="M21.6363 30.3705C28.2808 30.3705 33.6876 24.969 33.6876 18.3293C33.6876 14.8656 31.1272 14.3215 29.0694 13.8838C26.3717 13.31 23.5815 12.7158 22.6638 7.15079C22.5814 6.64856 22.1458 6.2793 21.6362 6.2793C14.9917 6.2793 9.58496 11.6848 9.58496 18.3294C9.58496 24.9687 14.9917 30.3706 21.6362 30.3706L21.6363 30.3705ZM20.7818 8.39966C22.1285 14.5376 26.0208 15.3659 28.6361 15.9221C30.8914 16.4021 31.6046 16.6341 31.6046 18.3299C31.6046 23.8209 27.133 28.2878 21.6369 28.2878C16.1407 28.2878 11.6691 23.821 11.6691 18.3299C11.6686 13.1215 15.6847 8.83381 20.782 8.39955L20.7818 8.39966Z" fill="url(#paint0_linear_1_1825)"/>
<path d="M0.288052 49.6765C0.485104 49.8832 0.758016 50 1.0427 50H42.2288C42.5135 50 42.7864 49.8832 42.9834 49.6765C43.1796 49.4699 43.2825 49.1922 43.2694 48.9075C43.0479 44.3831 41.4532 40.1752 38.8169 36.7446C38.8531 36.6387 38.884 36.5297 38.884 36.4116V17.2476C38.884 7.73711 31.147 0 21.6353 0C12.1235 0 4.38651 7.737 4.38651 17.2476V36.4116C4.38651 36.5297 4.41746 36.6387 4.45365 36.7446C1.8174 40.1752 0.222653 44.3831 0.00111442 48.9075C-0.0119647 49.1917 0.0904865 49.4694 0.287106 49.6761L0.288052 49.6765ZM6.47082 17.2482C6.47082 8.88643 13.274 2.08425 21.6359 2.08425C29.9978 2.08425 36.8009 8.88654 36.8009 17.2482V34.4702C34.9983 32.7076 32.8721 31.2414 30.4778 30.1703C30.1543 30.0278 29.7768 30.0565 29.4777 30.2527C27.1466 31.7925 24.4344 32.6074 21.636 32.6074C18.8376 32.6074 16.1254 31.7926 13.7939 30.2523C13.4948 30.0548 13.1186 30.0264 12.7938 30.1699C10.3995 31.241 8.27328 32.7071 6.47062 34.4697L6.47082 17.2482ZM13.1406 32.305C15.7002 33.8675 18.6237 34.6906 21.6358 34.6906C24.6478 34.6906 27.5714 33.8675 30.1309 32.305C36.285 35.2669 40.4009 41.1406 41.1049 47.9165H33.0942V43.4305C33.0942 42.8546 32.6281 42.389 32.0527 42.389C31.4767 42.389 31.0111 42.855 31.0111 43.4305L31.0107 47.9165H12.2609V43.4305C12.2609 42.8546 11.7948 42.389 11.2193 42.389C10.6434 42.389 10.1778 42.855 10.1778 43.4305L10.1774 47.9165H2.16663C2.87071 41.1408 6.98668 35.267 13.1407 32.305H13.1406Z" fill="url(#paint1_linear_1_1825)"/>
<defs>
<linearGradient id="paint0_linear_1_1825" x1="20.9244" y1="6.2793" x2="20.9244" y2="30.3706" gradientUnits="userSpaceOnUse">
<stop stop-color="#FF9649"/>
<stop offset="1" stop-color="#FF5C00"/>
</linearGradient>
<linearGradient id="paint1_linear_1_1825" x1="20.3572" y1="4.22251e-06" x2="20.3573" y2="50" gradientUnits="userSpaceOnUse">
<stop stop-color="#FF9649"/>
<stop offset="1" stop-color="#FF5C00"/>
</linearGradient>
</defs>
</svg>
