<svg width="50" height="50" viewBox="0 0 50 50" fill="none" xmlns="http://www.w3.org/2000/svg">
<path d="M48.9855 0.0114829C48.3011 -0.0181596 32.0507 -0.492011 22.1208 9.43843C21.2062 10.353 20.3505 11.2994 19.5239 12.258C17.3761 10.9603 14.9214 10.2706 12.362 10.2624C8.64405 10.2715 5.14916 11.7232 2.52317 14.3505L0.305171 16.568C0.0575592 16.8152 -0.0492392 17.1714 0.0213795 17.514C0.0915641 17.8566 0.329577 18.1417 0.654782 18.2717L12.6013 23.0529C12.2142 23.964 11.8772 24.8641 11.6091 25.747L4.04493 29.9397C3.75896 30.0984 3.56366 30.3822 3.51832 30.7056C3.47255 31.0299 3.58197 31.3565 3.81344 31.5875L7.2782 35.0518C6.9408 35.2672 6.62126 35.5104 6.33747 35.7942C4.4565 37.676 2.87662 44.7747 2.57888 46.1784C2.50608 46.5232 2.61244 46.8811 2.86135 47.1305C3.05882 47.3279 3.32473 47.4356 3.59807 47.4356C3.66913 47.4356 3.7415 47.4287 3.81255 47.4134C5.21845 47.1174 12.3236 45.545 14.2055 43.6632C14.4897 43.3789 14.733 43.0594 14.9483 42.722L18.4108 46.1845C18.6074 46.3807 18.8733 46.4897 19.1471 46.4897C19.1955 46.4897 19.2439 46.4866 19.2923 46.4797C19.6162 46.4339 19.9 46.2395 20.0582 45.9526L24.2509 38.3884C25.1337 38.1204 26.0342 37.7834 26.9458 37.3963L31.7283 49.3461C31.8577 49.6704 32.1428 49.9085 32.4855 49.9786C32.5552 49.993 32.6254 50 32.6951 50C32.968 50 33.2344 49.8923 33.4314 49.6949L35.6494 47.4773C38.2768 44.85 39.7284 41.356 39.7367 37.6323C39.7288 35.0809 39.0388 32.6262 37.7389 30.4752C38.6975 29.6487 39.6443 28.7926 40.5593 27.878C50.4896 17.9477 50.0119 1.70181 49.9866 1.01325C49.9675 0.468345 49.5309 0.0311016 48.9855 0.0114829ZM2.8959 16.924L3.99705 15.8233C6.23156 13.5888 9.20418 12.3538 12.3629 12.3455C14.4284 12.3525 16.4149 12.8839 18.1738 13.8818C16.2814 16.2715 14.699 18.7349 13.4798 21.16L2.8959 16.924ZM12.7339 42.1908C11.7936 43.1306 7.97313 44.2871 4.98355 45.0112C5.71067 42.0246 6.87066 38.2085 7.81142 37.2673C8.1 36.9783 8.45093 36.7673 8.82277 36.5956L13.4061 41.1789C13.2343 41.5503 13.0229 41.9017 12.7339 42.1908ZM18.9074 43.7348L6.26457 31.092L12.2878 27.7537L22.2461 37.7111L18.9074 43.7348ZM37.6558 37.6336C37.6488 40.7971 36.4133 43.7701 34.1788 46.0047L33.0777 47.1054L28.8404 36.5199C31.2647 35.3014 33.7272 33.719 36.1169 31.8271C37.1169 33.5887 37.6496 35.5747 37.6558 37.6336ZM39.0887 26.4058C34.276 31.218 28.7529 34.8149 23.8356 36.3545L13.6454 26.1651C15.1868 21.2461 18.7841 15.722 23.5949 10.912C31.5223 2.98421 44.2628 2.16118 47.9075 2.094C47.8426 5.73787 47.0277 18.4656 39.0887 26.4058Z" fill="#0C0058"/>
<path d="M33.4762 23.2646C35.2034 23.2646 36.9305 22.6064 38.2452 21.2925C39.519 20.0192 40.2204 18.3256 40.2204 16.5239C40.2204 14.7226 39.519 13.0292 38.2452 11.7545C35.6161 9.12717 31.3376 9.12504 28.7076 11.7545C27.4338 13.0292 26.7324 14.7228 26.7324 16.5239C26.7324 18.3251 27.4338 20.0187 28.7076 21.2925C30.0223 22.6063 31.7495 23.2646 33.4761 23.2646H33.4762ZM30.1807 13.227C31.9976 11.4113 34.954 11.4092 36.7723 13.227C37.6524 14.108 38.1371 15.2785 38.1371 16.5235C38.1371 17.7685 37.6523 18.9393 36.7723 19.8191C34.9553 21.6355 31.9989 21.6355 30.1807 19.8191C29.3005 18.9394 28.8158 17.7685 28.8158 16.5235C28.8158 15.279 29.3001 14.108 30.1807 13.227Z" fill="#0C0058"/>
</svg>
