<svg width="204" height="382" viewBox="0 0 204 382" fill="none" xmlns="http://www.w3.org/2000/svg">
    <path fill-rule="evenodd" clip-rule="evenodd"
          d="M91.1599 250.245L55.0039 228.986L68.9984 167.061L131.2 135.452L185.866 182.282L193.298 178.43L196.418 150.043L227.931 131.994L277.805 167.607L244.972 261.895L172.247 301.529L96.1687 282.097L91.1599 250.245Z"
          fill="url(#paint0_linear_131_668)"/>
    <path fill-rule="evenodd" clip-rule="evenodd"
          d="M55.0039 228.986L109.388 245.989L137.736 226.846L131.2 135.452L68.9984 167.061L55.0039 228.986Z" fill="#FF7C25"/>
    <path fill-rule="evenodd" clip-rule="evenodd"
          d="M196.418 150.043L190.823 227.532L203.531 226.442L245.336 181.786L227.931 131.994L196.418 150.043Z" fill="#FF7C25"/>
    <path fill-rule="evenodd" clip-rule="evenodd"
          d="M187.828 260.854L200.344 237.791L213.607 226.357L220.561 239.77L196.462 267.373L187.828 260.854Z" fill="#FF7C25"/>
    <path fill-rule="evenodd" clip-rule="evenodd"
          d="M96.1685 282.098L144.103 270.122L163.602 247.141L91.1598 250.245L96.1685 282.098Z" fill="#FF7C25"/>
    <path fill-rule="evenodd" clip-rule="evenodd"
          d="M155.295 231.115L148.956 206.085L156.43 209.034L164.305 220.864L155.295 231.115Z" fill="#FF7C25"/>
    <path fill-rule="evenodd" clip-rule="evenodd"
          d="M145.348 276.577L146.593 272.257L162.568 263.976L163.212 270.604L140.62 285.326L145.348 276.577Z" fill="#FF7C25"/>
    <path opacity="0.5" fill-rule="evenodd" clip-rule="evenodd"
          d="M109.388 245.989L113.069 249.302L163.602 247.14L144.103 270.122L146.593 272.257L162.568 263.976L163.212 270.604L188.505 288.405L171.212 271.208L171.461 255.526L195.326 246.994L200.344 237.791L213.607 226.357L220.561 239.77L244.453 259.402L279.265 166.85L257.113 218.639L214.526 216.82L203.531 226.442L190.823 227.532L193.298 178.43L185.865 182.282L131.199 135.452L138.705 166.093L156.251 178.711L146.238 204.842L148.956 206.085L156.43 209.034L164.305 220.864L155.295 231.115L153.305 223.223L137.735 226.847L109.388 245.989Z"
          fill="#A67C4C"/>
    <path fill-rule="evenodd" clip-rule="evenodd" d="M138.705 166.093L142.233 217.333L156.251 178.711L138.705 166.093Z"
          fill="#FF7C25"/>
    <path opacity="0.5" fill-rule="evenodd" clip-rule="evenodd"
          d="M185.866 182.282L188.62 213.839L164.305 220.864L156.43 209.034L176.509 206.001L156.251 178.711L138.705 166.093L131.2 135.452L185.866 182.282Z"
          fill="#A67C4C"/>
    <path fill-rule="evenodd" clip-rule="evenodd" d="M127.656 233.647L136.833 214.331L143.261 225.557L127.656 233.647Z"
          fill="#E05F25"/>
    <path fill-rule="evenodd" clip-rule="evenodd" d="M137.813 271.697L150.42 262.676L146.593 272.257L137.813 271.697Z"
          fill="#E05F25"/>
    <path fill-rule="evenodd" clip-rule="evenodd"
          d="M82.5248 245.163L74.0804 234.954L102.877 170.964L131.963 145.885L147.991 149.814L131.707 147.206L114.951 164.704L88.5178 205.729L74.9787 234.82L82.5248 245.163Z"
          fill="url(#paint1_linear_131_668)"/>
    <path fill-rule="evenodd" clip-rule="evenodd"
          d="M95.6551 191.172L103.234 172.187L104.61 170.148L112.823 164.012L114.119 164.113L106.108 176.61L95.6551 191.172Z"
          fill="#FF7C25"/>
    <path fill-rule="evenodd" clip-rule="evenodd"
          d="M65.7332 232.347L79.7738 222.306L74.0805 234.954L78.2471 240.005L65.7332 232.347Z" fill="#E05F25"/>
    <path fill-rule="evenodd" clip-rule="evenodd"
          d="M23.4641 134.006L25.4796 115.17L48.1016 97.9454L78.3171 132.229L72.2116 144.455L23.4641 134.006Z"
          fill="url(#paint2_linear_131_668)"/>
    <path fill-rule="evenodd" clip-rule="evenodd"
          d="M206.285 95.893L196.371 71.1139L206.611 58.5406L217.691 65.7804L216.943 90.3681L206.285 95.893Z"
          fill="url(#paint3_linear_131_668)"/>
    <path fill-rule="evenodd" clip-rule="evenodd"
          d="M23.4641 134.006L46.3603 128.352L51.2379 115.464L48.1016 97.9454L24.475 113.232L23.4641 134.006Z" fill="#FF7C25"/>
    <path fill-rule="evenodd" clip-rule="evenodd"
          d="M206.611 58.5406L214.607 68.8986L212.486 88.065L206.285 95.893L196.371 71.1139L206.611 58.5406Z" fill="#FF7C25"/>
    <path opacity="0.5" fill-rule="evenodd" clip-rule="evenodd"
          d="M46.3604 128.352L72.2117 144.455L23.4641 134.005L46.3604 128.352Z" fill="#A67C4C"/>
    <defs>
        <linearGradient id="paint0_linear_131_668" x1="209.828" y1="282.051" x2="133.016" y2="133.876"
                        gradientUnits="userSpaceOnUse">
            <stop stop-color="#A43440"/>
            <stop offset="1" stop-color="#C75225"/>
        </linearGradient>
        <linearGradient id="paint1_linear_131_668" x1="64.9886" y1="217.432" x2="158.03" y2="169.2"
                        gradientUnits="userSpaceOnUse">
            <stop stop-color="#C75225"/>
            <stop offset="1" stop-color="#A43440"/>
        </linearGradient>
        <linearGradient id="paint2_linear_131_668" x1="60.0377" y1="150.767" x2="35.9273" y2="104.256"
                        gradientUnits="userSpaceOnUse">
            <stop stop-color="#A43440"/>
            <stop offset="1" stop-color="#C75225"/>
        </linearGradient>
        <linearGradient id="paint3_linear_131_668" x1="216.937" y1="90.3729" x2="201.741" y2="61.0597"
                        gradientUnits="userSpaceOnUse">
            <stop stop-color="#A43440"/>
            <stop offset="1" stop-color="#C75225"/>
        </linearGradient>
    </defs>
</svg>