<svg width="42" height="50" viewBox="0 0 42 50" fill="none" xmlns="http://www.w3.org/2000/svg">
<path d="M40.0909 49.9998H1.90909C0.852727 49.9998 0 49.1248 0 48.0461V20.6998C0 19.6198 0.854 18.7461 1.90909 18.7461H40.0909C41.146 18.7461 42 19.6211 42 20.6998V48.0473C42.0013 49.1261 41.146 49.9998 40.0909 49.9998ZM3.81818 46.0936H38.1818V22.6536H3.81818V46.0936Z" fill="#FF721C"/>
<path d="M3.81818 21.09H0C0 19.6525 0.142545 18.215 0.422545 16.8188L4.16182 17.6063C3.93527 18.7438 3.81818 19.9163 3.81818 21.09ZM4.40236 16.5837L0.717818 15.5638C1.08411 14.18 1.58976 12.8354 2.22727 11.55L5.63055 13.3175C5.11075 14.3631 4.69929 15.4573 4.40236 16.5837ZM6.12182 12.395L2.83055 10.4125C3.53853 9.17955 4.37083 8.01956 5.31491 6.95L8.14545 9.57125C7.38182 10.44 6.70091 11.39 6.12182 12.395ZM8.862 8.81125L6.18927 6.02125C7.18687 5.02017 8.28631 4.12214 9.47036 3.34125L11.5373 6.62625C10.5713 7.26223 9.67482 7.99444 8.862 8.81125ZM30.8242 7.43625C30.3698 7.08 29.8989 6.74875 29.4115 6.4425L31.4135 3.11625C32.0256 3.50125 32.6213 3.9225 33.1927 4.37375C34.0658 5.06125 34.1473 6.38125 33.3938 7.2025L33.3493 7.24875C33.0341 7.59366 32.5956 7.80571 32.1251 7.84065C31.6546 7.87559 31.1885 7.73071 30.8242 7.43625ZM12.418 6.085L10.5509 2.675C11.7716 1.97439 13.0642 1.40246 14.4073 0.96875L15.5578 4.69375C14.4709 5.045 13.4145 5.5125 12.418 6.085ZM28.5218 5.9175C27.5166 5.36781 26.4552 4.92369 25.3553 4.5925L26.4307 0.845C27.7747 1.24875 29.0831 1.795 30.3215 2.4725L28.5218 5.9175ZM16.5455 4.41L15.6215 0.62C16.9818 0.274146 18.3755 0.0705147 19.7795 0.0125L19.9322 3.9175C18.7867 3.9625 17.6489 4.1275 16.5442 4.41H16.5455ZM24.3613 4.33C23.2469 4.07167 22.1078 3.92963 20.9631 3.90625L21.0382 0C22.442 0.02875 23.8458 0.20375 25.2051 0.52L24.36 4.33H24.3613ZM20.8065 25.7787C22.3911 25.7787 23.9464 26.3313 25.1911 27.3363L22.8251 30.4037C22.1954 29.8937 21.3905 29.64 20.5762 29.695L20.3076 25.7975C20.4744 25.785 20.6385 25.7787 20.8065 25.7787ZM18.7651 26.0912L19.8724 29.8288C19.0874 30.0756 18.4263 30.6047 18.0218 31.31L14.7382 29.315C15.6192 27.7809 17.0566 26.6293 18.7638 26.09L18.7651 26.0912ZM26.306 28.4663C27.4213 29.888 27.9738 31.6587 27.8613 33.45L24.0507 33.2087C24.1018 32.3848 23.8468 31.5707 23.3329 30.9175L26.306 28.4675V28.4663ZM14.0929 30.7725L17.724 31.98C17.473 32.7695 17.5196 33.6214 17.8551 34.38C18.0867 34.9025 18.4304 35.3375 18.8758 35.6763L16.6053 38.815C15.6337 38.0739 14.8678 37.1045 14.378 35.9963C13.9601 35.0551 13.7451 34.0392 13.7467 33.0125C13.745 32.2529 13.8618 31.4974 14.0929 30.7725ZM23.926 33.935L27.5915 35.0288C27.1152 36.7441 26.0071 38.2244 24.4822 39.1825L22.4993 35.845C23.1983 35.4028 23.7064 34.7226 23.926 33.935ZM20.6182 35.9375C21.6733 35.9375 22.5273 36.8125 22.5273 37.8913V41.7975C22.5273 42.8763 21.6733 43.75 20.6182 43.75C19.5631 43.75 18.7091 42.875 18.7091 41.7962V37.8913C18.7091 36.8113 19.5631 35.9375 20.6182 35.9375Z" fill="#FF721C"/>
</svg>
