<svg width="55" height="50" viewBox="0 0 55 50" fill="none" xmlns="http://www.w3.org/2000/svg">
<g clip-path="url(#clip0_1_1801)">
<path d="M27.5025 15.8012C26.3775 15.8012 25.4638 14.945 25.4638 13.885C25.4638 8.34125 20.6663 3.83125 14.7713 3.83125C8.875 3.83125 4.0775 8.34125 4.0775 13.885C4.0775 14.9425 3.16625 15.8012 2.04 15.8012C0.91125 15.8012 0 14.945 0 13.885C0 6.2275 6.62625 0 14.7713 0C22.915 0 29.5412 6.2275 29.5412 13.885C29.5412 14.9425 28.6288 15.8012 27.5025 15.8012V15.8012Z" fill="white"/>
<path d="M52.9622 15.8012C51.8372 15.8012 50.9247 14.945 50.9247 13.885C50.9247 8.34125 46.1272 3.83125 40.2309 3.83125C34.3359 3.83125 29.5384 8.34125 29.5384 13.885C29.5384 14.9425 28.6272 15.8012 27.4997 15.8012C26.3747 15.8012 25.4609 14.945 25.4609 13.885C25.4609 6.2275 32.0872 0 40.2309 0C48.3759 0 54.9997 6.2275 54.9997 13.885C55.0022 14.9425 54.0909 15.8012 52.9622 15.8012Z" fill="white"/>
<path d="M27.5029 49.9996C27.1799 50.0023 26.8607 49.9297 26.5706 49.7876C26.2805 49.6455 26.0275 49.4377 25.8316 49.1809L24.6816 47.6371L25.9779 46.7821L27.0204 45.3859L27.5604 45.7434L28.0229 45.4396L28.9066 46.6296L30.3591 47.5846L29.1716 49.1809C28.7916 49.6934 28.1691 49.9996 27.5029 49.9996V49.9996ZM23.9829 46.6971L21.6454 43.5571L24.9854 41.3596L27.3229 44.4996L23.9829 46.6971ZM31.0641 46.6421L27.7241 44.4446L30.0616 41.3059L33.4016 43.5021L31.0641 46.6421V46.6421ZM20.9441 42.6146L18.6066 39.4746L21.9466 37.2771L24.2841 40.4171L20.9441 42.6146ZM34.1004 42.5596L30.7604 40.3621L33.0979 37.2221L36.4379 39.4196L34.1004 42.5596V42.5596ZM17.9041 38.5321L15.5666 35.3921L18.9066 33.1946L21.2441 36.3346L17.9041 38.5321ZM37.1404 38.4796L33.8004 36.2821L36.1379 33.1421L39.4766 35.3396L37.1391 38.4796H37.1404ZM14.8654 34.4509L12.5279 31.3109L15.8679 29.1134L18.2054 32.2534L14.8654 34.4509ZM40.1791 34.3971L36.8391 32.1996L39.1766 29.0596L42.5166 31.2571L40.1791 34.3971ZM11.8254 30.3684L9.48789 27.2284L12.8279 25.0309L15.1654 28.1709L11.8254 30.3684ZM43.2191 30.3146L39.8791 28.1171L42.2166 24.9771L45.5554 27.1746L43.2179 30.3146H43.2191ZM8.78664 26.2859L6.44914 23.1459L9.78914 20.9484L12.1266 24.0884L8.78664 26.2859ZM46.2579 26.2334L42.9179 24.0371L45.2554 20.8971L48.5954 23.0934L46.2579 26.2334ZM5.74789 22.2059L3.41039 19.0659L6.75039 16.8684L9.08789 20.0084L5.74789 22.2059V22.2059ZM49.2979 22.1509L45.9579 19.9534L48.2954 16.8146L51.6341 19.0109L49.2966 22.1509H49.2979ZM2.70664 18.1246L0.369141 14.9846L3.70914 12.7871L6.04664 15.9271L2.70664 18.1246V18.1246ZM52.3354 18.0696L48.9954 15.8721L51.2941 12.7871L54.6341 14.9846L52.3341 18.0696H52.3354Z" fill="white"/>
</g>
<defs>
<clipPath id="clip0_1_1801">
<rect width="55" height="50" fill="white"/>
</clipPath>
</defs>
</svg>
