<svg width="50" height="50" viewBox="0 0 50 50" fill="none" xmlns="http://www.w3.org/2000/svg">
<path d="M19.2038 21.1925H1.9875C1.46038 21.1925 0.954854 20.9831 0.582125 20.6104C0.209397 20.2376 0 19.7321 0 19.205V1.9875C0 0.89125 0.89 0 1.9875 0H19.2038C20.3025 0 21.1912 0.89 21.1912 1.9875V19.2038C21.1912 19.7309 20.9819 20.2364 20.6091 20.6091C20.2364 20.9819 19.7309 21.1912 19.2038 21.1912V21.1925ZM3.97625 17.2162H17.2162V3.975H3.975V17.215L3.97625 17.2162ZM48.01 21.1925H30.7938C30.2666 21.1925 29.7611 20.9831 29.3884 20.6104C29.0156 20.2376 28.8062 19.7321 28.8062 19.205V1.9875C28.8062 0.89 29.6963 0 30.7938 0H48.01C49.1075 0 49.9975 0.89 49.9975 1.9875V19.2038C49.9975 19.7309 49.7881 20.2364 49.4154 20.6091C49.0426 20.9819 48.5371 21.1912 48.01 21.1912V21.1925ZM32.7825 17.2162H46.0213V3.975H32.7825V17.215V17.2162ZM19.2038 50H1.9875C1.46038 50 0.954854 49.7906 0.582125 49.4179C0.209397 49.0451 0 48.5396 0 48.0125V30.7962C0 29.6975 0.89 28.8088 1.9875 28.8088H19.2038C20.3025 28.8088 21.1912 29.6975 21.1912 30.7962V48.0125C21.1912 48.5396 20.9819 49.0451 20.6091 49.4179C20.2364 49.7906 19.7309 50 19.2038 50ZM3.97625 46.0213H17.2162V32.7825H3.975V46.0213H3.97625ZM39.9575 32.7837H44.91V28.8062H39.9575V32.7837V32.7837ZM33.895 32.7837H38.8475V28.8062H33.895V32.7837ZM28.8037 32.7837V30.7962C28.8037 29.6975 29.6937 28.8088 30.7912 28.8088H32.7787V32.7837H28.8037ZM28.8037 44.9113H32.7825V39.9587H28.8037V44.9113ZM28.8037 38.8475H32.7825V33.895H28.8037V38.8475ZM39.9575 50H44.91V46.0213H39.9575V50V50ZM33.895 50H38.8475V46.0213H33.895V50ZM46.0213 50H48.0088C49.1075 50 50 49.11 50 48.01V46.0225H46.0213V50ZM30.7938 50C30.2666 50 29.7611 49.7906 29.3884 49.4179C29.0156 49.0451 28.8062 48.5396 28.8062 48.0125V46.025H32.7837V50H30.7938ZM49.9975 32.7837H46.0213V28.8062H48.0088C49.1075 28.8062 49.9963 29.6963 49.9963 30.7938V32.7837H49.9975ZM46.0213 44.9113H49.9987V39.9587H46.0213V44.9113ZM46.0213 38.8475H49.9987V33.895H46.0213V38.8475Z" fill="#FF721C"/>
</svg>
