<svg width="50" height="50" viewBox="0 0 50 50" fill="none" xmlns="http://www.w3.org/2000/svg">
<g clip-path="url(#clip0_1_1778)">
<path d="M24.8445 16.9197C32.0191 16.9197 39.1919 19.6205 44.6651 25.022C39.1919 30.4236 32.0172 33.1244 24.8445 33.1244C17.6699 33.1244 10.4971 30.4236 5.02394 25.022C10.4953 19.6205 17.6699 16.9197 24.8445 16.9197ZM24.8445 13.6309C16.4672 13.6309 8.59052 16.8504 2.66722 22.698C2.04248 23.3145 1.69141 24.1514 1.69141 25.0239C1.69141 25.8962 2.04248 26.7331 2.66722 27.3496C8.59052 33.1955 16.4672 36.415 24.8445 36.415C33.2217 36.415 41.0985 33.1955 47.0217 27.3496C47.6465 26.7331 47.9976 25.8962 47.9976 25.0239C47.9976 24.1514 47.6465 23.3145 47.0217 22.698C41.0985 16.8504 33.2217 13.6309 24.8445 13.6309Z" fill="#FF721C"/>
<path d="M24.8451 32.4134C23.6191 32.4134 22.4038 32.1149 21.3272 31.548L22.8935 28.6447C23.4985 28.9627 24.1538 29.1245 24.8451 29.1245C24.9622 29.1245 25.0792 29.1191 25.1945 29.1102L25.4645 32.3885C25.2575 32.4062 25.0503 32.4134 24.8451 32.4134ZM26.7337 32.177L25.8947 28.993C26.6653 28.7957 27.3603 28.3817 27.9058 27.799L30.358 30.0271C29.3786 31.0772 28.1255 31.8199 26.7337 32.177ZM20.2487 30.8586C19.1091 29.9845 18.2557 28.8135 17.7767 27.4756L20.9202 26.3846C21.185 27.1272 21.6602 27.7776 22.294 28.2645L20.2487 30.8586ZM31.1411 29.0267L28.3415 27.2427C28.7736 26.5819 29.0022 25.8142 29.0022 25.0217C29.0022 24.5616 28.9266 24.1102 28.7753 23.6802L31.9243 22.6052C32.1961 23.3817 32.3347 24.1955 32.3347 25.0217C32.3347 26.4486 31.9225 27.8327 31.1411 29.0267ZM17.4581 26.246C17.3897 25.8445 17.3555 25.4322 17.3555 25.0217C17.3555 24.009 17.559 23.0281 17.9622 22.1042L21.0247 23.4031C20.8015 23.9147 20.6898 24.4585 20.6898 25.0217C20.6898 25.251 20.7096 25.4801 20.7475 25.7041L17.4581 26.246ZM28.4855 23.0406C28.0985 22.3494 27.5205 21.7844 26.8147 21.4095L28.3973 18.515C29.6648 19.1902 30.7036 20.2047 31.4003 21.4486L28.4855 23.0406ZM21.3596 22.7847L18.569 20.9866C19.3575 19.7944 20.4683 18.8561 21.7808 18.2751L23.1456 21.2762C22.4146 21.5996 21.7988 22.122 21.3596 22.7847ZM26.163 21.1305C25.4141 20.8835 24.5805 20.8551 23.8171 21.047L22.9961 17.8594C24.3788 17.5128 25.8677 17.5643 27.2198 18.0104L26.163 21.1305Z" fill="#FF721C"/>
<path d="M3.33725 9.54248H0.00472016V6.25357H3.33725V9.54248ZM3.33725 5.26566H0.00472016V1.97675C-0.0672957 1.04747 0.694274 0.263885 1.63768 0.295868L2.67111 0.331406H6.00364V3.62031H3.33725V5.26566ZM10.3372 3.6221H7.00466V0.333185H10.3372V3.6221Z" fill="#FF721C"/>
<path d="M48.3323 11.8443C47.4123 11.8443 46.6651 11.1087 46.6651 10.199V3.29069H40.3331C39.4131 3.29069 38.666 2.55507 38.666 1.64534C38.666 0.735608 39.4114 0 40.3331 0H48.3323C49.2523 0 49.9995 0.735608 49.9995 1.64534V10.1972C49.9976 11.107 49.2523 11.8443 48.3323 11.8443Z" fill="#FF721C"/>
<path d="M47.3323 49.6702H43.9997V46.3813H46.6661V44.7359H49.9987V48.0249C49.9212 48.9097 49.1885 49.5974 48.2901 49.6329L47.3323 49.6702ZM43.0006 49.6702H39.668V46.3813H43.0006V49.6702ZM49.9987 43.7498H46.6661V40.4609H49.9987V43.7498Z" fill="#FF721C"/>
<path d="M9.67121 50.0007H1.67206C0.752049 50.0007 0.00488281 49.2651 0.00488281 48.3553V39.8036C0.00488281 38.8956 0.750249 38.1582 1.67206 38.1582C2.59206 38.1582 3.33922 38.8938 3.33922 39.8036V46.7118H9.67121C10.5912 46.7118 11.3384 47.4474 11.3384 48.3572C11.3366 49.2633 10.5912 50.0007 9.67121 50.0007Z" fill="#FF721C"/>
</g>
<defs>
<clipPath id="clip0_1_1778">
<rect width="50" height="50" fill="white"/>
</clipPath>
</defs>
</svg>
