<svg width="50" height="50" viewBox="0 0 50 50" fill="none" xmlns="http://www.w3.org/2000/svg">
<g clip-path="url(#clip0_1_1771)">
<path d="M24.8621 40.3928C24.0563 40.3931 23.2518 40.3304 22.4558 40.2053L22.9371 37.1741C23.8355 37.3163 24.7469 37.3586 25.6546 37.3003L25.8508 40.3628C25.5216 40.3835 25.1919 40.3935 24.8621 40.3928ZM26.8683 40.2616L26.4696 37.2203C27.3696 37.1016 28.2571 36.8828 29.1058 36.5666L30.1733 39.4416C29.1083 39.8378 27.9971 40.1141 26.8683 40.2616V40.2616ZM21.4521 40.0116C20.3419 39.7575 19.2639 39.3792 18.2383 38.8841L19.5721 36.1216C20.3899 36.5158 21.2495 36.8168 22.1346 37.0191L21.4521 40.0103V40.0116ZM31.1196 39.0566L29.8596 36.2591C30.6876 35.8848 31.4715 35.4198 32.1971 34.8728L34.0458 37.3228C33.1377 38.0075 32.1563 38.589 31.1196 39.0566V39.0566ZM17.3321 38.4066C16.3433 37.8445 15.4205 37.1737 14.5808 36.4066L16.6483 34.1403C17.3196 34.7528 18.0608 35.2916 18.8483 35.7403L17.3321 38.4078V38.4066ZM34.8396 36.6803L32.8321 34.3603C33.5202 33.7656 34.1398 33.0961 34.6796 32.3641L37.1483 34.1853C36.4746 35.0966 35.6983 35.9353 34.8396 36.6791V36.6803ZM13.8483 35.6941C13.0615 34.8735 12.3685 33.9679 11.7821 32.9941L14.4096 31.4128C14.879 32.1916 15.4332 32.916 16.0621 33.5728L13.8483 35.6941ZM37.7283 33.3391L35.1433 31.6891C35.6323 30.923 36.034 30.1046 36.3408 29.2491L39.2283 30.2841C38.8471 31.3516 38.3408 32.3803 37.7283 33.3391V33.3391ZM11.2846 32.1016C10.7638 31.0891 10.3587 30.0211 10.0771 28.9178L13.0496 28.1603C13.2733 29.0391 13.5971 29.8941 14.0121 30.7003L11.2846 32.1003V32.1016ZM39.5408 29.3091L36.5908 28.4716C36.8378 27.5967 36.9862 26.6969 37.0333 25.7891L40.0958 25.9503C40.037 27.0871 39.8508 28.2138 39.5408 29.3091V29.3091ZM9.85832 27.9178C9.48497 25.8771 9.52706 23.782 9.98207 21.7578L12.9746 22.4328C12.6089 24.0526 12.5749 25.7296 12.8746 27.3628L9.85832 27.9178V27.9178ZM37.0508 24.9728C37.0396 24.0603 36.9258 23.1528 36.7146 22.2766L39.6971 21.5578C39.9621 22.6578 40.1033 23.7941 40.1171 24.9328L37.0508 24.9728ZM13.1796 21.6441L10.2396 20.7666C10.5646 19.6791 11.0133 18.6253 11.5733 17.6353L14.2433 19.1441C13.797 19.9353 13.4402 20.7738 13.1796 21.6441V21.6441ZM36.4958 21.4878C36.2238 20.6214 35.8561 19.7879 35.3996 19.0028L38.0483 17.4553C38.6221 18.4378 39.0846 19.4853 39.4246 20.5691L36.4958 21.4878ZM14.6708 18.4466L12.1083 16.7591C12.7333 15.8116 13.4633 14.9316 14.2821 14.1428L16.4083 16.3516C15.754 16.984 15.1714 17.6866 14.6708 18.4466V18.4466ZM34.9633 18.3116C34.453 17.5587 33.8611 16.8645 33.1983 16.2416L35.2983 14.0041C36.1277 14.7818 36.8677 15.6497 37.5046 16.5916L34.9633 18.3116V18.3116ZM17.0158 15.8066L15.0408 13.4603C15.9103 12.7275 16.8591 12.0944 17.8696 11.5728L19.2771 14.2991C18.4693 14.7153 17.7108 15.221 17.0158 15.8066V15.8066ZM32.5846 15.7028C31.8812 15.127 31.1161 14.631 30.3033 14.2241L31.6746 11.4791C32.6896 11.9866 33.6496 12.6091 34.5308 13.3291L32.5846 15.7041V15.7028ZM20.0146 13.9491L18.7933 11.1366C19.8376 10.6824 20.93 10.3482 22.0496 10.1403L22.6121 13.1566C21.719 13.3212 20.8475 13.5871 20.0146 13.9491V13.9491ZM29.5583 13.8841C28.7204 13.5342 27.8457 13.2797 26.9508 13.1253L27.4708 10.1003C28.5921 10.2953 29.6921 10.6153 30.7408 11.0541L29.5583 13.8841ZM23.4208 13.0316L23.0621 9.98408C24.1903 9.85182 25.3297 9.84428 26.4596 9.96158L26.1433 13.0128C25.2374 12.9197 24.3241 12.926 23.4196 13.0316H23.4208Z" fill="white"/>
<path d="M24.8628 45.3339C13.7253 45.3339 4.66406 36.2739 4.66406 25.1377C4.66406 14.0002 13.7266 4.94141 24.8628 4.94141C36.0003 4.94141 45.0591 14.0039 45.0591 25.1377C45.0591 36.2739 35.9991 45.3339 24.8628 45.3339V45.3339ZM24.8628 8.00891C15.4166 8.00891 7.73281 15.6927 7.73281 25.1377C7.73281 34.5839 15.4166 42.2677 24.8628 42.2677C34.3078 42.2677 41.9916 34.5839 41.9916 25.1377C41.9916 15.6927 34.3078 8.00891 24.8628 8.00891V8.00891Z" fill="white"/>
<path d="M24.8625 19.81C24.015 19.81 23.3288 19.1238 23.3288 18.2763V1.53375C23.3288 1.33234 23.3684 1.13289 23.4455 0.946809C23.5226 0.760726 23.6356 0.591647 23.778 0.449225C23.9204 0.306803 24.0895 0.193828 24.2756 0.11675C24.4616 0.0396716 24.6611 0 24.8625 0C25.0639 0 25.2634 0.0396716 25.4494 0.11675C25.6355 0.193828 25.8046 0.306803 25.947 0.449225C26.0894 0.591647 26.2024 0.760726 26.2795 0.946809C26.3566 1.13289 26.3963 1.33234 26.3963 1.53375V18.2763C26.3963 19.1238 25.7087 19.81 24.8625 19.81ZM24.8625 50C24.015 50 23.3288 49.3137 23.3288 48.4662V31.7237C23.3288 31.5223 23.3684 31.3229 23.4455 31.1368C23.5226 30.9507 23.6356 30.7816 23.778 30.6392C23.9204 30.4968 24.0895 30.3838 24.2756 30.3067C24.4616 30.2297 24.6611 30.19 24.8625 30.19C25.0639 30.19 25.2634 30.2297 25.4494 30.3067C25.6355 30.3838 25.8046 30.4968 25.947 30.6392C26.0894 30.7816 26.2024 30.9507 26.2795 31.1368C26.3566 31.3229 26.3963 31.5223 26.3963 31.7237V48.4662C26.3963 49.3137 25.7087 50 24.8625 50ZM18.2763 26.67H1.53375C1.12697 26.67 0.736859 26.5084 0.449225 26.2208C0.161591 25.9331 0 25.543 0 25.1362C0 24.7295 0.161591 24.3394 0.449225 24.0517C0.736859 23.7641 1.12697 23.6025 1.53375 23.6025H18.2763C18.683 23.6025 19.0731 23.7641 19.3608 24.0517C19.6484 24.3394 19.81 24.7295 19.81 25.1362C19.81 25.543 19.6484 25.9331 19.3608 26.2208C19.0731 26.5084 18.683 26.67 18.2763 26.67ZM48.4662 26.67H31.7237C31.317 26.67 30.9269 26.5084 30.6392 26.2208C30.3516 25.9331 30.19 25.543 30.19 25.1362C30.19 24.7295 30.3516 24.3394 30.6392 24.0517C30.9269 23.7641 31.317 23.6025 31.7237 23.6025H48.4662C48.873 23.6025 49.2631 23.7641 49.5508 24.0517C49.8384 24.3394 50 24.7295 50 25.1362C50 25.543 49.8384 25.9331 49.5508 26.2208C49.2631 26.5084 48.873 26.67 48.4662 26.67Z" fill="white"/>
</g>
<defs>
<clipPath id="clip0_1_1771">
<rect width="50" height="50" fill="white"/>
</clipPath>
</defs>
</svg>
