<svg width="1920" height="1684" viewBox="0 0 1920 1684" fill="none" xmlns="http://www.w3.org/2000/svg">
    <path fill-rule="evenodd" clip-rule="evenodd"
          d="M-1515.04 574.147C-1425.75 560.295 -1292.75 505.022 -1159.5 452.19C-842.632 326.531 -293.761 220.73 -783.362 576.896C-1044.53 766.894 -878.53 861.934 -644.029 828.705C-319.813 782.761 -397.161 715.508 -153 574.147C-48.0162 513.352 -202.105 564.956 -91.5003 523C120.361 342.255 1088.4 84.326 982.499 511C961.583 595.221 1014.91 766.129 1237.44 775.976C1459.97 785.824 1752 750 1855.5 582C1959 414 1655.39 205.425 1967 150C1967 150 2889.23 -703.949 2867.5 731.5C2845.77 2166.95 -1147.44 1725.01 -1159.5 1053.5C-1171.57 381.986 -1515.04 574.147 -1515.04 574.147Z"
          fill="url(#paint0_linear_131_4)"/>
    <defs>
        <linearGradient id="paint0_linear_131_4" x1="534.204" y1="-30.7608" x2="1049.97" y2="1822.74"
                        gradientUnits="userSpaceOnUse">
            <stop stop-color="#202475"/>
            <stop offset="1" stop-color="#1E2265"/>
        </linearGradient>
    </defs>
</svg>