<svg width="1920" height="1335" viewBox="0 0 1920 1335" fill="none" xmlns="http://www.w3.org/2000/svg">
    <path fill-rule="evenodd" clip-rule="evenodd" d="M-915.098 827.167C-839.939 809.709 -726.721 761.754 -613.386 715.322C-343.867 604.89 118.89 484.484 -303.468 757.769C-528.768 903.554 -393.456 947.635 -196.184 903.78C76.5595 843.145 -256.652 773.969 -47.3508 660.657C-141.357 697.997 42.6448 611.928 -47.3508 660.657C217.164 767.214 744.381 223.221 1415.88 589.399C2087.38 955.577 2154.9 545.515 2373.1 433.008C2591.31 320.501 1996.91 478.494 2089.58 361.978C2182.26 245.463 1891.76 268.195 2154.31 202.778C2154.31 202.778 2813.87 -410.91 2743.22 500.768C2672.56 1412.45 -649.835 1520.67 -635.371 1096.34C-620.907 672.01 -915.098 827.167 -915.098 827.167Z" fill="url(#paint0_linear_131_5)"/>
    <defs>
        <linearGradient id="paint0_linear_131_5" x1="862.017" y1="207.236" x2="1225.46" y2="1331.55" gradientUnits="userSpaceOnUse">
            <stop stop-color="#202475"/>
            <stop offset="1" stop-color="#1E2265"/>
        </linearGradient>
    </defs>
</svg>
