<svg width="1920" height="2051" viewBox="0 0 1920 2051" fill="none" xmlns="http://www.w3.org/2000/svg">
    <path opacity="0.6" d="M5622.23 864.377C5622.23 864.377 5499.35 831.374 5457.92 870.21C5457.92 870.21 5342.75 798.378 5249.01 859.616C5165.56 766.389 4756.64 769.529 4811.78 902.591C4811.78 902.591 4737.08 867.947 4691.24 893.415C4663.28 862.329 4487.63 822.574 4475.77 882.322C4328.42 802.733 4124.41 834.502 4049.72 902.499C3908.83 857.507 3829.62 914.703 3829.62 914.703C3829.62 914.703 3679.19 850.645 3493.2 894.404C3307.61 938.193 3469.38 1047.84 3469.38 1047.84C3469.38 1047.84 3397.77 997.664 3251.32 1049.74C3251.32 1049.74 3149.83 944.684 3042.05 1007.43C2964.63 917.394 2583.54 883.077 2453.75 1023.14C2453.75 1023.14 2289.79 958.048 2255.28 1029.1C2147.61 955.109 1728.78 938.993 1758.79 1062.42C1758.79 1062.42 1469.12 1014.15 1467.62 1124.4C1467.62 1124.4 1352.21 1089.39 1333.04 1116.73C1043.91 963.117 802.569 1115.76 802.569 1115.76C802.569 1115.76 755.175 1046.35 599.859 1073.95C497.565 937.295 42.2909 968.439 5.08529 1086.59C5.08529 1086.59 -136.346 1044.29 -155.247 1105.92C-230.477 1073.97 -377.43 1025.94 -459.594 1095.94C-497.047 1045.63 -685.515 965.646 -884.84 1045.07C-884.84 1045.07 -919.742 981.923 -1139.21 988.866C-1049.6 948.389 -1154.57 827.3 -1334.36 839.838C-1169.79 765.651 -1452.86 615.078 -1745.13 713.973C-1745.13 713.973 -1783.38 632.069 -1959.32 660.827C-1870.06 588.63 -2054.11 522.012 -2179.93 572.925C-2179.93 572.925 -2203.25 518.542 -2342.49 534.328C-2353.71 454.642 -2515.46 479.01 -2515.46 479.01C-2515.46 479.01 -2567.37 398.802 -2716.13 426.894C-2627.91 359.927 -2780.52 340.426 -2780.52 340.426C-2769.08 146.633 -3324.06 130.772 -3410.32 221.377C-3410.32 221.377 -3451.93 191.987 -3523.26 207.471C-3503.56 177.438 -3580.09 116.431 -3649.62 158.437C-3660.31 76.0576 -4080.83 -0.677435 -4258.67 106.767C-4258.67 106.767 -4314.58 44.5945 -4408.71 74.2706C-4514.59 -44.3135 -4861.41 -10.2224 -4891.55 105.891C-4891.55 105.891 -4907.01 81.0642 -4945.76 104.338C-5034.27 74.2731 -5099.39 77.3597 -5144.99 91.1027L-5364.08 1193.99C-5312.17 1196.65 -5250.36 1197.66 -5200.81 1193.38C-5103.83 1185 -5075.41 1201.16 -4985.69 1206.22C-4895.96 1211.28 -4872.37 1207.77 -4780.27 1221.86C-4687.77 1235.98 -4366.57 1263.8 -4149.75 1268.08C-3932.92 1272.36 -3658.15 1305.5 -3515.06 1316.39C-3371.96 1327.29 -2930.95 1367.94 -2635.75 1390.41C-2340.95 1412.85 -1436.7 1486.99 -753.815 1544.12C-70.963 1601.41 243.921 1625.37 1141.74 1696.29C2039.56 1767.21 2574.31 1815.8 2895.12 1845.53C3215.94 1875.26 3719.65 1908.29 4068.66 1932.28C4401.67 1955.06 5166.11 1989.28 5874.47 2050.11L6102.89 900.321C6079.58 894.042 6055.51 889.475 6032.14 887.696C6078.78 791.18 5623.27 756.506 5622.23 864.377Z" fill="#1E2267"/>
    <path d="M2080.93 1052.68C2080.93 1052.68 2050.65 1043.84 2042.77 1059.54C2042.77 1059.54 2012.5 1035.96 1993.42 1061.52C1969.58 1029.04 1874.09 1041.85 1893.17 1090.03C1893.17 1090.03 1874.09 1079.21 1864.55 1090.03C1856.57 1079.21 1813.65 1069.34 1813.65 1092.02C1775.49 1066.45 1729.26 1084.14 1714.95 1111.69C1679.91 1098.88 1664.05 1122.52 1664.05 1122.52C1664.05 1122.52 1625.89 1102.85 1584.43 1124.5C1543.06 1146.16 1585.99 1182.55 1585.99 1182.55C1585.99 1182.55 1566.91 1165.83 1535.08 1189.47C1535.08 1189.47 1506.47 1153.07 1484.18 1179.6C1461.89 1148.14 1371.17 1146.16 1347.33 1202.22C1347.33 1202.22 1305.96 1182.55 1301.19 1210.1C1272.57 1185.5 1173.88 1191.39 1186.63 1236.69C1186.63 1236.69 1116.65 1226.88 1121.41 1268.15C1121.41 1268.15 1092.8 1258.34 1089.59 1269.11C1014.84 1219.9 965.487 1283.85 965.487 1283.85C965.487 1283.85 951.179 1259.24 916.139 1273.98C885.869 1225.8 780.846 1250.4 777.634 1295.64C777.634 1295.64 742.594 1283.85 741.037 1307.43C721.96 1297.62 685.362 1283.85 669.4 1312.36C658.304 1294.61 610.513 1270.07 567.589 1305.44C567.589 1305.44 556.493 1282.82 505.491 1291.67C524.568 1273.98 494.394 1231.69 452.931 1241.5C487.97 1209.08 414.776 1160.83 351.023 1206.13C351.023 1206.13 338.272 1176.59 298.463 1192.35C315.983 1162.82 269.847 1143.15 242.788 1165.77C242.788 1165.77 234.807 1146.1 202.979 1155.96C196.652 1126.49 159.958 1140.2 159.958 1140.2C159.958 1140.2 144.092 1111.69 110.61 1126.43C128.13 1098.88 91.5325 1095.93 91.5325 1095.93C85.2059 1023.14 -45.318 1033.01 -61.2806 1069.34C-61.2806 1069.34 -72.3766 1059.54 -88.3392 1067.36C-85.1272 1055.56 -105.859 1034.93 -120.167 1052.62C-126.494 1022.12 -228.402 1005.4 -264.999 1050.63C-264.999 1050.63 -280.962 1028.98 -301.596 1042.75C-331.867 1001.43 -411.388 1024.04 -413.043 1068.32C-413.043 1068.32 -417.812 1059.47 -425.793 1069.28C-447.888 1060.56 -462.975 1063.57 -473 1070V1488.61C-460.736 1488.13 -446.233 1486.74 -434.845 1483.74C-412.556 1477.84 -405.159 1483.07 -383.94 1482.41C-362.721 1481.75 -357.368 1479.77 -335.176 1482.41C-312.887 1485.06 -236.48 1486.32 -185.575 1481.75C-134.67 1477.18 -68.8726 1481.75 -34.9033 1481.75C-0.93404 1481.75 104.088 1484.4 174.168 1484.4C244.151 1484.4 459.063 1486.38 621.414 1488.31C783.766 1490.29 858.518 1490.29 1071.77 1491.25C1285.03 1492.22 1412.34 1495.16 1488.75 1497.15C1565.16 1499.13 1684.49 1497.15 1767.22 1496.19C1846.16 1495.22 2026.52 1486.26 2195 1488.85V1052.44C2189.26 1050.75 2183.42 1049.73 2177.87 1049.73C2184.29 1012.31 2076.16 1012.31 2080.93 1052.68Z" fill="#1E2267"/>
</svg>
