<svg width="1920" height="855" viewBox="0 0 1920 855" fill="none" xmlns="http://www.w3.org/2000/svg">
    <path opacity="0.6"
          d="M2547.85 59.8306C2596.8 49.1712 2648.29 38.8305 2701.05 28.6271L2698.08 0.55583C2615.14 21.7802 2537.66 42.8715 2454.46 64.1103C2371.34 85.3116 2277.31 107.841 2156.36 128.534C2037.09 148.934 1900.3 165.352 1766.84 175.043C1607.2 186.623 1489.47 187.298 1373.17 186.659C1251.9 186.003 1128.92 186.402 955.069 201.785C752.102 219.739 566.167 249.95 399.585 279.286C140.47 324.923 -130.783 374.56 -452.799 406.102C-690.365 429.376 -891.325 435.564 -1050.41 433.049C-1234.79 430.13 -1374.22 418.211 -1511.91 406.608C-1582.9 400.619 -1653.1 394.488 -1728.4 389.228C-1801.9 384.107 -1877.86 378.717 -1977.9 378.78C-2237.71 378.953 -2624.24 409.889 -2956.63 454.515L-2955.3 467.046C-2949.01 466.336 -2942.64 465.632 -2936.31 464.931C-2781.72 448.105 -2625.41 435.386 -2477.18 426.181C-2304.8 415.46 -2134.43 409.073 -2003.3 413.29C-1885.16 417.078 -1785.35 429.483 -1819.95 457.262C-1851.43 482.559 -1980.17 512.387 -2131.85 532.953C-2221.34 545.085 -2311.24 553.63 -2396.56 557.613C-2485.96 561.799 -2565.22 562.184 -2646.1 563.257C-2685.74 563.787 -2726.2 564.217 -2769.22 565.967C-2818.28 567.956 -2868.77 570.542 -2920.62 573.916C-2928.31 574.416 -2936.07 574.952 -2943.81 575.487L-2914.25 854.227C-2903.06 853.413 -2891.71 852.511 -2880.21 851.578C-2711.49 837.673 -2547.74 813.675 -2418.36 787.84C-2302.31 764.667 -2210.99 740.702 -2113.64 717.489C-2022.72 695.805 -1925.64 673.841 -1807.82 652.605C-1653.99 624.879 -1472.23 598.125 -1294.04 574.173C-1110 549.444 -919.877 526.423 -729.59 506.011C-560.657 487.892 -394.186 472.245 -230.229 459.807C-75.1063 448.032 74.6018 438.756 223.45 429.757C520.475 411.772 825.006 393.308 1150.04 357.125C1479.99 320.423 1773.56 272.839 2045.3 224.298C2259.3 186.073 2468.36 145.558 2709.68 109.974L2707.62 90.5599C2694.65 92.2513 2681.65 93.9316 2668.56 95.5784C2613.55 102.518 2555.79 109.433 2500.5 113.834C2461.1 116.966 2419.27 118.919 2399.89 115.593C2343 105.855 2472.83 76.1827 2547.85 59.8306ZM-2077.13 642.577C-2092.28 659.899 -2177.76 681.336 -2271.25 698.629C-2366.61 716.277 -2487.26 733.408 -2595.97 740.618C-2694.54 747.17 -2773.72 742.938 -2782.07 729.286C-2801.4 723.873 -2797.63 715.308 -2768.19 704.55C-2721.74 687.583 -2636.39 669.876 -2548.65 655.404C-2449.5 639.046 -2327.26 623.498 -2226.1 619.743C-2126.89 616.067 -2062.11 625.413 -2077.13 642.577ZM-1278.48 510.898C-1326.71 520.018 -1401.88 528.478 -1450.14 528.889C-1485.73 529.177 -1501.54 524.912 -1498.08 518.561C-1497.44 517.431 -1496.25 516.228 -1494.46 514.962C-1502.92 510.406 -1494.55 503.964 -1460.45 496.587C-1419.15 487.643 -1358.82 480.168 -1309.28 477.411C-1255.77 474.434 -1210.94 476.265 -1207.73 484.278C-1204.79 491.573 -1232.18 502.141 -1278.48 510.898ZM1128.84 301.581C1012.11 330.623 842.789 358.973 691.982 373.432C554.546 386.603 397.526 395.765 307.624 389.399C265.245 386.403 241.032 379.728 245.583 369.63C250.451 358.881 279.888 346.129 324.18 333.495C417.734 306.81 564.325 281.13 709.641 261.269C883.382 237.503 1226.97 204.634 1267.17 232.891C1292.21 250.513 1230.46 276.309 1128.84 301.581ZM1534.28 283.737C1486.61 296.17 1415.66 308.718 1343.98 316.248C1282.64 322.697 1206.61 326.599 1189.66 318.968C1177.45 313.461 1196.91 304.163 1231.62 294.842C1237 292.707 1243.33 290.6 1250.84 288.555C1294.79 276.632 1374.46 265.483 1440.1 258.737C1493.61 253.234 1560.86 248.642 1579.98 254.808C1599.74 261.122 1574.36 273.301 1534.28 283.737Z"
          fill="#1E2267"/>
</svg>