<svg width="1920" height="598" viewBox="0 0 1920 598" fill="none" xmlns="http://www.w3.org/2000/svg">
<g style="mix-blend-mode:soft-light" opacity="0.015">
<path fill-rule="evenodd" clip-rule="evenodd" d="M0 435.408V317.112C190.846 466.526 447.096 437.719 685.969 348.459C789.82 309.652 893.185 260.403 996.494 211.18C1146.04 139.927 1295.47 68.7306 1446.08 29.3496C1609.09 -13.2732 1779.22 -12.0486 1920 61.0415V356.221C1785.55 284.273 1627.13 275.263 1471.58 302.508C1321.17 328.851 1170.49 385.908 1019.76 442.988C950.683 469.148 881.59 495.313 812.503 518.528C592.67 592.397 365.264 635.716 167.425 552.886C106.708 527.462 52.0221 485.085 0 435.408Z" fill="white"/>
</g>
</svg>
