<svg width="9" height="17" viewBox="0 0 9 17" fill="none" xmlns="http://www.w3.org/2000/svg">
<g clip-path="url(#clip0_229_5569)">
<path d="M0.495507 15.1775C0.494984 14.9174 0.588238 14.6654 0.759081 14.4651L5.89307 8.49894L0.942439 2.52162C0.847248 2.40776 0.776161 2.27675 0.733265 2.13613C0.690369 1.9955 0.676509 1.84802 0.692483 1.70218C0.708457 1.55633 0.753949 1.41499 0.826345 1.28627C0.898741 1.15756 0.996613 1.04401 1.11434 0.952153C1.23156 0.859693 1.36643 0.790646 1.51121 0.748981C1.656 0.707316 1.80783 0.693855 1.95799 0.70937C2.10814 0.724886 2.25366 0.769073 2.38618 0.839391C2.51869 0.90971 2.6356 1.00477 2.73017 1.11912L8.26524 7.79769C8.4338 7.99686 8.52594 8.24668 8.52594 8.5045C8.52594 8.76232 8.4338 9.01215 8.26524 9.21132L2.53535 15.8899C2.43914 16.0026 2.32099 16.0958 2.18766 16.1641C2.05433 16.2323 1.90844 16.2744 1.75834 16.2879C1.60825 16.3013 1.45689 16.2859 1.31296 16.2424C1.16902 16.1989 1.03532 16.1283 0.919519 16.0346C0.78806 15.931 0.681857 15.8004 0.608543 15.6522C0.53523 15.504 0.496626 15.3419 0.495507 15.1775Z" fill="white"/>
</g>
<defs>
<clipPath id="clip0_229_5569">
<rect width="17" height="9" fill="white" transform="translate(8.99994) rotate(90)"/>
</clipPath>
</defs>
</svg>
