<svg width="9" height="17" viewBox="0 0 9 17" fill="none" xmlns="http://www.w3.org/2000/svg">
<g clip-path="url(#clip0_229_5573)">
<path d="M8.50437 1.82249C8.5049 2.08257 8.41164 2.33461 8.2408 2.53487L3.10681 8.50106L8.05744 14.4784C8.15263 14.5922 8.22372 14.7232 8.26661 14.8639C8.30951 15.0045 8.32337 15.152 8.30739 15.2978C8.29142 15.4437 8.24593 15.585 8.17353 15.7137C8.10114 15.8424 8.00326 15.956 7.88554 16.0478C7.76832 16.1403 7.63345 16.2094 7.48866 16.251C7.34388 16.2927 7.19205 16.3061 7.04189 16.2906C6.89174 16.2751 6.74622 16.2309 6.6137 16.1606C6.48118 16.0903 6.36428 15.9952 6.26971 15.8809L0.734635 9.20231C0.566083 9.00314 0.473939 8.75332 0.473939 8.4955C0.473939 8.23768 0.566083 7.98785 0.734636 7.78868L6.46453 1.11011C6.56073 0.997403 6.67888 0.904234 6.81222 0.835943C6.94555 0.767652 7.09144 0.725581 7.24154 0.712139C7.39163 0.698698 7.54299 0.71415 7.68692 0.757611C7.83086 0.801071 7.96456 0.871685 8.08036 0.96541C8.21182 1.06899 8.31802 1.19957 8.39134 1.34776C8.46465 1.49595 8.50325 1.65808 8.50437 1.82249Z" fill="white"/>
</g>
<defs>
<clipPath id="clip0_229_5573">
<rect width="17" height="9" fill="white" transform="translate(-6.10352e-05 17) rotate(-90)"/>
</clipPath>
</defs>
</svg>
