<svg width="1920" height="664" viewBox="0 0 1920 664" fill="none" xmlns="http://www.w3.org/2000/svg">
<g clip-path="url(#clip0_9_5904)">
<path d="M1736.52 28.8175C1737 28.6343 1738.69 26.9416 1739.19 26.7938C1811.87 52.32 1833.03 -243.622 1897 -296C2034.83 -408.851 2187.5 -361 2187.5 -361L1811.63 1200.59L586.173 720.48L551.696 523.776C563.972 519.577 577.524 524.06 586.173 534.212C613.6 526.791 643.76 542.924 655.26 572.129C658.086 579.274 659.482 586.592 659.691 593.729C664.828 596.144 669.199 600.577 671.515 606.458C674.332 613.629 673.472 621.183 669.829 626.824C671.436 629.204 672.828 631.773 673.935 634.564C677.002 642.379 677.423 650.44 675.67 657.739C682.726 656.547 689.957 658.084 696.181 661.73C714.275 656.051 733.727 660.432 748.792 672.069C752.214 666.38 757.353 661.821 763.899 659.365C776.519 654.612 790.622 658.966 799.776 669.207C800.685 668.734 801.595 668.262 802.584 667.905C812.763 664.084 824.244 668.106 831.025 677.047C836.588 670.173 843.902 664.675 852.648 661.379C874.735 653.054 899.479 661.107 915.049 679.545C927.543 680.081 939.519 688.468 944.703 701.626C945.714 704.179 946.362 706.75 946.769 709.326C947.045 709.217 947.331 709.083 947.607 708.974C971.608 699.943 999.319 713.636 1009.53 739.547C1009.96 740.633 1010.28 741.744 1010.64 742.837C1010.68 742.82 1010.72 742.778 1010.78 742.77C1016.85 740.498 1023.45 741.461 1028.87 744.855C1033.88 737.348 1041.03 731.383 1049.94 728.028C1058.9 724.631 1068.39 724.407 1077.32 726.713C1084.02 718.452 1092.81 711.887 1103.34 707.925C1132.01 697.102 1164.43 709.075 1182.77 734.989C1185.64 728.431 1190.84 723.101 1197.83 720.479C1204.3 718.058 1211.24 718.318 1217.47 720.737C1221.88 693.293 1239.24 669.655 1265.71 659.7C1275.37 656.079 1285.38 654.604 1295.27 655.019C1294.97 643.806 1301.06 633.482 1311.44 629.587C1317.44 627.323 1323.84 627.599 1329.62 629.86C1335.21 623.259 1342.37 617.942 1350.94 614.729C1371.33 607.072 1393.9 613.013 1409.82 628.085C1417.25 626.059 1425.06 627.301 1431.76 631.052C1435.78 626.453 1440.86 622.75 1446.9 620.469C1453.24 618.089 1459.92 617.529 1466.36 618.524C1470.39 589.601 1487.97 564.398 1515.11 553.037L1515.07 552.966C1507.12 532.83 1515.81 510.842 1534.43 503.825C1544.96 499.862 1556.46 501.545 1565.86 507.418C1571.58 502.213 1578.36 497.992 1586.01 495.103C1602.09 489.043 1619.28 489.936 1634.68 496.296C1637.48 486.608 1643.24 478.135 1651.29 472.248C1649.39 468.916 1647.71 465.395 1646.26 461.721C1631.89 425.239 1646.3 385.533 1678.47 370.512C1679.09 352.851 1688.34 336.807 1703.77 328.963C1705.28 318.881 1711.57 310.182 1721.24 306.536C1725.29 305.022 1729.46 304.579 1733.57 304.993C1733.53 293.487 1739.95 282.959 1750.68 278.922C1751.09 278.773 1751.52 278.659 1751.96 278.518C1748.38 273.689 1745.3 268.275 1742.97 262.358C1729.71 228.754 1744.19 192.002 1775.32 180.282C1775.84 180.082 1776.38 179.979 1776.93 179.788C1774.58 176.797 1772.63 173.447 1771.16 169.737C1765.79 156.163 1768.51 141.698 1776.88 132.146C1771.94 126.808 1767.83 120.418 1764.98 113.176C1761.95 105.519 1760.68 97.6867 1760.83 90.119L1760.68 90.1863C1745.01 96.0969 1726.89 87.1419 1720.2 70.203C1713.52 53.2381 1720.84 34.7281 1736.52 28.8175Z" fill="white"/>
<path d="M581.141 764.729C581.038 764.367 579.838 763.147 579.71 762.799C575.564 751.44 562.399 746.25 550.275 751.23C538.17 756.216 531.708 769.459 535.854 780.817C535.866 780.843 535.878 780.869 535.902 780.921C530.507 780.865 524.918 781.849 519.446 784.11C514.271 786.236 509.697 789.266 505.87 792.902C499.097 786.878 488.796 785.007 479.095 789.007C476.445 790.102 474.047 791.546 471.905 793.274C471.771 792.88 471.7 792.487 471.56 792.112C463.338 769.55 437.2 759.28 413.186 769.169C408.957 770.908 405.084 773.183 401.626 775.82C401.527 775.504 401.448 775.194 401.343 774.897C398.511 767.12 391.033 762.522 382.83 762.639C383.144 759.645 382.846 756.613 381.783 753.682C379.226 746.674 373.051 742.16 365.87 741.135C360.345 729.969 348.946 723.355 336.358 723.031C325.788 699.737 297.543 689.538 271.472 700.251C268.846 701.333 266.329 702.583 263.945 703.988C259.783 698.178 253.768 694.045 246.873 692.079C251.473 680.836 252.184 668.325 247.933 656.67C245.906 651.126 242.926 646.227 239.24 642.101C243.468 635.22 244.717 626.845 241.937 619.217C237.015 605.722 221.377 599.563 206.987 605.49C206.962 605.503 206.962 605.503 206.936 605.515C198.954 585.857 181.062 573.25 160.459 570.527C161.196 565.837 160.826 560.978 159.156 556.383C157.556 552.007 154.938 548.34 151.677 545.448C154.38 540.552 155.299 534.862 153.887 529.467C164.7 517.782 169.033 501.325 163.662 486.546C161.409 480.338 157.649 475.167 152.967 471.151C154.604 466.925 154.828 462.273 153.24 457.924C150.508 450.398 143.174 446.045 135.179 446.343C135.517 439.149 134.509 431.877 131.969 424.874C124.986 405.693 108.209 393.236 88.6622 390.23C90.4139 385.675 90.6292 380.63 88.9308 375.938C87.092 370.872 83.3148 367.127 78.6512 365.092C97.2054 351.567 105.881 327.899 98.2886 307.118C95.5093 299.489 90.8675 293.144 85.0066 288.327C86.6892 281.817 86.5705 274.92 84.1871 268.427C81.834 261.967 77.6118 256.809 72.2819 253.218C74.7244 249.251 75.4396 244.445 73.8461 240.05C73.841 240.005 73.8105 239.972 73.7987 239.947C74.5799 239.676 75.3731 239.431 76.1493 239.116C94.6661 231.501 104.547 211.247 98.2122 193.854C98.1361 193.654 98.0414 193.448 97.9653 193.248C99.8032 192.933 101.639 192.444 103.463 191.69C112.867 187.825 118.897 179.053 119.334 169.962C132.546 158.505 138.393 140.449 132.554 124.444C130.241 118.106 126.353 112.826 121.477 108.829C127.88 103.832 130.797 95.4525 128.117 88.0758C127.867 87.3595 127.534 86.7011 127.201 86.0428C134.541 79.3114 137.706 69.022 134.372 59.877C132.65 55.1334 129.421 51.4278 125.38 48.9797C133.741 37.9389 136.949 23.7588 132.978 10.6387C135.604 6.08514 136.731 0.814417 135.912 -4.30922C141.108 -3.08638 146.857 -3.45043 152.442 -5.73737C154.436 -6.56197 156.273 -7.59317 157.977 -8.77929C161.983 -6.16998 167.364 -5.59873 172.489 -7.69885C176.692 -9.42534 179.871 -12.6365 181.615 -16.3906C186.704 -16.5938 191.927 -17.6615 197.033 -19.7681C217.903 -28.3426 229.535 -50.3953 224.363 -70.291C231.638 -76.6547 234.892 -86.5439 231.952 -95.4435C239.515 -103.356 243.342 -114.109 241.819 -124.511C242.241 -124.646 242.663 -124.782 243.08 -124.962C246.361 -126.315 249.016 -128.558 250.871 -131.254C258.712 -128.655 267.759 -128.804 276.48 -132.386C282.772 -134.97 288.059 -139.031 292.074 -143.926C295.605 -141.33 300.553 -140.649 305.224 -142.582C305.463 -142.672 305.673 -142.794 305.894 -142.891C312.192 -137.596 321.502 -136.048 330.3 -139.668C342.884 -144.835 349.597 -158.619 345.294 -170.423C345.17 -170.726 345.04 -171.01 344.898 -171.32C350.288 -171.31 355.86 -172.365 361.3 -174.594C376.535 -180.856 386.602 -194.644 388.304 -209.283C392.367 -207.977 397.041 -208.064 401.535 -209.907C405.012 -211.343 407.912 -213.632 410.036 -216.386C413.4 -214.803 417.02 -213.717 420.816 -213.198C420.962 -212.54 421.151 -211.888 421.378 -211.223C424.741 -201.981 435.458 -197.774 445.296 -201.813C445.909 -202.077 446.503 -202.348 447.085 -202.644C450.469 -201.119 461.145 -200.267 465.108 -200.645C467.375 -200.876 -153.5 -213.198 -153.5 -213.198L-256 825.838L471.709 1079.13C471.709 1079.13 522.745 932.082 581.141 764.729Z" fill="white"/>
</g>
<defs>
<clipPath id="clip0_9_5904">
<rect width="1920" height="664" fill="white"/>
</clipPath>
</defs>
</svg>
