<svg width="327" height="327" viewBox="0 0 327 327" fill="none" xmlns="http://www.w3.org/2000/svg">
<g filter="url(#filter0_d_2_5830)">
<path d="M245.25 245.25C290.399 200.101 290.399 126.899 245.25 81.75C200.101 36.6007 126.899 36.6007 81.75 81.75C36.6007 126.899 36.6007 200.101 81.75 245.25C126.899 290.399 200.101 290.399 245.25 245.25Z" fill="url(#paint0_linear_2_5830)"/>
</g>
<g style="mix-blend-mode:multiply" opacity="0.3">
<path d="M155.067 155.757C172.912 167.496 199.363 159.871 215.705 173.713C222.413 179.424 226.067 187.856 229.532 195.956C232.996 204.056 236.73 212.472 243.516 218.104C248.863 222.518 256.726 224.558 263.038 222.375C276.109 200.318 281.443 174.529 278.194 149.097C277.803 145.933 277.276 142.827 276.612 139.779C274.207 138.939 271.728 138.33 269.208 137.96C259.858 136.536 249.987 137.122 241.333 133.309C221.4 124.497 217.018 97.3502 199.901 83.8242C195.867 80.6602 190.741 78.2239 185.663 79.0782C180.585 79.9325 176.171 85.2638 177.753 90.1522C179.43 95.4835 186.248 97.113 189.729 101.463C195.645 108.836 187.988 121.096 178.544 121.507C169.099 121.919 161 113.882 157.978 104.928C154.956 95.9739 155.732 86.2445 156.159 76.7842C156.586 67.3239 156.491 57.4048 151.982 49.0993C151.886 48.9147 151.781 48.7352 151.666 48.5615C150.801 48.6353 149.931 48.7304 149.056 48.8464C133.149 50.8319 117.834 56.1235 104.095 64.3815C111.538 67.4547 117.882 72.6971 122.304 79.4262C129.993 91.2912 131.796 105.861 134.96 119.656C138.124 133.451 143.25 147.847 155.067 155.757ZM226.7 260.39C226.396 256.644 225.532 252.965 224.137 249.475C221.672 243.524 217.773 238.275 212.789 234.195C207.804 230.115 201.887 227.332 195.566 226.093C178.781 222.929 159.592 230.839 145.306 221.347C135.624 215.019 131.796 202.679 130.641 191.162C129.486 179.645 130.277 167.781 126.734 156.754C124.341 149.217 120.02 142.435 114.201 137.08C108.381 131.726 101.263 127.984 93.5532 126.226C85.8428 124.468 77.8069 124.754 70.2412 127.057C62.6755 129.359 55.8424 133.597 50.4184 139.352C48.3295 149.109 47.5264 159.097 48.0296 169.062C50.38 166.804 53.1705 165.054 56.2271 163.921C59.2837 162.789 62.5408 162.299 65.7953 162.481C70.4379 162.789 74.9044 164.377 78.6994 167.069C82.4944 169.761 85.4693 173.451 87.2945 177.731C92.9106 191.463 86.1556 209.672 96.3278 220.445C103.083 227.627 114.188 227.817 124.044 228.086C133.9 228.355 145.322 230.111 150.274 238.638C152.001 241.612 152.683 245.078 152.212 248.485C151.742 251.892 150.145 255.043 147.676 257.437C145.207 259.831 142.008 261.331 138.589 261.697C135.169 262.063 131.726 261.274 128.806 259.457C122.272 255.376 119.124 246.69 111.895 244.017C104.665 241.343 96.2328 246.58 93.67 253.809C93.496 254.284 93.3536 254.758 93.227 255.233C112.223 269.769 135.259 278.06 159.162 278.964C183.065 279.868 206.66 273.34 226.7 260.28V260.39Z" fill="#7355A7"/>
</g>
<path style="mix-blend-mode:screen" d="M254.866 152.705C267.354 144.377 266.572 121.273 253.12 101.102C239.667 80.9312 218.638 71.3309 206.151 79.6593C193.663 87.9877 194.444 111.091 207.897 131.262C221.349 151.433 242.378 161.034 254.866 152.705Z" fill="url(#paint1_linear_2_5830)"/>
<defs>
<filter id="filter0_d_2_5830" x="25.8879" y="25.8882" width="275.224" height="275.224" filterUnits="userSpaceOnUse" color-interpolation-filters="sRGB">
<feFlood flood-opacity="0" result="BackgroundImageFix"/>
<feColorMatrix in="SourceAlpha" type="matrix" values="0 0 0 0 0 0 0 0 0 0 0 0 0 0 0 0 0 0 127 0" result="hardAlpha"/>
<feOffset/>
<feGaussianBlur stdDeviation="11"/>
<feComposite in2="hardAlpha" operator="out"/>
<feColorMatrix type="matrix" values="0 0 0 0 1 0 0 0 0 0.419608 0 0 0 0 0 0 0 0 0.4 0"/>
<feBlend mode="normal" in2="BackgroundImageFix" result="effect1_dropShadow_2_5830"/>
<feBlend mode="normal" in="SourceGraphic" in2="effect1_dropShadow_2_5830" result="shape"/>
</filter>
<linearGradient id="paint0_linear_2_5830" x1="76.9209" y1="86.5791" x2="240.421" y2="250.079" gradientUnits="userSpaceOnUse">
<stop stop-color="#FF9649"/>
<stop offset="1" stop-color="#FF5C00"/>
</linearGradient>
<linearGradient id="paint1_linear_2_5830" x1="263.524" y1="77.6512" x2="212.481" y2="121.02" gradientUnits="userSpaceOnUse">
<stop stop-color="#4D6321"/>
<stop offset="0.62" stop-color="#1B220B"/>
<stop offset="1"/>
</linearGradient>
</defs>
</svg>
