<svg width="857" height="849" viewBox="0 0 857 849" fill="none" xmlns="http://www.w3.org/2000/svg">
<path d="M657.531 387.513L553.072 784.021C557.179 771.706 313.291 774.059 359.939 682.759C329.528 653.926 358.808 643.992 358.539 643.807C336.334 628.695 332.047 599.516 346.147 584.152C355.691 573.754 367.706 570.423 380.532 573.412C370.437 559.023 388.911 542.459 400.911 548.979C357.385 457.486 443.137 440.934 449.17 438.511C447.999 313.973 296.313 213.557 296.313 213.557L292.684 181.902C365.888 157.174 550.364 172.31 550.364 172.31L657.531 387.513Z" fill="url(#paint0_linear_4_5834)"/>
<path d="M657.53 387.513L389.63 679.414C386.181 671.107 386.025 661.799 389.192 653.382C392.36 644.964 398.613 638.068 406.683 634.096C401.415 627.226 398.112 619.055 397.126 610.454C396.14 601.854 397.509 593.147 401.085 585.263C404.662 577.379 410.312 570.615 417.433 565.692C424.554 560.769 432.878 557.873 441.517 557.312C441.553 551.168 443.259 545.151 446.45 539.902C442.434 533.12 440.966 525.129 442.309 517.363C443.653 509.597 447.72 502.564 453.781 497.525C451.178 493.273 449.669 488.443 449.387 483.466C449.104 478.489 450.059 473.52 452.164 469.001C454.269 464.482 457.46 460.555 461.452 457.569C465.443 454.583 470.112 452.631 475.041 451.888C458.09 294.83 306.902 220.625 296.32 213.548L292.691 181.893C364.859 164.494 475.251 220.221 475.251 220.221L657.53 387.513Z" fill="url(#paint1_linear_4_5834)"/>
<path d="M443.372 577.851C451.684 568.769 463.19 563.258 475.476 562.474C475.515 556.33 477.221 550.312 480.412 545.062C476.395 538.281 474.927 530.29 476.27 522.524C477.613 514.759 481.68 507.726 487.74 502.687C485.137 498.435 483.628 493.605 483.345 488.628C483.063 483.65 484.017 478.68 486.123 474.161C488.228 469.642 491.419 465.714 495.412 462.728C499.404 459.742 504.073 457.791 509.003 457.048C514.498 349.171 436.55 283.306 403.488 255.191L521.804 325.902C476.151 260.172 363.487 205.011 363.487 205.011C458.944 226.293 511.895 253.852 511.895 253.852L657.531 387.513L435.053 629.924C431.18 621.385 429.903 611.895 431.382 602.636C432.862 593.378 437.031 584.758 443.372 577.851V577.851Z" fill="url(#paint2_linear_4_5834)"/>
<path d="M253.627 166.983C257.618 163.028 257.988 160.488 260.47 152.788C262.952 145.087 273.679 141.599 273.679 141.599L277.79 177.44L231.74 176.336C231.74 176.336 247.248 173.307 253.627 166.983Z" fill="#1D83F0"/>
<path d="M253.627 166.983C257.618 163.028 257.988 160.488 260.47 152.788C262.952 145.087 273.679 141.599 273.679 141.599L277.79 177.44L231.74 176.336C231.74 176.336 247.248 173.307 253.627 166.983Z" fill="#FF043E"/>
<path d="M277.159 171.935L277.79 177.438L231.741 176.334C231.741 176.334 258.239 171.548 277.159 171.935Z" fill="#C9002F"/>
<path d="M266.763 148.188C268.575 146.803 270.969 145.626 274.028 144.621L274.162 145.811C268.075 147.842 264.86 150.531 263.547 154.605C263.2 155.681 262.893 156.671 262.613 157.557C260.799 163.334 259.973 165.969 256.272 169.637C254.277 171.615 249.209 174.535 244.111 176.625L240.98 176.55C246.702 174.565 253.239 170.99 255.445 168.803C258.943 165.336 259.679 162.945 261.488 157.21C261.768 156.324 262.076 155.324 262.418 154.254C263.192 151.826 264.713 149.703 266.763 148.188V148.188Z" fill="#85001F"/>
<path d="M261.644 236.904C266.423 239.851 267.36 242.242 271.52 249.183C275.68 256.124 286.92 257.09 286.92 257.09L282.812 221.251L238.204 232.748C238.204 232.748 253.998 232.188 261.644 236.904Z" fill="#1D83F0"/>
<path d="M261.644 236.904C266.423 239.851 267.36 242.242 271.52 249.183C275.68 256.124 286.92 257.09 286.92 257.09L282.812 221.251L238.204 232.748C238.204 232.748 253.998 232.188 261.644 236.904Z" fill="#FF043E"/>
<path d="M283.443 226.751L282.812 221.251L238.204 232.748C238.204 232.748 265.1 231.412 283.443 226.751Z" fill="#C9002F"/>
<path d="M278.692 252.237C280.776 253.179 283.368 253.783 286.575 254.068L286.439 252.876C280.054 252.28 276.309 250.386 274.112 246.72C273.532 245.75 273.001 244.851 272.532 244.055C269.459 238.839 268.058 236.456 263.619 233.719C261.241 232.252 255.631 230.547 250.195 229.672L247.154 230.445C253.171 231.077 260.351 233.081 263.006 234.711C267.196 237.296 268.464 239.446 271.525 244.643C271.986 245.447 272.537 246.333 273.111 247.317C274.409 249.502 276.361 251.224 278.692 252.237V252.237Z" fill="#85001F"/>
<path d="M172.936 211.649C175.538 200.514 193.897 180.096 221.878 176.876C235.367 175.329 272.034 175.892 282.048 177.953L286.835 219.788C277.549 224.063 241.959 232.909 228.471 234.454C200.48 237.664 177.991 221.91 172.936 211.649Z" fill="white"/>
<path d="M207.053 207.739C208.059 216.275 208.204 224.89 207.485 233.455C189.723 229.669 176.631 219.188 172.919 211.668C174.823 203.513 185.214 190.332 201.659 182.626C204.294 190.795 206.101 199.209 207.053 207.739V207.739Z" fill="#FF043E"/>
<path d="M265.872 176.462L271.426 224.906C268.501 225.732 265.366 226.579 262.158 227.398L256.276 176.125C259.6 176.213 262.835 176.318 265.872 176.462Z" fill="#FF043E"/>
<path d="M275.5 177.1L280.656 222.109C279.246 222.574 277.7 223.06 276.046 223.56L270.672 176.733C272.404 176.842 274.02 176.965 275.5 177.1Z" fill="#FF043E"/>
<path d="M178.339 205.83C178.339 205.83 186.845 193.524 198.346 188.84C199.431 191.318 200.149 193.942 200.477 196.627C200.477 196.627 186.251 199.247 178.339 205.83Z" fill="#FF7A99"/>
<path opacity="0.3" d="M261.201 219.06C276.071 212.938 278.008 203.918 281.592 177.874L282.041 177.962L286.835 219.789C277.549 224.063 241.959 232.909 228.471 234.455C200.48 237.665 177.991 221.911 172.926 211.66C172.936 211.65 208.48 240.775 261.201 219.06Z" fill="#85001F"/>
<path d="M235.996 223.794C239.916 223.345 243.615 221.744 246.625 219.192C249.635 216.641 251.821 213.254 252.906 209.46C253.991 205.666 253.927 201.636 252.722 197.879C251.516 194.121 249.224 190.806 246.134 188.352C243.044 185.897 239.296 184.414 235.364 184.09C231.431 183.766 227.491 184.616 224.041 186.531C220.591 188.447 217.787 191.342 215.982 194.851C214.178 198.361 213.455 202.326 213.905 206.246C214.508 211.502 217.174 216.304 221.317 219.594C225.46 222.885 230.74 224.396 235.996 223.794V223.794Z" fill="#FF043E"/>
<path d="M217.989 208.219C218.382 208.173 218.752 208.013 219.054 207.757C219.356 207.501 219.575 207.161 219.684 206.781C219.792 206.4 219.786 205.996 219.665 205.619C219.544 205.243 219.314 204.91 219.004 204.664C218.694 204.418 218.318 204.27 217.924 204.237C217.53 204.205 217.135 204.29 216.789 204.482C216.443 204.674 216.162 204.964 215.981 205.316C215.8 205.668 215.727 206.066 215.772 206.459C215.834 206.985 216.102 207.466 216.517 207.796C216.933 208.126 217.461 208.278 217.989 208.219V208.219Z" fill="#85001F"/>
<path d="M249.915 203.701C250.308 203.656 250.679 203.496 250.981 203.24C251.283 202.985 251.503 202.645 251.612 202.265C251.721 201.885 251.715 201.481 251.594 201.104C251.473 200.727 251.244 200.394 250.934 200.148C250.625 199.902 250.249 199.753 249.855 199.72C249.46 199.687 249.065 199.772 248.719 199.963C248.373 200.155 248.091 200.445 247.91 200.797C247.729 201.149 247.656 201.546 247.701 201.939C247.73 202.2 247.811 202.453 247.939 202.683C248.066 202.913 248.237 203.115 248.443 203.279C248.649 203.443 248.884 203.564 249.137 203.637C249.39 203.709 249.654 203.731 249.915 203.701V203.701Z" fill="#85001F"/>
<path d="M237.965 219.709C237.922 219.314 237.763 218.942 237.507 218.638C237.252 218.335 236.912 218.114 236.531 218.004C236.15 217.894 235.745 217.9 235.367 218.021C234.989 218.142 234.656 218.372 234.409 218.683C234.163 218.994 234.014 219.371 233.982 219.766C233.951 220.161 234.037 220.557 234.231 220.904C234.425 221.25 234.717 221.53 235.07 221.71C235.424 221.89 235.823 221.96 236.217 221.913C236.74 221.85 237.217 221.583 237.545 221.171C237.872 220.758 238.024 220.232 237.965 219.709V219.709Z" fill="#85001F"/>
<path d="M233.453 187.782C233.408 187.389 233.248 187.018 232.992 186.716C232.736 186.414 232.397 186.194 232.017 186.085C231.636 185.976 231.232 185.982 230.855 186.103C230.478 186.224 230.146 186.453 229.899 186.763C229.653 187.072 229.504 187.448 229.471 187.842C229.438 188.237 229.523 188.632 229.715 188.978C229.907 189.324 230.197 189.606 230.548 189.787C230.9 189.968 231.298 190.041 231.691 189.996C231.952 189.967 232.205 189.886 232.434 189.758C232.664 189.631 232.867 189.46 233.031 189.254C233.194 189.048 233.316 188.813 233.388 188.56C233.461 188.307 233.482 188.043 233.453 187.782V187.782Z" fill="#85001F"/>
<path d="M225.607 218.096C225.853 217.786 226.002 217.411 226.034 217.016C226.067 216.622 225.981 216.227 225.789 215.881C225.597 215.535 225.306 215.254 224.955 215.073C224.603 214.892 224.205 214.819 223.812 214.865C223.419 214.91 223.048 215.071 222.746 215.327C222.444 215.583 222.225 215.922 222.116 216.303C222.008 216.683 222.014 217.088 222.135 217.464C222.257 217.841 222.487 218.173 222.797 218.419C223.002 218.583 223.238 218.704 223.491 218.777C223.743 218.849 224.008 218.871 224.269 218.841C224.53 218.811 224.782 218.73 225.012 218.602C225.242 218.474 225.444 218.302 225.607 218.096Z" fill="#85001F"/>
<path d="M244.984 192.333C245.23 192.023 245.378 191.647 245.411 191.253C245.444 190.859 245.358 190.464 245.166 190.118C244.974 189.772 244.684 189.491 244.333 189.31C243.981 189.129 243.583 189.056 243.19 189.101C242.797 189.146 242.426 189.306 242.124 189.562C241.822 189.817 241.603 190.157 241.494 190.537C241.385 190.917 241.391 191.322 241.512 191.698C241.632 192.075 241.862 192.408 242.171 192.654C242.587 192.984 243.117 193.135 243.644 193.075C244.171 193.015 244.653 192.748 244.984 192.333V192.333Z" fill="#85001F"/>
<path d="M247.855 212.098C247.545 211.852 247.169 211.703 246.774 211.671C246.38 211.638 245.985 211.724 245.639 211.916C245.293 212.108 245.012 212.398 244.831 212.75C244.65 213.102 244.578 213.5 244.623 213.893C244.668 214.286 244.829 214.657 245.085 214.959C245.341 215.261 245.681 215.48 246.061 215.589C246.442 215.697 246.846 215.691 247.223 215.569C247.599 215.448 247.932 215.218 248.178 214.908C248.341 214.703 248.463 214.467 248.535 214.214C248.607 213.962 248.629 213.697 248.599 213.436C248.569 213.175 248.488 212.923 248.36 212.693C248.232 212.463 248.061 212.261 247.855 212.098V212.098Z" fill="#85001F"/>
<path d="M222.081 192.717C221.771 192.471 221.395 192.322 221.001 192.29C220.606 192.257 220.211 192.343 219.865 192.535C219.519 192.727 219.238 193.017 219.057 193.369C218.876 193.721 218.804 194.119 218.849 194.512C218.894 194.905 219.055 195.276 219.311 195.578C219.567 195.88 219.907 196.099 220.287 196.208C220.668 196.316 221.072 196.31 221.449 196.188C221.825 196.067 222.158 195.837 222.404 195.527C222.733 195.112 222.885 194.582 222.824 194.055C222.764 193.528 222.496 193.047 222.081 192.717Z" fill="#85001F"/>
<path d="M235.135 216.263C237.566 215.985 239.86 214.992 241.726 213.409C243.593 211.827 244.948 209.727 245.621 207.375C246.294 205.022 246.255 202.523 245.507 200.193C244.76 197.863 243.338 195.807 241.422 194.285C239.506 192.763 237.182 191.843 234.743 191.642C232.304 191.441 229.861 191.968 227.721 193.156C225.582 194.344 223.843 196.139 222.724 198.316C221.606 200.492 221.157 202.951 221.436 205.382C221.81 208.641 223.463 211.619 226.032 213.659C228.601 215.7 231.875 216.637 235.135 216.263Z" fill="#459FFF"/>
<path d="M235.421 202.194C234.945 198.044 233.237 194.431 230.86 191.938C231.339 191.824 231.824 191.739 232.313 191.683C234.101 191.472 235.914 191.655 237.625 192.218C239.335 192.78 240.902 193.71 242.216 194.941C243.53 196.172 244.56 197.675 245.233 199.345C245.906 201.015 246.207 202.812 246.113 204.61C246.02 206.409 245.535 208.165 244.693 209.756C243.851 211.348 242.671 212.736 241.237 213.825C239.802 214.913 238.148 215.676 236.388 216.058C234.628 216.441 232.807 216.435 231.05 216.041C234.258 213.063 236.069 207.858 235.421 202.194Z" fill="#268FFF"/>
<path d="M224.437 207.427C225.962 207.994 226.358 204.62 227.636 201.178C228.914 197.735 231.164 195.629 229.636 195.064C228.109 194.5 224.779 196.278 223.5 199.716C222.222 203.155 222.913 206.863 224.437 207.427Z" fill="#96C9FF"/>
<path d="M235.408 215.135C237.463 215.685 242.214 213.285 244.551 207.568C246.228 203.471 244.085 197.315 242.028 196.768C239.971 196.22 241.112 201.944 239.975 206.221C238.838 210.498 233.351 214.588 235.408 215.135Z" fill="#1076E3"/>
<path d="M282.376 180.862C286.851 181.111 290.569 181.458 292.695 181.897L296.324 213.553C294.349 214.459 290.808 215.642 286.506 216.897L282.376 180.862Z" fill="#85001F"/>
<path d="M292.057 184.072C292.046 183.978 292.018 183.887 291.972 183.805C291.927 183.722 291.865 183.649 291.791 183.59C291.718 183.531 291.633 183.488 291.542 183.462C291.452 183.436 291.357 183.428 291.263 183.439L284.625 184.202C284.439 184.228 284.271 184.325 284.156 184.474C284.041 184.622 283.989 184.809 284.01 184.996C284.032 185.182 284.125 185.353 284.271 185.471C284.416 185.589 284.602 185.646 284.789 185.629L291.427 184.866C291.616 184.843 291.788 184.747 291.906 184.599C292.023 184.45 292.078 184.261 292.057 184.072V184.072Z" fill="#FF043E"/>
<path d="M293.116 193.325C293.095 193.136 292.999 192.963 292.851 192.844C292.702 192.726 292.512 192.671 292.323 192.692L285.687 193.457C285.589 193.462 285.493 193.488 285.406 193.531C285.318 193.575 285.24 193.636 285.177 193.711C285.114 193.786 285.066 193.872 285.038 193.966C285.01 194.06 285.001 194.158 285.012 194.256C285.023 194.353 285.054 194.447 285.103 194.532C285.151 194.617 285.217 194.691 285.295 194.75C285.374 194.808 285.463 194.85 285.558 194.873C285.654 194.896 285.753 194.899 285.849 194.882L292.487 194.119C292.581 194.108 292.671 194.08 292.754 194.034C292.836 193.988 292.909 193.927 292.967 193.853C293.026 193.779 293.069 193.695 293.095 193.604C293.12 193.514 293.128 193.419 293.116 193.325V193.325Z" fill="#FF043E"/>
<path d="M294.182 202.573C294.16 202.384 294.065 202.211 293.916 202.092C293.767 201.974 293.577 201.919 293.388 201.94L286.75 202.703C286.564 202.729 286.396 202.827 286.281 202.975C286.167 203.123 286.114 203.31 286.136 203.497C286.157 203.683 286.251 203.854 286.396 203.972C286.542 204.09 286.728 204.147 286.915 204.13L293.55 203.365C293.739 203.343 293.911 203.247 294.029 203.099C294.148 202.951 294.202 202.762 294.182 202.573V202.573Z" fill="#FF043E"/>
<path d="M295.238 211.831C295.227 211.737 295.198 211.646 295.152 211.564C295.107 211.481 295.045 211.408 294.971 211.35C294.897 211.291 294.812 211.248 294.722 211.222C294.631 211.196 294.536 211.189 294.442 211.2L287.804 211.963C287.618 211.989 287.45 212.086 287.335 212.235C287.22 212.383 287.168 212.57 287.19 212.757C287.211 212.943 287.305 213.113 287.45 213.232C287.596 213.35 287.782 213.407 287.968 213.39L294.606 212.627C294.796 212.605 294.968 212.509 295.087 212.359C295.205 212.21 295.259 212.02 295.238 211.831V211.831Z" fill="#FF043E"/>
<path d="M293.056 185.164C323.238 178.808 338.994 188.096 338.994 188.096C330.581 188.963 326.102 193.59 326.102 193.59C339.232 200.091 361.418 215.913 361.418 215.913C338.429 208.369 320.423 209.866 320.423 209.866C323.995 213.144 327.08 217.75 329.713 226.862C313.729 214.969 295.985 210.627 295.985 210.627L293.056 185.164Z" fill="url(#paint3_linear_4_5834)"/>
<g clip-path="url(#clip0_4_5834)">
<path fill-rule="evenodd" clip-rule="evenodd" d="M290.685 376.218L276.928 368.129L282.253 344.567L305.92 332.54L326.72 350.359L329.548 348.893L330.735 338.092L342.726 331.224L361.703 344.775L349.21 380.651L321.539 395.731L292.591 388.338L290.685 376.218Z" fill="url(#paint4_linear_4_5834)"/>
<path fill-rule="evenodd" clip-rule="evenodd" d="M276.928 368.129L297.621 374.599L308.407 367.315L305.92 332.54L282.253 344.567L276.928 368.129Z" fill="#FF7C25"/>
<path fill-rule="evenodd" clip-rule="evenodd" d="M330.736 338.091L328.607 367.575L333.443 367.161L349.349 350.169L342.727 331.224L330.736 338.091Z" fill="#FF7C25"/>
<path fill-rule="evenodd" clip-rule="evenodd" d="M327.467 380.255L332.23 371.479L337.276 367.129L339.922 372.232L330.752 382.736L327.467 380.255Z" fill="#FF7C25"/>
<path fill-rule="evenodd" clip-rule="evenodd" d="M292.592 388.338L310.831 383.782L318.25 375.037L290.686 376.218L292.592 388.338Z" fill="#FF7C25"/>
<path fill-rule="evenodd" clip-rule="evenodd" d="M315.089 368.938L312.677 359.415L315.521 360.537L318.517 365.038L315.089 368.938Z" fill="#FF7C25"/>
<path fill-rule="evenodd" clip-rule="evenodd" d="M311.304 386.237L311.778 384.593L317.857 381.442L318.102 383.964L309.506 389.566L311.304 386.237Z" fill="#FF7C25"/>
<path opacity="0.5" fill-rule="evenodd" clip-rule="evenodd" d="M297.621 374.598L299.022 375.859L318.25 375.036L310.83 383.781L311.777 384.593L317.856 381.442L318.101 383.964L327.725 390.737L321.145 384.194L321.24 378.227L330.32 374.981L332.23 371.479L337.276 367.128L339.922 372.232L349.013 379.702L362.259 344.486L353.83 364.192L337.626 363.5L333.442 367.161L328.607 367.576L329.548 348.892L326.72 350.358L305.92 332.54L308.776 344.198L315.452 348.999L311.642 358.942L312.677 359.415L315.52 360.537L318.517 365.038L315.089 368.939L314.332 365.936L308.407 367.315L297.621 374.598Z" fill="#A67C4C"/>
<path opacity="0.5" fill-rule="evenodd" clip-rule="evenodd" d="M349.349 350.168L357.902 347.426L359.158 351.737L362.258 344.485L342.726 331.222L349.349 350.168Z" fill="#A67C4C"/>
<path fill-rule="evenodd" clip-rule="evenodd" d="M308.776 344.199L310.119 363.696L315.452 349L308.776 344.199Z" fill="#FF7C25"/>
<path opacity="0.5" fill-rule="evenodd" clip-rule="evenodd" d="M326.721 350.358L327.769 362.365L318.517 365.038L315.521 360.537L323.161 359.383L315.453 348.999L308.776 344.198L305.921 332.539L326.721 350.358Z" fill="#A67C4C"/>
<path fill-rule="evenodd" clip-rule="evenodd" d="M347.123 352.554L348.234 346.965L351.137 349.601L347.123 352.554Z" fill="#E05F25"/>
<path fill-rule="evenodd" clip-rule="evenodd" d="M304.572 369.902L308.064 362.553L310.51 366.824L304.572 369.902Z" fill="#E05F25"/>
<path fill-rule="evenodd" clip-rule="evenodd" d="M308.437 384.381L313.234 380.949L311.778 384.594L308.437 384.381Z" fill="#E05F25"/>
<path fill-rule="evenodd" clip-rule="evenodd" d="M341.91 358.126L342.52 354.94L345.465 354.328L341.91 358.126Z" fill="#E05F25"/>
<path fill-rule="evenodd" clip-rule="evenodd" d="M287.4 374.284L284.187 370.4L295.144 346.052L306.211 336.51L312.31 338.005L306.114 337.012L299.738 343.67L289.681 359.28L284.529 370.349L287.4 374.284Z" fill="url(#paint5_linear_4_5834)"/>
<path fill-rule="evenodd" clip-rule="evenodd" d="M292.396 353.741L295.28 346.517L295.804 345.741L298.929 343.407L299.422 343.445L296.374 348.2L292.396 353.741Z" fill="#FF7C25"/>
<path fill-rule="evenodd" clip-rule="evenodd" d="M281.012 369.408L286.354 365.587L284.188 370.399L285.773 372.321L281.012 369.408Z" fill="#E05F25"/>
<path fill-rule="evenodd" clip-rule="evenodd" d="M264.928 331.988L265.695 324.821L274.303 318.267L285.799 331.312L283.476 335.964L264.928 331.988Z" fill="url(#paint6_linear_4_5834)"/>
<path fill-rule="evenodd" clip-rule="evenodd" d="M381.134 381.487L380.609 373.938L385.255 370.195L394.652 374.479L390.393 382.805L381.134 381.487Z" fill="url(#paint7_linear_4_5834)"/>
<path fill-rule="evenodd" clip-rule="evenodd" d="M334.491 317.487L330.719 308.059L334.615 303.275L338.831 306.03L338.546 315.385L334.491 317.487Z" fill="url(#paint8_linear_4_5834)"/>
<path fill-rule="evenodd" clip-rule="evenodd" d="M264.928 331.988L273.64 329.837L275.496 324.933L274.303 318.267L265.313 324.084L264.928 331.988Z" fill="#FF7C25"/>
<path fill-rule="evenodd" clip-rule="evenodd" d="M381.134 381.487L387.434 380.933L390.114 374.067L385.255 370.195L380.609 373.938L381.134 381.487Z" fill="#FF7C25"/>
<path fill-rule="evenodd" clip-rule="evenodd" d="M334.614 303.275L337.657 307.216L336.85 314.509L334.491 317.487L330.719 308.059L334.614 303.275Z" fill="#FF7C25"/>
<path opacity="0.5" fill-rule="evenodd" clip-rule="evenodd" d="M390.114 374.069L394.652 374.481L385.256 370.196L390.114 374.069Z" fill="#A67C4C"/>
<path opacity="0.5" fill-rule="evenodd" clip-rule="evenodd" d="M337.657 307.216L336.85 314.509L338.546 315.385L338.83 306.03L337.657 307.216Z" fill="#A67C4C"/>
<path opacity="0.5" fill-rule="evenodd" clip-rule="evenodd" d="M273.64 329.837L283.476 335.964L264.928 331.988L273.64 329.837Z" fill="#A67C4C"/>
</g>
<defs>
<linearGradient id="paint0_linear_4_5834" x1="187.953" y1="264.019" x2="536.998" y2="584.364" gradientUnits="userSpaceOnUse">
<stop stop-color="#FFBC1C"/>
<stop offset="0.13" stop-color="#FDB51B"/>
<stop offset="0.32" stop-color="#F8A217"/>
<stop offset="0.53" stop-color="#F18411"/>
<stop offset="0.78" stop-color="#E65908"/>
<stop offset="0.98" stop-color="#DB2F00"/>
</linearGradient>
<linearGradient id="paint1_linear_4_5834" x1="216.606" y1="251.726" x2="540.716" y2="549.186" gradientUnits="userSpaceOnUse">
<stop offset="0.3" stop-color="#FFD423"/>
<stop offset="0.39" stop-color="#F9BA1E"/>
<stop offset="0.6" stop-color="#EC7F11"/>
<stop offset="0.78" stop-color="#E35408"/>
<stop offset="0.92" stop-color="#DD3902"/>
<stop offset="1" stop-color="#DB2F00"/>
</linearGradient>
<linearGradient id="paint2_linear_4_5834" x1="291.809" y1="275.16" x2="580.498" y2="540.111" gradientUnits="userSpaceOnUse">
<stop offset="0.3" stop-color="#FFED23"/>
<stop offset="0.31" stop-color="#FFEB23"/>
<stop offset="0.49" stop-color="#F2A916"/>
<stop offset="0.66" stop-color="#E8740D"/>
<stop offset="0.81" stop-color="#E14F06"/>
<stop offset="0.93" stop-color="#DD3702"/>
<stop offset="1" stop-color="#DB2F00"/>
</linearGradient>
<linearGradient id="paint3_linear_4_5834" x1="287.283" y1="189.322" x2="364.797" y2="219.037" gradientUnits="userSpaceOnUse">
<stop stop-color="#FFBC1C"/>
<stop offset="0.19" stop-color="#FAAE18"/>
<stop offset="0.55" stop-color="#ED890E"/>
<stop offset="0.98" stop-color="#DB5500"/>
</linearGradient>
<linearGradient id="paint4_linear_4_5834" x1="335.838" y1="388.32" x2="306.611" y2="331.941" gradientUnits="userSpaceOnUse">
<stop stop-color="#A43440"/>
<stop offset="1" stop-color="#C75225"/>
</linearGradient>
<linearGradient id="paint5_linear_4_5834" x1="280.728" y1="363.733" x2="316.13" y2="345.381" gradientUnits="userSpaceOnUse">
<stop stop-color="#C75225"/>
<stop offset="1" stop-color="#A43440"/>
</linearGradient>
<linearGradient id="paint6_linear_4_5834" x1="278.844" y1="338.366" x2="269.67" y2="320.669" gradientUnits="userSpaceOnUse">
<stop stop-color="#A43440"/>
<stop offset="1" stop-color="#C75225"/>
</linearGradient>
<linearGradient id="paint7_linear_4_5834" x1="390.392" y1="382.803" x2="384.152" y2="370.765" gradientUnits="userSpaceOnUse">
<stop stop-color="#A43440"/>
<stop offset="1" stop-color="#C75225"/>
</linearGradient>
<linearGradient id="paint8_linear_4_5834" x1="338.544" y1="315.387" x2="332.762" y2="304.234" gradientUnits="userSpaceOnUse">
<stop stop-color="#A43440"/>
<stop offset="1" stop-color="#C75225"/>
</linearGradient>
<clipPath id="clip0_4_5834">
<rect width="101.592" height="110.724" fill="white" transform="translate(256 327.756) rotate(-27.4017)"/>
</clipPath>
</defs>
</svg>
