<svg width="587" height="521" viewBox="0 0 587 521" fill="none" xmlns="http://www.w3.org/2000/svg">
<path fill-rule="evenodd" clip-rule="evenodd" d="M309.558 478.642C179.328 529.461 37.4942 407.551 42.6275 230.741C47.7608 53.9298 337.827 33.7993 445.063 104.538C552.3 175.276 511.514 399.95 309.558 478.642Z" fill="url(#paint0_radial_81_2385)"/>
<path opacity="0.61" fill-rule="evenodd" clip-rule="evenodd" d="M309.558 478.642C179.328 529.461 37.4942 407.551 42.6275 230.741C47.7608 53.9298 337.827 33.7993 445.063 104.538C552.3 175.276 511.514 399.95 309.558 478.642Z" fill="#FF6107"/>
<path fill-rule="evenodd" clip-rule="evenodd" d="M459.62 276.14C459.62 377.637 377.347 459.989 275.947 459.989C248.03 459.989 221.59 453.725 197.893 442.604C193.251 440.422 188.681 438.028 184.18 435.424C166.319 425.148 150.427 411.845 136.996 396.36C132.074 390.729 127.574 384.816 123.425 378.622C117.799 370.246 112.807 361.307 108.587 351.946C98.1099 328.859 92.3438 303.238 92.3438 276.21C92.3438 249.182 98.1802 223.491 108.658 200.333C112.033 192.943 115.83 185.763 120.12 178.936C129.402 164.084 140.723 150.641 153.732 139.027C186.149 110.028 229.044 92.3606 275.947 92.3606C290.995 92.3606 305.551 94.1907 319.544 97.5692C339.023 102.285 357.165 110.098 373.69 120.515C376.925 122.556 380.019 124.668 383.113 126.85C385.644 128.68 388.176 130.58 390.637 132.551C402.661 142.194 413.491 153.315 422.702 165.633C442.04 191.324 454.768 222.153 458.495 255.798C459.268 262.485 459.62 269.242 459.62 276.14Z" fill="url(#paint1_radial_81_2385)"/>
<g opacity="0.61">
<path opacity="0.61" d="M287.48 68.2184C349.642 68.2184 408.217 82.3661 444.08 106.016C485.428 133.326 506.242 186.045 499.773 247.141C491.827 321.961 437.119 427.048 308.927 477.023C289.378 484.625 269.126 488.496 248.664 488.496C200.636 488.496 153.592 467.309 116.183 428.738C68.3657 379.467 42.207 307.251 44.3869 230.741C47.6216 118.474 168.852 68.2184 287.48 68.2184ZM287.48 66.4587C171.242 66.4587 45.9339 115.096 42.6289 230.741C38.2692 380.101 138.825 490.255 248.664 490.255C268.845 490.255 289.378 486.525 309.56 478.642C511.516 399.879 552.231 175.276 445.065 104.538C407.936 80.0433 349.009 66.4587 287.48 66.4587Z" fill="#FF6C14"/>
</g>
<path d="M176.023 76.6648C150.989 96.1618 126.166 116.152 103.453 138.323C81.0216 160.636 59.7853 184.567 45.0183 212.018C30.3216 239.469 25.1883 270.65 30.5326 300.775C36.369 330.83 49.378 359.829 64.7076 386.928C95.2963 440.844 147.543 482.865 207.525 502.573C237.411 512.498 269.266 516.862 300.628 514.82C331.99 512.99 362.93 503.629 389.3 487.229C415.951 470.829 437.89 447.742 454.204 421.488C470.518 395.093 480.785 365.32 486.41 334.772C492.036 304.154 492.95 272.691 490.7 241.51C488.309 210.329 483.527 179.218 475.652 148.74C468.76 118.615 455.4 90.2494 433.953 68.7111C412.646 47.1729 383.956 33.4475 353.437 28.3093C322.849 23.1007 290.783 26.1273 260.476 34.5737C230.028 42.9497 201.337 57.5901 176.023 76.6648ZM175.108 75.5386C200.423 56.112 228.973 41.0493 259.28 30.7728C289.588 20.5668 322.145 15.6397 354.633 19.0887C386.979 22.4672 419.326 35.6295 443.375 58.9978C467.776 82.0142 482.473 113.547 490.137 145.08C505.748 207.372 511.796 273.254 499.349 337.235C493.091 369.05 481.418 400.161 463.557 427.471C445.836 454.851 421.436 477.867 393.238 493.845C365.04 510.245 332.834 517.988 300.839 519.747C268.703 521.366 236.567 516.439 206.049 506.867C175.53 497.294 146.278 482.935 120.33 463.79C94.3822 444.645 71.6692 420.714 54.652 392.911C50.0109 386.154 46.495 378.904 42.7681 371.725C38.8302 364.686 35.6658 357.225 32.5015 349.694C25.9618 334.842 21.3208 319.005 18.3674 302.816C12.6012 270.157 20.1957 235.316 37.3535 207.654C54.441 179.851 77.2244 156.835 100.992 135.649C124.901 114.533 149.934 94.9653 175.108 75.5386Z" fill="#FF640A"/>
<path d="M455.824 423.529C462.012 392.066 470.099 360.956 478.678 330.056C482.897 314.571 487.256 299.156 491.054 283.601C494.851 268.046 498.297 252.349 499.633 236.442C500.406 228.488 500.195 220.535 499.281 212.651C497.875 204.909 495.484 197.237 492.671 189.846C489.858 182.385 486.272 175.347 481.983 168.589C477.763 161.832 473.052 155.286 468.903 148.389C464.684 141.491 460.957 134.311 457.722 126.921C454.347 119.601 451.745 111.858 448.44 104.749C441.901 90.3198 432.759 77.0871 422.563 64.8399C402.1 40.5566 376.434 19.7926 346.619 8.60112C331.781 3.18137 315.538 0.436295 299.856 3.18137C295.989 3.88523 292.192 5.15219 288.324 6.06721C284.457 7.05262 280.87 8.88267 277.143 10.2904C273.416 11.6981 269.971 13.7393 266.314 15.4286C262.869 17.4698 259.423 19.3702 256.259 21.7634C243.109 30.984 234.952 45.2725 224.896 57.7308C214.981 70.4004 203.308 81.6622 190.721 91.6571C184.604 96.8657 177.923 101.3 171.454 106.086L151.343 119.319C137.912 127.977 125.395 138.042 113.863 149.092C90.8683 171.264 71.39 197.166 56.8339 225.602C42.3482 253.968 32.6442 285.079 31.1675 316.894C29.5501 348.638 37.4259 380.875 54.4431 407.692C71.5306 434.58 96.1422 455.977 123.496 472.307C150.429 489.27 179.752 502.855 210.762 510.034C241.773 517.284 274.331 517.284 305.623 511.02C337.055 505.107 366.8 492.438 395.912 479.134C410.398 472.237 425.516 466.746 440.002 459.989C443.518 458.159 447.175 456.4 450.48 454.218C453.855 452.106 457.16 449.643 459.199 446.334C460.395 444.715 460.535 442.674 460.324 440.774C459.902 438.873 459.129 437.043 458.215 435.213C456.457 431.694 454.839 427.612 455.824 423.529ZM456.105 423.6C455.261 427.541 456.808 431.483 458.566 435.002C459.48 436.762 460.254 438.662 460.746 440.633C460.957 442.674 460.817 444.856 459.621 446.545C457.512 450.065 454.136 452.599 450.761 454.71C447.386 456.963 443.799 458.722 440.283 460.623C425.798 467.591 410.749 473.152 396.334 480.19C367.363 493.775 337.618 506.656 305.974 513.061C274.541 519.747 241.562 520.17 209.989 513.131C178.345 506.304 148.811 492.156 121.598 475.122C94.0327 458.652 68.9288 436.832 51.56 409.381C34.1912 381.931 26.2452 348.92 27.9328 316.683C29.4095 284.305 39.5355 252.842 54.4431 224.265C69.3507 195.688 89.1807 169.786 112.527 147.614C124.2 136.564 136.857 126.498 150.428 117.841L170.54 104.749C177.009 100.033 183.689 95.5988 189.807 90.4606C202.394 80.6065 213.997 69.4854 223.982 56.9566C234.038 44.639 241.984 30.069 255.415 20.5668C258.579 18.1033 262.165 16.1325 265.611 14.0209C269.268 12.2612 272.713 10.22 276.51 8.7419C280.308 7.33417 283.894 5.43373 287.761 4.44832C291.699 3.46291 295.567 2.12557 299.505 1.42171C315.537 -1.53452 332.133 1.21054 347.251 6.55991C377.629 17.7514 403.718 38.5154 424.602 62.9394C435.009 75.2571 444.362 88.5601 451.183 103.341C454.699 110.732 457.23 118.263 460.606 125.513C463.911 132.763 467.427 139.942 471.505 146.77C475.513 153.597 480.154 160.143 484.373 167.041C488.663 173.939 492.249 181.259 495.062 188.861C497.804 196.463 500.195 204.135 501.602 212.229C502.445 220.324 502.656 228.488 501.742 236.512C500.265 252.631 496.609 268.327 492.671 283.882C488.733 299.438 484.233 314.852 479.873 330.267C470.942 361.237 462.575 392.207 456.105 423.6Z" fill="url(#paint2_radial_81_2385)"/>
<path opacity="0.61" fill-rule="evenodd" clip-rule="evenodd" d="M312.933 480.542C182.703 531.361 40.8692 409.382 46.0025 232.571C51.1358 55.7602 341.202 35.6296 448.438 106.368C555.675 177.106 514.89 401.78 312.933 480.542Z" fill="#FF6107"/>
<path fill-rule="evenodd" clip-rule="evenodd" d="M400.692 334.49C395.98 340.121 391.761 345.33 388.737 352.228C386.839 356.451 383.252 362.574 387.331 366.586C392.042 371.162 402.66 363.982 406.598 360.111C408.497 358.281 410.466 356.24 412.365 354.269C414.404 352.087 415.88 349.694 417.006 346.878C419.678 340.262 419.256 333.505 419.256 326.466C419.256 322.243 420.029 317.175 419.115 313.022C418.271 309.362 414.755 303.52 412.294 300.423C406.528 293.314 403.786 300.846 402.731 306.336C401.465 312.952 401.606 319.076 399.215 325.481C398.652 326.889 398.652 328.507 398.09 329.915C397.738 330.83 396.543 331.675 396.261 332.379C395.277 334.913 396.05 338.713 396.05 341.458L400.692 334.49Z" fill="#FF6107"/>
<path fill-rule="evenodd" clip-rule="evenodd" d="M427.413 272.902C426.71 271.354 423.124 266.708 426.148 265.864C427.413 265.512 429.734 266.427 430.648 267.342C433.461 270.227 433.109 276.07 433.18 279.73C433.25 282.897 432.617 284.727 430.015 281.982C428.609 280.504 426.429 277.477 426.218 275.295L427.413 272.902Z" fill="#FF6107"/>
<path fill-rule="evenodd" clip-rule="evenodd" d="M369.33 362.363C367.01 359.477 365.885 357.436 362.439 356.521C360.611 356.028 358.29 355.958 356.321 355.606C348.938 354.198 342.047 358.422 335.577 361.307C329.67 363.912 323.342 365.812 317.294 368.205C309.981 371.091 304.004 376.722 299.644 383.198C294.37 391.01 290.151 400.09 286.776 408.959C284.877 413.956 281.924 422.403 283.541 427.823C285.299 433.594 290.503 436.691 296.269 436.902C301.965 437.114 308.153 437.395 313.778 436.621C316.872 436.199 319.755 435.002 322.849 434.65C325.381 434.369 327.842 434.791 330.374 434.65C332.975 434.439 335.366 433.594 337.968 433.454C342.89 433.102 346.969 431.272 351.188 428.808C355.267 426.485 358.712 422.473 362.298 419.376C366.869 415.435 372.002 411.352 374.464 405.721C376.503 401.076 376.292 396.571 376.292 391.644C376.292 387.702 376.925 383.198 376.222 379.326C375.87 377.496 375.237 376.089 375.167 374.188C375.097 372.499 375.448 370.739 375.237 369.05C374.886 365.812 372.565 363.912 369.33 362.363Z" fill="#FF6107"/>
<path fill-rule="evenodd" clip-rule="evenodd" d="M364.691 335.687C366.942 332.872 370.528 328.508 374.325 331.816C376.294 333.505 376.646 338.01 375.169 339.91C372.637 343.289 365.465 339.558 364.691 335.687Z" fill="#FF6107"/>
<path fill-rule="evenodd" clip-rule="evenodd" d="M187.555 214.481C194.939 208.85 201.549 202.163 208.44 195.617C213.855 190.479 219.691 185.904 225.106 180.836C229.887 176.402 234.318 169.645 235.583 163.24C236.849 156.835 236.849 151.415 235.372 145.15C234.177 140.223 233.403 136.422 229.395 132.974C225.387 129.525 221.238 129.806 216.105 129.947C209.425 130.158 204.291 132.34 198.595 135.507C189.384 140.575 181.93 147.473 173.281 153.315C165.475 158.594 161.608 165.985 164.913 170.701C160.342 174.853 157.389 177.88 154.716 183.581C151.06 191.465 148.739 200.333 148.599 209.061C148.458 214.763 148.458 220.816 152.677 225.321C158.865 232.007 172.507 224.335 178.625 220.464C181.156 218.915 183.477 217.085 185.868 215.326C189.102 212.862 192.97 209.695 197.33 210.891C202.393 212.229 206.331 217.508 203.869 222.575C200.283 229.896 192.829 225.18 189.313 220.675L187.555 214.481Z" fill="#FF6107"/>
<path fill-rule="evenodd" clip-rule="evenodd" d="M263.711 117.137C262.023 120.515 260.546 122.134 262.726 125.161C264.976 128.258 268.211 131.636 271.727 133.255C274.962 134.804 279.814 135.085 283.33 135.437C289.518 136.141 295.846 135.648 302.105 135.648C307.59 135.648 313.075 135.578 318.559 135.648C322.638 135.719 326.787 136.141 330.654 134.311C337.335 131.144 341.132 126.569 338.108 119.46C331.006 102.708 309.77 98.3437 293.667 98.4845C287.127 98.5549 280.376 98.0622 274.188 100.737C267.086 103.904 257.523 109.465 263.711 117.137Z" fill="#FF6107"/>
<path fill-rule="evenodd" clip-rule="evenodd" d="M356.602 150.852C359.063 146.488 362.649 143.321 367.642 146.136C371.017 148.037 373.76 152.049 372.916 156.131C372.353 158.735 369.681 160.566 367.079 161.058C362.508 161.973 358.5 157.257 355.477 154.301L356.602 150.852Z" fill="#FF6107"/>
<path fill-rule="evenodd" clip-rule="evenodd" d="M380.932 306.617C377.908 311.685 377.486 311.967 377.486 317.668C377.486 320.413 376.572 325.833 379.807 327.452C381.846 328.437 383.393 327.241 384.729 326.396C386.909 325.059 388.737 323.581 389.722 321.117C391.199 317.598 392.113 313.304 391.48 309.433C390.355 302.957 384.8 305.35 381.002 308.87V306.617H380.932Z" fill="#FF6107"/>
<path fill-rule="evenodd" clip-rule="evenodd" d="M232.35 411.211C228.342 411.563 219.13 410.296 216.107 414.59C214.771 416.49 213.927 417.828 213.645 420.221C212.942 427.119 217.865 432.82 223.068 436.621C231.014 442.463 244.023 445.912 252.743 439.648C259.212 434.932 259.986 424.937 253.798 419.939C249.086 416.138 237.273 408.326 231.225 412.408L232.35 411.211Z" fill="#FF6107"/>
<path fill-rule="evenodd" clip-rule="evenodd" d="M261.391 400.724C265.258 405.581 265.961 406.496 270.602 403.891C272.431 402.906 273.696 402.906 274.259 400.724C274.4 400.09 274.47 397.205 274.118 396.712C272.993 395.093 269.759 394.811 267.79 394.882C264.977 395.023 262.938 396.29 262.586 399.527L261.391 400.724Z" fill="#FF6107"/>
<path d="M300.416 53.5778C270.32 57.5195 240.153 60.4757 210.197 64.8397C180.312 69.3444 150.285 74.4122 121.666 83.844C107.461 88.6303 93.6083 94.6131 81.2322 102.778C75.1144 106.931 69.4889 111.647 64.6369 117.137C59.9255 122.697 56.058 128.891 53.3859 135.578C50.5731 142.265 49.3777 149.374 48.7448 156.835L47.8307 168.026C47.6197 171.757 47.7604 175.487 47.69 179.218C47.8307 194.14 49.7996 208.991 54.3 223.139C63.0196 251.786 81.3025 276.492 98.5307 301.268C107.321 313.656 115.97 326.114 124.338 338.854C128.487 345.189 132.424 351.805 136.995 357.718L143.675 366.797C146.137 369.613 148.809 372.288 151.411 375.033C172.295 396.782 199.368 412.056 228.058 421.277C256.748 430.779 287.056 434.58 317.152 434.509C377.627 434.016 436.835 416.631 490.278 389.11C503.638 382.212 516.788 374.821 528.602 365.882C540.134 356.943 550.893 345.893 553.284 332.027C555.885 318.301 550.822 303.731 545.759 289.724C540.556 275.577 534.93 261.288 530.57 246.577C526.14 231.937 523.257 216.522 521.218 201.6C518.968 186.608 516.788 171.616 513.905 156.905C510.951 142.194 507.154 127.624 500.966 114.11C494.848 100.666 486.27 88.208 474.808 78.8466C463.556 69.2036 449.704 62.7985 435.429 58.3641C421.084 54.0002 406.106 51.6774 391.058 50.4104C376.009 49.0731 360.82 49.2139 345.702 49.9177C330.513 50.4808 315.465 51.9589 300.416 53.5778ZM300.276 52.874C330.372 49.1435 360.75 46.68 391.128 48.4396C406.317 49.2843 421.506 51.1847 436.273 55.2671C450.969 59.3495 465.455 65.4731 477.62 75.2568C489.926 84.759 499.56 97.6397 506.17 111.647C512.92 125.654 517.069 140.575 520.304 155.568C523.609 170.56 525.789 185.623 528.109 200.615C530.219 215.748 533.032 230.177 537.391 244.607C541.681 258.965 547.236 272.972 552.51 287.261C555.182 294.44 557.714 301.76 559.472 309.432C561.23 317.105 561.933 325.41 560.315 333.505C558.768 341.669 554.831 349.13 549.768 355.324C544.705 361.518 538.798 366.797 532.61 371.513C520.163 380.804 506.662 388.195 493.09 395.093C438.734 422.684 378.049 438.873 316.941 438.451C286.423 438.028 255.975 433.313 227.074 423.74C198.173 414.168 171.03 398.612 149.512 376.863C146.91 374.118 144.097 371.443 141.636 368.557L134.745 359.336C129.963 353.283 126.166 346.808 121.806 340.543C113.157 328.085 104.297 315.838 95.2257 303.661C77.5053 279.237 58.2379 254.742 48.6042 225.039C43.8225 210.328 41.6426 194.773 41.3613 179.429C41.3613 175.558 41.291 171.686 41.4316 167.885L42.2755 156.412C42.838 148.74 44.385 140.716 47.5494 133.466C50.5731 126.146 54.9329 119.389 60.1365 113.477C65.4807 107.635 71.5985 102.708 78.0678 98.414C91.0769 89.8268 105.563 84.2663 120.189 79.832C149.512 71.104 179.679 66.8809 209.775 63.2208L300.276 52.874Z" fill="url(#paint3_radial_81_2385)"/>
<path fill-rule="evenodd" clip-rule="evenodd" d="M560.949 366.445C558.77 367.36 557.152 367.712 555.957 369.402C554.972 370.739 554.55 372.217 554.48 373.836C554.41 375.314 554.48 377.285 555.605 378.411C556.801 379.608 559.543 380.1 561.02 380.382C569.739 382.212 580.639 378.13 584.788 369.894C585.702 368.064 586.475 365.882 586.827 363.841C587.178 362.081 587.038 361.307 585.983 359.759C584.647 357.788 583.17 356.31 583.03 353.776C582.537 347.371 588.163 340.684 586.053 334.42C584.858 330.83 583.452 327.311 579.303 328.296C574.802 329.422 571.216 333.645 568.685 337.305C566.856 339.98 565.309 342.936 564.465 346.033C563.692 348.778 563.2 351.524 562.145 354.128C561.231 356.521 560.246 358.844 559.262 361.237C557.504 365.319 556.449 368.487 560.949 366.445Z" fill="#FF6107"/>
<path fill-rule="evenodd" clip-rule="evenodd" d="M574.312 315.345C573.819 313.726 572.624 309.292 575.577 309.433C577.968 309.573 579.515 313.304 580.008 315.345C580.851 319.076 574.734 319.005 574.874 316.471L574.312 315.345Z" fill="#FF6107"/>
<path fill-rule="evenodd" clip-rule="evenodd" d="M575.434 407.833C578.177 407.692 580.919 407.833 583.661 408.185C583.521 408.959 583.872 409.663 584.013 410.437C584.435 412.549 583.943 414.731 583.31 416.772C582.255 420.08 579.724 423.459 576.63 425.148C571.426 428.104 565.871 425.781 561.652 422.333C558.276 419.588 555.112 414.379 559.19 410.648C562.074 408.044 565.871 406.636 569.527 405.44C571.285 404.877 575.575 403.187 577.192 404.877L575.434 407.833Z" fill="#FF6107"/>
<path fill-rule="evenodd" clip-rule="evenodd" d="M19.2819 146.206C16.6098 147.473 14.9221 147.544 14.0783 150.148C12.8126 154.019 12.25 158.383 12.25 162.395C12.25 169.575 13.6564 176.121 17.4536 182.174C18.0162 183.089 19.2116 184.919 20.407 185.06C21.954 185.341 24.0636 183.089 25.0481 182.244C28.7046 179.006 31.5877 175.417 34.1192 171.194C36.5804 167.041 37.0023 162.395 36.2991 157.679C35.8069 154.582 35.0334 151.626 34.5411 148.599C34.1895 146.488 33.9082 144.658 32.9941 142.687C31.869 140.294 30.4626 137.478 27.4389 138.042C25.0481 138.534 21.954 140.716 20.0554 142.124C17.0317 144.376 15.6956 147.473 19.2819 146.206Z" fill="#FF6107"/>
<path fill-rule="evenodd" clip-rule="evenodd" d="M17.5256 206.669C17.1037 205.754 16.963 204.768 17.0334 203.783C19.0726 202.586 20.3383 202.375 22.5182 203.572C24.2762 204.557 25.9639 206.739 24.7684 208.78C23.784 210.47 21.7447 211.737 19.8461 211.033C17.7365 210.188 15.3457 208.147 15.7676 205.613L17.5256 206.669Z" fill="#FF6107"/>
<path fill-rule="evenodd" clip-rule="evenodd" d="M1.28097 264.737C0.366824 266.567 -1.03955 270.087 1.21066 271.776C1.77322 272.198 2.89831 272.48 3.6015 272.339C4.58597 272.128 4.72662 271.424 5.28917 270.65C7.04714 268.327 9.50831 265.652 9.36767 262.626C9.22703 260.725 8.52384 255.869 5.57044 256.573C2.1248 257.347 1.3513 264.667 1.21066 266.99V264.737H1.28097Z" fill="#FF6107"/>
<path fill-rule="evenodd" clip-rule="evenodd" d="M33.2064 412.971C34.9644 416.068 37.4256 418.32 40.0274 420.713C41.2931 421.91 43.7543 424.444 45.8638 423.388C47.2702 422.684 47.8328 419.094 47.6218 417.687C47.3405 415.505 45.5826 412.337 44.1762 410.719C42.4182 408.607 38.7616 406.425 36.0192 407.481C34.1206 408.255 33.0658 409.1 33.1361 411.282V412.971H33.2064Z" fill="#FF6107"/>
<path fill-rule="evenodd" clip-rule="evenodd" d="M70.3325 388.547C74.2 395.726 79.7553 402.624 86.5762 407.199C87.8419 408.044 89.8109 409.17 91.0766 407.833C92.7643 406.073 90.7953 403.117 90.0218 401.357C87.3497 395.374 83.6931 389.884 80.2475 384.253C78.4192 381.297 76.3096 378.552 74.9032 375.455C73.4969 372.217 71.4576 369.12 69.8403 365.883C68.4339 362.997 66.8166 360.252 65.3399 357.507C64.7773 356.451 63.4412 354.269 62.1755 353.776C60.7691 353.283 59.2924 355.113 58.8002 356.24C57.7454 358.774 58.097 361.519 58.5189 364.123C59.0815 367.22 60.1362 369.895 61.3317 372.851C62.5271 375.807 63.3006 378.974 64.9179 381.79C66.6056 384.676 68.2229 387.773 70.2622 390.447C71.5983 392.207 72.9343 394.319 74.4813 395.867C76.2393 397.697 78.3489 399.105 80.2475 400.794L70.3325 388.547Z" fill="#FF6107"/>
<path fill-rule="evenodd" clip-rule="evenodd" d="M434.939 473.996C437.681 473.433 442.041 471.251 443.939 474.559C445.346 476.953 444.572 479.134 443.658 481.598C441.9 486.314 438.876 490.889 433.391 490.889C429.594 490.889 423.898 489.2 423.898 484.625C423.898 481.809 425.656 480.12 427.977 478.642C430.438 477.023 433.743 475.052 436.767 474.63L434.939 473.996Z" fill="#FF6107"/>
<defs>
<radialGradient id="paint0_radial_81_2385" cx="0" cy="0" r="1" gradientUnits="userSpaceOnUse" gradientTransform="translate(175.059 164.476) scale(221.093 221.306)">
<stop stop-color="#2C6AFF"/>
<stop offset="0.1054" stop-color="#2B68FA"/>
<stop offset="0.229" stop-color="#2962EC"/>
<stop offset="0.3619" stop-color="#2558D4"/>
<stop offset="0.5014" stop-color="#1F4AB3"/>
<stop offset="0.646" stop-color="#183989"/>
<stop offset="0.7948" stop-color="#0F2355"/>
<stop offset="0.9444" stop-color="#040A18"/>
<stop offset="1"/>
</radialGradient>
<radialGradient id="paint1_radial_81_2385" cx="0" cy="0" r="1" gradientUnits="userSpaceOnUse" gradientTransform="translate(236.758 215.996) scale(252.534 252.777)">
<stop stop-color="#FF8433"/>
<stop offset="0.828125" stop-color="#FF8230"/>
<stop offset="1" stop-color="#F2F4FF"/>
</radialGradient>
<radialGradient id="paint2_radial_81_2385" cx="0" cy="0" r="1" gradientUnits="userSpaceOnUse" gradientTransform="translate(265.018 259.365) scale(248.893 249.131)">
<stop stop-color="#FF650B"/>
<stop offset="0.7654" stop-color="#FF9244"/>
<stop offset="1" stop-color="#F2F4FF"/>
</radialGradient>
<radialGradient id="paint3_radial_81_2385" cx="0" cy="0" r="1" gradientUnits="userSpaceOnUse" gradientTransform="translate(301.414 242.561) scale(230.646 230.867)">
<stop stop-color="#FF8636"/>
<stop offset="0.7654" stop-color="#FF9144"/>
<stop offset="1" stop-color="#F2F4FF"/>
</radialGradient>
</defs>
</svg>
