<svg width="648" height="525" viewBox="0 0 648 525" fill="none" xmlns="http://www.w3.org/2000/svg">
<path d="M-45.748 -5.56281e-06C-31.4561 16.0164 -26.218 37.405 -32.7057 56.2503C1.01453 52.2931 37.0448 71.9448 46.0807 99.2288C70.708 94.1867 95.8867 113.041 100.727 133.729C105.567 154.416 95.443 175.146 83.0396 193.248C112.15 176.897 152.766 175.265 184.507 189.164C216.247 203.064 237.742 231.869 238.245 261.156C254.764 245.74 289.512 247.868 303.977 265.168C314.405 246.875 350.335 244.141 365.63 260.424C363.444 231.81 405.779 217.149 440.399 214.472C467.094 212.387 495.685 212.867 518.831 224.519C541.977 236.172 556.254 262.337 543.028 281.329C573.915 274.246 607.446 305.229 595.143 329.536C595.245 329.457 595.343 329.42 595.493 329.343C611.442 320.902 631.914 331.859 631.028 348.288L630.348 360.907C624.213 474.685 516.387 518.557 386.659 511.562L-71.9999 486.829L-45.748 -5.56281e-06V-5.56281e-06Z" fill="white"/>
</svg>
