<svg width="1920" height="1897" viewBox="0 0 1920 1897" fill="none" xmlns="http://www.w3.org/2000/svg">
<path opacity="0.48" fill-rule="evenodd" clip-rule="evenodd" d="M-1432.37 1053.41C-1331.68 1031.29 -1181.2 965.321 -1030.48 901.655C-672.062 750.232 -52.7957 594.574 -608.866 982.972C-905.494 1190.16 -719.986 1264.18 -455.577 1209.1C-90.0107 1132.93 -544.631 1010.01 -267.831 850.882C-392.912 901.92 -148.813 782.447 -267.831 850.882C95.948 1026.31 778.736 235.657 1707.58 825.242C2636.42 1414.83 2704.83 800.39 2993.72 642.972C3282.61 485.553 2487.36 690.518 2606.22 520.039C2725.07 349.561 2333.37 367.594 2684.89 283.647C2684.89 283.647 3542.8 -604.685 3498.18 765.815C3453.56 2136.31 -1034.77 2113.76 -1038.93 1474.85C-1043.08 835.938 -1432.37 1053.41 -1432.37 1053.41Z" fill="url(#paint0_linear_1_206)"/>
<defs>
<linearGradient id="paint0_linear_1_206" x1="936.976" y1="218.133" x2="1491.47" y2="1933.47" gradientUnits="userSpaceOnUse">
<stop stop-color="#202475"/>
<stop offset="1" stop-color="#1E2265"/>
</linearGradient>
</defs>
</svg>
