<svg width="1920" height="1004" viewBox="0 0 1920 1004" fill="none" xmlns="http://www.w3.org/2000/svg">
<path fill-rule="evenodd" clip-rule="evenodd" d="M-2922 690.282L-2729.4 621.253C-2536.8 552.225 -2151.6 414.169 -1766.4 391.159C-1381.2 368.15 -996 460.188 -610.8 575.235C-225.6 690.282 -591.5 431.335 -593.5 821.529C-595.5 1211.72 1843.8 872.206 2229 757.159C2614.2 642.112 2470.8 598.244 2663.4 437.178L2856 276.113V-3.59449e-05H2663.4C2470.8 -3.59449e-05 2085.6 -3.59449e-05 1700.4 -3.59449e-05C1315.2 -3.59449e-05 930 -3.59449e-05 544.8 -3.59449e-05C159.6 -3.59449e-05 -225.6 -3.59449e-05 -610.8 -3.59449e-05C-996 -3.59449e-05 -1381.2 -3.59449e-05 -1766.4 -3.59449e-05C-2151.6 -3.59449e-05 -2536.8 -3.59449e-05 -2729.4 -3.59449e-05H-2922V690.282Z" fill="#1C205F"/>
</svg>
