<svg width="52" height="61" viewBox="0 0 52 61" fill="none" xmlns="http://www.w3.org/2000/svg">
<g clip-path="url(#clip0_229_5594)">
<path fill-rule="evenodd" clip-rule="evenodd" d="M4.02344 33.0597C4.02344 21.5797 13.3131 12.2734 24.7725 12.2734C36.232 12.2734 45.5217 21.5797 45.5217 33.0597C45.5217 44.5394 36.232 53.8457 24.7725 53.8457C13.3131 53.8457 4.02344 44.5394 4.02344 33.0597Z" fill="#222979"/>
<path fill-rule="evenodd" clip-rule="evenodd" d="M30.0581 24.1221C33.8358 25.3226 38.5679 26.0414 41.4769 24.6067C44.3858 23.1719 48.8351 19.5519 51.0766 22.6863C53.7423 26.414 45.6096 35.386 34.4345 35.8283C34.4345 35.8283 16.5245 58.6173 11.0265 53.6658C8.10818 51.0378 13.3418 46.0888 13.3418 46.0888L12.6336 33.9686C12.6336 33.9686 9.63115 33.7514 9.62112 30.8005C9.60731 26.7541 14.7186 19.2471 30.0581 24.1221Z" fill="#EA5656"/>
<path d="M12.9756 54.4246C12.1864 54.4246 11.5197 54.1836 10.9895 53.7065C10.3997 53.1752 10.0958 52.5098 10.0863 51.7285C10.0562 49.2529 13.0184 46.3234 13.2848 46.0654L12.5809 34.0182C12.1886 33.972 9.57481 33.5591 9.56546 30.7999C9.55967 29.0959 10.4516 26.6145 12.9716 24.7603C15.6248 22.8082 20.7459 21.1033 30.075 24.0681C32.3362 24.7869 37.9714 26.2728 41.4524 24.5561C42.0068 24.2825 42.6154 23.9306 43.2598 23.558C45.9418 22.0071 49.2797 20.0766 51.1221 22.6533C51.8447 23.6638 51.8089 25.1091 51.021 26.7229C49.9838 28.8473 47.798 31.0268 45.0233 32.7027C42.7954 34.0485 39.1558 35.6913 34.4626 35.8824C34.1993 36.2155 30.756 40.5516 26.5549 44.9025C20.7074 50.9586 16.2588 54.1571 13.3322 54.4092C13.2108 54.4193 13.0919 54.4246 12.9756 54.4246ZM20.9923 22.5783C17.1631 22.5783 14.6438 23.668 13.0377 24.8498C10.5511 26.6792 9.67127 29.1225 9.67706 30.799C9.68686 33.6649 12.6083 33.9095 12.6379 33.9115L12.6867 33.9151L12.6896 33.9639L13.3993 46.1102L13.3803 46.1281C13.3483 46.1584 10.1671 49.1969 10.1979 51.7269C10.207 52.4756 10.4983 53.1138 11.0641 53.6233C11.6484 54.1495 12.4087 54.3769 13.3229 54.2974C20.2418 53.7014 34.2505 35.9716 34.3911 35.7927L34.4071 35.7726L34.4328 35.7715C39.1148 35.586 42.745 33.9481 44.9661 32.6065C47.7229 30.9416 49.8934 28.7788 50.9212 26.6734C51.6901 25.0979 51.7293 23.6934 51.0319 22.7176C49.2481 20.2232 45.9589 22.1256 43.3159 23.6539C42.67 24.0275 42.0596 24.3803 41.5021 24.6554C37.9848 26.3902 32.3159 24.8967 30.0418 24.1739C26.4214 23.0235 23.4392 22.5783 20.9923 22.5783Z" fill="#0F227A"/>
<path d="M12.9728 54.7853C12.0938 54.7853 11.3471 54.5135 10.7488 53.9744C10.081 53.373 9.73682 52.6185 9.72613 51.7322C9.6965 49.2871 12.27 46.5654 12.9155 45.9213L12.2386 34.3356C11.0248 34.1158 9.21335 33.1853 9.20511 30.8C9.19909 29.0072 10.1293 26.4024 12.7585 24.4681C15.4792 22.4662 20.711 20.7118 30.1845 23.7228C34.807 25.1918 38.9598 25.3817 41.2934 24.2309C41.8369 23.9627 42.4406 23.6137 43.0799 23.2441C44.4407 22.4573 45.983 21.5654 47.4198 21.2005C49.1653 20.7576 50.5096 21.1751 51.4155 22.4419C52.219 23.5655 52.1941 25.1418 51.3451 26.8806C50.2784 29.0657 48.0422 31.3003 45.2099 33.0112C42.9718 34.3628 39.3327 36.0094 34.6433 36.2351C33.1682 38.0939 20.2185 54.1775 13.3635 54.7682C13.2305 54.7795 13.1002 54.7853 12.9728 54.7853ZM20.9914 22.938C17.2588 22.938 14.81 23.9935 13.2514 25.1405C10.8713 26.8917 10.0326 29.2824 10.0378 30.7973C10.0462 33.3174 12.5582 33.5425 12.6651 33.5508C12.8725 33.5671 13.0374 33.7342 13.0496 33.9422L13.7577 46.0624C13.7649 46.1853 13.7174 46.3054 13.6281 46.39C13.5971 46.4194 10.5289 49.3525 10.5586 51.7228C10.5668 52.3751 10.8109 52.9086 11.3054 53.354C11.8196 53.8171 12.4691 54.0079 13.292 53.9369C20.0559 53.3543 33.9682 35.7464 34.1078 35.5685C34.1831 35.4725 34.2967 35.4148 34.4186 35.4098C41.9735 35.1108 48.5772 30.6518 50.5971 26.5139C51.305 25.0637 51.3554 23.7899 50.7386 22.9275C49.1452 20.6993 46.1439 22.435 43.496 23.9662C42.8447 24.3429 42.2294 24.6986 41.6612 24.9791C38.0267 26.7715 32.2483 25.2536 29.9325 24.5176C26.3469 23.3782 23.4014 22.938 20.9914 22.938Z" fill="#0F227A"/>
<path fill-rule="evenodd" clip-rule="evenodd" d="M14.7742 33.1566C14.7742 33.1566 12.2453 32.922 11.3068 35.3448C10.3681 37.7677 12.0951 39.216 12.0951 39.216C12.0951 39.216 10.062 44.5875 13.1539 46.0272C16.2457 47.467 23.8734 37.9766 20.1554 34.6369" fill="#EA5656"/>
<path d="M13.8729 46.234C13.6078 46.234 13.3584 46.1842 13.13 46.0778C10.1612 44.6951 11.8594 39.7077 12.0294 39.2322C11.8033 39.022 10.381 37.5793 11.2545 35.3246C12.1974 32.8907 14.7537 33.0989 14.7789 33.1009L14.7686 33.212C14.7439 33.21 12.2702 33.0108 11.3583 35.3648C10.4445 37.7233 12.1134 39.1588 12.1303 39.1731L12.1606 39.1985L12.1466 39.2355C12.1265 39.2889 10.1676 44.5751 13.1768 45.9765C14.8007 46.7332 17.67 44.3698 19.3968 41.7469C20.94 39.4029 21.9397 36.3149 20.1176 34.6781L20.192 34.5951C22.0669 36.2792 21.0585 39.4254 19.4896 41.8082C17.9395 44.1634 15.5814 46.2338 13.8729 46.234Z" fill="#0F227A"/>
<path d="M13.8685 46.594C13.554 46.594 13.2551 46.5339 12.9775 46.4047C9.95409 44.9967 11.228 40.4852 11.6125 39.3309C10.9556 38.6317 10.1737 37.1143 10.9179 35.1932C11.7502 33.0447 13.8284 32.6488 14.8119 32.7406C15.0409 32.7618 15.2093 32.9648 15.1879 33.1942C15.1667 33.4232 14.9636 33.5923 14.7362 33.5711C14.6415 33.5629 12.5031 33.4064 11.694 35.4949C10.8801 37.5961 12.3019 38.8446 12.3629 38.8968C12.4966 39.0111 12.5458 39.1985 12.4835 39.3632C12.4645 39.4132 10.6244 44.389 13.3286 45.6485C14.6007 46.2409 17.2419 44.3629 19.0954 41.5476C20.556 39.3293 21.5281 36.4304 19.8766 34.9468C19.7053 34.7931 19.6911 34.5293 19.8446 34.358C19.998 34.1866 20.2611 34.1718 20.4324 34.3258C22.478 36.1632 21.4419 39.4985 19.7904 42.0069C18.2049 44.4151 15.7606 46.5937 13.8685 46.594Z" fill="#0F227A"/>
<path d="M34.4287 36.2581C34.3461 36.2581 34.2628 36.2336 34.1899 36.1825C34.0017 36.0501 33.9563 35.7902 34.0881 35.6016C34.112 35.5674 36.4812 32.1814 37.2107 30.8563C37.3218 30.6548 37.5749 30.5811 37.7763 30.6927C37.9776 30.8041 38.0507 31.0576 37.9398 31.2593C37.1886 32.6234 34.868 35.9401 34.7698 36.0805C34.6889 36.1961 34.5599 36.2581 34.4287 36.2581Z" fill="#0F227A"/>
<path d="M15.9993 33.8723C15.1892 33.8723 13.6731 33.7641 12.6616 32.7817C12.0089 32.148 11.6759 31.2641 11.6719 30.1548C11.665 28.2723 13.0254 26.6116 15.1377 25.9239C17.0648 25.2964 18.9096 25.7239 19.8378 27.0131C21.1111 28.782 20.3094 30.3454 19.6106 31.0374C19.5525 31.8135 19.242 32.485 18.7067 32.9879C18.0264 33.627 17.1046 33.8875 16.4938 33.8636C16.4649 33.8627 16.417 33.8645 16.3526 33.866C16.2606 33.8689 16.1408 33.8723 15.9993 33.8723ZM16.8625 26.4719C16.3983 26.4719 15.9018 26.5521 15.3954 26.717C14.0578 27.1526 12.4981 28.3134 12.5048 30.1517C12.5079 31.0278 12.7558 31.7113 13.2412 32.1828C14.1772 33.0917 15.7973 33.0475 16.3297 33.0326C16.4197 33.0303 16.4872 33.0288 16.5273 33.0306C16.8812 33.0446 17.6014 32.8831 18.1373 32.3796C18.5534 31.9889 18.7722 31.4694 18.7873 30.8363C18.7902 30.7176 18.8432 30.606 18.9334 30.529C19.0865 30.3969 20.3831 29.1964 19.1627 27.5011C18.6793 26.8294 17.8428 26.4719 16.8625 26.4719Z" fill="#0F227A"/>
<path d="M12.9456 54.7852C12.0744 54.7852 11.3371 54.5165 10.7417 53.9803C10.0739 53.3789 9.7297 52.6244 9.71901 51.7383C9.68916 49.2933 12.2629 46.5708 12.9088 45.9266L12.8487 44.9115C12.8371 44.7144 12.9645 44.5384 13.1505 44.4855C13.1728 44.4783 13.1951 44.4725 13.2176 44.4687C13.2492 44.4634 13.2813 44.4616 13.3134 44.4638C13.367 44.4674 14.6443 44.5564 16.1675 45.36C17.5682 46.0989 19.4529 47.608 20.478 50.6029C20.4898 50.6377 20.4956 50.6674 20.4989 50.6866C20.5366 50.8435 20.4805 51.0095 20.3524 51.1108C18.3155 52.7244 16.5297 53.8187 15.0448 54.3632C14.2768 54.6444 13.576 54.7852 12.9456 54.7852ZM13.7092 45.3625L13.7511 46.0672C13.7584 46.1903 13.7107 46.3104 13.6214 46.395C13.5905 46.4244 10.5218 49.3584 10.5514 51.7289C10.5597 52.3812 10.8038 52.9148 11.2983 53.3602C12.783 54.6973 15.5774 53.7815 19.6064 50.6368C18.1099 46.5813 14.8931 45.5925 13.7092 45.3625ZM20.488 50.6498C20.488 50.6498 20.488 50.65 20.488 50.6498C20.488 50.65 20.488 50.6498 20.488 50.6498ZM20.4878 50.6491C20.4878 50.6491 20.4878 50.6493 20.488 50.6493C20.4878 50.6493 20.4878 50.6493 20.4878 50.6491ZM13.2639 44.8865H13.265H13.2639Z" fill="#0F227A"/>
<path d="M12.088 39.6434C12.0361 39.6434 11.9833 39.6335 11.9323 39.6128C11.7192 39.5266 11.6162 39.2836 11.7022 39.0701C11.7408 38.9743 12.6605 36.7154 13.9532 35.5677C14.1251 35.4151 14.3882 35.4309 14.5408 35.6034C14.6934 35.7757 14.6773 36.0395 14.5054 36.1921C13.3602 37.2088 12.483 39.3608 12.4741 39.3825C12.4088 39.5447 12.2527 39.6434 12.088 39.6434Z" fill="#0F227A"/>
<path d="M13.83 46.5874C13.521 46.5874 13.2295 46.5289 12.9613 46.4042C9.92803 44.9914 11.2191 40.4539 11.5985 39.3178C11.539 39.2516 11.4699 39.1701 11.3964 39.0751C11.2801 38.9251 11.2799 38.7153 11.3955 38.5647C11.713 38.1519 12.0687 37.8145 12.4529 37.5616C12.4984 37.5317 12.5494 37.511 12.6029 37.5007C12.616 37.4981 12.9285 37.4387 13.4257 37.4186C14.77 37.363 18.1218 37.5942 20.1803 40.9089C20.2618 41.0401 20.264 41.2059 20.1863 41.3394C18.5695 44.1147 15.8386 46.5872 13.83 46.5874ZM12.2694 38.8164C12.3237 38.8742 12.3578 38.9061 12.3585 38.9068C12.483 39.0222 12.5258 39.2025 12.4656 39.3614C12.4469 39.4113 10.6077 44.3887 13.3121 45.648C14.654 46.273 17.536 44.0979 19.3367 41.1379C17.5716 38.4969 14.9106 38.1929 13.4591 38.2519C13.1664 38.2639 12.9486 38.2909 12.8387 38.307C12.6401 38.4467 12.4494 38.6171 12.2694 38.8164ZM13.4424 37.8352H13.4435H13.4424Z" fill="#0F227A"/>
<path d="M29.3287 35.8782C27.4941 35.8782 23.1787 33.7036 22.8845 32.2901C22.7087 31.4464 22.7693 30.7562 22.839 30.3581C21.8342 29.9055 18.5983 28.4809 16.61 27.9858C16.3868 27.9302 16.2509 27.7039 16.3063 27.4806C16.3618 27.257 16.5881 27.1211 16.8109 27.1764C19.2523 27.7845 23.3231 29.6607 23.495 29.7404C23.6873 29.8292 23.7822 30.0484 23.716 30.2496C23.7142 30.2554 23.473 31.0327 23.6995 32.1196C23.7701 32.4588 24.6591 33.2312 26.1672 33.995C27.5269 34.6836 28.9171 35.1201 29.4731 35.0349C30.7114 34.843 31.5077 33.8439 31.5155 33.8339C31.6269 33.692 31.8169 33.638 31.9862 33.7L34.9488 34.7894C35.1646 34.8686 35.2754 35.1083 35.1961 35.3245C35.117 35.5408 34.878 35.6519 34.6619 35.5722L31.9637 34.5801C31.5968 34.9574 30.7621 35.6789 29.6003 35.859C29.5176 35.8719 29.4267 35.8782 29.3287 35.8782Z" fill="#0F227A"/>
<path d="M19.2024 31.2774C19.1937 31.2774 19.1848 31.2772 19.1761 31.2765C18.9469 31.2623 18.773 31.0648 18.7865 30.8354C18.7877 30.816 18.8362 29.7562 18.1963 29.243C17.7681 28.8995 17.0954 28.8551 16.197 29.1102C15.9758 29.1729 15.7457 29.0444 15.6829 28.8228C15.6201 28.6012 15.7486 28.3707 15.9698 28.3078C17.1455 27.9735 18.0713 28.0705 18.7219 28.5958C19.6996 29.3853 19.6214 30.8253 19.6176 30.8863C19.6036 31.1072 19.4205 31.2774 19.2024 31.2774Z" fill="#0F227A"/>
<path d="M47.7123 27.697C46.6718 27.697 45.5795 27.2518 45.1859 27.0382C44.9838 26.9286 44.9085 26.6754 45.0181 26.473C45.1277 26.2706 45.3801 26.1952 45.5824 26.3049C46.1098 26.591 47.5528 27.0991 48.4062 26.7459C48.6962 26.6258 48.8753 26.4217 48.9702 26.1032C49.0413 25.8649 49.0172 25.6583 48.8945 25.4532C48.4739 24.7511 47.0699 24.3312 46.5645 24.2285C46.3393 24.1828 46.1934 23.963 46.2388 23.7374C46.2843 23.5115 46.5037 23.3645 46.7287 23.4109C46.9512 23.4558 48.9228 23.8813 49.6077 25.0229C49.8496 25.4262 49.9051 25.8823 49.7681 26.342C49.6031 26.8961 49.242 27.3024 48.7245 27.5169C48.4127 27.6456 48.0654 27.697 47.7123 27.697Z" fill="#0F227A"/>
<path fill-rule="evenodd" clip-rule="evenodd" d="M30.0581 24.1221C33.8358 25.3226 38.5679 26.0414 41.4769 24.6067C44.3858 23.1719 48.8351 19.5519 51.0766 22.6863C53.7423 26.414 45.6096 35.386 34.4345 35.8283C34.4345 35.8283 16.5245 58.6173 11.0265 53.6658C8.10818 51.0378 13.3418 46.0888 13.3418 46.0888L12.6336 33.9686C12.6336 33.9686 9.63115 33.7514 9.62112 30.8005C9.60731 26.7541 14.7186 19.2471 30.0581 24.1221Z" fill="#EA5656"/>
<path d="M12.9756 54.4246C12.1864 54.4246 11.5197 54.1836 10.9895 53.7065C10.3997 53.1752 10.0958 52.5098 10.0863 51.7285C10.0562 49.2529 13.0184 46.3234 13.2848 46.0654L12.5809 34.0182C12.1886 33.972 9.57481 33.5591 9.56546 30.7999C9.55967 29.0959 10.4516 26.6145 12.9716 24.7603C15.6248 22.8082 20.7459 21.1033 30.075 24.0681C32.3362 24.7869 37.9714 26.2728 41.4524 24.5561C42.0068 24.2825 42.6154 23.9306 43.2598 23.558C45.9418 22.0071 49.2797 20.0766 51.1221 22.6533C51.8447 23.6638 51.8089 25.1091 51.021 26.7229C49.9838 28.8473 47.798 31.0268 45.0233 32.7027C42.7954 34.0485 39.1558 35.6913 34.4626 35.8824C34.1993 36.2155 30.756 40.5516 26.5549 44.9025C20.7074 50.9586 16.2588 54.1571 13.3322 54.4092C13.2108 54.4193 13.0919 54.4246 12.9756 54.4246ZM20.9923 22.5783C17.1631 22.5783 14.6438 23.668 13.0377 24.8498C10.5511 26.6792 9.67127 29.1225 9.67706 30.799C9.68686 33.6649 12.6083 33.9095 12.6379 33.9115L12.6867 33.9151L12.6896 33.9639L13.3993 46.1102L13.3803 46.1281C13.3483 46.1584 10.1671 49.1969 10.1979 51.7269C10.207 52.4756 10.4983 53.1138 11.0641 53.6233C11.6484 54.1495 12.4087 54.3769 13.3229 54.2974C20.2418 53.7014 34.2505 35.9716 34.3911 35.7927L34.4071 35.7726L34.4328 35.7715C39.1148 35.586 42.745 33.9481 44.9661 32.6065C47.7229 30.9416 49.8934 28.7788 50.9212 26.6734C51.6901 25.0979 51.7293 23.6934 51.0319 22.7176C49.2481 20.2232 45.9589 22.1256 43.3159 23.6539C42.67 24.0275 42.0596 24.3803 41.5021 24.6554C37.9848 26.3902 32.3159 24.8967 30.0418 24.1739C26.4214 23.0235 23.4392 22.5783 20.9923 22.5783Z" fill="#0F227A"/>
<path d="M12.9728 54.7853C12.0938 54.7853 11.3471 54.5135 10.7488 53.9744C10.081 53.373 9.73682 52.6185 9.72613 51.7322C9.6965 49.2871 12.27 46.5654 12.9155 45.9213L12.2386 34.3356C11.0248 34.1158 9.21335 33.1853 9.20511 30.8C9.19909 29.0072 10.1293 26.4024 12.7585 24.4681C15.4792 22.4662 20.711 20.7118 30.1845 23.7228C34.807 25.1918 38.9598 25.3817 41.2934 24.2309C41.8369 23.9627 42.4406 23.6137 43.0799 23.2441C44.4407 22.4573 45.983 21.5654 47.4198 21.2005C49.1653 20.7576 50.5096 21.1751 51.4155 22.4419C52.219 23.5655 52.1941 25.1418 51.3451 26.8806C50.2784 29.0657 48.0422 31.3003 45.2099 33.0112C42.9718 34.3628 39.3327 36.0094 34.6433 36.2351C33.1682 38.0939 20.2185 54.1775 13.3635 54.7682C13.2305 54.7795 13.1002 54.7853 12.9728 54.7853ZM20.9914 22.938C17.2588 22.938 14.81 23.9935 13.2514 25.1405C10.8713 26.8917 10.0326 29.2824 10.0378 30.7973C10.0462 33.3174 12.5582 33.5425 12.6651 33.5508C12.8725 33.5671 13.0374 33.7342 13.0496 33.9422L13.7577 46.0624C13.7649 46.1853 13.7174 46.3054 13.6281 46.39C13.5971 46.4194 10.5289 49.3525 10.5586 51.7228C10.5668 52.3751 10.8109 52.9086 11.3054 53.354C11.8196 53.8171 12.4691 54.0079 13.292 53.9369C20.0559 53.3543 33.9682 35.7464 34.1078 35.5685C34.1831 35.4725 34.2967 35.4148 34.4186 35.4098C41.9735 35.1108 48.5772 30.6518 50.5971 26.5139C51.305 25.0637 51.3554 23.7899 50.7386 22.9275C49.1452 20.6993 46.1439 22.435 43.496 23.9662C42.8447 24.3429 42.2294 24.6986 41.6612 24.9791C38.0267 26.7715 32.2483 25.2536 29.9325 24.5176C26.3469 23.3782 23.4014 22.938 20.9914 22.938Z" fill="#0F227A"/>
<path fill-rule="evenodd" clip-rule="evenodd" d="M14.7742 33.1566C14.7742 33.1566 12.2453 32.922 11.3068 35.3448C10.3681 37.7677 12.0951 39.216 12.0951 39.216C12.0951 39.216 10.062 44.5875 13.1539 46.0272C16.2457 47.467 23.8734 37.9766 20.1554 34.6369" fill="#EA5656"/>
<path d="M13.8729 46.234C13.6078 46.234 13.3584 46.1842 13.13 46.0778C10.1612 44.6951 11.8594 39.7077 12.0294 39.2322C11.8033 39.022 10.381 37.5793 11.2545 35.3246C12.1974 32.8907 14.7537 33.0989 14.7789 33.1009L14.7686 33.212C14.7439 33.21 12.2702 33.0108 11.3583 35.3648C10.4445 37.7233 12.1134 39.1588 12.1303 39.1731L12.1606 39.1985L12.1466 39.2355C12.1265 39.2889 10.1676 44.5751 13.1768 45.9765C14.8007 46.7332 17.67 44.3698 19.3968 41.7469C20.94 39.4029 21.9397 36.3149 20.1176 34.6781L20.192 34.5951C22.0669 36.2792 21.0585 39.4254 19.4896 41.8082C17.9395 44.1634 15.5814 46.2338 13.8729 46.234Z" fill="#0F227A"/>
<path d="M13.8685 46.594C13.554 46.594 13.2551 46.5339 12.9775 46.4047C9.95409 44.9967 11.228 40.4852 11.6125 39.3309C10.9556 38.6317 10.1737 37.1143 10.9179 35.1932C11.7502 33.0447 13.8284 32.6488 14.8119 32.7406C15.0409 32.7618 15.2093 32.9648 15.1879 33.1942C15.1667 33.4232 14.9636 33.5923 14.7362 33.5711C14.6415 33.5629 12.5031 33.4064 11.694 35.4949C10.8801 37.5961 12.3019 38.8446 12.3629 38.8968C12.4966 39.0111 12.5458 39.1985 12.4835 39.3632C12.4645 39.4132 10.6244 44.389 13.3286 45.6485C14.6007 46.2409 17.2419 44.3629 19.0954 41.5476C20.556 39.3293 21.5281 36.4304 19.8766 34.9468C19.7053 34.7931 19.6911 34.5293 19.8446 34.358C19.998 34.1866 20.2611 34.1718 20.4324 34.3258C22.478 36.1632 21.4419 39.4985 19.7904 42.0069C18.2049 44.4151 15.7606 46.5937 13.8685 46.594Z" fill="#0F227A"/>
<path d="M34.4287 36.2581C34.3461 36.2581 34.2628 36.2336 34.1899 36.1825C34.0017 36.0501 33.9563 35.7902 34.0881 35.6016C34.112 35.5674 36.4812 32.1814 37.2107 30.8563C37.3218 30.6548 37.5749 30.5811 37.7763 30.6927C37.9776 30.8041 38.0507 31.0576 37.9398 31.2593C37.1886 32.6234 34.868 35.9401 34.7698 36.0805C34.6889 36.1961 34.5599 36.2581 34.4287 36.2581Z" fill="#0F227A"/>
<path d="M15.9993 33.8723C15.1892 33.8723 13.6731 33.7641 12.6616 32.7817C12.0089 32.148 11.6759 31.2641 11.6719 30.1548C11.665 28.2723 13.0254 26.6116 15.1377 25.9239C17.0648 25.2964 18.9096 25.7239 19.8378 27.0131C21.1111 28.782 20.3094 30.3454 19.6106 31.0374C19.5525 31.8135 19.242 32.485 18.7067 32.9879C18.0264 33.627 17.1046 33.8875 16.4938 33.8636C16.4649 33.8627 16.417 33.8645 16.3526 33.866C16.2606 33.8689 16.1408 33.8723 15.9993 33.8723ZM16.8625 26.4719C16.3983 26.4719 15.9018 26.5521 15.3954 26.717C14.0578 27.1526 12.4981 28.3134 12.5048 30.1517C12.5079 31.0278 12.7558 31.7113 13.2412 32.1828C14.1772 33.0917 15.7973 33.0475 16.3297 33.0326C16.4197 33.0303 16.4872 33.0288 16.5273 33.0306C16.8812 33.0446 17.6014 32.8831 18.1373 32.3796C18.5534 31.9889 18.7722 31.4694 18.7873 30.8363C18.7902 30.7176 18.8432 30.606 18.9334 30.529C19.0865 30.3969 20.3831 29.1964 19.1627 27.5011C18.6793 26.8294 17.8428 26.4719 16.8625 26.4719Z" fill="#0F227A"/>
<path d="M12.9456 54.7852C12.0744 54.7852 11.3371 54.5165 10.7417 53.9803C10.0739 53.3789 9.7297 52.6244 9.71901 51.7383C9.68916 49.2933 12.2629 46.5708 12.9088 45.9266L12.8487 44.9115C12.8371 44.7144 12.9645 44.5384 13.1505 44.4855C13.1728 44.4783 13.1951 44.4725 13.2176 44.4687C13.2492 44.4634 13.2813 44.4616 13.3134 44.4638C13.367 44.4674 14.6443 44.5564 16.1675 45.36C17.5682 46.0989 19.4529 47.608 20.478 50.6029C20.4898 50.6377 20.4956 50.6674 20.4989 50.6866C20.5366 50.8435 20.4805 51.0095 20.3524 51.1108C18.3155 52.7244 16.5297 53.8187 15.0448 54.3632C14.2768 54.6444 13.576 54.7852 12.9456 54.7852ZM13.7092 45.3625L13.7511 46.0672C13.7584 46.1903 13.7107 46.3104 13.6214 46.395C13.5905 46.4244 10.5218 49.3584 10.5514 51.7289C10.5597 52.3812 10.8038 52.9148 11.2983 53.3602C12.783 54.6973 15.5774 53.7815 19.6064 50.6368C18.1099 46.5813 14.8931 45.5925 13.7092 45.3625ZM20.488 50.6498C20.488 50.6498 20.488 50.65 20.488 50.6498C20.488 50.65 20.488 50.6498 20.488 50.6498ZM20.4878 50.6491C20.4878 50.6491 20.4878 50.6493 20.488 50.6493C20.4878 50.6493 20.4878 50.6493 20.4878 50.6491ZM13.2639 44.8865H13.265H13.2639Z" fill="#0F227A"/>
<path d="M12.088 39.6434C12.0361 39.6434 11.9833 39.6335 11.9323 39.6128C11.7192 39.5266 11.6162 39.2836 11.7022 39.0701C11.7408 38.9743 12.6605 36.7154 13.9532 35.5677C14.1251 35.4151 14.3882 35.4309 14.5408 35.6034C14.6934 35.7757 14.6773 36.0395 14.5054 36.1921C13.3602 37.2088 12.483 39.3608 12.4741 39.3825C12.4088 39.5447 12.2527 39.6434 12.088 39.6434Z" fill="#0F227A"/>
<path d="M13.83 46.5874C13.521 46.5874 13.2295 46.5289 12.9613 46.4042C9.92803 44.9914 11.2191 40.4539 11.5985 39.3178C11.539 39.2516 11.4699 39.1701 11.3964 39.0751C11.2801 38.9251 11.2799 38.7153 11.3955 38.5647C11.713 38.1519 12.0687 37.8145 12.4529 37.5616C12.4984 37.5317 12.5494 37.511 12.6029 37.5007C12.616 37.4981 12.9285 37.4387 13.4257 37.4186C14.77 37.363 18.1218 37.5942 20.1803 40.9089C20.2618 41.0401 20.264 41.2059 20.1863 41.3394C18.5695 44.1147 15.8386 46.5872 13.83 46.5874ZM12.2694 38.8164C12.3237 38.8742 12.3578 38.9061 12.3585 38.9068C12.483 39.0222 12.5258 39.2025 12.4656 39.3614C12.4469 39.4113 10.6077 44.3887 13.3121 45.648C14.654 46.273 17.536 44.0979 19.3367 41.1379C17.5716 38.4969 14.9106 38.1929 13.4591 38.2519C13.1664 38.2639 12.9486 38.2909 12.8387 38.307C12.6401 38.4467 12.4494 38.6171 12.2694 38.8164ZM13.4424 37.8352H13.4435H13.4424Z" fill="#0F227A"/>
<path d="M29.3287 35.8782C27.4941 35.8782 23.1787 33.7036 22.8845 32.2901C22.7087 31.4464 22.7693 30.7562 22.839 30.3581C21.8342 29.9055 18.5983 28.4809 16.61 27.9858C16.3868 27.9302 16.2509 27.7039 16.3063 27.4806C16.3618 27.257 16.5881 27.1211 16.8109 27.1764C19.2523 27.7845 23.3231 29.6607 23.495 29.7404C23.6873 29.8292 23.7822 30.0484 23.716 30.2496C23.7142 30.2554 23.473 31.0327 23.6995 32.1196C23.7701 32.4588 24.6591 33.2312 26.1672 33.995C27.5269 34.6836 28.9171 35.1201 29.4731 35.0349C30.7114 34.843 31.5077 33.8439 31.5155 33.8339C31.6269 33.692 31.8169 33.638 31.9862 33.7L34.9488 34.7894C35.1646 34.8686 35.2754 35.1083 35.1961 35.3245C35.117 35.5408 34.878 35.6519 34.6619 35.5722L31.9637 34.5801C31.5968 34.9574 30.7621 35.6789 29.6003 35.859C29.5176 35.8719 29.4267 35.8782 29.3287 35.8782Z" fill="#0F227A"/>
<path d="M19.2024 31.2774C19.1937 31.2774 19.1848 31.2772 19.1761 31.2765C18.9469 31.2623 18.773 31.0648 18.7865 30.8354C18.7877 30.816 18.8362 29.7562 18.1963 29.243C17.7681 28.8995 17.0954 28.8551 16.197 29.1102C15.9758 29.1729 15.7457 29.0444 15.6829 28.8228C15.6201 28.6012 15.7486 28.3707 15.9698 28.3078C17.1455 27.9735 18.0713 28.0705 18.7219 28.5958C19.6996 29.3853 19.6214 30.8253 19.6176 30.8863C19.6036 31.1072 19.4205 31.2774 19.2024 31.2774Z" fill="#0F227A"/>
<path d="M47.7123 27.697C46.6718 27.697 45.5795 27.2518 45.1859 27.0382C44.9838 26.9286 44.9085 26.6754 45.0181 26.473C45.1277 26.2706 45.3801 26.1952 45.5824 26.3049C46.1098 26.591 47.5528 27.0991 48.4062 26.7459C48.6962 26.6258 48.8753 26.4217 48.9702 26.1032C49.0413 25.8649 49.0172 25.6583 48.8945 25.4532C48.4739 24.7511 47.0699 24.3312 46.5645 24.2285C46.3393 24.1828 46.1934 23.963 46.2388 23.7374C46.2843 23.5115 46.5037 23.3645 46.7287 23.4109C46.9512 23.4558 48.9228 23.8813 49.6077 25.0229C49.8496 25.4262 49.9051 25.8823 49.7681 26.342C49.6031 26.8961 49.242 27.3024 48.7245 27.5169C48.4127 27.6456 48.0654 27.697 47.7123 27.697Z" fill="#0F227A"/>
<path fill-rule="evenodd" clip-rule="evenodd" d="M30.0581 24.1221C33.8358 25.3226 38.5679 26.0414 41.4769 24.6067C44.3858 23.1719 48.8351 19.5519 51.0766 22.6863C53.7423 26.414 45.6096 35.386 34.4345 35.8283C34.4345 35.8283 16.5245 58.6173 11.0265 53.6659C8.10818 51.0378 13.3418 46.0888 13.3418 46.0888L12.6336 33.9686C12.6336 33.9686 9.63115 33.7514 9.62112 30.8005C9.60731 26.7541 14.7186 19.2471 30.0581 24.1221Z" fill="#E8C49C"/>
<path d="M42.1084 25.5614C42.1084 25.5614 42.5539 31.8096 48.2341 30.6938L50.7958 27.0119L51.5422 24.9247L51.4251 23.3593L50.4338 22.0068L49.0138 21.6562C49.0138 21.6563 45.6725 22.6604 42.1084 25.5614Z" fill="white"/>
<g opacity="0.2">
<g opacity="0.2">
<g opacity="0.2">
<path opacity="0.2" fill-rule="evenodd" clip-rule="evenodd" d="M36.002 31.5218C30.7898 38.3499 15.114 55.9391 10.1348 51.7097C10.1394 52.4205 10.376 53.0971 11.0064 53.6645C16.5042 58.6158 34.4131 35.8297 34.4131 35.8297C34.808 35.8141 37.1884 31.0926 37.5753 31.0563C37.78 30.4105 36.9529 30.2761 36.002 31.5218Z" fill="#0F227A"/>
</g>
</g>
</g>
<g opacity="0.2">
<g opacity="0.2">
<g opacity="0.2">
<path opacity="0.2" fill-rule="evenodd" clip-rule="evenodd" d="M11.0441 26.8047C10.1069 28.1476 9.68081 29.57 9.6846 30.7176C9.69373 33.4021 12.0783 33.804 12.5269 33.8585C15.5811 32.7858 17.8608 29.0333 17.8608 29.0333C9.93697 33.7476 10.6957 28.3491 11.0441 26.8047Z" fill="#0F227A"/>
</g>
</g>
</g>
<path fill-rule="evenodd" clip-rule="evenodd" d="M13.2866 44.8789C13.2788 44.8802 13.2717 44.884 13.2639 44.8854L13.3354 46.0908C13.3354 46.0908 8.10132 51.041 11.0198 53.6693C12.95 55.4076 16.4158 53.6963 20.0937 50.7826C20.0886 50.7672 20.089 50.7525 20.0839 50.7371C18.1849 45.19 13.2866 44.8789 13.2866 44.8789Z" fill="#FF6910"/>
<g opacity="0.6">
<g opacity="0.6">
<g opacity="0.6">
<path opacity="0.6" fill-rule="evenodd" clip-rule="evenodd" d="M13.7208 45.5967C13.7208 45.5967 18.3926 47.7675 18.4786 50.1519C18.5093 51.0045 17.3917 52.4595 14.9876 53.9615C14.9876 53.9615 18.9815 51.7992 20.1835 50.7501C20.1835 50.7501 17.4303 43.9394 13.6045 45.8817" fill="#FDFDFD"/>
</g>
</g>
</g>
<g opacity="0.2">
<g opacity="0.2">
<g opacity="0.2">
<path opacity="0.2" fill-rule="evenodd" clip-rule="evenodd" d="M19.2514 48.8984C15.457 51.7778 12.0433 53.3075 10.1548 51.7264C10.1553 51.782 10.1512 51.8376 10.1548 51.8927C10.1588 51.956 10.1628 52.019 10.1711 52.0817C10.1889 52.2162 10.2201 52.3488 10.2588 52.4791C10.2751 52.5347 10.2905 52.5902 10.311 52.6451C10.3691 52.7993 10.4426 52.9488 10.5353 53.0948C10.5509 53.1193 10.5609 53.1454 10.5776 53.1698C10.6981 53.3458 10.8451 53.5143 11.0231 53.6748C11.0572 53.7056 11.0955 53.7276 11.1305 53.7562C11.2427 53.8468 11.3568 53.9312 11.4784 54.0006C11.5439 54.0385 11.6118 54.0697 11.68 54.1016C11.8016 54.1579 11.9275 54.2038 12.0573 54.2418C12.115 54.2587 12.1705 54.2806 12.2298 54.294C12.4218 54.3371 12.6209 54.3618 12.8281 54.369C12.861 54.3701 12.8956 54.3688 12.929 54.369C13.1063 54.3703 13.2914 54.356 13.4785 54.3331C13.5507 54.3241 13.6229 54.3161 13.6964 54.3038C13.7601 54.2931 13.8267 54.2746 13.8915 54.2614C14.1835 54.2016 14.4847 54.1166 14.7957 54.0073C14.8594 53.9849 14.9231 53.9662 14.9877 53.9421C15.7486 53.6549 16.5579 53.2387 17.401 52.7139C18.0915 52.2839 18.805 51.769 19.5278 51.2183C19.7158 51.075 19.9045 50.9284 20.0938 50.7785C20.0914 50.7667 20.0914 50.7546 20.0874 50.7426C19.8499 50.0492 19.567 49.4378 19.2514 48.8984Z" fill="#0F227A"/>
</g>
</g>
</g>
<g opacity="0.6">
<g opacity="0.6">
<g opacity="0.6">
<path opacity="0.6" fill-rule="evenodd" clip-rule="evenodd" d="M34.9058 35.227C34.9058 35.227 32.2065 33.4465 31.3046 34.1396C30.4024 34.8327 30.4461 35.2886 29.5664 35.377C28.6868 35.4655 23.9441 33.7756 23.4534 32.3345C22.9627 30.8934 23.6289 31.2663 23.4233 30.2898C23.2177 29.3135 20.1829 28.0201 18.114 27.5801C18.114 27.5801 17.4977 27.9483 18.1902 28.1484C20.6318 28.8543 22.5816 29.8803 22.6965 30.4623C22.7912 30.9421 22.3537 31.5392 22.69 32.5483C23.1171 33.829 28.0174 36.4139 29.4459 36.1819C31.0241 35.9255 30.9649 35.0668 31.6338 34.8418C32.029 34.7091 32.2007 34.7124 34.5133 35.6155" fill="#FDFDFD"/>
</g>
</g>
</g>
<g opacity="0.6">
<g opacity="0.6">
<g opacity="0.6">
<path opacity="0.6" fill-rule="evenodd" clip-rule="evenodd" d="M48.4467 21.4303C47.8558 21.4692 47.2267 21.6399 46.5898 21.8865C52.2502 22.0117 50.5836 27.2851 50.5836 27.2851C50.6112 27.2749 50.6375 27.2599 50.6649 27.2492C51.6909 25.4901 51.9067 23.8243 51.0779 22.665C50.3775 21.6856 49.4643 21.3634 48.4467 21.4303Z" fill="#FDFDFD"/>
</g>
</g>
</g>
<path d="M12.9728 54.7853C12.0938 54.7853 11.3471 54.5135 10.7488 53.9744C10.081 53.373 9.73682 52.6185 9.72613 51.7322C9.6965 49.2871 12.27 46.5654 12.9155 45.9213L12.2386 34.3356C11.0248 34.1158 9.21335 33.1853 9.20511 30.8C9.19909 29.0072 10.1293 26.4024 12.7585 24.4681C15.4792 22.4662 20.711 20.7118 30.1845 23.7228C34.807 25.1918 38.9598 25.3817 41.2934 24.2309C41.8369 23.9627 42.4406 23.6137 43.0799 23.2441C44.4407 22.4573 45.983 21.5654 47.4198 21.2005C49.1653 20.7576 50.5096 21.1751 51.4155 22.4419C52.219 23.5655 52.1941 25.1418 51.3451 26.8806C50.2784 29.0657 48.0422 31.3003 45.2099 33.0112C42.9718 34.3628 39.3327 36.0094 34.6433 36.2351C33.1682 38.0939 20.2185 54.1775 13.3635 54.7682C13.2305 54.7795 13.1002 54.7853 12.9728 54.7853ZM20.9914 22.938C17.2588 22.938 14.81 23.9935 13.2514 25.1405C10.8713 26.8917 10.0326 29.2824 10.0378 30.7973C10.0462 33.3174 12.5582 33.5425 12.6651 33.5508C12.8725 33.5671 13.0374 33.7342 13.0496 33.9422L13.7577 46.0624C13.7649 46.1853 13.7174 46.3054 13.6281 46.39C13.5971 46.4194 10.5289 49.3525 10.5586 51.7228C10.5668 52.3751 10.8109 52.9086 11.3054 53.354C11.8196 53.8171 12.4691 54.0079 13.292 53.9369C20.0559 53.3543 33.9682 35.7464 34.1078 35.5685C34.1831 35.4725 34.2967 35.4148 34.4186 35.4098C41.9735 35.1108 48.5772 30.6518 50.5971 26.5139C51.305 25.0637 51.3554 23.7899 50.7386 22.9275C49.1452 20.6993 46.1439 22.435 43.496 23.9662C42.8447 24.3429 42.2294 24.6986 41.6612 24.9791C38.0267 26.7715 32.2483 25.2536 29.9325 24.5176C26.3469 23.3782 23.4014 22.938 20.9914 22.938Z" fill="#0F227A"/>
<path d="M34.089 35.5997C34.3246 35.1858 34.5953 34.7931 34.8711 34.4057C35.1466 34.0176 35.4415 33.6429 35.734 33.2665C36.0274 32.8905 36.3241 32.5171 36.6228 32.1445L37.524 31.0272L37.5247 31.0263C37.5456 31.0004 37.5835 30.9964 37.6094 31.0174C37.6298 31.0339 37.6365 31.0613 37.6281 31.0847C37.4628 31.5433 37.2541 31.9809 37.04 32.4127C36.8226 32.8429 36.5954 33.2676 36.3577 33.6847C36.1194 34.1015 35.8797 34.5175 35.6159 34.9169C35.3526 35.317 35.0811 35.7102 34.7704 36.0786C34.6213 36.2554 34.3576 36.2775 34.1814 36.1282C34.025 35.9958 33.9898 35.7729 34.0881 35.6009L34.089 35.5997Z" fill="#0F227A"/>
<path d="M12.9456 54.7852C12.0744 54.7852 11.3371 54.5165 10.7417 53.9803C10.0739 53.3789 9.7297 52.6244 9.71901 51.7383C9.68916 49.2933 12.2629 46.5708 12.9088 45.9266L12.8487 44.9115C12.8371 44.7144 12.9645 44.5384 13.1505 44.4855C13.1728 44.4783 13.1951 44.4725 13.2176 44.4687C13.2492 44.4634 13.2813 44.4616 13.3134 44.4638C13.367 44.4674 14.6443 44.5564 16.1675 45.36C17.5682 46.0989 19.4529 47.608 20.478 50.6029C20.4898 50.6377 20.4956 50.6674 20.4989 50.6866C20.5366 50.8435 20.4805 51.0095 20.3524 51.1108C18.3155 52.7244 16.5297 53.8187 15.0448 54.3632C14.2768 54.6444 13.576 54.7852 12.9456 54.7852ZM13.7092 45.3625L13.7511 46.0672C13.7584 46.1903 13.7107 46.3104 13.6214 46.395C13.5905 46.4244 10.5218 49.3584 10.5514 51.7289C10.5597 52.3812 10.8038 52.9148 11.2983 53.3602C12.783 54.6973 15.5774 53.7815 19.6064 50.6368C18.1099 46.5813 14.8931 45.5925 13.7092 45.3625ZM20.488 50.6498C20.488 50.6498 20.488 50.65 20.488 50.6498C20.488 50.65 20.488 50.6498 20.488 50.6498ZM20.4878 50.6491C20.4878 50.6491 20.4878 50.6493 20.488 50.6493C20.4878 50.6493 20.4878 50.6493 20.4878 50.6491ZM13.2639 44.8865H13.265H13.2639Z" fill="#0F227A"/>
<path d="M29.3304 35.7216C27.5958 35.7216 23.3158 33.5956 23.0371 32.2581C22.8979 31.5891 23.0469 31.2015 23.1559 30.9181C23.2574 30.6539 23.2995 30.5447 23.1071 30.268C22.2738 29.0708 20.1618 28.6122 18.1196 28.1688C17.6291 28.0622 17.1219 27.9522 16.6477 27.8341C16.5082 27.7995 16.4234 27.6581 16.4579 27.5184C16.4926 27.3787 16.6341 27.293 16.7731 27.3282C17.2398 27.4443 17.7207 27.5487 18.2299 27.6594C20.3703 28.1242 22.5838 28.6047 23.5341 29.9699C23.8847 30.4735 23.7555 30.8094 23.6417 31.1055C23.5419 31.3648 23.4388 31.633 23.5466 32.1514C23.7557 33.1554 28.1502 35.4 29.4968 35.1892C30.1024 35.0952 30.2902 34.8591 30.5078 34.5855C30.7497 34.2814 31.0237 33.9368 31.7982 33.8875C32.99 33.809 34.8589 34.9093 34.9377 34.9562C35.0614 35.0294 35.1023 35.1892 35.0293 35.3132C34.9562 35.4371 34.7967 35.4781 34.6729 35.405C34.6548 35.3945 32.8637 34.3416 31.831 34.4077C31.2868 34.4423 31.1307 34.6387 30.9146 34.9102C30.6776 35.2081 30.3826 35.5792 29.5763 35.7042C29.5017 35.7158 29.4192 35.7216 29.3304 35.7216Z" fill="#0F227A"/>
<g opacity="0.6">
<g opacity="0.6">
<g opacity="0.6">
<path opacity="0.6" fill-rule="evenodd" clip-rule="evenodd" d="M49.3871 26.2933C49.3871 26.2933 47.8948 24.4632 44.3711 24.3664L44.9556 23.5586C44.9556 23.5584 49.6016 23.7809 49.3871 26.2933Z" fill="#FDFDFD"/>
</g>
</g>
</g>
<g opacity="0.2">
<g opacity="0.2">
<g opacity="0.2">
<path opacity="0.2" d="M45.7723 25.6246C45.5005 25.5044 45.1927 25.5635 44.9884 25.7541C44.9412 25.798 44.8998 25.8491 44.8652 25.9067C44.9301 26.2242 45.1379 26.7457 45.793 27.1804C45.8391 27.1242 45.885 27.0657 45.93 27.0048C45.93 27.0048 46.1797 27.0901 46.5441 27.1642C47.5467 27.3681 49.4259 27.4886 49.4259 25.5195C49.4259 25.5198 49.1118 27.1032 45.7723 25.6246Z" fill="#0F227A"/>
</g>
</g>
</g>
<path d="M46.6607 23.7523C47.0572 23.6572 47.4413 23.6867 47.8144 23.7735C48.1855 23.867 48.5457 24.0229 48.8898 24.2445C49.062 24.355 49.2266 24.4909 49.3777 24.6538C49.5265 24.8178 49.6621 25.0142 49.7497 25.244C49.839 25.4723 49.8735 25.7307 49.8497 25.9724C49.8419 26.032 49.8359 26.0929 49.8243 26.1509L49.7808 26.3209C49.7441 26.4292 49.71 26.5329 49.657 26.6369C49.5576 26.8431 49.4151 27.0402 49.2389 27.2002C49.0622 27.3602 48.8571 27.4813 48.6479 27.5639C48.2267 27.7301 47.801 27.7583 47.4043 27.7199C47.006 27.6804 46.6309 27.5715 46.2825 27.4115C45.937 27.2475 45.6087 27.0377 45.3516 26.7336C45.3251 26.7021 45.3289 26.655 45.3603 26.6285C45.3759 26.6151 45.3955 26.6095 45.4144 26.611L45.4178 26.6113C45.7953 26.6425 46.1419 26.6867 46.4836 26.7273C46.8233 26.7681 47.1541 26.809 47.4716 26.8224C47.787 26.8346 48.0957 26.8313 48.3517 26.7501C48.6083 26.6702 48.7963 26.5149 48.9007 26.2763C48.9299 26.2203 48.9495 26.1516 48.9673 26.0891L48.9861 25.9969C48.9903 25.9668 48.9901 25.9376 48.9934 25.9081C48.9963 25.7919 48.9736 25.6863 48.9252 25.583C48.8283 25.3779 48.6261 25.1744 48.3759 24.9943C48.126 24.8122 47.8362 24.6533 47.5384 24.4887C47.2419 24.3182 46.9378 24.137 46.6336 23.8884L46.6304 23.8859C46.5977 23.8592 46.5928 23.8109 46.6195 23.7784C46.6304 23.7648 46.6451 23.7561 46.6607 23.7523Z" fill="#0F227A"/>
<g opacity="0.2">
<g opacity="0.2">
<g opacity="0.2">
<path opacity="0.2" fill-rule="evenodd" clip-rule="evenodd" d="M46.3738 22.125C44.7477 22.8395 43.0846 23.9472 41.7458 24.6076C38.8369 26.0424 34.1047 25.3227 30.3271 24.1222C25.1904 22.4896 21.224 22.2629 18.1895 22.8125C20.7335 27.9693 26.0045 31.5214 32.1158 31.5214C38.4965 31.5212 43.9743 27.6538 46.3738 22.125Z" fill="#0F227A"/>
</g>
</g>
</g>
<path fill-rule="evenodd" clip-rule="evenodd" d="M42.4987 18.8961C43.3256 16.4827 45.3871 15.0046 47.1037 15.5946C48.8202 16.1846 49.5415 18.6194 48.7148 21.0328C47.8882 23.4461 45.8264 24.9243 44.1101 24.3343C42.3933 23.744 41.6721 21.3095 42.4987 18.8961Z" fill="#FF6910"/>
<g opacity="0.2">
<g opacity="0.2">
<g opacity="0.2">
<g opacity="0.2">
<path opacity="0.2" fill-rule="evenodd" clip-rule="evenodd" d="M42.6063 18.5352C42.5729 18.6208 42.5292 18.6978 42.499 18.7862C41.6723 21.1996 42.3923 23.6337 44.1088 24.2239C45.8253 24.8139 47.8874 23.3369 48.714 20.9235C48.939 20.2664 49.039 19.6107 49.0457 18.9882C48.1642 21.2462 46.2016 22.6063 44.5478 22.0377C43.2989 21.6084 42.5885 20.1992 42.6063 18.5352Z" fill="#1D386A"/>
</g>
</g>
</g>
<g opacity="0.2">
<g opacity="0.2">
<g opacity="0.2">
<path opacity="0.2" d="M44.8967 24.4104C44.6216 24.4104 44.3514 24.3662 44.0912 24.2767C42.349 23.6778 41.6115 21.2066 42.4466 18.768C42.4647 18.7154 42.4872 18.6667 42.5088 18.6199C42.5248 18.5853 42.5406 18.5509 42.5546 18.5148L42.6656 18.2305L42.6622 18.5357C42.644 20.2272 43.3913 21.5809 44.5661 21.985C46.1737 22.5368 48.1181 21.212 48.994 18.9678L49.1049 18.6839L49.1016 18.9885C49.0945 19.6566 48.9817 20.3136 48.767 20.9413C48.3634 22.1193 47.657 23.115 46.7778 23.745C46.1646 24.1848 45.5179 24.4104 44.8967 24.4104ZM42.5542 18.7979C42.5535 18.8002 42.5526 18.8022 42.552 18.8044C41.7367 21.1848 42.4433 23.5926 44.1273 24.1714C44.9401 24.4506 45.8583 24.2674 46.713 23.6548C47.5735 23.0382 48.2656 22.0617 48.6617 20.9056C48.8401 20.3848 48.9468 19.8432 48.9795 19.292C48.0328 21.4184 46.124 22.639 44.53 22.0908C43.3713 21.6922 42.6126 20.4147 42.5542 18.7979Z" fill="#0F227A"/>
</g>
</g>
</g>
</g>
<g opacity="0.6">
<g opacity="0.6">
<g opacity="0.6">
<path opacity="0.6" fill-rule="evenodd" clip-rule="evenodd" d="M46.5996 15.3664C46.1367 15.3427 45.6658 15.4552 45.2109 15.6728C48.6175 16.9702 49.0149 19.5826 49.0648 20.1918C49.5272 18.0393 48.7973 16.0231 47.2565 15.4936C47.0417 15.4197 46.8217 15.3778 46.5996 15.3664Z" fill="#FDFDFD"/>
</g>
</g>
</g>
<path d="M44.8824 24.8761C44.5755 24.8761 44.2712 24.8274 43.9754 24.7259C42.0445 24.062 41.2056 21.3849 42.1056 18.7577C43.0055 16.1306 45.3081 14.5335 47.2394 15.1971C49.1702 15.861 50.0089 18.5381 49.1092 21.1651C48.3471 23.3899 46.5787 24.8761 44.8824 24.8761ZM42.893 19.0284C42.1421 21.2204 42.7489 23.4225 44.2456 23.937C44.459 24.0105 44.679 24.0455 44.9018 24.0455C46.2417 24.0457 47.6775 22.7742 48.3215 20.8946C49.0722 18.7026 48.4654 16.5008 46.9689 15.9862C45.4723 15.4714 43.6439 16.8364 42.893 19.0284Z" fill="#0F227A"/>
<path fill-rule="evenodd" clip-rule="evenodd" d="M17.9863 14.752C17.9863 6.90243 24.6816 0.539062 32.9407 0.539062C41.1997 0.539062 47.895 6.90243 47.895 14.752C47.895 22.6013 41.1997 28.9647 32.9407 28.9647C24.6816 28.9647 17.9863 22.6013 17.9863 14.752Z" fill="#E8C49C"/>
<g opacity="0.6">
<g opacity="0.6">
<g opacity="0.6">
<path opacity="0.6" fill-rule="evenodd" clip-rule="evenodd" d="M32.9823 0.539062C28.4582 0.539062 24.413 2.45793 21.6709 5.47515C24.3604 3.21799 30.3587 0.210362 37.6169 2.58513C38.3391 2.82145 38.9964 3.11288 39.6235 3.42574C39.5045 3.70981 40.0146 4.32213 40.8041 4.82668C41.5554 5.3069 42.2863 5.5151 42.5342 5.33836C46.603 8.81728 47.7351 13.7049 47.9362 14.7509C47.9362 6.90131 41.2414 0.539062 32.9823 0.539062Z" fill="#FDFDFD"/>
</g>
</g>
</g>
<g opacity="0.6">
<g opacity="0.6">
<g opacity="0.6">
<g opacity="0.6">
<path opacity="0.6" fill-rule="evenodd" clip-rule="evenodd" d="M32.9388 0.226562C32.7012 0.226562 32.4713 0.252002 32.2363 0.262267C32.2075 0.553255 32.1875 0.847367 32.1875 1.14527C32.1875 1.23431 32.198 1.32067 32.2004 1.40926C33.8831 1.40614 35.6834 1.65428 37.5732 2.27263C38.2954 2.50895 38.9527 2.80038 39.5798 3.11324C39.4608 3.39731 39.971 4.00986 40.7604 4.51418C41.5117 4.9944 42.2426 5.2026 42.4905 5.02564C44.2035 6.4904 45.3732 8.19393 46.1949 9.76625C46.4413 9.66405 46.6912 9.56698 46.9267 9.44692C46.7941 9.11175 46.6518 8.78238 46.4941 8.4597C46.4934 8.45836 46.4914 8.45792 46.4909 8.45658C46.4894 8.45345 46.4892 8.44988 46.4876 8.44676C46.0131 7.47873 45.4253 6.57096 44.7443 5.73593C44.5343 5.47819 44.3122 5.2267 44.0841 4.98346C44.0424 4.93928 43.9994 4.89688 43.9571 4.85314C43.7317 4.61861 43.5023 4.38854 43.261 4.16896C43.2588 4.16696 43.2568 4.1645 43.2546 4.16249C43.241 4.15 43.2261 4.13906 43.2122 4.12657C42.7801 3.73627 42.3186 3.37767 41.8396 3.03826C41.7176 2.95212 41.6002 2.86041 41.4754 2.77762C41.2903 2.65466 41.0974 2.54086 40.9063 2.42571C40.7359 2.32351 40.5644 2.22197 40.3893 2.12602C40.185 2.01378 39.9783 1.90666 39.768 1.80357C39.5863 1.71453 39.4009 1.6313 39.2151 1.5494C39.0251 1.46549 38.8371 1.37824 38.6427 1.3017C38.2658 1.15375 37.8831 1.01986 37.4915 0.900923C37.3503 0.858079 37.205 0.825945 37.0622 0.786894C36.7664 0.706336 36.4677 0.62868 36.1645 0.565305C35.9957 0.529824 35.8248 0.500591 35.654 0.470689C35.37 0.42115 35.0846 0.377859 34.7955 0.343717C34.6387 0.325195 34.4821 0.305558 34.3239 0.291499C33.8684 0.251779 33.4057 0.226562 32.9388 0.226562Z" fill="#FDFDFD"/>
</g>
</g>
</g>
<g opacity="0.6">
<g opacity="0.6">
<g opacity="0.6">
<path opacity="0.6" d="M46.1693 9.83664L46.1457 9.79134C45.1696 7.92357 43.938 6.34321 42.4847 5.09335C42.1849 5.24554 41.4634 5.02886 40.7303 4.56046C39.9549 4.06485 39.45 3.4706 39.5132 3.14167C38.8013 2.78842 38.1783 2.52868 37.5559 2.32494C35.8004 1.75055 33.9965 1.46269 32.2004 1.46425H32.1463L32.1448 1.41002C32.1436 1.37276 32.1412 1.33594 32.1387 1.29934C32.1352 1.24802 32.1318 1.19691 32.1318 1.1447C32.1318 0.878033 32.1474 0.595747 32.1808 0.256335L32.1855 0.208135L32.2339 0.205903C32.3203 0.202109 32.406 0.196308 32.4918 0.190282C33.0516 0.152124 33.6501 0.176224 34.3291 0.235582C34.4614 0.247186 34.5921 0.262806 34.7231 0.278427L34.8024 0.287799C35.0751 0.319933 35.3569 0.361662 35.664 0.415218L35.709 0.423029C35.8627 0.449807 36.0216 0.477477 36.1764 0.510057C36.4971 0.577002 36.8119 0.660015 37.0772 0.732315C37.1324 0.747266 37.1879 0.761325 37.2434 0.775383C37.3322 0.797922 37.4209 0.820237 37.508 0.846792C37.8905 0.96283 38.2792 1.09806 38.6634 1.24891C38.814 1.30827 38.9626 1.37454 39.1065 1.43881L39.2381 1.4975C39.4159 1.57582 39.6061 1.66107 39.793 1.75256C40.0064 1.85744 40.2162 1.96634 40.4165 2.07635C40.5945 2.17387 40.7711 2.27853 40.9353 2.37716L41.0235 2.43027C41.1834 2.52622 41.3487 2.62552 41.5066 2.73041C41.5842 2.78173 41.6588 2.83663 41.7334 2.89152C41.7795 2.92522 41.8254 2.95914 41.8722 2.99194C42.3979 3.3646 42.8485 3.72186 43.2499 4.08448C43.2561 4.09029 43.2626 4.09542 43.2691 4.10077C43.2769 4.10724 43.2849 4.11372 43.2922 4.12041C43.5105 4.31991 43.7326 4.53815 43.9975 4.81374L44.0485 4.86596C44.0741 4.89184 44.0995 4.91773 44.1247 4.94451C44.3637 5.19957 44.5866 5.45351 44.7873 5.70009C45.4799 6.54963 46.0688 7.46522 46.5373 8.42142L46.5438 8.43414C46.6937 8.74074 46.8358 9.06498 46.9783 9.42582L46.9971 9.4729L46.9518 9.49589C46.7587 9.5943 46.5538 9.67842 46.3555 9.75965L46.1693 9.83664ZM42.4937 4.95432L42.5266 4.98266C43.9923 6.23566 45.2349 7.82092 46.2205 9.69471L46.3132 9.65656C46.4939 9.58247 46.6799 9.50615 46.8558 9.41935C46.7224 9.08462 46.5892 8.7818 46.4495 8.49506L46.4486 8.49439L46.4351 8.46471C45.9724 7.52167 45.3883 6.61323 44.7009 5.77039C44.5016 5.52581 44.2804 5.27365 44.0433 5.0206C44.0191 4.99471 43.9941 4.9695 43.9689 4.94406L43.917 4.89095C43.654 4.61692 43.4337 4.40046 43.2236 4.20922C43.2111 4.1974 43.2049 4.19204 43.1984 4.18691C43.1904 4.18044 43.1824 4.17374 43.1748 4.16683C42.777 3.80755 42.3297 3.45274 41.8078 3.08298C41.7606 3.04973 41.714 3.01559 41.6675 2.98123C41.5942 2.92745 41.5211 2.87367 41.4449 2.82324C41.2892 2.71992 41.1248 2.62106 40.966 2.52578L40.8778 2.47267C40.7145 2.3747 40.539 2.27049 40.3628 2.17409C40.1639 2.06497 39.9556 1.95674 39.7438 1.85275C39.5584 1.76216 39.3695 1.67736 39.1929 1.59948L39.0608 1.54057C38.9182 1.47675 38.7706 1.41092 38.6224 1.35267C38.2411 1.20294 37.8553 1.0686 37.4755 0.953234C37.3899 0.927126 37.3031 0.905257 37.216 0.883388C37.1598 0.86933 37.1035 0.855048 37.0478 0.839874C36.784 0.768019 36.4713 0.685677 36.1534 0.619178C36.0004 0.587044 35.8425 0.559374 35.6897 0.532819L35.6444 0.524785C35.3393 0.471452 35.0595 0.430169 34.7888 0.398259L34.7095 0.388887C34.5797 0.373266 34.45 0.357869 34.3191 0.346488C33.6475 0.287799 33.0589 0.263253 32.4992 0.301411C32.4285 0.306098 32.3577 0.311007 32.2869 0.314801C32.2568 0.629443 32.243 0.8941 32.243 1.14447C32.243 1.19401 32.2463 1.24288 32.2497 1.29153C32.251 1.31184 32.2523 1.33214 32.2537 1.35245C34.046 1.35491 35.8411 1.64634 37.5904 2.21872C38.2302 2.42804 38.8703 2.69626 39.6045 3.06245L39.6513 3.08566L39.6311 3.13386C39.5373 3.35835 39.9536 3.93163 40.7903 4.46629C41.5784 4.96995 42.2573 5.12236 42.4582 4.97954L42.4937 4.95432Z" fill="#0F227A"/>
</g>
</g>
</g>
</g>
<path fill-rule="evenodd" clip-rule="evenodd" d="M32.9818 0.539062C32.7446 0.539062 32.5138 0.561378 32.2793 0.571643C32.2503 0.863523 32.2305 1.15875 32.2305 1.45777C32.2305 6.66544 36.7054 10.8866 42.2247 10.8866C43.9417 10.8866 45.5585 10.4791 46.9698 9.75942C44.8412 4.37614 39.3898 0.539062 32.9818 0.539062Z" fill="#EA5656"/>
<path d="M42.2248 10.9437C36.6833 10.9437 32.1748 6.68885 32.1748 1.4591C32.1748 1.18908 32.1904 0.905683 32.2238 0.567387L32.2285 0.519187L32.2768 0.516955C32.3581 0.513385 32.4392 0.508252 32.5201 0.503343C32.6702 0.49397 32.8255 0.484375 32.9818 0.484375C36.0944 0.484375 39.0786 1.38367 41.6118 3.0852C44.087 4.74789 45.9577 7.04902 47.0215 9.73999L47.0403 9.7873L46.995 9.81028C45.5411 10.5518 43.8914 10.9437 42.2248 10.9437ZM32.3301 0.626299C32.3002 0.940048 32.2862 1.20582 32.2862 1.4591C32.2862 6.62749 36.7446 10.8321 42.2248 10.8321C43.8569 10.8321 45.4721 10.4525 46.8993 9.73397C44.7138 4.26611 39.1276 0.596173 32.9818 0.596173C32.829 0.596173 32.6756 0.605769 32.527 0.614918C32.4613 0.618935 32.3958 0.622952 32.3301 0.626299Z" fill="#0F227A"/>
<g opacity="0.2">
<g opacity="0.2">
<g opacity="0.2">
<path opacity="0.2" fill-rule="evenodd" clip-rule="evenodd" d="M18.866 10.7383C18.4269 12.0763 18.1895 13.5016 18.1895 14.977C18.1895 22.8266 24.8843 29.1888 33.1436 29.1888C39.3417 29.1888 44.6588 25.6057 46.9266 20.4996C44.0491 23.9903 39.5996 27.5819 33.8276 27.2829C23.8641 26.7667 18.8366 19.5503 18.8366 11.2986C18.8368 11.1092 18.8586 10.9262 18.866 10.7383Z" fill="#0F227A"/>
</g>
</g>
</g>
<path d="M32.94 29.3845C24.4647 29.3845 17.5693 22.8216 17.5693 14.7548C17.5693 6.68786 24.4647 0.125 32.94 0.125C41.4153 0.125 48.3106 6.68786 48.3106 14.7548C48.3106 22.8216 41.4153 29.3845 32.94 29.3845ZM32.94 0.958914C24.9238 0.958914 18.402 7.14777 18.402 14.7548C18.402 22.3617 24.9238 28.5506 32.94 28.5506C40.9562 28.5506 47.478 22.3617 47.478 14.7548C47.478 7.14777 40.9562 0.958914 32.94 0.958914Z" fill="#0F227A"/>
<path fill-rule="evenodd" clip-rule="evenodd" d="M23.2771 13.4158C24.2971 8.21592 30.0717 4.41901 35.8981 5.63406C41.7244 6.8489 46.5695 11.9776 45.4431 17.6454C44.2589 23.6024 37.8481 26.4607 32.0217 25.2457C26.1954 24.0308 22.2571 18.6156 23.2771 13.4158Z" fill="white"/>
<g opacity="0.2">
<g opacity="0.2">
<g opacity="0.2">
<g opacity="0.2">
<path opacity="0.2" fill-rule="evenodd" clip-rule="evenodd" d="M24.2577 10.6465C23.7583 11.5036 23.3965 12.4346 23.2038 13.416C22.1838 18.6159 26.123 24.0311 31.9493 25.2461C37.4115 26.3851 43.3871 23.9447 45.0885 18.7268C42.7636 22.758 37.5438 24.5521 32.7167 23.5455C26.8904 22.3307 22.9514 16.9152 23.9712 11.7154C24.0429 11.3501 24.1407 10.9964 24.2577 10.6465Z" fill="#1D386A"/>
</g>
</g>
</g>
<g opacity="0.2">
<g opacity="0.2">
<g opacity="0.2">
<path opacity="0.2" d="M34.6385 25.5796C33.739 25.5796 32.8331 25.4873 31.938 25.3007C29.1151 24.712 26.6385 23.1344 24.9645 20.8587C23.2961 18.5903 22.6515 15.9435 23.1493 13.4054C23.3391 12.4381 23.6959 11.5004 24.2096 10.6187L24.4814 10.1523L24.3105 10.6645C24.1862 11.0371 24.0931 11.3846 24.0261 11.7262C23.0096 16.9078 26.9949 22.2955 32.7282 23.4909C37.7466 24.5373 42.8097 22.5669 45.0402 18.6988L45.3068 18.2364L45.1413 18.7441C44.3361 21.2139 42.4934 23.2301 39.9527 24.4208C38.3175 25.1876 36.4922 25.5796 34.6385 25.5796ZM24.0466 11.1512C23.6768 11.8806 23.4122 12.644 23.2587 13.4271C22.2423 18.6086 26.2275 23.9962 31.9608 25.1918C32.8856 25.3846 33.8054 25.4774 34.704 25.4774C39.2936 25.4777 43.3419 23.0592 44.856 19.21C42.4778 22.8168 37.5699 24.615 32.7057 23.6003C29.8827 23.0116 27.4061 21.4339 25.7321 19.158C24.0637 16.8897 23.4191 14.2429 23.9169 11.7048C23.9526 11.5225 23.9955 11.3391 24.0466 11.1512Z" fill="#0F227A"/>
</g>
</g>
</g>
</g>
<path d="M34.6737 25.9338C33.7589 25.9338 32.8391 25.8416 31.9365 25.6535C29.0267 25.0468 26.473 23.4196 24.7465 21.072C23.0177 18.7213 22.3505 15.9735 22.8682 13.3349C23.3632 10.8116 24.9873 8.4736 27.324 6.9207C29.872 5.22721 33.028 4.60931 35.9826 5.22542C38.9532 5.84489 41.7281 7.47612 43.5961 9.70116C45.6035 12.0922 46.4043 14.9423 45.8508 17.7265C45.3403 20.295 43.8805 22.4413 41.6294 23.9335C39.6585 25.2394 37.185 25.9338 34.6737 25.9338ZM23.6851 13.4956C22.706 18.4873 26.5624 23.6811 32.106 24.837C35.2738 25.4975 38.6621 24.8997 41.1699 23.2377C43.2317 21.8711 44.568 19.909 45.0342 17.5636C46.1658 11.8706 41.1287 7.15032 35.8126 6.04193C33.0743 5.47067 30.148 6.04461 27.7842 7.61559C25.6317 9.04621 24.1375 11.1896 23.6851 13.4956Z" fill="#0F227A"/>
<path fill-rule="evenodd" clip-rule="evenodd" d="M16.7184 9.06393C17.5453 6.65055 19.6069 5.1724 21.3234 5.76264C23.0399 6.35265 23.7612 8.78744 22.9346 11.2008C22.1077 13.6142 20.0461 15.0923 18.3296 14.5023C16.6131 13.9123 15.8918 11.4775 16.7184 9.06393Z" fill="#FF6910"/>
<g opacity="0.6">
<g opacity="0.6">
<g opacity="0.6">
<path opacity="0.6" fill-rule="evenodd" clip-rule="evenodd" d="M20.6682 5.77276C19.1125 5.69331 17.4434 7.08867 16.7199 9.20035C16.6165 9.50205 16.5386 9.80419 16.4824 10.1028C17.3394 7.77218 19.3493 6.35741 21.0324 6.93582C22.5313 7.45107 23.2697 9.37217 22.8828 11.458C22.8982 11.4162 22.9204 11.3799 22.9349 11.3375C23.7618 8.92409 23.0416 6.48996 21.3251 5.89973C21.1106 5.82609 20.8905 5.78414 20.6682 5.77276Z" fill="#FDFDFD"/>
</g>
</g>
</g>
<path fill-rule="evenodd" clip-rule="evenodd" d="M16.7643 8.85769C17.3836 7.29653 18.5236 6.43807 19.3106 6.94038C20.0978 7.44247 20.2337 9.11499 19.6145 10.6759C18.9952 12.2371 17.8551 13.0955 17.0682 12.5935C16.2809 12.0914 16.1451 10.4189 16.7643 8.85769Z" fill="white"/>
<g opacity="0.2">
<g opacity="0.2">
<g opacity="0.2">
<path opacity="0.2" fill-rule="evenodd" clip-rule="evenodd" d="M16.9693 8.28516C16.8456 8.53352 16.7314 8.7926 16.6376 9.06708C15.8109 11.4804 16.5311 13.9146 18.2474 14.5048C19.964 15.0948 22.026 13.6144 22.8526 11.2011C22.9809 10.8268 23.0602 10.4553 23.1161 10.0869C22.1527 12.0245 20.364 13.1315 18.8426 12.6085C17.3927 12.1102 16.6661 10.2908 16.9693 8.28516Z" fill="#0F227A"/>
</g>
</g>
</g>
<path d="M19.1021 15.0476C18.7952 15.0476 18.4909 14.999 18.1951 14.8974C16.2643 14.2336 15.4254 11.5564 16.3253 8.92927C16.753 7.68074 17.5059 6.62211 18.4455 5.94842C19.4276 5.24416 20.4979 5.03819 21.4591 5.36868C22.42 5.69894 23.1387 6.51969 23.4824 7.67985C23.8111 8.78935 23.7566 10.0881 23.3289 11.3366C22.5668 13.5612 20.7984 15.0476 19.1021 15.0476ZM17.1127 9.19995C16.3618 11.392 16.9686 13.594 18.4653 14.1086C18.6787 14.182 18.8988 14.217 19.1215 14.217C20.4614 14.2173 21.8975 12.9458 22.5414 11.0662C22.9134 9.98031 22.964 8.8621 22.6842 7.91728C22.4194 7.02289 21.8883 6.39807 21.1889 6.15774C20.4892 5.91718 19.6873 6.08387 18.9302 6.6268C18.1303 7.2003 17.4847 8.1141 17.1127 9.19995Z" fill="#0F227A"/>
<path fill-rule="evenodd" clip-rule="evenodd" d="M32.9818 0.539062C32.7446 0.539062 32.5138 0.561378 32.2793 0.571643C32.2503 0.863523 32.2305 1.15875 32.2305 1.45777C32.2305 4.78339 34.0555 7.70666 36.8118 9.3852C38.3718 10.3352 40.2302 10.8866 42.2247 10.8866C43.9417 10.8866 45.5585 10.4791 46.9698 9.75942C44.8412 4.37614 39.3898 0.539062 32.9818 0.539062Z" fill="#FF6910"/>
<g opacity="0.6">
<g opacity="0.6">
<g opacity="0.6">
<path opacity="0.6" fill-rule="evenodd" clip-rule="evenodd" d="M32.9818 0.539062C32.7441 0.539062 32.514 0.564502 32.2793 0.57499C32.2505 0.865978 32.2305 1.16009 32.2305 1.458C32.2305 1.54703 32.2409 1.63339 32.2434 1.72198C33.9261 1.71886 35.7264 1.967 37.6162 2.58535C38.3384 2.82167 38.9957 3.1131 39.6228 3.42596C39.5038 3.71003 40.0139 4.32236 40.8034 4.8269C41.5547 5.30712 42.2856 5.51532 42.5335 5.33859C44.2465 6.80335 45.4161 8.50688 46.2379 10.079C46.4842 9.97677 46.7342 9.87992 46.9696 9.75965C46.8371 9.42447 46.6947 9.0951 46.537 8.77243C46.5364 8.77109 46.5344 8.77042 46.5337 8.7693C46.5321 8.76618 46.5321 8.76261 46.5303 8.75948C46.0559 7.79146 45.4678 6.88368 44.7871 6.04887C44.5768 5.79113 44.3549 5.53964 44.1268 5.29619C44.0854 5.252 44.0422 5.2096 44.0001 5.16587C43.7749 4.93156 43.5452 4.70149 43.304 4.48169C43.3018 4.47968 43.2998 4.47722 43.2975 4.47522C43.2839 4.46272 43.269 4.45178 43.2552 4.43951C42.8231 4.04922 42.3615 3.69062 41.8828 3.35121C41.7608 3.26507 41.6434 3.17313 41.5186 3.09057C41.3335 2.96761 41.1406 2.8538 40.9495 2.73866C40.7791 2.63623 40.6076 2.53492 40.4322 2.43897C40.228 2.32672 40.0213 2.21961 39.8112 2.11629C39.6294 2.02748 39.4441 1.94424 39.2583 1.86212C39.0683 1.77799 38.8803 1.69097 38.6859 1.61443C38.309 1.46648 37.9263 1.33259 37.5347 1.21365C37.3934 1.1708 37.2482 1.13867 37.1054 1.09962C36.8094 1.01906 36.5109 0.941403 36.2077 0.878028C36.0389 0.84277 35.868 0.813538 35.697 0.783636C35.4132 0.734096 35.1276 0.690582 34.8382 0.65644C34.6814 0.637918 34.5251 0.618281 34.3667 0.604222C33.9111 0.564502 33.4487 0.539062 32.9818 0.539062Z" fill="#FDFDFD"/>
</g>
</g>
</g>
<path d="M17.5572 13.1542C17.3039 13.1542 17.0631 13.0841 16.845 12.9449C15.8829 12.3314 15.678 10.4684 16.3779 8.70347C16.8363 7.54821 17.5736 6.7085 18.3504 6.45679C18.7747 6.3191 19.1844 6.36462 19.5348 6.58822C20.4968 7.20188 20.702 9.06497 20.0017 10.8296C19.5434 11.9849 18.8061 12.8248 18.0292 13.0763C17.869 13.1285 17.7109 13.1542 17.5572 13.1542ZM17.1517 9.01141C16.5659 10.4884 16.7555 11.899 17.2923 12.2415C17.4302 12.3294 17.5874 12.3428 17.7732 12.283C18.3005 12.1121 18.8714 11.421 19.2283 10.5217C19.8143 9.04489 19.6245 7.63435 19.0877 7.29181C18.9496 7.20389 18.7923 7.19006 18.6068 7.25031C18.0795 7.42102 17.5084 8.11256 17.1517 9.01141Z" fill="#0F227A"/>
<path d="M42.2241 11.3049C36.4837 11.3049 31.8135 6.88808 31.8135 1.45905C31.8135 1.17676 31.8297 0.882205 31.8643 0.531636C31.8848 0.325221 32.0534 0.165222 32.2603 0.156073C32.3396 0.152503 32.4183 0.147593 32.4971 0.142684C32.6526 0.133089 32.8136 0.123047 32.9812 0.123047C36.1654 0.123047 39.2191 1.04354 41.8118 2.78501C44.348 4.48854 46.265 6.84769 47.3561 9.60695C47.4352 9.80689 47.3494 10.0345 47.1578 10.1322C45.6536 10.8994 43.9473 11.3049 42.2241 11.3049ZM32.6633 0.968341C32.6517 1.14329 32.6461 1.30396 32.6461 1.45905C32.6461 6.42817 36.9428 10.4708 42.2241 10.4708C43.686 10.4708 45.1335 10.1555 46.4346 9.55652C44.2186 4.39705 38.8634 0.957184 32.9812 0.957184C32.876 0.957184 32.7713 0.962093 32.6633 0.968341Z" fill="#0F227A"/>
<path fill-rule="evenodd" clip-rule="evenodd" d="M31.7302 12.3442C32.0523 11.3483 32.8549 10.7165 33.5234 10.9332C34.1918 11.1501 34.4725 12.1333 34.1506 13.1294C33.8285 14.1256 33.0257 14.7573 32.3575 14.5404C31.6888 14.3235 31.4081 13.3403 31.7302 12.3442Z" fill="#0F227A"/>
<path fill-rule="evenodd" clip-rule="evenodd" d="M32.8723 12.2169C32.9766 11.8943 33.2367 11.6896 33.453 11.7599C33.6695 11.8302 33.7604 12.1484 33.6562 12.4711C33.5519 12.7938 33.2918 12.9984 33.0752 12.9281C32.8589 12.858 32.7681 12.5396 32.8723 12.2169Z" fill="#FDFEFD"/>
<path fill-rule="evenodd" clip-rule="evenodd" d="M33.1625 15.7616C34.1497 15.2771 38.2346 16.8153 38.5382 17.9824C38.8416 19.1494 36.6094 21.8123 33.684 20.699C31.1185 19.7227 31.8148 16.423 33.1625 15.7616Z" fill="#0F227A"/>
<path fill-rule="evenodd" clip-rule="evenodd" d="M32.5433 17.0156C32.4121 17.0156 32.2865 17.0408 32.1595 17.058C31.7064 18.3108 31.9223 20.0393 33.6687 20.7039C34.385 20.9765 35.0593 21.0185 35.6657 20.9156C35.6786 20.7866 35.7013 20.661 35.7013 20.528C35.7013 18.5877 34.2875 17.0156 32.5433 17.0156Z" fill="#D7557A"/>
<path d="M35.0557 21.0221C34.587 21.0221 34.1161 20.9331 33.649 20.7552C31.9062 20.092 31.6282 18.3635 32.1073 17.0382L32.1189 17.0063L32.1523 17.0018C32.1824 16.9976 32.2124 16.9931 32.2425 16.9887C32.3394 16.9742 32.4397 16.959 32.5437 16.959C34.3157 16.959 35.7573 18.5596 35.7573 20.5269C35.7573 20.6231 35.7458 20.7155 35.7346 20.805C35.7299 20.8431 35.725 20.8815 35.7213 20.9201L35.717 20.9625L35.6751 20.9697C35.4693 21.0047 35.2626 21.0221 35.0557 21.0221ZM32.2009 17.1078C31.7551 18.3791 32.0298 20.0197 33.6886 20.6508C34.3293 20.8947 34.9773 20.9668 35.615 20.8666C35.6179 20.8414 35.621 20.8164 35.6241 20.7914C35.6353 20.7014 35.646 20.6164 35.646 20.5272C35.646 18.6212 34.2544 17.0708 32.5437 17.0708C32.4479 17.0708 32.3561 17.0846 32.259 17.0993C32.2396 17.102 32.2202 17.1049 32.2009 17.1078Z" fill="#0F227A"/>
<path d="M35.0771 21.3773C34.5652 21.3773 34.045 21.2825 33.5363 21.0888C32.3287 20.6293 31.6021 19.6298 31.5428 18.3467C31.4847 17.0902 32.1024 15.8178 32.9796 15.3871C33.8512 14.9595 35.8536 15.6609 36.7905 16.0916C37.6643 16.4932 38.7469 17.1292 38.9414 17.877C39.1231 18.5759 38.685 19.5491 37.8512 20.2986C37.0616 21.0085 36.0859 21.3773 35.0771 21.3773ZM33.3458 16.136C32.768 16.4196 32.3321 17.3941 32.3744 18.3081C32.3998 18.858 32.623 19.8492 33.8319 20.3091C35.5827 20.9752 36.837 20.0895 37.295 19.6778C37.9312 19.1059 38.2219 18.4199 38.1355 18.0874C38.0702 17.8359 37.5126 17.3414 36.4432 16.8498C35.0583 16.213 33.6993 15.9624 33.3458 16.136Z" fill="#0F227A"/>
<path d="M28.9154 18.0566C28.9125 18.0566 28.9096 18.0566 28.9067 18.0566C28.7893 18.0541 26.0174 17.9905 24.7506 17.3869C22.3571 16.2464 20.6279 11.8291 20.5555 11.6417C20.4726 11.427 20.5791 11.1856 20.7934 11.1023C21.0081 11.0195 21.2489 11.1258 21.332 11.3406C21.3485 11.3835 23.0138 15.6359 25.1083 16.634C26.2136 17.1606 28.8969 17.2225 28.9239 17.2229C29.1537 17.2276 29.3362 17.4182 29.3315 17.6484C29.3266 17.8756 29.1413 18.0566 28.9154 18.0566Z" fill="#0F227A"/>
<path fill-rule="evenodd" clip-rule="evenodd" d="M29.0057 16.3194L31.0332 16.551C31.7739 16.6356 32.3061 17.3057 32.2214 18.0477C32.137 18.7896 31.4681 19.3228 30.7274 19.238L28.7001 19.0066C27.9595 18.922 27.4273 18.2519 27.5117 17.5099C27.5962 16.7677 28.2651 16.2348 29.0057 16.3194Z" fill="#ECB35B"/>
<path d="M30.883 19.3018C30.8293 19.3018 30.7752 19.2986 30.7208 19.2924L28.6936 19.061C27.9235 18.9728 27.3686 18.2737 27.4564 17.5025C27.5442 16.7311 28.2418 16.1759 29.0121 16.2629L31.0396 16.4945C31.4127 16.5371 31.7466 16.7226 31.9803 17.0171C32.214 17.3115 32.3193 17.6794 32.2768 18.053C32.2342 18.4268 32.0491 18.7615 31.7553 18.9956C31.5041 19.1958 31.1991 19.3018 30.883 19.3018ZM28.8519 16.3653C28.2033 16.3653 27.6422 16.8545 27.5669 17.515C27.486 18.2253 27.9972 18.8691 28.7063 18.9501L30.7335 19.1815C31.0773 19.2212 31.4152 19.1237 31.6858 18.9081C31.9565 18.6926 32.1269 18.3844 32.1661 18.0403C32.2053 17.6962 32.1084 17.3574 31.8932 17.0865C31.678 16.8156 31.3704 16.6447 31.0269 16.6054L28.9994 16.3738C28.95 16.3682 28.9007 16.3653 28.8519 16.3653Z" fill="#0F227A"/>
<path fill-rule="evenodd" clip-rule="evenodd" d="M29.0057 16.3174L31.0332 16.549C31.7739 16.6336 32.3061 17.3037 32.2214 18.0457C32.137 18.7877 31.4681 19.3208 30.7274 19.236L28.7001 19.0046C27.9595 18.92 27.4273 18.2499 27.5117 17.5079C27.5962 16.7657 28.2651 16.2328 29.0057 16.3174Z" fill="#FF6910"/>
<g opacity="0.6">
<g opacity="0.6">
<g opacity="0.6">
<path opacity="0.6" fill-rule="evenodd" clip-rule="evenodd" d="M28.783 16.3139C28.1577 16.3694 27.6374 16.857 27.5634 17.5062C27.5587 17.547 27.5643 17.5865 27.5634 17.6269C27.8412 17.2533 28.2878 17.0164 28.783 17.073L30.8092 17.3044C31.5091 17.3843 32.0131 17.9904 31.9962 18.6826C32.1339 18.4974 32.2448 18.2899 32.2727 18.044C32.3571 17.302 31.8263 16.633 31.0856 16.5484L29.0561 16.317C28.9636 16.3067 28.8723 16.3061 28.783 16.3139Z" fill="#FDFDFD"/>
</g>
</g>
</g>
<g opacity="0.2">
<g opacity="0.2">
<g opacity="0.2">
<path opacity="0.2" fill-rule="evenodd" clip-rule="evenodd" d="M27.8058 16.7969C27.6356 16.9953 27.5026 17.2278 27.4707 17.5072C27.3863 18.2491 27.9171 18.9213 28.6578 19.0058L30.684 19.2372C31.4246 19.3218 32.0955 18.7867 32.18 18.0447C32.2051 17.8238 32.1624 17.6172 32.0889 17.4224C31.9104 17.9805 31.3816 18.3645 30.7782 18.2956L28.8984 18.0807C28.2479 18.0063 27.7877 17.4411 27.8058 16.7969Z" fill="#0F227A"/>
</g>
</g>
</g>
<path d="M30.8841 19.6632C30.8166 19.6632 30.7486 19.6591 30.6805 19.6516L28.6532 19.4201C27.6856 19.3095 26.9881 18.4309 27.0984 17.4618C27.2089 16.4924 28.085 15.7931 29.0533 15.9042L31.0808 16.1358C31.5494 16.1894 31.9693 16.4226 32.2629 16.7923C32.5565 17.1623 32.6888 17.6245 32.6354 18.094C32.5819 18.5635 32.3494 18.9841 31.98 19.2782C31.6644 19.5299 31.2815 19.6632 30.8841 19.6632ZM28.8526 16.7269C28.3848 16.7269 27.9798 17.0797 27.9257 17.5564C27.8675 18.0687 28.2362 18.5331 28.7476 18.5916L30.7749 18.823C31.0224 18.8516 31.2668 18.7813 31.4619 18.6257C31.657 18.4702 31.78 18.2479 31.8083 17.9998C31.8366 17.7514 31.7666 17.5071 31.6114 17.3116C31.4561 17.1161 31.2342 16.9927 30.9865 16.9646L28.959 16.733C28.9232 16.7287 28.8878 16.7269 28.8526 16.7269Z" fill="#0F227A"/>
<g opacity="0.2">
<g opacity="0.2">
<g opacity="0.2">
<path opacity="0.2" fill-rule="evenodd" clip-rule="evenodd" d="M50.8277 27.0059C50.5733 27.2114 42.5945 33.9833 36.0021 33.7109L34.3613 36.0372C42.3782 35.7199 48.8058 31.0174 50.8277 27.0059Z" fill="#0F227A"/>
</g>
</g>
</g>
<path fill-rule="evenodd" clip-rule="evenodd" d="M14.7742 33.1546C14.7742 33.1546 12.2453 32.9201 11.3068 35.3428C10.3681 37.7658 12.0951 39.214 12.0951 39.214C12.0951 39.214 10.062 44.5855 13.1539 46.0253C16.2457 47.465 23.8734 37.9747 20.1554 34.635" fill="#E8C49C"/>
<g opacity="0.2">
<g opacity="0.2">
<g opacity="0.2">
<g opacity="0.2">
<path opacity="0.2" fill-rule="evenodd" clip-rule="evenodd" d="M20.7145 35.3164C20.9433 36.9704 17.0934 43.9916 14.1645 43.5951C10.8619 43.1483 13.4946 36.6587 13.4946 36.6587L12.0732 39.2914C11.9902 39.5154 10.1284 44.6173 13.1529 46.0258C16.0552 47.3772 22.9539 39.0995 20.7145 35.3164Z" fill="#1D386A"/>
</g>
</g>
</g>
<g opacity="0.2">
<g opacity="0.2">
<g opacity="0.2">
<path opacity="0.2" d="M13.8463 46.2255C13.5843 46.2255 13.3438 46.1771 13.1295 46.0771C10.0684 44.6516 11.94 39.4915 12.0211 39.2726L13.4456 36.6329L13.5463 36.6805C13.5291 36.7224 11.852 40.9089 12.9045 42.7281C13.1716 43.1895 13.5979 43.4629 14.172 43.5408C14.9957 43.6517 15.9854 43.1538 17.0341 42.0997C19.0213 40.102 20.8185 36.4743 20.6594 35.325L20.6216 35.0508L20.7626 35.2891C22.0802 37.515 20.3189 41.1441 18.1245 43.5742C16.6011 45.2608 15.014 46.2255 13.8463 46.2255ZM13.1776 37.364L12.1222 39.3188C12.0456 39.5267 10.2074 44.5936 13.1765 45.976C13.3785 46.07 13.606 46.1157 13.8539 46.1157C14.9848 46.1159 16.5396 45.1626 18.0421 43.4988C20.2059 41.1024 21.7926 37.6583 20.778 35.5529C20.7087 36.9275 18.9964 40.2852 17.1132 42.178C16.0389 43.2578 15.0169 43.7675 14.1573 43.651C13.5474 43.5684 13.0934 43.2768 12.8083 42.7838C11.9885 41.368 12.7377 38.6625 13.1776 37.364Z" fill="#0F227A"/>
</g>
</g>
</g>
</g>
<g opacity="0.2">
<g opacity="0.2">
<g opacity="0.2">
<path opacity="0.2" fill-rule="evenodd" clip-rule="evenodd" d="M21.3992 36.7207C20.9437 38.615 20.9437 39.2883 19.7056 41.323C17.4799 44.9806 14.2288 43.8517 13.3077 42.3213L13.5158 45.8596C13.5158 45.8596 12.4639 46.8812 11.5645 48.2217C11.6228 48.2147 11.6698 48.2 11.7304 48.2054C20.003 48.9248 21.3992 36.7207 21.3992 36.7207Z" fill="#0F227A"/>
</g>
</g>
</g>
<g opacity="0.2">
<g opacity="0.2">
<g opacity="0.2">
<path opacity="0.2" fill-rule="evenodd" clip-rule="evenodd" d="M11.876 34.4824C11.876 34.4824 11.318 36.5881 13.6431 36.4763C13.6431 36.4763 12.0063 38.7683 11.7831 40.1286L11.7087 38.7497C11.7084 38.7497 10.1645 36.7744 11.876 34.4824Z" fill="#0F227A"/>
</g>
</g>
</g>
<path d="M14.736 33.5708C14.7162 33.5693 14.6696 33.5672 14.6338 33.5668C14.5955 33.5661 14.556 33.5664 14.5166 33.5675C14.4375 33.5693 14.3576 33.5746 14.2778 33.582C14.1181 33.5976 13.9591 33.6233 13.8034 33.6596C13.4922 33.733 13.1928 33.8462 12.9239 34.0055C12.3822 34.3193 11.9723 34.818 11.7297 35.4136C11.476 36.0152 11.386 36.667 11.4932 37.2834C11.5462 37.5922 11.6589 37.8894 11.8079 38.167C11.8826 38.3061 11.9705 38.4382 12.0645 38.5645C12.114 38.6256 12.1619 38.6881 12.2147 38.7446C12.2401 38.7745 12.2666 38.801 12.2929 38.8278C12.306 38.8416 12.3192 38.8548 12.3316 38.866L12.3628 38.8952L12.376 38.9075C12.504 39.0271 12.5412 39.2078 12.4849 39.3629C12.4098 39.5689 12.3367 39.8012 12.2728 40.0252C12.208 40.2515 12.1503 40.4804 12.0993 40.7101C11.9953 41.1693 11.9227 41.6335 11.8823 42.0961C11.8451 42.5584 11.8469 43.0197 11.9039 43.4646C11.9676 43.9063 12.0862 44.334 12.2949 44.6967C12.5054 45.0566 12.7918 45.3594 13.1596 45.5569L13.2975 45.6305C13.3213 45.6446 13.3425 45.6538 13.3623 45.6607L13.4233 45.6854C13.4648 45.7004 13.5089 45.71 13.5514 45.7236C13.5969 45.7301 13.641 45.741 13.6873 45.7461C13.8726 45.7673 14.0738 45.7519 14.2778 45.7089C14.6875 45.623 15.1016 45.4317 15.4916 45.1981C15.8832 44.9631 16.2561 44.6826 16.6118 44.3796C17.3209 43.7675 17.9537 43.0581 18.5266 42.3078C19.0924 41.5516 19.6014 40.7514 20.0117 39.9074C20.2146 39.4852 20.3989 39.0538 20.5363 38.6109C20.6105 38.3906 20.6677 38.167 20.719 37.9423C20.7666 37.7172 20.8012 37.4911 20.8254 37.2642C20.8635 36.8116 20.8466 36.354 20.7221 35.9222C20.6083 35.4861 20.3748 35.0873 20.063 34.7395L20.0609 34.7372C20.0095 34.6799 20.0144 34.5917 20.0716 34.5402C20.122 34.4949 20.1964 34.4933 20.2485 34.5326C20.6557 34.8397 20.9914 35.2677 21.1914 35.7559C21.291 35.9994 21.3667 36.254 21.4108 36.5126C21.4552 36.771 21.4741 37.0326 21.4754 37.2927C21.4752 37.8131 21.3923 38.3248 21.2705 38.8204C21.1442 39.3156 20.9711 39.7938 20.7715 40.2584C20.363 41.1832 19.84 42.0479 19.2303 42.8438C18.6242 43.6429 17.9334 44.3769 17.1607 45.0289C16.7729 45.3534 16.3632 45.6571 15.9177 45.9195C15.4711 46.1779 14.9933 46.4093 14.4487 46.5254C14.1774 46.5823 13.8878 46.6088 13.5893 46.5747C13.5149 46.5662 13.4398 46.5501 13.3654 46.537C13.2915 46.5162 13.2166 46.4977 13.1438 46.4716L13.0355 46.4283C12.9983 46.414 12.964 46.3986 12.9351 46.3821L12.7508 46.2844C12.2588 46.0197 11.8483 45.5922 11.5718 45.1115C11.2947 44.6275 11.1533 44.0968 11.0784 43.5769C11.0114 43.0549 11.0114 42.5366 11.0521 42.028C11.0962 41.5199 11.1753 41.0194 11.2862 40.5282C11.341 40.2823 11.4025 40.0384 11.4718 39.7965C11.5417 39.5521 11.6141 39.3194 11.7059 39.0675L11.828 39.535C11.7984 39.5097 11.7803 39.4921 11.7603 39.4734C11.7395 39.4544 11.7208 39.4357 11.7032 39.4174C11.6667 39.3803 11.6302 39.3431 11.5974 39.3049C11.5279 39.2299 11.4665 39.1509 11.4036 39.0721C11.2833 38.9115 11.1726 38.7443 11.0773 38.5676C10.8873 38.215 10.7434 37.8325 10.6741 37.4338C10.653 37.3351 10.6476 37.2338 10.634 37.1339C10.6289 37.0837 10.6213 37.0337 10.6187 36.9832L10.6169 36.8324C10.6182 36.732 10.6104 36.6304 10.6204 36.5311L10.6505 36.2326C10.6565 36.1319 10.6839 36.0369 10.7029 35.9393C10.7247 35.8429 10.7418 35.7443 10.7686 35.6497L10.8601 35.3701C10.8911 35.277 10.9196 35.1833 10.961 35.0929C11.1136 34.7285 11.3141 34.3748 11.5781 34.0662C11.8378 33.7554 12.1548 33.4898 12.5031 33.2859C12.8513 33.0801 13.2298 32.9382 13.6147 32.8474C13.8076 32.8023 14.0025 32.7708 14.1992 32.7519C14.2976 32.7425 14.3961 32.736 14.4961 32.7338C14.546 32.7324 14.5961 32.732 14.6474 32.7329C14.7011 32.7338 14.744 32.7349 14.8133 32.7403C15.0425 32.7586 15.2136 32.9594 15.1953 33.1888C15.1771 33.4184 14.9766 33.5898 14.7474 33.5715L14.736 33.5708Z" fill="#0F227A"/>
<path fill-rule="evenodd" clip-rule="evenodd" d="M13.4429 37.8345C12.9713 37.8537 12.682 37.9095 12.682 37.9095C12.3156 38.1507 11.9988 38.4636 11.7257 38.8186C11.9184 39.0674 12.077 39.2129 12.077 39.2129C12.077 39.2129 10.0455 44.5857 13.1373 46.0255C14.8745 46.8344 18.0432 44.1912 19.8272 41.1287C17.9147 38.0487 14.8552 37.777 13.4429 37.8345Z" fill="#FF6910"/>
<g opacity="0.2">
<g opacity="0.2">
<g opacity="0.2">
<path opacity="0.2" fill-rule="evenodd" clip-rule="evenodd" d="M13.0738 37.9062C12.9816 37.9174 12.8566 37.9261 12.8201 37.9324L12.0656 39.3268C12.024 39.4389 11.5357 40.7731 11.4379 42.2526C11.3401 43.732 11.633 45.357 13.1455 46.0613C13.2248 46.0981 13.3077 46.1265 13.3928 46.1492C13.405 46.1526 13.4162 46.1593 13.4284 46.1622C13.4304 46.1626 13.4331 46.1617 13.4349 46.1622C13.4868 46.1747 13.5405 46.1809 13.5941 46.1883C13.6521 46.1959 13.71 46.2026 13.7699 46.2046C13.9434 46.2117 14.1279 46.1894 14.3163 46.1523C14.3818 46.1392 14.4477 46.1218 14.5148 46.1035C14.603 46.0798 14.6941 46.0441 14.7848 46.0122C15.0066 45.9325 15.2325 45.835 15.4644 45.7092C15.5078 45.6857 15.5508 45.6623 15.5945 45.6375C15.8778 45.4749 16.1678 45.2879 16.4563 45.0674C17.6886 44.1248 18.924 42.6955 19.8159 41.1643C19.512 40.6749 19.1746 40.2804 18.8239 39.9229C17.499 41.9725 15.7067 43.8403 14.1568 43.6305C11.7538 43.3054 12.4928 39.8019 13.0738 37.9062Z" fill="#0F227A"/>
</g>
</g>
</g>
<g opacity="0.6">
<g opacity="0.6">
<g opacity="0.6">
<path opacity="0.6" fill-rule="evenodd" clip-rule="evenodd" d="M12.5527 38.2491C12.5527 38.2491 16.3758 38.3223 18.1891 40.3331C18.8934 41.1139 19.0415 41.9498 18.7136 42.7289L19.7951 41.3045C19.7951 41.3047 16.9125 36.7219 12.5527 38.2491Z" fill="#FDFDFD"/>
</g>
</g>
</g>
<path d="M11.7023 39.0704C11.7508 38.893 11.8101 38.7363 11.8798 38.577C11.9132 38.4975 11.9493 38.4194 11.9883 38.3429C12.0257 38.2655 12.0647 38.1887 12.1074 38.1142C12.2703 37.8111 12.467 37.5259 12.6746 37.2495C12.8846 36.9741 13.1118 36.7103 13.3604 36.4669C13.6139 36.2274 13.8861 36.0045 14.19 35.8358C14.2194 35.8195 14.2566 35.83 14.2728 35.8594C14.2844 35.8802 14.2824 35.9047 14.2699 35.9233L14.2688 35.9248C14.079 36.2049 13.91 36.4838 13.7534 36.7699C13.5972 37.0562 13.4551 37.3485 13.3154 37.6409C13.1769 37.9343 13.0526 38.234 12.9123 38.5248C12.7748 38.8149 12.6336 39.1132 12.4745 39.3825L12.4672 39.395C12.3494 39.5945 12.0923 39.6604 11.8932 39.5423C11.727 39.4437 11.6537 39.248 11.7023 39.0704Z" fill="#0F227A"/>
<path d="M13.83 46.5874C13.521 46.5874 13.2295 46.5289 12.9613 46.4042C9.92803 44.9914 11.2191 40.4539 11.5985 39.3178C11.539 39.2516 11.4699 39.1701 11.3964 39.0751C11.2801 38.9251 11.2799 38.7153 11.3955 38.5647C11.713 38.1519 12.0687 37.8145 12.4529 37.5616C12.4984 37.5317 12.5494 37.511 12.6029 37.5007C12.616 37.4981 12.9285 37.4387 13.4257 37.4186C14.77 37.363 18.1218 37.5942 20.1803 40.9089C20.2618 41.0401 20.264 41.2059 20.1863 41.3394C18.5695 44.1147 15.8386 46.5872 13.83 46.5874ZM12.2694 38.8164C12.3237 38.8742 12.3578 38.9061 12.3585 38.9068C12.483 39.0222 12.5258 39.2025 12.4656 39.3614C12.4469 39.4113 10.6077 44.3887 13.3121 45.648C14.654 46.273 17.536 44.0979 19.3367 41.1379C17.5716 38.4969 14.9106 38.1929 13.4591 38.2519C13.1664 38.2639 12.9486 38.2909 12.8387 38.307C12.6401 38.4467 12.4494 38.6171 12.2694 38.8164ZM13.4424 37.8352H13.4435H13.4424Z" fill="#0F227A"/>
<path fill-rule="evenodd" clip-rule="evenodd" d="M19.2031 30.8468C19.2031 30.8468 20.992 29.3307 19.4998 27.2577C17.6605 24.7028 12.0745 26.5023 12.0879 30.1539C12.1013 33.8674 16.0841 33.4307 16.51 33.4479C17.291 33.4791 19.1543 32.8777 19.2031 30.8468Z" fill="white"/>
<path d="M18.7866 30.8331L18.7566 30.5993C18.7465 30.5165 18.7305 30.4344 18.7176 30.3527C18.6855 30.1905 18.6476 30.0327 18.5973 29.8839C18.4931 29.5884 18.3514 29.3273 18.1204 29.1385C18.0046 29.0461 17.8713 28.9643 17.7192 28.904C17.5648 28.8511 17.3991 28.8007 17.222 28.7797C16.8685 28.7239 16.4878 28.7395 16.0998 28.7652H16.0987C16.0653 28.7674 16.0365 28.742 16.0343 28.7087C16.0327 28.6838 16.0463 28.6612 16.0673 28.6507C16.4208 28.4706 16.8039 28.3339 17.2229 28.283C17.3278 28.2723 17.4336 28.262 17.5426 28.2647C17.6508 28.2595 17.7613 28.2752 17.872 28.2872C18.093 28.3238 18.32 28.3905 18.528 28.5072C18.7363 28.6222 18.9288 28.777 19.0827 28.9602C19.2386 29.1425 19.3549 29.3501 19.4413 29.5621C19.5277 29.7743 19.5839 29.993 19.6133 30.2117C19.6282 30.321 19.636 30.4306 19.6382 30.5406C19.6391 30.5957 19.6373 30.6508 19.6349 30.7064C19.6318 30.7651 19.6275 30.8117 19.6177 30.8854C19.5872 31.1134 19.3781 31.2736 19.1504 31.2431C18.9597 31.2174 18.8165 31.0663 18.7931 30.8838L18.7866 30.8331Z" fill="#0F227A"/>
<path d="M15.9993 33.8723C15.1892 33.8723 13.6731 33.7641 12.6616 32.7817C12.0089 32.148 11.6759 31.2641 11.6719 30.1548C11.665 28.2723 13.0254 26.6116 15.1377 25.9239C17.0648 25.2964 18.9096 25.7239 19.8378 27.0131C21.1111 28.782 20.3094 30.3454 19.6106 31.0374C19.5525 31.8135 19.242 32.485 18.7067 32.9879C18.0264 33.627 17.1046 33.8875 16.4938 33.8636C16.4649 33.8627 16.417 33.8645 16.3526 33.866C16.2606 33.8689 16.1408 33.8723 15.9993 33.8723ZM16.8625 26.4719C16.3983 26.4719 15.9018 26.5521 15.3954 26.717C14.0578 27.1526 12.4981 28.3134 12.5048 30.1517C12.5079 31.0278 12.7558 31.7113 13.2412 32.1828C14.1772 33.0917 15.7973 33.0475 16.3297 33.0326C16.4197 33.0303 16.4872 33.0288 16.5273 33.0306C16.8812 33.0446 17.6014 32.8831 18.1373 32.3796C18.5534 31.9889 18.7722 31.4694 18.7873 30.8363C18.7902 30.7176 18.8432 30.606 18.9334 30.529C19.0865 30.3969 20.3831 29.1964 19.1627 27.5011C18.6793 26.8294 17.8428 26.4719 16.8625 26.4719Z" fill="#0F227A"/>
<g opacity="0.2">
<g opacity="0.2">
<g opacity="0.2">
<path opacity="0.2" fill-rule="evenodd" clip-rule="evenodd" d="M19.55 27.2812C19.55 27.2812 19.8269 29.1872 18.3501 28.653C18.3501 28.653 18.3681 32.0042 15.6182 31.9826C13.2945 31.9645 12.3593 30.7379 12.1123 30.3404C12.3155 33.76 16.1007 33.357 16.5159 33.3737C17.2967 33.4049 19.16 32.8044 19.2088 30.7738C19.2088 30.7738 20.93 29.3059 19.573 27.2877L19.55 27.2812Z" fill="#0F227A"/>
</g>
</g>
</g>
<g opacity="0.2">
<g opacity="0.2">
<g opacity="0.2">
<g opacity="0.2">
<path opacity="0.2" fill-rule="evenodd" clip-rule="evenodd" d="M32.2818 0.539062C32.2818 0.539062 34.3616 12.7345 46.7106 8.97505L46.9133 9.7409C46.9133 9.7409 44.9404 11.1322 41.8512 10.8868C37.6503 10.5529 32.0124 7.84367 32.2818 0.539062Z" fill="#1D386A"/>
</g>
</g>
</g>
<g opacity="0.2">
<g opacity="0.2">
<g opacity="0.2">
<path opacity="0.2" d="M42.5721 10.9725C42.3378 10.9725 42.0959 10.9634 41.847 10.9438C39.3988 10.7492 37.0322 9.81126 35.3542 8.3706C33.1568 6.48386 32.1042 3.84868 32.2263 0.538462L32.2461 0L32.3368 0.531098C32.3457 0.583316 33.2779 5.79768 37.324 8.30031C39.8224 9.84585 42.9753 10.0554 46.6946 8.92312L46.7498 8.90639L46.9773 9.76574L46.9454 9.78828C46.9272 9.80078 45.2322 10.9725 42.5721 10.9725ZM32.3283 1.01043C32.3139 7.68843 37.4058 10.4787 41.8557 10.8326C44.6771 11.0567 46.5828 9.89204 46.8494 9.71799L46.6717 9.04653C42.9439 10.1703 39.7792 9.95073 37.2648 8.39493C33.8885 6.30601 32.6593 2.35446 32.3283 1.01043Z" fill="#0F227A"/>
</g>
</g>
</g>
</g>
<path fill-rule="evenodd" clip-rule="evenodd" d="M39.5261 15.02C39.8482 14.024 40.6508 13.3923 41.3193 13.609C41.9877 13.8259 42.2684 14.8091 41.9465 15.8052C41.6244 16.8014 40.8216 17.4331 40.1534 17.2162C39.4847 16.9993 39.204 16.0161 39.5261 15.02Z" fill="#0F227A"/>
<path fill-rule="evenodd" clip-rule="evenodd" d="M40.6682 14.8927C40.7725 14.57 41.0326 14.3654 41.2489 14.4357C41.4654 14.506 41.5563 14.8242 41.4521 15.1469C41.3478 15.4696 41.0877 15.6742 40.8711 15.6039C40.6548 15.5338 40.564 15.2154 40.6682 14.8927Z" fill="#FDFEFD"/>
<path d="M46.8694 31.1573C45.5278 31.1573 44.4089 30.7766 43.5348 30.021C41.8069 28.5272 41.6955 26.1259 41.6917 26.0246C41.6828 25.7945 41.8619 25.6008 42.0918 25.5919C42.3226 25.5868 42.5146 25.7622 42.5237 25.992C42.5248 26.0192 42.632 28.1434 44.0837 29.3939C44.9544 30.144 46.1484 30.4423 47.6314 30.2803C47.8604 30.2549 48.0654 30.4207 48.0903 30.6498C48.1153 30.8788 47.9502 31.0845 47.7214 31.1095C47.4285 31.1414 47.1443 31.1573 46.8694 31.1573Z" fill="#0F227A"/>
<path d="M15.8342 54.109L9.04688 60.9999L15.2169 53.5493C15.3639 53.3719 15.6266 53.3474 15.8037 53.4947C15.9807 53.6419 16.0052 53.905 15.8582 54.0824C15.8507 54.0914 15.8422 54.1005 15.8342 54.109Z" fill="#0F227A"/>
<path d="M12.9741 46.0383L0 61.0006L12.3341 45.5047C12.4775 45.3247 12.7395 45.295 12.9193 45.4387C13.099 45.5824 13.1286 45.8448 12.9852 46.0249C12.9818 46.0289 12.9774 46.0343 12.9741 46.0383Z" fill="#0F227A"/>
<path d="M11.3998 37.7375L0.761719 48.5501L10.791 37.1685C10.9431 36.9958 11.2064 36.9793 11.3788 37.1317C11.5512 37.2841 11.5677 37.5479 11.4153 37.7206C11.4107 37.7262 11.4047 37.7324 11.3998 37.7375Z" fill="#0F227A"/>
<path d="M41.0941 35.0818L30.6035 47.1413L40.4523 34.5505C40.5942 34.3691 40.856 34.3374 41.0371 34.4795C41.2182 34.6217 41.2498 34.8839 41.1079 35.0653C41.1037 35.0702 41.0985 35.0767 41.0941 35.0818Z" fill="#0F227A"/>
<path d="M37.8933 35.7302L32.9395 40.9776L37.2564 35.1931C37.3943 35.0083 37.6556 34.9703 37.84 35.1087C38.0245 35.2468 38.0621 35.5086 37.9242 35.6934C37.9144 35.7063 37.904 35.7188 37.8933 35.7302Z" fill="#0F227A"/>
<path d="M11.9257 44.4514L5.18359 51.6335L11.2955 43.9063C11.4385 43.7255 11.7005 43.6951 11.8809 43.8384C12.0613 43.9817 12.0916 44.2441 11.9486 44.4249C11.9415 44.4338 11.9335 44.4431 11.9257 44.4514Z" fill="#0F227A"/>
<path d="M13.2482 54.6351L10.7373 56.9916L12.6098 54.0997C12.7358 53.9052 12.9956 53.8496 13.1898 53.9759C13.3841 54.1022 13.4395 54.3624 13.3134 54.557C13.2947 54.5855 13.2718 54.6125 13.2482 54.6351Z" fill="#0F227A"/>
<path d="M12.3841 34.4174L6.90039 39.4334L11.7892 33.8341C11.9409 33.6605 12.2041 33.6429 12.3775 33.7946C12.5508 33.9463 12.5684 34.2103 12.4169 34.3839C12.4066 34.396 12.3955 34.4072 12.3841 34.4174Z" fill="#0F227A"/>
</g>
<defs>
<clipPath id="clip0_229_5594">
<rect width="52" height="61" fill="white"/>
</clipPath>
</defs>
</svg>
