<svg width="958" height="539" viewBox="0 0 958 539" fill="none" xmlns="http://www.w3.org/2000/svg">
    <g filter="url(#filter0_d_131_25)">
        <path d="M386.545 352.452C455.539 327.911 563.035 281.732 585.376 347.423C609.402 418.099 661.357 458.214 736.5 459.326C804.795 460.331 871.065 427.062 888.476 356.556C895.368 328.644 890.48 301.304 874.746 280.92C865.827 285.786 855.502 289.138 843.721 290.502C825.842 292.574 796.776 287.132 798.687 263.967C800.524 241.781 827.249 241.715 843.921 248.709C857.081 254.228 867.97 262.069 876.506 271.558C938.779 230.107 913.296 104.336 824.191 114.064C812.066 115.381 787.723 122.546 783.602 136.093L776.408 134.592C782.547 114.235 814.272 106.239 832.698 106.246C924.517 106.26 944.779 233.885 881.049 277.085C897.717 299.133 902.965 328.495 895.598 358.332C877.35 432.216 808.121 467.73 736.373 466.676C657.97 465.528 603.404 423.35 578.333 349.606C557.399 288.023 453.772 336.337 389.181 359.304L386.545 352.452ZM869.913 275.235C862.256 267.083 852.616 260.326 841.073 255.465C828.934 250.365 804.648 248.682 806.023 266.602C807.817 289.921 849.213 284.763 869.913 275.235Z"
              fill="#FF6B00"/>
    </g>
    <path fill-rule="evenodd" clip-rule="evenodd"
          d="M700.56 126.78L688.751 125.026C688.248 127.674 695.261 80.4231 744.155 90.4788C773.493 96.5061 762.704 127.374 721.612 105.029C719.843 104.074 700.56 126.78 700.56 126.78Z"
          fill="#8C5938"/>
    <path fill-rule="evenodd" clip-rule="evenodd"
          d="M661.496 371.71C669.272 407.356 694.333 404.836 689.821 371.659C686.887 350.14 669.515 335.492 647.039 357.14C642.694 334.797 625.699 343.232 642.462 376.214L661.496 371.71Z"
          fill="#BAAB87"/>
    <path fill-rule="evenodd" clip-rule="evenodd"
          d="M692.584 294.339C703.249 326.52 723.829 307.602 731.54 287.442C739.64 266.264 722.436 256.47 709.175 279.609C693.541 255.998 674.711 268.883 672.208 273.633C663.966 289.22 687.843 278.775 687.843 278.775C687.843 278.775 693.541 293.566 692.584 294.339Z"
          fill="#BAAB87"/>
    <path d="M710.276 252.399C710.276 252.399 734.293 306.338 690.993 358.89C683.202 370.885 672.499 373.815 667.643 393.331C668.664 414.359 698.239 442.525 734.052 420.063C769.865 397.602 788.033 359.366 788.18 320.645C788.371 271.48 762.479 243.428 762.479 243.428L710.276 252.399Z"
          fill="#D9CCAD"/>
    <path d="M711.527 322.39C710.543 325.322 709.404 328.294 708.094 331.294C707.913 332.423 707.89 333.351 708.01 333.991C710.965 350.376 723.869 325.156 723.869 325.156C723.869 325.156 737.642 330.208 737.332 331.446C765.888 343.773 770.89 315.687 764.692 296.785C758.175 276.924 738.159 284.009 741.698 309.123C725.219 307.315 716.025 314.967 711.527 322.39Z"
          fill="#D9CCAD"/>
    <path fill-rule="evenodd" clip-rule="evenodd"
          d="M710.275 252.399C710.275 252.399 714.296 261.442 716.087 275.733L730.585 279.844L780.886 276.609C773.294 255.107 762.504 243.409 762.504 243.409L710.275 252.399Z"
          fill="#BAAB87"/>
    <path d="M739.841 247.322C764.624 292.091 759.389 389.605 683.642 409.172C680.253 410.051 676.897 410.676 673.648 411.063C669.008 405.126 667.851 398.618 667.565 392.596C672.177 371.772 683.624 370.522 690.994 358.904C734.292 306.338 710.275 252.399 710.275 252.399L739.841 247.322Z"
          fill="#CC998C"/>
    <path d="M710.276 252.399L710.28 252.428L710.283 252.442L710.285 252.456L710.306 252.497L710.33 252.552L710.332 252.566L710.359 252.635L710.387 252.718L710.391 252.747L710.417 252.816L710.465 252.925L710.467 252.939L710.522 253.092L710.618 253.325L710.623 253.354L710.673 253.477L710.744 253.642L710.746 253.656L710.803 253.822L710.878 254.015L710.902 254.07L711.027 254.387L711.051 254.441L711.134 254.677L711.136 254.691L711.219 254.927L711.304 255.177L711.327 255.231L711.49 255.688L711.516 255.757C711.575 255.938 711.632 256.105 711.708 256.298L711.816 256.602L711.819 256.616C711.882 256.826 711.96 257.033 712.027 257.257L712.031 257.285C712.652 259.191 713.355 261.597 714.031 264.461L714.045 264.547C714.236 265.351 714.417 266.186 714.605 267.064L714.652 267.262C714.72 267.588 714.791 267.928 714.861 268.268L714.972 268.851C715.042 269.191 715.099 269.533 715.169 269.874L715.216 270.159C715.272 270.502 715.331 270.859 715.402 271.199L715.406 271.227C715.439 271.427 715.474 271.641 715.507 271.841C715.554 272.126 715.601 272.412 715.648 272.697L715.734 273.313C715.783 273.613 715.818 273.915 715.868 274.215C715.908 274.458 715.935 274.717 715.975 274.959C716.001 275.204 716.043 275.461 716.071 275.721L716.073 275.735L730.571 279.847L750.603 278.564C748.348 266.798 744.661 256.044 739.84 247.308L710.276 252.399ZM711.564 255.779C711.623 255.96 711.68 256.126 711.755 256.319L711.564 255.779ZM714.683 267.271C714.751 267.597 714.822 267.937 714.892 268.277L714.683 267.271Z"
          fill="#A8786B"/>
    <path d="M700.344 245.119C675.978 270.61 698.579 324.048 662.151 333.667C652.386 336.239 646.011 328.389 649.046 315.46C650.737 308.264 655.721 299.34 665.07 289.508C659.917 275.901 654.053 267.059 662.505 254.266C667.208 247.118 694.018 236.235 700.344 245.119Z"
          fill="#C98282"/>
    <path d="M747.172 125.543C742.532 172.961 738.355 217.401 733.554 262.412C733.554 262.412 637.514 248.302 637.276 248.37C637.024 248.441 641.976 116.996 641.976 116.996C641.436 117.188 721.119 123.183 747.172 125.543Z"
          fill="#A18573"/>
    <path d="M682.438 279.34C680.638 299.879 676.809 335.012 649.789 328.736C652.012 333.164 656.515 335.15 662.15 333.668C697.342 324.383 677.445 274.195 698.03 247.815C698.097 247.247 698.151 246.681 698.207 246.13C698.847 246.186 698.919 244.84 698.952 243.706C696.844 242.117 693.683 241.611 690.087 241.85C688.265 255.385 683.582 266.224 682.438 279.34Z"
          fill="#A85C5C"/>
    <path d="M691.217 260.939C681.187 265.914 669.736 268.66 658.259 268.303C658.017 263.886 659.095 259.385 662.489 254.255C667.194 247.12 694.002 236.223 700.33 245.121C696.018 249.655 693.183 255.061 691.217 260.939Z"
          fill="#A85C5C"/>
    <path d="M700.779 138.998C692.302 138.251 651.164 172.287 651.164 172.287C651.164 172.287 651.163 167.464 652.728 148.885C653.858 135.331 670.114 136.047 670.114 136.047C670.114 136.047 709.257 139.745 700.779 138.998Z"
          fill="#6E5240"/>
    <path d="M721.673 218.104C719.7 249.283 701.781 245.22 701.781 245.22L676.406 242.353L721.673 218.104Z" fill="#6E5240"/>
    <path d="M733.569 262.41L798.809 266.057L818.252 140.734L747.367 126.728L733.569 262.41Z" fill="#CCA68C"/>
    <path d="M727.94 154.617L721.323 221.679C721.323 221.679 712.141 238.857 692.174 252.852C672.208 266.847 642.909 271.322 619.924 256.234C595.804 240.393 592.738 200.221 618.238 173.782C645.468 145.563 676.784 136.681 700.779 138.998C719.752 140.821 730.159 141.354 727.94 154.617Z"
          fill="#D9CCAD"/>
    <path d="M790.652 176.064C796.421 149.172 769.02 142.357 765.688 172.308C763.33 193.554 785.498 200.1 790.652 176.064Z"
          fill="#6E5240"/>
    <path fill-rule="evenodd" clip-rule="evenodd"
          d="M767.652 163.558C766.859 165.872 782.249 146.678 815.847 155.084C833.288 159.445 842.986 168.42 848.529 175.571C867.402 199.896 828.54 226.64 798.621 174.873L766.605 182.433C764.759 178.427 764.029 171.218 767.652 163.558Z"
          fill="#8C5938"/>
    <path d="M655.28 239.198C660.943 211.839 646.833 192.596 621.626 196.018C610.285 197.559 599.003 203.208 591.604 211.079C561.249 243.387 584.182 298.134 621.601 284.38C636.381 278.962 649.604 266.661 655.28 239.198Z"
          fill="#824040"/>
    <path fill-rule="evenodd" clip-rule="evenodd"
          d="M682.375 414.848C659.665 428.648 642.806 424.617 631.634 405.77C629.67 402.472 629.164 398.143 629.436 395.606C630.448 385.883 643.154 383.459 644.358 396.585C646.405 419.042 672.153 410.532 678.255 403.417C678.686 402.921 681.907 413.693 682.375 414.848Z"
          fill="#BAAB87"/>
    <path d="M690.38 425.655C725.768 434.514 739.387 413.471 709.026 399.345C680.411 386.031 659.077 408.297 670.906 432.123C647.358 439.656 656.055 452.181 686.934 445.188L690.38 425.655Z"
          fill="#D9CCAD"/>
    <path fill-rule="evenodd" clip-rule="evenodd"
          d="M645.481 152.245C660.049 153.663 679.444 156.355 689.654 159.881C699.754 163.367 706.411 174.087 707.387 189.845C708.688 210.885 707.553 224.762 705.931 241.299C716.399 230.873 721.323 221.679 721.323 221.679L727.94 154.618C730.159 141.354 719.766 140.819 700.778 138.998C684.515 137.434 664.903 141.007 645.481 152.245Z"
          fill="#BAAB87"/>
    <path fill-rule="evenodd" clip-rule="evenodd"
          d="M737.346 331.443C765.902 343.77 770.904 315.685 764.706 296.783C758.189 276.922 738.172 284.007 741.712 309.121C714.425 306.127 707.115 328.993 708.009 333.991C710.965 350.376 723.869 325.156 723.869 325.156C723.869 325.156 737.656 330.205 737.346 331.443Z"
          fill="#BAAB87"/>
    <path d="M737.346 331.443C742.301 333.59 746.555 334.504 750.156 334.469C753.592 318.089 753.914 301.048 751.727 285.415C745.305 286.382 739.7 294.823 741.711 309.121C725.218 307.315 716.024 314.967 711.527 322.39C710.543 325.322 709.404 328.294 708.094 331.294C707.913 332.424 707.889 333.351 708.009 333.991C710.964 350.376 723.868 325.156 723.868 325.156C723.868 325.156 737.655 330.205 737.346 331.443Z"
          fill="#A8786B"/>
    <path d="M712.122 171.111C709.841 154.82 696.314 153.847 689.079 164.328C686.901 167.486 687.767 170.436 691.178 165.86C696.111 159.216 704.532 159.796 705.658 172.716C706.299 180.012 712.819 176.156 712.122 171.111Z"
          fill="black"/>
    <path d="M676.408 162.863C674.35 148.997 659.851 153.886 657.982 158.751C655.394 165.479 661.191 164.454 663.696 159.894C667.221 153.511 673.197 157.234 673.787 163.235C674.185 167.083 677.05 167.125 676.408 162.863Z"
          fill="black"/>
    <path d="M738.008 315.929C765.96 335.112 770.911 307.607 764.869 286.891C758.524 265.126 738.898 267.72 742.317 294.158C715.598 284.798 708.38 306.446 709.264 311.739C712.123 329.137 724.816 306.385 724.816 306.385C724.816 306.385 738.308 314.722 738.008 315.929Z"
          fill="#D9CCAD"/>
    <path d="M596.955 206.271C596.379 207.319 595.968 208.207 595.934 208.623C592.775 214.287 590.477 219.663 588.922 224.741C575.018 270.104 620.949 290.321 648.186 260.268C641.421 273.516 631.889 280.623 621.603 284.394C584.183 298.149 561.236 243.404 591.605 211.093C593.212 209.363 595.013 207.748 596.955 206.271Z"
          fill="#A85C5C"/>
    <path fill-rule="evenodd" clip-rule="evenodd"
          d="M735.018 391.336C737.485 392.969 738.293 396.193 737.376 400.066C736.473 403.938 733.816 408.376 729.719 412.171C725.623 415.966 720.957 418.345 716.872 419.265C712.858 420.174 709.473 419.733 707.566 417.936C705.658 416.138 705.451 413.27 706.573 410.022C707.696 406.774 710.097 403.008 713.656 399.419C717.214 395.83 721.27 393.038 725.105 391.485C728.946 389.974 732.551 389.704 735.018 391.336ZM747.568 410.177C756.016 402.985 763.143 394.793 768.963 385.878C769.226 382.214 768.129 379.374 765.737 378.287C760.78 376.038 752.613 381.557 746.395 389.834C740.16 398.099 737.791 406.521 742.053 409.441C743.408 410.377 745.35 410.6 747.568 410.177ZM773.668 378.025C775.526 374.612 777.208 371.111 778.717 367.536C778.513 367.188 778.224 366.943 777.865 366.811C776.276 366.237 773.833 368.323 772.238 371.371C770.645 374.432 770.609 377.428 772.165 378.066C772.619 378.241 773.128 378.216 773.668 378.025ZM784.423 350.519C785.918 344.63 786.957 338.64 787.578 332.602C785.571 333.415 783.635 336.533 782.644 340.492C781.432 345.25 782.097 349.655 784.423 350.519ZM787.079 302.796C786.647 299.452 786.1 296.215 785.463 293.139C784.619 291.753 783.563 290.944 782.51 290.956C780.303 290.996 778.716 294.54 778.841 299.049C778.966 303.558 780.742 307.502 783.175 307.674C784.953 307.792 786.522 305.746 787.079 302.796ZM773.955 340.864C778.705 342.121 780.663 350.829 776.88 360.098C773.096 369.368 765.317 374.926 760.842 372.847C756.367 370.768 756.455 362.472 759.959 353.995C763.46 345.505 769.187 339.595 773.955 340.864ZM780.394 311.18C784.029 311.535 786.994 317.717 786.018 325.251C785.04 332.77 780.345 338.275 776.531 337.363C772.716 336.45 771.188 329.915 772.36 322.95C773.515 315.974 776.759 310.824 780.394 311.18ZM775.159 299.302C776.714 299.398 778.064 301.903 777.957 304.998C777.847 308.08 776.358 310.523 774.727 310.322C773.096 310.121 771.959 307.479 772.158 304.5C772.355 301.507 773.604 299.205 775.159 299.302ZM751.603 366.303C755.066 367.933 755.105 374.508 751.125 380.614C747.144 386.721 740.945 389.674 737.79 387.686C734.634 385.698 735.416 379.75 739.089 374.002C742.762 368.254 748.14 364.673 751.603 366.303ZM768.871 330.442C770.259 330.771 770.964 333.191 770.274 335.767C769.585 338.357 767.85 340.108 766.464 339.705C765.079 339.303 764.557 336.926 765.257 334.407C765.945 331.905 767.483 330.113 768.871 330.442Z"
          fill="#8C5938"/>
    <path fill-rule="evenodd" clip-rule="evenodd"
          d="M717.757 294.909C717.963 292.149 718.115 289.325 718.074 286.488C718.048 284.103 717.887 281.696 717.655 279.301C717.423 276.906 717.06 274.518 716.645 272.167C716.029 268.78 715.236 265.466 714.302 262.277C720.227 263.458 725.886 264.449 730.468 264.678C730.82 264.679 731.105 264.632 731.358 264.561C745.393 265.231 760.255 265.941 774.87 266.575C790.212 296.17 791.19 333.621 779.462 364.658C769.736 390.397 750.825 412.779 725.216 423.567C714.181 428.224 717.112 428.753 725.045 425.735C751.765 415.556 772.421 392.287 782.541 365.823C794.649 334.152 793.312 296.833 777.509 266.669C784.728 266.978 791.887 267.282 798.834 267.548C799.662 267.588 800.4 266.998 800.543 266.168C803.482 247.832 806.591 226.786 808.922 207.069C812.565 184.543 807.753 198.701 805.58 211.708C803.123 230.478 799.716 248.641 797.513 264.145C776.088 263.282 752.685 262.333 731.262 261.66C731.041 261.653 730.841 261.685 730.636 261.778C723.652 261.195 708.037 257.692 694.67 256.18C695.22 254.799 695.829 253.512 696.486 252.334C696.598 252.125 696.649 251.897 696.628 251.68C698.903 249.914 701.083 248.017 703.199 245.998C717.983 249.887 720.228 236.517 722.572 225.358C727.083 203.921 730.303 169.18 731.202 154.932C731.93 143.306 723.624 138.25 708.795 138.546C695.179 138.731 681.655 135.192 668.619 135.076C660.297 135.006 653.281 137.537 652.72 145.544C652.688 146.063 652.663 146.536 652.677 146.973C650.972 147.752 649.261 148.575 647.561 149.47C639.79 153.561 632.24 158.817 625.52 164.934C614.339 175.126 605.505 187.732 601.713 201.327C599.528 202.565 597.344 203.994 595.238 205.63C559.165 233.645 575.093 297.326 618.745 286.535C629.395 283.906 639.491 276.75 646.437 267.372C650.662 267.572 654.736 267.474 658.644 267.081C656.887 274.948 659.772 279.927 662.684 283.025C664.959 285.451 664.578 288.753 661.367 292.315C656.778 297.393 650.599 305.018 648.311 314.555C643.943 332.848 655.335 338.041 666.626 334.501C686.42 328.288 686.55 308.2 688.238 290.905C689.007 283.098 689.877 275.275 691.258 268.334C698.256 268.196 706.122 276.637 710.067 281.559C707.175 279.659 719.055 290.768 710.284 278.416C706.105 272.521 699.463 265.55 691.76 265.951C692.361 263.272 693.045 260.741 693.837 258.427C699.447 259.206 705.734 260.533 711.858 261.77C711.839 261.919 711.848 262.064 711.886 262.205C712.896 266.656 713.534 271.344 714.003 276.075C714.173 277.821 714.328 279.569 714.469 281.319C714.61 283.07 714.708 284.827 714.82 286.582C715.036 290.036 715.244 293.446 715.263 296.77C714.605 297.318 713.964 297.878 713.316 298.482C709.798 302.227 707.932 305.772 707.274 308.812C707.231 308.819 707.188 308.826 707.148 308.848C699.567 310.62 694.261 296.966 693.265 291.882C692.63 288.645 691.943 285.445 691.658 285.58C691.372 285.715 691.512 289.063 691.758 292.438C692.321 299.967 697.461 314.484 706.999 311.335C707.028 320.168 718.391 322.948 726.088 309.752C726.674 310.287 727.269 310.79 727.889 311.259C736.306 317.704 749.44 328.416 759.995 323.252C772.979 316.81 769.807 291.255 763.916 281.625C760.603 275.91 760.508 276.849 761.227 279.267C764.191 289.187 771.755 313.728 758.507 320.257C750.679 324.182 733.932 313.697 727.229 307.689C733.015 297.049 727.772 302.074 723.853 308.463C715.714 321.732 703.207 314.215 715.569 300.868C724.333 292.378 734.345 289.883 744.426 297.535C756.398 306.62 753.699 301.787 745.981 295.579C736.582 287.977 726.688 288.693 717.757 294.909ZM667.045 421.104C634.506 427.446 623.374 389.933 636.455 389.704C643.982 389.567 642.048 400.013 644.285 404.439C646.957 409.731 651.164 412.499 655.897 413.29C659.636 413.922 663.727 413.309 667.597 411.705C666.836 414.747 666.829 418.003 667.045 421.104ZM668.619 408.738C664.599 410.673 660.262 411.488 656.373 410.749C652.454 410.001 649.014 407.62 646.906 403.173C644.487 398.088 647.32 386.424 636.439 386.482C618.291 386.561 631.342 433.081 667.249 423.416C667.518 426.391 667.713 429.452 669.221 432.121C668.595 432.238 667.96 432.386 667.33 432.563C654.117 436.185 647.951 448.528 665.475 448.933C671.417 449.056 677.283 450.057 683.248 449.429C686.835 449.045 688.104 448.294 688.771 444.769C689.467 441.064 689.771 436.939 690.254 433.092C691.012 427.178 690.168 428.108 694.02 429.073C699.524 430.456 704.244 430.457 710.295 429.639C713.509 429.213 716.371 427.629 712.846 427.857C703.064 428.452 699.332 427.951 692.466 425.591C691.005 425.083 692.35 411.142 687.829 428.683C686.828 432.585 686.242 439.365 685.597 443.561C685.204 446.073 685.23 445.878 682.897 446.13C677.136 446.754 671.267 445.827 665.515 445.79C654.085 444.912 660.454 437.284 668.035 434.983C668.482 434.851 689.161 430.458 671.702 431.787L671.664 431.734C669.982 429.167 670.049 425.74 669.887 422.792C669.497 415.688 670.055 409.894 675.359 404.435C686.244 393.251 705.656 396.761 716.501 405.489C726.365 413.426 723.832 408.536 718.067 403.605C706.199 393.462 685.112 389.392 672.96 402.147C672.259 402.878 671.611 403.658 671.014 404.489C662.416 384.003 681.722 370.718 689.435 362.972C696.645 355.734 701.115 348.77 706.357 337.765C718.726 311.783 712.074 320.366 703.787 336.487C699.963 343.902 696.523 350.799 690.897 356.883C690.015 357.849 689.076 358.824 688.092 359.792C679.075 346.219 668.374 341.572 657.022 347.687C653.872 349.392 650.68 351.91 647.455 355.298C647.398 355.044 647.33 354.806 647.259 354.553C647.059 353.78 646.83 350.065 646.56 349.318C643.975 342.238 636.474 340.92 633.543 348.774C631.458 354.555 635.084 373.058 642.082 376.042C643.94 376.822 646.092 376.981 648.377 376.708C652.231 376.251 656.434 374.623 659.82 373.641C660.375 379.076 662.404 384.02 665.38 388.573C665.584 388.921 665.94 389.126 666.323 389.136C665.376 394.437 666.092 400.314 669.554 406.752C669.231 407.377 668.901 408.046 668.619 408.738ZM659.721 371.254C656.842 371.932 653.287 373.131 649.89 373.689C647.504 374.067 645.199 374.138 643.342 373.27C638.359 370.952 635.224 354.009 636.665 349.844C638.408 344.574 642.338 345.922 644.178 350.252C644.464 350.923 644.693 354.55 644.925 355.245C645.163 355.982 645.39 356.737 645.602 357.493C642.604 361.548 640.777 366.67 645.023 362.088C649.278 357.476 652.048 353.635 658.09 350.356C668.785 344.524 677.867 349.305 686.38 361.421C680.258 367.074 670.119 375.482 666.956 386.57C664.649 381.804 663.545 376.958 662.965 371.732C661.682 360.085 659.608 360.22 659.721 371.254ZM655.364 145.843L655.414 145.615C656.543 139.639 661.996 137.674 668.599 137.718C674.07 137.83 679.628 138.559 685.24 139.352C682.479 139.674 679.506 140.045 676.651 140.426C671.592 141.125 666.884 141.913 664.255 142.682C661.304 143.548 658.327 144.609 655.364 145.843ZM694.509 140.629C699.239 141.23 704.018 141.676 708.823 141.663C720.658 141.61 727.966 145.408 727.976 154.216C727.981 164.505 724.202 199.322 720.222 221.494C719.892 221.533 719.57 221.718 719.389 222.041C692.671 263.998 657.282 264.417 648.759 264.015L648.804 263.934C656.307 252.236 658.889 235.116 657.401 223.825C656.74 218.818 655.63 220.276 655.852 225.194C656.243 233.821 655.041 247.563 646.268 262.328C639.724 272.637 629.145 280.605 617.968 283.32C577.712 293.099 563.61 234.117 597.076 207.541C598.789 206.19 600.59 204.927 602.466 203.768C602.942 203.807 603.411 203.54 603.602 203.098C612.365 197.994 622.508 195.316 631.457 196.704C633.608 197.04 628.728 193.386 618.604 195.196C614.502 195.928 609.612 197.391 604.632 199.821C608.858 187.621 617.33 176.467 627.654 167.31C634.241 161.45 641.607 156.414 649.133 152.436C654.461 149.626 659.857 147.318 665.156 145.671C667.148 145.036 670.381 144.373 674.028 143.73C681.179 142.467 689.937 141.263 694.509 140.629ZM719.31 226.378C717.715 235.318 716.171 245.905 705.173 244.091C710.35 238.843 715.057 232.881 719.31 226.378ZM817.66 139.087C812.543 137.744 802.243 135.537 791.248 133.297C772.384 129.463 751.51 125.534 751.51 125.534C751.465 125.527 751.406 125.522 751.361 125.514C751.361 125.514 724.24 123.081 697.097 120.782C669.968 118.481 642.816 116.302 642.816 116.302C642.086 116.231 641.442 116.777 641.358 117.509C639.249 161.961 642.587 164.608 643.891 119.101C649.623 119.64 673.209 121.877 696.804 123.996C716.771 125.803 736.756 127.533 745.899 128.317C727.397 290.511 732.75 293.736 748.16 128.517L750.985 128.757C752.598 129.034 777.734 133.48 797.331 137.223C805.685 138.826 813.034 140.287 817.096 141.276C817.707 141.425 818.321 141.06 818.484 140.447C818.638 139.865 818.259 139.253 817.66 139.087ZM782.479 180.119C784.863 179.551 787.304 178.974 789.535 178.461C789.289 179.103 789.014 179.749 788.706 180.371C788.082 181.661 787.335 182.912 786.512 184.059C784.417 187.012 780.846 189.006 777.264 189.418C773.867 189.8 770.429 188.679 768.38 185.308C765.672 180.959 765.153 174.141 766.594 168.1C766.716 167.596 766.853 167.09 767.006 166.595C783.542 150.364 819.449 152.029 836.832 166.03C845.711 173.147 850.341 179.92 851.797 185.749C853.291 191.719 851.273 196.565 847.09 199.392C843.251 201.987 837.713 202.897 831.506 201.6C815.89 198.361 807.544 186.276 798.959 174.348C798.634 173.888 798.071 173.673 797.522 173.807C797.522 173.807 789.38 175.819 781.897 177.737C761.908 182.853 769.586 183.189 782.479 180.119ZM792.188 177.835C794.405 177.324 796.226 176.893 797.244 176.667C806.048 189.219 814.485 201.318 830.832 204.818C838.048 206.359 844.492 205.169 848.965 202.148C854.243 198.584 856.918 192.471 855.007 184.943C853.412 178.624 848.469 171.198 838.799 163.552C824.791 152.515 801.508 149.714 784.388 154.447C784.232 154.297 784.023 154.184 783.795 154.134C782.262 153.814 780.71 153.204 779.137 152.994C778.343 152.89 777.551 152.888 776.752 153.019C769.77 154.239 765.231 160.247 763.414 167.303C761.631 174.206 762.521 182.034 765.641 187.018C768.499 191.474 773.101 192.99 777.656 192.344C781.983 191.736 786.236 189.161 788.656 185.509C789.512 184.211 790.281 182.824 790.924 181.384C791.424 180.232 791.857 179.032 792.188 177.835ZM780.386 155.691C776.278 157.186 772.455 159.163 769.129 161.673C770.972 158.615 773.641 156.3 777.224 155.536C777.959 155.371 778.698 155.411 779.435 155.524C779.766 155.573 780.067 155.626 780.386 155.691ZM691.486 256.072C691.191 256.238 690.96 256.525 690.902 256.887C690.866 257.112 690.903 257.341 690.979 257.534C687.973 266.807 686.601 279.155 685.325 290.665C683.635 305.718 683.37 326.503 665.49 331.331C656.536 333.754 648.039 329.053 651.561 314.446C653.629 305.884 659.606 299.083 662.987 294.951C673.749 281.764 658.252 282.185 660.974 267.168C661 267.061 660.996 266.944 660.991 266.828C664.678 266.339 668.22 265.596 671.635 264.61C668.914 271.155 669.497 279.077 671.496 285.535C670.605 290.108 667.882 298.603 665.019 304.467C661.72 311.239 663.142 314.098 667.823 304.666C671.865 296.527 673.573 290.236 674.198 284.945C673.874 281.451 671.127 271.158 674.471 263.851C674.492 263.804 674.5 263.758 674.519 263.697C680.716 261.623 686.458 258.745 691.783 255.203C691.699 255.495 691.584 255.778 691.486 256.072ZM719.996 107.42C725.477 109.465 731.203 111.31 736.885 112.707C746.746 115.089 753.885 114.561 758.237 112.585C766.528 108.805 764.922 100.816 759.063 95.5784C738.4 77.0447 703.879 87.9192 693.115 112.07C689.527 120.12 691.1 121.753 695.571 112.385C706.39 89.7346 738.411 81.3962 756.832 98.0557C760.79 101.627 762.839 106.787 756.834 109.576C752.925 111.391 746.492 111.759 737.58 109.705C731.781 108.401 725.769 106.603 720.178 104.605C719.71 104.432 719.197 104.517 718.825 104.842C698.303 128.748 707.43 122.295 719.996 107.42Z"
          fill="black"/>
    <g filter="url(#filter1_d_131_25)">
        <path d="M257.915 50.5726C222.683 20.109 164.99 23.4263 130.684 54.4842C157.816 81.4647 155.563 137.402 124.284 138.204C99.5843 138.84 93.5303 110.049 99.9299 89.6473C104.173 76.1156 111.195 64.5052 120.096 54.8989C109.978 47.4903 96.4606 44.4495 79.6392 49.8539C34.6902 64.2564 24.3238 138.632 30.9721 178.965C41.7394 244.384 90.2269 298.815 156.945 309.223L167.409 310.481L166.801 317.571L155.84 316.245C86.0803 305.367 35.2155 248.586 23.9506 180.126C16.3347 133.878 29.8249 50.2685 85.7071 41.0908C102.017 38.4093 115.175 42.2795 125.224 49.771C161.977 15.838 224.286 12.0923 262.96 45.5691L257.915 50.5726ZM125.514 59.5845C117.207 68.4721 110.656 79.2532 106.716 91.8035C101.492 108.404 106.274 134.569 126.454 130.864C148.376 126.842 147.616 81.9208 125.514 59.5845Z"
              fill="#FF6B00"/>
    </g>
    <path fill-rule="evenodd" clip-rule="evenodd"
          d="M409.458 31.1527C407.786 30.1852 407.219 28.0566 408.187 26.3979C409.154 24.7255 411.283 24.1588 412.941 25.1263C414.614 26.0939 415.181 28.2224 414.213 29.8811C413.259 31.5397 411.117 32.1202 409.458 31.1527Z"
          fill="#A6A8E8"/>
    <path fill-rule="evenodd" clip-rule="evenodd"
          d="M377.447 54.5255C376.562 54.0141 376.258 52.8807 376.77 51.9822C377.281 51.0976 378.415 50.7936 379.313 51.305C380.198 51.8164 380.502 52.9498 379.99 53.8482C379.479 54.7328 378.332 55.0369 377.447 54.5255Z"
          fill="#A6A8E8"/>
    <path fill-rule="evenodd" clip-rule="evenodd"
          d="M351.558 24.5597C350.563 23.9792 350.217 22.7076 350.798 21.6986C351.378 20.7034 352.65 20.3578 353.659 20.9384C354.654 21.5189 355 22.7905 354.419 23.7995C353.839 24.7947 352.553 25.1264 351.558 24.5597Z"
          fill="#A6A8E8"/>
    <path fill-rule="evenodd" clip-rule="evenodd"
          d="M367.55 163.608L396.535 164.921C394.531 184.203 371.724 213.727 327.411 209.221L329.457 169.676C338.939 178.149 359.492 175.316 367.55 163.608Z"
          fill="#FF6600"/>
    <path fill-rule="evenodd" clip-rule="evenodd"
          d="M385.712 164.424C383.127 178.868 361.731 201.342 348.572 189.027C343.265 184.051 336.188 175.454 334.142 175.233C334.142 174.804 343.016 195.689 342.615 195.689C342.615 195.081 341.869 195.482 342.145 196.159C342.477 196.947 342.615 198.467 342.85 199.449C343.306 201.384 340.832 197.237 341.91 198.979C342.076 199.241 343.5 203.609 343.555 203.913C343.61 204.217 344.301 206.954 344.882 209.193C377.764 205.586 394.835 181.452 396.548 164.894L385.712 164.424Z"
          fill="#AD4500"/>
    <path fill-rule="evenodd" clip-rule="evenodd"
          d="M392.457 178.108L357.819 171.556C361.731 169.704 365.172 167.036 367.536 163.608L396.521 164.921C396.12 168.999 394.751 173.533 392.457 178.108Z"
          fill="#9E4717"/>
    <path d="M133.821 174.403L114.028 254.93L153.559 323.211L184.755 242.656C184.755 242.656 140.303 185.419 133.821 174.403Z"
          fill="#A18573"/>
    <path d="M139.639 299.161L153.558 323.197L184.754 242.643C184.754 242.643 178.797 234.971 170.918 224.702L139.639 299.161Z"
          fill="#856654"/>
    <path d="M291.762 222.849L224.615 170.215L133.819 174.39L184.753 242.642C184.753 242.656 291.762 220.79 291.762 222.849Z"
          fill="#D9B59E"/>
    <path d="M459.617 335.747L312.054 201.467L185.818 216.132L321.646 363.336L459.617 335.747Z" fill="#CCA68C"/>
    <path fill-rule="evenodd" clip-rule="evenodd"
          d="M353.493 222.366C353.493 222.366 374.654 204.674 393.3 206.263C408.725 208.668 409.873 226.581 411.711 226.111C411.711 226.111 420.073 209 433.992 210.299C447.095 211.515 439.521 234.031 428.228 254.018C424.123 261.275 421.967 267.978 417.53 269.084C409.748 271.019 400.432 263.071 400.432 263.071L381.731 245.462L358.303 259.257C358.303 259.257 353.493 222.753 353.493 222.366Z"
          fill="#FF6600"/>
    <path d="M291.777 230.631C258.065 220.389 247.74 225.862 253.532 241.329C260.346 259.546 274.804 270.438 290.658 280.57C318.716 298.524 280.001 285.615 291.224 300.777C302.448 315.926 336.118 331.075 360.804 333.881C385.49 336.687 383.251 322.658 383.251 322.658C383.251 322.658 379.325 311.434 352.386 297.972C325.447 284.509 321.522 282.823 321.522 282.823L345.088 274.972L341.163 254.764C341.149 254.75 291.21 230.064 291.777 230.631Z"
          fill="#B0856B"/>
    <path fill-rule="evenodd" clip-rule="evenodd"
          d="M360.653 226.222C374.571 212.663 400.681 201.246 403.086 234.294C403.957 246.167 406.514 238.966 410.052 234.722C415.581 228.088 425.478 218.703 427.219 224.093C427.717 225.614 426.017 223.623 429.099 223.623C435.346 223.623 430.288 223.485 427.689 229.747C427.634 229.885 427.357 231.281 427.219 231.626C425.187 236.519 420.64 252.262 420.64 255.621C420.64 256.146 418.29 261.993 418.29 264.564C418.29 266.458 417.82 264.301 417.82 267.384C417.82 268.987 417.488 267.702 417.378 269.125C409.638 270.922 400.432 263.071 400.432 263.071L381.731 245.462L358.303 259.256C358.303 259.256 355.262 236.215 354.018 226.54C354.792 225.641 357.902 224.563 359.008 224.563C359.644 224.577 360.542 226.333 360.653 226.222Z"
          fill="#DE5900"/>
    <path fill-rule="evenodd" clip-rule="evenodd"
          d="M283.25 165.032C283.25 165.032 254.818 204.881 273.077 242.85C284.936 267.522 309.967 264.951 325.13 266.969C351.406 270.466 333.105 283.486 325.89 295.318C322.601 300.708 325.255 304.744 329.429 307.771C336.395 312.816 358.054 318.981 373.59 319.548C384.108 319.921 392.581 318.76 388.849 309.015C386.61 303.182 383.929 299.63 370.853 290.038C394.295 261.924 383.03 247.217 364.067 237.321C365.739 227.065 371.544 205.71 341.205 192.137L335.096 169.192L313.644 158.135L283.25 165.032Z"
          fill="#FF6600"/>
    <path fill-rule="evenodd" clip-rule="evenodd"
          d="M283.249 165.032C283.249 165.032 278.702 171.418 274.403 181.508C297.279 189.11 321.592 183.401 337.1 176.781L335.082 169.192L313.63 158.135L283.249 165.032Z"
          fill="#9E4717"/>
    <path d="M463.253 19.3903L445.782 168.294L319.2 169.317L324.425 4.31055L463.253 19.3903Z" fill="#CCA68C"/>
    <path d="M364.219 158.923C380.059 159.794 396.3 159.89 412.112 160.609C422.921 161.107 432.762 161.3 435.485 140.277C437.226 126.814 444.746 65.0303 444.829 47.3106C444.842 43.4957 451.892 31.4706 427.606 30.7518C420.433 30.5307 411.172 72.5494 403.957 72.66C390.107 72.8535 353.286 82.8468 341.827 92.5636C335.442 97.9818 335.068 112.785 335.068 112.785L343.527 131.79C343.541 131.79 360.072 157.416 364.219 158.923Z"
          fill="#6E5240"/>
    <path d="M401.884 140.899C398.055 141.853 399.811 143.249 398.124 143.249C398.124 143.318 390.246 153.601 389.182 153.601C389.182 158.868 352.484 148.874 352.484 143.249C351.627 143.249 346.679 137.139 345.421 137.139C345.421 136.946 326.388 100.912 339.312 100.912C339.312 87.1454 388.767 139.019 400.474 139.019L401.884 140.899Z"
          fill="#CCCCCC"/>
    <path d="M330.797 124.423C328.392 159.448 357.183 160.443 368.061 158.784C383.071 156.49 395.76 154.389 396.34 154.278C396.949 154.126 398.359 153.67 398.414 153.035C398.469 152.399 397.184 151.569 396.562 151.486C374.198 148.294 343.444 130.339 340.334 110.062C340.168 108.929 340.832 107.837 341.923 107.463C343.002 107.09 344.204 107.533 344.771 108.528C363.195 140.636 417.032 156.075 441.455 137.747L439.631 122.46C439.631 122.46 453.605 101.893 451.739 80.4969C451.145 73.6826 448.201 25.8586 366.07 21.4494C354.128 20.8136 340.638 27.0888 338.067 53.0879C336.132 72.5769 332.538 99.2256 330.797 124.423Z"
          fill="#F7D6B6"/>
    <path d="M324.425 4.31055L227.119 22.5417L247.299 160.734L319.201 169.317L324.425 4.31055Z" fill="#A18573"/>
    <path d="M283.721 165.087L310.991 168.335L306.831 155.481C306.831 155.481 317.557 133.711 309.858 131.818C300.749 129.579 297.681 149.151 297.681 149.151C293.23 139.752 303.928 121.645 294.322 120.76C284.287 119.848 286.623 145.308 286.734 146.027C282.67 134.679 284.37 122.834 277.528 126.787C273.921 128.86 273.672 150.505 283.721 165.087Z"
          fill="#856654"/>
    <path d="M420.13 361.069L481.734 406.073L379.41 378.111L420.13 361.069Z" fill="#CCA68C"/>
    <path d="M448.132 224.563C451.878 207.507 430.427 202.462 421.498 219.795C416.757 228.987 412.804 245.739 410.288 255.359C405.146 275 421.235 279.16 431.049 259.118C436.646 247.646 447.137 229.042 448.132 224.563Z"
          fill="white"/>
    <path d="M390.149 445.494L394.241 439.191L461.858 335.194L321.648 363.336L249.552 491.327L390.149 445.494Z" fill="#856654"/>
    <path d="M321.647 363.336L249.552 491.327L138.119 335.194L185.819 216.132L321.647 363.336Z" fill="#A18573"/>
    <path d="M370.299 379.479C344.77 402.065 311.528 444.401 296.158 476.136L357.417 456.164L370.299 379.479Z" fill="#6E5240"/>
    <path d="M383.237 376.785C381.164 376.204 335.911 448.825 335.911 448.825L356.091 467.001C368.185 519.234 399.202 533.526 416.134 536.788C417.35 537.023 417.778 535.793 418.843 535.945L401.98 505.702L475.72 535.433L478.208 534.701L470.108 496.828L506.391 505.467L509.045 504.638L479.106 447.94L502.507 444.955L504.636 443.946C504.649 443.932 458.097 397.725 383.237 376.785Z"
          fill="#CCA68C"/>
    <path d="M266.953 386.861L185.818 296.672L186.412 402.853L217.305 446.143L266.953 386.861Z" fill="#856654"/>
    <path d="M266.952 386.861L185.817 296.672L165.831 413.261L193.931 438.969L266.952 386.861Z" fill="#CCA68C"/>
    <path d="M380.888 377.724C378.815 377.144 333.562 449.764 333.562 449.764L353.742 467.94C366.693 523.905 400.571 534.7 416.494 536.884L399.507 506.517L475.735 535.516L467.759 497.754L506.696 505.563L476.758 448.866L502.287 444.871C502.287 444.871 455.748 398.664 380.888 377.724Z"
          fill="#FF7500"/>
    <path d="M380.888 377.724C378.815 377.144 333.562 449.764 333.562 449.764L350.052 464.609L349.623 445.341L389.61 462.273L378.787 425.576L412.665 430.745L390.08 400.641L431.477 407.234L414.116 389.238C403.778 384.953 392.679 381.028 380.888 377.724Z"
          fill="#FF6000"/>
    <path d="M361.771 137.54C362.269 147.52 365.725 154.126 370.452 158.411C384.398 156.255 395.801 154.375 396.354 154.279C396.962 154.127 398.372 153.67 398.427 153.035C398.483 152.399 397.197 151.569 396.575 151.487C385.559 149.911 372.539 144.769 361.771 137.54ZM406.983 28.8166C403.818 28.4849 400.542 28.2223 397.114 28.0426C392.359 27.78 387.37 28.6231 382.919 31.3737C388.752 32.5485 393.852 34.6495 398.51 36.7919C413.825 35.0503 426.237 38.4643 434.586 44.8916C428.145 38.8237 419.271 33.1152 406.983 28.8166ZM367.784 72.1208C365.932 88.7625 363.527 108.5 362.089 127.644C386.181 145.902 422.588 151.887 441.455 137.747L439.631 122.46C439.631 122.46 453.605 101.893 451.739 80.4969C451.614 79.1285 451.407 76.1154 450.481 72.1208C449.154 83.9939 437.046 86.7721 414.433 62.5007C403.707 81.188 382.352 82.3076 374.501 68.61C372.58 70.1443 370.286 71.2777 367.784 72.1208Z"
          fill="#FFE3BB"/>
    <path fill-rule="evenodd" clip-rule="evenodd"
          d="M386.236 121.202C404.481 126.137 412.235 97.5669 394.93 91.0568C375.718 83.8417 367.176 116.061 386.236 121.202Z"
          fill="black"/>
    <path fill-rule="evenodd" clip-rule="evenodd"
          d="M402.74 27.5173C418.387 26.6742 431.006 31.0558 439.368 38.257C470.164 64.809 451.186 95.6043 414.904 54.4425C410.591 75.4243 384.509 77.1105 378.731 57.898C366.209 67.1311 337.183 59.0867 337.183 59.0867C337.183 59.0867 337.791 29.2451 354.543 23.274C376.52 15.4231 391.005 21.408 402.74 27.5173Z"
          fill="#45B2E0"/>
    <path d="M387.632 120.788C403.887 125.695 410.798 99.9996 395.372 93.6968C378.274 86.7029 370.659 115.674 387.632 120.788Z"
          fill="#E5E5E5"/>
    <path fill-rule="evenodd" clip-rule="evenodd"
          d="M424.841 121.756C432.789 124.119 438.318 115.467 439.354 108.639C441.137 97.0282 431.255 92.0661 423.653 98.2307C417.239 103.442 413.867 118.715 424.841 121.756Z"
          fill="black"/>
    <path d="M425.809 120.954C437.06 124.548 444.427 103.635 433.84 99.0184C422.091 93.8905 414.074 117.208 425.809 120.954Z"
          fill="#E5E5E5"/>
    <path d="M435.083 118.079C439.962 112.661 440.985 102.128 433.839 99.0183C431.89 98.1614 430.038 98.1061 428.366 98.6037C423.335 104.257 422.339 115.508 430.204 118.024C431.932 118.576 433.577 118.549 435.083 118.079Z"
          fill="white"/>
    <path d="M411.905 114.568L408.63 123.331L406.363 130.297C419.604 139.033 428.754 136.918 431.298 133.172C444.498 113.725 423.295 114.83 411.905 114.568Z"
          fill="#E46A63"/>
    <path d="M411.104 116.738L408.643 123.331L406.376 130.298C412.638 134.43 417.987 136.13 422.161 136.393C422.603 136.034 422.977 135.619 423.267 135.204C433.937 119.434 422.051 117.167 411.104 116.738Z"
          fill="#F37972"/>
    <path fill-rule="evenodd" clip-rule="evenodd"
          d="M472.859 439.232C462.188 436.412 451.531 433.593 440.875 430.759C449.513 441.609 456.701 454.408 461.58 470.276C446.21 463.379 420.017 451.616 408.421 450.981C415.415 476.385 436.396 497.768 444.648 509.323C428.117 506.213 409.43 501.306 385.366 491.921L395.94 530.429C403.832 534.465 411.171 536.152 416.507 536.884L399.519 506.517L475.747 535.516L467.772 497.754L506.709 505.564L476.77 448.866L502.299 444.871C502.299 444.871 486.238 428.935 457.82 411.533C462.824 420.766 467.841 429.999 472.859 439.232Z"
          fill="#FF8925"/>
    <path d="M370.19 379.59L325.725 451.34L333.493 449.695L381.013 377.71L370.19 379.59Z" fill="#7A5740"/>
    <path fill-rule="evenodd" clip-rule="evenodd"
          d="M296.422 154.859C304.094 154.099 310.3 156.545 310.3 160.319C310.3 164.092 304.08 167.755 296.422 168.501C288.751 169.262 282.545 166.815 282.545 163.042C282.545 159.282 288.765 155.619 296.422 154.859Z"
          fill="#9E4717"/>
    <path fill-rule="evenodd" clip-rule="evenodd"
          d="M298.952 161.466C292.773 183.484 290.009 203.872 289.857 216.588C289.511 244.577 313.838 257.238 341.689 253.548C350.355 252.4 353.369 251.737 350.355 262.034C346.624 274.806 338.551 304.703 336.492 312.125C332.442 310.619 331.475 309.278 329.429 307.799C325.255 304.772 319.823 302.339 324.951 298.635C326.278 297.681 328.392 295 328.931 291.143C330.894 276.879 334.889 268.78 336.202 266.292C314.294 269.471 282.282 265.642 271.681 243.582C253.422 205.613 283.264 165.06 283.264 165.06L298.952 161.466Z"
          fill="#E05A00"/>
    <path fill-rule="evenodd" clip-rule="evenodd"
          d="M282.779 167.907C282.779 167.907 288.957 175.371 299.877 178.26C310.796 181.149 310.133 173.726 310.133 173.726C310.133 173.726 310.423 196.74 310.202 197.03C309.994 197.32 319.227 212.815 310.672 228.116C302.116 243.417 281.411 244.702 273.988 222.822C266.566 200.942 282.779 167.907 282.779 167.907Z"
          fill="#AD4500"/>
    <path d="M305.199 163.097L302.434 150.92C302.434 150.92 315.911 131.998 308.447 130.353C299.615 128.404 294.086 145.405 294.086 145.405C290.824 137.236 303.816 121.493 294.307 120.733C284.383 119.931 283.498 142.06 283.512 142.696C280.872 132.841 284.079 122.543 276.739 125.971C272.233 128.086 268.916 153.38 283.236 165.018C294.113 173.85 305.199 163.097 305.199 163.097Z"
          fill="#CC998C"/>
    <path fill-rule="evenodd" clip-rule="evenodd"
          d="M310.424 158.729C308.738 164.52 291.115 170.602 281.633 164.534C281.633 164.534 281.329 187.548 281.55 187.838C281.771 188.128 272.054 203.623 281.052 218.924C290.05 234.225 311.861 235.51 319.671 213.63C327.48 191.763 310.424 158.729 310.424 158.729Z"
          fill="#F2732B"/>
    <path d="M446.336 234.031C452.998 213.285 439.701 206.014 428.961 225.531C423.972 234.598 419.825 249.084 417.309 258.704C412.928 275.442 420.654 274.765 429.887 262.975C431.491 260.915 441.484 249.166 446.336 234.031Z"
          fill="#DFDFDF"/>
    <path fill-rule="evenodd" clip-rule="evenodd"
          d="M124.794 211.073L167.269 263.859L161.464 277.75L120.288 225.02L124.794 211.073Z" fill="#7A5740"/>
    <path fill-rule="evenodd" clip-rule="evenodd"
          d="M295.137 166.815C295.828 177.79 296.561 191.266 295.966 193.533C288.738 221.121 302.504 224.853 311.958 225.379C311.212 226.056 310.41 226.719 309.553 227.355C299.906 233.492 287.342 229.663 281.039 218.951C272.041 203.651 281.757 188.156 281.536 187.866C281.315 187.576 281.619 164.562 281.619 164.562C285.351 166.926 290.355 167.437 295.137 166.815Z"
          fill="#DE5900"/>
    <path fill-rule="evenodd" clip-rule="evenodd"
          d="M388.849 328.27L371.447 330.509L388.282 349.583L373.133 373.149L392.774 369.791L405.684 347.344C405.684 347.344 389.968 328.27 388.849 328.27Z"
          fill="#7A5740"/>
    <path fill-rule="evenodd" clip-rule="evenodd"
          d="M392.856 33.157C408.503 32.3138 424.412 36.2254 432.774 43.4267C442.353 51.6922 447.536 63.1921 449.015 73.8764C442.284 76.3091 430.107 71.7064 414.889 54.4428C410.576 75.4245 384.494 77.1108 378.717 57.8983C366.194 67.1313 337.168 59.0869 337.168 59.0869C337.168 59.0869 337.721 31.9544 352.303 24.2556C371.46 19.0309 381.937 27.4761 392.856 33.157Z"
          fill="#267DA1"/>
    <path d="M391.862 117.968C394.847 118.867 397.529 118.729 399.796 117.872C406.016 111.431 405.933 98.0233 395.359 93.697C392.042 92.3425 389.084 92.3425 386.582 93.2547C380.155 99.9998 380.334 114.499 391.862 117.968Z"
          fill="white"/>
    <path fill-rule="evenodd" clip-rule="evenodd" d="M274.349 13.6953L278.62 67.0342H264.037L259.988 16.3906L274.349 13.6953Z"
          fill="#7A5740"/>
    <path fill-rule="evenodd" clip-rule="evenodd"
          d="M308.253 178.066C316.077 200.347 315.496 212.649 312.248 225.309C315.261 222.614 317.846 218.772 319.67 213.658C324.397 200.402 320.002 183.07 315.814 171.445C314.335 173.104 312.953 176.228 308.253 178.066Z"
          fill="#F78547"/>
    <path fill-rule="evenodd" clip-rule="evenodd"
          d="M331.309 195.233C328.765 196.021 320.431 197.196 329.277 198.578C348.158 201.55 355.4 219.615 353.659 232.87C341.537 231.322 329.968 236.588 331.281 236.229C342.795 233.064 370.95 244.895 374.668 259.671C376.285 266.112 374.737 273.645 369.72 282.546C362.546 295.29 361.551 293.286 365.352 296.133C378.497 305.988 379.865 315.608 379.257 319.548C386.873 319.175 391.876 316.908 388.836 309.015C386.597 303.183 383.915 299.63 370.839 290.038C394.282 261.924 383.017 247.217 364.053 237.321C367.481 216.242 364.993 202.78 341.191 192.137L337.252 177.361C335.676 175.012 334.156 173.408 333.423 174.196C332.981 174.68 333.52 173.367 331.779 173.367C330.065 173.367 329.374 173.837 328.019 173.837C327.411 173.837 328.047 174.072 326.844 174.072C326.844 174.763 325.904 173.643 325.904 175.246C325.047 175.246 326.167 175.689 326.374 176.186C328.24 180.692 331.309 190.879 331.309 195.233Z"
          fill="#FF8737"/>
    <path d="M396.977 104.077C399.451 104.077 401.303 106.786 401.137 110.131C400.957 113.476 398.829 116.185 396.355 116.185C393.88 116.185 392.028 113.476 392.194 110.131C392.36 106.786 394.502 104.077 396.977 104.077Z"
          fill="black"/>
    <path d="M434.2 106.399C436.274 106.399 437.559 108.749 437.061 111.652C436.564 114.554 434.477 116.904 432.39 116.904C430.316 116.904 429.031 114.554 429.528 111.652C430.026 108.749 432.113 106.399 434.2 106.399Z"
          fill="black"/>
    <path fill-rule="evenodd" clip-rule="evenodd"
          d="M227.105 210.244C246.207 208.129 261.687 206.885 261.687 207.465C261.687 208.046 246.207 210.244 227.105 212.358C208.003 214.473 192.522 215.717 192.522 215.137C192.522 214.542 208.003 212.358 227.105 210.244Z"
          fill="black"/>
    <path d="M389.319 309.541C391.171 315.18 390.715 317.834 388.379 320.28C379.575 329.541 344.66 323.625 328.378 314.282C322.932 311.158 318.647 308.241 320.32 304.15C321.011 302.478 323.858 298.456 326.194 297.516C326.194 297.516 324.453 298.179 328.917 301.524C331.875 303.805 338.952 308.435 347.95 311.241C366.071 316.866 390.328 318.055 389.319 309.541Z"
          fill="white"/>
    <path fill-rule="evenodd" clip-rule="evenodd"
          d="M448.755 75.6316C449.57 79.4741 449.736 83.3166 449.501 87.1315C448.492 101.99 442.106 113.366 438.637 121.023C436.204 126.4 436.647 127.685 438.416 125.695C439.77 129.178 440.821 134.955 439.604 137.872C426.695 148.073 408.947 147.022 394.006 142.461C377.226 136.656 356.465 125.391 347.716 109.73C343.445 100.47 335.29 105.777 339.229 114.084C344.772 125.695 352.236 135.633 363.21 142.447C371.435 147.561 381.4 151.376 393.273 153.449C387.841 154.693 378.677 156.615 367.067 159.255C366.942 159.282 366.832 159.324 366.735 159.393C361.275 159.545 355.899 159.821 350.84 158.715C346.693 157.817 342.782 155.951 339.243 152.191C336.755 149.551 335.166 146.538 334.115 143.332C332.47 138.314 332.097 132.813 331.862 127.436C331.475 119.668 331.765 111.818 332.443 103.967C332.802 99.6957 334.599 89.0804 335.276 80.7181C336.963 59.847 334.931 68.0434 332.802 80.9531C331.558 88.5137 330.425 96.0881 329.665 103.718C328.863 111.693 328.476 119.682 328.766 127.588C329.001 133.255 329.374 139.047 331.088 144.341C332.277 147.99 334.115 151.404 336.935 154.403C340.985 158.688 345.449 160.816 350.19 161.825C357.129 163.304 364.648 162.281 372.167 162.392C380.723 162.489 389.044 162.973 397.475 163.056C401.096 163.097 404.718 163.056 408.394 162.89C412.956 162.682 417.517 162.586 421.677 161.273C424.525 160.374 427.192 158.909 429.556 156.49C430.966 155.039 432.016 153.339 432.832 151.5C433.993 148.888 434.711 146.027 435.444 143.359V143.332C437.462 142.226 439.411 140.899 441.263 139.365C441.553 139.13 441.678 138.784 441.664 138.439C442.977 133.2 441.747 128.625 439.895 123.76C440.157 123.359 440.434 122.917 440.724 122.447C446.667 112.44 452.279 99.1428 452.487 87.2835C452.556 83.0264 452.03 78.7692 450.8 74.5535C453.164 72.9087 454.739 70.3793 455.375 67.2555C456.619 61.16 454.173 52.6181 446.695 44.4769C434.656 31.4014 418.996 24.4213 401.967 27.0751C398.705 25.3888 395.554 23.592 392.264 22.113C389.818 21.0211 387.274 20.1088 384.565 19.5283C379.603 18.5055 373.466 18.1737 367.509 18.9339C345.587 21.7122 339.782 34.2349 336.576 50.835C333.949 64.4497 334.64 66.9514 337.101 58.6583C347.495 64.8643 367.108 66.8547 377.24 60.8421C377.378 60.7592 377.516 60.6763 377.654 60.5933C382.202 69.7158 390.467 73.2266 398.194 72.3282C405.243 71.4989 411.961 66.9653 415.195 59.4876C415.844 60.1234 416.508 60.7592 417.158 61.4365C424.746 69.1768 431.532 73.5583 437.13 75.4519C441.526 76.9447 445.258 76.9309 448.174 75.9081C448.354 75.7975 448.561 75.7146 448.755 75.6316ZM268.599 88.9007C269.94 113.836 271.93 120.857 271.239 90.8081C271.087 84.0077 270.838 77.2626 270.23 70.4899C266.982 34.1105 268.129 80.1238 268.599 88.9007ZM132.826 173.878C132.135 173.906 131.541 174.39 131.375 175.067C125.086 201.826 118.092 228.406 111.333 255.041C111.236 255.4 111.291 255.773 111.471 256.091C156.503 327.841 155.923 325.063 114.222 255.207C121.077 229.304 127.104 202.877 133.794 176.96C139.018 186.525 145.722 194.266 152.26 202.89C179.738 238.233 182.157 237.749 154.775 200.969C148.597 192.87 141.479 185.046 136.06 176.394C234.832 171.197 229.981 169.745 132.826 173.878ZM471.851 405.52C480.918 407.704 486.696 408.271 479.743 403.309C469.75 396.177 460.31 389.57 450.413 382.189C436.619 371.892 434.587 371.905 447.87 382.673C455.762 389.072 464.788 394.49 471.906 400.669C476.578 403.198 476.274 404.166 464.816 400.876C419.936 387.98 454.159 401.263 471.851 405.52ZM452.901 350.965C452.915 350.951 452.929 350.924 452.929 350.91L461.512 336.894C461.885 336.272 461.775 335.457 461.236 334.959C461.236 334.959 443.171 318.428 423.723 300.722C415.167 292.927 406.307 284.924 398.691 277.93C393.107 272.802 388.159 268.227 384.455 264.688C384.496 264.232 384.524 263.79 384.524 263.334C384.883 250.314 376.576 241.274 366.542 236.519C369.555 225.78 367.772 213.727 362.188 205.323C378.332 200.928 390.675 188.681 396.521 171.805C396.618 171.515 396.604 171.224 396.48 170.962C400.309 170.948 404.068 170.934 407.69 170.906C422.838 170.796 435.651 170.506 441.692 170.022C443.516 169.87 444.788 169.69 445.382 169.51C445.976 169.331 446.294 169.04 446.46 168.847C446.571 168.723 446.737 168.46 446.875 168.018C447.013 167.548 447.206 166.58 447.441 165.17C448.188 160.554 449.418 151.086 450.869 138.66C454.67 106.012 457.725 73.0193 461.637 40.4133C464.788 14.1239 461.609 19.8462 459.204 40.2474C454.767 77.7326 451.118 116.268 445.921 152.869C445.119 159.227 444.497 163.871 444.083 166.083C444.055 166.248 444.014 166.428 443.986 166.58C443.018 166.76 441.291 166.898 438.969 167.05C428.312 167.714 405.45 168.045 382.547 168.17C365.242 168.266 347.91 168.239 335.829 168.114C335.539 167.727 335.027 167.561 334.558 167.755C334.364 167.824 334.212 167.949 334.088 168.101C326.485 168.018 321.261 167.879 319.906 167.714C319.215 167.631 318.483 167.465 317.75 167.271C316.548 166.953 315.525 166.76 314.709 166.705C314.267 165.599 313.811 164.534 313.341 163.512C308.517 152.813 310.176 160.941 311.82 165.889C316.893 181.107 322.076 199.366 317.335 215.316C314.17 226.084 300.79 233.644 290.659 228.53C279.74 223.029 278.8 203.277 280.97 190.312C281.467 187.355 280.348 186.083 279.353 189.925C274.75 207.756 278.634 226.415 289.968 231.834C301.592 237.39 316.782 228.295 320.39 216.215C324.523 202.213 321.053 183.332 315.58 168.93C316.05 169.096 316.575 169.248 317.156 169.414C317.999 169.649 318.828 169.842 319.616 169.939C321.012 170.119 326.43 170.298 334.281 170.464C335.221 174.224 337.446 184.148 339.091 190.036C340.653 195.62 341.69 197.583 340.598 187.202C340.225 183.692 338.386 175.316 336.769 170.506C351.724 170.782 374.019 170.989 394.517 170.948C394.503 170.976 394.49 171.017 394.476 171.045C388.449 186.525 376.175 198.799 360.681 203.222C358 199.891 354.613 197.306 350.619 195.883C346.901 194.556 345.449 195.136 348.352 196.463C361.096 202.296 368.836 219.878 363.915 235.358C360.225 233.921 356.396 233.078 352.747 232.718C336.548 231.115 348.808 234.639 352.194 235.179C365.408 237.252 381.856 245.932 381.469 263.251C381.469 263.458 381.455 263.652 381.455 263.859C381.359 264.094 381.345 264.357 381.428 264.592C380.916 273.396 376.507 280.957 371.642 288.835C355.664 279.823 357.032 283.003 371.061 292.07C378.332 296.769 387.178 302.934 388.518 312.084C388.56 312.416 388.74 312.692 389.002 312.872C388.753 313.162 388.684 313.577 388.823 313.964C389.458 315.636 389.569 316.991 389.223 318.11C388.823 319.41 387.8 320.336 386.5 321.054C382.464 323.266 375.83 323.404 372.374 323.694C365.505 324.303 352.429 322.243 341.151 318.594C333.327 316.051 326.333 312.803 323.127 308.919C321.371 306.804 321.302 305.159 322.104 303.666C322.864 302.243 324.205 300.971 325.518 299.644C332.083 292.954 329.955 290.162 332.028 281.814C333.162 277.211 334.571 272.567 336.299 268.075C343.127 252.359 340.086 253.548 334.792 265.214C327.882 266.167 319.422 266.001 311.254 264.979C282.269 261.316 267.562 247.411 267.618 216.312C267.963 193.035 276.174 180.568 280.749 170.547C282.214 167.34 281.578 165.861 279.007 169.828C273.022 179.089 268.364 190.423 266.056 201.84C259.656 196.076 240.25 180.886 235.924 177.32C226.152 170.008 216.366 165.364 231.777 177.582C246.429 188.861 259.546 200.776 265.42 205.323C264.826 209.014 264.508 212.704 264.466 216.298C264.121 248.641 280.61 264.384 310.977 267.743C318.87 268.614 326.955 268.628 333.742 267.605C331.945 272.028 330.452 276.589 329.236 281.123C326.306 292.097 329.913 290.328 321.62 299.119C320.058 300.778 318.814 302.519 318.469 304.454C318.137 306.362 318.593 308.504 320.653 310.992C324.163 315.194 331.655 318.898 340.183 321.58C351.904 325.256 365.491 327.081 372.596 326.348C376.272 325.961 383.349 325.588 387.62 323.141C389.458 322.091 390.813 320.681 391.352 318.801C391.794 317.281 391.725 315.443 390.827 313.203C390.744 312.982 390.592 312.803 390.398 312.692C390.578 312.471 390.675 312.181 390.647 311.877C389.749 302.008 381.497 294.862 373.522 290.01C376.466 285.504 378.58 282.076 381.055 276.575C382.409 273.548 383.473 270.494 384.04 267.453C392.499 275.787 406.404 288.974 420.019 301.607C426.833 307.937 433.592 314.116 439.508 319.506C448.589 327.786 455.721 334.199 458.195 336.424L450.427 349.431C441.636 362.741 432.735 375.997 425.326 389.141C413.204 383.944 398.664 378.789 383.391 374.462C382.865 374.172 369.499 378.844 369.209 379.369C368.767 380.143 379.617 377.379 379.175 378.139C364.869 402.728 348.946 422.756 334.032 448.714C333.728 449.225 324.965 451.423 325.476 451.727C325.739 451.893 333.466 451.796 333.742 451.713C333.949 452.197 341.538 459.813 342.09 460.269C268.019 482.716 251.888 491.908 344.703 463.047L352.056 469.751C356.825 480.933 363.197 510.678 386.459 526.698C395.706 533.36 402.492 535.848 414.877 537.216C415.195 537.257 415.513 537.147 415.734 536.94C415.996 537.313 416.204 537.644 416.384 537.907C416.715 538.405 417.393 538.543 417.89 538.211C418.388 537.879 418.526 537.202 418.194 536.705C416.356 533.857 409.625 523.836 405.174 515.958C403.792 513.511 402.631 511.272 401.912 509.544C401.829 509.323 401.746 509.13 401.663 508.936C405.782 510.36 419.134 515.571 433.219 521.003C438.761 523.145 444.414 525.301 449.681 527.292C456.094 529.711 461.913 531.867 466.226 533.429C469.446 534.59 471.823 535.405 472.971 535.751C473.441 535.889 473.758 535.958 473.911 535.972C474.74 536.055 475.141 535.613 475.279 535.419C475.376 535.295 475.666 534.866 475.569 534.092C475.514 533.622 475.32 532.627 475.03 531.3C471.671 515.82 462.673 484.651 469.875 520.077C470.884 525.025 471.892 529.794 472.404 532.517C471.146 532.074 469.391 531.411 467.248 530.609C462.977 529.006 457.186 526.767 450.8 524.32C445.548 522.316 439.881 520.16 434.338 518.059C418.18 511.949 402.921 506.296 401.069 505.882C400.917 505.826 400.253 505.578 400.018 505.578C399.631 505.578 399.313 505.688 399.078 505.868C398.788 506.075 398.539 506.393 398.484 506.904C398.415 507.513 398.567 508.425 398.982 509.572C399.673 511.479 401.11 514.23 402.907 517.285C406.459 523.339 411.394 530.651 414.352 534.977C402.755 533.346 393.688 528.951 385.049 522.551C374.793 516.234 360.377 491.59 354.323 468.231C350.08 464.291 339.533 454.436 335.774 451.202C335.636 451.078 335.47 450.995 335.304 450.953C349.554 427.788 370.135 399.95 382.312 377.199C417.323 385.465 452.846 404.995 481.886 425.424C489.695 430.911 496.44 436.136 500.794 440.296C507.816 447.014 505.729 441.679 499.896 436.482C493.441 430.718 483.931 423.807 473.537 416.827C454.504 404.014 433.412 391.311 427.317 390.04L452.901 350.965ZM169.136 252.954C167.754 256.312 166.386 259.685 165.017 263.057C161.838 270.922 158.701 278.787 155.549 286.665C148.818 303.528 143.718 317.087 136.503 333.757C136.323 334.144 136.406 334.586 136.655 334.89C136.558 335.194 136.599 335.54 136.807 335.83C147.076 351.407 159.212 367.482 168.694 382.576C168.722 382.617 168.749 382.673 168.791 382.714L163.317 412.321C163.234 412.818 163.414 413.33 163.801 413.661L192.012 440.642C192.551 441.098 193.339 441.126 193.905 440.711C193.905 440.711 198.121 437.656 204.493 433.026C218.398 452.557 229.663 467.871 237.389 478.03C251.46 496.552 253.823 498.017 239.117 476.883C228.626 461.817 218.301 445.397 207.465 430.87C222.448 419.978 246.014 402.825 257.652 394.214C260.707 391.961 262.932 390.275 263.996 389.459C264.356 389.183 264.591 388.989 264.701 388.879C265.572 388.077 265.213 387.192 265.171 387.068C264.356 384.995 258.357 377.641 249.746 367.883C160.069 266.029 164.948 275.069 247.452 369.887C254.597 378.098 259.947 384.428 261.702 387.234C260.555 388.119 258.481 389.653 255.772 391.657C239.462 403.71 199.793 432.625 193.09 437.518L166.303 411.989C167.201 407.082 172.039 381.29 176.379 356.162C185.239 304.896 183.649 301.109 174.333 352.845L169.427 379.397C161.728 366.1 146.869 346.044 138.631 334.586C138.617 334.558 138.604 334.545 138.576 334.517C145.708 318.788 150.878 306.182 157.471 290.218C159.945 284.219 162.391 278.206 164.81 272.18C167.229 266.154 169.648 260.141 172.025 254.101C191.846 203.886 189.551 203.457 169.136 252.954ZM376.521 159.462C385.92 157.485 392.941 156.089 396.59 155.218C398 154.887 398.94 154.61 399.369 154.431C400.06 154.127 400.267 153.657 400.322 153.435C400.433 153.035 400.419 151.929 398.982 151.735C385.16 149.869 373.853 145.75 364.758 139.987C356.424 134.707 345.684 122.129 341.386 112.965C339.257 108.445 343.086 104.948 345.546 110.352C356.714 129.288 375.222 139.89 393.19 145.225C406.003 148.943 420.585 150.118 432.818 144.617C432.251 146.607 431.643 148.639 430.772 150.533C430.04 152.109 429.127 153.574 427.897 154.818C425.81 156.905 423.46 158.135 420.959 158.895C416.992 160.098 412.652 160.098 408.311 160.236C404.69 160.346 401.096 160.346 397.53 160.264C390.509 160.111 383.57 159.697 376.521 159.462ZM398.318 27.7524C397.212 28.015 396.093 28.3052 394.973 28.6508C389.652 30.4753 387.772 33.2535 395.595 30.7379C397.641 30.1297 399.673 29.6736 401.677 29.3557L401.829 29.4248C402.285 29.646 402.81 29.5216 403.128 29.1484C419.01 27.158 433.467 33.9584 444.608 46.3014C451.215 53.6271 453.565 61.1739 452.417 66.6059C451.768 69.6744 449.957 71.9826 447.124 72.964C444.732 73.7933 441.692 73.6689 438.098 72.4388C432.832 70.6281 426.501 66.4538 419.383 59.1559C418.36 58.1054 417.31 57.1102 416.287 56.115C423.986 26.9507 388.062 31.429 412.292 56.6126C412.43 56.7647 412.582 56.9029 412.721 57.0549C410.177 64.1456 404.193 68.5133 397.793 69.2873C390.993 70.1167 383.86 66.8685 379.921 58.6997C381.303 57.359 382.312 55.8248 383.059 54.2629C384.579 51.0976 384.98 47.8218 385.077 45.8868C385.491 37.7318 380.668 35.7553 377.53 38.1188C375.484 39.6531 373.701 43.5232 374.462 49.6049C374.862 52.8392 375.595 55.7004 376.576 58.216C376.355 58.368 376.134 58.5062 375.899 58.6583C366.376 64.422 347.218 62.3902 337.667 56.4467C338.165 54.6361 338.704 52.466 339.298 49.9642C342.754 35.23 347.896 24.8774 367.882 22.0715C373.494 21.3113 379.272 21.4495 383.971 22.3203C386.514 22.7765 388.892 23.5505 391.2 24.4904C393.633 25.4579 395.969 26.6051 398.318 27.7524ZM247.548 162.765C256.436 163.401 261.232 164.023 268.032 164.659C281.619 165.931 280.624 163.83 267.756 161.908C261.439 160.968 257.514 160.471 248.488 160.581C241.909 126.372 237.818 81.8239 231.625 43.9379C228.446 24.4904 228.184 36.1838 229.289 45.1404C233.574 79.6124 240.154 128.224 246.512 161.839C246.512 161.881 246.525 161.908 246.525 161.95C246.636 162.392 247.051 162.738 247.548 162.765ZM321.496 6.14863C321.164 16.0866 320.888 26.0108 320.666 35.9488C320.514 42.5833 320.376 49.204 320.266 55.8386C320.127 64.1179 320.017 72.3973 319.879 80.6905C319.74 88.9698 319.588 97.2492 319.367 105.529C318.994 119.696 318.469 133.877 317.57 148.059C317.529 148.653 317.985 149.178 318.579 149.22C319.174 149.261 319.699 148.805 319.74 148.211C321.247 129.275 322.187 110.339 322.754 91.4163C322.961 84.3118 323.113 77.2073 323.237 70.1028C323.348 62.9984 323.445 55.8939 323.486 48.7894C323.569 34.6357 323.528 20.4682 323.666 6.30068C331.448 6.97795 350.19 8.94067 371.49 11.2489C382.879 12.4791 394.987 13.806 406.542 15.1053C467.359 21.9471 483.254 21.7122 406.833 12.3685C392.886 10.6684 378.124 8.92685 364.814 7.42026C345.297 5.22256 328.877 3.53628 322.712 3.02487C321.012 2.88665 317.474 3.32895 312.677 4.2412C304.246 5.83073 291.751 8.77481 278.523 11.8986C275.04 12.7141 216.49 26.0246 227.617 24.7254C243.346 23.0114 260.099 18.9754 275.565 15.5337C284.204 13.6125 292.649 11.7051 300.016 10.1017C310.01 7.87638 317.957 6.25921 321.496 6.14863ZM378.871 56.1565C379.659 55.2166 380.281 54.2076 380.764 53.1848C382.091 50.3789 382.395 47.4901 382.478 45.7762C382.589 43.1915 382.133 41.4223 381.29 40.4547C380.695 39.7913 379.894 39.7498 379.202 40.2751C377.641 41.4776 376.645 44.546 377.267 49.2455C377.585 51.8302 378.138 54.1108 378.871 56.1565ZM413.688 53.4336C417.171 33.0738 397.254 35.2162 413.688 53.4336V53.4336ZM435.679 128.141C438.07 116.614 427.842 113.366 418.443 113.753C411.781 114.029 407.828 116.669 416.342 116.227C424.055 115.84 434.863 117.111 432.597 127.478C430.136 138.715 416.37 135.771 409.016 131.417C404.027 128.459 405.658 129.745 408.934 133.117C416.301 140.733 433.025 140.996 435.679 128.141ZM227.755 266.001C233.685 272.567 240.015 279.519 246.456 286.555C252.69 293.383 259.048 300.28 265.268 307.011C283.886 327.108 355.719 400.987 292.525 332.278C284.951 324.04 276.409 314.655 267.535 304.924C259.283 295.885 250.769 286.541 242.559 277.57C235.537 269.913 228.737 262.505 222.503 255.746C170.339 199.255 193.242 227.798 227.755 266.001ZM291.544 414.532C239.352 508.909 236.256 521.252 292.345 418.941C329.83 350.592 323.942 355.955 291.544 414.532ZM352.139 358.899C432.763 344.261 512.819 324.468 363.445 353.647C356.521 355.001 349.61 356.397 342.699 357.807C300.929 367.731 339.05 361.58 352.139 358.899ZM481.416 499.565C463.682 496.538 459.273 497.796 480.96 502.025C488.119 503.421 497.823 506.338 503.103 507.112C507.899 507.803 508.825 506.849 504.761 498.971C498.154 485.867 490.621 473.11 483.475 460.297C460.379 418.803 499.827 496.386 501.969 500.394C504.388 503.988 504.084 504.638 502.909 504.499C497.546 503.822 487.995 500.698 481.416 499.565ZM420.074 273.134C423.322 271.378 426.142 269.042 428.657 266.375C439.038 255.359 446.792 238.427 448.672 223.568C449.971 213.298 441.913 204.936 432.652 208.668C423.557 210.092 416.204 215.316 411.2 222.891C403.681 206.47 394.794 200.859 378.746 206.429C371.462 208.958 367.813 213.52 379.479 208.696C388.283 205.047 401.29 204.3 409.238 226.236C407.717 229.125 406.307 232.207 405.45 235.358C402.009 247.48 403.432 247.757 407.62 235.538C410.177 227.286 418.084 217.666 425.824 213.533C419.922 219.518 409.998 245.006 409.445 253.7C409.113 258.883 409.376 260.528 410.564 256.298C413.992 244.066 421.318 219.587 431.325 212.856C439.522 207.3 446.64 214.487 445.52 223.167C443.696 237.556 436.66 253.811 426.861 264.73C424.58 267.273 422.009 269.526 419.023 271.24C418.498 271.53 418.305 272.194 418.609 272.719C418.885 273.244 419.549 273.424 420.074 273.134ZM417.116 273.465C417.71 273.396 418.139 272.857 418.084 272.263C418.014 271.669 417.475 271.24 416.881 271.295C407.372 272.083 387.302 249.332 381.621 242.007C376.604 235.538 375.222 236.851 380.764 244.73C386.832 253.354 405.049 275.096 417.116 273.465ZM295.137 138.328C295.538 136.946 296.077 135.591 296.644 134.278C302.753 120.235 292.221 115.95 285.987 124.257C284.909 125.681 284.024 127.63 283.32 129.8C281.232 123.456 274.073 123.138 271.944 132.799C269.525 143.788 272.317 156.642 279.947 165.018C280.334 165.474 281.025 165.53 281.481 165.129C281.937 164.742 281.993 164.051 281.592 163.595C275.206 155.73 272.538 143.525 274.515 133.67C275.98 126.372 280.666 126.787 281.343 132.896C281.592 135.121 281.371 137.582 281.426 139.766C281.302 141.493 281.288 143.083 281.398 144.424C281.523 145.833 281.854 146.801 282.532 146.815C283.085 146.829 283.693 145.778 283.776 144.189C284.066 138.37 284.66 130.27 288.544 125.639C292.801 120.567 298.178 122.903 293.741 133.007C292.718 135.343 291.848 137.789 291.433 140.305C290.673 144.976 291.723 150.146 295.469 144.382L297.501 140.36C306.554 125.322 313.106 130.574 305.559 144.354C298.04 158.052 301.703 155.744 307.632 145.529C318.427 126.897 304.992 122.253 295.137 138.328ZM284.356 165.101C283.941 164.673 283.25 164.645 282.822 165.06C282.393 165.474 282.366 166.165 282.78 166.594C287.079 169.732 291.986 170.091 296.381 169.165C302.394 167.893 307.453 164.161 308.655 161.742C310.3 158.425 309.222 158.536 306.679 160.485C305.421 161.452 301.786 165.143 295.745 166.248C292.594 166.815 288.807 166.691 284.356 165.101Z"
          fill="black"/>
    <path fill-rule="evenodd" clip-rule="evenodd"
          d="M384.304 82.6743C389.86 80.214 396.508 85.3282 396.301 85.9916C396.121 86.5583 390.91 83.6419 385.575 85.8534C380.931 87.7746 379.3 92.2806 378.775 91.9627C378.153 91.5895 379.424 84.8306 384.304 82.6743Z"
          fill="#1F1E21"/>
    <path fill-rule="evenodd" clip-rule="evenodd"
          d="M437.71 86.7935C443.335 89.1017 444.261 97.4364 443.626 97.7405C443.086 98.0031 441.58 92.2255 436.286 89.9034C431.683 87.8854 427.302 89.8343 427.164 89.24C427.012 88.5489 432.775 84.7755 437.71 86.7935Z"
          fill="#1F1E21"/>
    <defs>
        <filter id="filter0_d_131_25" x="364.545" y="84.2461" width="575.48" height="404.452" filterUnits="userSpaceOnUse"
                color-interpolation-filters="sRGB">
            <feFlood flood-opacity="0" result="BackgroundImageFix"/>
            <feColorMatrix in="SourceAlpha" type="matrix" values="0 0 0 0 0 0 0 0 0 0 0 0 0 0 0 0 0 0 127 0" result="hardAlpha"/>
            <feOffset/>
            <feGaussianBlur stdDeviation="11"/>
            <feComposite in2="hardAlpha" operator="out"/>
            <feColorMatrix type="matrix" values="0 0 0 0 1 0 0 0 0 0.419608 0 0 0 0 0 0 0 0 0.4 0"/>
            <feBlend mode="normal" in2="BackgroundImageFix" result="effect1_dropShadow_131_25"/>
            <feBlend mode="normal" in="SourceGraphic" in2="effect1_dropShadow_131_25" result="shape"/>
        </filter>
        <filter id="filter1_d_131_25" x="0" y="0.303711" width="284.96" height="339.268" filterUnits="userSpaceOnUse"
                color-interpolation-filters="sRGB">
            <feFlood flood-opacity="0" result="BackgroundImageFix"/>
            <feColorMatrix in="SourceAlpha" type="matrix" values="0 0 0 0 0 0 0 0 0 0 0 0 0 0 0 0 0 0 127 0" result="hardAlpha"/>
            <feOffset/>
            <feGaussianBlur stdDeviation="11"/>
            <feComposite in2="hardAlpha" operator="out"/>
            <feColorMatrix type="matrix" values="0 0 0 0 1 0 0 0 0 0.419608 0 0 0 0 0 0 0 0 0.4 0"/>
            <feBlend mode="normal" in2="BackgroundImageFix" result="effect1_dropShadow_131_25"/>
            <feBlend mode="normal" in="SourceGraphic" in2="effect1_dropShadow_131_25" result="shape"/>
        </filter>
    </defs>
</svg>