<svg width="604" height="600" viewBox="0 0 604 600" fill="none" xmlns="http://www.w3.org/2000/svg">
<ellipse cx="301.77" cy="297.275" rx="301.77" ry="297.275" fill="#F28F2B"/>
<path d="M272.741 1.52842L273.467 1.46428L273.318 1.25072L272.741 1.52842Z" fill="#FFDF00"/>
<path d="M262.465 599.872H262.252L262.359 600L262.465 599.872Z" fill="#FFDF00"/>
<path d="M73.3149 477.239C74.7034 479.011 76.1346 480.806 77.5871 482.6L76.1559 480.785L73.3149 477.239Z" fill="#F59C44"/>
<path d="M83.3117 489.5C82.8204 488.944 82.3503 488.389 81.8804 487.812C83.0125 489.158 84.0164 490.525 85.2767 491.849L85.0631 491.614L83.3117 489.5Z" fill="#F59C44"/>
<path d="M71.2856 474.547C71.7129 475.102 72.1186 475.701 72.5245 476.256L71.7341 475.124L71.2856 474.547Z" fill="#F59C44"/>
<path d="M57.508 454.489L55.9487 452.054C57.5722 454.724 59.2383 457.33 60.9685 459.915L59.5589 457.779C58.918 456.668 58.1916 455.578 57.508 454.489Z" fill="#F59C44"/>
<path d="M61.5459 460.748C62.5071 462.243 63.4684 463.674 64.451 465.02L63.3402 463.311L61.5459 460.748Z" fill="#F59C44"/>
<path d="M46.8702 436.097L46.2295 434.901C47.6393 437.614 49.0919 440.284 50.5017 442.975C49.7754 441.694 49.1346 440.434 48.3656 439.152C47.5966 437.87 47.4042 437.122 46.8702 436.097Z" fill="#F59C44"/>
<path d="M131.031 533.696L132.74 534.999L131.715 534.209C131.544 534.059 131.266 533.867 131.031 533.696Z" fill="#F59C44"/>
<path d="M279.107 589.021L280.389 589.085L279.62 589.042L279.107 589.021Z" fill="#F59C44"/>
<path d="M114.35 520.473L115.567 521.52L115.183 521.157L114.35 520.473Z" fill="#F59C44"/>
<path d="M116.379 522.182C117.917 523.507 119.455 524.745 121.015 526.006L118.152 523.613L116.379 522.182Z" fill="#F59C44"/>
<path d="M107.3 514.214L106.873 513.873C109.201 516.009 111.551 518.145 113.901 520.089C112.512 518.892 111.124 517.653 109.757 516.393L107.3 514.214Z" fill="#F59C44"/>
<path d="M273.894 588.551L277.483 588.829L275.752 588.658L273.894 588.551Z" fill="#F59C44"/>
<path d="M549.046 151.995C548.619 151.248 548.192 150.5 547.743 149.859L548.341 150.885L549.046 151.995Z" fill="#F59C44"/>
<path d="M565.473 183.225C564.704 181.538 563.935 179.85 563.145 178.163C563.757 179.459 564.355 180.761 564.939 182.072L565.473 183.225Z" fill="#F59C44"/>
<path d="M560.922 173.569L560.645 173.057L560.794 173.334L560.922 173.569Z" fill="#F59C44"/>
<path d="M546.291 147.531L546.654 148.044C545.244 145.908 543.856 143.622 542.382 141.443L542.702 141.977C543.941 143.793 545.138 145.587 546.291 147.531Z" fill="#F59C44"/>
<path d="M569.958 193.798L569.895 193.607V193.628L569.958 193.798Z" fill="#F59C44"/>
<path d="M35.4214 195.657C36.5381 194.517 37.9368 193.694 39.4751 193.27C41.0134 192.846 42.6364 192.837 44.1794 193.244L45.3116 193.949C49.2634 198.05 44.5638 210.418 46.2513 215.865C47.6881 219.245 49.5318 222.437 51.7413 225.371C52.553 224.217 53.4073 223.021 54.3045 221.846C57.1028 218.321 60.1361 214.37 63.4257 210.333C64.5084 203.335 67.4604 196.759 71.9701 191.3C79.6387 181.559 89.9135 167.632 101.491 162.548C120.161 154.26 135.477 187.07 154.894 168.465C164.998 158.831 178.54 150.906 192.788 149.24C201.333 148.321 228.546 147.104 227.649 133.668C217.396 132.835 206.032 130.57 202.636 119.484C199.901 110.47 204.943 101.519 194.689 96.4568C187.32 92.8895 169.505 96.4568 167.347 85.7762C165.19 75.0957 182.3 65.9532 191.058 62.2791C197.466 50.8937 216.371 41.7939 225.043 38.547C260.823 25.2178 301.366 25.2605 330.695 52.1968C382.923 100.152 367.457 202.023 296.175 279.692C281.632 295.556 265.296 309.678 247.494 321.773C255.526 324.55 263.707 327.69 272.016 328.352C281.415 329.057 290.258 324.87 298.91 321.773C294.44 315.722 291.348 308.767 289.853 301.394C285.58 278.175 314.631 285.587 327.491 285.139C336.035 284.882 344.387 283.238 349.834 277.171C353.701 272.899 354.876 266.491 357.353 260.873C361.263 252.072 373.097 252.051 381.983 251.602C389.822 251.324 400.674 252.371 403.344 243.399C405.053 237.675 401.955 221.056 412.743 228.447C422.932 235.496 422.676 248.12 424.513 257.626L424.641 258.202C454.937 190.815 458.323 114.394 434.104 44.5921C397.909 25.9103 358.167 15.108 317.496 12.8966C276.824 10.6852 236.145 17.1151 198.138 31.7625C160.131 46.4098 125.659 68.9426 96.99 97.8768C68.3215 126.811 46.1077 161.49 31.8115 199.631L33.2212 199.225C33.7425 197.917 34.487 196.71 35.4214 195.657V195.657ZM340.094 45.1903C343.084 40.0209 349.706 37.949 355.986 36.1974C358.442 34.3369 361.45 33.3517 364.531 33.399C361.744 34.5108 358.891 35.4455 355.986 36.1974C354.576 37.1921 353.26 38.3147 352.056 39.5509C360.13 37.1371 366.667 31.0066 375.938 33.4417C385.208 35.8769 392.364 41.5162 398.687 47.839C405.608 54.7173 413.447 58.0069 421.394 63.6249C429.34 69.2428 424.107 76.4414 422.483 83.0206C420.347 91.9709 425.602 97.9734 429.554 106.304C439.658 127.388 387.814 127.793 374.613 112.093C366.603 102.502 370.127 92.3126 369.914 82.1875C369.679 73.6431 363.506 70.4176 352.975 65.3977C345.37 61.6809 334.583 54.6959 340.094 45.1903Z" fill="#F59C44"/>
<path d="M533.303 128.648C532.598 127.708 531.936 126.747 531.167 125.828L531.893 126.832C532.406 127.43 532.855 128.05 533.303 128.648Z" fill="#F59C44"/>
<path d="M541.804 140.567C540.671 138.901 539.496 137.235 538.343 135.569C539.048 136.616 539.774 137.705 540.479 138.709L541.804 140.567Z" fill="#F59C44"/>
<path d="M358.441 350.653C354.997 349.202 351.474 347.947 347.889 346.893L345.753 346.295C344.806 347.26 343.807 348.173 342.762 349.03C338.682 352.426 335.499 352.469 330.522 353.579C328.735 353.923 327.013 354.543 325.417 355.416L322.896 357.296C321.822 358.294 320.802 359.349 319.842 360.458C316.296 364.367 314.16 364.73 308.691 364.303C305.017 364.004 299.762 361.077 296.174 362.167C292.585 363.256 289.06 368.575 285.493 370.476C278.863 374.206 271.209 375.704 263.662 374.748C258.799 374.619 253.932 374.812 249.094 375.325C248.517 387.074 235.231 392.093 226.665 397.861C216.796 404.461 205.304 422.063 193.448 412.621C169.545 393.61 142.182 390.705 114.05 400.766C91.9196 408.627 73.2286 411.938 61.5441 387.949C56.4602 377.461 52.9998 366.332 47.5314 356.079C42.6611 347 35.975 338.99 30.9338 330.125C27.3648 323.517 25.4961 316.125 25.4961 308.614C25.4961 301.104 27.3648 293.712 30.9338 287.104V286.933C29.0113 282.661 26.6615 279.329 25.743 274.608C24.7817 269.289 25.9352 264.205 25.9993 258.865C25.9993 254.379 24.5896 251.239 23.4789 246.988C21.001 237.653 25.615 226.951 25.9354 217.232C8.15984 275.877 9.40845 338.645 29.5025 396.536C82.3773 423.699 142.348 433.879 201.224 425.686C260.1 417.493 315.013 391.327 358.462 350.76L358.441 350.653Z" fill="#F59C44"/>
<path d="M135.304 536.814L135.155 536.707L133.595 535.618C134.749 536.43 135.881 537.284 137.034 538.032L135.539 536.985L135.304 536.814Z" fill="#F59C44"/>
<path d="M227.434 580.135L228.438 580.412L227.755 580.199L227.434 580.135Z" fill="#F59C44"/>
<path d="M235.958 582.292L238.457 582.826L237.411 582.591L235.958 582.292Z" fill="#F59C44"/>
<path d="M218.122 577.465L218.335 577.55L218.271 577.486L218.122 577.465Z" fill="#F59C44"/>
<path d="M212.908 575.862L217.394 577.272L214.596 576.354L212.908 575.862Z" fill="#F59C44"/>
<path d="M223.823 579.216L222.734 578.917L225.682 579.75L224.742 579.451L223.823 579.216Z" fill="#F59C44"/>
<path d="M220.556 578.191L222.051 578.639L221.112 578.34L220.556 578.191Z" fill="#F59C44"/>
<path d="M256.571 586.308L259.156 586.735L257.639 586.479L256.571 586.308Z" fill="#F59C44"/>
<path d="M240.678 583.317L242.28 583.638H242.023L240.678 583.317Z" fill="#F59C44"/>
<path d="M264.196 587.419L266.525 587.696L265.563 587.59L264.196 587.419Z" fill="#F59C44"/>
<path d="M261.163 586.991L262.06 587.141L261.59 587.034L261.163 586.991Z" fill="#F59C44"/>
<path d="M250.057 585.197L253.048 585.731L251.745 585.496L250.057 585.197Z" fill="#F59C44"/>
<path d="M245.697 584.364L248.175 584.855L247.192 584.663L245.697 584.364Z" fill="#F59C44"/>
<path d="M229.528 580.69L232.412 581.416L231.558 581.181L229.528 580.69Z" fill="#F59C44"/>
<path d="M268.405 587.931L268.746 587.974L268.576 587.931H268.405Z" fill="#F59C44"/>
<path d="M155.576 550.016C156.73 550.656 157.905 551.361 159.101 552.002L157.627 551.148L155.576 550.016Z" fill="#F59C44"/>
<path d="M209.663 574.773L211.115 575.243L210.838 575.136L209.663 574.773Z" fill="#F59C44"/>
<path d="M151.688 547.666L153.974 549.033L152.905 548.349L151.688 547.666Z" fill="#F59C44"/>
<path d="M146.135 544.163L151.219 547.367L149.275 546.106C148.25 545.466 147.16 544.846 146.135 544.163Z" fill="#F59C44"/>
<path d="M138.529 539.079C139.661 539.912 140.814 540.681 141.968 541.429L140.366 540.318L138.529 539.079Z" fill="#F59C44"/>
<path d="M142.866 542.005L143.399 542.346L143.292 542.282L142.866 542.005Z" fill="#F59C44"/>
<path d="M143.485 542.411L145.921 544.035L143.955 542.71L143.485 542.411Z" fill="#F59C44"/>
<path d="M271.076 588.23L272.87 588.444L271.546 588.273L271.076 588.23Z" fill="#F59C44"/>
<path d="M191.698 568.023C194.09 569.005 196.483 569.967 198.918 570.885C196.782 570.052 194.646 569.176 192.509 568.279L191.698 568.023Z" fill="#F59C44"/>
<path d="M183.003 564.263C185.439 565.353 187.874 566.399 190.33 567.51C188.515 566.741 186.763 565.908 184.947 565.075L183.003 564.263Z" fill="#F59C44"/>
<path d="M204.173 572.808L201.738 571.953C203.639 572.658 205.562 573.342 207.484 574.089L206.074 573.577L204.173 572.808Z" fill="#F59C44"/>
<path d="M168.095 556.915C169.312 557.577 170.53 558.218 171.769 558.838L171.47 558.667C170.316 558.09 169.206 557.513 168.095 556.915Z" fill="#F59C44"/>
<path d="M176.553 561.187L174.118 560.012L173.264 559.606L179.864 562.811L178.583 562.149L176.553 561.187Z" fill="#F59C44"/>
<path d="M161.813 553.561L162.518 553.946L162.091 553.69L161.813 553.561Z" fill="#F59C44"/>
<path d="M52.0177 445.389L50.9282 443.531C52.5374 446.379 54.1821 449.184 55.8625 451.947L53.8974 448.593C53.2566 447.525 52.6371 446.436 52.0177 445.389Z" fill="#F59C44"/>
<path d="M587.367 257.604L587.41 257.733L587.004 255.297L587.239 256.835L587.367 257.604Z" fill="#F59C44"/>
<path d="M581.685 229.685L581.407 228.468L581.621 229.451L581.685 229.685Z" fill="#F59C44"/>
<path d="M586.108 249.913L586.001 249.295V249.401L586.108 249.913Z" fill="#F59C44"/>
<path d="M589.889 279.927L589.718 277.855L589.846 279.435L589.889 279.927Z" fill="#F59C44"/>
<path d="M586.322 251.132L586.13 250.107L586.258 250.854L586.322 251.132Z" fill="#F59C44"/>
<path d="M580.618 225.563L580.297 224.367L580.34 224.537L580.618 225.563Z" fill="#F59C44"/>
<path d="M573.954 204.309L573.078 201.895L573.612 203.411L573.954 204.309Z" fill="#F59C44"/>
<path d="M577.776 215.822L577.99 216.42C577.584 215.16 577.178 213.921 576.793 212.618L577.627 215.352L577.776 215.822Z" fill="#F59C44"/>
<path d="M590.572 294.367L590.529 293.021V293.341L590.572 294.367Z" fill="#F59C44"/>
<path d="M572.991 201.66L572.521 200.335L572.649 200.72L572.991 201.66Z" fill="#F59C44"/>
<path d="M95.9581 181.196C122.296 169.554 143.999 215.886 171.469 189.612C185.738 175.962 204.921 164.769 225.043 162.526C237.048 161.159 275.562 159.386 274.323 140.503C259.819 139.286 243.734 136.103 238.949 120.424C235.061 107.607 242.196 95.0255 227.713 87.8909C217.31 82.7856 192.104 87.8909 189.05 72.6819C188.423 69.106 189.138 65.4246 191.057 62.3432C182.321 65.9532 165.189 75.1598 167.347 85.8403C169.504 96.5209 187.319 92.9963 194.689 96.5209C204.942 101.583 199.901 110.534 202.635 119.548C206.032 130.634 217.396 132.899 227.649 133.732C228.546 147.104 201.29 148.385 192.788 149.304C178.54 150.927 165.019 158.852 154.893 168.529C135.455 187.134 120.139 154.324 101.491 162.612C89.9131 167.696 79.6383 181.623 71.9697 191.364C67.46 196.823 64.508 203.399 63.4253 210.396C72.6746 198.755 83.8037 186.558 95.9581 181.196Z" fill="#F0801D"/>
<path d="M55.007 242.459C57.1431 249.316 63.1456 249.316 68.6568 252.499C79.5509 258.907 75.834 272.814 89.8895 275.996C97.4396 277.474 104.238 281.538 109.114 287.489C112.34 291.227 115.758 297.614 120.671 299.472C127.485 302.057 134.192 297.336 140.878 300.647C147.564 303.958 152.007 310.601 157.967 314.916C164.504 319.551 174.671 320.32 182.554 321.132C191.312 321.987 197.506 319.509 205.645 317.843C216.827 315.663 228.361 316.087 239.353 319.081C242.001 319.872 244.65 320.769 247.32 321.73C265.122 309.635 281.459 295.514 296.002 279.649C367.284 201.98 382.749 100.216 330.522 52.154C301.193 25.2177 260.649 25.175 224.87 38.5042C216.197 41.7511 197.378 50.8509 190.885 62.2363C188.965 65.3177 188.25 68.9991 188.876 72.575C191.931 87.72 217.137 82.6787 227.54 87.784C242.023 94.9186 234.888 107.543 238.776 120.317C243.561 135.996 259.646 139.179 274.15 140.396C275.389 159.279 236.875 161.053 224.87 162.42C204.748 164.556 185.566 175.856 171.296 189.506C143.826 215.78 122.166 169.447 95.7852 181.089C83.6308 186.451 72.5016 198.648 63.1668 210.226C59.8772 214.263 56.7585 218.215 54.0456 221.739C53.1485 222.914 52.2941 224.11 51.4824 225.264C52.2049 226.367 52.8132 227.541 53.2981 228.767C55.2206 233.488 53.5331 237.867 55.007 242.459Z" fill="#F8B162"/>
<path d="M586.087 249.893L586.257 250.854L586.129 250.107L586.108 249.914L586.001 249.402L586.087 249.893Z" fill="#F0801D"/>
<path d="M191.633 567.98L191.697 568.023L192.402 568.279L191.633 567.98Z" fill="#F0801D"/>
<path d="M579.442 221.355L579.421 221.248L579.442 221.376V221.355Z" fill="#F0801D"/>
<path d="M589.93 280.567L589.888 279.927L589.845 279.435L589.93 280.567Z" fill="#F0801D"/>
<path d="M77.5649 482.6L77.8212 482.942C77.8359 482.983 77.8359 483.029 77.8212 483.07L76.0483 480.785L77.5649 482.6Z" fill="#F0801D"/>
<path d="M231.558 581.181L232.412 581.416L234.057 581.822L232.455 581.416L231.558 581.181Z" fill="#F0801D"/>
<path d="M64.4507 465.105L64.6642 465.383L65.3265 466.323L63.3398 463.397L64.4507 465.105Z" fill="#F0801D"/>
<path d="M569.893 193.607L569.487 192.603L569.893 193.628V193.607Z" fill="#F0801D"/>
<path d="M569.168 191.812L569.019 191.492L568.848 191.065L569.061 191.577L569.168 191.812Z" fill="#F0801D"/>
<path d="M548.342 150.82L547.744 149.795L546.654 148.044L546.292 147.531C546.996 148.599 547.659 149.731 548.342 150.82Z" fill="#F0801D"/>
<path d="M123.597 445.945L125.968 447.162C121.844 443.093 118.044 438.708 114.604 434.047C123.426 438.767 131.309 441.651 137.375 448.123C143.442 454.596 150.704 455.92 160.146 456.668C172.087 457.565 182.041 462.414 192.188 467.562C201.821 472.454 205.965 470.702 216.945 469.42C228.993 468.032 240.442 467.797 251.934 471.001C263.427 474.205 275.132 478.926 287.629 478.178C298.309 477.516 308.99 474.184 319.222 471.321C323.152 461.474 325.075 450.793 330.308 441.416C337.699 428.194 349.832 419.692 363.076 412.985C383.369 402.817 413.488 398.032 420.259 373.039L421.306 368.767C427.437 355.95 445.102 334.59 460.888 345.676C467.959 350.696 470.052 359.71 473.277 367.528C483.444 350.725 491.861 332.923 498.398 314.403C484.855 323.695 466.057 325.746 451.788 316.347C429.039 301.394 452.472 269.353 459.628 251.922C464.327 240.323 467.852 227.827 465.737 215.224C464.199 206.124 459.329 199.011 455.889 190.702C450.442 177.714 457.363 161.928 462.298 149.817C466.57 139.136 473.897 125.615 467.617 114.08C463.622 106.71 447.281 96.0508 460.098 88.4463C470.009 82.508 479.066 89.087 487.183 95.004C482.925 86.058 478.22 77.3317 473.085 68.8582C477.87 72.3827 482.527 76.0783 487.055 79.8805C485.945 78.962 484.919 77.9581 483.766 77.0396L482.505 75.9929C480.22 74.1772 477.934 72.3402 475.606 70.6527L475.456 70.503C472.978 68.6446 470.479 66.8718 467.937 65.0775L466.955 64.3724C464.818 62.8344 462.447 61.2964 460.183 59.8225L459.158 59.1177C454.017 55.7853 448.776 52.6166 443.436 49.6119L442.133 48.8856C439.57 47.4545 436.857 46.1727 434.229 44.8056C458.448 114.608 455.063 191.029 424.766 258.416C426.903 268.648 435.447 285.587 425.984 287.51C406.481 291.568 397.211 307.183 396.655 330.915C396.207 349.564 393.515 363.341 373.756 356.698C368.694 354.968 363.61 352.746 358.547 350.717C315.098 391.284 260.185 417.45 201.309 425.643C142.432 433.836 82.4621 423.656 29.5874 396.494C32.0226 403.521 34.7566 410.378 37.7258 417.171V417.278C39.0075 420.183 40.4387 422.96 41.8058 425.822L45.5868 428.92C60.4253 446.558 77.2884 462.389 95.828 476.085C129.218 493.013 165.594 503.251 202.911 506.225C201.804 505.707 200.734 505.115 199.707 504.452C195.221 501.505 192.807 498.172 186.89 497.211C180.482 496.186 179.072 498.322 174.073 494.242C170.463 491.294 169.288 487.15 166.49 483.796L165.187 482.45L165.059 482.344L164.568 481.874L163.436 480.934C160.744 478.969 157.754 477.815 154.592 475.551C142.733 467.417 132.266 457.419 123.597 445.945V445.945Z" fill="#F0801D"/>
<path d="M529.137 123.286C525.784 119.014 522.344 114.742 518.777 110.747L517.559 109.337C515.722 107.201 513.843 105.279 511.963 103.228L511.536 102.801C509.4 100.665 507.264 98.5287 505.127 96.3926L504.124 95.4314C502.265 93.573 500.364 91.7786 498.441 89.9843L497.373 89.0017C495.237 87.0365 493.101 85.2421 490.815 83.341C504.831 95.4069 517.663 108.783 529.137 123.286Z" fill="#F0801D"/>
<path d="M200.989 571.654L201.758 571.953L204.193 572.808C203.147 572.423 202.036 572.081 200.989 571.654Z" fill="#F0801D"/>
<path d="M257.127 586.351L255.439 586.158L256.571 586.308L257.639 586.479L257.127 586.351Z" fill="#F0801D"/>
<path d="M556.63 165.218L556.246 164.534L557.57 167.034L556.63 165.218Z" fill="#F0801D"/>
<path d="M542.701 141.977L542.38 141.443L541.804 140.567L540.479 138.709C541.205 139.756 541.953 140.866 542.701 141.977Z" fill="#F0801D"/>
<path d="M552.358 157.4V157.25C552.123 156.866 551.867 156.481 551.632 156.075L553.426 159.151C552.935 158.575 552.614 157.977 552.358 157.4Z" fill="#F0801D"/>
<path d="M179.862 562.811L180.247 562.982L178.581 562.149L179.862 562.811Z" fill="#F0801D"/>
<path d="M142.268 541.557L140.367 540.318L141.969 541.429L142.867 542.005L143.294 542.283L142.268 541.557Z" fill="#F0801D"/>
<path d="M536.7 133.198L535.782 132.002C536.529 133.005 537.234 133.988 537.918 134.992L536.7 133.198Z" fill="#F0801D"/>
<path d="M213.999 576.161C212.953 575.862 211.863 575.478 210.838 575.136L211.116 575.243L212.91 575.862L214.597 576.354L213.999 576.161Z" fill="#F0801D"/>
<path d="M223.076 578.917L221.111 578.34L222.051 578.639L222.734 578.831L223.823 579.13L223.076 578.917Z" fill="#F0801D"/>
<path d="M573.611 203.411L573.077 201.895L572.992 201.66L572.65 200.72L573.611 203.411Z" fill="#F0801D"/>
<path d="M277.676 588.85L279.107 589.021L279.619 589.042L277.676 588.85Z" fill="#F0801D"/>
<path d="M561.778 175.343L561.714 175.215L560.924 173.57L560.795 173.335L561.778 175.343Z" fill="#F0801D"/>
<path d="M531.209 125.828L530.12 124.461L529.799 124.055C530.526 124.974 531.231 125.914 531.935 126.832L531.209 125.828Z" fill="#F0801D"/>
<path d="M159.742 552.344L159.229 552.066L160.425 552.75L161.814 553.561L162.092 553.69L159.742 552.344Z" fill="#F0801D"/>
<path d="M151.495 547.474L149.744 546.384L149.274 546.106L151.218 547.367L151.688 547.666L152.905 548.349L151.495 547.474Z" fill="#F0801D"/>
<path d="M566.284 185.062C566.203 184.895 566.132 184.724 566.07 184.55L565.472 183.225L564.938 182.072L566.284 185.062Z" fill="#F0801D"/>
<path d="M115.182 521.157L115.567 521.52L116.378 522.182L118.151 523.613L115.182 521.157Z" fill="#F0801D"/>
<path d="M267.253 587.761L265.565 587.59L266.526 587.696L268.406 587.931H268.577L267.253 587.761Z" fill="#F0801D"/>
<path d="M131.715 534.208L132.741 534.999L133.595 535.618L135.154 536.708C134.001 535.874 132.847 535.063 131.715 534.208Z" fill="#F0801D"/>
<path d="M232.455 581.352L234.057 581.758H234.527H234.762L235.958 582.078L237.411 582.377L232.455 581.352Z" fill="#EC621F"/>
<path d="M224.743 579.365L225.682 579.665L227.434 580.135H227.755C226.758 579.921 225.754 579.665 224.743 579.365Z" fill="#EC621F"/>
<path d="M242.023 583.488H242.28C242.963 583.659 243.626 583.809 244.416 583.937H244.694L245.783 584.129L247.278 584.407C245.463 584.321 243.732 583.958 242.023 583.488Z" fill="#EC621F"/>
<path d="M590.53 293.021L590.509 292.124L590.53 293.341V293.021Z" fill="#EC621F"/>
<path d="M213.998 576.161L214.596 576.354L217.394 577.272L218.12 577.465H218.27L213.998 576.161Z" fill="#EC621F"/>
<path d="M293.247 589.747C296.174 589.747 299.121 589.918 302.069 589.918C298.865 589.918 295.661 589.918 292.5 589.726L293.247 589.747Z" fill="#EC621F"/>
<path d="M580.297 224.367L580.147 223.833L580.34 224.537L580.297 224.367Z" fill="#EC621F"/>
<path d="M487.077 94.9829C488.893 96.3287 490.666 97.6103 492.396 98.6783C502.372 105.087 523.113 108.675 519.162 123.286C511.279 152.786 519.503 178.974 539.967 200.827C545.541 206.396 550.36 212.673 554.301 219.496C551.562 186.236 543.047 153.708 529.137 123.372C517.67 108.816 504.838 95.3899 490.815 83.2769C489.534 82.1661 488.252 81.1409 486.949 79.9447C482.421 76.1424 477.764 72.4469 472.979 68.9223C478.111 77.3681 482.816 86.0659 487.077 94.9829V94.9829Z" fill="#EC621F"/>
<path d="M271.545 588.273L272.891 588.444H273.895L275.753 588.551L271.545 588.273Z" fill="#EC621F"/>
<path d="M284.212 589.32H286.135L281.863 589.063L284.212 589.32Z" fill="#EC621F"/>
<path d="M498.228 387.116C503.272 389.059 507.893 391.961 511.835 395.661C540 350.417 555.029 298.231 555.24 244.937C553.595 248.233 551.527 251.299 549.088 254.058C541.548 262.859 532.683 270.464 525.463 279.692C519.055 287.766 514.505 297.08 508.374 305.325C505.611 308.939 502.269 312.072 498.484 314.596C491.947 333.116 483.53 350.917 473.363 367.72C474.111 369.585 474.982 371.397 475.969 373.146C481.331 382.203 488.85 383.506 498.228 387.116Z" fill="#EC621F"/>
<path d="M586.002 249.402V249.295L585.788 248.227L586.087 249.893L586.002 249.402Z" fill="#EC621F"/>
<path d="M246.896 531.261C246.858 526.583 248.091 521.984 250.463 517.953C247.796 518.679 245.085 519.228 242.346 519.597C235.553 520.131 232.861 519.598 228.44 515.753C224.018 511.908 222.031 510.071 215.089 508.853C210.953 508.442 206.884 507.517 202.977 506.097C165.66 503.123 129.284 492.885 95.8945 475.957C139.934 508.395 192.322 527.582 246.896 531.261Z" fill="#EC621F"/>
<path d="M267.252 587.76C265.372 587.568 263.449 587.312 261.591 587.034H262.061L264.197 587.312L265.564 587.483L267.252 587.76Z" fill="#EC621F"/>
<path d="M157.626 551.148L159.101 552.002H159.229L159.741 552.28L157.626 551.148Z" fill="#EC621F"/>
<path d="M251.742 585.496L253.045 585.731L255.438 586.158L257.125 586.351C255.438 586.116 253.537 585.795 251.742 585.496Z" fill="#EC621F"/>
<path d="M554.302 219.496C558.574 227.592 559.706 235.88 555.241 244.98C555.03 298.274 540.002 350.46 511.836 395.703C515.48 399.254 518.32 403.546 520.162 408.289C522.005 413.032 522.808 418.115 522.516 423.195C531.638 417.876 530.441 407.409 541.741 402.219C548.662 399.014 556.096 399.014 558.83 392.179C560.667 387.607 558.574 383.228 560.753 378.593C562.932 373.958 567.994 370.327 569.874 365.584C572.01 360.159 566.114 347.748 571.027 343.711L572.48 342.942C574.369 342.533 576.323 342.541 578.209 342.965C580.094 343.389 581.864 344.22 583.395 345.398C584.895 346.734 585.972 348.479 586.493 350.418C589.307 334.192 590.736 317.756 590.765 301.288C590.765 299.002 590.765 296.695 590.765 294.367V293.341V292.124C590.765 290.543 590.765 289.027 590.573 287.446V284.84C590.573 283.43 590.38 281.977 590.295 280.567V279.414L590.167 277.833C590.167 276.424 589.932 274.992 589.782 273.561L589.526 270.976C589.355 269.374 589.184 267.772 588.992 266.17V265.465L588.842 264.226C588.543 262.09 588.266 259.954 587.945 257.818L587.817 257.028L587.582 255.49C587.347 254.08 587.134 252.755 586.899 251.324V251.047L586.706 250.085L586.428 248.419C586.194 247.202 585.98 246.005 585.745 244.766L585.083 241.712C584.848 240.58 584.613 239.448 584.357 238.337C584.1 237.226 583.887 236.201 583.63 235.154C583.374 234.107 583.118 233.018 582.84 231.907V231.587L582.498 230.155V229.878V229.643L582.285 228.66L581.494 225.755L581.217 224.73L581.024 224.025V223.875L580.405 221.568V221.44L579.849 219.646L579.657 218.984L578.974 216.613L578.76 216.014L578.611 215.544L577.777 212.81L577.008 210.525C576.581 209.222 576.133 207.94 575.684 206.658L574.936 204.522L574.595 203.604L573.633 200.934L573.505 200.549L572.822 198.776L571.156 194.504L570.942 194.034V193.863L570.536 192.838L570.216 192.047V191.812L570.002 191.3C569.169 189.292 568.315 187.284 567.439 185.297L566.093 182.307C565.509 181.011 564.911 179.708 564.298 178.398L564.149 178.077L562.931 175.578L561.949 173.57L561.799 173.292L561.415 172.523C560.646 170.943 559.834 169.341 559.044 167.781L558.723 167.269L557.399 164.769C556.416 162.954 555.434 161.181 554.43 159.386L552.635 156.31C551.845 154.943 551.033 153.597 550.2 152.252L549.495 151.056C548.812 149.966 548.15 148.919 547.359 147.766C546.206 145.908 545.01 144.028 543.771 142.212C543.023 141.101 542.275 140.076 541.634 138.944C540.994 137.812 540.203 136.808 539.498 135.804L539.093 135.227C538.388 134.223 537.683 133.24 536.957 132.236C536.166 131.126 535.333 130.1 534.521 128.925C534.073 128.327 533.624 127.708 533.154 127.11C532.449 126.191 531.744 125.252 531.018 124.333C530.783 124.055 530.527 123.778 530.313 123.5C543.803 153.87 551.92 186.35 554.302 219.496Z" fill="#E6361E"/>
<path d="M396.421 551.447C380.528 555.185 364.849 551.297 348.828 551.447C334.345 551.447 323.323 556.723 311.169 564.135C300.488 570.693 289.06 578.084 275.966 574.068C260.735 569.304 246.573 548.819 246.723 531.218C192.149 527.54 139.761 508.353 95.7214 475.914C77.1817 462.218 60.3186 446.388 45.4802 428.749L41.6992 425.652C43.0663 428.493 44.3267 431.398 45.7792 434.196L46.1425 434.837L46.7832 436.033C47.3172 437.08 47.8726 438.169 48.428 439.088C48.9834 440.006 49.7737 441.63 50.5641 442.911L50.9059 443.488L51.9954 445.346C52.6149 446.393 53.2343 447.482 53.8752 448.551L55.8405 451.904L57.3998 454.34C58.0833 455.429 58.7669 456.476 59.5359 457.544L60.9455 459.68L61.5223 460.513L63.3168 463.162L65.3033 466.088C67.2685 468.865 69.2551 471.606 71.2631 474.312L71.7116 474.889L72.5019 476.021L73.2923 477.004L76.1121 480.55L77.8849 482.835C79.188 484.416 80.5337 485.954 81.8581 487.513C82.328 488.09 82.798 488.645 83.2893 489.201L85.0408 491.337L85.2544 491.572L86.0661 492.469C88.0527 494.605 90.0394 496.869 92.0687 499.027L92.3892 499.39C94.5253 501.654 96.7895 503.94 99.0324 506.14L99.8228 506.888L100.036 507.123C102.002 509.045 103.967 510.904 105.975 512.783L106.829 513.595L107.256 513.937L109.713 516.073C111.08 517.333 112.468 518.572 113.857 519.768L114.306 520.153L115.138 520.836L118.108 523.293L120.97 525.685L122.209 526.711C125.071 528.996 128.019 531.197 130.988 533.375C131.223 533.546 131.437 533.738 131.672 533.888C132.804 534.742 133.958 535.554 135.111 536.387L135.261 536.494L135.496 536.665L136.991 537.711L138.486 538.758L140.323 539.997L142.224 541.236L143.25 541.963L143.72 542.261L145.685 543.586L145.898 543.714C146.924 544.398 148.034 545.017 149.038 545.658L149.509 545.936L151.26 547.025L152.67 547.879L153.738 548.584L155.34 549.567L157.476 550.699L159.612 551.895L161.962 553.241L162.389 553.497L163.543 554.16C164.995 554.95 166.491 555.698 167.965 556.467C169.075 557.065 170.101 557.642 171.339 558.218L171.639 558.389L173.134 559.158L173.988 559.564L176.423 560.739L178.559 561.7L180.226 562.533L181.977 563.345L182.981 563.793L184.925 564.605C186.741 565.438 188.492 566.271 190.308 567.04L191.462 567.468H191.611L192.38 567.767C194.516 568.664 196.652 569.539 198.788 570.373L200.924 571.142C201.992 571.569 203.061 571.911 204.129 572.295L206.03 572.979L207.44 573.491L209.576 574.26L210.75 574.623C211.797 574.965 212.887 575.35 213.912 575.649L218.184 576.994L220.32 577.635L220.876 577.785L222.841 578.362L223.588 578.575L224.507 578.81C225.504 579.109 226.508 579.387 227.519 579.643L228.181 579.857L229.292 580.135L231.428 580.626L232.325 580.861L237.281 582.036L238.328 582.271L240.464 582.762L241.809 583.018C243.518 583.403 245.249 583.766 246.979 584.086L247.961 584.3L249.841 584.642L251.529 584.941C253.323 585.24 255.117 585.56 256.912 585.795L257.425 585.923L258.941 586.18L261.077 586.436H261.483C263.341 586.714 265.264 586.97 267.144 587.162L268.468 587.333H268.639L270.967 587.59H271.437L275.709 587.974L277.44 588.145H277.632L279.576 588.337H280.345H281.776L286.048 588.594L289.188 588.722H289.872L292.414 588.829C295.597 588.829 298.822 589.021 301.984 589.021C340.338 589.061 378.313 581.432 413.676 566.582C449.039 551.733 481.076 529.962 507.904 502.551C505.554 502.979 503.418 503.278 502.201 503.384C499.274 503.726 494.382 502.188 492.118 503.085C489.469 504.111 488.294 508.938 485.816 510.732C481.565 513.327 476.751 514.858 471.782 515.197C467.66 515.56 461.251 513.745 457.513 515.197C453.775 516.65 453.967 520.153 450.656 521.755C446.885 523.143 442.798 523.439 438.865 522.609C427.181 536.045 413.787 547.495 396.421 551.447Z" fill="#E6361E"/>
<path d="M508.289 305.197C514.505 297.037 519.076 287.723 525.378 279.563C532.598 270.421 541.463 262.816 549.003 253.93C551.443 251.171 553.511 248.104 555.155 244.809C559.62 235.709 558.466 227.421 554.215 219.325C550.275 212.502 545.456 206.225 539.882 200.656C519.418 178.804 511.194 152.615 519.076 123.115C523.028 108.504 502.287 104.958 492.311 98.5074C490.581 97.4393 488.808 96.1577 486.992 94.812C478.875 88.8949 469.903 82.3159 459.906 88.2542C447.09 95.9442 463.431 106.603 467.425 113.887C473.706 125.422 466.4 138.858 462.107 149.624C457.279 161.736 450.358 177.522 455.698 190.509C459.159 198.819 464.008 205.932 465.546 215.032C467.682 227.635 464.136 240.131 459.436 251.73C452.28 269.225 428.847 301.16 451.597 316.155C465.866 325.554 484.664 323.503 498.207 314.211C502.041 311.781 505.447 308.736 508.289 305.197V305.197ZM472.808 310.665C467.685 310.737 462.655 309.295 458.347 306.521C450.294 301.159 454.075 289.646 464.755 268.84C466.891 264.44 469.027 260.296 470.672 256.472C474.945 246.005 480.349 230.049 477.486 213.238C476.036 206.187 473.545 199.391 470.096 193.073C468.942 190.702 467.831 188.459 466.891 186.173C463.879 178.974 468.622 166.564 473.15 154.559C477.956 141.977 483.831 126.362 481.182 112.221C482.827 112.862 484.408 113.503 485.967 114.357C493.828 117.946 504.316 125.508 504.893 148.962C505.598 176.432 514.719 191.278 531.316 209.029C549.409 228.382 549.345 235.624 540.096 246.454C537.02 250.085 533.687 253.482 530.12 257.134C525.191 261.963 520.535 267.062 516.171 272.408C512.649 277.051 509.376 281.878 506.367 286.869C503.867 290.864 501.518 294.687 498.847 298.126C495.716 302.025 491.753 305.175 487.248 307.345C482.743 309.514 477.809 310.649 472.808 310.665V310.665Z" fill="#EC621F"/>
<path d="M516.044 272.28C520.407 266.934 525.064 261.835 529.992 257.006C533.538 253.396 536.892 250 539.968 246.326C549.217 235.496 549.281 228.254 531.189 208.901C514.591 191.15 505.555 176.304 504.765 148.834C504.188 125.337 493.7 117.818 485.839 114.229C484.28 113.46 482.699 112.819 481.054 112.093C483.788 126.234 477.829 141.849 473.022 154.431C468.494 166.435 463.752 178.846 466.764 186.045C467.704 188.33 468.9 190.574 469.968 192.945C473.417 199.263 475.908 206.059 477.359 213.109C480.221 229.92 474.838 245.877 470.545 256.344C468.964 260.189 466.871 264.312 464.628 268.712C454.075 289.518 450.209 301.031 458.219 306.393C462.527 309.167 467.557 310.608 472.681 310.537C477.684 310.499 482.616 309.341 487.114 307.149C491.613 304.958 495.563 301.787 498.677 297.87C501.347 294.431 503.697 290.607 506.196 286.613C509.224 281.665 512.511 276.88 516.044 272.28V272.28Z" fill="#B53D17"/>
<path d="M412.764 228.553C401.976 221.12 405.074 237.738 403.365 243.506C400.673 252.478 389.822 251.431 382.004 251.709C373.118 252.157 361.283 252.179 357.374 260.979C354.896 266.597 353.722 272.92 349.855 277.278C344.408 283.344 336.056 284.989 327.512 285.245C314.695 285.694 285.665 278.282 289.874 301.501C291.369 308.873 294.461 315.829 298.931 321.88L300.597 321.281C302.578 320.599 304.606 320.056 306.663 319.658C305.695 318.512 304.789 317.314 303.95 316.07C301.273 312.215 299.412 307.853 298.482 303.253C296.987 295.093 305.04 294.089 321.445 295.2C324.613 295.467 327.793 295.574 330.972 295.52C338.726 295.264 349.855 293.982 357.033 285.865C360.065 282.069 362.322 277.714 363.676 273.048C364.295 271.318 364.872 269.63 365.556 268.114C367.692 263.222 376.664 262.624 385.315 262.112C394.436 261.449 405.65 260.744 411.567 253.567C412.108 255.091 412.6 256.586 413.041 258.053C415.306 265.508 416.95 276.445 405.052 285.075C401.072 287.856 397.646 291.355 394.949 295.392C399.349 290.927 404.668 288.257 410.499 284.327C404.667 294.084 397.475 302.96 389.138 310.687C388.258 316.011 387.787 321.396 387.729 326.793C387.216 347.876 383.456 350.29 372.904 346.786C369.401 345.612 365.876 344.18 362.223 342.514L359.276 341.254C357.219 341.301 355.165 341.451 353.124 341.703C350.312 342.418 347.79 343.985 345.904 346.189L348.04 346.786C351.625 347.84 355.148 349.095 358.592 350.546C363.655 352.682 368.739 354.818 373.801 356.527C393.56 363.17 396.252 349.393 396.7 330.745C397.255 307.012 406.526 291.397 426.029 287.339C435.534 285.416 426.969 268.477 424.811 258.245L424.683 257.668C422.696 248.227 422.953 235.602 412.764 228.553Z" fill="#EC621F"/>
<path d="M328.58 319.658C337.359 320.918 340.67 322.713 348.382 317.757C356.477 312.63 364.445 307.803 374.015 306.884C378.279 306.687 382.455 305.603 386.276 303.701C388.192 301.391 390.412 299.35 392.876 297.635L395.013 295.371C397.71 291.333 401.136 287.834 405.116 285.053C417.014 276.509 415.37 265.487 413.106 258.032C412.65 256.608 412.158 255.112 411.631 253.546C405.714 260.638 394.543 261.343 385.379 262.09C376.834 262.603 367.799 263.201 365.62 268.093C364.936 269.609 364.359 271.297 363.74 273.027C362.386 277.693 360.129 282.048 357.097 285.844C349.919 293.961 338.79 295.243 331.036 295.499C327.857 295.553 324.678 295.446 321.509 295.178C305.104 294.068 297.051 295.179 298.546 303.232C299.477 307.832 301.337 312.193 304.015 316.048C304.853 317.293 305.759 318.49 306.727 319.637C313.959 318.393 321.351 318.4 328.58 319.658V319.658Z" fill="#B53D17"/>
<path d="M372.926 346.765C383.435 350.29 387.237 347.855 387.75 326.771C387.809 321.374 388.28 315.99 389.16 310.665C388.028 311.755 386.874 312.801 385.7 313.827L385.059 314.318C383.094 316.326 381.043 318.248 378.928 320.107L375.938 322.435C373.802 325.725 372.883 329.634 370.106 332.496C369.036 333.778 367.584 334.684 365.962 335.081C365.266 336.425 364.382 337.662 363.335 338.755C362.291 340.063 360.826 340.968 359.19 341.318L362.138 342.578C365.876 344.245 369.401 345.591 372.926 346.765Z" fill="#B53D17"/>
<path d="M239.973 374.941C235.551 374.214 231.877 375.88 227.54 376.222C216.732 377.055 210.601 366.652 200.241 371.95L199.472 372.313C205.171 376.88 211.775 380.186 218.847 382.011C217.629 383.25 216.369 384.425 215.066 385.578C208.657 391.324 197.507 397.968 175.761 389.146C150.299 378.828 133.039 381.285 110.14 389.423C85.1905 398.288 78.526 395.362 72.3099 382.566C70.1738 378.294 68.4434 373.873 66.5423 369.195C64.0594 362.734 61.2066 356.422 57.9979 350.29C55.1872 345.204 52.0773 340.289 48.6845 335.572C45.993 331.684 43.4298 327.925 41.315 324.165C38.7369 319.382 37.407 314.027 37.4485 308.593C35.7989 305.783 34.6161 302.725 33.9456 299.536C32.9202 295.093 32.8134 290.992 30.9764 286.955C27.4073 293.563 25.5386 300.955 25.5386 308.465C25.5386 315.975 27.4073 323.367 30.9764 329.975C36.0176 338.926 42.7033 346.851 47.5737 355.929C53.0634 366.182 56.5027 377.29 61.5866 387.8C73.2711 411.81 91.9619 408.499 114.092 400.617C142.289 390.555 169.631 393.46 193.491 412.472C205.325 421.913 216.839 404.312 226.707 397.711C235.252 391.944 248.56 387.031 249.137 375.175C246.082 375.414 243.011 375.335 239.973 374.941V374.941Z" fill="#EC621F"/>
<path d="M48.7499 335.572C52.1427 340.289 55.2526 345.204 58.0632 350.29C61.272 356.422 64.1248 362.734 66.6077 369.194C68.5088 373.873 70.3246 378.315 72.3753 382.566C78.5914 395.383 85.1918 398.288 110.206 389.423C133.105 381.285 150.364 378.743 175.827 389.146C197.572 397.968 208.68 391.282 215.131 385.578C216.434 384.425 217.694 383.25 218.912 382.011C211.84 380.186 205.236 376.88 199.537 372.313C195.393 374.449 194.389 374.941 189.818 373.915C186.419 372.813 182.779 372.679 179.308 373.531C176.638 374.065 172.345 375.667 169.696 374.471C166.492 373.082 165.744 368.361 162.113 367.315C156.495 365.627 147.886 370.732 141.991 367.315C139.363 365.734 139.491 362.167 136.522 360.906C133.553 359.646 128.384 361.355 125.094 360.906C120.999 360.492 117.104 358.93 113.858 356.399C111.893 354.626 110.953 349.799 108.817 348.773C107.023 347.855 103.092 349.414 100.764 349.072C98.0084 348.666 89.6136 347.086 87.5416 345.291C85.4696 343.497 85.79 340.271 83.5898 338.263C77.0106 332.389 66.5009 336.128 60.5412 329.42C57.5507 325.981 58.405 321.154 54.3465 318.74C50.2879 316.326 45.4603 317.052 41.3377 313.335C39.8656 312.014 38.5985 310.48 37.5781 308.785C37.5365 314.219 38.8662 319.575 41.4443 324.357C43.495 327.925 46.1011 331.684 48.7499 335.572Z" fill="#B53D17"/>
<path d="M276.053 574.111C289.147 578.127 300.511 570.736 311.256 564.178C323.41 556.766 334.432 551.554 348.915 551.49C364.936 551.49 380.615 555.27 396.508 551.49C413.789 547.452 427.182 536.003 438.952 523.357C434.167 522.759 429.361 521.691 425.601 522.631C421.051 523.677 420.111 528.377 416.16 529.765L414.023 530.128C407.992 534.723 401.098 538.057 393.752 539.933C389.544 540.861 385.243 541.298 380.935 541.236C376.172 541.236 371.323 540.83 366.175 540.424C361.027 540.019 355.152 539.57 349.342 539.57H348.765C331.933 539.57 319.116 545.402 304.997 553.967L303.672 554.758C296.474 559.158 289.681 563.302 283.55 563.302C282.174 563.297 280.807 563.088 279.492 562.683C270.67 559.927 261.1 547.409 259.007 535.874C257.768 529.082 259.22 524.04 263.279 520.922L263.642 520.665C261.928 519.259 259.974 518.174 257.874 517.461C255.342 517.054 252.75 517.222 250.291 517.953C247.919 521.984 246.686 526.584 246.724 531.261C246.66 548.862 260.822 569.347 276.053 574.111Z" fill="#E6361E"/>
<path d="M498.229 387.116C488.851 383.506 481.332 382.203 475.885 373.018C474.897 371.269 474.027 369.457 473.279 367.592C470.053 359.774 467.96 350.76 460.89 345.74C445.104 334.568 427.438 355.929 421.308 368.831L420.261 373.104C413.489 398.16 383.37 402.881 363.077 413.049C349.834 419.756 337.701 428.258 330.31 441.48C325.076 450.836 323.154 461.517 319.223 471.386C322.235 470.553 325.226 469.72 328.216 469.057C329.775 468.651 331.399 468.395 333.001 468.096C333.535 466.537 334.026 464.977 334.496 463.418C336.031 457.853 338.106 452.452 340.691 447.29C345.86 438.062 354.405 430.778 368.46 423.793C372.861 421.657 377.945 419.521 383.306 417.513C401.912 410.186 425.089 401.065 431.775 376.286L432.565 373.082C437.478 363.47 446.471 354.669 451.534 354.669C452.465 354.71 453.358 355.055 454.075 355.651C456.745 357.51 458.518 362.274 460.484 367.293C461.886 371.432 463.674 375.43 465.824 379.234C472.553 390.641 481.781 393.973 489.941 396.9C491.286 397.348 492.653 397.861 494.085 398.438C497.81 399.678 501.187 401.788 503.936 404.592C506.685 407.397 508.726 410.815 509.892 414.565C511.044 418.655 511.205 422.961 510.362 427.126C511.985 426.741 513.63 426.335 515.403 426.015C517.975 425.555 520.452 424.667 522.73 423.387C523.021 418.308 522.218 413.224 520.375 408.481C518.533 403.739 515.693 399.447 512.049 395.896C508.065 392.088 503.368 389.105 498.229 387.116V387.116Z" fill="#E6361E"/>
<path d="M259.091 535.939C261.227 547.474 270.754 559.991 279.576 562.747C280.891 563.152 282.258 563.361 283.634 563.366C289.765 563.366 296.451 559.201 303.757 554.822L305.081 554.031C319.201 545.487 332.017 539.719 348.85 539.634H349.427C355.237 539.634 360.855 540.083 366.259 540.488C371.663 540.894 376.256 541.3 381.02 541.3C385.328 541.362 389.629 540.925 393.836 539.997C401.182 538.121 408.076 534.787 414.108 530.193C410.754 530.081 407.42 529.638 404.153 528.868C399.799 528.051 395.319 528.175 391.016 529.231C384.95 530.363 384.01 529.765 377.922 527.309C364.956 522.011 357.287 532.393 343.744 531.581C338.319 531.239 333.726 529.445 328.215 530.278C318.154 531.581 308.499 529.36 298.502 529.936C288.505 530.513 280.324 529.829 271.181 525.664C268.511 524.255 266.004 522.558 263.705 520.602L263.341 520.858C259.304 524.105 257.852 529.146 259.091 535.939Z" fill="#B21E16"/>
<path d="M509.743 414.373C508.577 410.623 506.536 407.204 503.787 404.4C501.038 401.596 497.661 399.486 493.936 398.245C492.504 397.669 491.137 397.156 489.791 396.708C481.632 393.781 472.404 390.449 465.675 379.042C463.525 375.238 461.737 371.24 460.335 367.101C458.476 362.081 456.703 357.318 453.926 355.459C453.209 354.863 452.316 354.518 451.384 354.477C446.322 354.477 437.329 363.277 432.416 372.89L431.625 376.094C424.939 400.873 401.72 409.994 383.157 417.321C377.796 419.457 372.712 421.401 368.311 423.601C354.298 430.671 345.754 437.956 340.542 447.098C337.957 452.259 335.882 457.661 334.347 463.226C333.877 464.785 333.386 466.344 332.852 467.904C345.206 465.784 357.821 465.668 370.212 467.562C380.444 469.228 388.134 471.834 399.071 470.894C408.897 470.104 421.629 469.271 429.788 464.635C437.308 460.363 442.776 453.677 451.149 450.388C459.523 447.098 467.875 451.84 476.419 449.191C482.55 447.312 486.801 440.968 490.838 437.229C496.23 432.15 502.858 428.571 510.063 426.848C510.941 422.723 510.832 418.448 509.743 414.373Z" fill="#B21E16"/>
<path d="M355.986 36.176C358.89 35.4241 361.744 34.4894 364.53 33.3776C361.45 33.3303 358.442 34.3155 355.986 36.176V36.176Z" fill="#F0801D"/>
<path d="M352.973 65.291C363.461 70.3108 369.677 73.6217 369.912 82.0807C370.125 92.2913 366.601 102.48 374.611 111.986C387.813 127.686 439.656 127.281 429.552 106.197C425.6 97.8452 420.324 91.8641 422.481 82.9138C424.105 76.2919 429.552 69.2426 421.392 63.5178C413.232 57.7931 405.606 54.6102 398.685 47.732C392.277 41.3237 384.95 35.663 375.936 33.3347C366.921 31.0063 360.128 37.0304 352.054 39.4442C353.258 38.2079 354.574 37.0851 355.984 36.0903C349.704 37.8419 343.168 39.9139 340.092 45.0832C334.581 54.6957 345.368 61.6809 352.973 65.291ZM354.404 49.0991L355.493 50.915C358.541 49.9433 361.511 48.7435 364.379 47.3263C366.673 46.0438 369.175 45.1762 371.77 44.763L373.031 44.9552C378.585 46.365 384.096 49.9535 390.397 56.2764C395.393 61.0048 400.961 65.0883 406.973 68.431C409.259 69.7981 411.459 71.1012 413.553 72.5538L412.869 74.5188C412.15 76.3673 411.544 78.2577 411.053 80.1795C408.255 91.6718 412.848 100.067 416.522 106.795L418.102 109.743C414.641 110.789 411.036 111.28 407.422 111.196V111.196C396.336 111.196 386.531 107.671 383.925 104.424C381.319 101.177 381.105 98.0159 381.639 90.454C381.883 87.6129 381.976 84.7607 381.917 81.9096C381.575 65.8034 368.652 59.6301 358.292 54.6743C355.869 53.609 353.604 52.2146 351.563 50.5304C352.465 49.9685 353.415 49.4893 354.404 49.0991V49.0991Z" fill="#F0801D"/>
<path d="M381.746 81.8031C381.805 84.6541 381.712 87.5063 381.468 90.3475C380.934 97.9093 381.019 101.028 383.754 104.318C386.488 107.607 396.25 111.089 407.251 111.089C410.865 111.173 414.47 110.683 417.931 109.637L416.35 106.689C412.676 99.96 408.084 91.565 410.882 80.0727C411.373 78.1509 411.979 76.2608 412.698 74.4123L413.381 72.4469C411.245 70.9944 409.109 69.6913 406.802 68.3241C400.79 64.9815 395.222 60.8982 390.226 56.1698C383.818 49.7615 378.413 46.2582 372.859 44.8484L371.599 44.6562C369.004 45.0694 366.502 45.937 364.208 47.2194C361.376 48.6391 358.441 49.8459 355.429 50.8296L354.34 49.014C353.296 49.3603 352.288 49.8037 351.328 50.3383C353.369 52.0226 355.634 53.4169 358.056 54.4822C368.481 59.5234 381.468 65.6969 381.746 81.8031Z" fill="#B53D17"/>
<path d="M165.187 482.321L165.038 482.13L164.867 481.98L164.568 481.746L165.059 482.215L165.187 482.321Z" fill="#B21E16"/>
<path d="M583.395 345.398C581.863 344.22 580.093 343.389 578.208 342.965C576.323 342.541 574.368 342.533 572.479 342.942L571.027 343.711C566.114 347.748 571.966 360.159 569.873 365.584C567.993 370.327 562.952 373.979 560.752 378.593C558.552 383.207 560.752 387.608 558.83 392.179C556.095 399.014 548.662 399.014 541.741 402.219C530.505 407.409 531.701 417.876 522.516 423.195C520.238 424.475 517.761 425.363 515.189 425.822C513.416 426.143 511.771 426.549 510.148 426.933C502.943 428.656 496.315 432.235 490.923 437.315C486.886 441.053 482.635 447.397 476.504 449.277C467.96 451.926 459.586 447.141 451.234 450.473C442.882 453.805 437.307 460.427 429.873 464.721C421.713 469.356 408.982 470.189 399.156 470.98C388.219 471.834 380.529 469.314 370.297 467.647C357.906 465.754 345.291 465.869 332.937 467.989C331.335 468.288 329.711 468.545 328.152 468.95C325.161 469.613 322.171 470.446 319.159 471.279C308.82 474.141 298.268 477.474 287.566 478.136C275.07 478.883 263.342 474.12 251.871 470.958C240.401 467.797 228.93 467.989 216.882 469.378C205.902 470.659 201.758 472.411 192.125 467.519C181.978 462.371 172.024 457.522 160.083 456.625C150.642 455.92 143.122 454.361 137.312 448.081C131.502 441.801 123.364 438.725 114.542 434.004C117.982 438.665 121.781 443.051 125.905 447.12C133.745 451.135 140.858 454.062 146.327 459.936C151.795 465.81 159.656 467.712 169.055 468.481C181.017 469.356 190.993 474.205 201.096 479.396C210.709 484.266 214.853 482.515 225.854 481.254C237.88 479.866 249.201 479.61 260.843 482.835C272.485 486.061 284.041 490.76 296.516 489.991C310.358 489.137 323.922 483.818 337.102 480.806C350.949 477.822 365.225 477.395 379.226 479.545C389.458 481.212 397.148 483.818 408.106 482.835C417.932 482.023 430.642 481.233 438.823 476.576C446.321 472.304 451.789 465.661 460.184 462.393C468.579 459.125 476.931 463.76 485.433 461.132C491.564 459.231 495.857 452.908 499.873 449.17C506.773 442.762 513.886 439.622 524.054 437.699C541.613 434.367 536.87 420.397 550.563 414.202C557.42 410.998 564.896 410.998 567.652 404.141C569.489 399.591 567.417 395.191 569.574 390.556C571.732 385.92 576.815 382.289 578.695 377.525C580.575 372.762 575.79 361.376 579.165 356.634C579.165 356.634 579.165 356.634 579.165 356.463L579.892 355.673L581.301 354.947C583.061 354.505 584.903 354.505 586.663 354.947C586.752 353.515 586.644 352.077 586.343 350.674C585.91 348.66 584.883 346.823 583.395 345.398V345.398Z" fill="#B21E16"/>
<path d="M578.867 377.44C576.987 382.203 571.946 385.856 569.745 390.47C567.545 395.084 569.745 399.506 567.823 404.056C565.089 410.912 557.612 410.912 550.734 414.117C537.106 420.525 541.784 434.388 524.225 437.614C514.057 439.536 506.944 442.676 500.044 449.085C496.028 452.823 491.735 459.146 485.604 461.047C477.06 463.674 468.708 459.039 460.356 462.307C452.003 465.575 446.428 472.219 438.995 476.491C430.813 481.148 418.104 481.938 408.277 482.75C397.319 483.625 389.629 481.126 379.397 479.46C365.396 477.31 351.121 477.737 337.273 480.72C324.072 483.732 310.508 489.051 296.687 489.905C284.213 490.674 272.485 485.89 261.014 482.75C249.543 479.609 238.051 479.78 226.025 481.169C215.024 482.429 210.88 484.181 201.268 479.31C191.121 474.12 181.146 469.271 169.226 468.395C159.827 467.69 152.308 466.152 146.498 459.851C140.688 453.549 133.916 451.007 126.077 447.034L123.706 445.817C132.385 457.245 142.851 467.199 154.7 475.295C157.862 477.559 160.852 478.712 163.544 480.678C165.935 480.651 168.325 480.78 170.7 481.062C176.553 482.045 178.988 485.334 183.516 488.282C188.643 491.657 192.574 491.743 198.832 492.811C205.711 494.028 207.612 495.652 212.183 499.689C216.754 503.726 219.275 504.111 226.089 503.555C230.682 503.213 237.282 500.33 241.768 501.419C246.254 502.508 250.633 507.827 255.033 509.686C264.176 513.723 272.122 514.492 282.354 513.958C292.586 513.424 302.028 515.581 312.067 514.278C317.578 513.574 322.192 515.282 327.597 515.581C341.097 516.436 348.744 506.012 361.774 511.309C367.862 513.851 368.824 514.407 374.869 513.275C379.178 512.209 383.666 512.085 388.027 512.911C391.338 513.424 396.721 515.048 400.075 513.894C404.048 512.506 404.966 507.764 409.495 506.717C416.544 505.029 427.289 510.113 434.658 506.717C437.948 505.136 437.777 501.547 441.494 500.18C445.21 498.813 451.683 500.629 455.763 500.18C460.735 499.844 465.551 498.305 469.797 495.694C472.275 493.9 473.45 489.137 476.205 488.09C478.47 487.171 483.361 488.709 486.309 488.368C489.727 487.962 500.258 486.381 502.8 484.587C505.342 482.792 504.936 479.588 507.798 477.538C515.958 471.706 529.159 475.401 536.572 468.694C540.288 465.298 539.263 460.406 544.326 458.014C549.388 455.621 555.391 456.305 560.56 452.566C565.091 449.257 568.306 444.453 569.638 439.002C570.92 434.474 571.027 430.458 573.419 426.186C575.812 421.913 578.845 418.602 579.828 413.882C581.067 408.52 579.635 403.479 579.529 398.16C579.529 393.631 581.302 390.534 582.733 386.241C585.787 376.927 580.127 366.247 579.636 356.549C575.961 361.334 580.81 372.399 578.867 377.44Z" fill="#FDC328"/>
<path d="M595.614 415.078V414.053C595.614 409.546 597.409 406.448 598.818 402.155C602.044 392.371 595.593 381.05 595.657 370.989V368.853C595.892 364.581 596.298 361.227 592.367 357.339C590.754 356.036 588.822 355.187 586.771 354.883C585.011 354.441 583.169 354.441 581.409 354.883L579.999 355.609L579.273 356.399C579.273 356.399 579.273 356.399 579.273 356.57C579.764 366.268 585.425 376.949 582.371 386.262C580.939 390.534 579.081 393.653 579.166 398.181C579.273 403.5 580.704 408.541 579.465 413.903C578.419 418.624 575.407 421.999 573.057 426.207C570.707 430.415 570.558 434.452 569.276 439.024C567.944 444.474 564.728 449.278 560.198 452.588C555.028 456.326 549.175 455.472 543.963 458.035C538.751 460.598 539.926 465.362 536.209 468.716C528.818 475.402 515.596 471.728 507.436 477.559C504.616 479.695 505.001 482.792 502.437 484.608C499.874 486.424 489.365 487.983 485.947 488.389C482.999 488.731 478.107 487.193 475.843 488.111C473.194 489.158 472.019 493.922 469.435 495.716C465.189 498.326 460.373 499.865 455.4 500.202C451.32 500.565 444.87 498.749 441.131 500.202C437.393 501.654 437.585 505.157 434.296 506.738C426.926 510.241 416.181 505.157 409.132 506.738C404.604 507.785 403.685 512.527 399.712 513.916C396.359 515.005 390.976 513.445 387.665 512.933C383.303 512.106 378.815 512.23 374.506 513.296C368.461 514.428 367.5 513.873 361.412 511.331C348.467 506.076 340.82 516.5 327.234 515.603C321.83 515.304 317.216 513.595 311.705 514.3C301.665 515.603 291.967 513.381 281.992 513.979C272.016 514.578 263.813 513.83 254.671 509.707C250.27 507.763 245.763 502.551 241.406 501.441C237.048 500.33 230.319 503.214 225.727 503.577C218.912 504.132 216.221 503.577 211.82 499.71C207.42 495.844 205.412 494.05 198.47 492.832C192.211 491.764 188.281 491.679 183.154 488.303C178.69 485.356 176.255 482.066 170.338 481.084C167.963 480.801 165.573 480.673 163.182 480.699L164.314 481.639L164.613 481.874L164.784 482.002L164.933 482.216L166.236 483.561C169.034 486.915 170.209 491.059 173.819 494.007C178.861 498.087 180.228 495.951 186.636 496.976C192.489 497.937 194.903 501.248 199.453 504.218C200.48 504.88 201.55 505.472 202.657 505.99C206.563 507.41 210.632 508.336 214.768 508.746C221.668 509.964 223.569 511.608 228.119 515.646C232.669 519.683 235.232 519.918 242.025 519.491C244.764 519.121 247.476 518.572 250.142 517.846C252.601 517.115 255.193 516.947 257.725 517.355C259.825 518.067 261.779 519.153 263.493 520.559C265.792 522.515 268.299 524.213 270.969 525.621C280.112 529.701 288.058 530.47 298.29 529.894C308.522 529.317 317.942 531.538 328.003 530.235C333.514 529.488 338.107 531.197 343.533 531.538C357.012 532.35 364.68 521.969 377.71 527.266C383.798 529.723 384.738 530.321 390.805 529.189C395.108 528.132 399.587 528.009 403.942 528.826C407.208 529.595 410.542 530.039 413.896 530.15L416.032 529.787C419.984 528.398 420.924 523.699 425.474 522.652C429.233 521.712 434.018 522.78 438.824 523.378C442.757 524.209 446.844 523.912 450.616 522.524C453.927 520.922 453.756 517.333 457.472 515.966C461.189 514.599 467.619 516.436 471.742 515.966C476.71 515.627 481.524 514.096 485.776 511.502C488.254 509.707 489.429 504.88 492.077 503.854C494.342 502.957 499.233 504.495 502.16 504.153C503.377 504.047 505.514 503.748 507.863 503.32C511.592 502.889 515.235 501.903 518.672 500.394C521.235 498.578 520.808 495.353 523.628 493.345C527.43 490.653 532.172 489.97 537.106 489.393H537.619C543.13 488.688 548.556 488.09 552.422 484.587C554.12 482.656 555.413 480.404 556.225 477.965C557 476.153 558.403 474.681 560.176 473.821C563.026 472.654 566.012 471.85 569.062 471.428C571.709 470.962 574.224 469.927 576.432 468.395C577.697 467.502 578.864 466.478 579.914 465.34C582.569 462.314 584.479 458.707 585.489 454.81C586.771 450.281 586.878 446.265 589.292 441.993C591.705 437.721 594.696 434.452 595.7 429.71V429.176L595.871 428.065C596.185 423.738 596.099 419.39 595.614 415.078Z" fill="#F28F2B"/>
<path d="M39.4148 222.145C40.9101 226.887 44.9687 230.561 46.7204 235.175C48.472 239.789 46.7203 244.168 48.2369 248.74C50.373 255.554 56.3969 255.554 61.908 258.8C72.8235 265.059 69.0852 279.072 83.1194 282.298C90.7095 283.791 97.5482 287.867 102.473 293.833C105.677 297.571 109.095 303.915 113.986 305.795C120.822 308.443 127.529 303.659 134.236 307.012C140.944 310.366 145.344 316.924 151.325 321.217C157.734 325.874 168.008 326.643 175.89 327.476C184.648 328.352 190.843 325.81 198.982 324.144C210.177 321.992 221.718 322.445 232.711 325.468C243.263 328.48 254.072 333.778 265.201 334.654C275.198 335.401 284.554 330.638 293.739 327.476C302.925 324.315 312.11 324.486 321.744 325.917C330.523 327.113 333.855 328.907 341.545 324.016C349.684 318.846 357.63 313.997 367.179 313.122C374.719 312.438 380.721 310.857 385.378 304.577L386.19 303.573C382.368 305.475 378.192 306.559 373.928 306.756C364.337 307.674 356.37 312.502 348.295 317.629C340.584 322.585 337.273 320.79 328.494 319.53C321.235 318.269 313.814 318.269 306.556 319.53C304.498 319.928 302.471 320.471 300.489 321.153L298.823 321.751C290.279 324.849 281.328 329.036 271.93 328.331C263.62 327.669 255.439 324.528 247.407 321.751C244.737 320.79 242.088 319.893 239.44 319.103C228.448 316.108 216.914 315.685 205.732 317.864C197.529 319.53 191.399 322.008 182.641 321.153C174.758 320.341 164.591 319.573 158.054 314.937C152.03 310.665 147.651 303.979 140.965 300.668C134.279 297.357 127.572 302.078 120.757 299.493C115.844 297.635 112.427 291.248 109.201 287.51C104.325 281.559 97.5265 277.495 89.9764 276.018C75.9209 272.728 79.6376 258.715 68.7434 252.52C63.2323 249.338 57.2725 249.337 55.0937 242.481C53.6198 237.888 55.3074 233.509 53.5558 228.895C53.0709 227.669 52.4626 226.495 51.7401 225.392C49.5307 222.458 47.687 219.266 46.2502 215.886C44.5627 210.439 49.2622 198.071 45.3105 193.97L44.1783 193.265C42.6353 192.858 41.0123 192.867 39.474 193.291C37.9357 193.715 36.537 194.539 35.4203 195.679C34.4893 196.794 33.7658 198.067 33.2842 199.438C34.6179 199.06 36.0305 199.06 37.3642 199.438L38.5175 200.207L39.0943 200.976C41.8285 205.761 37.8127 216.997 39.4148 222.145Z" fill="#E6361E"/>
<path d="M403.705 290.607C398.536 299.286 392.26 307.257 385.036 314.318L385.676 313.827C386.851 312.801 388.005 311.691 389.137 310.665C397.473 302.938 404.666 294.062 410.498 284.306C404.666 288.236 399.348 290.906 394.947 295.371L392.811 297.635C396.186 295.243 399.839 293.192 403.705 290.607Z" fill="#E6361E"/>
<path d="M375.916 322.435C374.495 323.367 373.139 324.395 371.857 325.511L370.704 326.643L370.554 326.771L369.38 328.331C368.111 330.516 366.962 332.769 365.94 335.081C367.562 334.684 369.015 333.778 370.085 332.496C372.926 329.634 373.844 325.725 375.916 322.435Z" fill="#E6361E"/>
<path d="M378.905 320.107C381.041 318.248 383.178 316.326 385.036 314.318C392.26 307.257 398.536 299.286 403.705 290.607C399.839 293.192 396.186 295.243 392.897 297.635C390.433 299.35 388.212 301.391 386.296 303.702L385.484 304.705C380.828 310.921 374.804 312.502 367.285 313.25C357.694 314.126 349.747 318.975 341.652 324.144C333.962 329.036 330.629 327.241 321.85 326.045C312.216 324.614 303.138 324.4 293.846 327.604C284.554 330.809 275.304 335.529 265.307 334.782C254.221 333.906 243.37 328.608 232.817 325.597C221.825 322.574 210.284 322.121 199.088 324.272C190.885 325.938 184.755 328.544 175.997 327.604C168.115 326.771 157.947 326.002 151.432 321.346C145.387 317.074 141.008 310.43 134.343 307.141C127.678 303.851 120.928 308.572 114.092 305.923C109.201 304.043 105.783 297.699 102.579 293.961C97.6545 287.995 90.816 283.919 83.2259 282.426C69.1917 279.136 72.9297 265.124 62.0143 258.929C56.5031 255.682 50.5222 255.682 48.3434 248.868C46.8909 244.296 48.5355 239.875 46.8266 235.303C45.1177 230.732 41.0166 227.015 39.5213 222.273C37.9192 217.125 41.9777 205.889 39.1581 201.169C38.8163 210.888 34.1808 221.675 36.6587 231.074C37.8122 235.346 39.2863 238.465 39.2222 242.972C39.2222 248.291 38.0046 253.375 38.9659 258.736C39.799 263.479 42.234 266.832 44.1778 271.062C46.1217 275.291 46.1645 279.265 47.2112 283.75C48.1186 288.963 50.6624 293.751 54.474 297.421C58.5753 301.138 63.2747 300.262 67.4614 302.783C71.6482 305.303 70.687 310.174 73.6776 313.463C79.5518 320.149 90.147 316.433 96.6834 322.35C98.8195 324.336 98.6059 327.562 100.678 329.356C102.75 331.15 111.145 332.752 113.879 333.18C116.207 333.479 120.138 331.962 121.953 332.859C123.769 333.757 125.029 338.691 126.995 340.485C130.241 343.004 134.139 344.545 138.231 344.928C141.499 345.313 146.647 343.476 149.637 344.928C152.628 346.381 152.478 349.927 155.106 351.336C161.023 354.904 169.61 349.82 175.228 351.465C178.88 352.511 179.5 357.254 182.811 358.621C185.481 359.774 189.775 358.172 192.445 357.702C195.912 356.851 199.546 356.962 202.955 358.022C207.804 359.133 208.572 358.578 213.443 356.122C223.803 350.824 229.912 361.227 240.721 360.394C244.993 360.073 248.731 358.386 253.132 359.112C261.185 360.394 268.939 358.151 276.928 358.77C284.48 359.681 292.127 358.186 298.78 354.498C302.305 352.554 305.915 347.342 309.461 346.189C313.007 345.035 318.304 348.004 322 348.325C327.425 348.837 329.583 348.325 333.107 344.48C336.632 340.635 338.277 338.776 343.788 337.58C348.786 336.469 351.969 336.405 356.049 333.094C359.616 330.082 361.581 326.686 366.238 325.81C368.148 325.532 370.076 325.411 372.006 325.447V325.447C373.287 324.331 374.643 323.303 376.064 322.371L378.905 320.107Z" fill="#FDC328"/>
<path d="M23.5015 246.838C24.6123 251.111 26.1074 254.229 26.022 258.715C26.022 264.055 24.8044 269.139 25.7656 274.458C26.6201 279.179 29.034 282.533 30.9565 286.783V286.955C32.7935 291.077 32.9004 295.093 33.9257 299.536C34.5962 302.724 35.7791 305.783 37.4287 308.593C38.4491 310.288 39.7162 311.821 41.1882 313.143C45.3109 316.86 50.0105 316.005 54.1973 318.547C58.3841 321.089 57.4012 325.874 60.3918 329.228C66.2661 335.871 76.8612 332.197 83.4404 338.071C85.5765 340.079 85.3415 343.284 87.3922 345.099C89.4428 346.915 97.8592 348.474 100.615 348.88C102.943 349.222 106.874 347.663 108.668 348.581C110.804 349.606 111.744 354.434 113.709 356.207C116.955 358.737 120.85 360.3 124.945 360.714C128.235 361.056 133.489 359.24 136.373 360.714C139.257 362.188 139.214 365.648 141.841 367.122C147.737 370.647 156.346 365.542 161.964 367.122C165.595 368.169 166.236 372.89 169.547 374.278C172.196 375.389 176.489 373.872 179.159 373.338C182.63 372.487 186.269 372.621 189.669 373.723C194.24 374.748 195.244 374.278 199.388 372.121L200.157 371.758C210.517 366.46 216.648 376.863 227.457 376.03C231.729 375.688 235.467 374.022 239.889 374.748C242.94 375.153 246.026 375.239 249.095 375.005C253.933 374.491 258.8 374.299 263.663 374.428C271.21 375.384 278.865 373.886 285.494 370.156C289.019 368.233 292.629 362.957 296.175 361.846C299.721 360.735 305.019 363.683 308.693 363.982C314.161 364.495 316.297 363.982 319.843 360.137C320.803 359.029 321.823 357.974 322.898 356.976L325.418 355.096C327.014 354.222 328.737 353.602 330.524 353.259C335.501 352.148 338.683 352.106 342.763 348.709C343.809 347.852 344.807 346.94 345.754 345.975C347.641 343.772 350.163 342.205 352.974 341.489C355.016 341.237 357.069 341.087 359.126 341.041C360.762 340.69 362.226 339.785 363.27 338.477C364.317 337.385 365.202 336.147 365.897 334.803C366.919 332.492 368.067 330.239 369.336 328.053L370.511 326.494L370.661 326.366L371.814 325.233C369.885 325.197 367.956 325.319 366.047 325.597C361.39 326.558 359.425 329.869 355.858 332.881C351.778 336.192 348.595 336.256 343.597 337.367C338.085 338.563 336.569 340.229 332.916 344.266C329.263 348.303 327.234 348.538 321.808 348.111C318.113 347.769 312.836 344.886 309.269 345.975C305.702 347.064 302.156 352.383 298.589 354.284C291.936 357.973 284.289 359.468 276.736 358.557C268.747 357.937 260.993 360.18 252.94 358.898C248.54 358.172 244.866 359.86 240.53 360.18C229.721 361.013 223.612 350.61 213.251 355.908C208.381 358.364 207.612 358.92 202.763 357.809C199.354 356.748 195.721 356.638 192.254 357.488C189.584 357.958 185.29 359.625 182.62 358.407C179.416 357.04 178.689 352.298 175.037 351.251C169.419 349.606 160.831 354.69 154.914 351.123C152.287 349.606 152.415 345.954 149.446 344.715C146.477 343.476 141.308 345.185 138.039 344.715C133.948 344.332 130.05 342.79 126.803 340.272C124.838 338.477 123.877 333.671 121.762 332.646C119.647 331.62 116.016 333.265 113.688 332.966C110.953 332.539 102.537 330.958 100.486 329.143C98.4358 327.327 98.7135 324.123 96.492 322.136C89.9555 316.219 79.4031 320 73.4861 313.25C70.4956 309.875 71.3502 305.004 67.2702 302.569C63.1903 300.134 58.3839 300.924 54.2826 297.208C50.471 293.538 47.9274 288.749 47.02 283.537C45.9733 279.051 45.8878 274.992 43.9867 270.848C42.0855 266.704 39.7143 263.265 38.7744 258.523C37.8132 253.161 38.9453 248.077 39.0308 242.758C39.0308 238.251 37.621 235.154 36.4675 230.86C33.9897 221.504 38.6037 210.717 38.9669 200.955L38.3901 200.186L37.2365 199.417C35.9028 199.039 34.4902 199.039 33.1565 199.417L31.7468 199.823C30.5006 200.26 29.379 200.993 28.4785 201.959C24.8044 206.509 25.8726 210.503 25.9367 215.673V217.125C25.5949 226.759 21.0236 237.44 23.5015 246.838Z" fill="#F28F2B"/>
</svg>
