<svg width="218" height="299" viewBox="0 0 218 299" fill="none" xmlns="http://www.w3.org/2000/svg">
    <path d="M309.305 175.404C361.886 125.087 363.722 41.6705 313.404 -10.9112C263.087 -63.4929 179.67 -65.3284 127.089 -15.0108C74.507 35.3067 72.6716 118.723 122.989 171.305C173.307 223.887 256.723 225.722 309.305 175.404Z" fill="#FF8D2F"/>
    <g filter="url(#filter0_d_131_235)">
        <path d="M154.186 176.346C207.271 211.684 278.951 197.298 314.29 144.214C349.628 91.129 335.241 19.4483 282.157 -15.8899C229.072 -51.228 157.392 -36.8417 122.053 16.2428C86.7153 69.3273 101.102 141.008 154.186 176.346Z" fill="white"/>
        <path d="M154.186 176.346C207.271 211.684 278.951 197.298 314.29 144.214C349.628 91.129 335.241 19.4483 282.157 -15.8899C229.072 -51.228 157.392 -36.8417 122.053 16.2428C86.7153 69.3273 101.102 141.008 154.186 176.346Z" fill="url(#paint0_linear_131_235)"/>
    </g>
    <path fill-rule="evenodd" clip-rule="evenodd" d="M335.092 54.668C340.283 59.9745 340.002 103.883 334.605 101.665C329.189 99.4349 319.81 74.3681 320.507 66.9275C321.331 58.3027 329.888 49.3797 335.092 54.668ZM284.472 159.023C231.222 162.409 187.298 130.42 209.548 97.9101C231.816 65.4124 290.487 63.7311 303.709 65.95C318.213 68.3878 337.711 155.655 284.472 159.023ZM316.947 29.2652C314.906 33.7222 302.605 31.0327 294.66 23.6284C286.757 16.1996 276.847 9.91975 276.697 5.53754C276.423 -2.62875 290.251 -6.56261 299.799 -2.95576C309.36 0.632764 318.989 24.8083 316.947 29.2652ZM290.183 -17.024C292.867 -18.7531 305.841 -12.7071 305.568 -10.9064C305.276 -9.11786 301.7 -8.11447 296.907 -10.0888C292.078 -12.0875 287.694 -15.4293 290.183 -17.024ZM182.801 -40.261C198.493 -48.4258 233.644 -55.8774 265.681 -38.4368C288.199 -26.1962 284.711 -2.84796 263.576 8.17085C242.472 19.1835 191.409 -9.70659 181.12 -15.6567C170.838 -21.5763 175.821 -36.6064 182.801 -40.261ZM151.856 131.518C146.191 130.814 142.087 127.051 146.82 122.086C151.907 116.748 161.559 121.429 159.92 125.281C158.263 129.121 157.496 132.259 151.856 131.518ZM84.9176 93.6727C79.7275 63.3845 107.184 40.2095 120.941 39.5594C134.697 38.9093 147.86 89.5471 141.743 115.296C135.645 141.057 91.8785 134.287 84.9176 93.6727ZM108.455 152.195C100.861 140.531 128.482 126.956 146.535 134.348C164.564 141.776 194.445 184.297 189.653 192.29C184.867 200.313 128.404 182.95 108.455 152.195ZM231.052 199.995C225.885 194.81 262.976 186.668 270.715 194.383C278.422 202.105 242.125 211.12 231.052 199.995ZM291.316 -29.6467C280.874 -36.5977 269.823 -41.9186 258.444 -45.6341C257.949 -45.8046 257.455 -45.9752 256.948 -46.1275C256.338 -46.3224 255.697 -46.5111 255.086 -46.706C200.015 -63.2217 138.414 -43.1608 104.36 6.60554C64.1245 68.7539 81.2397 151.896 143.047 193.041C204.854 234.186 288.15 217.913 329.972 156.795C370.238 94.6405 353.141 11.5103 291.316 -29.6467Z" fill="#B13D2F"/>
    <path fill-rule="evenodd" clip-rule="evenodd" d="M293.292 -32.6145C230.972 -74.1008 146.834 -57.1986 105.36 5.10324C105.019 5.61616 104.689 6.11079 104.379 6.61759C64.1434 68.766 81.2585 151.908 143.066 193.053C204.873 234.198 288.169 217.925 329.991 156.807C330.339 156.325 330.668 155.83 331.01 155.317C372.484 93.0153 355.594 8.85951 293.292 -32.6145ZM336.581 98.6974C331.165 96.4671 321.786 71.4003 322.483 63.9597C323.319 55.3166 331.876 46.3936 337.08 51.6818C342.271 56.9884 341.978 100.915 336.581 98.6974ZM301.787 -5.94191C311.33 -2.36557 320.947 21.8283 318.905 26.2853C316.863 30.7422 304.563 28.0527 296.617 20.6484C288.714 13.2197 278.804 6.93971 278.655 2.55751C278.399 -5.59658 292.227 -9.53043 301.787 -5.94191ZM292.171 -20.0101C294.855 -21.7392 307.829 -15.6932 307.556 -13.8925C307.264 -12.104 303.688 -11.1006 298.896 -13.0749C294.054 -15.0553 289.67 -18.3971 292.171 -20.0101ZM256.955 -46.0971C257.461 -45.9448 257.968 -45.7926 258.45 -45.6037C261.826 -44.4402 264.916 -43.0446 267.663 -41.3741C289.596 -28.0955 286.694 -5.78524 265.559 5.23357C244.454 16.2462 193.391 -12.6439 183.103 -18.5939C172.82 -24.5135 177.815 -39.562 184.783 -43.1983C197.889 -50.0186 231.547 -53.4408 255.081 -46.6574C255.728 -46.5174 256.338 -46.3225 256.955 -46.0971ZM153.832 128.55C148.167 127.846 144.063 124.083 148.796 119.118C153.883 113.78 163.535 118.461 161.896 122.313C160.239 126.153 159.472 129.291 153.832 128.55ZM86.9058 90.6866C81.7158 60.3984 109.172 37.2234 122.929 36.5733C136.686 35.9231 149.848 86.561 143.732 112.31C137.621 138.089 93.8545 131.319 86.9058 90.6866ZM110.431 149.228C102.837 137.563 130.458 123.988 148.511 131.38C166.54 138.808 196.421 181.329 191.629 189.322C186.855 197.327 130.392 179.964 110.431 149.228ZM233.04 197.009C227.873 191.824 264.964 183.682 272.703 191.397C280.398 199.137 244.101 208.152 233.04 197.009ZM286.448 156.055C233.198 159.442 189.274 127.452 211.524 94.9423C233.792 62.4446 292.463 60.7633 305.685 62.9822C320.189 65.4199 339.687 152.687 286.448 156.055Z" fill="url(#paint1_radial_131_235)"/>
    <g opacity="0.58">
        <path opacity="0.58" fill-rule="evenodd" clip-rule="evenodd" d="M199.378 23.3561C200.275 23.4775 201.148 23.3976 201.777 24.0808C202.321 24.6541 202.59 25.362 202.682 26.137C202.811 27.0952 202.518 28.0109 202.238 28.9083C202.104 29.3479 202.056 29.8178 201.678 30.1477C200.25 31.4182 197.772 31.3283 196.106 30.8533C195.129 30.5732 194.201 30.3786 193.31 29.8909C192.705 29.5678 192.07 29.2509 191.429 28.9827C190.904 28.7389 190.33 28.6478 189.921 28.1903C189.634 27.867 189.365 27.2385 189.236 26.8358C188.796 25.5116 188.881 24.1138 189.686 22.9842C191.088 21.0362 194.53 21.0278 196.697 21.3071C198.48 21.489 201.135 22.067 199.378 23.3561Z" fill="#C4B0FF"/>
        <path opacity="0.58" fill-rule="evenodd" clip-rule="evenodd" d="M207.417 24.8218C206.856 25.2677 206.551 25.329 206.82 25.9575C207.003 26.3968 207.48 26.7139 207.913 26.8173C208.768 27.0426 210.342 26.5838 210.305 25.5279C210.292 24.9908 210.096 23.935 209.681 23.6057C208.881 22.9409 207.001 23.461 206.581 24.2914L207.405 24.8402L207.417 24.8218Z" fill="#C4B0FF"/>
        <path opacity="0.58" fill-rule="evenodd" clip-rule="evenodd" d="M128.083 3.73205C127.02 3.34214 125.97 3.2513 124.902 3.46564C124.848 3.58775 124.762 3.71597 124.707 3.83808C124.103 4.30845 123.634 4.89474 123.555 5.68824C123.306 8.08708 125.303 9.09888 126.988 10.2208C128.783 11.4159 130.97 13.1356 131.804 10.0955C132.175 8.70368 132.906 6.49369 132.319 5.07197C132.007 4.30925 131.611 4.3095 130.927 4.14517C130.042 3.92604 128.986 3.56665 128.083 3.73205Z" fill="#C4B0FF"/>
        <path opacity="0.58" fill-rule="evenodd" clip-rule="evenodd" d="M162.923 97.7759C163.527 97.4642 164.552 96.7982 165.328 97.1822C165.944 97.487 165.914 97.9692 166.14 98.5427C166.617 99.8119 166.917 101.228 165.239 101.803C164.495 102.047 163.292 101.749 162.687 101.188C162.156 100.676 161.655 99.2843 162.301 98.7101L162.923 97.7759Z" fill="#C4B0FF"/>
        <path opacity="0.58" fill-rule="evenodd" clip-rule="evenodd" d="M218.206 30.4173C218.622 31.6987 218.567 31.5035 218.116 32.4986C217.914 32.9199 218.018 33.1212 217.683 33.4266C217.268 33.8114 216.316 33.8121 215.864 33.4584C215.504 33.1656 215.411 32.0732 215.448 31.7008C215.502 31.1027 215.752 30.9255 216.234 30.6383L218.206 30.4173Z" fill="#C4B0FF"/>
        <path opacity="0.58" fill-rule="evenodd" clip-rule="evenodd" d="M213.587 195.056C211.976 195.57 210.719 196.743 209.622 198.074C208.932 198.911 207.932 199.937 208.214 201.023C208.917 203.58 214.537 201.214 216.252 200.346C217.649 199.637 219.162 198.556 220.217 197.329C220.863 196.596 221.9 194.801 221.74 193.849C221.538 192.604 220.122 192.189 218.956 192.312C216.271 192.613 214.337 194.763 211.939 195.863L213.587 195.056Z" fill="#C4B0FF"/>
        <path opacity="0.58" fill-rule="evenodd" clip-rule="evenodd" d="M213.08 193.873C212.872 193.708 212.084 192.945 211.651 192.842C211.333 192.763 210.833 192.641 210.503 192.818C210.058 193.051 209.887 193.624 209.833 194.064C209.809 194.339 209.882 194.784 210.163 194.918C210.389 195.016 210.755 194.942 210.999 194.893C211.432 194.838 211.878 194.685 212.323 194.532C212.531 194.459 212.744 194.416 212.958 194.294C213.269 194.104 213.22 193.86 213.379 193.622L213.08 193.873Z" fill="#C4B0FF"/>
        <path opacity="0.58" fill-rule="evenodd" clip-rule="evenodd" d="M201.391 202.059C201.452 202.364 201.526 202.651 201.587 202.956C201.276 203.145 201.032 203.511 200.666 203.426C200.415 203.365 200.031 202.951 199.963 202.694C199.841 202.322 199.926 201.956 200.256 201.699C200.64 201.4 201.037 201.558 201.342 201.814L201.391 202.059Z" fill="#C4B0FF"/>
        <path opacity="0.58" fill-rule="evenodd" clip-rule="evenodd" d="M163.684 120.938C163.312 121.219 163.08 121.488 163.196 121.989C163.343 122.721 163.905 123.227 164.637 123.159C165.638 123.086 167.139 122.419 167.554 121.4C167.804 120.746 167.516 119.63 166.729 119.581C166.344 119.563 165.783 119.533 165.404 119.625C164.739 119.79 164.178 120.316 163.757 120.829L163.684 120.938Z" fill="#C4B0FF"/>
        <path opacity="0.58" fill-rule="evenodd" clip-rule="evenodd" d="M186.479 91.7793C186.064 91.8467 185.856 91.8407 185.582 92.1339C185.253 92.4698 184.972 92.8117 184.948 93.3244C184.924 94.3132 185.7 95.4907 186.366 96.1983C186.971 96.8387 187.581 97.1129 188.448 97.0818C189.424 97.0446 190.248 96.7205 190.895 95.9877C191.584 95.2304 191.815 94.4856 191.442 93.4971C191.137 92.6856 190.654 91.7032 190.012 91.1177C189.408 90.5566 188.846 90.4471 188.041 90.5453C187.351 90.5885 186.283 90.8822 186.479 91.7793Z" fill="#C4B0FF"/>
        <path opacity="0.58" fill-rule="evenodd" clip-rule="evenodd" d="M190.64 98.3559C190.804 98.1483 190.92 97.8553 191.213 97.9711C191.573 98.1051 191.946 98.7762 192.013 99.1118C192.069 99.3865 191.971 99.9297 191.764 100.162C191.593 100.339 191.3 100.382 191.062 100.382C190.653 100.401 190.317 100.23 190.152 99.8821C190.042 99.6503 189.755 99.0889 190.011 98.8629L190.64 98.3559Z" fill="#C4B0FF"/>
        <path opacity="0.58" fill-rule="evenodd" clip-rule="evenodd" d="M191.211 58.3406C190.925 58.7314 190.809 58.9451 190.779 59.4273C190.749 60.1476 190.926 60.8738 191.201 61.5328C191.574 62.3626 192.161 63.2289 192.979 63.6678C193.565 63.9787 194.511 63.7095 194.925 63.2453C195.432 62.6834 195.791 61.6273 195.766 60.8705C195.68 59.4118 194.916 57.74 193.597 57.0207C192.064 56.1855 190.601 58.3044 191.211 58.3406Z" fill="#C4B0FF"/>
        <path opacity="0.58" fill-rule="evenodd" clip-rule="evenodd" d="M194.062 67.5619C193.995 67.3056 194.007 67.0492 194.086 66.8112C194.349 66.8537 194.581 66.6643 194.88 66.7313C195.148 66.8043 195.386 67.0422 195.515 67.2863C195.698 67.6463 195.711 68.0247 195.509 68.3666C195.284 68.7452 195.076 68.7392 194.686 68.6906C194.393 68.6542 194.301 68.6725 194.148 68.3858C194.069 68.2271 193.947 67.9343 193.928 67.7634L194.062 67.5619Z" fill="#C4B0FF"/>
        <path opacity="0.58" fill-rule="evenodd" clip-rule="evenodd" d="M249.986 46.5767C248.624 45.485 246.957 43.8199 245.26 43.0337C243.947 42.4242 242.586 41.8881 241.23 41.4618C239.051 40.804 236.768 40.5004 234.552 39.977C230.157 38.9545 225.224 36.9925 221.045 39.8945C219.014 41.318 218.466 43.6499 217.338 45.7808C216.357 47.6125 215.088 49.3589 213.905 51.0565C212.637 52.8823 211.949 54.671 212.341 56.9413C212.733 59.2115 214.346 61.0781 215.769 62.7922C216.838 64.0854 218.096 65.3724 219.622 66.0977C222.278 67.3899 225.451 66.2769 228.142 65.6098C229.217 65.3466 230.321 64.998 231.438 64.9484C232.476 64.8989 233.245 65.2524 234.234 65.5141C236.144 66.0195 238.08 66.8849 240.081 66.3403C245.726 64.8107 251.661 59.8262 252.542 53.8564C252.883 51.5979 252.808 49.1687 252.495 46.8984C252.385 46.1112 251.987 44.4452 249.986 46.5767Z" fill="#C4B0FF"/>
        <path opacity="0.58" fill-rule="evenodd" clip-rule="evenodd" d="M95.4249 33.7288C95.3192 30.8298 96.1109 28.2108 97.861 25.8598C98.5867 24.8889 99.6841 23.0022 101.015 24.0999C102.817 25.5635 101.818 29.208 101.362 31.0454C100.674 33.7864 99.9617 36.5639 98.0833 38.7502C95.5158 41.7732 95.5522 32.386 95.5333 31.501L95.4249 33.7288Z" fill="#C4B0FF"/>
        <path opacity="0.58" fill-rule="evenodd" clip-rule="evenodd" d="M106.772 25.6584C105.168 27.3136 104.224 30.5979 105.873 32.5682C106.46 33.2758 107.039 33.0007 107.887 32.5607C108.723 32.139 109.504 31.522 109.717 30.6063C109.863 29.9898 109.79 29.2269 109.771 28.58C109.764 28.1527 109.715 27.8293 109.764 27.4386C109.825 27.0296 110.026 26.8464 109.971 26.4131C109.83 25.3939 107.948 23.3749 107.187 25.0355L106.772 25.6584Z" fill="#C4B0FF"/>
        <path opacity="0.58" fill-rule="evenodd" clip-rule="evenodd" d="M136.068 52.0609C137.545 51.1138 138.625 50.7225 140.376 50.6725C141.939 50.6287 144.124 50.9996 145.571 51.5662C146.914 52.0902 148.746 53.3097 149.449 54.597C150.243 56.104 150.72 57.8493 151.399 59.4114C152.016 60.827 152.829 61.9494 153.159 63.5178C153.441 64.9214 153.369 66.4596 153.059 67.8391C152.553 69.9879 151.28 72.9734 149.376 74.2442C147.638 75.3867 146.661 74.7893 145.091 73.6917C142.844 72.1429 141.92 68.8842 141.607 66.2965C141.442 64.9966 141.471 63.8003 141.056 62.5189C140.566 61.03 139.992 59.5899 139.417 58.1499C138.879 56.8135 138.079 55.5934 137.687 54.196C137.43 53.5492 136.764 51.6515 136.068 52.0609Z" fill="#C4B0FF"/>
        <path opacity="0.58" fill-rule="evenodd" clip-rule="evenodd" d="M152.089 78.3496C151.266 79.2291 150.716 79.498 151.132 80.4621C151.413 81.1516 151.908 81.4808 152.647 81.523C153.416 81.5591 155.405 81.1916 155.71 80.4163C156.362 78.7618 152.747 76.2496 151.778 78.1423L152.089 78.3496Z" fill="#C4B0FF"/>
        <path opacity="0.58" fill-rule="evenodd" clip-rule="evenodd" d="M182.169 163.619C184.639 160.267 190.204 158.579 194.221 158.979C199.97 159.555 204.497 164.709 206.618 169.743C208.415 173.953 208.095 179.239 205.504 183.092C204.809 184.136 203.875 184.863 203.156 185.865C202.613 186.64 202.351 187.153 201.313 186.885C198.743 186.258 195.922 183.984 194.077 182.227C192.038 180.288 189.753 178.159 188.287 175.755C186.979 173.589 186.026 171.21 184.761 169.019C184.107 167.897 183.49 166.957 183.117 165.731C182.958 165.096 181.986 164.053 182.169 163.619Z" fill="#C4B0FF"/>
        <path opacity="0.58" fill-rule="evenodd" clip-rule="evenodd" d="M212.194 166.133C211.914 167.03 211.616 167.36 212.037 168.117C212.361 168.702 212.996 169.019 213.613 169.165C214.363 169.348 215.822 169.182 216.194 168.346C216.858 166.832 214.036 164.002 212.939 165.73L212.194 166.133Z" fill="#C4B0FF"/>
    </g>
    <defs>
        <filter id="filter0_d_131_235" x="98.6914" y="-35.252" width="238.96" height="238.96" filterUnits="userSpaceOnUse" color-interpolation-filters="sRGB">
            <feFlood flood-opacity="0" result="BackgroundImageFix"/>
            <feColorMatrix in="SourceAlpha" type="matrix" values="0 0 0 0 0 0 0 0 0 0 0 0 0 0 0 0 0 0 127 0" result="hardAlpha"/>
            <feOffset dy="4"/>
            <feGaussianBlur stdDeviation="2"/>
            <feComposite in2="hardAlpha" operator="out"/>
            <feColorMatrix type="matrix" values="0 0 0 0 0 0 0 0 0 0 0 0 0 0 0 0 0 0 0.25 0"/>
            <feBlend mode="normal" in2="BackgroundImageFix" result="effect1_dropShadow_131_235"/>
            <feBlend mode="normal" in="SourceGraphic" in2="effect1_dropShadow_131_235" result="shape"/>
        </filter>
        <linearGradient id="paint0_linear_131_235" x1="276.479" y1="-19.6696" x2="148.508" y2="172.567" gradientUnits="userSpaceOnUse">
            <stop stop-color="#FFE769"/>
            <stop offset="1" stop-color="#FFE176"/>
        </linearGradient>
        <radialGradient id="paint1_radial_131_235" cx="0" cy="0" r="1" gradientUnits="userSpaceOnUse" gradientTransform="translate(229.701 7.98659) rotate(33.6515) scale(196.788)">
            <stop stop-color="#DE5A00"/>
            <stop offset="1" stop-color="#E26800"/>
        </radialGradient>
    </defs>
</svg>