<svg width="584" height="585" viewBox="0 0 584 585" fill="none" xmlns="http://www.w3.org/2000/svg">
    <path fill-rule="evenodd" clip-rule="evenodd"
          d="M584 292.224C584 453.584 453.24 584.39 292 584.39C247.57 584.39 205.522 574.454 167.843 556.718C160.396 553.241 153.149 549.415 146.05 545.342C117.703 528.948 92.3359 507.883 71.0887 483.292C63.2948 474.35 56.0966 464.91 49.494 455.074C40.5087 441.71 32.5658 427.502 25.864 412.648C9.23359 375.934 0 335.197 0 292.274C0 249.301 9.28324 208.464 25.9633 171.701C31.2751 159.927 37.3812 148.551 44.2319 137.671C58.9759 114.023 76.9466 92.7109 97.6477 74.2798L97.6974 74.2301C149.276 28.0281 217.387 0.00878906 292 0.00878906C315.878 0.00878906 339.062 2.89021 361.302 8.30528C392.229 15.8069 421.121 28.2268 447.333 44.7701H447.382C452.496 47.9993 457.46 51.3278 462.325 54.8551C466.396 57.7862 470.417 60.8166 474.289 63.9464C493.451 79.2477 510.578 96.9337 525.322 116.507C556.101 157.294 576.355 206.378 582.213 259.833C583.404 270.465 584 281.245 584 292.224Z"
          fill="url(#paint0_radial_131_757)"/>
    <g opacity="0.5">
        <path opacity="0.5" fill-rule="evenodd" clip-rule="evenodd"
              d="M582.213 259.833C581.22 261.721 580.277 263.609 579.582 265.696C578.49 268.776 577.1 271.26 575.461 274.091C573.575 277.42 572.433 281.295 570.894 284.773C567.518 292.622 564.987 301.216 562.157 309.265C559.029 318.306 556.051 327.298 552.179 336.042C550.441 340.016 547.909 343.543 546.122 347.418C544.385 351.343 542.647 355.069 540.513 358.795C535.201 367.936 530.385 377.276 524.726 386.268C514.599 402.463 502.387 416.871 490.572 431.824C484.615 439.375 477.565 445.933 470.715 452.739C462.97 460.39 456.219 468.935 448.226 476.436C442.021 482.299 435.617 488.161 428.518 492.88C424.497 495.563 420.625 498.494 416.554 501.127C411.391 504.456 405.335 506.393 399.824 509.076C381.506 517.869 361.947 523.384 342.685 529.594C323.821 535.605 305.652 543.852 286.44 548.671C282.468 549.664 278.497 550.062 274.476 550.856C270.157 551.701 265.987 552.943 261.569 553.44C252.732 554.433 244.194 557.414 235.258 557.861C229.053 558.159 223.244 556.967 217.138 556.669C209.295 556.272 201.55 557.166 193.707 557.712C185.069 558.358 176.431 557.861 167.793 556.719C160.347 553.241 153.099 549.416 146 545.342C146.248 545.441 146.546 545.491 146.794 545.59C151.858 547.23 156.574 550.161 161.687 551.353C167.148 552.595 172.807 553.489 178.417 554.433C186.111 555.775 193.061 555.725 200.756 554.582C204.728 553.937 208.699 553.489 212.67 552.645C216.989 551.751 221.308 552.844 225.578 551.85C231.535 550.409 238.187 551.552 244.243 551.353C254.718 551.006 265.044 547.13 275.171 545.094C286.44 542.808 297.113 538.735 308.581 537.344C315.134 536.549 320.247 534.313 326.452 532.425C331.764 530.786 335.189 527.805 339.607 524.477C348.096 518.118 356.685 511.56 366.613 507.437C376.492 503.313 386.917 500.432 397.392 498.345C405.98 496.656 415.412 492.483 422.064 486.621C424.993 483.988 427.773 481.255 430.653 478.573C434.227 475.294 438 472.412 441.177 468.786C444.801 464.662 448.921 460.887 452.496 456.763C456.467 452.143 459.644 447.026 463.566 442.406C469.771 435.053 479.303 431.228 485.409 423.726C486.7 422.186 487.544 420.298 488.884 418.758C490.324 417.169 491.763 416.374 492.607 414.387C493.65 411.952 496.181 406.239 494.792 403.507C492.061 397.943 477.466 412.25 475.183 414.486C471.559 417.864 468.63 421.342 464.261 423.875C461.63 425.366 459.048 427.005 456.268 428.148C451.652 430.036 446.241 430.234 441.376 431.278C427.773 434.209 413.873 435.799 400.122 437.935C381.705 440.766 362.89 444.691 344.621 449.162C327.495 453.335 310.517 458.154 293.39 462.228C284.305 464.414 275.171 466.699 266.037 468.736C254.867 471.22 243.896 474.648 232.726 476.834C214.358 480.411 195.693 484.485 176.927 484.981C162.134 485.379 147.489 486.124 132.745 486.124C112.838 486.124 91.4423 488.161 71.9326 483.441C71.6844 483.392 71.4362 483.292 71.188 483.243C63.394 474.3 56.1958 464.861 49.5933 455.025C56.7915 458.154 64.2379 460.638 71.9326 462.029C77.4926 463.023 83.4498 464.315 88.0666 467.643C91.1444 469.879 94.0237 471.965 97.7469 473.108C110.456 477.182 121.774 476.933 134.532 473.207C139.298 471.767 144.014 470.326 148.73 468.786C152.205 467.643 155.382 465.557 158.857 464.613C168.687 462.029 178.864 460.191 188.792 457.906C193.508 456.813 198.473 455.919 203.089 454.528C208.352 452.888 213.217 450.206 218.23 448.169C227.861 444.194 236.797 440.121 247.073 438.382C253.576 437.289 261.072 436.494 266.98 433.464C268.916 432.52 271.795 431.178 271.497 428.595C271.15 425.415 266.98 426.26 264.696 426.657C258.044 427.8 251.243 428.396 244.641 430.185C232.776 433.364 221.209 434.904 208.947 435.699C190.828 436.892 172.36 437.984 154.191 437.04C139.745 436.295 125.249 435.004 110.803 435.153C96.8534 435.302 83.2512 434.06 69.9965 429.688C55.0043 424.72 39.7639 420.249 25.9136 412.598C9.28316 375.885 0.0495605 335.148 0.0495605 292.224C0.0495605 249.252 9.3328 208.415 26.0128 171.652C24.0768 176.968 22.4385 182.433 20.2046 187.599C15.836 197.833 13.1057 208.167 13.1057 219.245C13.1553 223.418 13.6021 227.939 13.0064 232.062C12.2617 237.478 11.8646 240.955 13.4035 246.42C14.5453 250.394 14.9921 254.269 16.68 258.144C17.2757 259.585 18.0203 260.231 19.0132 261.373C20.006 262.516 20.4528 263.808 21.2968 265.199C23.6796 269.074 27.0553 274.24 31.1261 276.476C33.6579 277.817 36.8847 278.91 39.615 279.705C43.0404 280.699 44.3807 281.096 47.8061 279.854C50.3379 278.96 53.8625 277.768 56.4936 277.619C58.2311 277.569 59.6211 278.414 61.309 278.712C63.394 279.059 65.3797 278.861 67.5144 279.308C76.1026 281.096 84.4923 283.232 93.2791 283.133C100.179 283.034 106.981 284.226 113.98 284.226C122.42 284.226 130.71 284.474 139.05 283.431C144.66 282.686 150.716 281.295 156.375 280.947C162.134 280.599 167.992 281.096 173.75 281.047C193.707 280.748 214.358 275.93 231.684 265.845C241.066 260.33 250.647 256.207 261.172 253.226C274.476 249.401 288.128 245.625 301.73 243.042C314.339 240.657 326.75 236.484 338.416 231.119C343.728 228.734 348.394 225.753 353.259 222.474C357.578 219.543 362.245 217.308 366.415 214.277C378.478 205.385 388.953 194.952 399.527 184.32C405.533 178.309 411.639 172.248 417.895 166.535C423.107 161.816 428.568 159.679 435.27 158.09C445.893 155.556 451.801 143.583 457.51 135.038C464.708 124.258 470.715 111.888 471.062 98.5734C471.211 92.9596 470.814 87.7432 469.821 82.2288C469.374 79.7945 468.828 77.4596 467.786 75.224C467.14 73.7833 466.048 72.4419 465.701 70.9019C465.403 69.6102 465.353 68.2689 465.105 67.1262C464.857 66.1326 464.261 64.7913 464.013 63.8474C463.417 61.3634 462.176 57.9355 462.325 55.1534V55.0044C466.396 57.9355 470.417 60.9659 474.289 64.0958C474.239 65.2384 474.438 66.381 474.19 67.5237C473.941 68.9147 473.445 70.0573 473.197 71.4483C472.849 73.4852 472.105 74.6278 472.105 76.8634C472.154 79.248 472.055 81.2849 472.601 83.4708C474.041 88.8859 477.516 93.9035 477.516 99.6167C477.466 105.529 475.977 110.944 473.743 116.458C471.658 121.625 469.424 126.394 466.942 131.312C465.204 134.69 463.566 137.522 461.233 140.602C459.148 143.335 456.914 145.968 455.276 149.048C454.035 151.432 452.794 153.867 451.801 156.351C449.914 160.872 446.836 163.207 443.411 166.585C436.362 173.391 427.575 178.856 419.979 185.413C414.171 190.381 407.718 196.591 403.2 202.801C401.066 205.782 390.045 214.377 393.023 218.897C394.364 220.885 398.534 220.239 400.42 220.239C404.59 220.288 409.157 219.146 412.93 217.457C423.603 212.588 434.277 206.825 445.546 203.497C450.609 202.006 456.02 201.162 460.836 199.026C466.594 196.393 472.204 193.163 477.565 189.835C481.835 187.202 484.366 183.774 487.544 180.048C489.331 177.912 491.863 176.719 493.848 174.732C496.181 172.397 497.621 169.715 500.203 167.678C506.458 162.759 512.117 156.549 516.634 149.992C520.804 143.931 522.343 136.429 524.13 129.623C524.627 127.735 525.223 126.195 525.322 124.208C525.421 121.873 525.322 119.489 525.322 117.154V116.756C556.051 157.295 576.355 206.428 582.213 259.833Z"
              fill="#C4B0B8"/>
        <path opacity="0.5" fill-rule="evenodd" clip-rule="evenodd"
              d="M449.12 69.4114C448.028 76.0188 447.382 82.5766 446.092 89.1839C444.801 95.7416 444.454 103.144 441.773 109.254C437.255 119.787 435.865 131.461 428.717 140.751C425.688 144.726 423.355 148.949 419.483 152.277C417.994 153.519 416.455 153.817 414.866 154.811C413.377 155.804 411.788 157.295 410.299 158.388C402.654 163.952 394.513 169.715 387.811 176.421C380.563 183.575 373.613 190.58 365.025 196.194C362.443 197.883 359.763 199.075 357.082 200.516C354.848 201.708 353.011 203.298 350.628 204.192C347.6 205.335 345.664 205.931 342.983 207.819C340.898 209.26 338.565 210.75 336.232 211.644C332.111 213.284 328.09 215.221 323.97 216.811C322.084 217.606 320.098 218.003 318.162 218.699C312.701 220.785 308.73 220.586 301.73 221.133C299.496 220.139 301.382 220.04 303.17 219.245C304.56 218.55 304.957 218.202 306.099 217.01C307.538 215.569 309.425 213.631 311.063 212.439C314.141 210.203 318.211 209.111 321.537 207.074C325.807 204.391 329.977 201.162 334.147 198.28C337.622 195.896 340.253 192.07 343.132 189.09C346.21 185.811 349.983 182.88 353.359 179.849C357.33 176.322 360.706 172.298 364.677 168.82C369.046 165.144 372.074 161.07 374.705 156.202C375.797 154.115 377.634 152.625 378.776 150.538C379.868 148.551 381.159 146.713 382.052 144.626C383.045 142.192 384.336 139.907 385.378 137.522C386.57 134.79 386.52 131.561 387.116 128.63C388.903 120.035 390.641 111.341 392.229 102.697C393.569 95.4932 393.669 87.8426 393.867 80.49C394.116 73.4355 396.101 66.5797 396.151 59.4258C396.151 56.6438 396.3 54.2592 395.108 51.7255C393.619 48.397 391.931 45.4659 390.74 41.9883C387.066 31.3569 380.265 21.6694 371.23 15.0123C369.84 14.0187 365.521 11.3857 361.202 8.25586C392.13 15.7575 421.022 28.1774 447.234 44.7207H447.283C449.616 52.7688 450.46 61.413 449.12 69.4114Z"
              fill="#C4B0B8"/>
        <path opacity="0.5" fill-rule="evenodd" clip-rule="evenodd"
              d="M364.479 69.9082C363.833 73.5845 361.599 76.4163 360.557 79.9435C359.365 83.9676 358.472 87.9916 357.876 92.1647C357.032 98.4243 357.578 104.684 356.834 110.993C355.394 122.817 351.522 134.541 346.26 145.223C340.998 155.904 332.062 164.697 322.282 171.304C312.155 178.21 300.886 183.525 289.816 188.642C283.511 191.524 276.859 192.716 270.405 195.2C264.994 197.237 259.682 199.522 254.321 201.659C249.009 203.745 244.094 207.372 238.783 209.11C235.457 210.203 232.23 211.296 228.904 212.489C223.244 214.526 218.082 217.506 212.522 219.891C204.728 223.269 196.636 225.902 188.296 227.84C180.105 229.777 172.162 228.535 163.921 227.492C157.07 226.647 150.021 226.051 143.27 224.461C130.76 221.481 117.306 222.325 104.548 222.325C94.8676 222.325 83.698 223.269 75.1594 218.003C72.7269 216.513 69.9965 214.923 68.6065 212.34C66.9186 209.16 66.7201 205.136 65.9754 201.659C64.4861 194.554 57.7347 189.735 53.1179 184.569C47.1111 177.763 44.8275 169.168 43.6361 160.424C42.6432 153.569 42.4943 144.726 44.1325 137.671C58.8765 114.024 76.8472 92.7112 97.5484 74.28C92.6337 83.5701 88.9601 93.4067 84.6412 102.995C78.138 117.352 72.429 133.001 73.0247 149.048C73.2233 155.307 73.7694 162.362 77.0955 167.827C79.6769 172.049 83.9462 175.08 88.0666 177.564C94.818 181.588 101.569 186.059 108.867 188.891C117.058 192.021 125.299 195.051 133.44 198.181C138.206 199.969 142.823 202.056 147.936 202.702C154.092 203.447 160.843 203.05 166.949 202.851C189.438 202.255 210.139 191.723 231.287 185.364C238.088 183.277 245.137 182.333 251.839 180.098C256.058 178.657 259.633 176.769 263.505 174.782C272.887 169.913 283.163 166.287 292 160.226C300.737 154.165 308.829 146.812 315.63 138.665C320.892 132.405 323.225 126.096 325.807 118.396C330.87 103.194 332.806 88.5381 334.196 72.6406C334.792 65.8842 337.125 59.873 338.714 53.3649C339.756 49.0428 339.161 44.0252 335.686 40.8953C328.736 34.7351 318.46 30.9097 309.574 28.7735C304.162 27.4819 299 25.7431 293.44 25.7431C287.929 25.7928 282.468 25.7431 277.008 25.7927C271.746 25.8424 266.583 24.6501 261.271 24.6501C255.066 24.6501 249.257 26.3889 243.102 26.8857C236.698 27.3825 230.194 28.1277 223.89 29.2703C216.344 30.6117 209.096 33.5924 201.799 35.828C187.601 40.1502 173.105 47.1053 161.489 56.1967C158.46 58.5316 155.234 60.3698 152.056 62.4066C149.326 64.2448 148.333 66.381 146.546 69.1134C142.723 75.0252 140.638 80.0429 138.802 86.9483C137.61 91.6182 137.759 96.0894 137.809 100.908C137.908 107.069 136.965 113.726 135.972 119.787C134.532 128.58 126.043 141.596 135.327 148.601C137.958 150.588 141.085 151.134 144.312 150.687C148.879 150.091 153.943 148.65 158.311 147.408C171.169 143.782 184.622 139.509 197.926 137.82C201.948 137.323 205.77 137.622 209.791 136.578C212.273 135.883 214.656 135.088 217.188 134.591C223.046 133.498 228.854 129.722 233.471 125.897C235.556 124.158 237.293 121.972 239.428 120.234C242.357 117.849 245.882 116.259 248.662 113.676C252.633 110 256.456 105.976 260.228 102.051C267.923 93.9532 273.483 83.8682 279.986 74.9259C284.107 69.3121 288.723 63.1518 289.816 56.147C290.66 50.7319 284.057 47.8505 280.036 46.1117C276.114 44.4226 270.455 43.3793 266.136 44.1742C259.583 45.3168 253.527 49.2415 247.47 51.8745C234.017 57.7864 219.025 59.2271 207.359 68.6662C203.089 72.0445 203.338 75.3233 201.997 80.0429C201.352 82.1791 199.763 84.514 198.671 86.6006C196.934 89.8794 196.685 90.6743 197.579 94.1519C198.423 97.4804 199.316 102.2 203.189 103.69C206.564 105.032 212.025 103.839 214.954 102.001C216.692 100.859 218.23 99.4676 220.315 98.7224C221.557 98.2256 224.634 96.8346 225.826 97.2817C227.96 98.0766 226.372 99.4179 225.478 100.61C224.634 101.852 224.088 102.597 223.542 103.939C223.095 105.032 223.046 106.323 222.252 107.267C218.826 111.192 211.975 113.179 207.21 114.819C203.04 116.259 199.912 117.998 195.345 118.048C189.189 118.097 191.671 113.527 190.778 109.105C189.586 103.392 182.984 101.256 182.289 95.2945C181.594 89.5814 183.381 82.7752 185.814 77.6086C186.856 75.3233 188.246 73.4355 189.636 71.3986C191.92 67.921 195.246 65.8345 198.721 63.5492C208.947 56.7928 221.705 53.5636 233.272 49.6886C244.889 45.7143 257.498 45.0684 268.966 40.9947C276.76 38.2127 285 37.3184 293.042 35.828C300.489 34.4867 306.992 37.4178 310.12 44.2239C313.396 51.3777 317.268 59.1774 314.985 67.1262C311.907 78.1054 308.233 88.9852 302.475 98.8714C295.376 111.093 286.738 122.618 273.93 129.325C264.845 134.094 255.115 136.777 245.584 140.354C238.137 143.136 231.038 145.372 223.294 146.564C211.38 148.352 200.508 155.407 188.842 158.338C172.807 162.362 156.574 165.492 140.241 167.777C134.036 168.622 128.923 169.218 122.817 168.274C120.086 167.876 117.554 168.125 114.923 166.982C113.087 166.187 111.2 165.293 109.363 164.548C103.009 161.815 96.8534 157.245 97.598 149.545C98.293 142.291 100.924 134.989 102.264 127.835C103.208 123.115 103.307 118.445 104.449 113.676C105.293 110.049 106.137 106.373 107.129 102.796C107.924 99.9644 109.165 96.3378 110.853 93.9532C114.228 89.2336 116.81 83.6695 120.434 79.1486C121.923 77.3105 123.412 75.8698 124.554 73.8329C125.696 71.7961 126.043 70.8521 127.682 69.014C129.072 67.4739 130.015 65.5364 131.455 64.046C133.986 61.3633 137.66 59.1774 140.638 57.0412C147.638 52.0733 155.184 47.304 163.077 43.8264C170.772 40.4979 178.814 38.2623 186.707 35.5796C193.806 33.1453 200.359 29.2703 207.408 26.5379C215.153 23.5572 223.89 21.6197 232.13 20.5764C249.158 18.3905 265.937 16.9001 283.064 16.9498C304.361 17.0491 327.991 8.95137 348.245 19.1357C353.805 21.9674 357.032 25.3456 359.564 31.0588C363.188 39.3553 364.826 49.0428 364.727 58.0845C364.677 61.9595 365.124 66.0829 364.479 69.9082Z"
              fill="#C4B0B8"/>
    </g>
    <g opacity="0.63">
        <path opacity="0.63" fill-rule="evenodd" clip-rule="evenodd"
              d="M34.5515 161.666C35.9912 165.59 37.9769 169.018 39.2676 173.042C40.2108 176.073 41.0548 178.457 42.693 181.19C44.2816 183.773 45.2248 186.704 46.7637 189.387C48.3523 192.169 49.9409 195.597 50.7351 198.727C51.3805 201.161 51.4798 203.695 52.1251 206.129C52.9691 209.259 53.813 212.389 54.6569 215.469C55.203 217.456 56.2455 219.195 57.3377 220.934C58.4794 222.772 59.8198 225.653 61.6069 226.895C67.3655 230.969 75.6063 229.23 82.2584 228.535C88.3149 227.889 94.421 227.839 100.477 226.994C103.555 226.547 106.981 226.597 110.059 226.796C112.888 226.945 116.413 227.293 119.193 227.839C121.824 228.336 124.356 228.435 126.987 228.833C130.76 229.429 134.483 230.422 138.305 230.72C142.525 231.068 146.844 231.664 151.113 231.764C157.17 231.863 163.325 231.267 169.382 231.913C174.644 232.459 179.956 233.353 185.268 233.353C192.218 233.403 199.118 231.267 205.572 228.932C216.294 225.007 227.315 221.828 238.088 217.903C242.01 216.462 245.683 214.028 249.307 211.942C252.583 210.004 256.108 208.762 259.285 206.626C264.994 202.8 272.143 200.366 278.795 198.925C285.546 197.435 292.099 195.001 298.801 193.411C303.219 192.368 307.638 190.083 312.105 189.486C311.261 193.014 303.567 194.305 300.836 195.249C294.482 197.534 287.582 198.776 281.426 201.558C277.405 203.347 274.575 206.825 271.398 209.805C268.469 212.538 266.285 215.32 262.959 217.555C259.484 219.89 256.207 221.281 252.037 222.126C243.4 223.865 234.96 226.945 226.372 228.882C217.883 230.77 209.344 232.757 201.451 236.434C199.267 237.427 192.813 240.011 192.515 243.19C192.317 245.724 195.395 244.78 197.182 244.78C201.054 244.78 206.118 243.836 209.742 245.376C212.522 246.568 214.805 247.81 217.833 248.456C223.939 249.797 231.684 248.655 237.393 246.419C245.683 243.19 254.668 241.551 263.356 239.911C269.363 238.769 275.221 237.03 281.227 235.738C285.944 234.744 290.411 234.546 295.177 234.099C301.978 233.453 308.779 232.658 315.531 231.515C320.942 230.621 326.849 230.075 331.764 227.64C335.884 225.603 340.7 224.361 344.324 221.53C345.267 220.785 350.728 216.065 352.018 217.158C354.699 219.443 339.558 228.038 338.515 228.783C333.601 232.111 328.537 234.198 323.027 236.434C316.126 239.265 309.077 240.507 301.929 242.296C293.787 244.333 285.596 246.022 277.455 248.108C269.264 250.195 260.824 251.238 252.782 253.97C248.711 255.361 244.641 256.703 240.818 258.64C237.293 260.429 233.57 261.671 230.095 263.509C222.599 267.533 215.55 273.147 207.458 275.78C200.409 278.065 193.012 280.003 185.615 280.599C175.885 281.394 166.105 280.003 156.425 279.009C146.596 277.966 136.568 277.171 126.689 277.37C117.505 277.519 108.321 279.456 99.137 279.903C92.8324 280.201 87.7192 277.966 81.9109 275.78C75.3581 273.345 69.7484 270.216 63.7912 266.589C58.6284 263.459 52.7209 261.671 46.6644 261.919C45.2248 261.969 44.2319 262.515 42.8419 262.764C41.2533 263.062 40.1115 262.267 38.7215 261.621C33.3105 259.087 27.8994 254.914 25.2683 249.301C22.4386 243.289 21.1479 236.881 20.2047 230.373C19.6586 226.696 20.1054 222.821 20.0558 219.095C20.0061 214.127 19.1622 209.209 19.2118 204.192C19.2615 196.292 18.3183 187.897 20.8004 180.246C23.1336 173.042 27.949 166.336 32.3176 160.225C34.7997 156.797 36.8351 153.071 39.4165 149.743C40.3101 151.531 38.1755 155.009 37.7287 156.897C36.9344 159.43 35.9415 164.348 34.5515 161.666Z"
              fill="#C4B0B8"/>
        <path opacity="0.63" fill-rule="evenodd" clip-rule="evenodd"
              d="M405.682 204.838C403.349 207.868 399.13 211.693 398.534 215.668C397.938 219.443 402.207 218.947 404.987 218.499C411.044 217.556 417.299 217.009 423.008 214.624C426.384 213.233 429.561 211.296 432.936 209.855C435.716 208.663 438.745 208.265 441.525 207.073C448.177 204.241 455.325 202.801 461.928 199.721C467.835 196.988 472.849 192.765 477.466 188.294C480.743 185.164 483.821 182.78 486.054 178.756C487.693 175.775 489.629 172.894 491.019 169.764C492.707 165.938 493.749 160.722 494.246 156.599C494.494 154.363 494.643 151.631 494.345 149.345C493.6 143.831 488.04 143.334 483.374 143.98C477.615 144.775 472.998 148.153 468.729 151.829C464.609 155.357 461.183 159.579 456.567 162.411C451.453 165.541 446.439 168.721 441.475 172.099C438.794 173.937 436.362 175.576 434.078 177.911C432.192 179.849 430.405 181.886 428.369 183.624C426.334 185.413 424.001 186.854 421.717 188.294C419.831 189.487 418.093 191.126 416.207 192.12C413.675 193.461 411.391 194.951 409.356 196.988C408.016 198.33 406.526 199.621 405.633 201.36C404.143 204.341 404.441 207.967 405.682 204.838Z"
              fill="#C4B0B8"/>
        <path opacity="0.63" fill-rule="evenodd" clip-rule="evenodd"
              d="M472.403 125.052C473.396 121.972 474.041 120.779 476.92 119.289C478.707 118.345 479.998 118.097 481.19 120.084C483.523 123.909 481.835 128.529 480.346 132.206C479.253 134.888 474.934 137.571 472.998 134.193C471.658 131.908 471.708 125.151 474.885 124.207L472.403 125.052Z"
              fill="#C4B0B8"/>
        <path opacity="0.63" fill-rule="evenodd" clip-rule="evenodd"
              d="M228.258 238.272C229.748 235.49 230.095 235.192 232.677 234.198C234.762 233.403 235.804 232.807 238.038 232.559C240.322 232.36 242.853 231.068 245.187 231.913C248.761 233.205 248.066 236.334 245.683 238.57C244.492 239.663 243.499 240.408 242.109 240.706C240.222 241.104 238.336 241.551 236.4 241.501C233.123 241.452 230.343 241.65 227.514 239.713C227.365 239.067 227.613 238.62 228.258 238.272Z"
              fill="#C4B0B8"/>
        <path opacity="0.63" fill-rule="evenodd" clip-rule="evenodd"
              d="M91.492 444.293C100.676 447.721 110.753 449.013 120.533 449.211C132.199 449.46 143.965 449.261 155.581 448.168C163.325 447.423 171.02 447.621 178.764 446.529C182.488 445.982 186.062 446.181 189.785 445.982C191.92 445.883 194.203 444.641 196.288 445.287C204.43 447.771 189.984 452.44 188.345 453.285C182.488 456.216 175.885 457.21 169.63 459.048C167.247 459.743 164.765 460.439 162.432 461.234C160.148 462.029 158.113 463.221 155.73 463.718C146.149 465.804 136.568 466.698 127.036 468.785C123.512 469.53 119.64 470.126 116.016 469.431C112.193 468.686 108.668 466.45 105.243 464.711C101.073 462.625 96.8038 460.836 93.0309 458.054C91.3927 456.862 88.8113 455.073 87.4709 453.533C86.4284 452.391 86.478 451.646 85.932 450.255C84.9391 447.771 84.9887 446.777 87.1234 444.988C88.7616 443.597 90.7473 443.101 92.882 443.697C93.0309 443.846 93.0806 444.094 91.492 444.293Z"
              fill="#C4B0B8"/>
        <path opacity="0.63" fill-rule="evenodd" clip-rule="evenodd"
              d="M339.211 540.424C334.346 541.964 329.778 543.702 325.509 546.683C323.672 547.975 321.438 550.21 324.119 551.85C327.793 554.085 333.7 552.893 337.672 552.545C344.473 551.949 351.175 550.707 357.926 549.813C362.493 549.217 367.011 548.72 371.578 547.826C377.485 546.633 383.244 544.696 389.003 542.808C393.272 541.367 397.243 539.629 401.066 537.194C404.938 534.71 409.058 532.624 412.583 529.643C417.249 525.718 423.405 522.638 425.242 516.379C426.731 511.162 415.462 513.05 413.278 513.348C404.988 514.441 396.499 516.826 388.655 519.608C385.23 520.8 381.506 521.744 378.18 523.234C373.712 525.222 369.344 527.606 364.777 529.395C362.592 530.239 360.656 531.63 358.472 532.425C356.536 533.121 354.6 533.767 352.664 534.561C350.529 535.456 348.345 536.4 346.161 537.145C341.097 538.685 336.083 540.026 339.211 540.424Z"
              fill="#C4B0B8"/>
        <path opacity="0.63" fill-rule="evenodd" clip-rule="evenodd"
              d="M429.263 502.418C430.107 499.587 431.943 498.295 434.028 496.258C435.667 494.668 437.206 492.979 439.588 492.631C441.326 492.383 444.056 494.42 443.312 496.407C442.964 497.45 441.624 498.543 440.929 499.487C440.035 500.68 439.191 501.723 437.851 502.418C435.17 503.81 432.589 503.561 429.809 502.915L429.263 502.418Z"
              fill="#C4B0B8"/>
        <path opacity="0.63" fill-rule="evenodd" clip-rule="evenodd"
              d="M458.552 434.01C456.517 434.954 454.531 436.394 452.347 436.941C450.758 437.388 449.021 437.537 447.383 437.785C442.418 438.58 437.255 438.928 432.241 439.425C425.838 440.071 419.434 440.965 413.03 441.462C401.711 442.306 389.797 443.3 378.925 446.777C369.691 449.758 361.103 453.385 352.564 458.005C345.168 461.979 337.92 466.302 331.367 471.568C329.183 473.356 327.197 475.443 325.261 477.479C323.97 478.821 322.58 480.261 321.835 482C320.644 484.683 321.736 486.521 324.069 488.011C327.743 490.346 332.161 490.545 336.331 491.141C342.537 491.986 348.692 492.781 354.898 493.725C361.202 494.718 367.805 495.563 374.209 495.861C380.861 496.159 387.761 496.01 394.066 493.625C398.633 491.886 402.803 490.197 407.072 487.763C411.143 485.428 415.164 483.143 419.036 480.46C421.767 478.572 424.696 477.032 427.178 474.747C428.22 473.753 429.313 472.859 430.454 471.915C432.192 470.475 433.433 468.587 435.17 467.146C438.993 464.016 442.666 459.992 445.645 456.068C448.028 452.938 450.907 450.255 453.24 447.125C454.63 445.287 456.07 444.293 456.914 442.008C457.162 440.965 458.503 436.643 458.552 434.01Z"
              fill="#C4B0B8"/>
        <path opacity="0.63" fill-rule="evenodd" clip-rule="evenodd"
              d="M472.155 424.769C473.445 422.334 474.438 421.589 476.325 419.751C477.715 418.459 479.502 416.174 481.388 415.578C482.431 415.23 483.572 415.28 484.218 416.025C484.913 416.77 485.211 418.012 485.062 418.907C484.665 421.192 482.431 422.98 480.544 423.924C478.161 425.166 476.821 424.52 474.289 424.173L472.155 424.769Z"
              fill="#C4B0B8"/>
        <path opacity="0.63" fill-rule="evenodd" clip-rule="evenodd"
              d="M558.384 343.841C557.193 344.884 555.902 345.828 555.009 347.12C553.47 349.306 552.229 351.542 550.541 353.628C548.704 355.814 547.264 358.248 545.874 360.683C544.087 363.763 542.002 366.644 540.364 369.824C536.79 376.63 533.96 383.784 530.733 390.739C529.145 394.216 527.705 397.793 526.166 401.321C524.478 405.096 522.989 408.921 522.344 412.995C521.897 415.926 521.152 420.894 525.074 421.441C529.939 422.087 534.854 417.913 538.378 415.131C547.711 407.779 555.604 398.588 561.959 388.553C568.263 378.567 574.37 366.545 572.831 354.373C572.136 348.909 572.533 343.245 573.228 337.83C573.972 332.017 575.76 326.205 575.859 320.293C575.908 316.12 576.603 311.997 575.71 307.873C575.462 306.731 575.065 305.041 573.923 304.396C572.831 303.75 572.086 304.445 571.093 305.141C568.115 307.277 565.831 310.059 564.242 313.338C562.306 317.312 562.207 321.684 560.569 325.758C560.023 327.149 559.675 328.739 558.98 330.08C558.384 331.223 557.64 332.316 557.044 333.408C555.952 335.445 555.604 337.631 555.009 339.867C554.661 341.258 554.413 342.5 554.066 343.891C553.768 344.984 553.321 346.126 553.073 347.17C552.924 348.163 553.271 349.207 558.384 343.841Z"
              fill="#C4B0B8"/>
        <path opacity="0.63" fill-rule="evenodd" clip-rule="evenodd"
              d="M513.358 416.075C512.365 417.019 506.458 422.732 508.741 424.223C509.387 424.62 511.124 424.123 511.72 423.925C513.06 423.428 513.904 422.484 514.996 421.639C516.486 420.497 516.585 419.602 516.635 417.715C516.635 415.131 514.996 415.231 512.862 416.075H513.358Z"
              fill="#C4B0B8"/>
        <path opacity="0.63" fill-rule="evenodd" clip-rule="evenodd"
              d="M527.457 429.638C528.698 427.949 529.095 427.204 530.832 426.558C532.272 426.011 533.364 424.968 534.903 424.72C536.79 424.422 537.634 425.117 537.782 427.005C538.031 430.234 534.059 434.407 532.272 436.742C530.038 439.624 527.606 442.555 524.726 444.79C520.656 447.97 517.677 442.853 519.216 439.027C520.159 436.692 520.507 434.01 521.946 431.923C524.23 428.694 527.556 428.694 531.18 428.048L527.457 429.638Z"
              fill="#C4B0B8"/>
        <path opacity="0.63" fill-rule="evenodd" clip-rule="evenodd"
              d="M212.77 77.8069C208.848 80.3406 207.259 82.2781 205.869 86.7989C205.323 88.6371 204.579 92.5618 206.118 94.2012C208.749 96.9336 215.848 93.9528 218.429 92.9592C223.443 91.0217 228.507 88.19 233.719 86.948C243.548 84.6627 254.371 83.7685 262.81 77.7076C267.576 74.2797 271.696 69.5601 275.022 64.7412C277.157 61.6114 279.986 59.0777 280.235 55.1034C280.781 46.9559 269.462 46.4591 264.101 47.7011C252.732 50.3341 241.563 53.8117 230.989 58.9287C224.783 61.9095 217.039 65.7348 212.671 71.3486C211.628 72.6899 210.586 74.8262 210.039 76.4159C209.593 77.6579 208.401 81.3342 212.77 77.8069Z"
              fill="#C4B0B8"/>
        <path opacity="0.63" fill-rule="evenodd" clip-rule="evenodd"
              d="M233.918 100.61C232.578 97.5794 231.932 97.331 234.166 95.4929C235.705 94.2012 238.435 92.6611 240.223 91.7669C242.308 90.7236 245.981 89.6307 248.364 89.9288C254.023 90.6243 251.442 97.0329 249.704 100.113C248.612 102.051 247.768 103.839 245.931 104.882C243.747 106.124 242.308 106.77 239.875 105.926C238.187 105.379 236.599 104.187 235.308 103.044C234.365 102.2 232.131 100.61 232.329 99.0698C232.578 99.0201 232.826 98.9704 233.024 98.9208L233.918 100.61Z"
              fill="#C4B0B8"/>
        <path opacity="0.63" fill-rule="evenodd" clip-rule="evenodd"
              d="M194.054 170.658C194.203 167.975 193.955 167.379 195.643 165.64C198.175 163.107 201.799 161.169 204.777 159.232C211.529 154.86 218.727 151.73 226.322 149.196C233.123 146.961 239.925 145.52 246.974 144.427C252.186 143.632 257.151 141.893 262.413 141.148C270.505 140.006 280.483 136.131 286.936 143.781C292.149 149.991 282.518 158.238 278.001 161.616C273.98 164.647 269.81 166.137 264.945 167.379C259.335 168.77 253.825 170.459 248.215 171.85C237.79 174.434 228.11 179.401 218.131 183.277C211.281 185.959 206.366 185.711 200.21 181.587C196.735 179.352 191.026 173.49 194.054 170.658Z"
              fill="#C4B0B8"/>
        <path opacity="0.63" fill-rule="evenodd" clip-rule="evenodd"
              d="M288.475 124.207C287.135 126.691 283.759 131.262 288.078 132.852C290.56 133.746 292.298 131.759 294.184 130.318C296.22 128.778 298.602 127.288 299.943 125.002C301.432 122.518 300.638 120.183 298.056 119.041C292.943 116.756 290.511 121.674 287.631 125.002L288.475 124.207Z"
              fill="#C4B0B8"/>
        <path opacity="0.63" fill-rule="evenodd" clip-rule="evenodd"
              d="M368.202 74.5282C363.734 79.1981 361.004 84.6628 361.699 91.3696C362.394 97.9273 366.812 99.2686 372.273 96.5362C373.712 95.8407 375.698 95.0955 376.989 94.1019C378.528 92.9096 379.421 90.7237 380.563 89.1837C383.144 85.7558 384.534 82.1292 384.435 77.7574C384.385 73.634 384.932 69.2621 383.839 65.2878C383.244 63.1019 382.4 60.1708 380.414 58.7798C378.13 57.2397 376.393 59.2766 374.705 60.6179C373.017 61.9593 371.727 62.6548 370.634 64.5426C368.649 67.8214 367.606 71.6468 366.564 75.3231L368.202 74.5282Z"
              fill="#C4B0B8"/>
        <path opacity="0.63" fill-rule="evenodd" clip-rule="evenodd"
              d="M276.263 214.624C276.462 211.544 276.363 211.345 278.597 209.607C280.235 208.315 281.923 206.874 283.759 205.831C286.639 204.142 291.553 202.651 294.979 202.403C298.007 202.204 301.234 202.304 303.964 203.844C305.702 204.837 306.049 206.874 305.602 208.911C304.957 211.842 302.078 213.73 299.893 215.469C297.709 217.208 294.681 219.493 291.95 220.188C288.475 221.033 285.199 221.48 281.724 220.586C279.689 220.039 275.37 219.195 275.419 216.313L276.263 214.624Z"
              fill="#C4B0B8"/>
        <path opacity="0.63" fill-rule="evenodd" clip-rule="evenodd"
              d="M316.127 186.108C318.112 183.276 319.403 180.792 322.431 178.904C323.772 178.109 327.098 175.625 328.786 175.625C329.927 175.625 331.417 177.166 331.566 178.358C331.764 179.799 330.325 181.686 329.58 182.829C327.892 185.313 325.261 187.648 322.63 188.741C321.24 189.337 320.048 189.635 318.559 189.188C317.12 188.741 316.524 187.35 315.283 186.903L316.127 186.108Z"
              fill="#C4B0B8"/>
        <path opacity="0.63" fill-rule="evenodd" clip-rule="evenodd"
              d="M157.418 65.5858C153.446 69.5602 150.17 73.7333 148.879 79.4464C148.482 81.2349 148.482 82.8743 150.071 84.2157C152.205 86.1035 154.886 85.0602 157.368 84.2157C164.318 81.8311 170.921 77.7076 176.977 73.6836C182.488 70.057 189.934 69.0137 194.154 63.7477C196.437 60.8663 198.87 57.6868 196.636 53.9111C194.7 50.6819 189.835 49.2909 186.409 49.2412C181.544 49.1419 176.332 50.7316 172.112 53.0666C164.219 57.4384 159.155 63.3502 157.418 65.5858Z"
              fill="#C4B0B8"/>
        <path opacity="0.63" fill-rule="evenodd" clip-rule="evenodd"
              d="M134.632 48.4959C142.326 47.0552 148.979 45.4157 155.73 41.2923C157.07 40.4478 158.411 40.1 159.751 39.3548C160.943 38.6593 161.29 37.7651 162.233 36.8709C161.588 33.741 153.149 35.6289 151.212 36.4237C148.631 37.5167 146 39.0568 143.518 40.2987C142.227 40.9446 140.787 41.5904 139.596 42.435C137.064 44.2731 135.575 47.552 133.887 50.0856L134.632 48.4959Z"
              fill="#C4B0B8"/>
    </g>
    <g opacity="0.47">
        <path opacity="0.47" fill-rule="evenodd" clip-rule="evenodd"
              d="M373.911 220.04C371.727 221.282 369.393 222.871 367.06 223.815C363.188 225.405 359.663 227.641 355.841 229.28C351.323 231.218 346.458 232.509 341.842 234.099C335.239 236.384 328.984 238.968 323.027 242.644C317.02 246.32 311.261 251.636 308.184 258.045C306.396 261.721 305.701 266.689 307.836 270.415C309.077 272.601 311.063 274.886 313.346 275.929C317.268 277.718 321.14 276.575 325.112 275.631C330.076 274.488 335.04 272.849 339.608 270.514C342.04 269.222 344.373 267.732 346.806 266.44C349.387 265.099 352.217 264.105 354.898 263.012C356.983 262.168 359.117 261.423 361.252 260.727C364.131 259.833 366.117 258.541 368.549 256.803C372.769 253.772 376.741 249.549 379.272 244.979C382.598 238.968 384.386 232.807 383.194 226.101C382.4 220.934 378.528 218.351 373.911 220.04Z"
              fill="#C4B0B8"/>
        <path opacity="0.47" fill-rule="evenodd" clip-rule="evenodd"
              d="M300.141 257.548C298.652 255.561 297.659 255.76 295.276 255.909C293.489 256.008 291.553 256.505 289.766 256.853C280.731 258.74 271.547 259.734 262.562 262.019C257.548 263.311 252.832 264.652 248.265 267.087C243.697 269.521 239.031 271.707 234.613 274.34C224.287 280.5 213.614 285.269 201.799 287.753C194.551 289.293 187.253 290.734 180.005 292.125C175.637 292.92 171.169 293.615 166.8 294.559C162.382 295.503 158.063 296.745 153.695 297.689C145.752 299.428 138.156 301.316 130.561 304.197C122.866 307.079 115.072 309.811 109.016 315.623C105.938 318.604 101.967 322.976 102.016 327.547C102.016 330.776 103.406 333.806 105.045 336.489C111.051 346.474 122.618 352.386 132.646 357.454C146.546 364.508 163.127 365.452 178.318 367.191C198.175 369.476 218.28 368.184 237.84 364.21C246.626 362.422 255.512 360.683 264.299 358.994C274.923 357.007 285.695 355.566 296.319 353.33C305.056 351.492 313.843 349.455 322.431 346.922C327.098 345.58 331.863 344.04 336.282 342.053C340.253 340.265 343.927 337.979 347.65 335.744C350.628 333.955 353.905 332.117 356.635 329.981C359.068 328.043 361.103 325.46 362.989 323.026C366.117 319.002 368.152 314.531 370.634 310.159C372.322 307.178 374.06 304.048 376.046 301.266C378.081 298.484 380.464 295.851 382.698 293.218C387.315 287.654 393.024 282.835 397.342 277.022C399.874 273.644 402.307 269.421 402.704 265.149C402.952 262.268 402.952 259.237 399.924 257.945C397.045 256.703 393.669 256.604 390.591 256.952C387.464 257.349 384.336 258.641 381.357 259.585C376.046 261.224 370.833 263.062 365.918 265.695C353.508 272.353 341.345 280.599 327.395 283.58C321.637 284.822 315.878 285.468 310.368 283.183C306.297 281.494 302.227 279.606 298.603 277.022C293.787 273.545 295.227 269.421 297.361 264.652C298.205 262.615 300.836 258.045 300.141 257.548Z"
              fill="#C4B0B8"/>
        <path opacity="0.47" fill-rule="evenodd" clip-rule="evenodd"
              d="M567.618 192.915C567.618 198.032 567.121 203 566.377 208.067C566.079 210.302 565.682 212.538 565.334 214.774C564.888 217.754 563.448 220.437 562.753 223.368C561.462 228.684 558.98 233.304 556.746 238.222C554.463 243.24 553.023 248.506 550.789 253.573C544.584 267.881 540.86 283.083 534.804 297.44C531.776 304.545 529.045 311.897 525.769 318.902C522.79 325.162 519.216 331.173 516.088 337.383C514.947 339.668 511.72 343.941 514.152 346.375C516.088 348.312 519.613 346.524 521.649 345.431C529.84 341.059 533.315 330.676 538.329 323.423C540.86 319.747 544.782 316.965 547.463 313.338C550.938 308.569 555.058 302.905 557.342 297.54C562.107 286.412 564.987 274.886 569.107 263.559C572.483 254.219 573.029 245.128 573.029 235.291C573.029 231.168 573.476 227.044 572.235 223.07C571.093 219.344 570.199 213.234 567.618 192.915Z"
              fill="#C4B0B8"/>
        <path opacity="0.47" fill-rule="evenodd" clip-rule="evenodd"
              d="M552.427 207.023C549.002 210.352 541.953 218.499 545.279 223.964C547.115 226.945 552.526 225.653 554.413 223.07C556.051 220.884 555.654 217.208 555.704 214.624C555.704 213.233 556.15 211.097 555.604 209.805C555.108 208.613 553.817 208.365 553.519 207.023H552.427Z"
              fill="#C4B0B8"/>
        <path opacity="0.47" fill-rule="evenodd" clip-rule="evenodd"
              d="M486.253 364.508C481.487 367.091 477.913 370.072 473.544 373.202C469.722 375.934 465.552 377.921 461.332 379.958C450.461 385.224 439.291 388.503 427.426 390.59C412.335 393.223 396.945 395.21 382.35 400.029C371.28 403.705 360.259 407.58 349.238 411.505C338.863 415.181 327.098 417.814 317.864 424.024C315.58 425.564 312.552 427.899 313.346 430.979C314.637 435.848 324.715 436.096 328.289 436.245C339.111 436.692 350.033 436.195 360.855 436.195C366.018 436.195 371.23 435.897 376.393 436.444C383.145 437.139 388.953 437.09 395.754 436.494C403.846 435.748 412.335 435.947 420.129 433.413C435.22 428.595 450.063 422.931 464.807 417.119C478.012 411.902 497.175 401.122 495.983 384.628C495.487 377.524 491.068 367.588 486.253 364.508Z"
              fill="#C4B0B8"/>
        <path opacity="0.47" fill-rule="evenodd" clip-rule="evenodd"
              d="M507.947 377.524C505.762 372.954 505.167 371.811 507.55 367.638C509.039 365.005 513.556 361.08 516.932 361.08C523.634 361.08 523.882 368.78 522.343 373.45C521.053 377.524 519.265 383.784 514.45 384.032C512.415 384.131 511.72 383.883 510.181 382.691C508.592 381.498 506.408 377.772 504.72 377.474H507.947V377.524Z"
              fill="#C4B0B8"/>
        <path opacity="0.47" fill-rule="evenodd" clip-rule="evenodd"
              d="M34.7997 390.54C33.6082 395.657 32.8636 400.327 35.3457 405.245C38.8207 412.101 46.3665 416.672 53.4654 418.907C57.9333 420.298 62.4012 420.795 67.0676 420.994C72.1808 421.242 77.2941 422.037 82.4569 422.136C90.3502 422.285 97.5484 422.782 105.392 423.974C109.612 424.62 113.682 425.813 117.902 426.359C121.278 426.756 124.306 427.204 127.632 427.949C134.483 429.539 141.284 429.588 148.234 430.582C155.382 431.575 163.127 431.128 170.275 430.035C176.58 429.091 183.282 428.247 186.31 422.136C188.693 417.317 186.955 414.734 182.736 411.455C179.013 408.524 172.708 407.282 168.339 405.841C161.637 403.606 154.936 401.569 148.035 399.88C138.405 397.545 129.171 394.117 119.64 391.285C100.08 385.522 81.3648 377.474 60.9119 375.636C52.4726 374.841 42.4447 374.742 34.6507 378.567C31.97 379.859 30.3814 382.244 29.2397 384.877C27.4525 388.95 29.4382 391.385 34.7997 390.54Z"
              fill="#C4B0B8"/>
        <path opacity="0.47" fill-rule="evenodd" clip-rule="evenodd"
              d="M33.7074 354.721C34.8492 358.298 34.601 359.391 37.9271 360.434C40.1113 361.08 42.3949 361.726 44.6289 361.08C47.4089 360.285 50.7349 358.199 51.1321 355.268C51.5292 351.989 48.6499 349.604 46.0189 348.163C40.6574 345.282 36.3881 345.53 33.7074 351.492V354.721Z"
              fill="#C4B0B8"/>
        <path opacity="0.47" fill-rule="evenodd" clip-rule="evenodd"
              d="M262.711 114.719C262.661 112.483 262.909 111.142 263.902 109.105C265.044 106.721 266.136 104.237 267.625 102.1C268.668 100.56 269.313 98.9209 270.306 97.3808C271.696 95.1949 273.086 93.1581 274.277 90.8231C275.816 87.7927 278.1 85.3087 280.234 82.7254C281.724 80.8872 282.915 79.4465 284.007 77.2606C284.851 75.6212 286.142 74.3792 287.036 72.7894C288.177 70.8023 288.922 68.4673 289.965 66.3808C291.106 64.0955 292.198 61.9593 293.588 59.8727C294.532 58.432 295.475 56.6933 296.865 55.6003C297.808 54.8551 299.049 53.3647 300.092 52.9176C302.673 51.775 304.063 52.6692 305.403 55.1035C307.538 58.9785 308.382 64.493 308.183 68.8648C307.935 73.7334 307.091 78.7013 305.503 83.3215C304.361 86.6004 302.475 89.6308 300.787 92.6116C297.61 98.2751 293.737 103.491 290.014 108.757C287.83 111.887 284.057 114.471 281.078 116.855C279.093 118.395 277.107 119.389 274.774 120.184C273.483 120.631 271.696 121.475 270.306 121.227C269.015 120.979 267.675 120.084 266.483 119.687C263.306 118.445 261.867 115.762 262.711 114.719Z"
              fill="#C4B0B8"/>
        <path opacity="0.47" fill-rule="evenodd" clip-rule="evenodd"
              d="M250.746 119.091C248.86 120.034 246.924 120.73 246.08 122.767C245.881 123.313 245.484 124.506 245.881 125.102C247.321 127.288 252.534 124.357 253.725 123.164C254.916 121.972 256.207 119.836 255.065 118.296C254.073 116.954 251.938 116.756 250.697 117.998V119.091H250.746Z"
              fill="#C4B0B8"/>
        <path opacity="0.47" fill-rule="evenodd" clip-rule="evenodd"
              d="M346.806 41.4415C345.763 42.0873 344.175 42.6834 343.381 43.7267C342.835 44.4222 342.636 45.6642 342.338 46.4591C341.097 49.887 340.203 53.4639 339.806 57.1402C339.459 60.7171 339.31 67.0761 343.53 68.5168C351.671 71.3486 363.536 65.4864 364.181 56.395C364.578 51.2283 361.748 46.4094 358.72 42.4847C357.231 40.5472 355.493 38.3116 353.557 36.8213C352.267 35.8277 350.331 35.1321 348.692 35.4799C345.863 35.9767 343.728 38.8084 346.806 41.4415Z"
              fill="#C4B0B8"/>
        <path opacity="0.47" fill-rule="evenodd" clip-rule="evenodd"
              d="M345.168 85.9544C345.118 84.1659 345.068 83.7685 346.359 82.5762C347.054 81.9303 348.047 80.8871 348.99 80.589C350.926 79.9432 352.167 81.3839 352.266 83.222C352.316 84.613 352.415 87.3951 351.125 88.3887C349.933 89.2829 344.82 88.4881 345.168 86.5009V85.9544Z"
              fill="#C4B0B8"/>
        <path opacity="0.47" fill-rule="evenodd" clip-rule="evenodd"
              d="M404.292 49.0424C403.448 52.4206 403.597 55.8982 402.952 59.3757C401.91 64.9399 401.264 70.9014 401.066 76.5649C400.966 79.5457 401.066 82.4768 400.917 85.4575C400.718 89.1338 400.172 92.7108 400.569 96.3871C401.066 101.107 401.562 106.025 404.69 109.801C406.924 112.483 410.001 111.49 412.98 110.397C415.363 109.502 417.448 107.615 419.533 106.224C421.171 105.131 422.71 103.988 424.15 102.597C430.603 96.5858 436.461 89.9287 439.043 81.2348C440.929 74.9255 442.766 67.7716 441.227 61.1642C440.184 56.8421 438.695 53.2155 435.766 49.8373C433.582 47.3036 431.05 45.7139 428.121 44.1241C425.738 42.8324 423.157 42.7331 420.526 42.1369C418.292 41.6401 416.306 41.4414 414.022 41.4414C412.037 41.4414 409.902 41.6401 407.916 42.0376C403.895 42.7828 402.853 48.4462 404.292 49.0424Z"
              fill="#C4B0B8"/>
        <path opacity="0.47" fill-rule="evenodd" clip-rule="evenodd"
              d="M410.796 119.588C411.54 117.253 413.228 114.769 416.008 116.06C417.944 116.955 419.136 119.488 418.143 121.475C417.398 122.966 415.512 123.761 413.923 123.264C412.98 122.966 411.888 121.972 411.292 121.177C410.299 119.886 411.094 118.842 411.342 117.352L410.796 119.588Z"
              fill="#C4B0B8"/>
        <path opacity="0.47" fill-rule="evenodd" clip-rule="evenodd"
              d="M418.391 177.713C416.207 177.912 414.122 178.359 412.086 179.054C411.888 179.551 411.639 179.948 411.292 180.346C410.845 180.942 409.554 181.687 409.753 182.482C412.483 183.674 416.405 181.787 418.738 180.495C419.88 179.849 421.27 179.154 422.213 178.21C422.66 177.763 423.802 176.719 424.05 176.223C424.944 174.633 424.1 173.838 422.462 173.838C420.724 173.838 416.902 175.08 416.753 177.117L418.391 177.713Z"
              fill="#C4B0B8"/>
        <path opacity="0.47" fill-rule="evenodd" clip-rule="evenodd"
              d="M508.493 168.472C508.543 170.857 508.146 171.602 507.302 173.788C506.507 175.725 505.465 178.06 505.763 180.196C506.507 185.313 513.606 184.32 517.23 183.823C521.45 183.277 525.521 182.382 528.648 179.302C531.13 176.918 532.322 175.079 532.818 171.602C533.563 166.187 534.804 156.946 526.811 157.046C523.287 157.095 520.507 158.586 517.578 160.424C515.542 161.716 514.301 163.355 512.762 165.143C510.876 167.379 508.791 169.168 508.493 168.472Z"
              fill="#C4B0B8"/>
        <path opacity="0.47" fill-rule="evenodd" clip-rule="evenodd"
              d="M452.049 463.867C454.382 456.266 458.056 449.758 465.056 445.486C466.694 444.492 468.084 443.151 470.02 444.194C471.608 445.039 471.311 446.877 470.814 448.467C470.169 450.553 468.233 453.435 466.793 455.173C465.204 457.011 463.368 458.8 461.63 460.439C460.637 461.383 459.198 462.625 457.857 462.874C456.517 463.023 454.928 462.774 452.049 463.867Z"
              fill="#C4B0B8"/>
        <path opacity="0.47" fill-rule="evenodd" clip-rule="evenodd"
              d="M175.885 472.561C176.034 469.63 177.722 468.289 180.005 466.351C184.87 462.277 191.274 459.495 197.232 457.607C202.543 455.918 208.898 454.776 214.408 456.266C216.89 456.962 219.968 458.154 221.01 460.688C222.798 465.059 218.131 471.468 214.656 473.853C210.288 476.883 203.933 477.777 198.969 479.317C194.501 480.659 189.189 481.156 184.573 480.51C182.885 480.261 181.048 480.212 179.459 479.566C177.97 478.97 176.233 478.92 174.793 478.125C173.453 477.43 171.665 476.287 171.566 474.648C171.516 473.803 171.814 472.611 172.211 471.865C173.006 470.574 174.793 470.425 175.885 472.561Z"
              fill="#C4B0B8"/>
    </g>
    <path fill-rule="evenodd" clip-rule="evenodd"
          d="M500.6 148.849C498.813 150.041 495.487 151.73 496.033 154.413C496.281 155.655 497.026 156.698 497.423 157.94C497.77 158.983 497.969 160.076 498.068 161.219C498.217 162.709 499.011 165.044 500.054 166.187C500.848 167.081 501.742 166.137 502.288 165.342C502.883 164.448 503.529 163.504 503.578 162.411C503.628 160.97 503.727 159.579 504.075 158.188C504.224 157.642 504.621 157.195 504.77 156.599C504.919 155.853 504.869 155.059 504.869 154.264C504.77 152.575 503.578 149.494 500.6 148.849Z"
          fill="#C4B0FF"/>
    <path fill-rule="evenodd" clip-rule="evenodd"
          d="M472.303 301.613C472.005 301.763 471.608 301.912 471.459 302.21C471.41 302.359 471.36 302.607 471.31 302.756C471.261 303.601 472.403 303.998 472.998 304.147C474.636 304.594 476.622 304.594 478.161 303.601C479.154 302.955 480.246 301.663 480.395 300.371C480.594 298.583 479.204 297.142 477.913 296.397C476.721 295.702 474.885 295.105 473.544 295.95C473.048 296.248 472.601 296.695 472.403 297.242C472.254 297.689 472.254 298.136 472.154 298.633C472.005 299.229 471.559 299.676 471.658 300.371C471.757 300.918 472.005 301.315 472.303 301.613Z"
          fill="#C4B0FF"/>
    <path fill-rule="evenodd" clip-rule="evenodd"
          d="M481.934 304.495C481.984 303.949 482.033 303.899 482.431 303.601C482.778 303.303 483.076 303.253 483.423 303.452C483.97 303.8 484.118 304.743 483.672 305.29C483.374 305.638 482.828 305.737 482.431 305.687C481.934 305.588 481.636 305.091 481.636 304.594L481.934 304.495Z"
          fill="#C4B0FF"/>
    <path fill-rule="evenodd" clip-rule="evenodd"
          d="M505.713 268.378C504.968 268.527 504.671 268.577 504.125 269.123C503.876 269.421 503.678 269.62 503.727 270.067C503.827 271.11 504.571 272.303 505.316 272.899C505.862 273.296 506.656 273.495 507.302 273.296C507.897 273.147 508.493 272.551 508.99 272.203C509.436 271.855 509.883 271.508 510.33 271.11C511.075 270.415 511.77 269.62 511.472 268.527C511.223 267.533 510.429 266.589 509.486 266.391C508.741 266.242 508.245 266.391 507.5 266.589C506.905 266.738 506.309 266.838 505.713 268.378Z"
          fill="#C4B0FF"/>
    <path fill-rule="evenodd" clip-rule="evenodd"
          d="M501.245 271.558C501.742 271.756 502.139 272.005 502.486 272.402C502.387 272.651 502.635 272.849 502.486 273.098C502.238 273.495 501.692 273.197 501.394 273.098C501.047 272.998 500.699 272.7 500.55 272.352C500.5 272.203 500.203 271.657 500.55 271.707L501.245 271.558Z"
          fill="#C4B0FF"/>
    <path fill-rule="evenodd" clip-rule="evenodd"
          d="M448.475 291.081C447.978 291.628 447.432 292.224 447.78 293.069C448.078 293.863 449.071 293.963 449.766 293.814C450.113 293.764 450.56 293.665 450.709 293.267C450.858 292.87 450.957 292.373 451.056 291.926C451.354 290.883 452.496 290.436 451.95 289.194C451.751 288.697 451.106 288.15 450.56 288.15C449.567 288.101 448.822 289.045 448.227 289.839L448.475 291.081Z"
          fill="#C4B0FF"/>
    <path fill-rule="evenodd" clip-rule="evenodd"
          d="M305.304 393.223C305.602 392.577 305.95 391.385 307.092 390.987C307.985 390.639 308.432 390.938 309.177 391.037C310.864 391.335 312.503 391.832 311.411 393.471C310.914 394.216 309.474 395.011 308.333 395.21C307.34 395.359 305.503 395.061 305.602 394.216L305.304 393.223Z"
          fill="#C4B0FF"/>
    <path fill-rule="evenodd" clip-rule="evenodd"
          d="M406.08 42.4846C405.683 44.0247 405.186 45.8628 406.924 46.9558C408.115 47.6513 409.902 46.9558 410.895 46.1609C412.335 45.0183 413.923 42.1865 414.171 40.3981C414.42 38.4109 412.037 36.3244 410.25 36.076C406.576 35.6288 404.59 41.491 404.392 44.2234L406.08 42.4846Z"
          fill="#C4B0FF"/>
    <path fill-rule="evenodd" clip-rule="evenodd"
          d="M397.938 374.344C396.648 376.232 396.499 378.219 396.747 380.157C396.896 381.399 396.896 383.038 398.484 383.436C402.257 384.379 406.129 377.325 407.172 375.139C408.016 373.301 408.512 371.165 408.363 369.327C408.264 368.234 407.42 366.048 406.129 365.601C404.441 365.004 402.307 366.097 401.115 367.339C398.286 370.171 398.534 373.45 396.995 376.48L397.938 374.344Z"
          fill="#C4B0FF"/>
    <path fill-rule="evenodd" clip-rule="evenodd"
          d="M395.952 374.047C395.555 374.146 393.719 374.394 393.073 374.792C392.626 375.04 391.882 375.487 391.683 375.885C391.435 376.481 391.882 377.027 392.329 377.325C392.626 377.524 393.222 377.723 393.669 377.524C394.016 377.375 394.364 376.928 394.662 376.68C395.109 376.233 395.456 375.686 395.803 375.14C395.952 374.891 396.201 374.643 396.25 374.394C396.399 373.997 396.052 373.848 396.002 373.55L395.952 374.047Z"
          fill="#C4B0FF"/>
    <path fill-rule="evenodd" clip-rule="evenodd"
          d="M391.683 390.738C392.13 390.838 392.527 390.987 392.924 391.086C392.775 391.484 392.924 391.98 392.378 392.279C392.031 392.477 391.087 392.577 390.69 392.527C390.144 392.428 389.797 392.08 389.896 391.583C389.995 391.037 390.641 390.738 391.286 390.589L391.683 390.738Z"
          fill="#C4B0FF"/>
    <path fill-rule="evenodd" clip-rule="evenodd"
          d="M328.041 404.798C327.942 405.245 327.991 405.543 328.537 405.742C329.381 405.99 330.424 405.841 331.069 405.195C331.963 404.351 332.807 402.761 332.211 401.917C331.863 401.37 330.473 401.022 329.679 401.618C329.282 401.917 328.686 402.364 328.438 402.711C327.942 403.357 327.892 404.053 327.991 404.649L328.041 404.798Z"
          fill="#C4B0FF"/>
    <path fill-rule="evenodd" clip-rule="evenodd"
          d="M261.172 296.347C260.725 296.745 260.527 296.894 260.378 297.44C260.278 298.086 260.179 298.732 260.576 299.279C261.321 300.421 263.108 301.216 264.399 301.514C265.59 301.812 266.533 301.613 267.477 300.918C268.569 300.123 269.264 299.129 269.462 297.788C269.661 296.347 269.363 295.354 268.172 294.46C267.179 293.764 265.888 293.019 264.697 292.82C263.604 292.621 262.81 292.969 261.966 293.665C261.222 294.311 260.278 295.453 261.172 296.347Z"
          fill="#C4B0FF"/>
    <path fill-rule="evenodd" clip-rule="evenodd"
          d="M271.001 300.769C271.051 300.421 270.951 299.974 271.349 299.875C271.845 299.726 272.788 300.223 273.136 300.57C273.434 300.868 273.731 301.564 273.632 301.961C273.582 302.309 273.235 302.558 272.987 302.756C272.54 303.104 271.994 303.154 271.547 302.856C271.249 302.657 270.455 302.259 270.604 301.812L271.001 300.769Z"
          fill="#C4B0FF"/>
    <path fill-rule="evenodd" clip-rule="evenodd"
          d="M82.3577 262.267C79.528 258.293 78.1877 253.871 78.4359 248.953C78.5352 246.916 78.3366 243.24 81.2159 243.538C85.0881 243.936 87.0738 249.947 88.1659 252.928C89.7545 257.399 91.3431 261.969 90.7474 266.788C89.9531 273.396 81.2655 260.23 80.4216 259.038L82.3577 262.267Z"
          fill="#C4B0FF"/>
    <path fill-rule="evenodd" clip-rule="evenodd"
          d="M90.6979 240.408C90.0029 244.233 91.7404 249.698 95.8608 250.891C97.3501 251.338 97.8961 250.394 98.6904 249.003C99.4351 247.612 99.9811 246.022 99.4351 244.532C99.0876 243.538 98.2436 242.544 97.6479 241.65C97.2508 241.054 96.8536 240.657 96.6054 240.06C96.3076 239.464 96.4565 238.967 95.9601 238.421C94.8183 237.129 90.3008 236.036 90.7475 239.117V240.408H90.6979Z"
          fill="#C4B0FF"/>
    <path fill-rule="evenodd" clip-rule="evenodd"
          d="M132.944 512.454C134.086 509.721 135.277 508.231 137.66 506.492C139.795 504.952 143.22 503.462 145.752 502.865C148.135 502.369 151.808 502.319 153.993 503.511C156.524 504.853 158.808 506.89 161.191 508.43C163.375 509.87 165.559 510.665 167.495 512.553C169.183 514.242 170.524 516.478 171.368 518.713C172.658 522.191 173.651 527.556 172.162 531.084C170.822 534.313 168.885 534.362 165.659 534.313C161.092 534.213 156.723 530.537 153.893 527.208C152.454 525.519 151.362 523.83 149.574 522.439C147.539 520.8 145.355 519.309 143.22 517.819C141.234 516.428 138.951 515.484 137.114 513.894C136.27 513.249 133.589 511.212 132.944 512.454Z"
          fill="#C4B0FF"/>
    <path fill-rule="evenodd" clip-rule="evenodd"
          d="M211.082 307.277C210.784 308.916 210.387 309.661 211.578 310.456C212.422 311.003 213.266 311.003 214.16 310.506C215.053 309.959 217.089 308.022 216.841 306.879C216.294 304.445 210.238 304.346 210.536 307.277H211.082Z"
          fill="#C4B0FF"/>
    <path fill-rule="evenodd" clip-rule="evenodd"
          d="M324.864 385.076C323.921 380.505 328.488 373.997 333.7 370.271C341.097 365.005 352.366 363.862 360.656 364.955C367.606 365.899 373.315 369.576 374.705 374.544C375.103 375.885 374.805 377.276 375.152 378.617C375.4 379.661 375.698 380.207 374.159 381.101C370.436 383.237 364.479 384.529 360.309 385.225C355.692 385.97 350.579 386.864 346.061 386.765C342.04 386.665 338.168 386.069 334.147 385.92C332.112 385.821 330.275 385.87 328.389 385.423C327.495 385.274 325.162 385.523 324.864 385.076Z"
          fill="#C4B0FF"/>
    <path fill-rule="evenodd" clip-rule="evenodd"
          d="M363.039 357.255C363.734 358.099 363.784 358.596 365.124 358.696C366.167 358.745 367.259 358.348 368.152 357.801C369.244 357.155 370.783 355.665 370.237 354.721C369.294 353.082 362.692 354.075 363.387 356.212L363.039 357.255Z"
          fill="#C4B0FF"/>
    <path fill-rule="evenodd" clip-rule="evenodd"
          d="M465.999 270.017C466.247 269.173 466.644 267.136 467.339 266.54C467.885 266.092 468.68 266.043 469.523 266.142C471.112 266.291 472.006 266.887 472.949 268.129C473.495 268.825 474.24 269.52 474.388 270.365C475.431 275.035 467.091 272.998 465.999 270.017Z"
          fill="#C4B0FF"/>
    <defs>
        <radialGradient id="paint0_radial_131_757" cx="0" cy="0" r="1" gradientUnits="userSpaceOnUse"
                        gradientTransform="translate(229.703 196.594) scale(401.459 401.755)">
            <stop stop-color="#7CC5FF"/>
            <stop offset="0.8436" stop-color="#482088"/>
            <stop offset="0.9478" stop-color="#403B77"/>
            <stop offset="0.9972" stop-color="#4D79D1"/>
        </radialGradient>
    </defs>
</svg>