<svg width="601" height="600" viewBox="0 0 601 600" fill="none" xmlns="http://www.w3.org/2000/svg">
    <g clip-path="url(#clip0_211_84572)">
        <path fill-rule="evenodd" clip-rule="evenodd" d="M24.1924 360.568L420.204 556.109C335.607 632.103 206.829 595.092 132.538 544.1C74.0187 503.505 28.0459 448.57 20.6078 386.735C19.4666 377.849 20.7035 368.819 24.1924 360.568V360.568Z" fill="url(#paint0_radial_211_84572)"/>
        <path style="mix-blend-mode:multiply" fill-rule="evenodd" clip-rule="evenodd" d="M20.7856 372.397C25.6606 395.661 36.465 417.27 52.1511 435.128C83.25 469.552 117.883 500.61 155.478 527.79C203.422 561.934 252.263 583.979 311.499 584.876C343.583 586.099 375.546 580.287 405.147 567.848C410.38 564.219 415.406 560.299 420.202 556.109L24.191 360.568C22.7089 364.402 21.5693 368.361 20.7856 372.397V372.397Z" fill="url(#paint1_radial_211_84572)"/>
        <path fill-rule="evenodd" clip-rule="evenodd" d="M15.3189 259.303L506.591 500.011C492.701 533.706 463.755 554.587 414.825 562.742C391.326 566.405 367.499 567.517 343.76 566.058C298.821 564.27 254.787 552.872 214.624 532.631C159.062 506.642 141.318 488.719 95.7041 453.5C41.9348 412.008 -29.7577 339.061 15.0501 258.945L15.3189 259.303Z" fill="url(#paint2_radial_211_84572)"/>
        <path style="mix-blend-mode:multiply" fill-rule="evenodd" clip-rule="evenodd" d="M12.1829 265.218C32.0311 337.08 75.1451 400.332 134.777 445.077C166.77 468.108 204.767 480.923 240.075 498.846C263.913 510.675 287.482 523.401 312.216 532.99C388.658 562.742 438.753 548.135 502.47 508.973C503.904 506.195 505.337 503.237 506.592 500.011L15.3194 259.304C14.244 261.275 13.1686 263.247 12.1829 265.218V265.218Z" fill="url(#paint3_radial_211_84572)"/>
        <path fill-rule="evenodd" clip-rule="evenodd" d="M70.8823 161.801L572.729 385.84C578.554 440.774 548.712 488.091 492.075 507.269C443.952 523.579 377.547 526.178 329.692 508.613C259.433 483.342 183.529 451.349 126.623 403.763C86.0273 369.978 8.77872 291.833 9.22679 237.347C9.22679 195.317 29.5695 172.017 70.8823 161.801Z" fill="url(#paint4_radial_211_84572)"/>
        <path style="mix-blend-mode:multiply" fill-rule="evenodd" clip-rule="evenodd" d="M93.2841 265.576C97.3678 270.552 100.941 275.926 103.948 281.617C144.186 353.31 169.995 394.264 222.241 426.974C283.269 465.061 310.333 465.957 389.732 453.321C399.677 451.339 409.88 451.006 419.933 452.335C503.634 466.405 552.564 476.442 573.086 403.226C573.201 397.571 572.962 391.914 572.369 386.288L70.5218 162.25C60.84 164.455 51.5177 168.014 42.8306 172.824C48.9244 216.377 85.9357 257.6 92.9257 265.666L93.2841 265.576Z" fill="url(#paint5_radial_211_84572)"/>
        <path fill-rule="evenodd" clip-rule="evenodd" d="M105.295 214.765L577.031 242.456C602.93 284.396 611.712 328.397 583.752 373.295C568.338 398.029 535.629 415.235 506.862 421.687C456.14 433.068 429.613 421.15 381.4 417.475C322.254 412.905 316.16 423.121 254.863 395.43C211.22 375.625 169.37 347.217 142.037 308.324C122.942 280.172 110.36 248.12 105.205 214.496L105.295 214.765Z" fill="url(#paint6_radial_211_84572)"/>
        <path style="mix-blend-mode:multiply" fill-rule="evenodd" clip-rule="evenodd" d="M114.615 252.583C168.384 314.149 262.749 361.197 336.592 371.144C386.419 377.865 393.229 368.994 436.783 358.688C449.216 355.27 461.934 352.991 474.78 351.877C541.902 348.561 600.869 355.372 596.746 286.099C592.223 270.795 585.588 256.196 577.031 242.725L105.295 214.765C107.456 227.552 110.45 240.185 114.256 252.583H114.615Z" fill="url(#paint7_radial_211_84572)"/>
        <path fill-rule="evenodd" clip-rule="evenodd" d="M131.461 105.523C67.8337 91.6324 35.572 130.436 42.562 164.938C56.9902 237.168 148.129 279.825 209.068 302.677C251.184 317.926 295.106 327.626 339.727 331.533C375.385 335.567 411.475 330.062 444.309 315.582L131.461 105.523Z" fill="url(#paint8_radial_211_84572)"/>
        <path style="mix-blend-mode:multiply" fill-rule="evenodd" clip-rule="evenodd" d="M88.0875 104.446C84.9509 164.847 111.925 215.39 167.935 250.34C202.347 271.759 284.435 296.044 324.045 302.497C357.939 307.689 392.399 308.021 426.386 303.482L131.461 105.522C117.246 102.067 102.456 101.701 88.0875 104.446V104.446Z" fill="url(#paint9_radial_211_84572)"/>
        <path fill-rule="evenodd" clip-rule="evenodd" d="M142.573 66.898L332.737 267.816C277.857 262.267 224.475 246.62 175.283 221.664C150.459 207.863 127.339 192.629 111.297 167.895C105.294 158.075 100.481 147.576 96.9589 136.619C89.7896 116.635 80.38 88.8538 103.322 73.888C115.136 67.082 128.943 64.5802 142.394 66.8084L142.573 66.898Z" fill="url(#paint10_radial_211_84572)"/>
        <path style="mix-blend-mode:multiply" fill-rule="evenodd" clip-rule="evenodd" d="M127.876 66.4509C119.721 89.5717 127.876 117.442 142.214 143.52C167.396 189.135 188.098 205.265 229.859 233.136C237.588 238.804 244.759 245.196 251.277 252.224C277.806 260.271 305.111 265.498 332.737 267.817L142.573 66.899C137.688 66.3689 132.761 66.3689 127.876 66.899V66.4509Z" fill="url(#paint11_radial_211_84572)"/>
        <path fill-rule="evenodd" clip-rule="evenodd" d="M207.904 30.4251L440.905 56.1448C508.654 84.6425 623.721 210.194 582.229 277.226C564.305 305.993 534.105 308.861 503.367 311.997C489.656 313.341 475.765 313.7 462.054 314.865C452.425 316.956 442.604 318.037 432.75 318.091C417.349 316.237 402.274 312.287 387.942 306.351C346.629 289.683 330.857 275.882 297.341 250.879C281.837 239.229 266.334 227.759 250.382 216.736C227.441 200.784 204.32 190.747 183.529 170.046C173.204 159.686 163.593 148.638 154.762 136.978C140.693 118.159 115.242 80.8786 127.878 58.2955C136.839 42.4336 175.464 25.4066 207.904 30.4251V30.4251Z" fill="url(#paint12_radial_211_84572)"/>
        <path style="mix-blend-mode:multiply" fill-rule="evenodd" clip-rule="evenodd" d="M201.094 29.7076C176.897 46.7346 186.576 77.3831 202.617 102.117C237.567 155.886 299.85 215.122 358.638 242.545C382.027 253.388 402.908 246.757 423.968 246.936C448.074 246.936 478.543 254.912 503.905 258.586C541.274 264.052 563.857 254.284 572.55 233.852C578.542 217.385 578.383 199.309 572.102 182.95C542.17 128.106 482.487 73.7089 440.726 56.1442L207.725 30.4245C205.485 30.4245 203.244 29.8869 200.914 29.7076H201.094Z" fill="url(#paint13_radial_211_84572)"/>
        <path fill-rule="evenodd" clip-rule="evenodd" d="M458.737 214.048C473.523 213.062 488.579 215.661 503.545 213.6C535.896 209.029 553.012 196.394 557.314 178.471C572.728 108.122 448.79 24.9591 370.645 6.85672C309.437 -7.39215 153.686 -4.3452 204.766 79.6246C233.981 127.659 284.793 161.175 331.752 190.927C381.399 222.293 406.043 217.812 459.454 214.048H458.737Z" fill="url(#paint14_radial_211_84572)"/>
        <path style="mix-blend-mode:multiply" opacity="0.5" fill-rule="evenodd" clip-rule="evenodd" d="M508.563 136.351C518.779 157.769 543.782 181.158 526.486 208.043C533.7 206.234 540.305 202.544 545.626 197.348C550.948 192.153 554.795 185.638 556.776 178.47C558.103 172.227 558.405 165.811 557.672 159.471C550.503 93.8727 441.172 23.3452 370.107 7.12481C341.294 1.19959 311.802 -0.730326 282.463 1.38942C320.46 1.38942 366.612 6.31827 394.393 26.661C402.637 32.7549 409.627 40.5514 418.23 46.1972C424.056 49.9611 429.164 53.008 433.824 55.6069C458.826 69.6765 470.476 71.5584 494.045 105.881C499.731 115.732 504.645 126.009 508.742 136.619L508.563 136.351Z" fill="url(#paint15_radial_211_84572)"/>
        <path style="mix-blend-mode:multiply" opacity="0.5" fill-rule="evenodd" clip-rule="evenodd" d="M556.776 178.469C554.82 185.567 551.033 192.026 545.796 197.2C540.559 202.375 534.055 206.083 526.934 207.953C551.757 206.519 551.847 223.277 550.682 241.111L550.144 248.459C548.842 256.39 547.046 264.231 544.767 271.938C544.637 279.017 543.674 286.055 541.9 292.908C539.237 299.791 534.22 305.507 527.74 309.039C549.427 305.455 569.143 298.285 582.227 277.226C584.886 272.886 586.965 268.216 588.41 263.335C597.372 233.224 582.495 195.138 557.672 159.471C558.405 165.81 558.102 172.227 556.776 178.469V178.469Z" fill="url(#paint16_radial_211_84572)"/>
        <path style="mix-blend-mode:multiply" opacity="0.5" fill-rule="evenodd" clip-rule="evenodd" d="M582.049 277.226C568.965 298.286 549.25 305.455 527.563 309.04C546.203 320.331 541.722 349.636 535.808 367.021C535.808 367.828 535.27 368.724 534.912 369.53C529.92 383.45 521.591 395.932 510.655 405.885C499.718 415.837 486.507 422.955 472.181 426.616C483.949 426.143 495.649 424.583 507.131 421.956C531.744 416.658 554.451 404.762 572.819 387.543C576.93 383.29 580.566 378.603 583.662 373.563C607.052 336.014 604.722 299.003 588.143 263.336C586.698 268.216 584.619 272.886 581.96 277.226H582.049Z" fill="url(#paint17_radial_211_84572)"/>
        <path style="mix-blend-mode:multiply" opacity="0.5" fill-rule="evenodd" clip-rule="evenodd" d="M572.549 387.544C554.15 404.665 531.446 416.467 506.861 421.687C495.38 424.315 483.68 425.875 471.911 426.347C493.777 436.474 469.939 453.859 467.609 466.226C464.921 479.937 466.355 486.3 457.124 494.097C440.725 507.898 406.671 517.486 373.065 518.92C413.069 523.656 453.623 519.744 491.985 507.45C496.734 505.836 500.946 503.955 505.606 501.983C527.664 492.667 546.108 476.455 558.177 455.775C570.245 435.095 575.288 411.062 572.549 387.275V387.544Z" fill="url(#paint18_radial_211_84572)"/>
        <path style="mix-blend-mode:multiply" opacity="0.5" fill-rule="evenodd" clip-rule="evenodd" d="M491.985 507.717C453.623 520.011 413.069 523.923 373.065 519.188C380.413 524.117 387.583 535.319 377.814 541.592C368.046 547.865 365.716 554.048 354.156 556.647C324.518 560.12 294.519 558.91 265.257 553.062C290.7 561.046 317.109 565.538 343.761 566.415C366.017 567.709 388.346 566.839 410.435 563.816L414.826 563.099C462.68 554.765 491.357 534.602 505.606 502.25C501.215 504.222 496.645 506.104 491.985 507.717V507.717Z" fill="url(#paint19_radial_211_84572)"/>
        <path style="mix-blend-mode:multiply" opacity="0.5" fill-rule="evenodd" clip-rule="evenodd" d="M410.436 563.817C388.347 566.839 366.018 567.709 343.762 566.416C317.11 565.539 290.701 561.047 265.258 553.063C283.988 564.265 275.027 577.976 253.788 575.557C198.405 569.283 99.0216 520.891 56.0957 471.603C77.3868 499.608 103.226 523.842 132.538 543.295C204.23 592.315 326.018 628.519 410.346 563.458L410.436 563.817Z" fill="url(#paint20_radial_211_84572)"/>
        <path style="mix-blend-mode:screen" opacity="0.4" fill-rule="evenodd" clip-rule="evenodd" d="M204.05 79.6238C233.264 127.658 284.076 161.174 331.035 190.926C352.572 206.301 378.087 215.138 404.52 216.377C408.046 216.545 411.513 215.43 414.281 213.239C417.049 211.048 418.929 207.929 419.575 204.458C422.001 193.116 422.001 181.388 419.575 170.046C414.405 157.864 410.151 145.312 406.85 132.497C405.237 125.059 407.835 116.993 405.864 109.555C403.397 99.1519 399.119 89.2632 393.228 80.3407C381.823 65.2701 367.552 52.6028 351.234 43.0675C334.916 33.5322 316.874 27.3169 298.146 24.779C281.746 23.5244 265.347 26.5713 248.857 26.6609C232.368 26.7506 231.472 23.5244 213.011 29.1702C209.415 30.1824 206.091 31.9878 203.284 34.4536C200.477 36.9194 198.258 39.983 196.791 43.4191C194.401 48.2531 193.798 53.7764 195.088 59.0122C196.942 66.3216 199.969 73.2824 204.05 79.6238V79.6238ZM412.675 127.478C412.138 135.278 414.499 143 419.306 149.165C420.038 149.999 420.953 150.651 421.979 151.071C423.005 151.491 424.115 151.667 425.221 151.585C425.956 151.36 426.602 150.911 427.068 150.3C427.534 149.689 427.797 148.948 427.82 148.18C428.716 141.308 428.716 134.35 427.82 127.478C427.546 126.286 427.032 125.161 426.307 124.175C425.583 123.188 424.664 122.361 423.608 121.743C422.559 121.125 421.369 120.788 420.152 120.764C418.935 120.741 417.732 121.031 416.66 121.608C415.588 122.184 414.683 123.027 414.032 124.056C413.381 125.084 413.006 126.263 412.944 127.478H412.675Z" fill="url(#paint21_radial_211_84572)"/>
        <path style="mix-blend-mode:screen" opacity="0.4" fill-rule="evenodd" clip-rule="evenodd" d="M111.476 168.074C115.87 174.93 120.944 181.325 126.621 187.162C139.449 199.572 153.923 210.156 169.637 218.617L175.103 221.664C190.063 229.79 205.646 236.712 221.704 242.366C208.261 234.3 200.465 226.235 191.682 220.141C185.589 216.018 178.509 213.42 172.774 208.939L169.727 206.609C155.747 195.049 155.926 190.299 146.427 175.333C142.499 170.726 138.905 165.844 135.673 160.726C128.055 142.803 126.173 124.879 116.405 105.343C116.071 104.627 115.681 103.938 115.24 103.282C114.205 101.765 112.861 100.482 111.297 99.5183C110.138 98.7043 108.825 98.1338 107.439 97.8411C106.053 97.5485 104.621 97.5398 103.232 97.8156C100.948 98.563 98.8648 99.8194 97.138 101.49C94.6461 103.672 92.8077 106.502 91.8269 109.666C90.8461 112.83 90.7613 116.204 91.5818 119.413C93.1949 125.507 95.256 131.421 97.138 136.709C100.66 147.666 105.473 158.165 111.476 167.985V168.074Z" fill="url(#paint22_radial_211_84572)"/>
        <path style="mix-blend-mode:screen" opacity="0.4" fill-rule="evenodd" clip-rule="evenodd" d="M155.03 136.977C163.861 148.638 173.471 159.686 183.797 170.046C204.588 190.747 227.708 200.784 250.65 216.735L261.045 223.994C273.412 232.956 285.511 241.917 297.609 250.879L318.399 266.472C327.361 272.924 334.889 278.57 343.402 283.947C354.135 290.762 365.369 296.754 377.008 301.87C374.846 300.197 372.782 298.402 370.825 296.493C354.246 280.093 344.478 256.345 312.485 227.31C304.813 220.454 296.797 213.994 288.468 207.953C281.647 203.609 274.449 199.89 266.96 196.841L264.092 195.407C261.852 194.242 259.701 193.077 257.73 191.822C248.928 186.657 240.645 180.655 232.996 173.899C224.565 165.233 217.305 155.502 211.398 144.953C208.262 139.935 205.573 135.454 203.333 131.242C189.891 106.15 189.801 92.797 177.972 66.45C176.045 62.3745 172.653 59.1747 168.473 57.4884C160.407 53.9934 147.503 59.3703 138.899 66.45L137.914 67.2565C133.61 70.7956 130.587 75.6493 129.308 81.0725C128.029 86.4956 128.565 92.1887 130.834 97.2778C132.537 101.221 134.508 105.074 136.569 108.838C142.085 118.642 148.284 128.045 155.12 136.977H155.03ZM367.509 270.146C366.523 269.34 364.372 269.25 364.193 272.207C364.875 276.816 366.48 281.24 368.913 285.213C371.346 289.186 374.557 292.626 378.352 295.328C382.559 298.18 387.325 300.104 392.332 300.974C399.143 302.497 412.227 298.375 406.492 292.012C399.731 288.389 392.532 285.648 385.073 283.857C378.027 280.891 371.857 276.171 367.15 270.146H367.509Z" fill="url(#paint23_radial_211_84572)"/>
        <path style="mix-blend-mode:screen" opacity="0.4" fill-rule="evenodd" clip-rule="evenodd" d="M50.8982 170.762V171.658C49.7682 175.309 49.3842 179.15 49.7691 182.953C50.154 186.756 51.2999 190.442 53.1386 193.793C82.2637 248.907 156.913 283.409 209.339 302.855C244.102 315.563 280.169 324.369 316.877 329.112C291.785 321.674 285.512 314.774 252.623 302.945C243.169 299.882 233.894 296.292 224.842 292.191C214.536 287.083 213.999 276.418 193.297 271.848C165.965 265.933 162.649 253.387 135.585 236.002C126.792 231.108 118.532 225.312 110.941 218.706C93.0176 200.066 89.3433 170.314 78.231 151.136C77.4146 150.047 76.3608 149.158 75.1497 148.537C73.9385 147.916 72.6018 147.579 71.241 147.551C61.4729 147.014 53.3179 162.965 50.719 170.672L50.8982 170.762Z" fill="url(#paint24_radial_211_84572)"/>
        <path style="mix-blend-mode:screen" opacity="0.4" fill-rule="evenodd" clip-rule="evenodd" d="M25.1768 264.142C25.7657 279.835 29.9998 295.176 37.5437 308.95C63.1484 344.16 93.0754 376.014 126.622 403.763L127.787 404.659C119.9 394.084 121.782 387.453 112.731 377.774C108.686 372.265 105.4 366.237 102.963 359.851C95.8834 344.169 96.2419 329.113 91.2234 313.341C88.6376 305.914 85.492 298.694 81.8138 291.743C80.4696 288.965 79.1253 286.098 77.8707 282.782C71.8665 268.264 68.2818 252.85 62.2776 237.974C55.4668 221.754 31.8083 218.976 27.8652 238.96C26.1825 247.004 25.3713 255.207 25.4456 263.425L25.1768 264.142ZM122.768 337.806C121.521 336.801 120.086 336.054 118.548 335.608C117.01 335.161 115.398 335.025 113.807 335.207C108.071 337.358 107.623 352.592 112.821 362.092C114.808 366.074 117.566 369.621 120.935 372.529C124.304 375.436 128.217 377.646 132.447 379.029C134.508 379.477 135.852 377.505 135.762 375.444C135.673 373.383 130.654 363.257 129.131 354.922C128.774 348.753 126.728 342.801 123.216 337.716L122.768 337.806Z" fill="url(#paint25_radial_211_84572)"/>
        <path style="mix-blend-mode:screen" opacity="0.4" fill-rule="evenodd" clip-rule="evenodd" d="M142.126 308.591C147.388 316.094 153.167 323.221 159.421 329.92C186.656 357.882 219.113 380.23 254.952 395.698L260.239 398.028C252.263 389.066 248.051 379.029 240.882 369.799C238.051 366.174 234.802 362.895 231.204 360.03C224.303 354.654 215.252 352.413 208.262 347.126C205.215 344.796 204.408 340.494 201.72 338.164C180.75 317.642 149.116 309.219 128.863 287.263C132.835 294.756 137.265 301.999 142.126 308.95V308.591Z" fill="url(#paint26_radial_211_84572)"/>
        <path style="mix-blend-mode:screen" opacity="0.4" fill-rule="evenodd" clip-rule="evenodd" d="M2.77295 329.293C6.01609 345.182 12.0869 360.359 20.6961 374.101L22.1299 376.521C38.3093 401.068 58.1671 422.981 81.0073 441.492C72.4099 430.034 64.9089 417.792 58.6034 404.929C50.4484 390.59 35.1242 355.282 30.733 344.618C27.1484 335.656 3.84834 304.649 2.95218 328.487V328.935L2.77295 329.293Z" fill="url(#paint27_radial_211_84572)"/>
        <path style="mix-blend-mode:screen" fill-rule="evenodd" clip-rule="evenodd" d="M588.142 263.426C597.104 233.225 582.317 195.139 557.493 159.382C550.235 93.8732 440.993 23.3458 369.928 7.03572C324.493 -3.53891 227.17 -4.52473 200.734 29.8877C169.906 28.0953 136.031 43.7781 127.876 58.475C126.443 61.2877 125.474 64.3141 125.009 67.4366C117.4 68.0936 110.042 70.4847 103.501 74.4266C98.5127 77.6298 94.5187 82.163 91.9694 87.515C89.42 92.8671 88.4168 98.8249 89.0729 104.717V104.717H88.2663C53.8539 111.976 37.6335 139.756 42.7416 165.207C43.1897 167.627 43.9962 169.957 44.6235 172.376C21.2338 185.191 9.67345 206.251 9.40461 237.975C9.56894 246.435 11.0815 254.815 13.8854 262.799C-7.26389 303.036 0.711898 341.391 20.6962 374.728C20.1589 378.803 20.1589 382.931 20.6962 387.006C28.2239 449.199 74.4655 503.506 132.626 543.923C204.318 593.032 326.196 629.147 410.434 563.907L414.736 563.369C462.591 555.035 491.178 534.782 505.427 502.52C527.525 493.208 546.001 476.97 558.075 456.25C570.148 435.531 575.164 411.45 572.37 387.633C576.667 383.397 580.456 378.676 583.661 373.563C607.14 336.014 604.721 299.093 588.142 263.426Z" fill="url(#paint28_radial_211_84572)"/>
        <path style="mix-blend-mode:screen" opacity="0.5" fill-rule="evenodd" clip-rule="evenodd" d="M118.199 92.8874C110.191 97.8545 101.765 102.113 93.0166 105.613C85.2201 109.108 75.0935 129.271 73.3908 131.87C59.0514 149.958 46.2798 169.236 35.2146 189.493C28.2716 206.8 23.3112 224.838 20.428 243.262C19.1861 250.456 18.5267 257.739 18.4565 265.039C18.4565 268.265 18.9046 271.581 18.4565 274.807C16.2161 290.938 19.98 303.574 33.8704 325.619C39.0415 334.669 44.6955 343.434 50.8077 351.876C58.3661 362.931 66.9797 373.225 76.5274 382.615C84.8919 389.477 94.3412 394.898 104.487 398.656C113.171 401.78 122.196 403.856 131.372 404.839C147.568 407.83 164.012 409.271 180.481 409.141C190.07 407.518 199.37 404.498 208.083 400.179C220.988 395.519 233.444 389.873 246.259 385.034C270.724 376.073 287.482 368.903 305.495 349.188C315.711 337.717 323.418 324.185 333.903 312.894C339.191 307.248 347.256 304.47 351.826 298.555C358.025 290.893 363.04 282.344 366.703 273.194C370.825 263.247 371.721 252.224 375.664 242.097C379.612 234.561 382.997 226.744 385.791 218.708C389.105 200.713 390.546 182.423 390.092 164.132C389.497 152.729 387.263 141.472 383.461 130.705C380.229 119.571 375.495 108.928 369.391 99.0709C363.247 91.1015 356.311 83.7753 348.69 77.2046C329.708 60.2422 307.263 47.613 282.912 40.1934C270.273 37.3784 257.284 36.4722 244.377 37.5049C230.885 39.7441 217.583 43.0097 204.588 47.2731C191.564 49.7374 178.696 52.9693 166.053 56.9516C156.855 60.5498 148.199 65.4053 140.334 71.3797C132.089 77.6528 126.802 87.4208 118.199 93.1562V92.8874ZM37.0069 345.693C36.2004 344.528 34.3184 343.273 33.1534 344.08C23.5646 350.891 35.0354 377.596 39.1577 385.841C42.8938 394.237 48.9189 401.411 56.5431 406.542C61.3824 409.589 68.1931 405.467 73.6597 406.99C79.1262 408.513 79.8432 413.084 84.6824 414.786C100.276 420.253 111.567 410.843 98.9313 405.825C92.0758 403.232 85.5248 399.896 79.3951 395.878C57.7081 380.553 50.0908 366.484 37.0069 346.141V345.693ZM346.808 314.865C346.184 314.494 345.472 314.299 344.747 314.299C344.021 314.299 343.309 314.494 342.686 314.865C340.075 316.217 337.76 318.075 335.875 320.332C333.225 323.201 330.993 326.429 329.243 329.921C327.549 332.945 326.568 336.317 326.376 339.778C326.376 341.302 327.899 343.273 329.423 343.273C334.792 343.3 340.064 341.843 344.657 339.061C351.199 334.849 352.185 318.271 346.808 314.686V314.865Z" fill="url(#paint29_radial_211_84572)"/>
    </g>
    <defs>
        <radialGradient id="paint0_radial_211_84572" cx="0" cy="0" r="1" gradientUnits="userSpaceOnUse" gradientTransform="translate(301.373 497.321) scale(339.105)">
            <stop stop-color="#0052CC"/>
            <stop offset="0.23" stop-color="#1777DA"/>
            <stop offset="0.59" stop-color="#38ABEE"/>
            <stop offset="0.85" stop-color="#4CCCFA"/>
            <stop offset="1" stop-color="#54D8FF"/>
        </radialGradient>
        <radialGradient id="paint1_radial_211_84572" cx="0" cy="0" r="1" gradientUnits="userSpaceOnUse" gradientTransform="translate(280.312 382.703) scale(252.268 252.268)">
            <stop stop-color="#0369D1"/>
            <stop offset="1" stop-color="#F5FFFF"/>
        </radialGradient>
        <radialGradient id="paint2_radial_211_84572" cx="0" cy="0" r="1" gradientUnits="userSpaceOnUse" gradientTransform="translate(37311.4 50973.5) scale(27187.7 16546.9)">
            <stop stop-color="#0052CC"/>
            <stop offset="0.23" stop-color="#1777DA"/>
            <stop offset="0.59" stop-color="#38ABEE"/>
            <stop offset="0.85" stop-color="#4CCCFA"/>
            <stop offset="1" stop-color="#54D8FF"/>
        </radialGradient>
        <radialGradient id="paint3_radial_211_84572" cx="0" cy="0" r="1" gradientUnits="userSpaceOnUse" gradientTransform="translate(33409.5 41327.5) scale(19613.2 11484.4)">
            <stop stop-color="#0369D1"/>
            <stop offset="1" stop-color="#F5FFFF"/>
        </radialGradient>
        <radialGradient id="paint4_radial_211_84572" cx="0" cy="0" r="1" gradientUnits="userSpaceOnUse" gradientTransform="translate(454.706 394.264) scale(487.329)">
            <stop stop-color="#0033B5"/>
            <stop offset="0.31" stop-color="#0F6DD1"/>
            <stop offset="0.63" stop-color="#1DA1EA"/>
            <stop offset="0.87" stop-color="#26C2F9"/>
            <stop offset="1" stop-color="#29CEFF"/>
        </radialGradient>
        <radialGradient id="paint5_radial_211_84572" cx="0" cy="0" r="1" gradientUnits="userSpaceOnUse" gradientTransform="translate(40047.4 40352) scale(19678.8 11134.3)">
            <stop stop-color="#0369D1"/>
            <stop offset="1" stop-color="#F5FFFF"/>
        </radialGradient>
        <radialGradient id="paint6_radial_211_84572" cx="0" cy="0" r="1" gradientUnits="userSpaceOnUse" gradientTransform="translate(43730.2 32200.8) scale(41309.6 17663.7)">
            <stop stop-color="#0052CC"/>
            <stop offset="0.23" stop-color="#1777DA"/>
            <stop offset="0.59" stop-color="#38ABEE"/>
            <stop offset="0.85" stop-color="#4CCCFA"/>
            <stop offset="1" stop-color="#54D8FF"/>
        </radialGradient>
        <radialGradient id="paint7_radial_211_84572" cx="0" cy="0" r="1" gradientUnits="userSpaceOnUse" gradientTransform="translate(39010 19289.7) scale(22635.8 7307.46)">
            <stop stop-color="#0369D1"/>
            <stop offset="1" stop-color="#F5FFFF"/>
        </radialGradient>
        <radialGradient id="paint8_radial_211_84572" cx="0" cy="0" r="1" gradientUnits="userSpaceOnUse" gradientTransform="translate(30694.1 32114.9) scale(22715.5 12984.9)">
            <stop stop-color="#0052CC"/>
            <stop offset="0.23" stop-color="#1777DA"/>
            <stop offset="0.59" stop-color="#38ABEE"/>
            <stop offset="0.85" stop-color="#4CCCFA"/>
            <stop offset="1" stop-color="#54D8FF"/>
        </radialGradient>
        <radialGradient id="paint9_radial_211_84572" cx="0" cy="0" r="1" gradientUnits="userSpaceOnUse" gradientTransform="translate(21873.1 24908.3) scale(8555 5155.78)">
            <stop stop-color="#0369D1"/>
            <stop offset="1" stop-color="#F5FFFF"/>
        </radialGradient>
        <radialGradient id="paint10_radial_211_84572" cx="0" cy="0" r="1" gradientUnits="userSpaceOnUse" gradientTransform="translate(15411.7 26830.8) scale(6761.38 5593.91)">
            <stop stop-color="#0033B5"/>
            <stop offset="0.31" stop-color="#0F6DD1"/>
            <stop offset="0.63" stop-color="#1DA1EA"/>
            <stop offset="0.87" stop-color="#26C2F9"/>
            <stop offset="1" stop-color="#29CEFF"/>
        </radialGradient>
        <radialGradient id="paint11_radial_211_84572" cx="0" cy="0" r="1" gradientUnits="userSpaceOnUse" gradientTransform="translate(14171.4 23580) scale(5470.94 5293.92)">
            <stop stop-color="#0369D1"/>
            <stop offset="1" stop-color="#F5FFFF"/>
        </radialGradient>
        <radialGradient id="paint12_radial_211_84572" cx="0" cy="0" r="1" gradientUnits="userSpaceOnUse" gradientTransform="translate(42073.3 37903.1) scale(31054.5 19206.6)">
            <stop stop-color="#0052CC"/>
            <stop offset="0.23" stop-color="#1777DA"/>
            <stop offset="0.59" stop-color="#38ABEE"/>
            <stop offset="0.85" stop-color="#4CCCFA"/>
            <stop offset="1" stop-color="#54D8FF"/>
        </radialGradient>
        <radialGradient id="paint13_radial_211_84572" cx="0" cy="0" r="1" gradientUnits="userSpaceOnUse" gradientTransform="translate(35693.9 24090.3) scale(18128.5 10696.4)">
            <stop stop-color="#0369D1"/>
            <stop offset="1" stop-color="#F5FFFF"/>
        </radialGradient>
        <radialGradient id="paint14_radial_211_84572" cx="0" cy="0" r="1" gradientUnits="userSpaceOnUse" gradientTransform="translate(286.496 78.2803) scale(313.475)">
            <stop stop-color="#4DD5FF"/>
            <stop offset="0.02" stop-color="#4BD2FE"/>
            <stop offset="0.48" stop-color="#2398EE"/>
            <stop offset="0.82" stop-color="#0A74E5"/>
            <stop offset="1" stop-color="#0066E1"/>
        </radialGradient>
        <radialGradient id="paint15_radial_211_84572" cx="0" cy="0" r="1" gradientUnits="userSpaceOnUse" gradientTransform="translate(436.512 161.801) scale(216.242)">
            <stop stop-color="#F5FFFF"/>
            <stop offset="1" stop-color="#0369D1"/>
        </radialGradient>
        <radialGradient id="paint16_radial_211_84572" cx="0" cy="0" r="1" gradientUnits="userSpaceOnUse" gradientTransform="translate(5974.48 20650.3) scale(1001.94 2337.75)">
            <stop stop-color="#F5FFFF"/>
            <stop offset="1" stop-color="#0369D1"/>
        </radialGradient>
        <radialGradient id="paint17_radial_211_84572" cx="0" cy="0" r="1" gradientUnits="userSpaceOnUse" gradientTransform="translate(11350.4 24980.6) scale(2344.01 2973.32)">
            <stop stop-color="#F5FFFF"/>
            <stop offset="1" stop-color="#0369D1"/>
        </radialGradient>
        <radialGradient id="paint18_radial_211_84572" cx="0" cy="0" r="1" gradientUnits="userSpaceOnUse" gradientTransform="translate(15657.2 22167.4) scale(3902.12 2603.78)">
            <stop stop-color="#F5FFFF"/>
            <stop offset="1" stop-color="#0369D1"/>
        </radialGradient>
        <radialGradient id="paint19_radial_211_84572" cx="0" cy="0" r="1" gradientUnits="userSpaceOnUse" gradientTransform="translate(16481.6 11828.1) scale(4871.87 1312.38)">
            <stop stop-color="#F5FFFF"/>
            <stop offset="1" stop-color="#0369D1"/>
        </radialGradient>
        <radialGradient id="paint20_radial_211_84572" cx="0" cy="0" r="1" gradientUnits="userSpaceOnUse" gradientTransform="translate(20420 20577.4) scale(8227.77 2949.38)">
            <stop stop-color="#F5FFFF"/>
            <stop offset="1" stop-color="#0369D1"/>
        </radialGradient>
        <radialGradient id="paint21_radial_211_84572" cx="0" cy="0" r="1" gradientUnits="userSpaceOnUse" gradientTransform="translate(413.481 0.313959) scale(262.932)">
            <stop offset="0.33"/>
            <stop offset="1" stop-color="#99FFFF"/>
        </radialGradient>
        <radialGradient id="paint22_radial_211_84572" cx="0" cy="0" r="1" gradientUnits="userSpaceOnUse" gradientTransform="translate(235.504 123.715) scale(155.304)">
            <stop offset="0.59"/>
            <stop offset="1" stop-color="#99FFFF"/>
        </radialGradient>
        <radialGradient id="paint23_radial_211_84572" cx="0" cy="0" r="1" gradientUnits="userSpaceOnUse" gradientTransform="translate(20552.4 28750.2) scale(8783.36 7720.25)">
            <stop offset="0.59"/>
            <stop offset="1" stop-color="#99FFFF"/>
        </radialGradient>
        <radialGradient id="paint24_radial_211_84572" cx="0" cy="0" r="1" gradientUnits="userSpaceOnUse" gradientTransform="translate(16664.7 22902.4) scale(7929.4 5387.31)">
            <stop offset="0.59"/>
            <stop offset="1" stop-color="#99FFFF"/>
        </radialGradient>
        <radialGradient id="paint25_radial_211_84572" cx="0" cy="0" r="1" gradientUnits="userSpaceOnUse" gradientTransform="translate(5567.94 25258.9) scale(2258.24 3671.05)">
            <stop offset="0.59"/>
            <stop offset="1" stop-color="#99FFFF"/>
        </radialGradient>
        <radialGradient id="paint26_radial_211_84572" cx="0" cy="0" r="1" gradientUnits="userSpaceOnUse" gradientTransform="translate(8463.38 15864.1) scale(2628.84 2216.4)">
            <stop offset="0.59"/>
            <stop offset="1" stop-color="#99FFFF"/>
        </radialGradient>
        <radialGradient id="paint27_radial_211_84572" cx="0" cy="0" r="1" gradientUnits="userSpaceOnUse" gradientTransform="translate(3402.06 18333.9) scale(1251.75 1949.33)">
            <stop offset="0.59"/>
            <stop offset="1" stop-color="#99FFFF"/>
        </radialGradient>
        <radialGradient id="paint28_radial_211_84572" cx="0" cy="0" r="1" gradientUnits="userSpaceOnUse" gradientTransform="translate(349.048 358.777) scale(400.492)">
            <stop offset="0.04"/>
            <stop offset="0.84"/>
            <stop offset="0.85" stop-color="#0D1616"/>
            <stop offset="0.9" stop-color="#3E6868"/>
            <stop offset="0.93" stop-color="#65A9A9"/>
            <stop offset="0.96" stop-color="#81D7D7"/>
            <stop offset="0.99" stop-color="#93F4F4"/>
            <stop offset="1" stop-color="#99FFFF"/>
        </radialGradient>
        <radialGradient id="paint29_radial_211_84572" cx="0" cy="0" r="1" gradientUnits="userSpaceOnUse" gradientTransform="translate(8845.56 38146.5) scale(24982.7 25454.3)">
            <stop stop-color="#C4FFE2"/>
            <stop offset="1"/>
        </radialGradient>
        <clipPath id="clip0_211_84572">
            <rect width="600.039" height="599.069" fill="white" transform="translate(0.961426 0.348511)"/>
        </clipPath>
    </defs>
</svg>
