<svg width="600" height="705" viewBox="0 0 600 705" fill="none" xmlns="http://www.w3.org/2000/svg">
<circle cx="308" cy="414" r="284" fill="#1E5F2B"/>
<path d="M157.044 135.794C155.885 136.645 154.679 137.473 153.544 138.159C153.828 142.251 152.006 144.569 146.306 146.248L145.644 153.77C144.206 155.742 142.149 157.174 139.801 157.839C134.151 160.018 128.954 163.226 124.474 167.3C122.463 169.027 121.848 170.446 120.003 171.345L124.616 186.837C136.091 177.605 148.244 169.248 160.971 161.836L157.044 135.794Z" fill="#4E4091"/>
<path d="M569.841 234.901C557.352 229.177 555.649 218.344 550.918 206.186C530.908 156.372 531.168 101.686 487.811 63.8876C471.112 69.3515 518.56 149.394 502.358 156.277C487.929 162.451 465.672 160.062 440.859 154.551C482.062 175.873 517.602 206.69 544.545 244.457C571.488 282.225 589.061 325.86 595.812 371.759C595.174 333.323 594.109 283.106 594.653 270.83C595.34 263.476 596.509 256.175 598.154 248.975C593.494 238.78 579.941 239.561 569.841 234.901Z" fill="#41AB34"/>
<path d="M600 230.241L599.811 228.207V227.355L599.314 224.493C596.31 210.609 580.983 212.17 569.866 207.061C557.377 201.266 555.674 190.504 550.943 178.322C530.932 128.508 531.193 73.8219 487.836 36.0003C471.137 41.4405 456.046 51.6115 439.915 58.4946C398.474 76.2109 354.431 93.123 309.585 98.7052C295.653 100.432 212.322 128.295 194.914 145.018C230.475 130.083 268.649 122.364 307.219 122.311C353.718 122.334 399.546 133.4 440.932 154.598C465.697 160.109 487.954 162.498 502.43 156.325C518.538 149.442 471.184 69.3987 487.883 63.9348C531.24 101.78 530.98 156.419 550.991 206.233C555.863 218.367 557.472 229.224 569.913 234.948C580.013 239.679 593.567 238.827 598.297 249.14L598.817 246.373V245.805L599.196 243.44L599.314 242.659L599.645 240.436V239.537L599.835 237.455V236.462V234.428V230.454L600 230.241Z" fill="#B0D076"/>
<path d="M217.43 678.472L219.606 679.181L218.707 678.874L217.43 678.472Z" fill="#6FB74A"/>
<path d="M221.333 679.725L221.712 679.891L221.546 679.796L221.333 679.725Z" fill="#6FB74A"/>
<path d="M586.47 433.494L586.565 432.217L586.494 433.281L586.47 433.494Z" fill="#6FB74A"/>
<path d="M585.121 447.568L585.358 445.463L585.168 447L585.121 447.568Z" fill="#6FB74A"/>
<path d="M585.784 441.371L586.044 438.864L585.808 441.182L585.784 441.371Z" fill="#6FB74A"/>
<path d="M236.117 684.077L239.05 684.787L237.844 684.479L236.117 684.077Z" fill="#6FB74A"/>
<path d="M226.277 681.31L229.849 682.374L228.714 681.996L226.277 681.31Z" fill="#6FB74A"/>
<path d="M396.108 192.964C405.144 206.262 410.52 221.705 411.696 237.74C412.543 233.055 413.002 228.308 413.068 223.548C413.351 207.889 406.137 193.437 405.972 178.252C405.806 163.066 421.394 168.388 431.092 172.74C436.509 175.106 441.363 178.593 445.334 182.972C449.306 187.351 452.303 192.522 454.13 198.144C463.426 228.893 452.9 268.3 443.178 297.63C424.918 352.766 386.41 394.608 338.11 421.076C331.774 430.47 326.775 440.7 323.256 451.471C318.525 466.916 323.753 476.212 333.569 481.392C384.771 454.673 426.454 412.77 452.904 361.429C479.354 310.088 489.275 251.821 481.307 194.62C446.484 166.846 405.505 147.833 361.811 139.176C359.446 138.751 357.08 138.301 354.715 137.899L352.113 137.473C350.647 137.213 349.204 137.024 347.737 136.787L344.733 136.385L340.76 135.818L337.661 135.51L333.782 135.084L330.66 134.824C329.382 134.706 328.105 134.587 326.828 134.517L323.682 134.28C322.428 134.28 321.175 134.28 319.921 134.114L316.728 133.973L312.99 133.831H303.529C302.205 133.831 300.856 133.831 299.555 133.831H296.788L292.98 133.996H290.165H289.337L286.404 134.185L283.637 134.398C282.336 134.398 281.059 134.635 279.805 134.753L277.132 135.013C275.642 135.155 274.199 135.344 272.733 135.534L270.698 135.818C268.617 136.054 266.559 136.362 264.501 136.693L261.852 137.142C260.622 137.308 259.487 137.52 258.138 137.757L255.229 138.277L251.87 138.963L248.819 139.602L245.602 140.312L242.504 141.021L239.405 141.778L236.283 142.606L233.373 143.741L230.299 144.593L227.176 145.515L224.196 146.391C222.28 146.982 220.388 147.644 218.496 148.259L215.397 149.323L212.511 150.341L209.389 151.5L206.574 152.611L203.452 153.794L200.732 154.906L197.586 156.278L194.937 157.413L191.838 158.808L189.189 160.015L186.091 161.458L183.56 162.735L180.816 164.083C174.952 173.289 169.751 182.901 165.252 192.846C254.661 136.007 356.371 135.321 396.108 192.964Z" fill="#6FB74A"/>
<path d="M144.342 640.91L143.68 640.461C146.046 642.164 148.576 643.914 151.06 645.617C149.475 644.553 147.938 643.441 146.329 642.329L144.342 640.91Z" fill="#6FB74A"/>
<path d="M165.725 464.906C121.919 466.207 84.452 452.015 63.779 422.07C55.0812 409.274 49.7821 394.476 48.3807 379.068C41.2847 371.168 37.5238 359.483 38.9194 342.003C39.2505 337.935 39.7946 333.961 40.4332 329.987V330.177L39.6291 332.826C39.2506 334.103 38.8957 335.38 38.4936 336.681L37.7604 339.33L36.696 343.328L36.0574 345.882C35.679 347.325 35.3478 348.839 34.993 350.329L34.4962 352.458C33.9995 354.658 33.5265 356.905 33.0534 359.152C26.9434 389.953 26.0796 421.565 30.4988 452.653C62.9511 478.41 100.747 496.593 141.125 505.873C147.393 492.58 157.139 478.412 165.725 464.906Z" fill="#6FB74A"/>
<path d="M34.2132 473.776C32.8413 467.579 31.8479 461.287 30.8071 454.995C31.7769 461.311 32.8413 467.579 34.2132 473.776Z" fill="#6FB74A"/>
<path d="M89.229 588.565C90.4826 590.127 91.7127 591.664 92.9899 593.296L90.6246 590.505L89.229 588.565Z" fill="#6FB74A"/>
<path d="M93.8184 594.195C94.1968 594.668 94.6226 595.094 95.0247 595.567L94.6698 595.164L93.8184 594.195Z" fill="#6FB74A"/>
<path d="M39.4157 493.574L39.0137 492.296C39.8652 495.158 40.7404 498.02 41.6865 500.835C41.2134 499.51 40.8586 498.162 40.4328 496.79L39.4157 493.574Z" fill="#6FB74A"/>
<path d="M111.607 613.33L110.637 612.408C113.003 614.773 115.368 616.926 117.733 619.102L115.983 617.422C114.469 616.098 113.026 614.726 111.607 613.33Z" fill="#6FB74A"/>
<path d="M117.969 619.433L120.003 621.278L119.08 620.379L117.969 619.433Z" fill="#6FB74A"/>
<path d="M122.96 623.904L121.115 622.271C122.487 623.525 123.93 624.779 125.349 626.009L124.497 625.228L122.96 623.904Z" fill="#6FB74A"/>
<path d="M106.994 608.718L109.927 611.698L108.555 610.255L106.994 608.718Z" fill="#6FB74A"/>
<path d="M104.415 605.998L104.061 605.643L105.953 607.677L104.676 606.258L104.415 605.998Z" fill="#6FB74A"/>
<path d="M42.5138 503.39L41.8042 501.403C42.7976 504.407 43.8621 507.411 44.9501 510.367C44.5244 509.208 44.1222 508.002 43.7201 506.819C43.318 505.637 42.8922 504.549 42.5138 503.39Z" fill="#6FB74A"/>
<path d="M70.4961 562.239L70.567 562.381L70.5198 562.263L70.4961 562.239Z" fill="#6FB74A"/>
<path d="M87.4805 586.413L88.5921 587.785L88.2374 587.312L87.4805 586.413Z" fill="#6FB74A"/>
<path d="M64.4414 552.092C64.7726 552.683 65.08 553.275 65.4348 553.866L65.2692 553.535L64.4414 552.092Z" fill="#6FB74A"/>
<path d="M56.7056 537.592C57.7227 539.627 58.7397 541.637 59.7805 543.648L58.6925 541.519C58.0302 540.194 57.3679 538.941 56.7056 537.592Z" fill="#6FB74A"/>
<path d="M48.6416 519.829L50.6284 524.56L49.8715 522.738L48.6416 519.829Z" fill="#6FB74A"/>
<path d="M46.015 513.064L44.9507 510.415C46.0387 513.277 47.1504 516.092 48.2857 518.977L47.3632 516.612C46.9059 515.429 46.4565 514.247 46.015 513.064Z" fill="#6FB74A"/>
<path d="M179.608 662.458L182.375 663.854L181.311 663.286L179.608 662.458Z" fill="#6FB74A"/>
<path d="M214.592 677.454L215.562 677.786L215.041 677.62L214.592 677.454Z" fill="#6FB74A"/>
<path d="M183.796 664.563L184.979 665.131L184.199 664.729L183.796 664.563Z" fill="#6FB74A"/>
<path d="M191.53 668.23L193.895 669.294L192.902 668.845L191.53 668.23Z" fill="#6FB74A"/>
<path d="M185.711 665.51L188.407 666.787L187.58 666.338L185.711 665.51Z" fill="#6FB74A"/>
<path d="M204.398 673.694L207.26 674.782L206.006 674.285L204.398 673.694Z" fill="#6FB74A"/>
<path d="M195.763 670.075L197.561 670.855L197.111 670.619L195.763 670.075Z" fill="#6FB74A"/>
<path d="M136.962 635.423L136.111 634.76L139.848 637.599L139.115 637.007L136.962 635.423Z" fill="#6FB74A"/>
<path d="M131.852 631.354L131.119 630.786C132.42 631.827 133.72 632.915 135.045 633.956L134.738 633.672L131.852 631.354Z" fill="#6FB74A"/>
<path d="M152.148 646.327C154.277 647.722 156.429 649.141 158.605 650.513C156.808 649.354 154.986 648.148 153.212 646.942L152.148 646.327Z" fill="#6FB74A"/>
<path d="M126.483 626.955L127.264 627.641L126.767 627.168L126.483 626.955Z" fill="#6FB74A"/>
<path d="M76.5039 571.464C78.0177 573.64 79.6025 575.84 81.2346 578.04C79.91 576.242 78.6564 574.468 77.4027 572.599L76.5039 571.464Z" fill="#6FB74A"/>
<path d="M586.636 395.625L586.47 392.976L586.494 393.355L586.636 395.625Z" fill="#6FB74A"/>
<path d="M586.824 398.511L586.729 396.926L586.777 397.92L586.824 398.511Z" fill="#6FB74A"/>
<path d="M586.398 391.935V392.172L586.232 389.83V390.209L586.398 391.935Z" fill="#6FB74A"/>
<path d="M568.872 314.045C568.304 312.531 567.689 311.018 567.074 309.504C567.595 310.828 568.139 312.153 568.659 313.525L568.872 314.045Z" fill="#6FB74A"/>
<path d="M583.843 370.056L583.583 368.471L583.63 368.897L583.843 370.056Z" fill="#6FB74A"/>
<path d="M584.246 372.823L583.844 370.174L584.08 371.759L584.246 372.823Z" fill="#6FB74A"/>
<path d="M580.153 350.968C579.728 349.218 579.278 347.396 578.853 345.599L579.846 349.785L580.153 350.968Z" fill="#6FB74A"/>
<path d="M574.691 330.957L575.141 332.211C574.265 329.443 573.39 326.676 572.468 323.932L573.154 326.108C573.698 327.716 574.194 329.301 574.691 330.957Z" fill="#6FB74A"/>
<path d="M577.646 340.986L577.457 340.348L577.575 340.726L577.646 340.986Z" fill="#6FB74A"/>
<path d="M560.263 293.892L558.371 289.942L558.82 290.936C559.317 291.906 559.79 292.899 560.263 293.892Z" fill="#6FB74A"/>
<path d="M571.141 320.219L569.58 315.819L569.935 316.907C570.361 318.019 570.739 319.13 571.141 320.219Z" fill="#6FB74A"/>
<path d="M585.619 383.538C585.619 382.64 585.429 381.764 585.311 380.842V381.008L585.619 383.538Z" fill="#6FB74A"/>
<path d="M578.807 345.457L578.074 342.618L578.405 343.896L578.807 345.457Z" fill="#6FB74A"/>
<path d="M581.953 359.578C581.692 358.253 581.409 356.976 581.148 355.675C581.361 356.739 581.598 357.827 581.811 358.868L581.953 359.578Z" fill="#6FB74A"/>
<path d="M179.372 152.375H179.349L180.271 151.949L181.809 150.837L179.278 152.067V152.446L179.372 152.375Z" fill="#1E5F2B"/>
<path d="M131.996 189.889C137.625 184.543 143.254 179.292 148.813 174.183L148.979 174.041C152.006 171.25 155.01 168.53 157.99 165.762L161.113 162.9L160.971 161.883C148.227 169.293 136.059 177.65 124.568 186.885L126.934 194.785C128.495 193.2 130.103 191.686 131.664 190.054L131.996 189.889Z" fill="#1E5F2B"/>
<path d="M440.86 154.551C403.044 135.088 361.423 124.144 318.925 122.489C276.426 120.834 234.081 128.508 194.865 144.971C190.75 146.722 186.658 148.543 182.613 150.482L182.093 151.121L193.919 145.586C189.181 151.516 184.79 157.716 180.768 164.154L183.512 162.806L186.043 161.529L189.141 160.086L191.791 158.879L194.889 157.484L197.538 156.348L200.684 154.976L203.404 153.865L206.527 152.682L209.341 151.57L212.464 150.411L215.349 149.394L218.448 148.33C220.34 147.715 222.232 147.053 224.148 146.461L227.129 145.586L230.251 144.664L233.373 143.741L236.448 142.913L239.57 142.085L242.669 141.328L245.767 140.619L248.984 139.909L252.036 139.271L255.394 138.585L258.304 138.064C259.557 137.828 260.787 137.615 262.017 137.449L264.666 137C266.724 136.669 268.782 136.361 270.864 136.125L272.898 135.841C274.364 135.652 275.807 135.463 277.297 135.321L279.97 135.06C281.224 134.942 282.501 134.8 283.802 134.706L286.569 134.493L289.502 134.304H290.33H293.145L296.953 134.138H299.721C301.022 134.138 302.37 134.138 303.694 134.138H313.156L316.893 134.28L320.086 134.422C321.34 134.422 322.593 134.564 323.847 134.587L326.993 134.824C328.27 134.824 329.547 135.013 330.825 135.131L333.947 135.391L337.826 135.817L340.925 136.125L344.898 136.693L347.902 137.095C349.369 137.331 350.812 137.52 352.278 137.78L354.88 138.206C357.245 138.608 359.611 139.058 361.976 139.484C405.67 148.14 446.649 167.153 481.473 194.927C481.484 194.849 481.484 194.769 481.473 194.69C483.838 196.559 486.038 198.38 488.261 200.296L489.373 201.195C493.867 205.098 498.267 209.095 502.5 213.235L503.352 214.062C505.221 215.884 507.089 217.776 508.934 219.692L509.738 220.52C511.796 222.672 513.854 224.896 515.841 227.143C517.733 229.248 519.602 231.448 521.447 233.6L522.417 234.806C523.363 235.942 524.238 237.172 525.184 238.331C526.13 239.49 526.863 240.483 527.691 241.548C529.536 243.913 531.452 246.278 533.226 248.644L534.054 249.803C535.568 251.861 537.011 253.942 538.477 256.071L539.21 257.159C540.866 259.524 542.474 262.031 543.941 264.539L544.225 264.988C545.668 267.353 547.063 269.719 548.459 271.918L549.334 273.432C551.96 277.95 554.419 282.562 556.808 287.246L557.069 287.79L557.589 288.76L558.322 290.25L560.214 294.2C560.427 294.673 560.664 295.146 560.877 295.595L561.515 296.944L562.13 298.292L562.982 300.231C563.597 301.603 564.188 302.975 564.78 304.347L565.726 306.571L565.986 307.185L566.199 307.682C566.483 308.392 566.743 309.101 567.027 309.787C567.642 311.301 568.257 312.815 568.824 314.329L569.534 316.126L571.095 320.526C571.284 321.094 571.497 321.638 571.686 322.205L572.396 324.216C573.318 326.96 574.194 329.727 575.069 332.495L575.495 333.961L575.613 334.387L575.755 334.836C576.251 336.516 576.748 338.195 577.198 339.851L577.387 340.56L577.576 341.199L578.002 342.831L578.735 345.669V345.811C579.161 347.609 579.61 349.43 580.036 351.181L580.32 352.553L580.509 353.428C580.698 354.256 580.864 355.084 581.029 355.793C581.29 357.094 581.573 358.371 581.834 359.696L582.023 360.642L582.259 361.872C582.591 363.622 582.922 365.349 583.206 367.123L583.466 368.589L583.726 370.174V370.293L584.128 372.942L584.388 374.763V375.567L584.554 376.868L584.79 378.737V379.588L584.98 381.031C585.098 381.954 585.192 382.829 585.287 383.728V384.555V385.123L585.429 386.59V387.867V388.837V389.949L585.594 392.314V393.118L585.76 395.767V397.068V398.653V399.788V401.491V403.454C585.76 404.661 585.76 405.82 585.76 407.026V408.28V419.752C585.76 420.958 585.76 422.117 585.76 423.3V424.837V426.091V426.209V427.605L585.642 429.639L585.476 432.359V433.636L585.311 435.599L585.121 438.13V438.722V439.005L584.861 441.513L584.696 443.358L584.435 445.605L584.175 447.71L584.01 448.94L583.797 450.714L583.56 452.393L583.182 454.995L582.803 457.479L582.638 458.448L582.283 460.601L582.141 461.571C581.739 463.747 581.337 465.923 580.911 468.146C580.485 470.37 579.965 472.593 579.492 474.84L578.995 476.993L577.931 481.416L577.292 483.923C576.937 485.319 576.583 486.62 576.204 487.968L575.471 490.593C575.116 491.894 574.714 493.195 574.336 494.472L573.555 497.098C573.153 498.399 572.727 499.676 572.301 500.977L571.473 503.484L570.054 507.553L569.274 509.776C568.659 511.455 568.02 513.159 567.381 514.862L566.932 515.95C566.152 518.007 565.324 520.065 564.567 522.052L563.762 523.921C563.171 525.316 562.58 526.688 561.965 528.084L560.877 530.449C560.333 531.655 559.789 532.815 559.221 534.092L558.015 536.457C557.447 537.64 556.903 538.822 556.312 539.934L555.058 542.299L553.284 545.658L551.983 548.023L550.067 551.453L548.814 553.677L546.448 557.556L545.431 559.259C544.343 561.056 543.208 562.83 542.072 564.604L540.913 566.402C540.133 567.608 539.329 568.768 538.548 569.997L537.034 572.174L534.905 575.248L533.226 577.614L531.121 580.476L529.371 582.841L527.242 585.632L525.42 587.998L523.197 590.741L521.399 592.965L518.892 595.874L517.662 597.27C523.558 594.135 529.19 590.528 534.503 586.484V586.484C535.875 585.443 537.223 584.331 538.524 583.267L539.825 582.203L542.546 579.837L543.894 578.631L546.425 576.266L547.584 575.178C548.766 573.971 549.949 572.812 550.99 571.63C549.547 573.995 548.009 576.171 546.448 578.347V578.513L545.739 579.624L545.076 580.452L544.532 581.209C543.066 583.22 541.576 585.207 540.015 587.099L538.69 588.66C537.082 590.576 535.449 592.515 533.746 594.337L532.351 595.803C530.648 597.624 528.897 599.446 527.1 601.243C519.12 609.01 510.495 616.084 501.318 622.389L501.72 622.153L500.04 623.265C498.479 624.329 496.871 625.393 495.31 626.411C494.151 627.167 492.945 627.901 491.833 628.61C490.201 629.627 488.545 630.621 486.889 631.614L483.365 633.625C481.638 634.547 479.959 635.517 478.232 636.392C477.05 637.007 475.867 637.693 474.66 638.261L471.278 639.917L468.676 641.762L466.311 643.465L463.52 645.381L461.154 647.06L458.34 648.858L455.809 650.513L453.349 652.287L450.865 653.825L447.814 655.646L445.449 657.018C444.195 657.704 443.083 658.413 441.759 659.052L439.89 660.069C438.092 661.063 436.271 662.032 434.45 662.931L432.085 664.067L428.655 665.746L426.124 666.929L422.883 668.419L420.282 669.602L417.041 671.021L414.415 672.156L411.128 673.481L408.479 674.521L405.001 675.799L402.636 676.792C401.288 677.241 399.916 677.738 398.568 678.164L396.628 678.85L390.668 680.789L388.752 681.381C387.356 681.783 385.961 682.232 384.565 682.587L382.2 683.32L378.463 684.29L375.837 685L372.194 685.875L369.522 686.49C368.292 686.798 367.156 687.058 365.855 687.318L363.23 687.838C361.953 688.122 360.652 688.359 359.351 688.619L356.867 689.068C355.424 689.352 353.958 689.565 352.491 689.825L350.528 690.133C348.423 690.464 346.27 690.795 344.165 691.031L342.983 691.197L337.684 691.836L335.319 692.048C333.947 692.19 332.528 692.356 331.109 692.474L328.554 692.663C327.229 692.782 325.905 692.853 324.58 692.9L321.931 693.066L317.957 693.231H315.308C313.984 693.231 312.612 693.231 311.263 693.231H301.802C300.548 693.231 299.295 693.231 298.041 693.089H294.895L291.016 692.853L287.989 692.687C286.617 692.545 285.268 692.474 283.92 692.332L281.058 692.072C279.615 692.072 278.173 691.788 276.753 691.599L274.104 691.339L269.515 690.724L267.15 690.416C265.4 690.156 263.697 689.872 261.946 689.541L260.125 689.281L253.029 688.004C249.765 687.365 246.501 686.656 243.308 685.899L242.338 685.638L240.114 685.094L239.073 684.811L236.14 684.101L233.775 683.439L232.64 683.108L231.907 682.942L231.41 682.8L229.991 682.398L226.419 681.334L225.615 681.073L224.385 680.719L223.888 680.553L221.783 679.914L221.405 679.749L219.678 679.205L217.525 678.472L215.633 677.809L214.663 677.478L212.889 676.863L211.47 676.343L210.997 676.201L209.01 675.444L207.331 674.805L204.469 673.717L202.86 673.031L201.891 672.676L200.377 672.061L199.691 671.778L199.289 671.588L197.68 670.902L195.883 670.122L194.014 669.341L191.649 668.277L190.75 667.875L190.49 667.733L188.905 667L188.526 666.834L185.83 665.557L185.097 665.178L183.914 664.611L182.495 663.901L179.727 662.506L179.254 662.245L178.285 661.772L177.764 661.488L175.943 660.519H175.777L175.47 660.353L175.044 660.117L172.679 658.768L171.094 657.869L169.959 657.231L169.249 656.829L167.57 655.906L164.968 654.345L163.596 653.494L161.231 652.098L160.308 651.53L158.841 650.632C156.665 649.26 154.513 647.841 152.384 646.445L151.604 645.948L151.296 645.735C148.812 644.032 146.353 642.282 143.916 640.579L143.183 640.035L140.818 638.214L140.155 637.717L136.418 634.878L135.354 634.074C134.029 633.033 132.728 631.945 131.427 630.905L130.15 629.864L128.329 628.374L127.572 627.759L126.791 627.073L125.656 626.103C124.237 624.873 122.794 623.738 121.422 622.366L120.31 621.396L118.276 619.551L117.945 619.22C115.58 617.044 113.214 614.773 110.849 612.526L110.139 611.817L107.206 608.836L106.166 607.795L104.273 605.761L102.618 603.987L101.695 603.017C100.347 601.504 99.0223 600.037 97.6978 598.523L95.3324 595.709C94.9303 595.236 94.5045 594.81 94.1261 594.337L93.2746 593.343C91.9973 591.806 90.7673 590.268 89.5137 588.613L88.875 587.832L87.7633 586.46L87.5977 586.224C86.5097 584.852 85.4927 583.456 84.4283 582.037L82.3231 579.293L82.0156 578.82L81.4716 578.087C79.8868 575.887 78.3021 573.687 76.741 571.511L76.4098 570.967L76.0312 570.423C74.2809 567.845 72.5779 565.243 70.9222 562.594L70.804 562.428V562.286L70.4254 561.671C69.0062 559.424 67.6107 557.177 66.2624 554.836L65.7658 553.984C65.411 553.393 65.1034 552.801 64.7722 552.21L64.1574 551.146C62.9511 549.017 61.792 546.865 60.6094 544.712L60.3019 544.097L60.1126 543.766C59.0719 541.755 58.0548 539.745 57.0377 537.711L56.5883 536.788L55.997 535.582L54.4358 532.223C53.4896 530.26 52.5908 528.226 51.6684 526.239L51.077 524.914V524.583L49.0902 519.852L48.7354 519.001C47.6 516.115 46.3701 513.301 45.4003 510.438C44.3123 507.482 43.2478 504.478 42.2544 501.474L42.0888 500.906C41.1427 498.091 40.2675 495.229 39.416 492.367L39.2267 491.729C38.73 489.978 38.2806 488.181 37.7839 486.478L37.0506 483.734L36.7195 482.551C35.9625 479.689 35.2766 476.78 34.6143 473.894C33.2424 467.697 32.2491 461.429 31.2083 455.113C31.0901 454.309 30.9007 453.505 30.7825 452.748C26.3633 421.659 27.227 390.047 33.337 359.246C33.8101 356.881 34.2831 354.752 34.7799 352.553L35.2766 350.424C35.6314 348.934 35.9626 347.42 36.3411 345.977L36.9796 343.422L38.044 339.425L38.7773 336.776C39.1794 335.475 39.5343 334.198 39.9127 332.92L40.7169 330.271V330.082C47.4344 290.203 70.5911 255.385 98.4547 224.399C101.057 221.513 103.682 218.659 106.331 215.836L106.922 215.269C109.666 212.383 112.434 209.497 115.225 206.659L111.109 198.83C65.4648 240.668 34.3586 295.976 22.3151 356.712C10.2717 417.447 17.919 480.441 44.145 536.53C70.371 592.619 113.808 638.879 168.137 668.58C222.466 698.281 284.854 709.874 346.227 701.674C407.599 693.473 464.754 665.906 509.38 622.983C554.005 580.06 583.772 524.019 594.352 463.011C604.931 402.004 595.771 339.213 568.204 283.77C540.637 228.328 496.1 183.126 441.073 154.74L440.86 154.551Z" fill="#1E5F2B"/>
<path d="M101.46 602.876L102.382 603.845L102.406 603.869L101.46 602.876Z" fill="#5AB032"/>
<path d="M218.708 678.874L219.606 679.181L221.333 679.725L220.269 679.347L218.708 678.874Z" fill="#5AB032"/>
<path d="M88.2354 587.312L88.5901 587.785L89.2051 588.589L90.7189 590.41L88.2354 587.312Z" fill="#5AB032"/>
<path d="M49.8706 522.643L50.6275 524.465V524.796L51.2189 526.12C50.8641 524.961 50.3437 523.826 49.8706 522.643Z" fill="#5AB032"/>
<path d="M76.1733 570.92L76.5045 571.464L77.356 572.599L76.1733 570.92Z" fill="#5AB032"/>
<path d="M58.6943 541.519L59.7823 543.648L59.9716 543.979L60.2791 544.594L58.6943 541.519Z" fill="#5AB032"/>
<path d="M70.0938 561.553L70.4723 562.168L70.496 562.239L70.5196 562.263L70.0938 561.553Z" fill="#5AB032"/>
<path d="M111.181 612.881L110.141 611.887L108.556 610.255L109.928 611.698L110.637 612.408L111.607 613.33L111.181 612.881Z" fill="#5AB032"/>
<path d="M229.919 682.327L228.784 681.996L229.919 682.374L231.338 682.777L231.835 682.919L229.919 682.327Z" fill="#5AB032"/>
<path d="M584.932 448.821L585.121 447.568L585.169 447L584.932 448.821Z" fill="#5AB032"/>
<path d="M197.609 670.879L199.218 671.565L199.62 671.754L197.609 670.879Z" fill="#5AB032"/>
<path d="M187.579 666.337L188.407 666.787L188.785 666.952L188.431 666.787L187.579 666.337Z" fill="#5AB032"/>
<path d="M179.964 662.6L178.167 661.725L179.136 662.198L179.609 662.458L181.312 663.286L179.964 662.6Z" fill="#5AB032"/>
<path d="M171.827 658.272L169.722 657.113L170.857 657.775L172.442 658.65L171.827 658.272Z" fill="#5AB032"/>
<path d="M124.757 625.441L124.497 625.204L125.348 625.985L126.484 626.955L126.767 627.168L124.757 625.441Z" fill="#5AB032"/>
<path d="M152.124 646.279L151.959 646.185L151.367 645.83L152.148 646.327L153.212 646.942L152.124 646.279Z" fill="#5AB032"/>
<path d="M117.874 619.267L116.384 617.872L115.887 617.422L117.638 619.125L117.969 619.433L119.08 620.379L117.874 619.267Z" fill="#5AB032"/>
<path d="M160.071 651.412L160.994 651.98L163.359 653.375L160.071 651.412Z" fill="#5AB032"/>
<path d="M39.4172 486.407C50.1764 505.943 63.2049 524.14 78.2322 540.62C101.984 559.261 128.611 573.913 157.069 584C153.384 576.841 151.747 568.803 152.338 560.773C152.338 559.235 152.598 557.556 152.811 555.853C129.678 544.712 131.334 526.286 140.984 505.873C100.623 496.586 62.8437 478.404 30.4053 452.653V452.653C30.5235 453.458 30.7127 454.262 30.831 455.019C31.7771 461.31 32.8652 467.602 34.2371 473.799C34.8994 476.685 35.5854 479.595 36.3423 482.457C37.3594 483.828 38.4474 485.129 39.4172 486.407Z" fill="#5AB032"/>
<path d="M268.049 575.248C262.301 568.791 248.818 568.862 241.297 568.294C227.672 567.183 213.977 566.97 200.376 565.929C202.051 567.066 203.789 568.109 205.58 569.051C226.916 580.074 247.092 580.783 268.049 575.248Z" fill="#5AB032"/>
<path d="M558.819 290.936L558.37 289.942L557.637 288.452L557.116 287.482C557.708 288.641 558.275 289.8 558.819 290.936Z" fill="#5AB032"/>
<path d="M585.31 380.913L585.121 379.446L585.31 381.079V380.913Z" fill="#5AB032"/>
<path d="M584.081 371.759L583.845 370.174V370.056L583.632 368.897L584.081 371.759Z" fill="#5AB032"/>
<path d="M556.856 286.986C554.491 282.255 552.126 277.69 549.382 273.172L548.507 271.658C547.111 269.293 545.716 266.928 544.273 264.728L543.989 264.279C542.428 261.771 540.82 259.359 539.258 256.899L538.525 255.811C537.059 253.682 535.616 251.6 534.102 249.542L533.274 248.383C531.5 246.018 529.584 243.653 527.739 241.287C538.949 255.596 548.748 270.955 556.998 287.151L556.856 286.986Z" fill="#5AB032"/>
<path d="M478.658 287.813C470.55 328.893 453.304 367.622 428.197 401.131C403.089 434.641 370.764 462.072 333.616 481.392C341.871 485.886 353.366 487.4 364.862 487.305C378.065 471.166 392.912 456.445 409.164 443.381C432.108 425.334 477.522 393.331 508.508 410.054C510.657 411.187 512.666 412.568 514.492 414.169C519.018 401.357 522.615 388.234 525.255 374.905C535.285 324.755 531.299 272.81 513.736 224.777C517.662 229.082 521.423 233.553 525.089 238.094C524.143 236.911 523.268 235.729 522.322 234.57L521.352 233.363C519.507 231.211 517.638 229.011 515.746 226.906C513.759 224.541 511.701 222.436 509.644 220.283L508.839 219.455C506.995 217.539 505.126 215.647 503.257 213.826L502.406 212.998C498.172 208.859 493.772 204.861 489.278 200.958L488.166 200.06C485.943 198.144 483.672 196.322 481.378 194.454C481.39 194.532 481.39 194.612 481.378 194.69C485.709 225.664 484.79 257.145 478.658 287.813V287.813Z" fill="#5AB032"/>
<path d="M586.232 389.83L586.114 388.719L586.232 390.209V389.83Z" fill="#5AB032"/>
<path d="M573.152 326.108L572.466 323.932L571.756 321.922C572.206 323.317 572.703 324.689 573.152 326.108Z" fill="#5AB032"/>
<path d="M575.541 333.677L575.139 332.211L574.69 330.957L575.541 333.677Z" fill="#5AB032"/>
<path d="M586.872 399.552V399.646L586.825 398.511L586.777 397.92L586.872 399.552Z" fill="#5AB032"/>
<path d="M587.156 418.427V419.302L587.18 418.474V418.356V417.812L587.156 418.427Z" fill="#5AB032"/>
<path d="M580.629 353.215L580.439 352.34L580.156 350.968L579.848 349.785C580.108 350.897 580.369 352.056 580.629 353.215Z" fill="#5AB032"/>
<path d="M578.403 343.895L578.072 342.618L577.646 340.986L577.575 340.726L578.403 343.895Z" fill="#5AB032"/>
<path d="M569.936 316.907L569.581 315.819L568.872 314.021L568.659 313.501C569.108 314.636 569.534 315.748 569.936 316.907Z" fill="#5AB032"/>
<path d="M581.927 359.412L582.069 360.216L582.14 360.524L581.951 359.577L581.809 358.868L581.927 359.412Z" fill="#5AB032"/>
<path d="M566.246 307.375L566.034 306.878L565.773 306.263L566.246 307.375Z" fill="#5AB032"/>
<path d="M563.03 299.853L562.179 297.914L561.564 296.565L560.925 295.217C561.635 296.826 562.345 298.339 563.03 299.853Z" fill="#5AB032"/>
<path d="M583.56 458.307L583.726 457.337L583.56 458.283V458.307Z" fill="#5AB032"/>
<path d="M171.875 658.272L172.49 658.65L174.855 659.998L175.281 660.235L175.588 660.4L171.875 658.272Z" fill="#41AB34"/>
<path d="M197.112 670.619L197.562 670.855L199.572 671.73L200.258 672.014L201.772 672.629L197.112 670.619Z" fill="#41AB34"/>
<path d="M188.432 666.787L188.787 666.952L190.372 667.686L190.632 667.828L191.531 668.23L192.903 668.845L188.432 666.787Z" fill="#41AB34"/>
<path d="M179.964 662.6L181.312 663.31L182.377 663.854L183.796 664.563L184.198 664.729C182.755 664.114 181.336 663.31 179.964 662.6Z" fill="#41AB34"/>
<path d="M585.618 443.216L585.784 441.371L585.807 441.182L585.618 443.216Z" fill="#41AB34"/>
<path d="M586.304 435.457L586.47 433.494L586.493 433.281L586.304 435.457Z" fill="#41AB34"/>
<path d="M587.18 417.812V417.694L587.204 416.227L587.156 418.427L587.18 417.812Z" fill="#41AB34"/>
<path d="M586.493 393.354L586.469 392.976L586.398 392.172V391.935L586.493 393.354Z" fill="#41AB34"/>
<path d="M233.704 683.415L236.069 684.077L237.796 684.479L233.704 683.415Z" fill="#41AB34"/>
<path d="M157.139 584C128.681 573.913 102.054 559.261 78.3027 540.62C118.476 584.702 171.738 614.725 230.252 626.269C235.881 627.333 241.463 628.303 247.069 629.036C218.236 623.359 184.151 613.662 163.762 593.154C161.113 590.448 158.881 587.363 157.139 584V584Z" fill="#41AB34"/>
<path d="M525.301 374.905C522.661 388.235 519.064 401.357 514.539 414.17C526.744 424.908 526.531 442.814 521.635 460.625C531.877 471.836 520.665 497.642 508.389 519.758C532.997 486.891 550.088 449.021 558.455 408.824C566.821 368.627 566.259 327.083 556.807 287.128C548.557 270.931 538.758 255.572 527.548 241.264C526.72 240.199 525.893 239.111 525.041 238.047C521.375 233.505 517.614 229.035 513.687 224.73C531.291 272.769 535.31 324.731 525.301 374.905V374.905Z" fill="#41AB34"/>
<path d="M229.92 682.327L224.314 680.695L225.544 681.05L226.348 681.31L228.714 681.996L229.92 682.327Z" fill="#41AB34"/>
<path d="M220.269 679.347C218.519 678.802 216.792 678.235 215.042 677.62L215.562 677.785L217.455 678.448L218.708 678.873L220.269 679.347Z" fill="#41AB34"/>
<path d="M206.005 674.285L207.259 674.782L208.938 675.42L210.925 676.177L206.005 674.285Z" fill="#41AB34"/>
<path d="M556.902 287.175C566.357 327.134 566.921 368.683 558.555 408.884C550.188 449.085 533.095 486.959 508.484 519.829C500.323 534.541 491.713 547.621 488.662 553.677C482.323 566.26 462.643 607.488 493.393 605.383C502.245 604.384 510.8 601.591 518.536 597.175L519.766 595.779L522.274 592.87L524.071 590.647L526.295 587.903L528.116 585.538L530.245 582.746L531.995 580.381L534.1 577.519L535.779 575.154L537.908 572.079L539.422 569.903C540.226 568.696 541.031 567.538 541.787 566.308L542.946 564.51C544.082 562.736 545.312 560.962 546.305 559.164L547.322 557.461L549.688 553.582L550.941 551.359L552.857 547.929L554.158 545.564L555.932 542.205L557.186 539.84C557.777 538.68 558.321 537.474 558.889 536.362L560.095 533.997C560.663 532.791 561.207 531.632 561.751 530.355L562.839 527.989C563.454 526.594 564.045 525.222 564.637 523.826L565.441 521.958C566.292 519.971 567.12 517.913 567.806 515.855L568.256 514.767C568.894 513.064 569.533 511.361 570.148 509.682L570.928 507.458L572.348 503.39L573.175 500.882C573.601 499.582 574.027 498.304 574.429 497.003L575.21 494.378C575.588 493.1 575.99 491.8 576.345 490.499L577.078 487.873C577.457 486.525 577.812 485.224 578.166 483.828L578.805 481.321L579.869 476.898L580.366 474.746C580.839 472.498 581.336 470.299 581.785 468.052C582.235 465.805 582.613 463.652 583.015 461.476L583.157 460.506L583.512 458.354L583.677 457.431L584.056 454.948L584.434 452.346L584.671 450.667L584.884 448.893L585.12 447.095L585.31 445.557L585.57 443.31L585.759 441.276L585.996 438.911V438.627V438.036L586.185 435.505L586.374 433.329V432.264L586.54 429.544L586.658 427.51V426.114V425.996V424.742V423.205C586.658 422.022 586.658 420.84 586.658 419.657V418.474V416.275V408.185V406.932C586.658 405.725 586.658 404.566 586.658 403.36V401.397V399.694V398.062V397.068V395.767L586.516 393.402V391.983L586.35 390.256V388.766V387.796V386.519L585.806 385.005V384.437V383.609L585.499 381.244L585.31 379.636V378.784L585.073 376.916L584.907 375.615V374.81L584.647 372.989L584.482 371.925L584.032 369.063V368.637L583.772 367.17C583.488 365.396 583.157 363.67 582.826 361.919L582.589 360.689V360.382L582.448 359.578L582.329 359.034C582.116 357.993 581.88 356.905 581.667 355.84C581.454 354.776 581.336 354.208 581.147 353.475C580.957 352.742 580.626 351.11 580.366 350.045L579.373 345.859V345.717L578.97 344.156L578.143 340.986V340.608L577.953 339.898C577.504 338.242 577.007 336.563 576.511 334.884L576.369 334.434L576.25 334.008L575.375 331.288C574.879 329.632 574.382 328.048 573.838 326.558C573.294 325.067 572.892 323.767 572.419 322.347C572.229 321.78 572.016 321.236 571.827 320.668C571.425 319.58 571.047 318.468 570.621 317.357C570.195 316.245 569.793 314.991 569.344 313.95C568.894 312.91 568.279 311.254 567.759 309.929C567.475 309.243 567.215 308.534 566.931 307.824L566.458 306.713L565.512 304.489C564.92 303.117 564.329 301.745 563.714 300.373C563.099 299.001 562.319 297.275 561.609 295.643C561.396 295.193 561.16 294.72 560.947 294.247C560.474 293.254 560.001 292.26 559.504 291.291C559.007 290.321 558.392 288.925 557.801 287.837L557.541 287.293L556.902 287.175Z" fill="#1E5F2B"/>
<path d="M469.907 640.816C468.724 641.36 467.542 641.951 466.335 642.471C464.514 643.323 462.669 644.103 460.824 644.836L457.371 646.303C455.431 647.131 453.491 647.888 451.552 648.668L448.288 649.969C446.159 650.774 444.03 651.483 441.878 652.193L439.134 653.21C436.059 654.203 433.008 655.149 429.933 656.048C394.689 666.479 357.672 673.575 320.891 674.096C300.289 674.474 268.854 674.663 253.739 657.538C246.288 649.212 246.336 639.065 249.009 629.32L246.998 628.894C241.392 628.161 235.81 627.191 230.181 626.127C171.673 614.596 118.411 584.59 78.2317 540.525C63.2105 524.075 50.1822 505.91 39.4167 486.407C38.3759 485.129 37.2878 483.828 36.2471 482.527L36.5783 483.71L37.3115 486.454C37.8082 488.157 38.2576 489.955 38.7543 491.705L38.9436 492.344L39.3456 493.621L40.3629 496.838C40.7886 498.21 41.1434 499.558 41.6164 500.882L41.782 501.45L42.4916 503.437C42.87 504.596 43.2958 505.802 43.6979 506.867C44.1 507.931 44.5022 509.232 44.9279 510.415L45.9924 513.064C46.4497 514.247 46.8989 515.406 47.3405 516.541L48.263 518.906L48.6178 519.758L49.8477 522.573C50.3208 523.755 50.8413 524.938 51.3144 526.05C52.2368 528.036 53.1356 530.071 54.0818 532.034L55.6428 535.393L56.2341 536.599L56.6836 537.521C57.3459 538.87 58.0082 540.123 58.6705 541.448L60.2552 544.523C61.4142 546.675 62.6206 548.828 63.8032 550.956L64.4182 552.021L65.246 553.464L65.4116 553.795L65.9084 554.646C67.2566 557.012 68.6522 559.235 70.0714 561.482L70.4972 562.192L70.6154 562.357C72.2711 565.007 73.9741 567.608 75.7244 570.187L76.103 570.731L77.2856 572.41C78.5393 574.279 79.7929 576.053 81.1175 577.85L81.6614 578.584L81.969 579.057L84.0741 581.8C85.1385 583.22 86.1555 584.615 87.2436 585.987L87.4092 586.224L88.1661 587.146L90.6497 590.221L93.015 593.012L93.8666 594.006L94.7181 594.975L95.073 595.377L97.4383 598.192C98.7629 599.706 100.087 601.173 101.436 602.686L102.382 603.68L104.038 605.454L104.392 605.832L104.653 606.069L105.93 607.488L106.971 608.529L108.532 610.066L110.116 611.698L111.157 612.692L111.583 613.141C113.002 614.537 114.445 615.909 115.864 617.233L116.361 617.683L117.851 619.078L119.057 620.19L119.98 621.089L121.092 622.058L122.936 623.69L124.474 625.015L124.734 625.252L126.768 626.978L127.241 627.451L127.998 628.066L129.82 629.557L131.097 630.597L131.83 631.165L134.716 633.53L135.023 633.814L136.088 634.618L136.939 635.281L139.092 636.865L139.825 637.457L140.487 637.953L142.853 639.775L143.586 640.319L144.248 640.768L146.259 642.187C147.843 643.299 149.381 644.411 150.989 645.475L151.297 645.688L151.888 646.043H152.054L153.142 646.705C154.916 647.959 156.737 649.071 158.535 650.277L160.001 651.176L163.289 653.139L164.661 653.99L167.263 655.551L168.942 656.474L169.652 656.876L171.757 658.035L175.589 660.164H175.754L177.576 661.134L178.096 661.417L179.894 662.293C181.289 663.002 182.685 663.736 184.128 664.421L184.908 664.824L185.641 665.202L187.51 666.03L188.361 666.479L192.832 668.537L193.826 668.987L195.694 669.767L197.042 670.311L201.773 672.345L202.743 672.7L204.351 673.386L205.96 673.977L210.879 675.87L211.353 676.012L212.772 676.532L214.546 677.147L214.995 677.313C216.745 677.928 218.472 678.495 220.223 679.039L221.287 679.418H221.5H221.665L223.771 680.056L224.267 680.222L229.873 681.854L231.789 682.445L232.522 682.611L233.658 682.942L237.797 684.006L239.003 684.314L240.044 684.598L242.267 685.142L243.237 685.402C246.43 686.159 249.695 686.868 252.959 687.507L260.055 688.784L261.876 689.045C263.626 689.376 265.329 689.659 267.08 689.92L269.445 690.227L274.034 690.842L276.683 691.102C278.102 691.292 279.545 691.457 280.988 691.575L283.85 691.836C285.198 691.977 286.546 692.049 287.918 692.19L290.946 692.356L294.825 692.593H297.971C299.225 692.593 300.478 692.734 301.732 692.734H311.193C312.541 692.734 313.913 692.734 315.238 692.734H317.887L321.861 692.569L324.51 692.403C325.835 692.403 327.159 692.403 328.484 692.167L331.038 691.978C332.457 691.859 333.877 691.694 335.249 691.552L337.614 691.339L342.912 690.7L344.095 690.535C346.2 690.298 348.353 689.967 350.458 689.636L352.421 689.328C353.887 689.068 355.354 688.855 356.797 688.572L359.28 688.122C360.581 687.862 361.882 687.625 363.159 687.342L365.785 686.821C367.015 686.561 368.15 686.301 369.451 685.993L372.124 685.378L375.767 684.503L378.392 683.794L382.129 682.824L384.495 682.09C385.89 681.736 387.286 681.286 388.681 680.884L390.597 680.293L396.558 678.353L398.498 677.667C399.846 677.242 401.218 676.745 402.566 676.295L404.931 675.302L408.408 674.025L411.057 672.984L414.345 671.659L416.971 670.524L420.211 669.105L422.813 667.922L426.054 666.432L428.585 665.249L432.062 664.114L434.427 662.979C436.248 662.08 438.069 661.11 439.867 660.117L441.736 659.099C442.989 658.461 444.101 657.751 445.426 657.065L447.791 655.693L450.842 653.872L453.35 652.287L456.259 650.561L458.79 648.905L461.605 647.107L463.97 645.428L466.761 643.512L469.126 641.809L471.728 639.964L469.907 640.816Z" fill="#1E5F2B"/>
<path d="M165.725 464.906C168.611 460.388 171.331 455.941 173.767 451.542C156.074 448.349 139.304 441.678 132.445 428.503C108.295 423.773 88.2367 412.112 75.4876 393.615L74.8963 392.692C64.134 390.327 54.8619 386.259 48.3809 379.068C49.7823 394.476 55.0813 409.274 63.7792 422.07C84.3576 452.015 121.919 466.207 165.725 464.906Z" fill="#A9CC6D"/>
<path d="M396.107 192.964C356.393 135.321 254.707 136.007 165.203 192.964C242.975 144.096 330.918 143.741 365.405 193.744C377.397 211.082 381.323 232.394 378.367 255.243C386.593 257.149 394.344 260.715 401.145 265.721C406.407 257.181 409.995 247.717 411.718 237.834C410.552 221.765 405.167 206.287 396.107 192.964Z" fill="#A9CC6D"/>
<path d="M132.445 428.503C130.256 424.206 129.144 419.441 129.204 414.619C129.262 408.637 130.66 402.745 133.296 397.376C113.616 396.004 92.2812 396.524 74.896 392.645L75.4873 393.567C88.2365 412.112 108.295 423.654 132.445 428.503Z" fill="#B0D076"/>
<path d="M365.382 193.768C330.896 143.765 242.953 144.096 165.181 192.987C162.417 199.117 160.108 205.441 158.274 211.91C161.136 209.734 164.045 207.558 167.097 205.453C224.409 165.928 291.75 164.13 317.484 201.432C326.946 215.245 329.477 232.465 325.905 250.678C340.57 250.181 360.959 250.678 378.344 255.195C381.301 232.417 377.375 211.106 365.382 193.768Z" fill="#B0D076"/>
<path d="M317.485 201.384C291.75 164.083 224.409 165.904 167.097 205.405C164.046 207.51 161.136 209.687 158.274 211.863C152.124 234.262 154.49 255.408 179.562 263.025C197.326 268.489 217.124 265.887 235.077 263.19C263.626 258.909 291.845 252.499 320.725 250.891C322.357 250.891 324.108 250.749 325.929 250.63C329.477 232.417 327.017 215.198 317.485 201.384Z" fill="#B7D589"/>
<path d="M443.178 297.724C452.9 268.394 463.425 229.011 454.13 198.239C452.309 192.614 449.316 187.44 445.349 183.057C441.382 178.674 436.53 175.182 431.115 172.811C421.417 168.459 405.806 162.971 405.995 178.322C406.184 193.673 413.351 207.96 413.091 223.619C413.026 228.379 412.567 233.126 411.719 237.811C409.996 247.693 406.408 257.157 401.146 265.698C405.921 269.306 409.524 274.243 411.506 279.89C430.997 253.871 438.992 224.305 434.403 194.927C436.307 197.304 437.714 200.038 438.542 202.969C446.584 229.721 436.177 266.833 427.709 292.639C416.045 327.325 395.064 358.134 367.062 381.694C357.742 394.372 347.027 407.452 338.134 421.195C386.316 394.632 424.965 352.86 443.178 297.724Z" fill="#6FB74A"/>
<path d="M132.444 428.503C139.304 441.678 156.098 448.349 173.767 451.542C176.625 446.647 179.047 441.51 181.005 436.191C166.174 434.015 154.986 429.923 149.451 424.364C148.138 423.125 147.108 421.617 146.43 419.943C145.752 418.27 145.444 416.47 145.525 414.666C145.748 409.129 147.636 403.787 150.941 399.339C145.336 398.416 139.398 397.778 133.296 397.376C130.66 402.745 129.261 408.638 129.204 414.619C129.144 419.441 130.256 424.206 132.444 428.503V428.503Z" fill="#6FB74A"/>
<path d="M427.685 292.615C436.2 266.904 446.607 229.697 438.518 202.945C437.69 200.015 436.283 197.28 434.378 194.903C438.967 224.281 430.972 253.729 411.482 279.866C413.365 285.847 413.642 292.217 412.286 298.339C406.941 325.895 387.923 351.63 372.383 374.219C370.68 376.584 368.883 379.139 367.038 381.67C395.04 358.11 416.021 327.301 427.685 292.615V292.615Z" fill="#B0D076"/>
<path d="M149.451 424.364C154.986 429.923 166.174 434.015 181.004 436.191C185.617 423.205 184.529 412.325 171.377 405.654C164.913 402.555 158.027 400.426 150.941 399.339C147.635 403.787 145.748 409.129 145.524 414.666C145.443 416.47 145.752 418.27 146.43 419.943C147.107 421.617 148.138 423.125 149.451 424.364V424.364Z" fill="#B0D076"/>
<path d="M157.139 584C158.885 587.346 161.116 590.415 163.762 593.107C184.151 613.614 218.165 623.312 247.069 628.989L249.08 629.415C250.396 624.955 252.097 620.618 254.165 616.452L255.489 614.087C229.187 609.357 193.991 600.557 175.329 581.706C173.134 579.588 171.395 577.045 170.219 574.231C196.948 594.526 231.458 600.818 268.499 591.971C270.19 588.565 270.926 584.764 270.628 580.973C270.357 578.865 269.459 576.887 268.049 575.296C247.093 580.831 226.916 580.027 205.581 569.099C203.789 568.156 202.052 567.114 200.377 565.976C191.788 565.417 183.242 564.335 174.784 562.736C167.197 561.408 159.812 559.111 152.811 555.9C152.598 557.603 152.456 559.283 152.337 560.82C151.777 568.841 153.438 576.862 157.139 584V584Z" fill="#5AB032"/>
<path d="M514.541 414.169C512.714 412.568 510.706 411.187 508.557 410.054C477.524 393.331 432.109 425.334 409.213 443.381C392.961 456.445 378.113 471.166 364.91 487.305C372.848 487.202 380.762 486.411 388.563 484.94C398.029 474.54 408.312 464.914 419.313 456.154C468.985 417.008 491.763 419.444 500.893 424.317C502.523 425.107 503.964 426.239 505.119 427.634C506.273 429.03 507.115 430.657 507.587 432.406C509.195 437.775 508.77 445.345 506.522 454.356C510.734 454.656 514.832 455.858 518.538 457.881C519.756 458.6 520.857 459.502 521.803 460.554C526.533 442.814 526.675 424.908 514.541 414.169Z" fill="#5AB032"/>
<path d="M170.218 574.231C171.4 577.028 173.138 579.555 175.327 581.659C194.108 600.581 229.186 609.191 255.488 614.04C259.036 607.772 265.21 599.659 268.498 591.971C231.457 600.77 196.946 594.479 170.218 574.231Z" fill="#6FB74A"/>
<path d="M507.516 432.477C507.044 430.728 506.202 429.101 505.047 427.705C503.892 426.31 502.451 425.179 500.822 424.388C491.692 419.515 468.937 417.079 419.241 456.225C408.241 464.985 397.958 474.611 388.492 485.011C392.011 484.422 395.494 483.633 398.923 482.646C420.826 476.236 441.783 467.058 463.922 461.358C474.969 458.472 492.306 453.198 506.498 454.546C508.698 445.416 509.124 437.847 507.516 432.477Z" fill="#6FB74A"/>
<path d="M126.933 194.785L124.568 186.885L119.955 171.392L117.85 171.959C115.719 172.184 113.571 172.184 111.44 171.959L110.376 169.05C107.324 173.071 104.841 177.376 102.002 181.492L111.014 198.64L115.13 206.47C118.962 202.52 122.912 198.617 126.933 194.785Z" fill="#1E5F2B"/>
<path d="M111.489 171.96C113.619 172.184 115.768 172.184 117.899 171.96L120.004 171.392C121.849 170.493 122.369 169.027 124.474 167.347C128.955 163.273 134.152 160.065 139.802 157.886C142.15 157.222 144.207 155.789 145.644 153.818L146.306 146.296C152.007 144.616 153.828 142.298 153.544 138.206C151.254 139.736 148.832 141.058 146.306 142.156C138.837 145.442 130.809 147.272 122.653 147.549L119.744 149.371C116.647 150.581 113.8 152.353 111.347 154.598C109.904 155.828 109.786 156.727 107.704 157.129H104.227L103.517 155.497C100.632 159.376 98.645 163.705 95.0497 166.969C91.6978 170.143 87.6466 172.484 83.2231 173.805C77.2388 175.413 69.8825 172.598 69.8115 165.692C65.7432 166.354 61.8404 167.915 58.1505 165.147C56.1163 163.634 51.9297 157.129 55.9507 155.473C52.9704 153.108 48.8548 152.587 46.7023 148.85C45.2358 146.248 45.1885 142.63 48.7365 142.133C45.2595 139.531 41.948 135.841 43.7693 131.039C45.3778 126.853 51.3857 127.184 54.0585 130.259C51.5749 126.309 49.3278 123.518 52.6865 119.497C53.8219 118.148 55.5013 116.469 57.4172 116.753C59.3331 117.037 60.4449 119.118 61.9351 119.875C61.6512 117.77 60.0191 115.688 60.1137 113.607C60.232 110.981 62.8812 109.113 64.8444 107.859C67.0343 106.367 69.6843 105.705 72.3188 105.99C71.1124 100.148 71.5619 93.5016 77.3806 93.2178C74.6132 88.7946 70.2846 85.6251 67.186 81.3911C65.4396 81.3923 63.7027 81.6473 62.0296 82.148C62.3826 83.3378 62.558 84.5732 62.5501 85.8143C61.9726 84.6836 61.2488 83.6339 60.3976 82.692C58.7378 83.3026 57.1512 84.0959 55.6669 85.0573C51.9533 87.4227 47.1044 90.8051 46.9151 95.5831C46.7496 99.3913 49.7063 103.152 50.203 106.96C47.5302 105.541 45.0466 101.709 41.9717 101.283C38.4 100.763 35.3488 103.862 33.2673 106.298C27.0465 113.678 31.2804 118.692 35.6326 125.954C30.9019 120.277 19.8084 119.757 16.8991 127.326C13.5403 136.148 19.6193 142.842 25.982 147.573C19.4774 148.495 19.5956 155.118 22.2448 159.802C26.0529 166.614 33.6693 167.513 39.1332 171.912C32.3684 174.632 38.258 184.874 42.1608 188.682C44.195 188.304 46.2766 187.878 48.3581 187.547C48.3612 189.152 48.6084 190.747 49.0913 192.278C54.0349 193.129 59.1439 191.474 64.3713 190.598C64.3417 193.027 64.9268 195.425 66.0724 197.567C67.2179 199.709 68.8867 201.527 70.9233 202.851L72.7682 202.496C80.9003 200.108 88.3553 195.837 94.5293 190.031C97.2193 187.497 99.6011 184.655 101.625 181.563C104.464 177.447 106.947 173.142 109.999 169.121L111.489 171.96Z" fill="#6FB74A"/>
<path d="M116.243 147.265L114.918 146.982L114.138 146.84L112.86 146.461L112.08 146.248L110.826 145.799L110.117 145.491C108.68 144.923 107.302 144.218 106.001 143.386L105.41 143.008L104.345 142.275L103.73 141.778L102.761 140.926L102.216 140.406L101.318 139.507L100.915 139.01L99.2834 136.811L98.9996 136.361L98.4082 135.25L98.1244 134.635L97.6276 133.452L97.4148 132.766L97.06 131.536V130.921L96.7998 127.728C96.8403 125.956 97.1515 124.202 97.7223 122.524C95.357 122.098 92.9917 121.838 90.6264 121.507C89.2308 121.294 87.8353 121.058 86.487 120.727H86.1558L84.3582 120.088H84.098L82.253 119.402L81.9455 119.236L80.479 118.527L80.1006 118.29L78.4922 117.179L78.2793 116.966L77.002 115.807L76.5998 115.357L75.2517 113.631C73.8853 111.271 72.9333 108.695 72.437 106.014C69.8025 105.728 67.1524 106.391 64.9624 107.883C62.9282 109.136 60.2318 111.005 60.2318 113.631C60.2318 115.712 61.7693 117.793 62.0531 119.899C60.563 119.094 59.2146 116.989 57.5353 116.776C55.8559 116.563 53.8926 118.172 52.8046 119.52C49.3749 123.541 51.6929 126.332 54.1765 130.282C51.5037 127.207 45.4958 126.876 43.8874 131.063C42.0661 135.794 45.3775 139.555 48.8545 142.156C45.3065 142.653 45.3539 146.272 46.8204 148.874C48.9019 152.611 53.0884 153.131 56.0688 155.497C52.0477 157.152 56.2343 163.657 58.2685 165.171C61.9584 167.938 65.8613 166.377 69.9297 165.715C69.9297 172.622 77.3568 175.436 83.3411 173.828C87.7646 172.508 91.8158 170.166 95.1678 166.992C98.7631 163.728 100.75 159.4 103.636 155.52L104.345 157.153H107.822C109.904 156.75 110.022 155.852 111.465 154.622C113.913 152.388 116.751 150.624 119.838 149.418L122.747 147.597C121.257 147.597 119.791 147.597 118.348 147.597L116.243 147.265Z" fill="#B0D076"/>
<path d="M64.654 190.528C59.4266 191.403 54.3176 193.058 49.374 192.207V192.372L50.462 194.738L50.7223 195.234L51.3608 196.133L51.7394 196.654L52.4726 197.481L52.922 197.955L53.7498 198.711L54.081 198.995L56.1152 200.367L56.47 200.58L57.5108 201.1L58.1256 201.384L59.1429 201.81L59.8051 202.023L60.8932 202.354L61.5082 202.52C62.8367 202.829 64.1903 203.019 65.5528 203.087H66.2152H67.3978H68.1074H69.2664H69.9523L71.1586 202.898C69.1136 201.558 67.4435 199.719 66.3055 197.554C65.1676 195.39 64.5991 192.972 64.654 190.528Z" fill="#B7D589"/>
<path d="M39.4165 171.959C33.9526 167.56 26.3362 166.661 22.528 159.849C19.8788 155.118 19.7606 148.543 26.2653 147.62C19.9025 142.89 13.8236 136.196 17.1823 127.373C20.0917 119.804 31.0669 120.277 35.9159 126.001C31.4454 118.74 27.2115 113.725 33.5505 106.345C35.632 103.98 38.6833 100.81 42.2549 101.331C45.3299 101.756 47.8134 105.588 50.4862 107.007C49.9895 103.199 47.0328 99.4383 47.1984 95.6302C47.3876 90.8995 52.2366 87.3753 55.9502 85.1046C57.4344 84.1431 59.0211 83.3498 60.6808 82.7392V82.7392L60.4915 82.5736L59.5929 81.6038L59.1198 81.2017L58.4102 80.6814L57.8424 80.3265L57.1565 79.9008L56.5888 79.6406L55.8319 79.3095L55.2406 79.0728L54.4363 78.86L53.8687 78.7418L52.9935 78.5999H52.4258H51.2195H50.912L49.5165 78.7418H48.9724L48.0264 78.8837L47.4113 79.0493L46.4888 79.2858L45.8738 79.4751L44.9987 79.7589L44.1472 79.8771L43.2483 80.232L42.6333 80.4921L41.6636 81.0124L41.1432 81.2491L39.724 82.0769C36.0105 84.4422 31.1615 87.8483 30.9723 92.6263C30.8067 96.4108 33.7397 100.148 34.2601 103.909C31.5636 102.537 29.1273 98.7761 26.0523 98.3267C22.457 97.7826 19.3821 100.929 17.3243 103.294C11.1034 110.697 15.3137 115.759 19.6896 122.95C14.9589 117.297 3.86557 116.729 0.956213 124.345C-2.40256 133.192 3.67641 139.862 10.0391 144.569C3.53449 145.539 3.65269 152.138 6.27821 156.798C10.11 163.634 17.7265 164.556 23.1904 168.932C15.8105 171.889 23.4506 183.786 27.1878 186.601L28.7962 187.618L29.2456 187.855L30.6411 188.469L30.9014 188.588L32.557 189.061H32.9592L34.3547 189.274H34.7095H36.4125H36.6254L38.2338 189.132H38.5177C39.7728 189.01 41.0204 188.821 42.2549 188.564V188.564C38.5414 184.921 32.6517 174.68 39.4165 171.959Z" fill="#B7D589"/>
<path d="M63.898 74.0113C63.6891 72.8409 63.6098 71.6511 63.6615 70.4633C62.2525 72.0374 61.3753 74.0153 61.1543 76.1163V77.5119V77.985L61.2962 78.9548L61.4144 79.4989L61.6274 80.3976L62.0768 82.2189C63.7499 81.7181 65.4868 81.4632 67.2332 81.462C65.5355 79.2845 64.3911 76.728 63.898 74.0113V74.0113Z" fill="#B7D589"/>
<path d="M170.882 129.124L170.598 125.528C165.868 128.721 161.563 132.435 157.045 135.794L160.971 161.812L161.113 162.83C162.604 161.458 164.07 160.086 165.513 158.785L179.279 152.375V151.996L180.225 131.584L177.718 131.418C175.358 130.919 173.065 130.149 170.882 129.124V129.124Z" fill="#1E5F2B"/>
<path d="M130.127 23.3459C128.542 27.4143 130.316 32.4998 129.465 36.8047C127.1 34.2738 125.846 29.2829 122.747 27.6509C119.081 25.7823 114.634 28.0056 111.536 29.8506C102.074 35.4091 104.771 42.3869 106.805 51.7536C103.706 43.9243 92.1636 39.241 86.2503 46.3134C79.3435 54.5211 83.3646 63.9587 88.4264 71.3858C81.1175 69.9903 78.7758 77.1099 79.8639 83.2125C81.425 91.9169 89.3252 95.7724 93.4882 102.466C85.2096 102.892 87.7641 116.138 90.5316 121.626C92.8969 121.957 95.2622 122.217 97.6276 122.643C97.0567 124.32 96.7455 126.075 96.705 127.846C101.649 130.59 107.727 130.732 113.712 131.773C112.757 134.359 112.474 137.145 112.887 139.871C113.301 142.597 114.398 145.173 116.077 147.36L118.182 147.621C119.625 147.621 121.092 147.621 122.582 147.621C130.737 147.343 138.765 145.513 146.235 142.227C148.76 141.129 151.183 139.807 153.473 138.277C154.656 137.497 155.838 136.669 156.974 135.912C161.492 132.553 165.796 128.816 170.527 125.646L170.811 129.242C172.99 130.292 175.284 131.086 177.647 131.607L180.154 131.773C182.519 131.536 183.631 130.259 186.422 129.124C192.73 126.408 199.497 124.916 206.362 124.724C209.105 124.858 211.817 124.103 214.096 122.572L217.621 114.695C227.082 115.168 228.762 111.384 229.282 101.851C237.537 104.453 245.201 81.3203 234.013 79.4753C237.312 77.8564 239.979 75.1857 241.594 71.8839C243.208 68.5821 243.678 64.8369 242.93 61.2386C240.754 53.0782 233.894 51.4462 226.585 50.5237C228.076 47.1649 232.049 41.8902 233.847 36.6864H230.654C231.384 34.7754 231.692 32.7291 231.557 30.6878C231.422 28.6465 230.848 26.6584 229.873 24.8598C225.143 23.7717 219.111 28.668 214.593 27.5326C215.517 24.9011 215.656 22.058 214.995 19.3485C209.775 20.9219 205.235 24.2041 202.104 28.6679C201.111 21.5719 199.124 15.3749 194.606 11.8978C191.247 13.8154 188.33 16.4185 186.044 19.5378C185.619 15.9322 184.687 12.4046 183.276 9.0594H182.212C176.795 9.60342 170.905 11.4248 168.564 16.7941C167.003 20.3184 167.925 24.3158 166.53 27.8401C165.205 18.7809 158.842 14.9491 151.297 14.5707C151.21 15.9761 150.924 17.3619 150.445 18.6863C150.242 17.2796 149.886 15.8994 149.381 14.5707C147.375 14.62 145.379 14.8656 143.42 15.3039C138.571 16.4156 132.114 18.3787 130.127 23.3459ZM157.447 50.0269C158.204 48.111 157.707 45.8876 158.535 43.948C159.309 42.6499 160.407 41.575 161.721 40.8287C163.036 40.0823 164.522 39.6901 166.033 39.6905C173.72 38.8862 176.062 43.9953 176.961 50.4527C179.539 47.0466 183.394 44.2318 188.101 45.2253C189.063 45.5085 189.954 45.9925 190.716 46.6451C191.477 47.2978 192.092 48.1044 192.518 49.0117C192.945 49.9191 193.175 50.9067 193.192 51.9094C193.21 52.912 193.014 53.9068 192.619 54.8285C195.6 55.5854 199.834 51.4225 202.459 54.1426C206.267 57.9508 200.59 64.219 199.195 67.3649C203.216 67.9325 206.977 68.7841 208.16 73.2782C208.588 75.2475 208.339 77.3035 207.455 79.1146C206.571 80.9256 205.103 82.3859 203.287 83.2598C209.484 84.2532 205.274 96.9551 200.732 95.5359C200.449 100.787 199.526 102.868 194.346 102.632L192.406 106.96C191.157 107.812 189.658 108.22 188.149 108.119C184.391 108.22 180.684 109.023 177.221 110.485C175.21 111.289 174.856 112.235 172.49 111.857L168.753 110.556L168.611 108.569C164.093 111.597 160.356 115.499 155.271 117.723C150.455 119.888 145.193 120.877 139.92 120.608C132.824 120.088 126.106 114.34 128.59 106.913C124.001 106.133 119.128 106.345 116.29 102.041C114.658 99.6752 112.577 91.0418 117.52 90.8289C115.155 87.1626 110.921 85.0574 110.022 80.2558C109.454 76.9916 110.731 73.1599 114.753 73.8695C111.961 69.7775 109.762 64.5737 113.546 60.0796C116.787 56.2241 123.126 58.8024 124.829 63.0836C123.67 57.9035 122.203 54.0953 127.383 51.044C129.086 50.0269 131.523 48.8206 133.51 49.8614C135.497 50.9021 135.875 53.5039 137.2 54.8522C137.673 52.4868 136.727 49.7194 137.578 47.496C138.642 44.7286 142.309 43.6642 144.863 43.0965C150.587 41.8902 156.477 43.3804 157.447 50.0269Z" fill="#44AC34"/>
<path d="M137.483 47.543C136.631 49.7664 137.483 52.5575 137.104 54.8992C135.803 53.5509 135.141 50.7835 133.414 49.9084C131.688 49.0332 128.991 50.0739 127.288 51.091C122.108 54.1423 123.575 57.9504 124.734 63.1305C123.031 58.8492 116.692 56.2711 113.451 60.1266C109.667 64.6207 111.866 69.8244 114.657 73.9164C110.636 73.1122 109.359 77.0386 109.927 80.3028C110.826 85.0335 115.107 87.2096 117.425 90.8759C112.481 91.0888 114.563 99.6749 116.195 102.088C119.128 106.392 123.906 106.18 128.495 106.96C126.129 114.387 132.847 120.135 139.825 120.655C145.098 120.924 150.36 119.935 155.176 117.77C160.261 115.546 163.998 111.644 168.516 108.616L168.658 110.603L172.395 111.904C174.76 112.282 175.21 111.336 177.126 110.532C180.589 109.07 184.296 108.267 188.054 108.166C189.563 108.267 191.061 107.859 192.311 107.007L194.251 102.679C199.431 102.963 200.353 100.881 200.637 95.5829C205.179 97.0021 209.389 84.3003 203.192 83.3068C205.008 82.4329 206.476 80.9726 207.36 79.1616C208.244 77.3505 208.492 75.2944 208.064 73.325C206.882 68.8309 203.121 67.9794 199.1 67.4117C200.495 64.2658 206.196 57.9505 202.364 54.1896C199.738 51.4695 195.504 55.6324 192.524 54.8755C192.919 53.9538 193.115 52.9589 193.097 51.9562C193.08 50.9536 192.85 49.9661 192.423 49.0587C191.996 48.1514 191.382 47.3446 190.621 46.692C189.859 46.0393 188.968 45.5555 188.006 45.2723C183.276 44.2788 179.444 47.0936 176.866 50.4997C175.967 44.0423 173.625 38.9333 165.938 39.7375C164.426 39.7371 162.941 40.1293 161.626 40.8757C160.312 41.622 159.214 42.6969 158.44 43.995C157.612 45.9346 158.108 48.158 157.352 50.0739C156.382 43.4274 150.469 41.9371 144.673 43.1908C142.119 43.7111 138.547 44.7756 137.483 47.543Z" fill="#84BC3C"/>
<path d="M230.628 36.5916H233.939C234.413 35.3559 234.7 34.0564 234.791 32.7361V31.6008V30.9147L234.673 30.2052L234.483 29.4719L234.271 28.8332L233.797 27.9818L233.561 27.5323L232.52 26.2314L231.74 25.5691L231.408 25.4035L230.935 25.1433L229.871 24.7886C230.839 26.5858 231.407 28.5706 231.538 30.6075C231.668 32.6444 231.358 34.6855 230.628 36.5916Z" fill="#8ABF48"/>
<path d="M214.97 19.3247H215.136L214.734 17.8345L214.592 17.5507L214.119 16.4626L213.93 16.0369L213.315 14.9488L213.149 14.6886L212.179 13.4823L211.115 12.4415L210.76 12.205L209.838 11.5427L209.388 11.2825L208.395 10.8094L207.922 10.6202L206.361 10.1472L204.752 9.88692H204.185H203.167H201.228L200.14 10.0288H199.832L198.697 10.2418L198.484 10.36L197.278 10.7149H197.136L195.906 11.2115L194.652 11.8502C199.17 15.3272 201.157 21.5481 202.15 28.6204C205.267 24.1782 209.78 20.906 214.97 19.3247V19.3247Z" fill="#8ABF48"/>
<path d="M97.0355 130.992V131.607L97.3904 132.837L97.6032 133.523L98.1 134.706L98.3838 135.321L98.9751 136.432L99.259 136.882L100.891 139.082L101.222 139.507L102.121 140.406L102.665 140.926L103.635 141.778L104.25 142.275L105.314 143.008L105.906 143.386C107.207 144.218 108.585 144.923 110.021 145.492L110.731 145.799L111.984 146.248L112.765 146.461L114.042 146.84L114.823 146.982L116.147 147.266C114.469 145.079 113.371 142.502 112.958 139.776C112.544 137.051 112.828 134.265 113.782 131.678C107.798 130.637 101.719 130.495 96.7754 127.752L97.0355 130.992Z" fill="#8ABF48"/>
<path d="M67.3041 81.5095C70.4027 85.6488 74.7312 88.8184 77.4987 93.3362C71.68 93.62 71.2307 100.267 72.437 106.109C72.9333 108.79 73.8853 111.366 75.2517 113.725L76.5998 115.452L77.0021 115.901L78.2793 117.06L78.4922 117.273L80.1006 118.385L80.479 118.622L81.9455 119.331L82.253 119.497L84.098 120.183H84.3582L86.0848 120.703H86.416C87.7643 121.034 89.1598 121.271 90.5553 121.484C87.7879 115.996 85.2334 102.75 93.512 102.324C89.2781 95.6305 81.4488 91.775 79.8877 83.0706C78.7996 77.0626 81.1413 69.943 88.4502 71.2439C83.3884 63.8168 79.3673 54.3791 86.2741 46.1714C92.1874 39.0755 103.73 43.8061 106.829 51.6117C104.7 42.1504 102.098 35.2672 111.559 29.7087C114.658 27.8637 119.105 25.6403 122.771 27.509C125.87 29.141 127.123 34.1319 129.489 36.6628C130.34 32.3579 128.566 27.2014 130.151 23.204C132.138 18.2368 138.595 16.2736 143.42 15.2092C145.379 14.7709 147.375 14.5253 149.381 14.476L148.648 12.8675L148.293 12.2999L147.702 11.4011L147.252 10.8571L146.637 10.1002L146.164 9.60338L145.455 9.01205L144.911 8.5391L144.13 8.01865L143.562 7.64026L142.64 7.19084L142.12 6.90701L140.748 6.41024H140.558L138.95 6.00818L138.406 5.86626L137.247 5.70067L136.561 5.55876H135.473H132.942H131.807H131.097L129.843 5.74788H129.228L127.384 6.07906C122.653 7.14346 116.054 9.10664 114.09 14.1685C112.506 18.1659 114.28 23.2277 113.405 27.5326C111.039 25.0017 109.809 20.0346 106.663 18.4025C103.044 16.5339 98.5975 18.7572 95.499 20.5549C86.0376 26.1607 88.7341 33.1149 90.7683 42.5289C87.6461 34.6523 76.1032 30.0163 70.1662 37.065C63.2831 45.2727 67.3278 54.7576 72.3896 62.1611C66.5 61.0021 63.8034 65.4488 63.5905 70.3451C63.5388 71.5328 63.6182 72.7227 63.8271 73.8931C64.3362 76.681 65.5311 79.2985 67.3041 81.5095Z" fill="#8ABF48"/>
<path d="M166.504 27.84C167.9 24.3156 166.977 20.3183 168.539 16.7939C170.904 11.4956 176.77 9.6979 182.186 9.05926H183.251L182.186 6.95408L182.044 6.76496C181.272 5.46767 180.298 4.30184 179.159 3.31152L178.922 3.07505L177.409 1.98694L176.983 1.72679C175.617 0.957609 174.128 0.429431 172.583 0.16559H171.897L169.91 0H169.106L166.126 0.118382C160.686 0.709715 154.819 2.48361 152.454 7.85292L151.958 9.41411L151.816 9.93442L151.603 11.0462V11.6375L151.461 12.7728L151.319 14.7833C158.817 14.9962 165.18 18.8281 166.504 27.84Z" fill="#8ABF48"/>
<path d="M469.906 640.816L471.798 639.893L469.906 640.816Z" fill="#3CBFEF"/>
<path d="M178.143 153.534C126.933 200.509 65.4348 256.591 59.5924 329.254C53.3007 406.884 148.411 370.718 192.051 392.905C248.819 421.715 82.1812 527.729 195.481 549.963C217.36 554.268 239.783 553.819 261.97 555.593C271.266 556.255 289.597 555.995 291.348 568.2C292.885 579.222 279.308 594.431 274.79 603.68C268.498 616.76 263.484 632.726 274.317 644.907C289.503 661.914 320.891 661.701 341.493 661.323C378.297 660.684 415.315 653.612 450.605 643.275C468.385 638.115 485.567 631.082 501.862 622.295C511.039 615.989 519.664 608.915 527.644 601.149V601.149C532.339 595.627 536.646 589.786 540.535 583.669L540.228 583.858C525.018 600.226 500.869 615.908 482.348 617.186C451.599 619.291 471.278 578.04 477.617 565.456C485.659 549.419 532.469 484.467 507.42 469.755C493.016 461.287 467.423 469.211 452.852 473.019C430.736 478.814 409.78 487.991 387.877 494.307C363.679 501.403 298.964 506.323 312.186 463.132C320.867 434.89 344.804 409.794 361.243 385.927C376.807 363.339 395.848 337.58 401.17 310.048C410.442 262.173 340.665 260.825 309.608 262.575C280.68 264.137 252.532 270.594 223.959 274.875C206.006 277.548 186.114 280.173 168.445 274.875C113.143 257.987 168.445 168.293 181.975 151.097L180.177 151.925L178.143 153.534ZM169.249 296.754C180.263 300.021 191.704 301.616 203.192 301.485C215.625 301.277 228.024 300.114 240.28 298.008C249.481 296.66 258.564 295.051 267.41 293.538C285.672 290.001 304.12 287.506 322.664 286.063C327.088 285.827 331.511 285.708 335.792 285.708C360.155 285.708 372.904 289.706 377.611 292.166C373.968 310.119 359.777 330.602 347.217 348.673L343.361 354.256C339.364 360.027 334.728 366.082 329.784 372.611C314.788 392.243 297.781 414.501 289.574 441.205C281.2 468.43 290.638 487.022 297.024 495.608C306.107 507.884 325.077 522.596 363.821 522.596C379.011 522.59 394.13 520.521 408.763 516.446C419.525 513.324 429.767 509.658 439.654 506.11C451.149 502.042 461.983 498.139 472.768 495.348L476.813 494.283C478.705 493.763 480.787 493.195 482.939 492.651C477.121 504.265 469.457 516.872 465.956 522.62C462.195 528.841 459.239 533.761 457.157 537.876C446.702 558.62 434.616 588.376 445.898 613.117C437.455 616.676 428.816 619.748 420.021 622.319C384.116 632.868 350.552 638.426 320.205 638.876C317.579 638.876 314.788 638.876 311.831 638.876C296.362 638.876 288.178 637.315 283.92 635.966C284.417 634.784 285.032 633.294 285.86 631.591C286.333 630.668 288.225 627.901 289.432 625.914C297.001 614.229 308.354 596.678 305.445 575.84C302.89 557.863 290.614 535.96 246.548 533.264L243.994 533.122C236.424 532.507 228.974 532.176 221.783 531.845C208.307 531.546 194.87 530.289 181.572 528.084C177.935 527.431 174.359 526.473 170.881 525.222C174.358 516.399 183.678 502.018 189.662 492.722C206.905 466.041 224.716 438.485 216.816 409.155C213.978 398.582 206.55 383.94 187.32 374.172C165.678 363.197 140.747 362.203 116.621 361.21C103.8 360.689 80.1235 359.79 74.6596 355.557C73.7079 352.051 73.4904 348.387 74.0209 344.794C76.8593 310.19 96.8227 278.778 122.51 249.755L123.149 252.121C129.583 273.834 145.856 289.635 169.249 296.754V296.754Z" fill="#3CBFEF"/>
<path d="M123.15 252.121L122.511 249.755C96.8233 278.778 76.86 310.19 74.0216 344.794C73.4911 348.388 73.7086 352.052 74.6602 355.557C80.1242 359.791 103.801 360.69 116.621 361.21C140.748 362.203 165.678 363.197 187.321 374.172C206.551 383.941 213.978 398.582 216.817 409.155C224.717 438.485 206.906 465.923 189.663 492.722C183.678 502.018 174.359 516.376 170.882 525.222C174.359 526.474 177.935 527.431 181.573 528.084C194.871 530.289 208.308 531.546 221.784 531.845C228.88 532.176 236.425 532.507 243.994 533.122L246.549 533.264C290.615 536.008 302.891 557.911 305.445 575.84C308.402 596.679 297.001 614.229 289.432 625.914C288.131 627.901 286.334 630.645 285.861 631.591C285.033 633.294 284.418 634.784 283.921 635.967C288.155 637.315 296.363 638.876 311.832 638.876C314.789 638.876 317.58 638.876 320.205 638.876C350.552 638.332 384.069 632.774 420.022 622.319C428.816 619.748 437.456 616.676 445.899 613.118C434.616 588.376 446.703 558.715 457.158 537.876C459.239 533.761 462.196 528.841 465.957 522.62C469.458 516.872 477.121 504.265 482.94 492.651C480.787 493.195 478.706 493.763 476.814 494.283L472.769 495.348C462.007 498.139 451.174 502.042 439.654 506.11C429.767 509.658 419.525 513.324 408.763 516.447C394.13 520.521 379.012 522.59 363.822 522.596C325.078 522.596 306.108 507.884 297.025 495.608C290.638 486.998 281.201 468.407 289.574 441.205C297.735 414.548 314.741 392.29 329.785 372.611C334.728 366.153 339.246 360.027 343.362 354.256L347.217 348.674C359.777 330.603 373.969 310.119 377.612 292.166C372.881 289.801 360.156 285.709 335.793 285.709C331.511 285.709 327.088 285.708 322.665 286.063C304.12 287.506 285.673 290.001 267.411 293.538C258.565 295.052 249.482 296.66 240.281 298.008C228.025 300.115 215.626 301.277 203.192 301.485C191.705 301.616 180.263 300.021 169.25 296.755C145.857 289.635 129.583 273.835 123.15 252.121Z" fill="#7ACDF3"/>
<path d="M182.069 151.121L182.589 150.482L183.015 149.986L181.809 150.837L180.271 151.949L182.069 151.121Z" fill="#305BA7"/>
<path d="M165.511 158.856C164.069 160.157 162.602 161.528 161.112 162.9L157.99 165.762C160.521 163.444 163.052 161.15 165.511 158.856Z" fill="#305BA7"/>
<path d="M527.69 601.172C529.488 599.375 531.239 597.553 532.942 595.732L534.337 594.265C536.04 592.444 537.672 590.505 539.281 588.589L540.605 587.028C542.166 585.135 543.656 583.148 545.123 581.138C543.585 582.06 542.001 582.936 540.392 583.834C536.559 589.897 532.315 595.69 527.69 601.172Z" fill="#305BA7"/>
<path d="M545.881 580.192L546.543 579.364L547.276 578.252L545.881 580.192Z" fill="#305BA7"/>
<path d="M180.272 151.949L179.35 152.375L178.144 153.534L180.272 151.949Z" fill="#305BA7"/>
<path d="M168.54 274.899C186.304 280.315 206.102 277.69 224.054 274.899C252.628 270.618 280.822 264.16 309.703 262.599C340.76 260.849 410.537 262.197 401.265 310.071C395.943 337.604 376.902 363.362 361.338 385.951C344.781 409.817 320.962 434.913 312.281 463.155C299.012 506.346 363.727 501.45 387.972 494.33C409.875 487.897 430.832 478.719 452.948 473.042C467.518 469.234 493.158 461.216 507.516 469.778C532.565 484.491 485.755 549.443 477.712 565.48C471.373 578.063 451.694 619.315 482.443 617.209C500.964 615.932 525.019 600.25 540.323 583.882C538.746 584.749 537.114 585.538 535.427 586.247C530.113 590.292 524.481 593.899 518.585 597.033C510.849 601.449 502.294 604.242 493.442 605.241C462.693 607.346 482.372 566.118 488.711 553.535C491.763 547.48 500.372 534.399 508.533 519.687C520.809 497.524 532.02 471.718 521.779 460.554C520.833 459.502 519.732 458.6 518.514 457.881C514.808 455.858 510.71 454.656 506.499 454.356C492.448 453.008 475.016 458.283 463.923 461.169C441.783 466.964 420.826 476.141 398.923 482.457C395.494 483.443 392.011 484.233 388.492 484.822C380.691 486.293 372.777 487.084 364.839 487.187C353.343 487.187 341.848 485.768 333.593 481.274C323.777 476.094 318.502 466.798 323.28 451.352C326.792 440.617 331.775 430.42 338.087 421.053C346.981 407.31 357.696 394.23 367.015 381.552C368.86 379.021 370.658 376.584 372.361 374.101C387.901 351.512 406.918 325.777 412.264 298.221C413.62 292.099 413.342 285.729 411.46 279.748C409.477 274.101 405.874 269.164 401.099 265.556C394.299 260.549 386.548 256.984 378.321 255.077C360.936 250.347 340.476 250.063 325.882 250.559C324.061 250.559 322.31 250.725 320.678 250.82C291.774 252.428 263.579 258.838 235.03 263.119C217.077 265.816 197.184 268.418 179.515 262.954C154.466 255.338 152.101 234.191 158.227 211.792C160.061 205.323 162.37 198.998 165.134 192.869C169.633 182.925 174.834 173.313 180.698 164.107C184.719 157.669 189.11 151.469 193.849 145.539L182.022 151.074C168.516 168.317 113.239 258.01 168.54 274.899Z" fill="#305BA7"/>
<path d="M540.582 583.693C542.143 582.794 543.727 581.919 545.312 580.996L545.856 580.239L547.228 578.3V578.134C548.789 575.958 550.327 573.687 551.769 571.417C550.681 572.623 549.546 573.782 548.363 574.965L547.204 576.053L544.673 578.418L543.325 579.625L540.605 581.99L539.304 583.054C538.003 584.119 536.655 585.23 535.283 586.271C536.86 585.483 538.492 584.694 540.179 583.906L540.582 583.693Z" fill="#A3DAF7"/>
<path d="M341.54 661.37C320.938 661.749 289.503 661.961 274.365 644.955C263.532 632.773 268.546 616.807 274.838 603.727C279.285 594.431 292.862 579.222 291.395 568.247C289.645 556.042 271.313 556.302 262.018 555.64C239.831 553.866 217.408 554.315 195.528 550.01C82.229 527.753 248.772 421.762 192.099 392.952C148.482 370.765 53.3719 406.931 59.6401 329.301C65.4351 256.591 126.934 200.509 178.143 153.534L179.373 152.398L165.607 158.808C163.242 161.174 160.616 163.397 158.085 165.715C155.105 168.482 152.101 171.202 149.073 173.994L148.908 174.135C143.349 179.245 137.72 184.496 132.09 189.841L131.759 190.125C130.198 191.639 128.589 193.153 127.028 194.856C123.007 198.688 119.057 202.59 115.202 206.541C112.411 209.379 109.643 212.265 106.899 215.15L106.308 215.718C103.659 218.541 101.033 221.395 98.4315 224.281C70.568 255.266 47.4113 290.084 40.6937 329.964C40.0551 333.937 39.5112 337.911 39.18 341.979C37.7608 359.459 41.5454 371.144 48.6414 379.044C55.1224 386.14 64.3944 390.279 75.1566 392.668C92.5418 396.5 113.877 395.98 133.557 397.399C139.659 397.801 145.596 398.44 151.202 399.362C158.288 400.45 165.174 402.578 171.639 405.678C184.79 412.348 185.83 423.229 181.265 436.214C179.308 441.534 176.886 446.671 174.027 451.565C171.662 455.965 168.871 460.412 165.985 464.929C157.399 478.435 147.654 492.604 141.315 505.897C131.593 526.31 129.938 544.736 153.142 555.876C160.143 559.087 167.528 561.384 175.116 562.712C183.573 564.311 192.12 565.393 200.708 565.953C214.309 566.993 228.004 567.206 241.629 568.318C249.15 568.886 262.633 568.815 268.38 575.272C269.79 576.863 270.688 578.841 270.959 580.949C271.257 584.74 270.521 588.541 268.83 591.948C265.542 599.635 259.369 607.748 255.821 614.016L254.496 616.381C252.428 620.547 250.727 624.884 249.411 629.343C246.643 639.089 246.596 649.236 254.141 657.562C269.303 674.592 300.691 674.403 321.293 674.119C358.097 673.504 395.115 666.432 430.382 656.095C433.457 655.197 436.508 654.25 439.583 653.257L442.327 652.24C444.479 651.53 446.608 650.821 448.737 650.016L452.001 648.716C453.941 648.006 455.88 647.249 457.82 646.35L461.273 644.884C463.118 644.056 464.963 643.275 466.784 642.518C467.991 641.998 469.15 641.407 470.356 640.863L472.248 639.917L475.631 638.261C476.837 637.693 477.996 637.007 479.202 636.392C480.929 635.517 482.608 634.547 484.335 633.625L487.86 631.614C489.515 630.621 491.171 629.627 492.803 628.61C493.986 627.901 495.168 627.167 496.28 626.41C497.889 625.393 499.497 624.329 501.011 623.265L502.69 622.153L502.288 622.389C485.993 631.177 468.811 638.209 451.031 643.37C415.362 653.659 378.345 660.731 341.54 661.37Z" fill="#A3DAF7"/>
</svg>
