<svg width="118" height="201" viewBox="0 0 118 201" fill="none" xmlns="http://www.w3.org/2000/svg">
    <path fill-rule="evenodd" clip-rule="evenodd"
          d="M98.9457 198.956C70.4738 198.51 45.0383 186.034 27.3641 166.445C18.9052 157.062 12.2381 146.085 7.87506 134.002C3.90974 123.068 1.84961 111.27 2.04248 98.9666C2.11089 94.6023 2.46961 90.2841 3.07608 86.0737C5.86807 67.0969 14.0361 49.9504 26.0186 36.1275C34.699 26.0776 45.3888 17.8055 57.4335 11.9451C65.0164 8.25984 73.1042 5.51793 81.5906 3.86324C81.6117 3.84278 81.6325 3.84311 81.6741 3.84376C88.2628 2.57507 95.0701 1.95422 102.032 2.06336C121.464 2.36797 139.498 8.2841 154.62 18.2497C161.04 22.4871 166.908 27.4226 172.163 32.9929C189.134 51.0115 199.375 75.3687 198.956 102.074C198.922 104.236 198.827 106.334 198.648 108.451C197.745 119.621 195.001 130.262 190.711 140.028C189.957 141.741 189.161 143.413 188.324 145.083C183.519 154.57 177.211 163.161 169.715 170.547C151.578 188.473 126.482 199.388 98.9457 198.956Z"
          fill="url(#paint0_radial_131_340)"/>
    <path fill-rule="evenodd" clip-rule="evenodd"
          d="M36.0265 47.4893C36.1558 39.2386 48.427 24.2353 64.0441 17.246C83.5343 8.50897 103.881 8.76556 107.554 13.1885C108.636 14.4527 109.149 16.1654 109.117 18.2228C109.096 19.5529 108.844 21.0664 108.34 22.68C105.142 33.1068 90.472 47.3034 75.9305 53.3117C61.6818 59.1999 50.4669 57.2155 43.6149 55.3828C37.3004 53.7455 36.0049 50.1913 36.0265 47.4893Z"
          fill="url(#paint1_linear_131_340)"/>
    <path fill-rule="evenodd" clip-rule="evenodd"
          d="M44.0355 53.7475C40.0813 52.7085 37.7012 50.7172 37.7306 47.5164C37.8423 40.388 49.3604 25.6847 64.7262 18.8162C84.279 10.0593 103.37 10.8575 106.227 14.2907C107.676 16.0179 107.735 18.846 106.706 22.1974C103.485 32.7278 89.6019 48.4335 75.5405 51.6638C63.5862 54.4074 51.2394 55.669 44.0355 53.7475Z"
          fill="url(#paint2_linear_131_340)"/>
    <path fill-rule="evenodd" clip-rule="evenodd"
          d="M115.54 20.9013C115.516 19.7991 115.925 18.8701 116.726 18.1967C119.947 15.5656 130.755 19.6638 134.656 21.4504C140.909 24.3339 144.108 27.128 144.15 29.7687C144.176 30.7461 143.808 31.7174 143.109 32.5379L143.108 32.5795L142.601 33.0912C139.541 36.0574 132.702 37.343 127.362 34.5361C123.507 32.5009 116.745 26.221 115.689 22.0261C115.611 21.6507 115.555 21.2549 115.54 20.9013Z"
          fill="url(#paint3_linear_131_340)"/>
    <path fill-rule="evenodd" clip-rule="evenodd"
          d="M128.044 33.4449C124.272 31.4525 117.572 25.1736 116.614 21.3545C116.358 20.3942 116.496 19.5857 117.149 19.0347C120.497 16.2808 143.127 24.7427 143.212 29.9617C143.22 30.7518 142.834 31.5149 142.096 32.1893L142.095 32.2101C139.562 34.6857 133.137 36.144 128.044 33.4449Z"
          fill="url(#paint4_linear_131_340)"/>
    <path fill-rule="evenodd" clip-rule="evenodd"
          d="M36.8157 158.924C36.8675 155.62 38.2152 153.188 40.5815 152.082C45.2087 149.972 61.921 151.356 76.593 158.238C98.4057 168.434 104.012 182.075 103.922 187.853C103.915 188.268 103.889 188.642 103.821 188.973C103.776 189.201 103.731 189.388 103.666 189.574C103.269 191.064 102.043 192.355 100.033 193.279C91.8873 197.039 71.9502 194.502 58.2088 187.926C45.4373 181.801 36.6778 167.715 36.8157 158.924Z"
          fill="url(#paint5_linear_131_340)"/>
    <path fill-rule="evenodd" clip-rule="evenodd"
          d="M58.9606 186.377C42.1246 178.297 33.7887 157.088 41.3056 153.63C45.1372 151.881 61.1283 152.86 75.8828 159.785C98.0669 170.152 102.902 183.948 102.141 188.717C102.119 188.82 102.096 188.924 102.074 189.027C100.285 195.735 75.5495 194.307 58.9606 186.377Z"
          fill="url(#paint6_linear_131_340)"/>
    <path fill-rule="evenodd" clip-rule="evenodd"
          d="M105.535 185.714C105.547 184.966 105.745 184.283 106.107 183.686C108.624 179.651 124.668 177.2 129.633 180.084C131.013 180.875 131.454 181.921 131.568 182.651C131.625 182.963 131.641 183.296 131.635 183.629C131.563 188.222 126.088 192.751 118.893 194.197C113.909 195.2 109.828 192.974 107.663 190.549C106.294 189.031 105.511 187.252 105.535 185.714Z"
          fill="url(#paint7_linear_131_340)"/>
    <path fill-rule="evenodd" clip-rule="evenodd"
          d="M108.949 189.406C107.396 187.698 106.823 185.776 107.548 184.582C109.553 181.35 124.493 179.068 128.758 181.547C129.376 181.889 129.764 182.352 129.859 182.915C130.471 186.272 125.948 191.044 118.545 192.508C114.395 193.358 110.889 191.598 108.949 189.406Z"
          fill="url(#paint8_linear_131_340)"/>
    <path fill-rule="evenodd" clip-rule="evenodd"
          d="M3.19249 105.16C3.20194 104.557 3.2117 103.934 3.24258 103.29C3.69187 93.1942 8.11471 85.5514 11.9605 84.2189C13.3819 83.7215 14.8103 84.0973 15.7494 85.193C18.5052 88.4167 18.4451 101.533 18.4043 104.13C18.2711 112.631 17.2779 122.946 13.2941 123.799C12.2722 124.011 10.7141 123.945 9.03471 122.339C6.4945 119.95 3.01168 116.694 3.19249 105.16Z"
          fill="url(#paint9_linear_131_340)"/>
    <path fill-rule="evenodd" clip-rule="evenodd"
          d="M10.1972 121.109C7.5953 118.677 4.37969 115.613 4.94599 103.357C5.48597 91.454 11.9527 83.3859 14.4432 86.2936C17.7906 90.2333 17.4932 121.14 12.9252 122.128C12.0283 122.322 11.1191 121.975 10.1972 121.109Z"
          fill="url(#paint10_linear_131_340)"/>
    <path fill-rule="evenodd" clip-rule="evenodd"
          d="M98.2109 154.335C98.3142 147.747 101.531 142.746 107.246 140.216C120.957 134.174 147.621 134.592 158.294 139.312C160.998 140.498 162.619 141.895 163.258 143.568C163.917 145.241 164.244 146.972 164.217 148.697C164.125 154.516 160.145 160.482 152.679 165.957C140.461 174.932 120.784 181.006 112.176 178.459C109.403 177.647 106.469 175.189 103.928 171.533C100.267 166.361 98.1236 159.904 98.2109 154.335Z"
          fill="url(#paint11_linear_131_340)"/>
    <path fill-rule="evenodd" clip-rule="evenodd"
          d="M112.658 176.867C110.196 176.142 107.551 173.793 105.335 170.599C99.2356 161.897 96.1641 146.986 107.949 141.787C121.304 135.905 147.385 136.356 157.604 140.881C159.73 141.829 161.168 142.912 161.668 144.188C169.045 162.888 125.529 180.665 112.658 176.867Z"
          fill="url(#paint12_linear_131_340)"/>
    <path fill-rule="evenodd" clip-rule="evenodd"
          d="M44.0355 53.7469C40.7573 44.0709 53.0025 29.3997 72.7426 21.9554C90.0577 15.3877 103.672 20.7773 106.706 22.176C103.485 32.7064 89.6023 48.412 75.5409 51.6424C63.5863 54.4068 51.2395 55.6684 44.0355 53.7469Z"
          fill="white"/>
    <path fill-rule="evenodd" clip-rule="evenodd"
          d="M10.1973 121.11C4.2198 100.624 14.4429 86.3161 14.4429 86.3161C17.7903 90.2558 17.4929 121.162 12.925 122.151C12.0284 122.324 11.1191 121.977 10.1973 121.11Z"
          fill="white"/>
    <path fill-rule="evenodd" clip-rule="evenodd"
          d="M60.5286 183.159C38.0521 168.899 41.3056 153.63 41.3056 153.63C45.1372 151.881 61.1283 152.86 75.8828 159.785C98.0669 170.152 102.902 183.948 102.141 188.717C102.119 188.82 102.096 188.924 102.074 189.027C93.7401 191.558 76.727 193.453 60.5286 183.159Z"
          fill="white"/>
    <path fill-rule="evenodd" clip-rule="evenodd"
          d="M105.315 170.599C99.2148 161.897 96.1433 146.986 107.928 141.787C121.283 135.905 147.364 136.356 157.583 140.881C158.042 144.734 156.643 151.801 144.397 159.882C127.593 170.969 114.773 174.593 105.315 170.599Z"
          fill="white"/>
    <path fill-rule="evenodd" clip-rule="evenodd"
          d="M108.949 189.405C107.396 187.697 106.823 185.776 107.548 184.581C109.553 181.349 124.494 179.068 128.758 181.546C127.221 184.1 124.085 187.876 118.52 188.807C115.039 189.418 111.691 189.511 108.949 189.405Z"
          fill="white"/>
    <path fill-rule="evenodd" clip-rule="evenodd"
          d="M128.044 33.4448C124.272 31.4524 117.572 25.1735 116.614 21.3543C118.127 21.6275 135.726 24.7929 142.096 32.1891L142.095 32.2099C139.562 34.6855 133.137 36.1438 128.044 33.4448Z"
          fill="white"/>
    <path opacity="0.3" fill-rule="evenodd" clip-rule="evenodd"
          d="M76.4352 151.063C74.1021 150.049 72.1447 148.938 70.1318 147.389C68.6118 146.222 67.4718 144.686 65.7612 143.745C59.9698 140.557 53.3925 141.098 47.29 139.194C43.9593 138.164 41.3389 135.587 37.967 134.537C36.436 134.076 35.04 134.283 33.4612 134.217C31.6125 134.125 30.3594 133.17 28.943 132.025C27.3824 130.795 26.2034 129.093 25.5051 127.232C24.9258 125.726 25.2003 124.13 25.2251 122.55C25.2805 119.017 25.8118 115.616 26.8632 112.203C27.8265 109.1 29.3061 106.213 30.2493 103.068C30.8858 100.916 30.7222 99.4168 30.2989 97.2482C29.9538 95.3927 30.1942 93.3177 30.2443 91.4477C30.3585 88.1442 28.5372 84.9767 27.1284 82.0236C26.0816 79.8453 24.8779 78.3921 22.5425 77.524C19.8769 76.5052 17.3824 76.5076 16.3733 73.249C15.7791 71.3688 16.4803 69.0723 16.8831 67.2494C17.2628 65.5715 17.0836 63.7394 17.1106 62.0145C17.1426 58.6474 18.2102 55.5252 19.8154 52.5777C21.7198 49.1153 24.5737 46.0835 27.2983 43.3406C28.7768 41.8463 29.6179 39.9055 31.0764 38.3693C33.0222 36.2379 34.7807 34.1243 36.8701 32.1199C40.0357 29.093 43.289 25.7764 46.086 22.3903C48.0572 19.9682 50.4801 17.9067 52.7569 15.8844C54.6544 14.1888 57.4344 13.2138 59.616 11.9591C63.9366 9.51155 69.1225 7.55567 73.9636 6.3843C79.5766 5.03795 85.6705 3.51205 91.4886 3.66562C96.3923 3.80485 101.141 3.19331 106.067 3.27052C96.7216 2.68749 88.9622 3.04397 81.6536 3.82326C88.2424 2.55457 95.0496 1.93371 102.012 2.04285C121.443 2.34746 139.477 8.26359 154.6 18.2292C161.019 22.4666 166.887 27.4021 172.142 32.9724C189.113 50.991 199.354 75.3482 198.935 102.054C198.902 104.215 198.806 106.313 198.628 108.431C197.725 119.6 194.98 130.242 190.691 140.007C187.866 142.499 184.855 144.967 181.688 146.747C180.388 147.475 178.944 148.055 177.644 148.783C176.491 149.43 175.856 150.148 174.446 149.918C173.616 149.78 172.566 149.181 171.781 148.837C169.159 147.694 167.295 144.609 165.877 142.258C163.87 138.963 163.099 135.147 161.366 131.648C160.258 129.386 159.23 128.621 157.363 127.075C156.419 126.291 155.687 125.261 154.679 124.58C151.778 122.643 147.679 121.56 144.227 121.651C137.614 121.797 132.734 126.834 126.438 127.941C120.998 128.916 115.274 128.057 109.926 129.699C103.953 131.517 98.9869 136.657 95.4601 141.508C93.9942 143.522 92.7575 145.498 91.0046 147.259C89.3779 148.917 88.4059 151.251 86.3922 152.404C83.0776 154.327 79.5531 152.401 76.4352 151.063Z"
          fill="url(#paint13_linear_131_340)"/>
    <path fill-rule="evenodd" clip-rule="evenodd"
          d="M188.304 145.063C188.267 144.729 188.252 144.417 188.174 144.084C187.983 142.979 188.101 142.108 188.43 141.011C188.671 140.225 188.991 139.669 189.15 138.84C189.356 137.637 189.892 136.544 190.057 135.362C190.243 134.096 190.758 133.024 191.214 131.825C191.561 130.895 191.465 130.395 191.251 129.477C191.015 128.558 191.42 127.941 191.765 127.136C192.175 126.227 192.251 125.335 192.453 124.382C193.012 121.896 193.84 119.435 194.523 116.972C194.942 115.44 194.964 114.027 195.01 112.448C195.05 111.222 194.714 110.095 194.733 108.868C194.746 108.058 194.903 107.354 195.019 106.524C195.178 105.695 195.025 104.84 195.163 103.99C195.37 102.746 195.567 102.084 195.192 100.81C194.895 99.8699 194.948 99.1224 194.901 98.1862C194.875 97.1464 194.603 95.9572 194.39 94.9353C193.983 93.0788 193.682 91.0577 193.753 89.1672C193.772 88.0033 194.131 86.3044 193.753 85.1967C193.515 84.4654 192.752 84.1001 192.24 83.5932C191.257 82.6215 190.403 81.4233 189.293 80.6159C188.205 79.7881 187.076 78.8766 185.661 78.9168C184.455 78.9602 183.012 79.4989 181.902 80.022C180.709 80.5437 179.646 80.7142 178.875 79.4964C177.902 77.9636 176.994 76.1825 176.523 74.4289C176.209 73.2599 176.017 72.2175 176.864 71.2538C177.181 70.9053 177.787 70.6862 178.023 70.2533C178.258 69.7997 178.037 69.3181 177.9 68.8171C177.566 67.5854 177.169 66.3735 176.98 65.1233C176.868 64.3524 176.483 63.6811 176.35 62.9307C176.198 62.0136 176.873 61.3798 176.659 60.441C176.368 59.1269 175.848 57.7883 175.807 56.4365C175.781 55.459 176.216 54.2394 176.727 53.4367C177.005 52.9629 177.277 52.8425 177.14 52.2998C177.043 51.8618 176.513 51.1883 176.164 50.9334C175.712 50.5937 175.11 50.4803 174.638 50.1403C174.123 49.7996 173.609 49.459 173.053 49.1384C171.96 48.56 170.952 47.879 169.987 47.1363C169.309 46.606 168.4 46.2384 167.765 45.6672C167.437 45.371 167.197 44.7436 166.954 44.3656C166.242 43.3359 165.615 42.2451 164.862 41.2355C163.395 39.3 161.761 37.4659 160.337 35.4895C159.259 33.9967 158.626 31.8873 157.967 30.1931C157.547 29.1264 157.273 28.0204 156.833 26.9533C156.693 26.6185 156.557 25.9719 156.312 25.6771C155.986 25.2978 155.407 25.0808 154.955 24.7412C153.847 23.8091 152.74 22.8148 151.442 22.0876C150.701 21.6395 149.936 21.378 149.109 21.0948C148.013 20.7035 146.983 20.0845 145.888 19.6931C143.572 18.8877 141.164 18.7044 138.87 17.8162C137.527 17.2962 136.312 16.5704 135.096 15.9277C133.034 14.8352 130.563 14.651 128.261 14.3031C126.913 14.1157 125.353 14.1536 124.04 14.3824C122.623 14.6097 121.148 14.5242 119.694 14.4806C118.156 14.4357 116.675 13.4355 115.527 12.4405C114.46 11.5299 114.086 10.1728 113.125 9.18074C112.327 8.33674 111.387 7.30341 110.229 6.93187C109.712 6.77824 109.128 6.89382 108.589 6.80222C107.387 6.55472 106.249 6.24584 105.005 6.03925C103.491 5.82843 102.057 5.76438 100.519 5.74027C99.7503 5.72822 98.9612 5.67427 98.192 5.683C97.4639 5.71316 96.7739 5.97259 96.025 6.00242C95.5048 6.03584 95.0077 5.92411 94.4871 5.97832C93.9036 6.07311 93.2973 6.29227 92.7342 6.40817C91.3574 6.71918 90.0231 6.9685 88.6475 7.19639C87.3759 7.42591 86.1214 7.88435 84.8891 8.26C83.1972 8.77395 81.4664 9.121 79.7366 9.40569C78.4442 9.63488 77.0933 9.61371 75.7603 9.7799C74.6981 9.90877 73.6135 10.1412 72.553 10.1662C70.9521 10.1826 69.3577 9.78347 67.7162 9.73695C64.994 9.67349 62.2335 10.732 59.5843 11.3141C58.854 11.4897 58.0821 11.6647 57.3515 11.8611C70.8205 5.31629 85.9685 1.72884 101.95 1.97937C121.382 2.28398 139.416 8.20011 154.538 18.1658C160.958 22.4031 166.826 27.3386 172.081 32.9089C189.052 50.9275 199.293 75.2848 198.874 101.99C198.84 104.152 198.745 106.25 198.566 108.367C197.59 121.552 193.987 133.926 188.304 145.063Z"
          fill="url(#paint14_linear_131_340)"/>
    <path opacity="0.3" fill-rule="evenodd" clip-rule="evenodd"
          d="M25.0689 133.837C26.2025 135.788 27.3993 137.678 28.449 139.669C29.5796 141.807 30.3364 143.918 31.1745 146.156C31.7926 147.829 31.8316 147.995 30.7509 149.309C29.7549 150.52 29.5239 151.992 29.4998 153.53C29.4461 155.629 29.2437 157.933 26.5598 158.078C22.8771 158.29 19.7636 152.691 18.3291 150.05C17.1569 147.911 16.3826 145.591 15.4195 143.373C14.5968 141.489 13.6321 139.374 13.3942 137.313C13.1728 135.521 14.0432 134.371 15.3707 133.228C16.9717 131.881 18.4875 131.988 20.4618 132.019C22.7476 132.075 24.3079 131.996 25.0689 133.837Z"
          fill="url(#paint15_linear_131_340)"/>
    <path fill-rule="evenodd" clip-rule="evenodd"
          d="M8.12597 108.707C7.73534 108.431 7.40998 107.969 6.98815 108.357C6.77739 108.541 6.60494 108.933 6.51757 109.202C6.38571 109.657 6.45616 110.469 6.74125 110.847C7.02634 111.226 7.40138 111.17 7.75826 110.947C8.45125 110.5 8.56398 109.941 8.26365 109.208L8.12597 108.707Z"
          fill="white"/>
    <path fill-rule="evenodd" clip-rule="evenodd"
          d="M55.5969 70.7452C55.3595 71.3027 55.1224 71.8395 54.885 72.397C55.0487 72.5659 55.0029 72.8354 55.1451 73.0455C55.3279 73.3186 55.6981 73.5739 56.0085 73.6619C56.4839 73.8357 56.8619 73.5921 57.2392 73.3902C57.4909 73.2486 57.8465 73.1087 57.9952 72.9031C58.1862 72.6567 58.132 72.1361 57.9904 71.8845C57.8294 71.5493 57.5008 71.2947 57.1923 71.082C56.9046 70.8696 56.4305 70.6127 56.0772 70.6072C55.6826 70.5802 55.2829 70.8858 55.0705 71.1735L55.5969 70.7452Z"
          fill="white"/>
    <path fill-rule="evenodd" clip-rule="evenodd"
          d="M42.4231 74.3829C42.5796 75.009 42.9036 75.5545 43.3745 76.0192C43.6518 75.5663 44.249 74.5986 43.4207 74.3985L42.4231 74.3829Z"
          fill="#FFC445"/>
    <path fill-rule="evenodd" clip-rule="evenodd"
          d="M27.1902 141.727C27.3467 142.353 27.6707 142.898 28.1416 143.363C28.4189 142.91 29.0161 141.942 28.1877 141.742L27.1902 141.727Z"
          fill="#FFC445"/>
    <path fill-rule="evenodd" clip-rule="evenodd"
          d="M107.146 108.161C107.905 108.797 109.283 109.712 108.497 110.843C108.05 111.501 106.862 111.67 106.394 111.018C105.967 110.429 105.851 109.887 105.674 109.24C105.536 108.739 105.88 107.996 106.626 108.153L107.146 108.161Z"
          fill="#FFC445"/>
    <path fill-rule="evenodd" clip-rule="evenodd"
          d="M108.156 46.3535C107.239 46.5054 106.218 46.6765 105.603 47.4775C104.966 48.2991 105.201 49.2382 105.666 50.0562C106.01 50.6644 106.375 51.2314 106.74 51.84C106.942 52.1965 107 52.4885 107.478 52.5167C107.997 52.5457 108.732 52.0583 109.132 51.7735C109.615 51.4277 110.209 50.6887 110.425 50.1308C110.902 48.9118 110.482 46.5354 108.798 46.5298L108.156 46.3535Z"
          fill="#FFD32F"/>
    <path fill-rule="evenodd" clip-rule="evenodd"
          d="M106.074 116.875C105.157 117.027 104.135 117.198 103.52 117.999C102.883 118.821 103.118 119.76 103.583 120.578C103.927 121.186 104.293 121.753 104.657 122.361C104.859 122.718 104.917 123.01 105.395 123.038C105.914 123.067 106.649 122.58 107.049 122.295C107.532 121.949 108.126 121.21 108.343 120.652C108.819 119.433 108.399 117.057 106.715 117.051L106.074 116.875Z"
          fill="#FFBA00"/>
    <path fill-rule="evenodd" clip-rule="evenodd"
          d="M72.0713 15.7093C72.0713 15.7093 68.551 14.8434 64.0436 17.2672C59.5363 19.6911 59.7369 21.482 59.7369 21.482C59.7369 21.482 68.0834 19.4717 72.0713 15.7093Z"
          fill="white"/>
    <path fill-rule="evenodd" clip-rule="evenodd"
          d="M118.1 177.201C118.1 177.201 109.811 174.182 108.654 173.748C108.654 173.748 109.871 178.32 118.1 177.201Z"
          fill="white"/>
    <path fill-rule="evenodd" clip-rule="evenodd"
          d="M115.259 192.645C115.259 192.645 113.773 190.626 109.946 189.422C109.946 189.443 108.764 191.878 115.259 192.645Z"
          fill="white"/>
    <path fill-rule="evenodd" clip-rule="evenodd"
          d="M38.5496 159.698C38.5496 159.698 44.451 169.124 44.8034 174.493C44.803 174.514 37.3964 168.286 38.5496 159.698Z"
          fill="white"/>
    <defs>
        <radialGradient id="paint0_radial_131_340" cx="0" cy="0" r="1" gradientUnits="userSpaceOnUse"
                        gradientTransform="translate(147.488 40.2393) rotate(90.8981) scale(158.178)">
            <stop offset="0.00558659" stop-color="#FFB80B"/>
            <stop offset="0.258" stop-color="#FFB60C"/>
            <stop offset="0.384" stop-color="#FEAE10"/>
            <stop offset="0.4821" stop-color="#FCA117"/>
            <stop offset="0.5656" stop-color="#FA8E21"/>
            <stop offset="0.6392" stop-color="#F7762E"/>
            <stop offset="0.662" stop-color="#F66D33"/>
            <stop offset="0.7209" stop-color="#EF6836"/>
            <stop offset="0.8061" stop-color="#DC593D"/>
            <stop offset="0.9068" stop-color="#BD4049"/>
            <stop offset="0.9832" stop-color="#A02A54"/>
        </radialGradient>
        <linearGradient id="paint1_linear_131_340" x1="72.9321" y1="9.82991" x2="72.1848" y2="57.5024"
                        gradientUnits="userSpaceOnUse">
            <stop offset="0.0112" stop-color="#FFA90B"/>
            <stop offset="0.3713" stop-color="#FFA60E"/>
            <stop offset="0.6354" stop-color="#FF9D16"/>
            <stop offset="0.868" stop-color="#FF8D25"/>
            <stop offset="1" stop-color="#FF8031"/>
        </linearGradient>
        <linearGradient id="paint2_linear_131_340" x1="72.9056" y1="11.5118" x2="72.2242" y2="54.9844"
                        gradientUnits="userSpaceOnUse">
            <stop offset="0.0112" stop-color="#FFE00B"/>
            <stop offset="0.3061" stop-color="#FFDD0D"/>
            <stop offset="0.5224" stop-color="#FFD412"/>
            <stop offset="0.7136" stop-color="#FFC41B"/>
            <stop offset="0.8891" stop-color="#FFAD27"/>
            <stop offset="1" stop-color="#FF9B31"/>
        </linearGradient>
        <linearGradient id="paint3_linear_131_340" x1="129.723" y1="17.181" x2="130.027" y2="36.1717"
                        gradientUnits="userSpaceOnUse">
            <stop offset="0.0112" stop-color="#FFA90B"/>
            <stop offset="0.3713" stop-color="#FFA60E"/>
            <stop offset="0.6354" stop-color="#FF9D16"/>
            <stop offset="0.868" stop-color="#FF8D25"/>
            <stop offset="1" stop-color="#FF8031"/>
        </linearGradient>
        <linearGradient id="paint4_linear_131_340" x1="129.741" y1="18.3507" x2="130.008" y2="34.9606"
                        gradientUnits="userSpaceOnUse">
            <stop offset="0.0112" stop-color="#FFE00B"/>
            <stop offset="0.3061" stop-color="#FFDD0D"/>
            <stop offset="0.5224" stop-color="#FFD412"/>
            <stop offset="0.7136" stop-color="#FFC41B"/>
            <stop offset="0.8891" stop-color="#FFAD27"/>
            <stop offset="1" stop-color="#FF9B31"/>
        </linearGradient>
        <linearGradient id="paint5_linear_131_340" x1="36.6052" y1="172.615" x2="104.147" y2="173.674"
                        gradientUnits="userSpaceOnUse">
            <stop offset="0.0112" stop-color="#FF8E0B"/>
            <stop offset="0.3475" stop-color="#FD8B0D"/>
            <stop offset="0.5941" stop-color="#F98215"/>
            <stop offset="0.8113" stop-color="#F17221"/>
            <stop offset="1" stop-color="#E65D31"/>
        </linearGradient>
        <linearGradient id="paint6_linear_131_340" x1="70.6884" y1="153.246" x2="70.0653" y2="192.999"
                        gradientUnits="userSpaceOnUse">
            <stop offset="0.0112" stop-color="#FFE00B"/>
            <stop offset="0.3061" stop-color="#FFDD0D"/>
            <stop offset="0.5224" stop-color="#FFD412"/>
            <stop offset="0.7136" stop-color="#FFC41B"/>
            <stop offset="0.8891" stop-color="#FFAD27"/>
            <stop offset="1" stop-color="#FF9B31"/>
        </linearGradient>
        <linearGradient id="paint7_linear_131_340" x1="105.521" y1="186.409" x2="131.589" y2="186.817"
                        gradientUnits="userSpaceOnUse">
            <stop offset="0.0112" stop-color="#FFA90B"/>
            <stop offset="0.3713" stop-color="#FFA60E"/>
            <stop offset="0.6354" stop-color="#FF9D16"/>
            <stop offset="0.868" stop-color="#FF8D25"/>
            <stop offset="1" stop-color="#FF8031"/>
        </linearGradient>
        <linearGradient id="paint8_linear_131_340" x1="107.23" y1="186.422" x2="129.88" y2="186.777"
                        gradientUnits="userSpaceOnUse">
            <stop offset="0.0112" stop-color="#FFE00B"/>
            <stop offset="0.3061" stop-color="#FFDD0D"/>
            <stop offset="0.5224" stop-color="#FFD412"/>
            <stop offset="0.7136" stop-color="#FFC41B"/>
            <stop offset="0.8891" stop-color="#FFAD27"/>
            <stop offset="1" stop-color="#FF9B31"/>
        </linearGradient>
        <linearGradient id="paint9_linear_131_340" x1="3.20657" y1="103.798" x2="18.3921" y2="104.036"
                        gradientUnits="userSpaceOnUse">
            <stop offset="0.0112" stop-color="#FFA90B"/>
            <stop offset="0.3713" stop-color="#FFA60E"/>
            <stop offset="0.6354" stop-color="#FF9D16"/>
            <stop offset="0.868" stop-color="#FF8D25"/>
            <stop offset="1" stop-color="#FF8031"/>
        </linearGradient>
        <linearGradient id="paint10_linear_131_340" x1="4.91418" y1="103.821" x2="16.6841" y2="104.006"
                        gradientUnits="userSpaceOnUse">
            <stop offset="0.0112" stop-color="#FFE00B"/>
            <stop offset="0.3061" stop-color="#FFDD0D"/>
            <stop offset="0.5224" stop-color="#FFD412"/>
            <stop offset="0.7136" stop-color="#FFC41B"/>
            <stop offset="0.8891" stop-color="#FFAD27"/>
            <stop offset="1" stop-color="#FF9B31"/>
        </linearGradient>
        <linearGradient id="paint11_linear_131_340" x1="98.2541" y1="152.904" x2="162.282" y2="162.429"
                        gradientUnits="userSpaceOnUse">
            <stop offset="0.0112" stop-color="#FFA90B"/>
            <stop offset="0.3713" stop-color="#FFA60E"/>
            <stop offset="0.6354" stop-color="#FF9D16"/>
            <stop offset="0.868" stop-color="#FF8D25"/>
            <stop offset="1" stop-color="#FF8031"/>
        </linearGradient>
        <linearGradient id="paint12_linear_131_340" x1="99.9418" y1="153.152" x2="160.593" y2="162.174"
                        gradientUnits="userSpaceOnUse">
            <stop offset="0.0112" stop-color="#FFE00B"/>
            <stop offset="0.3061" stop-color="#FFDD0D"/>
            <stop offset="0.5224" stop-color="#FFD412"/>
            <stop offset="0.7136" stop-color="#FFC41B"/>
            <stop offset="0.8891" stop-color="#FFAD27"/>
            <stop offset="1" stop-color="#FF9B31"/>
        </linearGradient>
        <linearGradient id="paint13_linear_131_340" x1="108.88" y1="2.14719" x2="106.506" y2="153.577"
                        gradientUnits="userSpaceOnUse">
            <stop offset="0.0112" stop-color="#FFE00B"/>
            <stop offset="0.3061" stop-color="#FFDD0D"/>
            <stop offset="0.5224" stop-color="#FFD412"/>
            <stop offset="0.7136" stop-color="#FFC41B"/>
            <stop offset="0.8891" stop-color="#FFAD27"/>
            <stop offset="1" stop-color="#FF9B31"/>
        </linearGradient>
        <linearGradient id="paint14_linear_131_340" x1="129.04" y1="2.46306" x2="126.819" y2="144.095"
                        gradientUnits="userSpaceOnUse">
            <stop offset="0.0112" stop-color="#FFE00B"/>
            <stop offset="0.3061" stop-color="#FFDD0D"/>
            <stop offset="0.5224" stop-color="#FFD412"/>
            <stop offset="0.7136" stop-color="#FFC41B"/>
            <stop offset="0.8891" stop-color="#FFAD27"/>
            <stop offset="1" stop-color="#FF9B31"/>
        </linearGradient>
        <linearGradient id="paint15_linear_131_340" x1="22.6319" y1="132.08" x2="22.2248" y2="158.052"
                        gradientUnits="userSpaceOnUse">
            <stop offset="0.0112" stop-color="#FFE00B"/>
            <stop offset="0.3061" stop-color="#FFDD0D"/>
            <stop offset="0.5224" stop-color="#FFD412"/>
            <stop offset="0.7136" stop-color="#FFC41B"/>
            <stop offset="0.8891" stop-color="#FFAD27"/>
            <stop offset="1" stop-color="#FF9B31"/>
        </linearGradient>
    </defs>
</svg>