<svg width="86" height="197" viewBox="0 0 86 197" fill="none" xmlns="http://www.w3.org/2000/svg">
    <path fill-rule="evenodd" clip-rule="evenodd"
          d="M85.9999 98.4794C85.9999 126.955 73.9238 152.583 54.6146 170.562C45.3652 179.167 34.4947 186.005 22.4809 190.557C11.6104 194.693 -0.153931 196.938 -12.4587 196.938C-16.8235 196.938 -21.1468 196.647 -25.3661 196.107C-44.3844 193.612 -61.6568 185.714 -75.6659 173.95C-85.8505 165.428 -94.2892 154.869 -100.338 142.918C-104.141 135.394 -107.01 127.35 -108.797 118.89C-108.818 118.869 -108.818 118.849 -108.818 118.807C-110.19 112.239 -110.917 105.442 -110.917 98.4794C-110.917 79.0454 -105.285 60.9209 -95.5571 45.6439C-91.4209 39.159 -86.578 33.2145 -81.0908 27.8727C-63.3404 10.6211 -39.1466 0 -12.4379 0C-10.2762 0 -8.17694 0.0623519 -6.05687 0.207847C5.12547 0.935322 15.8089 3.51267 25.6403 7.64888C27.3654 8.37636 29.049 9.14541 30.7326 9.95602C40.2937 14.6119 48.9818 20.785 56.4852 28.1637C74.6929 46.018 85.9999 70.9392 85.9999 98.4794Z"
          fill="url(#paint0_radial_131_282)"/>
    <path fill-rule="evenodd" clip-rule="evenodd"
          d="M46.9466 161.23C43.6418 161.23 41.1892 159.92 40.046 157.571C37.8636 152.978 38.986 136.246 45.6372 121.468C55.4893 99.498 69.0411 93.6782 74.8193 93.6782C75.235 93.6782 75.6092 93.699 75.9417 93.7614C76.1704 93.8029 76.3574 93.8445 76.5445 93.9069C78.041 94.281 79.3505 95.4865 80.3066 97.4819C84.1934 105.567 81.9694 125.542 75.6091 139.384C69.6854 152.25 55.7387 161.23 46.9466 161.23Z"
          fill="url(#paint1_linear_131_282)"/>
    <path fill-rule="evenodd" clip-rule="evenodd"
          d="M74.0487 138.657C66.2335 155.618 45.1575 164.285 41.5825 156.823C39.7742 153.019 40.5017 137.015 47.1944 122.154C57.2128 99.8098 70.9309 94.7591 75.7115 95.445C75.8154 95.4658 75.9193 95.4865 76.0232 95.5073C82.7576 97.1909 81.7183 121.946 74.0487 138.657Z"
          fill="url(#paint2_linear_131_282)"/>
    <path fill-rule="evenodd" clip-rule="evenodd"
          d="M72.6559 92.0986C71.9076 92.0986 71.2217 91.9115 70.619 91.5582C66.5451 89.1056 63.8431 73.1011 66.649 68.0919C67.4181 66.6993 68.4573 66.242 69.1848 66.1173C69.4966 66.055 69.8291 66.0342 70.1617 66.0342C74.7552 66.0342 79.3694 71.4383 80.9283 78.6091C82.0091 83.5767 79.8475 87.6922 77.4572 89.8954C75.9607 91.288 74.194 92.0986 72.6559 92.0986Z"
          fill="url(#paint3_linear_131_282)"/>
    <path fill-rule="evenodd" clip-rule="evenodd"
          d="M76.2932 88.6272C74.6096 90.2068 72.6974 90.8096 71.4919 90.1029C68.2287 88.1491 65.7137 73.2463 68.1247 68.9438C68.4573 68.3202 68.9146 67.9253 69.4757 67.8214C72.8221 67.1562 77.665 71.6042 79.2447 78.9829C80.1592 83.1191 78.4549 86.6526 76.2932 88.6272Z"
          fill="url(#paint4_linear_131_282)"/>
    <path fill-rule="evenodd" clip-rule="evenodd"
          d="M-6.28399 195.691C-6.88675 195.691 -7.51031 195.691 -8.15464 195.67C-18.2562 195.379 -25.9674 191.077 -27.36 187.252C-27.8796 185.839 -27.5263 184.405 -26.4455 183.449C-23.2653 180.643 -10.15 180.497 -7.55187 180.497C0.949196 180.497 11.2793 181.328 12.1939 185.298C12.4225 186.317 12.381 187.876 10.8013 189.58C8.45258 192.157 5.25169 195.691 -6.28399 195.691Z"
          fill="url(#paint5_linear_131_282)"/>
    <path fill-rule="evenodd" clip-rule="evenodd"
          d="M9.55233 188.437C7.16206 191.077 4.14824 194.34 -8.11492 193.966C-20.0247 193.613 -28.1932 187.273 -25.3249 184.737C-21.4381 181.329 9.4692 181.142 10.5292 185.693C10.7371 186.587 10.4045 187.502 9.55233 188.437Z"
          fill="url(#paint6_linear_131_282)"/>
    <path fill-rule="evenodd" clip-rule="evenodd"
          d="M41.3952 99.9137C34.8064 99.9137 29.7557 96.7751 27.1367 91.1008C20.8805 77.4866 20.8804 50.8195 25.4324 40.0736C26.5755 37.3508 27.9474 35.7088 29.6102 35.0436C31.273 34.3577 32.9981 34.0044 34.7233 34.0044C40.5431 34.0044 46.5707 37.8912 52.1619 45.2699C61.3281 57.346 67.7091 76.9254 65.298 85.572C64.529 88.3572 62.1179 91.3295 58.5013 93.9276C53.3882 97.6689 46.9656 99.9137 41.3952 99.9137Z"
          fill="url(#paint7_linear_131_282)"/>
    <path fill-rule="evenodd" clip-rule="evenodd"
          d="M63.6983 85.1147C63.0124 87.5881 60.7052 90.2694 57.5459 92.5349C48.9409 98.7704 34.0796 102.075 28.6963 90.3733C22.6063 77.1125 22.6479 51.0273 27.0127 40.7387C27.9273 38.5978 28.9873 37.1429 30.2552 36.6233C48.837 28.9536 67.2941 72.1864 63.6983 85.1147Z"
          fill="url(#paint8_linear_131_282)"/>
    <path fill-rule="evenodd" clip-rule="evenodd"
          d="M9.5542 188.437C-10.8359 194.735 -25.3022 184.737 -25.3022 184.737C-21.4154 181.329 9.49186 181.142 10.5519 185.693C10.739 186.587 10.4064 187.502 9.5542 188.437Z"
          fill="#FFE373"/>
    <path fill-rule="evenodd" clip-rule="evenodd"
          d="M70.8062 137.14C56.901 159.837 41.5825 156.823 41.5825 156.823C39.7742 153.019 40.5017 137.015 47.1944 122.154C57.2128 99.8098 70.9309 94.7591 75.7115 95.445C75.8154 95.4658 75.9193 95.4865 76.0232 95.5073C78.6837 103.801 80.8454 120.782 70.8062 137.14Z"
          fill="#FFE373"/>
    <path fill-rule="evenodd" clip-rule="evenodd"
          d="M57.5459 92.5556C48.9409 98.7911 34.0796 102.096 28.6963 90.394C22.6063 77.1332 22.6479 51.048 27.0127 40.7594C30.858 40.2398 37.9456 41.5284 46.2181 53.6461C57.5667 70.2741 61.3911 83.0361 57.5459 92.5556Z"
          fill="#FFE373"/>
    <path fill-rule="evenodd" clip-rule="evenodd"
          d="M76.2932 88.6273C74.6096 90.2069 72.6974 90.8097 71.4919 90.103C68.2287 88.1492 65.7137 73.2463 68.1247 68.9438C70.7021 70.4404 74.5265 73.5166 75.545 79.0662C76.2101 82.5372 76.3556 85.8836 76.2932 88.6273Z"
          fill="#FFE373"/>
    <path opacity="0.3" fill-rule="evenodd" clip-rule="evenodd"
          d="M38.4652 121.738C37.4883 124.087 36.4074 126.061 34.8901 128.098C33.747 129.636 32.2297 130.8 31.3151 132.525C28.2181 138.366 28.8625 144.934 27.0542 151.066C26.0773 154.412 23.5415 157.073 22.5438 160.46C22.1073 161.999 22.336 163.391 22.2944 164.971C22.2321 166.821 21.2967 168.089 20.1743 169.523C18.9688 171.102 17.2852 172.308 15.4354 173.035C13.9388 173.638 12.3384 173.389 10.7587 173.389C7.22528 173.389 3.81654 172.911 0.387016 171.913C-2.73074 170.998 -5.64063 169.564 -8.79996 168.671C-10.9616 168.068 -12.4581 168.255 -14.6198 168.712C-16.4696 169.086 -18.5481 168.878 -20.4188 168.858C-23.7236 168.795 -26.8621 170.666 -29.7928 172.121C-31.9545 173.202 -33.3886 174.428 -34.22 176.777C-35.1969 179.458 -35.1554 181.952 -38.3978 183.012C-40.2685 183.636 -42.5756 182.971 -44.4047 182.597C-46.0883 182.243 -47.9173 182.451 -49.6425 182.451C-53.0097 182.472 -56.1482 181.453 -59.1205 179.894C-62.6123 178.045 -65.6885 175.239 -68.4737 172.557C-69.991 171.102 -71.9448 170.292 -73.5037 168.858C-75.6653 166.945 -77.8062 165.22 -79.8431 163.163C-82.9193 160.045 -86.2865 156.844 -89.716 154.1C-92.1686 152.167 -94.2679 149.777 -96.3256 147.532C-98.0508 145.662 -99.0693 142.897 -100.358 140.735C-102.873 136.454 -104.91 131.299 -106.157 126.477C-107.591 120.886 -109.212 114.817 -109.15 108.997C-109.088 104.092 -109.774 99.3526 -109.774 94.4265C-110.21 103.78 -109.732 111.533 -108.838 118.828C-110.21 112.26 -110.938 105.463 -110.938 98.5004C-110.938 79.0664 -105.305 60.9419 -95.5774 45.6649C-91.4412 39.18 -86.5982 33.2354 -81.111 27.8937C-63.3606 10.6421 -39.1669 0.0209961 -12.4581 0.0209961C-10.2965 0.0209961 -8.1972 0.0833559 -6.07713 0.228851C5.10521 0.956326 15.7887 3.53366 25.62 7.66988C28.1558 10.4551 30.6708 13.4273 32.4998 16.5659C33.2481 17.8545 33.8509 19.2887 34.5992 20.5774C35.2643 21.7206 35.9917 22.3441 35.7839 23.7575C35.6592 24.5889 35.0772 25.6489 34.7446 26.4387C33.643 29.0784 30.5876 30.9907 28.2597 32.4456C24.9965 34.5033 21.1928 35.3347 17.7217 37.1222C15.4769 38.2654 14.7287 39.3047 13.2114 41.1961C12.4423 42.1522 11.4239 42.9005 10.7587 43.9189C8.86729 46.8496 7.84882 50.9651 7.99432 54.4154C8.24374 61.025 13.3569 65.8263 14.5624 72.1034C15.6224 77.5283 14.8534 83.265 16.5785 88.5859C18.4908 94.5304 23.7078 99.4149 28.6131 102.865C30.65 104.299 32.6454 105.505 34.4329 107.23C36.1165 108.831 38.4651 109.766 39.6499 111.761C41.6245 115.045 39.7538 118.599 38.4652 121.738Z"
          fill="url(#paint9_linear_131_282)"/>
    <path fill-rule="evenodd" clip-rule="evenodd"
          d="M30.7122 9.97667C30.3796 10.0182 30.0679 10.039 29.7353 10.1222C28.6337 10.33 27.7607 10.2261 26.6591 9.91432C25.8693 9.68568 25.3081 9.3739 24.4767 9.22841C23.2711 9.04134 22.1695 8.52172 20.9848 8.37622C19.7169 8.20994 18.6361 7.7111 17.4306 7.27462C16.4952 6.94206 15.9964 7.04598 15.0819 7.27462C14.1673 7.52404 13.5438 7.12913 12.7332 6.79657C11.8186 6.40165 10.9249 6.33929 9.96874 6.15223C7.47454 5.6326 5.00112 4.84277 2.52771 4.19844C0.989616 3.80352 -0.423759 3.80352 -2.00343 3.78274C-3.22974 3.76195 -4.35213 4.1153 -5.57845 4.1153C-6.38906 4.1153 -7.09575 3.9698 -7.92715 3.86588C-8.75854 3.72038 -9.61073 3.88667 -10.4629 3.76196C-11.71 3.57489 -12.3751 3.38782 -13.643 3.78274C-14.5783 4.09451 -15.3266 4.05294 -16.2619 4.1153C-17.3012 4.15687 -18.4859 4.44786 -19.5044 4.67649C-21.3543 5.11298 -23.3704 5.44554 -25.2618 5.40397C-26.4258 5.40397 -28.1302 5.07141 -29.2318 5.46633C-29.9593 5.71575 -30.3126 6.48479 -30.8114 7.00441C-31.7676 8.00209 -32.9523 8.87507 -33.7421 9.99746C-34.5527 11.0991 -35.4465 12.2422 -35.3841 13.6556C-35.3218 14.8611 -34.7606 16.2953 -34.2202 17.3969C-33.6798 18.5817 -33.4927 19.6417 -34.6982 20.4315C-36.2155 21.4292 -37.9823 22.3645 -39.7282 22.8634C-40.8922 23.1959 -41.9314 23.4038 -42.9083 22.5724C-43.2617 22.2606 -43.4903 21.6578 -43.9268 21.4292C-44.384 21.2006 -44.8621 21.4292 -45.361 21.5747C-46.5873 21.9281 -47.7928 22.3437 -49.0399 22.5516C-49.8089 22.6763 -50.4741 23.0712 -51.2223 23.2167C-52.1369 23.383 -52.7812 22.7179 -53.7165 22.9465C-55.026 23.2583 -56.3562 23.7987 -57.7072 23.8611C-58.6841 23.9026 -59.9105 23.4869 -60.7211 22.9881C-61.1991 22.7179 -61.3238 22.4477 -61.8643 22.5932C-62.3007 22.6971 -62.9658 23.2375 -63.2153 23.5908C-63.5478 24.0481 -63.6518 24.6509 -63.9843 25.1289C-64.3169 25.6486 -64.6494 26.1682 -64.9612 26.7294C-65.5224 27.831 -66.1875 28.8495 -66.915 29.8264C-67.4346 30.5123 -67.788 31.4268 -68.3492 32.0711C-68.6402 32.4037 -69.2637 32.6531 -69.6378 32.9025C-70.6563 33.63 -71.7371 34.2743 -72.7348 35.0434C-74.647 36.5399 -76.4553 38.2027 -78.4091 39.6577C-79.8849 40.7593 -81.9841 41.4244 -83.6677 42.1103C-84.7278 42.5468 -85.8294 42.8378 -86.8894 43.295C-87.222 43.4405 -87.8663 43.586 -88.1573 43.8354C-88.5314 44.168 -88.7393 44.75 -89.0718 45.2073C-89.9864 46.3297 -90.9633 47.452 -91.6699 48.7615C-92.1064 49.5098 -92.3558 50.2788 -92.6261 51.1102C-93.0002 52.2118 -93.603 53.2511 -93.9771 54.3527C-94.7461 56.6806 -94.8916 59.0917 -95.7438 61.3988C-96.2426 62.7498 -96.9493 63.9761 -97.5729 65.2024C-98.6329 67.2809 -98.7784 69.7544 -99.0902 72.0615C-99.2565 73.4125 -99.1941 74.9714 -98.9447 76.2808C-98.6953 77.6942 -98.7576 79.17 -98.7784 80.6249C-98.7992 82.163 -99.7761 83.6595 -100.753 84.8235C-101.647 85.9043 -102.998 86.2992 -103.975 87.2761C-104.806 88.0867 -105.825 89.0429 -106.178 90.2068C-106.323 90.7264 -106.199 91.3084 -106.282 91.8488C-106.51 93.0544 -106.801 94.1975 -106.988 95.4446C-107.176 96.9619 -107.217 98.3961 -107.217 99.9342C-107.217 100.703 -107.259 101.493 -107.238 102.262C-107.196 102.99 -106.926 103.675 -106.885 104.424C-106.843 104.943 -106.947 105.442 -106.885 105.962C-106.781 106.544 -106.552 107.147 -106.427 107.708C-106.095 109.08 -105.825 110.41 -105.575 111.782C-105.326 113.05 -104.848 114.297 -104.453 115.523C-103.912 117.207 -103.538 118.932 -103.226 120.657C-102.977 121.946 -102.977 123.297 -102.79 124.627C-102.644 125.687 -102.395 126.768 -102.353 127.828C-102.312 129.428 -102.686 131.029 -102.707 132.671C-102.728 135.393 -101.626 138.137 -101.002 140.777C-100.815 141.504 -100.628 142.273 -100.42 143.001C-107.176 129.636 -111 114.546 -111 98.5624C-111 79.1284 -105.367 61.0039 -95.6399 45.7269C-91.5037 39.242 -86.6608 33.2974 -81.1735 27.9557C-63.4231 10.7041 -39.2294 0.0830078 -12.5206 0.0830078C-10.359 0.0830078 -8.2597 0.14536 -6.13963 0.290855C7.05885 1.0599 19.4883 4.46864 30.7122 9.97667Z"
          fill="url(#paint10_linear_131_282)"/>
    <path opacity="0.3" fill-rule="evenodd" clip-rule="evenodd"
          d="M22.0462 173.368C23.9792 172.204 25.8499 170.978 27.8245 169.897C29.9445 168.733 32.0438 167.943 34.2678 167.07C35.9306 166.426 36.0969 166.384 37.4271 167.444C38.6534 168.421 40.1292 168.629 41.6673 168.629C43.7666 168.65 46.0737 168.816 46.2608 171.497C46.531 175.176 40.9814 178.377 38.3624 179.853C36.2424 181.058 33.9353 181.869 31.732 182.867C29.8614 183.719 27.7621 184.717 25.7044 184.987C23.9169 185.236 22.7529 184.384 21.5889 183.074C20.2171 181.495 20.3003 179.978 20.3003 178.003C20.3211 175.717 20.2171 174.158 22.0462 173.368Z"
          fill="url(#paint11_linear_131_282)"/>
    <path opacity="0.3" fill-rule="evenodd" clip-rule="evenodd"
          d="M51.3925 35.7292C52.8683 38.6599 53.9283 42.5883 56.1523 45.0201C57.337 46.3088 58.2516 46.5374 59.8936 46.5166C60.7042 46.5166 62.2007 46.8284 62.949 46.5582C64.009 46.1841 63.9467 44.9993 63.9051 43.9601C63.7596 40.0733 61.1199 36.4775 58.688 33.6715C57.1084 31.8632 54.4687 29.6392 51.8706 30.1381C51.1431 31.884 50.956 33.8378 51.3925 35.7292Z"
          fill="url(#paint12_linear_131_282)"/>
    <path fill-rule="evenodd" clip-rule="evenodd"
          d="M-1.2561 26.0021C-0.632553 25.8358 -0.0921457 25.5033 0.365125 25.0252C-0.0921457 24.755 -1.06904 24.173 -1.2561 25.0044V26.0021Z"
          fill="#FFE373"/>
    <path fill-rule="evenodd" clip-rule="evenodd"
          d="M29.9017 171.123C30.5253 170.956 31.0657 170.624 31.523 170.146C31.0657 169.876 30.0888 169.294 29.9017 170.125V171.123Z"
          fill="#FFC445"/>
    <path fill-rule="evenodd" clip-rule="evenodd"
          d="M6.91223 38.681C7.53578 37.9119 8.42954 36.5193 9.57271 37.2884C10.2378 37.7249 10.4249 38.9096 9.78056 39.3877C9.19858 39.8242 8.65817 39.9489 8.01384 40.1359C7.515 40.2814 6.76674 39.9489 6.91223 39.2006V38.681Z"
          fill="#FFE373"/>
    <path fill-rule="evenodd" clip-rule="evenodd"
          d="M35.7838 24.6092C36.4074 23.8402 37.3011 22.4476 38.4443 23.2166C39.1094 23.6531 39.2965 24.8379 38.6521 25.3159C38.0702 25.7524 37.5298 25.8771 36.8854 26.0642C36.3866 26.2097 35.6383 25.8771 35.7838 25.1288V24.6092Z"
          fill="#FFC445"/>
    <path fill-rule="evenodd" clip-rule="evenodd"
          d="M3.81665 92.6389C3.98293 93.5534 4.16999 94.5719 4.98061 95.1746C5.81201 95.7982 6.74733 95.5488 7.55794 95.0707C8.16071 94.7174 8.7219 94.3432 9.32467 93.9691C9.67801 93.7612 9.96902 93.6989 9.9898 93.2208C10.0106 92.7012 9.51174 91.9737 9.22075 91.5788C8.8674 91.1008 8.11914 90.5188 7.55794 90.3109C6.33163 89.8537 3.96213 90.3109 3.98292 91.9945L3.81665 92.6389Z"
          fill="#FFBA00"/>
    <path fill-rule="evenodd" clip-rule="evenodd"
          d="M63.9474 79.6689C63.9474 79.6689 61.0583 88.0037 60.6426 89.1677C60.6426 89.1677 65.1945 87.879 63.9474 79.6689Z"
          fill="#FFE373"/>
    <path fill-rule="evenodd" clip-rule="evenodd"
          d="M79.433 82.2671C79.433 82.2671 77.4376 83.7844 76.2944 87.6296C76.3152 87.6296 78.7679 88.7728 79.433 82.2671Z"
          fill="#FFE373"/>
    <path fill-rule="evenodd" clip-rule="evenodd"
          d="M47.6929 159.483C47.6929 159.483 57.0253 153.435 62.3879 152.999C62.4086 152.999 56.2979 160.502 47.6929 159.483Z"
          fill="#FFE373"/>
    <defs>
        <radialGradient id="paint0_radial_131_282" cx="0" cy="0" r="1" gradientUnits="userSpaceOnUse"
                        gradientTransform="translate(-73.4585 52.4306) scale(158.178)">
            <stop offset="0.00558659" stop-color="#FFB80B"/>
            <stop offset="0.258" stop-color="#FFB60C"/>
            <stop offset="0.384" stop-color="#FEAE10"/>
            <stop offset="0.4821" stop-color="#FCA117"/>
            <stop offset="0.5656" stop-color="#FA8E21"/>
            <stop offset="0.6392" stop-color="#F7762E"/>
            <stop offset="0.662" stop-color="#F66D33"/>
            <stop offset="0.7209" stop-color="#EF6836"/>
            <stop offset="0.8061" stop-color="#DC593D"/>
            <stop offset="0.9068" stop-color="#BD4049"/>
            <stop offset="0.9832" stop-color="#A02A54"/>
        </radialGradient>
        <linearGradient id="paint1_linear_131_282" x1="60.6386" y1="161.225" x2="60.6386" y2="93.6751"
                        gradientUnits="userSpaceOnUse">
            <stop offset="0.0112" stop-color="#FF8E0B"/>
            <stop offset="0.3475" stop-color="#FD8B0D"/>
            <stop offset="0.5941" stop-color="#F98215"/>
            <stop offset="0.8113" stop-color="#F17221"/>
            <stop offset="1" stop-color="#E65D31"/>
        </linearGradient>
        <linearGradient id="paint2_linear_131_282" x1="40.7378" y1="127.45" x2="80.4955" y2="127.45"
                        gradientUnits="userSpaceOnUse">
            <stop offset="0.0112" stop-color="#FFE00B"/>
            <stop offset="0.3061" stop-color="#FFDD0D"/>
            <stop offset="0.5224" stop-color="#FFD412"/>
            <stop offset="0.7136" stop-color="#FFC41B"/>
            <stop offset="0.8891" stop-color="#FFAD27"/>
            <stop offset="1" stop-color="#FF9B31"/>
        </linearGradient>
        <linearGradient id="paint3_linear_131_282" x1="73.3505" y1="92.1013" x2="73.3505" y2="66.0309"
                        gradientUnits="userSpaceOnUse">
            <stop offset="0.0112" stop-color="#FFA90B"/>
            <stop offset="0.3713" stop-color="#FFA60E"/>
            <stop offset="0.6354" stop-color="#FF9D16"/>
            <stop offset="0.868" stop-color="#FF8D25"/>
            <stop offset="1" stop-color="#FF8031"/>
        </linearGradient>
        <linearGradient id="paint4_linear_131_282" x1="73.3366" y1="90.3924" x2="73.3366" y2="67.7393"
                        gradientUnits="userSpaceOnUse">
            <stop offset="0.0112" stop-color="#FFE00B"/>
            <stop offset="0.3061" stop-color="#FFDD0D"/>
            <stop offset="0.5224" stop-color="#FFD412"/>
            <stop offset="0.7136" stop-color="#FFC41B"/>
            <stop offset="0.8891" stop-color="#FFAD27"/>
            <stop offset="1" stop-color="#FF9B31"/>
        </linearGradient>
        <linearGradient id="paint5_linear_131_282" x1="-7.64644" y1="195.698" x2="-7.64644" y2="180.511"
                        gradientUnits="userSpaceOnUse">
            <stop offset="0.0112" stop-color="#FFA90B"/>
            <stop offset="0.3713" stop-color="#FFA60E"/>
            <stop offset="0.6354" stop-color="#FF9D16"/>
            <stop offset="0.868" stop-color="#FF8D25"/>
            <stop offset="1" stop-color="#FF8031"/>
        </linearGradient>
        <linearGradient id="paint6_linear_131_282" x1="-7.65017" y1="193.99" x2="-7.65017" y2="182.219"
                        gradientUnits="userSpaceOnUse">
            <stop offset="0.0112" stop-color="#FFE00B"/>
            <stop offset="0.3061" stop-color="#FFDD0D"/>
            <stop offset="0.5224" stop-color="#FFD412"/>
            <stop offset="0.7136" stop-color="#FFC41B"/>
            <stop offset="0.8891" stop-color="#FFAD27"/>
            <stop offset="1" stop-color="#FF9B31"/>
        </linearGradient>
        <linearGradient id="paint7_linear_131_282" x1="39.9644" y1="99.8929" x2="48.4838" y2="35.7237"
                        gradientUnits="userSpaceOnUse">
            <stop offset="0.0112" stop-color="#FFA90B"/>
            <stop offset="0.3713" stop-color="#FFA60E"/>
            <stop offset="0.6354" stop-color="#FF9D16"/>
            <stop offset="0.868" stop-color="#FF8D25"/>
            <stop offset="1" stop-color="#FF8031"/>
        </linearGradient>
        <linearGradient id="paint8_linear_131_282" x1="40.1854" y1="98.2013" x2="48.2554" y2="37.4158"
                        gradientUnits="userSpaceOnUse">
            <stop offset="0.0112" stop-color="#FFE00B"/>
            <stop offset="0.3061" stop-color="#FFDD0D"/>
            <stop offset="0.5224" stop-color="#FFD412"/>
            <stop offset="0.7136" stop-color="#FFC41B"/>
            <stop offset="0.8891" stop-color="#FFAD27"/>
            <stop offset="1" stop-color="#FF9B31"/>
        </linearGradient>
        <linearGradient id="paint9_linear_131_282" x1="-110.941" y1="91.6313" x2="40.5079" y2="91.6313"
                        gradientUnits="userSpaceOnUse">
            <stop offset="0.0112" stop-color="#FFE00B"/>
            <stop offset="0.3061" stop-color="#FFDD0D"/>
            <stop offset="0.5224" stop-color="#FFD412"/>
            <stop offset="0.7136" stop-color="#FFC41B"/>
            <stop offset="0.8891" stop-color="#FFAD27"/>
            <stop offset="1" stop-color="#FF9B31"/>
        </linearGradient>
        <linearGradient id="paint10_linear_131_282" x1="-110.941" y1="71.4687" x2="30.7084" y2="71.4687"
                        gradientUnits="userSpaceOnUse">
            <stop offset="0.0112" stop-color="#FFE00B"/>
            <stop offset="0.3061" stop-color="#FFDD0D"/>
            <stop offset="0.5224" stop-color="#FFD412"/>
            <stop offset="0.7136" stop-color="#FFC41B"/>
            <stop offset="0.8891" stop-color="#FFAD27"/>
            <stop offset="1" stop-color="#FF9B31"/>
        </linearGradient>
        <linearGradient id="paint11_linear_131_282" x1="20.3279" y1="175.832" x2="46.3023" y2="175.832"
                        gradientUnits="userSpaceOnUse">
            <stop offset="0.0112" stop-color="#FFE00B"/>
            <stop offset="0.3061" stop-color="#FFDD0D"/>
            <stop offset="0.5224" stop-color="#FFD412"/>
            <stop offset="0.7136" stop-color="#FFC41B"/>
            <stop offset="0.8891" stop-color="#FFAD27"/>
            <stop offset="1" stop-color="#FF9B31"/>
        </linearGradient>
        <linearGradient id="paint12_linear_131_282" x1="51.1666" y1="38.3521" x2="63.9504" y2="38.3521"
                        gradientUnits="userSpaceOnUse">
            <stop offset="0.0112" stop-color="#FFE00B"/>
            <stop offset="0.3061" stop-color="#FFDD0D"/>
            <stop offset="0.5224" stop-color="#FFD412"/>
            <stop offset="0.7136" stop-color="#FFC41B"/>
            <stop offset="0.8891" stop-color="#FFAD27"/>
            <stop offset="1" stop-color="#FF9B31"/>
        </linearGradient>
    </defs>
</svg>