<svg width="22" height="22" viewBox="0 0 22 22" fill="none" xmlns="http://www.w3.org/2000/svg">
<g clip-path="url(#clip0_77_212)">
<path fill-rule="evenodd" clip-rule="evenodd" d="M11.0018 0.705811C11.8139 0.705811 12.4724 1.27429 12.4724 1.73522V20.2646C12.4724 20.8331 11.8139 21.294 11.0018 21.294C10.1897 21.294 9.53125 20.7256 9.53125 20.2646V1.73522C9.53125 1.16675 10.1897 0.705811 11.0018 0.705811Z" fill="white"/>
<path fill-rule="evenodd" clip-rule="evenodd" d="M1.73644 9.5293H20.2659C20.8343 9.5293 21.2953 10.3414 21.2953 10.9999C21.2953 11.812 20.8343 12.4705 20.2659 12.4705H1.73644C1.16797 12.4705 0.707031 11.6584 0.707031 10.9999C0.707031 10.1878 1.16797 9.5293 1.73644 9.5293Z" fill="white"/>
</g>
<defs>
<clipPath id="clip0_77_212">
<rect width="20.5882" height="20.5882" fill="white" transform="translate(0.707031 0.705811)"/>
</clipPath>
</defs>
</svg>
