<svg width="685" height="415" viewBox="0 0 685 415" fill="none" xmlns="http://www.w3.org/2000/svg">
<mask id="mask0_34_7497" style="mask-type:alpha" maskUnits="userSpaceOnUse" x="0" y="0" width="685" height="415">
<rect y="0.0117188" width="685" height="414" fill="url(#paint0_linear_34_7497)"/>
</mask>
<g mask="url(#mask0_34_7497)">
<rect y="0.0117188" width="685" height="414" fill="url(#paint1_linear_34_7497)"/>
<ellipse opacity="0.46" cx="206.562" cy="127.032" rx="255.82" ry="466.764" transform="rotate(-130.563 206.562 127.032)" fill="url(#paint2_linear_34_7497)"/>
</g>
<g filter="url(#filter0_d_34_7497)">
<path d="M605.932 344.627L608.336 362.78L604.077 364.994L595.712 357.297L597.093 368.625L592.834 370.839L579.385 358.426L583.559 356.257L592.537 364.718L590.913 352.434L594.66 350.486L603.667 358.932L602.014 346.663L605.932 344.627ZM626.539 343.689C626.568 343.746 626.746 344.158 627.073 344.926L615.517 350.933C616.218 351.771 617.098 352.263 618.16 352.408C619.221 352.554 620.329 352.326 621.484 351.726C622.279 351.313 622.92 350.835 623.408 350.293C623.905 349.722 624.285 349.044 624.549 348.257L628.234 349.588C627.652 351.982 625.979 353.898 623.215 355.334C621.493 356.23 619.797 356.691 618.127 356.717C616.448 356.724 614.939 356.318 613.6 355.5C612.261 354.681 611.197 353.515 610.41 352.001C609.633 350.505 609.284 348.979 609.365 347.423C609.455 345.837 609.942 344.394 610.828 343.092C611.723 341.761 612.937 340.697 614.471 339.9C615.966 339.122 617.487 338.741 619.033 338.755C620.579 338.768 622.007 339.204 623.318 340.061C624.639 340.89 625.712 342.099 626.539 343.689ZM616.241 343.235C615.237 343.757 614.543 344.479 614.156 345.401C613.77 346.323 613.757 347.315 614.117 348.378L621.642 344.467C620.988 343.581 620.173 343.03 619.197 342.817C618.21 342.584 617.225 342.724 616.241 343.235ZM634.399 329.541C635.818 328.803 637.278 328.465 638.777 328.527C640.285 328.561 641.68 329.002 642.962 329.85C644.235 330.679 645.28 331.879 646.096 333.45C646.913 335.021 647.3 336.575 647.257 338.112C647.205 339.63 646.764 341.025 645.935 342.298C645.115 343.542 643.995 344.533 642.575 345.271C640.474 346.363 638.53 346.532 636.744 345.777L637.659 347.538L633.428 349.737L622.477 328.669L626.906 326.367L630.758 333.777C631.236 331.967 632.449 330.554 634.399 329.541ZM639.919 342.035C641.055 341.444 641.786 340.584 642.112 339.453C642.446 338.293 642.279 337.069 641.61 335.782C640.941 334.495 640.041 333.665 638.909 333.291C637.786 332.889 636.657 332.983 635.521 333.574C634.385 334.164 633.65 335.039 633.315 336.199C632.99 337.33 633.161 338.539 633.83 339.826C634.5 341.113 635.395 341.958 636.518 342.36C637.65 342.734 638.784 342.625 639.919 342.035Z" fill="url(#paint3_linear_34_7497)"/>
</g>
<path d="M424.769 241.568C423.502 240.993 422.515 240.167 421.809 239.091C421.103 238.014 420.733 236.757 420.701 235.319C420.69 233.873 421.058 232.327 421.805 230.681C422.553 229.035 423.471 227.747 424.561 226.818C425.671 225.882 426.864 225.325 428.139 225.148C429.414 224.972 430.686 225.171 431.953 225.747C433.221 226.322 434.207 227.148 434.914 228.224C435.62 229.301 435.979 230.562 435.99 232.008C436.022 233.446 435.665 234.988 434.917 236.634C434.17 238.28 433.241 239.572 432.13 240.509C431.041 241.437 429.858 241.99 428.583 242.167C427.308 242.343 426.037 242.144 424.769 241.568ZM426.129 238.574C427.061 238.998 427.971 238.928 428.86 238.365C429.763 237.808 430.594 236.692 431.355 235.017C432.116 233.341 432.409 231.981 432.233 230.935C432.073 229.895 431.526 229.164 430.594 228.741C429.676 228.324 428.766 228.394 427.863 228.95C426.974 229.513 426.15 230.633 425.389 232.308C424.629 233.983 424.329 235.341 424.489 236.38C424.664 237.426 425.211 238.158 426.129 238.574ZM445.882 232.388L438.937 247.685L435.396 246.077L441.052 233.621L437.993 232.232L439.283 229.391L445.882 232.388ZM448.031 252.13C446.763 251.555 445.776 250.729 445.07 249.652C444.364 248.576 443.995 247.319 443.962 245.881C443.951 244.435 444.319 242.889 445.067 241.243C445.814 239.596 446.733 238.309 447.822 237.38C448.933 236.444 450.126 235.887 451.401 235.71C452.676 235.534 453.947 235.733 455.214 236.309C456.482 236.884 457.469 237.71 458.175 238.786C458.881 239.863 459.24 241.124 459.251 242.57C459.283 244.008 458.926 245.55 458.178 247.196C457.431 248.842 456.502 250.134 455.391 251.07C454.302 251.999 453.12 252.552 451.845 252.728C450.569 252.905 449.298 252.706 448.031 252.13ZM449.39 249.136C450.322 249.56 451.233 249.49 452.121 248.927C453.024 248.37 453.856 247.254 454.616 245.579C455.377 243.903 455.67 242.543 455.495 241.497C455.334 240.457 454.787 239.726 453.855 239.303C452.937 238.886 452.027 238.956 451.124 239.512C450.236 240.075 449.411 241.195 448.651 242.87C447.89 244.545 447.59 245.903 447.75 246.942C447.926 247.988 448.472 248.72 449.39 249.136ZM469.144 242.95L462.198 258.247L458.658 256.639L464.313 244.183L461.254 242.794L462.544 239.953L469.144 242.95ZM471.292 262.692C470.025 262.117 469.038 261.291 468.331 260.214C467.625 259.138 467.256 257.881 467.224 256.443C467.212 254.997 467.581 253.451 468.328 251.805C469.076 250.158 469.994 248.871 471.083 247.942C472.194 247.006 473.387 246.449 474.662 246.272C475.937 246.096 477.208 246.295 478.476 246.871C479.743 247.446 480.73 248.272 481.436 249.348C482.143 250.425 482.501 251.686 482.512 253.132C482.545 254.57 482.187 256.112 481.44 257.758C480.692 259.404 479.763 260.696 478.653 261.632C477.563 262.561 476.381 263.114 475.106 263.29C473.831 263.467 472.559 263.268 471.292 262.692ZM472.651 259.698C473.584 260.122 474.494 260.052 475.382 259.489C476.285 258.932 477.117 257.816 477.878 256.141C478.638 254.465 478.931 253.105 478.756 252.059C478.595 251.019 478.049 250.288 477.116 249.864C476.199 249.448 475.288 249.518 474.385 250.074C473.497 250.637 472.673 251.756 471.912 253.432C471.151 255.107 470.851 256.465 471.012 257.504C471.187 258.55 471.734 259.281 472.651 259.698ZM492.405 253.511L485.459 268.808L481.919 267.201L487.575 254.745L484.515 253.356L485.805 250.515L492.405 253.511Z" fill="white"/>
<g filter="url(#filter1_d_34_7497)">
<path d="M628.288 99.9378L635.127 103.352L623.354 126.939L616.514 123.525L628.288 99.9378ZM633.349 98.3566C632.092 97.7292 631.251 96.8533 630.827 95.7286C630.403 94.604 630.46 93.501 631 92.4196C631.54 91.3382 632.387 90.6291 633.541 90.2923C634.694 89.9555 635.9 90.1007 637.157 90.7281C638.413 91.3554 639.261 92.2168 639.7 93.3121C640.139 94.4075 640.096 95.4813 639.571 96.5335C639.002 97.6734 638.133 98.4264 636.965 98.7924C635.811 99.1292 634.606 98.9839 633.349 98.3566ZM645.483 136.561C644.563 136.722 643.54 136.686 642.415 136.453C641.334 136.206 640.253 135.812 639.171 135.272C636.365 133.871 634.545 132.068 633.711 129.863C632.906 127.672 633.197 125.189 634.583 122.412L639.419 112.723L635.78 110.907L638.406 105.646L642.045 107.462L644.912 101.719L651.751 105.132L648.884 110.876L654.759 113.808L652.133 119.069L646.258 116.137L641.466 125.738C640.97 126.732 640.832 127.63 641.051 128.434C641.315 129.222 641.914 129.85 642.849 130.317C643.931 130.857 644.997 131.024 646.049 130.819L645.483 136.561Z" fill="url(#paint4_linear_34_7497)"/>
</g>
<path d="M639.668 231.414C643.208 233.18 645.985 235.48 648 238.311C650.053 241.131 651.215 244.194 651.487 247.501C651.758 250.809 651.094 254.065 649.493 257.271C648.367 259.529 647.06 261.311 645.574 262.62C644.126 263.916 642.601 264.693 640.999 264.95C639.396 265.208 637.8 264.939 636.21 264.146C634.902 263.493 633.94 262.66 633.324 261.648C632.708 260.635 632.47 259.475 632.61 258.167C630.111 259.708 627.361 259.729 624.36 258.231C622.718 257.411 621.423 256.252 620.473 254.753C619.523 253.253 619.016 251.574 618.951 249.715C618.924 247.844 619.384 245.959 620.331 244.061C621.266 242.188 622.483 240.713 623.982 239.635C625.52 238.545 627.16 237.922 628.904 237.767C630.673 237.625 632.391 237.97 634.058 238.802C636.597 240.069 638.15 241.901 638.716 244.298L639.849 242.028L645.081 244.64L638.859 257.106C638.039 258.747 638.245 259.875 639.476 260.49C640.374 260.938 641.336 260.745 642.361 259.911C643.411 259.09 644.481 257.589 645.569 255.409C646.862 252.818 647.399 250.235 647.179 247.658C646.998 245.068 646.092 242.678 644.463 240.487C642.872 238.283 640.665 236.477 637.844 235.068C635.023 233.66 632.221 233.015 629.439 233.132C626.696 233.236 624.196 234.039 621.941 235.541C619.711 237.055 617.931 239.146 616.599 241.813C615.242 244.532 614.622 247.251 614.739 249.968C614.869 252.66 615.704 255.128 617.244 257.37C618.797 259.651 620.971 261.489 623.767 262.885C626.537 264.268 629.345 264.964 632.191 264.975L631.656 269.129C630.207 269.143 628.611 268.907 626.867 268.421C625.136 267.974 623.488 267.359 621.923 266.578C618.281 264.76 615.446 262.384 613.419 259.45C611.378 256.541 610.261 253.356 610.066 249.895C609.872 246.433 610.613 243.023 612.29 239.663C613.954 236.328 616.222 233.711 619.092 231.812C621.988 229.926 625.225 228.93 628.801 228.825C632.378 228.72 636 229.583 639.668 231.414ZM627.761 254.402C629.172 255.106 630.556 255.22 631.915 254.745C633.287 254.244 634.388 253.16 635.22 251.493C636.04 249.851 636.231 248.345 635.794 246.973C635.358 245.602 634.434 244.564 633.023 243.86C631.587 243.143 630.196 243.041 628.85 243.555C627.517 244.043 626.447 245.095 625.641 246.711C624.821 248.353 624.611 249.865 625.009 251.25C625.407 252.634 626.325 253.685 627.761 254.402Z" fill="white"/>
<path d="M490.915 112.181C488.834 102.734 487.903 92.75 487.616 82.4748C487.006 82.9948 486.745 83.9465 486.38 85.1097C480.347 69.133 489.095 44.2205 504.258 36.5626C502.596 32.6763 502.265 28.9664 503.762 25.5031C504.372 28.0058 504.99 30.4997 505.904 31.8039C506.034 27.433 507.758 23.9962 510.221 21C509.368 25.3445 508.846 29.6008 509.081 33.6633C514.025 24.7893 519.909 19.5548 527.752 21.9605C543.864 29.451 556.624 32.2269 568.828 22.3659C568.332 25.8908 567.174 28.9311 565.224 31.3809C567.983 31.2135 571.282 29.3277 574.747 26.9131L572.083 34.7561C577.341 34.853 582.633 31.8215 587.96 26.7809C586.672 34.571 583.408 40.0875 577.289 42.3435C582.311 44.8197 586.863 47.2872 589.483 49.6753C587.612 51.2527 585.175 51.288 582.372 50.3186C589.579 57.5447 592.469 65.8195 589.483 75.5219C588.717 73.3365 587.847 71.433 586.689 70.2521C588.343 80.4656 587.786 91.4458 585.801 102.919L569.542 132.881H507.166L490.915 112.181Z" fill="#52323A"/>
<path d="M491.028 162.746C484.012 170.14 475.839 178.3 474.977 181.649C471.6 192.787 513.294 187.791 513.294 187.791V181.111C505.712 178.802 498.496 178.414 490.775 178.705L503.78 179.119L491.028 162.746Z" fill="#FBD3A8"/>
<path d="M511.118 180.981C508.707 180.409 506.278 179.933 503.841 179.563L502.927 179.43C502.622 179.386 502.318 179.333 502.013 179.298L501.09 179.184C500.786 179.148 500.481 179.104 500.168 179.078L499.245 178.981C498.94 178.946 498.636 178.91 498.322 178.893L497.4 178.814C497.095 178.787 496.782 178.761 496.477 178.743L495.554 178.681C495.25 178.664 494.936 178.637 494.632 178.62C494.014 178.593 493.396 178.558 492.786 178.531C492.168 178.514 491.55 178.487 490.932 178.47L489.078 178.443C486.606 178.426 484.134 178.496 481.662 178.611C484.117 178.302 486.598 178.135 489.07 178.082C489.688 178.064 490.306 178.064 490.932 178.064C491.55 178.064 492.168 178.082 492.795 178.091C493.108 178.091 493.413 178.109 493.726 178.126L494.658 178.17C494.971 178.179 495.276 178.205 495.589 178.223L496.521 178.285C496.834 178.302 497.139 178.338 497.443 178.364L498.366 178.452C498.679 178.479 498.984 178.514 499.289 178.549L500.211 178.655C500.516 178.69 500.829 178.734 501.134 178.778L502.057 178.91C502.675 178.999 503.284 179.113 503.893 179.219C506.339 179.651 508.759 180.223 511.118 180.981Z" fill="#F8A364"/>
<path d="M584.783 162.746C591.799 170.14 599.973 178.3 600.834 181.649C604.212 192.787 562.518 187.791 562.518 187.791V181.111C570.099 178.802 577.315 178.414 585.036 178.705L572.032 179.119L584.783 162.746Z" fill="#FBD3A8"/>
<path d="M564.686 180.981C567.097 180.409 569.525 179.933 571.962 179.563L572.876 179.43C573.181 179.386 573.486 179.333 573.79 179.298L574.713 179.184C575.018 179.148 575.322 179.104 575.636 179.078L576.558 178.981C576.863 178.946 577.168 178.91 577.481 178.893L578.404 178.814C578.708 178.787 579.022 178.761 579.326 178.743L580.249 178.681C580.554 178.664 580.867 178.637 581.172 178.62C581.79 178.593 582.408 178.558 583.017 178.531C583.635 178.514 584.253 178.487 584.871 178.47L586.725 178.443C589.197 178.426 591.669 178.496 594.141 178.611C591.687 178.302 589.206 178.135 586.734 178.082C586.116 178.064 585.498 178.064 584.871 178.064C584.253 178.064 583.635 178.082 583.008 178.091C582.695 178.091 582.39 178.109 582.077 178.126L581.146 178.17C580.832 178.179 580.528 178.205 580.214 178.223L579.283 178.285C578.969 178.302 578.665 178.338 578.36 178.364L577.438 178.452C577.124 178.479 576.819 178.514 576.515 178.549L575.592 178.655C575.288 178.69 574.974 178.734 574.67 178.778L573.747 178.91C573.129 178.999 572.52 179.113 571.91 179.219C569.464 179.651 567.044 180.223 564.686 180.981Z" fill="#F8A364"/>
<path d="M553.648 135.076H521.52V161.725H553.648V135.076Z" fill="#FBD3A8"/>
<path d="M564.385 142.604C557.56 140.096 552.622 147.597 546.5 151.522C544.418 152.856 541.585 153.75 537.736 153.949C533.882 153.75 531.047 152.854 528.964 151.517C522.85 147.589 517.918 140.091 511.096 142.595C503.257 145.472 495.278 151.374 487.224 158.911C486.319 159.757 486.145 161.14 486.798 162.198L492.65 171.602C493.988 173.751 496.701 174.591 499.019 173.575V173.575C502.384 172.1 506.157 174.565 506.157 178.239V207.994C506.157 216.278 512.872 222.994 521.157 222.994H554.316C562.6 222.994 569.316 216.278 569.316 207.994V178.241C569.316 174.566 573.089 172.1 576.454 173.576V173.576C578.772 174.592 581.485 173.752 582.823 171.603L588.901 161.845C589.432 160.999 589.284 159.889 588.561 159.202C580.402 151.531 572.321 145.52 564.385 142.604Z" fill="url(#paint5_linear_34_7497)"/>
<path d="M551.828 142.611C544.047 147.017 529.649 146.638 523.609 142.461L523.321 140.514H552.133L551.828 142.611Z" fill="#F8A364"/>
<path d="M497.304 122.89C489.035 122.89 483.76 111.742 486.327 104.551C486.945 102.815 488.173 101.335 489.853 100.603C492.847 99.3078 495.545 100.903 497.304 102.101V122.89Z" fill="#FBD3A8"/>
<path d="M496.982 118.915C487.764 118.501 485.875 101.731 497.086 105.767Z" fill="#FBBD89"/>
<path d="M497.382 106.059C496.381 105.724 495.345 105.46 494.3 105.398C493.778 105.363 493.247 105.38 492.734 105.468C492.22 105.557 491.724 105.733 491.271 106.006C490.827 106.279 490.444 106.658 490.157 107.099C489.87 107.539 489.687 108.05 489.565 108.57C489.452 109.09 489.4 109.637 489.4 110.174C489.4 110.712 489.443 111.249 489.513 111.787C489.348 110.721 489.261 109.619 489.469 108.544C489.574 108.006 489.748 107.478 490.035 107.011C490.322 106.544 490.705 106.121 491.167 105.821C491.628 105.521 492.15 105.319 492.69 105.204C493.23 105.089 493.778 105.063 494.318 105.072C495.406 105.107 496.476 105.345 497.512 105.653L497.382 106.059Z" fill="#603813"/>
<path d="M578.037 122.37C586.306 122.37 591.581 111.222 589.013 104.032C588.395 102.296 587.168 100.815 585.488 100.084C582.494 98.7882 579.795 100.383 578.037 101.582V122.37Z" fill="#FBD3A8"/>
<path d="M578.246 105.248C589.457 101.212 587.569 117.981 578.351 118.396Z" fill="#FBBD89"/>
<path d="M577.828 105.141C578.864 104.832 579.935 104.594 581.023 104.559C581.562 104.541 582.111 104.577 582.65 104.691C583.181 104.806 583.712 105 584.174 105.308C584.635 105.608 585.018 106.022 585.305 106.498C585.592 106.965 585.767 107.502 585.871 108.031C586.08 109.106 585.993 110.208 585.827 111.274C585.897 110.736 585.941 110.199 585.941 109.661C585.941 109.124 585.888 108.586 585.775 108.057C585.653 107.538 585.471 107.026 585.183 106.586C584.896 106.145 584.522 105.766 584.069 105.493C583.625 105.22 583.12 105.052 582.607 104.956C582.093 104.859 581.562 104.85 581.04 104.885C579.987 104.956 578.96 105.211 577.959 105.546L577.828 105.141Z" fill="#603813"/>
<path d="M579.735 54.6991C551.915 37.0568 523.783 39.7622 495.45 54.6991C484.012 107.441 492.229 142.126 537.013 143.219H538.171C582.955 142.126 591.172 107.441 579.735 54.6991Z" fill="#FBD3A8"/>
<path d="M521.519 105.159C523.495 105.159 525.096 102.567 525.096 99.3698C525.096 96.1722 523.495 93.5801 521.519 93.5801C519.543 93.5801 517.941 96.1722 517.941 99.3698C517.941 102.567 519.543 105.159 521.519 105.159Z" fill="#282525"/>
<path d="M522.033 99.078C522.994 99.078 523.774 98.0995 523.774 96.8925C523.774 95.6855 522.994 94.707 522.033 94.707C521.071 94.707 520.292 95.6855 520.292 96.8925C520.292 98.0995 521.071 99.078 522.033 99.078Z" fill="white"/>
<path d="M553.656 105.159C555.631 105.159 557.233 102.567 557.233 99.3698C557.233 96.1722 555.631 93.5801 553.656 93.5801C551.68 93.5801 550.078 96.1722 550.078 99.3698C550.078 102.567 551.68 105.159 553.656 105.159Z" fill="#282525"/>
<path d="M554.161 99.078C555.122 99.078 555.902 98.0995 555.902 96.8925C555.902 95.6855 555.122 94.707 554.161 94.707C553.199 94.707 552.42 95.6855 552.42 96.8925C552.42 98.0995 553.199 99.078 554.161 99.078Z" fill="white"/>
<path d="M537.03 112.074C537.204 112.109 537.37 112.065 537.544 112.021C540.651 111.096 541.104 114.63 538.597 114.947C536.212 115.167 534.95 114.348 534.184 113.308C533.766 112.735 534.088 111.88 534.793 111.792C535.42 111.704 536.238 111.916 537.03 112.074Z" fill="#F8A364"/>
<path d="M553.029 89.4558C549.591 89.5175 548.285 86.1776 550.679 84.142C551.68 83.296 553.047 83.1021 554.344 83.2431C557.912 83.6309 560.132 84.9086 560.524 87.3849C560.663 88.2749 560.411 89.2179 559.758 89.8259C558.496 90.9892 556.546 90.5485 554.413 89.6937C553.978 89.5175 553.499 89.447 553.029 89.4558Z" fill="#282525"/>
<path d="M522.808 89.4558C526.246 89.5175 527.552 86.1776 525.158 84.142C524.157 83.296 522.791 83.1021 521.494 83.2431C517.925 83.6309 515.705 84.9086 515.313 87.3849C515.174 88.2749 515.427 89.2179 516.079 89.8259C517.342 90.9892 519.291 90.5485 521.424 89.6937C521.859 89.5175 522.329 89.447 522.808 89.4558Z" fill="#282525"/>
<path d="M527.107 122.6C528.892 122.952 530.624 123.322 532.356 123.578C534.088 123.825 535.821 123.983 537.553 124.001C539.285 124.018 541.008 123.904 542.749 123.675C544.481 123.437 546.214 123.084 547.989 122.714C546.457 123.701 544.76 124.424 542.993 124.9C541.226 125.393 539.381 125.622 537.535 125.605C535.69 125.578 533.853 125.314 532.095 124.794C530.337 124.292 528.648 123.569 527.107 122.6Z" fill="#F8A364"/>
<path d="M532.644 127.527C533.531 127.554 534.376 127.624 535.22 127.686C536.064 127.739 536.9 127.774 537.727 127.801C538.563 127.818 539.398 127.827 540.243 127.818C541.087 127.809 541.94 127.783 542.819 127.801C542.036 128.215 541.191 128.479 540.321 128.647C539.459 128.814 538.571 128.893 537.692 128.867C536.813 128.84 535.934 128.717 535.081 128.506C534.236 128.294 533.41 127.986 532.644 127.527Z" fill="#F8A364"/>
<path d="M567.31 147.985C567.074 145.257 566.426 143.292 563.84 142.394V142.394C560.07 141.084 555.701 143.923 554.203 147.622C551.783 153.601 546.635 157.528 538.18 157.645C538.154 157.645 538.119 157.645 538.093 157.645C537.997 157.645 537.893 157.645 537.788 157.645C537.684 157.645 537.588 157.645 537.484 157.645C537.458 157.645 537.423 157.645 537.397 157.645C528.935 157.521 523.79 153.597 521.372 147.62C519.877 143.924 515.51 141.09 511.742 142.396V142.396C509.156 143.293 508.503 145.258 508.267 147.986C506.762 165.39 507.141 186.365 508.408 209.013C508.849 216.889 515.405 222.998 523.293 222.998H536.378H539.207H552.289C560.178 222.998 566.735 216.886 567.174 209.009C568.436 186.362 568.815 165.388 567.31 147.985Z" fill="url(#paint6_linear_34_7497)"/>
<path d="M576.601 193.562H499.306C494.223 202.155 490.027 210.597 487.694 218.713C519.7 237.43 553.256 236.902 588.213 218.713C587.116 211.989 582.329 203.062 576.601 193.562Z" fill="white"/>
<path d="M522.721 226.522L576.183 210.378C581.954 208.633 588.082 211.894 589.832 217.728C591.494 223.297 590.476 229.792 586.55 231.431C579.099 236.286 548.738 237.071 527.691 240.86L522.721 226.522Z" fill="#FBD3A8"/>
<path d="M536.935 222.221L540.13 238.964L527.682 240.85L522.721 226.521L536.935 222.221Z" fill="white"/>
<g filter="url(#filter2_d_34_7497)">
<path d="M523.39 222.814C528.249 223.123 531.841 227.467 531.231 232.298L530.637 236.998C530.551 237.682 530.9 238.347 531.512 238.665V238.665C532.165 239.009 532.643 239.626 532.809 240.357C533.157 241.935 533.174 243.468 532.835 244.948C532.652 245.75 532.112 246.411 531.364 246.728V246.728C530.027 247.294 528.921 248.292 528.186 249.544C524.288 256.177 519.961 261.861 514.808 265.719C514.164 266.204 513.241 265.939 512.937 265.19C510.882 260.238 514.982 240.868 520.266 223.808C520.475 223.12 521.119 222.68 521.824 222.715L523.39 222.814Z" fill="url(#paint7_linear_34_7497)"/>
</g>
<path d="M524.044 222.873L521.833 222.732C521.154 222.6 520.457 223.173 520.327 223.622C514.364 243.212 510.822 259.515 512.946 265.208C513.372 265.992 513.912 266.142 514.521 265.886C514.33 253.725 520.832 229.553 524.044 222.873Z" fill="#666768"/>
<path d="M526.063 255.278C526.106 255.454 526.045 255.648 525.889 255.745C525.506 255.974 524.714 255.939 524.583 255.569C524.209 253.709 523.26 251.885 521.928 250.079C521.667 249.726 521.867 249.206 522.302 249.136C522.668 249.083 523.068 249.224 523.234 249.576C524.539 251.462 525.575 253.366 526.063 255.278Z" fill="#F1F2F2"/>
<path d="M527.97 252.694C528.013 252.87 527.953 253.064 527.796 253.161C527.413 253.39 526.621 253.355 526.49 252.985C526.116 251.125 525.167 249.301 523.835 247.495C523.574 247.142 523.774 246.622 524.21 246.552C524.575 246.499 524.976 246.64 525.141 246.992C526.455 248.878 527.483 250.773 527.97 252.694Z" fill="#F1F2F2"/>
<path d="M529.737 249.858C529.78 250.034 529.719 250.228 529.562 250.325C529.179 250.554 528.387 250.519 528.257 250.149C527.883 248.289 526.934 246.465 525.602 244.659C525.341 244.306 525.541 243.786 525.976 243.716C526.342 243.663 526.742 243.804 526.908 244.156C528.213 246.042 529.249 247.946 529.737 249.858Z" fill="#F1F2F2"/>
<path d="M554.23 226.522L500.768 210.378C494.997 208.633 488.869 211.894 487.119 217.728C485.457 223.297 486.475 229.792 490.401 231.431C497.852 236.286 528.213 237.071 549.26 240.86L554.23 226.522Z" fill="#FBD3A8"/>
<path d="M540.007 222.221L536.812 238.964L549.26 240.85L554.23 226.521L540.007 222.221Z" fill="white"/>
<g filter="url(#filter3_d_34_7497)">
<path d="M553.552 222.814C548.693 223.123 545.102 227.467 545.712 232.298L546.305 236.998C546.391 237.682 546.042 238.347 545.43 238.665V238.665C544.778 239.009 544.299 239.626 544.133 240.357C543.785 241.935 543.768 243.468 544.107 244.948C544.29 245.75 544.83 246.411 545.578 246.728V246.728C546.916 247.294 548.021 248.292 548.756 249.544C552.654 256.177 556.981 261.861 562.134 265.719C562.778 266.204 563.701 265.939 564.006 265.19C566.06 260.238 561.96 240.868 556.677 223.808C556.468 223.12 555.824 222.68 555.118 222.715L553.552 222.814Z" fill="url(#paint8_linear_34_7497)"/>
</g>
<path d="M552.898 222.873L555.109 222.732C555.788 222.6 556.485 223.173 556.615 223.622C562.578 243.212 566.12 259.515 563.997 265.208C563.57 265.992 563.03 266.142 562.421 265.886C562.613 253.725 556.119 229.553 552.898 222.873Z" fill="#666768"/>
<path d="M550.879 255.278C550.835 255.454 550.896 255.648 551.053 255.745C551.436 255.974 552.228 255.939 552.359 255.569C552.733 253.709 553.682 251.885 555.014 250.079C555.275 249.726 555.074 249.206 554.639 249.136C554.274 249.083 553.873 249.224 553.708 249.576C552.402 251.462 551.366 253.366 550.879 255.278Z" fill="#F1F2F2"/>
<path d="M548.973 252.694C548.929 252.87 548.99 253.064 549.147 253.161C549.53 253.39 550.322 253.355 550.452 252.985C550.827 251.125 551.775 249.301 553.107 247.495C553.368 247.142 553.168 246.622 552.733 246.552C552.367 246.499 551.967 246.64 551.802 246.992C550.496 248.878 549.46 250.773 548.973 252.694Z" fill="#F1F2F2"/>
<path d="M547.206 249.858C547.163 250.034 547.223 250.228 547.38 250.325C547.763 250.554 548.555 250.519 548.686 250.149C549.06 248.289 550.009 246.465 551.341 244.659C551.602 244.306 551.402 243.786 550.966 243.716C550.601 243.663 550.2 243.804 550.035 244.156C548.729 246.042 547.694 247.946 547.206 249.858Z" fill="#F1F2F2"/>
<path d="M580.71 213.09H494.867C493.613 213.09 492.604 212.068 492.604 210.799V210.35C492.604 209.081 493.613 208.059 494.867 208.059H580.71C581.963 208.059 582.973 209.081 582.973 210.35V210.799C582.973 212.059 581.963 213.09 580.71 213.09Z" fill="#DFDFDF"/>
<path d="M586.219 193.678H539.694H535.873H489.348C487.886 193.678 486.919 195.22 487.537 196.559L493.622 209.787H535.873H539.694H581.946L588.03 196.559C588.648 195.211 587.682 193.678 586.219 193.678Z" fill="#E9E9E9"/>
<path d="M583.26 154.094H492.316C490.54 154.094 489.156 155.654 489.348 157.442L494.701 207.77H580.883L586.237 157.442C586.419 155.654 585.035 154.094 583.26 154.094Z" fill="#EFEFEF"/>
<path d="M508.899 154.094H492.308C489.888 154.261 489.322 156.138 489.322 157.187L494.693 207.778H580.875L581.772 196.349C529.267 211.418 506.618 187.008 508.899 154.094Z" fill="white"/>
<path d="M580.71 211.419H494.867C493.613 211.419 492.604 210.396 492.604 209.127V208.678C492.604 207.409 493.613 206.387 494.867 206.387H580.71C581.963 206.387 582.973 207.409 582.973 208.678V209.127C582.973 210.388 581.963 211.419 580.71 211.419Z" fill="#CCCCCC"/>
<path d="M572.319 89.028C568.567 87.292 563.449 86.825 558.661 86.8955V86.8778C553.865 86.8073 548.764 87.2744 545.004 89.0104C543.098 89.9886 540.086 92.2534 541.244 97.4526C542.219 101.832 543.785 110.618 549.835 113.597C552.063 114.698 554.562 114.848 556.981 115.086C557.538 115.139 558.104 115.174 558.661 115.201V115.218C559.218 115.192 559.784 115.157 560.35 115.104C562.779 114.866 565.268 114.716 567.496 113.614C573.546 110.636 575.104 101.85 576.079 97.4703C577.237 92.271 574.225 90.0062 572.319 89.028ZM569.577 108.724C568.523 110.38 566.635 111.341 564.981 112.028C563.031 112.83 560.811 113.095 558.661 113.13V113.112C556.511 113.077 554.292 112.813 552.342 112.011C550.688 111.323 548.799 110.372 547.746 108.706C547.746 108.706 543.202 101.991 543.411 95.2319C543.307 93.1786 545.309 91.6012 547.093 90.7817C550.279 89.31 554.596 88.9135 558.67 88.9664V88.984C562.744 88.9311 567.061 89.3365 570.247 90.8081C572.031 91.6277 574.025 93.2051 573.92 95.2584C574.12 102.009 569.577 108.724 569.577 108.724Z" fill="#414042"/>
<path d="M529.745 89.028C525.994 87.292 520.884 86.825 516.088 86.8955V86.8778C511.292 86.8073 506.182 87.2744 502.431 89.0104C500.525 89.9886 497.513 92.2534 498.671 97.4526C499.645 101.832 501.212 110.618 507.253 113.597C509.481 114.698 511.971 114.848 514.399 115.086C514.957 115.139 515.522 115.174 516.079 115.201V115.218C516.636 115.192 517.202 115.157 517.759 115.104C520.188 114.866 522.677 114.716 524.906 113.614C530.947 110.636 532.513 101.85 533.488 97.4703C534.663 92.271 531.652 90.0062 529.745 89.028ZM527.003 108.724C525.95 110.38 524.061 111.341 522.408 112.028C520.458 112.83 518.238 113.095 516.088 113.13V113.112C513.938 113.077 511.718 112.813 509.769 112.011C508.115 111.323 506.226 110.372 505.173 108.706C505.173 108.706 500.638 101.991 500.838 95.2319C500.734 93.1786 502.736 91.6012 504.511 90.7817C507.697 89.31 512.023 88.9135 516.088 88.9664V88.984C520.153 88.9311 524.479 89.3365 527.665 90.8081C529.449 91.6277 531.443 93.2051 531.347 95.2584C531.547 102.009 527.003 108.724 527.003 108.724Z" fill="#414042"/>
<path d="M575.461 97.5304L582.39 94.7985L582.973 89.4583L568.985 87.8809L574.53 92.71L575.461 97.5304Z" fill="#414042"/>
<path d="M498.827 97.7061L493.03 94.3222L493.23 89.4137L505.304 88.0566L499.759 92.8858L498.827 97.7061Z" fill="#414042"/>
<path d="M533.262 98.5803C533.262 98.5803 536.761 93.8392 541.487 98.5803L542.14 91.3982C542.14 91.3982 538.502 89.9178 531.547 91.3982L533.262 98.5803Z" fill="#414042"/>
<path opacity="0.3" d="M500.829 95.2574C500.724 93.2041 502.726 91.6267 504.502 90.8072C507.688 89.3355 512.014 88.9302 516.079 88.983V88.9654C520.144 88.9125 524.47 89.3179 527.656 90.7807C529.44 91.6003 531.433 93.1777 531.329 95.231C531.538 101.99 526.994 108.705 526.994 108.705C525.941 110.362 524.052 111.322 522.398 112.01C520.448 112.812 518.229 113.076 516.079 113.111V113.129C513.92 113.094 511.709 112.829 509.759 112.027C508.106 111.34 506.217 110.379 505.164 108.723C505.164 108.723 500.629 102.008 500.829 95.2574Z" fill="#79CFE1"/>
<path opacity="0.3" d="M516.496 104.702C510.508 102.314 506.303 97.053 505.781 90.4614C505.781 90.3997 505.772 90.338 505.772 90.2852C505.337 90.435 504.911 90.6112 504.51 90.7963C502.735 91.6158 500.733 93.1932 500.837 95.2465C500.628 102.006 505.172 108.712 505.172 108.712C506.225 110.368 508.114 111.329 509.768 112.016C511.718 112.818 513.937 113.083 516.087 113.118V113.1C518.237 113.065 520.457 112.801 522.407 111.999C524.06 111.311 525.949 110.36 527.003 108.694C527.003 108.694 528.43 106.579 529.657 103.53C525.566 105.733 520.831 106.438 516.496 104.702Z" fill="#79CFE1"/>
<path opacity="0.3" d="M569.577 108.723C568.524 110.379 566.635 111.34 564.981 112.027C563.031 112.829 560.811 113.094 558.661 113.129V113.111C556.511 113.076 554.292 112.812 552.342 112.01C550.688 111.322 548.799 110.371 547.746 108.705C547.746 108.705 543.202 101.99 543.411 95.231C543.307 93.1778 545.309 91.6004 547.093 90.7808C550.279 89.3092 554.596 88.9126 558.67 88.9655V88.9831C562.744 88.9302 567.061 89.3356 570.247 90.8073C572.031 91.6268 574.025 93.2042 573.92 95.2575C574.12 102.008 569.577 108.723 569.577 108.723Z" fill="#79CFE1"/>
<path opacity="0.3" d="M558.243 104.702C564.232 102.314 568.436 97.053 568.958 90.4614C568.967 90.3997 568.967 90.338 568.967 90.2852C569.402 90.435 569.829 90.6112 570.229 90.7963C572.013 91.6158 574.007 93.1932 573.902 95.2465C574.111 102.006 569.568 108.712 569.568 108.712C568.514 110.368 566.625 111.329 564.972 112.016C563.022 112.818 560.802 113.083 558.652 113.118V113.1C556.502 113.065 554.283 112.801 552.333 111.999C550.679 111.311 548.79 110.36 547.737 108.694C547.737 108.694 546.309 106.579 545.082 103.53C549.182 105.733 553.908 106.438 558.243 104.702Z" fill="#79CFE1"/>
<path d="M493.996 108.79C493.639 93.1925 495.902 73.8847 507.235 63.354C507.566 66.8965 508.985 70.0513 510.543 72.2897C511.509 68.0774 512.528 64.7551 513.938 62.4903C523.13 70.2011 532.583 74.5368 542.497 73.1709L530.537 65.231C541.487 69.8222 553.168 70.677 565.529 68.095C560.602 66.4471 556.702 63.072 553.308 58.8509C577.21 61.1332 581.266 86.0457 580.997 108.314L583.251 107.988C586.524 97.5017 584.278 73.4881 582.372 50.3293L537.109 32.123L491.228 54.1627C489.6 75.1184 489.295 94.0121 492.063 108.077L493.996 108.79Z" fill="#52323A"/>
<defs>
<filter id="filter0_d_34_7497" x="554.374" y="298.02" width="117.811" height="97.9089" filterUnits="userSpaceOnUse" color-interpolation-filters="sRGB">
<feFlood flood-opacity="0" result="BackgroundImageFix"/>
<feColorMatrix in="SourceAlpha" type="matrix" values="0 0 0 0 0 0 0 0 0 0 0 0 0 0 0 0 0 0 127 0" result="hardAlpha"/>
<feOffset/>
<feGaussianBlur stdDeviation="11"/>
<feComposite in2="hardAlpha" operator="out"/>
<feColorMatrix type="matrix" values="0 0 0 0 1 0 0 0 0 0.419608 0 0 0 0 0 0 0 0 0.4 0"/>
<feBlend mode="normal" in2="BackgroundImageFix" result="effect1_dropShadow_34_7497"/>
<feBlend mode="normal" in="SourceGraphic" in2="effect1_dropShadow_34_7497" result="shape"/>
</filter>
<filter id="filter1_d_34_7497" x="593.506" y="66.6055" width="90.6304" height="93.4458" filterUnits="userSpaceOnUse" color-interpolation-filters="sRGB">
<feFlood flood-opacity="0" result="BackgroundImageFix"/>
<feColorMatrix in="SourceAlpha" type="matrix" values="0 0 0 0 0 0 0 0 0 0 0 0 0 0 0 0 0 0 127 0" result="hardAlpha"/>
<feOffset/>
<feGaussianBlur stdDeviation="11"/>
<feComposite in2="hardAlpha" operator="out"/>
<feColorMatrix type="matrix" values="0 0 0 0 1 0 0 0 0 0.419608 0 0 0 0 0 0 0 0 0.4 0"/>
<feBlend mode="normal" in2="BackgroundImageFix" result="effect1_dropShadow_34_7497"/>
<feBlend mode="normal" in="SourceGraphic" in2="effect1_dropShadow_34_7497" result="shape"/>
</filter>
<filter id="filter2_d_34_7497" x="490.396" y="200.713" width="64.6836" height="87.2512" filterUnits="userSpaceOnUse" color-interpolation-filters="sRGB">
<feFlood flood-opacity="0" result="BackgroundImageFix"/>
<feColorMatrix in="SourceAlpha" type="matrix" values="0 0 0 0 0 0 0 0 0 0 0 0 0 0 0 0 0 0 127 0" result="hardAlpha"/>
<feOffset/>
<feGaussianBlur stdDeviation="11"/>
<feComposite in2="hardAlpha" operator="out"/>
<feColorMatrix type="matrix" values="0 0 0 0 1 0 0 0 0 0.419608 0 0 0 0 0 0 0 0 0.4 0"/>
<feBlend mode="normal" in2="BackgroundImageFix" result="effect1_dropShadow_34_7497"/>
<feBlend mode="normal" in="SourceGraphic" in2="effect1_dropShadow_34_7497" result="shape"/>
</filter>
<filter id="filter3_d_34_7497" x="521.862" y="200.713" width="64.6836" height="87.2512" filterUnits="userSpaceOnUse" color-interpolation-filters="sRGB">
<feFlood flood-opacity="0" result="BackgroundImageFix"/>
<feColorMatrix in="SourceAlpha" type="matrix" values="0 0 0 0 0 0 0 0 0 0 0 0 0 0 0 0 0 0 127 0" result="hardAlpha"/>
<feOffset/>
<feGaussianBlur stdDeviation="11"/>
<feComposite in2="hardAlpha" operator="out"/>
<feColorMatrix type="matrix" values="0 0 0 0 1 0 0 0 0 0.419608 0 0 0 0 0 0 0 0 0.4 0"/>
<feBlend mode="normal" in2="BackgroundImageFix" result="effect1_dropShadow_34_7497"/>
<feBlend mode="normal" in="SourceGraphic" in2="effect1_dropShadow_34_7497" result="shape"/>
</filter>
<linearGradient id="paint0_linear_34_7497" x1="300" y1="-56.5" x2="342.5" y2="414.012" gradientUnits="userSpaceOnUse">
<stop stop-color="#454369"/>
<stop offset="1" stop-color="#302D5C"/>
</linearGradient>
<linearGradient id="paint1_linear_34_7497" x1="300" y1="-56.5" x2="342.5" y2="414.012" gradientUnits="userSpaceOnUse">
<stop stop-color="#454369"/>
<stop offset="1" stop-color="#302D5C"/>
</linearGradient>
<linearGradient id="paint2_linear_34_7497" x1="174.817" y1="-467.16" x2="446.304" y2="528.42" gradientUnits="userSpaceOnUse">
<stop stop-color="#323056"/>
<stop offset="1" stop-color="#302D5C"/>
</linearGradient>
<linearGradient id="paint3_linear_34_7497" x1="603.054" y1="330.588" x2="621.042" y2="365.192" gradientUnits="userSpaceOnUse">
<stop stop-color="#FF9649"/>
<stop offset="1" stop-color="#FF5C00"/>
</linearGradient>
<linearGradient id="paint4_linear_34_7497" x1="650.37" y1="86.7761" x2="623.573" y2="140.46" gradientUnits="userSpaceOnUse">
<stop stop-color="#FF9649"/>
<stop offset="1" stop-color="#FF5C00"/>
</linearGradient>
<linearGradient id="paint5_linear_34_7497" x1="534.775" y1="140.672" x2="534.775" y2="222.994" gradientUnits="userSpaceOnUse">
<stop stop-color="#FF9649"/>
<stop offset="1" stop-color="#FF5C00"/>
</linearGradient>
<linearGradient id="paint6_linear_34_7497" x1="535.987" y1="140.717" x2="535.987" y2="222.998" gradientUnits="userSpaceOnUse">
<stop stop-color="#FF9649"/>
<stop offset="1" stop-color="#FF5C00"/>
</linearGradient>
<linearGradient id="paint7_linear_34_7497" x1="522.127" y1="222.713" x2="522.127" y2="265.964" gradientUnits="userSpaceOnUse">
<stop stop-color="#FF9649"/>
<stop offset="1" stop-color="#FF5C00"/>
</linearGradient>
<linearGradient id="paint8_linear_34_7497" x1="553.593" y1="222.713" x2="553.593" y2="265.964" gradientUnits="userSpaceOnUse">
<stop stop-color="#FF9649"/>
<stop offset="1" stop-color="#FF5C00"/>
</linearGradient>
</defs>
</svg>
