<svg width="685" height="414" viewBox="0 0 685 414" fill="none" xmlns="http://www.w3.org/2000/svg">
<mask id="mask0_34_7496" style="mask-type:alpha" maskUnits="userSpaceOnUse" x="0" y="0" width="685" height="414">
<rect width="685" height="414" fill="url(#paint0_linear_34_7496)"/>
</mask>
<g mask="url(#mask0_34_7496)">
<rect width="685" height="414" fill="url(#paint1_linear_34_7496)"/>
<ellipse opacity="0.46" cx="148.612" cy="178.268" rx="296.403" ry="301.784" transform="rotate(-76.5071 148.612 178.268)" fill="url(#paint2_linear_34_7496)"/>
</g>
<g filter="url(#filter0_d_34_7496)">
<path d="M601.187 300.692C603.234 300.374 604.715 301.095 605.63 302.855C606.326 304.194 606.36 305.492 605.733 306.749C605.106 308.007 603.793 309.156 601.794 310.195L593.9 314.298L586.207 299.5L593.771 295.568C595.624 294.605 597.249 294.192 598.646 294.327C600.035 294.443 601.044 295.107 601.673 296.317C602.054 297.051 602.2 297.802 602.11 298.57C602.029 299.311 601.722 300.019 601.187 300.692ZM593.301 303.534L596.546 301.847C598.05 301.065 598.525 300.143 597.972 299.079C597.429 298.034 596.406 297.902 594.902 298.684L591.656 300.371L593.301 303.534ZM599.921 307.465C601.498 306.645 602.005 305.694 601.443 304.612C601.147 304.044 600.749 303.727 600.249 303.661C599.739 303.576 599.09 303.739 598.302 304.149L594.616 306.065L596.317 309.338L599.921 307.465ZM608.952 287.397C611.244 286.206 613.291 285.841 615.091 286.302C616.882 286.746 618.35 288.068 619.493 290.268L623.883 298.712L619.867 300.8L618.909 298.957C618.817 300.752 617.671 302.221 615.471 303.365C614.334 303.956 613.243 304.278 612.2 304.331C611.174 304.375 610.265 304.172 609.472 303.722C608.68 303.273 608.059 302.617 607.611 301.755C606.896 300.38 606.847 299.031 607.464 297.709C608.1 296.377 609.499 295.149 611.663 294.024L615.074 292.251C614.588 291.316 613.932 290.748 613.106 290.549C612.271 290.331 611.284 290.517 610.148 291.108C609.359 291.518 608.646 292.052 608.01 292.709C607.382 293.338 606.912 294.002 606.599 294.7L603.5 292.502C604.012 291.514 604.746 290.574 605.702 289.681C606.677 288.778 607.76 288.017 608.952 287.397ZM615.042 299.919C615.775 299.538 616.341 299.034 616.737 298.409C617.125 297.765 617.266 297.051 617.161 296.267L616.375 294.754L613.432 296.284C611.671 297.199 611.092 298.234 611.692 299.389C611.978 299.939 612.418 300.27 613.011 300.381C613.613 300.464 614.29 300.31 615.042 299.919ZM634.744 274.27L636.224 293.45C636.432 295.508 636.213 297.148 635.566 298.369C634.938 299.58 633.918 300.553 632.506 301.287C631.736 301.687 630.913 301.964 630.038 302.116C629.162 302.269 628.376 302.258 627.68 302.084L627.661 298.216C628.143 298.338 628.638 298.372 629.146 298.317C629.672 298.254 630.146 298.112 630.567 297.893C631.154 297.588 631.555 297.193 631.769 296.709C631.993 296.244 632.08 295.604 632.03 294.792L632.013 294.626L617.855 283.049L622.284 280.747L631.656 288.628L630.618 276.415L634.744 274.27Z" fill="url(#paint3_linear_34_7496)"/>
</g>
<g filter="url(#filter1_d_34_7496)">
<path d="M442.431 150.549C443.559 151.145 444.441 151.909 445.076 152.842C445.731 153.768 446.093 154.78 446.16 155.877C446.228 156.974 445.987 158.042 445.44 159.079C444.892 160.117 444.146 160.917 443.201 161.48C442.257 162.043 441.215 162.322 440.073 162.316C438.951 162.304 437.827 162 436.698 161.405C435.7 160.877 434.877 160.236 434.231 159.48C433.605 158.718 433.191 157.886 432.988 156.982L435.582 156.262C435.942 157.497 436.686 158.413 437.814 159.008C438.566 159.406 439.314 159.56 440.058 159.472C440.801 159.383 441.441 159.066 441.978 158.52L437.581 156.199L438.681 154.117L443.038 156.418C443.16 155.686 443.05 154.998 442.71 154.354C442.37 153.71 441.831 153.193 441.091 152.803C439.976 152.214 438.797 152.122 437.555 152.527L436.676 149.998C437.543 149.644 438.465 149.516 439.44 149.617C440.435 149.711 441.432 150.022 442.431 150.549ZM457.36 161.867L453.82 159.997L449.608 167.973L446.592 166.381L450.804 158.404L447.264 156.535L448.579 154.045L458.675 159.376L457.36 161.867ZM459.149 173.211C458.047 172.629 457.175 171.878 456.533 170.958C455.91 170.032 455.568 169.031 455.507 167.953C455.446 166.876 455.689 165.819 456.237 164.781C456.785 163.744 457.521 162.946 458.445 162.39C459.369 161.833 460.386 161.557 461.494 161.562C462.623 161.561 463.738 161.851 464.841 162.433C465.943 163.015 466.806 163.769 467.428 164.695C468.057 165.608 468.403 166.603 468.464 167.68C468.525 168.758 468.282 169.815 467.734 170.853C467.186 171.89 466.45 172.687 465.526 173.244C464.601 173.801 463.582 174.083 462.466 174.091C461.357 174.086 460.252 173.793 459.149 173.211ZM460.464 170.721C461.243 171.132 462.015 171.208 462.782 170.949C463.568 170.685 464.195 170.111 464.66 169.229C465.126 168.347 465.243 167.514 465.011 166.728C464.799 165.936 464.304 165.334 463.526 164.923C462.748 164.512 461.965 164.439 461.179 164.704C460.399 164.956 459.776 165.522 459.31 166.404C458.845 167.286 458.724 168.127 458.949 168.925C459.181 169.711 459.686 170.31 460.464 170.721ZM487.393 174.542L481.866 185.008L479.162 183.58L480.744 180.584L478.507 179.403L474.941 181.351L471.711 179.645L475.912 177.485C475.337 176.816 474.995 176.113 474.887 175.376C474.798 174.633 474.956 173.878 475.36 173.113C476.011 171.881 476.951 171.167 478.183 170.971C479.434 170.77 480.837 171.08 482.394 171.901L487.393 174.542ZM481.147 174.403C480.499 174.06 479.944 173.917 479.484 173.972C479.036 174.035 478.676 174.325 478.402 174.844C478.128 175.363 478.081 175.827 478.263 176.238C478.464 176.643 478.888 177.016 479.537 177.359L481.813 178.561L483.385 175.584L481.147 174.403ZM497.036 175.603L500.655 177.514L495.357 186.086L492.945 184.812L497.036 175.603ZM491.572 190.332C491.041 190.052 490.682 189.647 490.497 189.118C490.332 188.583 490.379 188.069 490.64 187.576C490.9 187.083 491.291 186.767 491.812 186.628C492.34 186.475 492.877 186.543 493.421 186.831C493.966 187.118 494.325 187.523 494.497 188.045C494.676 188.554 494.635 189.055 494.375 189.548C494.114 190.041 493.71 190.367 493.162 190.525C492.634 190.677 492.104 190.613 491.572 190.332Z" fill="url(#paint4_linear_34_7496)"/>
</g>
<path d="M419.042 246C416.885 244.652 415.226 242.97 414.065 240.952C412.925 238.946 412.366 236.823 412.39 234.582C412.446 232.334 413.111 230.191 414.384 228.152C415.657 226.114 417.285 224.586 419.269 223.569C421.284 222.544 423.443 222.104 425.746 222.25C428.068 222.407 430.308 223.16 432.465 224.507C434.622 225.854 436.272 227.53 437.412 229.536C438.553 231.541 439.106 233.675 439.069 235.935C439.045 238.176 438.397 240.316 437.124 242.354C435.85 244.393 434.206 245.924 432.191 246.949C430.188 247.953 428.035 248.383 425.732 248.238C423.429 248.093 421.199 247.347 419.042 246ZM421.601 241.903C422.828 242.669 424.109 243.084 425.445 243.148C426.793 243.192 428.059 242.883 429.243 242.219C430.448 241.569 431.452 240.6 432.255 239.313C433.058 238.027 433.488 236.7 433.545 235.332C433.621 233.977 433.337 232.713 432.694 231.541C432.063 230.349 431.134 229.37 429.907 228.604C428.68 227.837 427.392 227.432 426.044 227.388C424.709 227.324 423.439 227.618 422.234 228.268C421.05 228.932 420.056 229.906 419.253 231.193C418.449 232.479 418.009 233.8 417.933 235.156C417.877 236.523 418.164 237.803 418.795 238.995C419.438 240.167 420.374 241.137 421.601 241.903ZM430.858 252.884L445.701 262.154L444.032 264.826L429.189 255.555L430.858 252.884ZM454.535 268.001C452.853 266.951 451.555 265.659 450.642 264.126C449.761 262.585 449.334 260.956 449.36 259.24C449.387 257.523 449.895 255.874 450.884 254.29C451.872 252.707 453.132 251.527 454.663 250.75C456.194 249.973 457.838 249.652 459.597 249.787C461.388 249.915 463.124 250.505 464.806 251.555C466.489 252.606 467.77 253.901 468.651 255.442C469.545 256.963 469.978 258.581 469.951 260.298C469.925 262.014 469.417 263.664 468.428 265.248C467.439 266.831 466.179 268.011 464.649 268.788C463.118 269.565 461.467 269.896 459.696 269.78C457.938 269.645 456.217 269.052 454.535 268.001ZM456.908 264.201C458.096 264.943 459.313 265.153 460.559 264.831C461.838 264.502 462.897 263.664 463.738 262.318C464.578 260.972 464.86 259.663 464.582 258.389C464.337 257.108 463.621 256.097 462.433 255.355C461.246 254.613 460.013 254.407 458.734 254.737C457.468 255.046 456.415 255.874 455.574 257.22C454.734 258.565 454.446 259.885 454.711 261.179C454.988 262.452 455.721 263.46 456.908 264.201Z" fill="white"/>
<path d="M543.996 23.697C523.672 25.3973 513.01 42.5903 511.24 72.7156C511.07 75.6261 510.64 78.5166 510.02 81.3671C506.349 98.5001 507.769 111.632 519.091 116.983L515.941 111.272C519.761 116.053 524.992 118.644 531.684 118.994L528.713 112.623C531.794 116.633 537.185 117.784 545.036 118.354H568.59C572.061 118.284 575.301 117.453 577.862 116.473L576.642 120.044C580.122 120.094 582.333 117.834 584.803 114.733C585.073 116.353 584.713 118.154 583.983 120.044C607.267 113.323 606.827 99.4203 603.056 79.7568C602.306 75.8561 601.996 71.8954 602.016 67.9247C602.246 30.4281 581.082 11.4648 543.996 23.697Z" fill="#333333"/>
<path d="M524.452 138.858L533.724 144.079L526.433 153.141C525.963 153.721 525.353 154.181 524.653 154.431C524.603 154.451 524.563 154.461 524.512 154.481C523.332 154.871 522.042 154.681 520.992 154.011C515.491 150.51 510.2 145.809 505.069 140.258L499.438 139.198L494.657 134.117L497.398 132.707L499.008 129.666L504.589 129.456C504.789 129.446 504.999 129.496 505.169 129.596C507.66 130.987 509.42 132.887 509.95 135.667L521.482 143.189C521.782 143.399 522.212 143.299 522.372 142.959L524.452 138.858Z" fill="#FBD3A8"/>
<path d="M472.933 119.645L513.08 137.898C513.81 138.228 514.13 139.088 513.8 139.808C513.47 140.538 512.619 140.858 511.889 140.538L471.572 122.455L472.933 119.645Z" fill="#91605A"/>
<path d="M481.664 123.617C482.644 124.497 481.534 126.367 480.414 126.427L471.572 122.467L472.933 119.656L481.664 123.617Z" fill="#B6ABA8"/>
<path d="M473.784 121.063C473.564 121.513 473.313 121.994 473.093 122.424C472.373 123.854 470.793 124.654 469.223 124.354C465.192 123.574 463.082 117.093 456.23 119.363C460.271 113.842 469.883 112.652 473.434 117.233C474.284 118.333 474.404 119.823 473.784 121.063Z" fill="#E6E7E8"/>
<path d="M468.912 114.635C465.572 116.205 465.392 119.255 466.932 123.296C462.091 119.275 460.211 118.005 456 119.325C458.78 115.535 464.271 113.614 468.912 114.635Z" fill="#FF8534"/>
<path d="M500.998 136.159L496.837 133.338C496.627 133.198 496.387 133.098 496.137 133.058C495.167 132.898 494.477 133.138 494.227 133.978L498.877 138.849C499.097 139.079 499.387 139.239 499.708 139.309L505.449 140.47L506.049 138.999L500.998 136.159Z" fill="#FBD3A8"/>
<path d="M502.828 132.71L503.008 129.66C500.197 129.19 497.207 129.26 494.106 129.67C493.796 129.71 493.556 129.97 493.546 130.28C493.536 130.66 493.706 131.07 494.076 131.33C494.236 131.44 494.436 131.5 494.636 131.51C497.427 131.6 500.067 131.92 502.828 132.71Z" fill="#FBD3A8"/>
<path d="M579.002 142.547L587.394 136.656L593.765 145.598C594.755 146.998 594.545 148.908 593.275 150.059L579.012 162.851L573.701 155.88L582.663 147.758C582.923 147.548 582.953 147.168 582.733 146.918L579.002 142.547Z" fill="#FBD3A8"/>
<path d="M563.67 110.213H550.117V131.457H563.67V110.213Z" fill="#FBD3A8"/>
<path opacity="0.6" d="M550.117 112.053L563.67 112.103V115.633C559.759 117.304 553.128 117.404 550.117 115.633V112.053Z" fill="#F8A364"/>
<path d="M540.254 234.229C540.254 234.229 540.024 248.271 540.024 249.181C540.024 250.101 546.185 249.911 547.016 248.621L548.236 234.229H540.254Z" fill="#FBD3A8"/>
<path d="M540.024 249.185C540.024 249.185 539.564 251.385 538.744 252.765C537.914 254.146 540.274 255.546 543.305 255.546C546.336 255.546 547.916 254.966 548.006 254.056C548.096 253.136 547.016 250.265 547.016 248.635L540.024 249.185Z" fill="#FBD3A8"/>
<path d="M550.686 261.852C550.506 260.112 549.406 259.522 549.406 259.522C549.406 259.121 542.475 259.522 542.475 259.522C542.475 259.522 535.544 259.121 535.544 259.522C535.544 259.522 534.443 260.102 534.263 261.852C534.083 263.592 533.623 265.703 542.475 265.703C551.326 265.703 550.866 263.592 550.686 261.852Z" fill="#E2E2E2"/>
<path d="M545.636 252.864C545.636 252.864 545.726 251.394 544.806 251.304C543.886 251.214 541.775 251.214 541.045 251.304C540.315 251.394 540.035 252.864 540.035 252.864C540.035 252.864 538.475 252.774 538.105 253.874C537.735 254.974 535.354 259.195 535.164 260.846C535.164 260.846 536.714 261.856 543.276 261.856C549.847 261.856 549.747 260.756 549.747 260.756C549.747 260.756 548.116 255.125 547.986 254.054C547.876 252.974 545.636 252.864 545.636 252.864Z" fill="white"/>
<path d="M573.49 234.229C573.49 234.229 573.72 248.271 573.72 249.181C573.72 250.101 567.559 249.911 566.729 248.621L565.509 234.229H573.49Z" fill="#FBD3A8"/>
<path d="M573.72 249.185C573.72 249.185 574.18 251.385 575 252.765C575.831 254.146 573.47 255.546 570.44 255.546C567.409 255.546 565.829 254.966 565.739 254.056C565.649 253.136 566.729 250.265 566.729 248.635L573.72 249.185Z" fill="#FBD3A8"/>
<path d="M563.059 261.852C563.239 260.112 564.339 259.522 564.339 259.522C564.339 259.121 571.27 259.522 571.27 259.522C571.27 259.522 578.201 259.121 578.201 259.522C578.201 259.522 579.302 260.102 579.482 261.852C579.662 263.592 580.122 265.703 571.27 265.703C562.419 265.703 562.869 263.592 563.059 261.852Z" fill="#E2E2E2"/>
<path d="M568.099 252.864C568.099 252.864 568.009 251.394 568.929 251.304C569.849 251.214 571.96 251.214 572.69 251.304C573.42 251.394 573.7 252.864 573.7 252.864C573.7 252.864 575.26 252.774 575.63 253.874C576.001 254.974 578.381 259.195 578.571 260.846C578.571 260.846 577.021 261.856 570.46 261.856C563.888 261.856 563.988 260.756 563.988 260.756C563.988 260.756 565.619 255.125 565.749 254.054C565.869 252.974 568.099 252.864 568.099 252.864Z" fill="white"/>
<path d="M536.874 180.633C536.594 180.633 536.374 180.863 536.374 181.133L537.224 246.895C537.224 247.295 537.364 247.675 537.624 247.975C539.685 250.325 547.736 251.025 549.646 247.635C549.746 247.455 549.816 247.255 549.836 247.045L556.288 197.846C556.368 197.266 557.198 197.266 557.278 197.846L563.729 247.045C563.759 247.255 563.819 247.455 563.919 247.635C565.819 251.025 573.871 250.325 575.941 247.975C576.201 247.685 576.341 247.295 576.341 246.895L577.671 181.133C577.681 180.853 577.451 180.623 577.171 180.623H536.874V180.633Z" fill="url(#paint5_linear_34_7496)"/>
<path d="M591.074 138.838C591.074 138.838 582.172 125.035 577.751 122.545C575.131 120.904 570.22 119.464 563.669 117.344C560.478 125.395 551.977 123.095 550.117 117.344C543.565 119.464 538.755 120.904 536.134 122.545C531.713 125.035 522.142 140.108 522.142 140.108L533.874 145.989L535.894 143.698L536.374 181.545C543.915 188.056 574.631 185.116 577.681 180.635L578.001 143.698L579.552 145.549L591.074 138.838Z" fill="#FF8130"/>
<path d="M536.364 187.105C536.364 186.415 536.204 170.002 536.204 170.002C541.875 159.32 541.945 139.667 541.395 120.193C541.855 119.363 543.475 118.863 544.446 119.153C545.596 126.255 546.816 132.926 548.316 137.707C548.466 138.177 548.906 138.497 549.396 138.497H558.058V187.105H536.364Z" fill="#262262"/>
<path d="M536.364 187.105C536.364 186.415 536.204 170.002 536.204 170.002C541.875 159.32 541.945 139.667 541.395 120.193C541.855 119.363 543.475 118.863 544.446 119.153C545.596 126.255 546.816 132.926 548.316 137.707C548.466 138.177 548.906 138.497 549.396 138.497H558.058V187.105H536.364Z" fill="white"/>
<path d="M577.671 187.105C577.671 186.415 577.831 170.002 577.831 170.002C572.16 159.32 572.09 139.667 572.64 120.193C572.18 119.363 570.56 118.863 569.59 119.153C568.44 126.255 567.22 132.926 565.719 137.707C565.569 138.177 565.129 138.497 564.639 138.497H555.978V187.105H577.671Z" fill="#262262"/>
<path d="M577.671 187.105C577.671 186.415 577.831 170.002 577.831 170.002C572.16 159.32 572.09 139.667 572.64 120.193C572.18 119.363 570.56 118.863 569.59 119.153C568.44 126.255 567.22 132.926 565.719 137.707C565.569 138.177 565.129 138.497 564.639 138.497H555.978V187.105H577.671Z" fill="white"/>
<path d="M535.344 144.308L533.864 145.989L522.132 140.117L523.482 138.037L535.344 144.308Z" fill="white"/>
<path d="M578.151 143.877L579.552 145.547L591.074 138.836L589.923 137.096L578.151 143.877Z" fill="white"/>
<path d="M550.116 117.344C552.857 123.745 560.658 124.795 563.679 117.344L565.369 117.894C562.278 126.695 551.227 125.995 548.416 117.894L550.116 117.344Z" fill="white"/>
<path d="M523.302 94.8166C516.801 94.8166 512.65 86.1651 514.671 80.5741C515.161 79.2239 516.121 78.0737 517.441 77.5036C519.791 76.4934 521.912 77.7336 523.302 78.6638V94.8166V94.8166Z" fill="#FBD3A8"/>
<path d="M521.041 91.2885C516.981 90.4283 515.2 80.5466 520.251 81.1967L523.132 81.5168V91.6486L521.041 91.2885Z" fill="#FBBD89"/>
<path d="M523.002 81.9332C522.352 81.7031 521.692 81.4931 521.022 81.3731C520.352 81.273 519.661 81.253 519.041 81.4731C518.421 81.6931 517.911 82.1832 517.621 82.8133C517.331 83.4434 517.211 84.1536 517.171 84.8637C517.141 84.1536 517.191 83.4234 517.421 82.7333C517.651 82.0332 518.171 81.4031 518.871 81.073C519.571 80.7329 520.352 80.6929 521.092 80.7229C521.832 80.773 522.562 80.923 523.272 81.103L523.002 81.9332Z" fill="#603813"/>
<path d="M589.844 94.8166C596.345 94.8166 600.496 86.1651 598.475 80.5741C597.985 79.2239 597.025 78.0737 595.705 77.5036C593.354 76.4934 591.234 77.7336 589.844 78.6638V94.8166V94.8166Z" fill="#FBD3A8"/>
<path d="M592.104 91.2885C596.165 90.4283 597.945 80.5466 592.894 81.1967L590.014 81.5168V91.6486L592.104 91.2885Z" fill="#FBBD89"/>
<path d="M589.884 81.103C590.594 80.923 591.314 80.773 592.064 80.7229C592.804 80.6929 593.584 80.7329 594.285 81.073C594.985 81.4031 595.505 82.0432 595.735 82.7333C595.965 83.4334 596.015 84.1536 595.985 84.8637C595.935 84.1536 595.825 83.4434 595.535 82.8133C595.255 82.1832 594.735 81.6931 594.115 81.4731C593.494 81.243 592.804 81.273 592.134 81.3731C591.464 81.4831 590.804 81.6931 590.154 81.9332L589.884 81.103Z" fill="#603813"/>
<path d="M589.933 46.5332H523.662C514.67 87.5004 521.131 114.435 556.347 115.285H557.258C592.464 114.435 598.925 87.4904 589.933 46.5332Z" fill="#FBD3A8"/>
<path d="M556.118 90.7479C556.258 90.7779 556.398 90.7479 556.538 90.6979C559.098 89.9477 559.468 92.8182 557.408 93.0783C555.438 93.2583 554.407 92.5982 553.767 91.7381C553.417 91.268 553.687 90.5779 554.267 90.5078C554.788 90.4378 555.468 90.6179 556.118 90.7479Z" fill="#F8A364"/>
<path d="M542.204 86.1346C543.834 86.1346 545.155 84.0254 545.155 81.4237C545.155 78.822 543.834 76.7129 542.204 76.7129C540.575 76.7129 539.254 78.822 539.254 81.4237C539.254 84.0254 540.575 86.1346 542.204 86.1346Z" fill="#333333"/>
<path d="M542.515 81.1864C543.244 81.1864 543.835 80.4565 543.835 79.5561C543.835 78.6557 543.244 77.9258 542.515 77.9258C541.785 77.9258 541.194 78.6557 541.194 79.5561C541.194 80.4565 541.785 81.1864 542.515 81.1864Z" fill="white"/>
<path d="M540.425 72.913C540.555 72.883 540.695 72.863 540.825 72.883C542.525 73.0231 544.295 73.0331 544.295 71.6928C544.295 69.3124 538.074 70.1325 538.074 72.4329C538.264 73.3231 539.004 73.2731 540.425 72.913Z" fill="#333333"/>
<path d="M538.945 75.9933C539.225 76.5534 539.185 77.1435 538.835 77.3235C538.485 77.5035 537.974 77.1935 537.694 76.6334C537.414 76.0733 537.454 75.4832 537.804 75.3032C538.144 75.1231 538.665 75.4332 538.945 75.9933Z" fill="#EF8971"/>
<path d="M536.724 81.4422C537.351 81.3873 537.832 81.0306 537.799 80.6454C537.765 80.2602 537.229 79.9924 536.602 80.0472C535.974 80.102 535.493 80.4587 535.527 80.8439C535.56 81.2291 536.096 81.497 536.724 81.4422Z" fill="#EF8971"/>
<path d="M537.164 77.735C537.764 77.925 538.154 78.3751 538.034 78.7452C537.914 79.1153 537.334 79.2553 536.734 79.0652C536.134 78.8752 535.743 78.4251 535.863 78.0551C535.984 77.685 536.564 77.545 537.164 77.735Z" fill="#EF8971"/>
<path d="M569.79 86.1346C571.42 86.1346 572.741 84.0254 572.741 81.4237C572.741 78.822 571.42 76.7129 569.79 76.7129C568.161 76.7129 566.84 78.822 566.84 81.4237C566.84 84.0254 568.161 86.1346 569.79 86.1346Z" fill="#333333"/>
<path d="M569.49 81.1864C570.219 81.1864 570.81 80.4565 570.81 79.5561C570.81 78.6557 570.219 77.9258 569.49 77.9258C568.761 77.9258 568.17 78.6557 568.17 79.5561C568.17 80.4565 568.761 81.1864 569.49 81.1864Z" fill="white"/>
<path d="M571.571 72.913C571.441 72.883 571.301 72.863 571.171 72.883C569.471 73.0231 567.7 73.0331 567.7 71.6928C567.7 69.3124 573.921 70.1325 573.921 72.4329C573.741 73.3231 572.991 73.2731 571.571 72.913Z" fill="#333333"/>
<path d="M573.051 75.9933C572.771 76.5534 572.811 77.1435 573.161 77.3235C573.511 77.5035 574.021 77.1935 574.301 76.6334C574.581 76.0733 574.541 75.4832 574.191 75.3032C573.841 75.1231 573.341 75.4332 573.051 75.9933Z" fill="#EF8971"/>
<path d="M575.281 81.4418C574.661 81.3918 574.181 81.0317 574.211 80.6417C574.241 80.2516 574.781 79.9815 575.401 80.0416C576.022 80.0916 576.502 80.4516 576.472 80.8417C576.442 81.2318 575.902 81.5018 575.281 81.4418Z" fill="#EF8971"/>
<path d="M575.271 79.087C575.871 78.8956 576.262 78.4418 576.144 78.0734C576.027 77.705 575.445 77.5616 574.845 77.753C574.245 77.9444 573.854 78.3982 573.972 78.7666C574.089 79.135 574.671 79.2784 575.271 79.087Z" fill="#EF8971"/>
<path d="M540.425 47.9993C531.194 55.9607 523.652 70.4932 522.422 84.2257C522.352 85.0158 521.672 85.6259 520.872 85.6259L515.591 72.1535L523.282 43.8285L558.488 33.0566L592.664 45.2288L598.085 72.4836L592.824 85.6359C591.994 85.6359 591.304 85.0358 591.144 84.2257C589.374 75.104 578.822 65.0223 567.58 58.5311C568.66 62.0818 570.04 65.6724 572.291 69.373C562.459 68.1128 557.068 63.352 551.807 54.2004L553.397 64.1121C543.986 58.9512 541.195 56.4808 540.425 47.9993Z" fill="#333333"/>
<path d="M568.79 97.6934C568.79 97.6934 562.499 98.4935 556.768 98.5335C551.037 98.4935 544.746 97.6934 544.746 97.6934C544.746 97.6934 543.466 109.565 556.658 109.525C556.678 109.525 556.728 109.525 556.768 109.525C556.808 109.525 556.858 109.525 556.878 109.525C570.07 109.565 568.79 97.6934 568.79 97.6934Z" fill="#BE1717"/>
<path d="M568.79 97.6934C568.79 97.6934 562.509 98.4935 556.768 98.5335C551.027 98.4935 544.746 97.6934 544.746 97.6934C544.746 97.6934 544.686 98.2735 544.726 99.1836C547.116 100.114 550.907 100.864 556.768 100.844C562.619 100.864 566.419 100.114 568.81 99.1836C568.85 98.2835 568.79 97.6934 568.79 97.6934Z" fill="white"/>
<path d="M565.539 106.754C563.629 105.174 560.858 104.013 556.868 103.943C556.838 103.943 556.798 103.943 556.768 103.943C556.738 103.943 556.698 103.943 556.668 103.943C552.677 104.013 549.906 105.174 547.996 106.754C549.776 108.364 552.487 109.544 556.658 109.534C556.698 109.534 556.728 109.534 556.768 109.534C556.808 109.534 556.838 109.534 556.878 109.534C561.038 109.544 563.759 108.364 565.539 106.754Z" fill="#FF2929"/>
<path d="M556.918 109.811C556.908 109.811 556.888 109.811 556.878 109.811H556.768H556.658C556.468 109.811 556.288 109.811 556.108 109.801H555.988C555.818 109.801 555.638 109.791 555.468 109.781L555.378 109.771C555.228 109.761 555.078 109.751 554.938 109.741L554.828 109.731C554.668 109.721 554.508 109.701 554.358 109.681L554.238 109.671C554.108 109.651 553.968 109.641 553.838 109.621L553.758 109.611C553.618 109.591 553.468 109.561 553.327 109.541L553.187 109.511C553.057 109.481 552.917 109.461 552.787 109.431C552.757 109.421 552.737 109.421 552.707 109.411L552.667 109.401C552.567 109.381 552.467 109.351 552.377 109.331H552.367C552.317 109.321 552.267 109.311 552.227 109.291C552.107 109.261 551.997 109.231 551.887 109.191C551.837 109.181 551.797 109.161 551.747 109.151L551.717 109.141C551.647 109.121 551.577 109.101 551.507 109.071C551.427 109.041 551.347 109.021 551.267 108.991C551.187 108.961 551.117 108.941 551.037 108.911C550.967 108.891 550.907 108.861 550.837 108.831C550.787 108.811 550.747 108.791 550.697 108.771C550.577 108.721 550.467 108.671 550.357 108.621L550.267 108.581C550.197 108.551 550.127 108.511 550.047 108.481C550.047 108.481 550.037 108.481 550.037 108.471C549.897 108.401 549.747 108.321 549.597 108.241L549.567 108.221C543.786 104.98 544.426 97.9588 544.456 97.6688C544.466 97.5888 544.506 97.5188 544.566 97.4688C544.626 97.4187 544.706 97.3987 544.776 97.4088L544.826 97.4187C545.476 97.4988 551.357 98.2089 556.768 98.2489C562.169 98.2089 568.05 97.4988 568.71 97.4187L568.75 97.4088C568.83 97.3987 568.9 97.4187 568.96 97.4688C569.02 97.5188 569.06 97.5888 569.06 97.6588C569.09 97.9588 569.73 104.98 563.949 108.221L563.919 108.241C563.769 108.331 563.619 108.401 563.469 108.481C563.399 108.521 563.329 108.551 563.249 108.581L563.159 108.621C563.049 108.671 562.929 108.721 562.819 108.771C562.779 108.791 562.729 108.811 562.679 108.831C562.609 108.861 562.549 108.881 562.479 108.911C562.409 108.941 562.329 108.961 562.259 108.991C562.179 109.021 562.099 109.041 562.019 109.071C561.949 109.091 561.879 109.121 561.809 109.141L561.779 109.151C561.739 109.161 561.689 109.181 561.649 109.191C561.539 109.221 561.419 109.261 561.309 109.291C561.259 109.301 561.209 109.321 561.159 109.331C561.059 109.361 560.959 109.381 560.859 109.401L560.819 109.411C560.789 109.421 560.769 109.421 560.739 109.431C560.609 109.461 560.479 109.491 560.339 109.511C560.289 109.521 560.249 109.531 560.199 109.541C560.059 109.571 559.919 109.591 559.769 109.611L559.689 109.621C559.559 109.641 559.429 109.661 559.289 109.671L559.168 109.691C559.018 109.711 558.858 109.721 558.698 109.741L558.588 109.751C558.438 109.761 558.298 109.771 558.148 109.781L558.058 109.791C557.888 109.801 557.718 109.811 557.538 109.811H557.418C557.258 109.811 557.088 109.811 556.918 109.811ZM556.758 109.251H556.868C557.048 109.251 557.228 109.251 557.398 109.241H557.518C557.688 109.241 557.858 109.231 558.018 109.221L558.098 109.211C558.238 109.201 558.388 109.191 558.528 109.181L558.628 109.171C558.778 109.161 558.938 109.141 559.078 109.121L559.199 109.111C559.329 109.091 559.459 109.081 559.579 109.061L559.659 109.051C559.799 109.031 559.939 109.011 560.069 108.981C560.119 108.971 560.159 108.961 560.209 108.951C560.339 108.931 560.469 108.901 560.589 108.871L560.709 108.841C560.799 108.821 560.899 108.801 560.989 108.771C561.039 108.761 561.089 108.741 561.139 108.731C561.249 108.701 561.359 108.671 561.469 108.641C561.509 108.631 561.559 108.611 561.599 108.601L561.629 108.591C561.699 108.571 561.759 108.551 561.829 108.531C561.909 108.501 561.979 108.481 562.059 108.451C562.129 108.421 562.199 108.401 562.269 108.371C562.329 108.351 562.399 108.321 562.459 108.301C562.499 108.281 562.549 108.271 562.589 108.251C562.699 108.201 562.809 108.161 562.919 108.111L563.009 108.071C563.079 108.041 563.149 108.011 563.219 107.971C563.359 107.901 563.499 107.831 563.639 107.751L563.669 107.731C568.57 104.99 568.59 99.3491 568.52 97.9989C567.19 98.1589 561.769 98.769 556.758 98.809C551.737 98.769 546.326 98.1589 544.996 97.9989C544.926 99.3591 544.956 104.99 549.847 107.731L549.867 107.741C550.017 107.821 550.157 107.901 550.297 107.971C550.367 108.001 550.437 108.041 550.507 108.071L550.597 108.111C550.707 108.161 550.807 108.211 550.917 108.251C550.957 108.271 551.007 108.291 551.047 108.301C551.107 108.321 551.167 108.351 551.237 108.371C551.307 108.401 551.377 108.421 551.457 108.451C551.527 108.481 551.607 108.501 551.677 108.531C551.747 108.551 551.807 108.571 551.877 108.591L551.907 108.601C551.947 108.611 551.997 108.631 552.037 108.641C552.147 108.671 552.257 108.701 552.367 108.731C552.417 108.741 552.457 108.751 552.507 108.771H552.517C552.607 108.791 552.707 108.821 552.797 108.841L552.847 108.851C552.867 108.861 552.897 108.861 552.917 108.871C553.047 108.901 553.167 108.921 553.297 108.951L553.437 108.981C553.568 109.001 553.708 109.031 553.848 109.051L553.928 109.061C554.058 109.081 554.178 109.101 554.308 109.111L554.428 109.121C554.578 109.141 554.728 109.151 554.888 109.171L554.988 109.181C555.128 109.191 555.268 109.201 555.418 109.211L555.498 109.221C555.658 109.231 555.828 109.241 555.998 109.241H556.118C556.298 109.241 556.468 109.251 556.648 109.251H556.758Z" fill="#F8A364"/>
<path d="M582.513 154.399L588.674 151.579C592.424 150.478 597.195 153.289 595.135 157.88C588.604 170.412 565.13 180.494 556.008 173.572C549.607 166.951 558.489 155.669 570.211 148.258C576.542 144.577 581.353 144.907 579.832 152.539C579.562 153.899 581.223 154.859 582.513 154.399Z" fill="#E6E6E6"/>
<path d="M565.09 170.752C566.744 169.618 567.607 168.001 567.016 167.14C566.426 166.279 564.607 166.5 562.953 167.633C561.299 168.767 560.436 170.384 561.027 171.245C561.617 172.106 563.436 171.885 565.09 170.752Z" fill="#E33A37"/>
<path d="M574.033 171.473C575.687 170.339 576.549 168.722 575.959 167.861C575.369 167 573.549 167.22 571.895 168.354C570.241 169.487 569.379 171.104 569.969 171.966C570.559 172.827 572.378 172.606 574.033 171.473Z" fill="#F9C670"/>
<path d="M561.282 165.201C562.936 164.068 563.798 162.45 563.208 161.589C562.618 160.728 560.798 160.949 559.144 162.082C557.49 163.216 556.628 164.833 557.218 165.694C557.808 166.555 559.627 166.335 561.282 165.201Z" fill="#3EB253"/>
<path d="M565.669 158.389C567.323 157.255 568.186 155.638 567.596 154.777C567.005 153.916 565.186 154.136 563.532 155.27C561.878 156.403 561.016 158.02 561.606 158.882C562.196 159.743 564.015 159.522 565.669 158.389Z" fill="#00BAD3"/>
<path d="M575.372 154.188C577.723 152.577 578.918 150.233 578.041 148.952C577.163 147.672 574.546 147.94 572.195 149.551C569.844 151.163 568.649 153.507 569.526 154.787C570.404 156.068 573.021 155.799 575.372 154.188Z" fill="#FFF7FF"/>
<path d="M583.634 167.053C585.288 165.919 586.151 164.302 585.56 163.441C584.97 162.58 583.151 162.8 581.497 163.934C579.843 165.067 578.98 166.684 579.571 167.546C580.161 168.407 581.98 168.186 583.634 167.053Z" fill="#F6C300"/>
<path d="M588.007 158.689C589.661 157.556 590.524 155.939 589.933 155.078C589.343 154.216 587.524 154.437 585.87 155.571C584.216 156.704 583.353 158.321 583.944 159.182C584.534 160.044 586.353 159.823 588.007 158.689Z" fill="#6A5CB7"/>
<defs>
<filter id="filter0_d_34_7496" x="564.093" y="252.05" width="103.231" height="89.8047" filterUnits="userSpaceOnUse" color-interpolation-filters="sRGB">
<feFlood flood-opacity="0" result="BackgroundImageFix"/>
<feColorMatrix in="SourceAlpha" type="matrix" values="0 0 0 0 0 0 0 0 0 0 0 0 0 0 0 0 0 0 127 0" result="hardAlpha"/>
<feOffset/>
<feGaussianBlur stdDeviation="11"/>
<feComposite in2="hardAlpha" operator="out"/>
<feColorMatrix type="matrix" values="0 0 0 0 1 0 0 0 0 0.419608 0 0 0 0 0 0 0 0 0.4 0"/>
<feBlend mode="normal" in2="BackgroundImageFix" result="effect1_dropShadow_34_7496"/>
<feBlend mode="normal" in="SourceGraphic" in2="effect1_dropShadow_34_7496" result="shape"/>
</filter>
<filter id="filter1_d_34_7496" x="409.971" y="123.096" width="112.743" height="90.2617" filterUnits="userSpaceOnUse" color-interpolation-filters="sRGB">
<feFlood flood-opacity="0" result="BackgroundImageFix"/>
<feColorMatrix in="SourceAlpha" type="matrix" values="0 0 0 0 0 0 0 0 0 0 0 0 0 0 0 0 0 0 127 0" result="hardAlpha"/>
<feOffset/>
<feGaussianBlur stdDeviation="11"/>
<feComposite in2="hardAlpha" operator="out"/>
<feColorMatrix type="matrix" values="0 0 0 0 1 0 0 0 0 0.419608 0 0 0 0 0 0 0 0 0.4 0"/>
<feBlend mode="normal" in2="BackgroundImageFix" result="effect1_dropShadow_34_7496"/>
<feBlend mode="normal" in="SourceGraphic" in2="effect1_dropShadow_34_7496" result="shape"/>
</filter>
<linearGradient id="paint0_linear_34_7496" x1="321" y1="-48.002" x2="208.5" y2="358.498" gradientUnits="userSpaceOnUse">
<stop stop-color="#454369"/>
<stop offset="1" stop-color="#302D5C"/>
</linearGradient>
<linearGradient id="paint1_linear_34_7496" x1="321" y1="-48.002" x2="208.5" y2="358.498" gradientUnits="userSpaceOnUse">
<stop stop-color="#454369"/>
<stop offset="1" stop-color="#302D5C"/>
</linearGradient>
<linearGradient id="paint2_linear_34_7496" x1="111.832" y1="-205.904" x2="214.683" y2="469.998" gradientUnits="userSpaceOnUse">
<stop stop-color="#323056"/>
<stop offset="1" stop-color="#302D5C"/>
</linearGradient>
<linearGradient id="paint3_linear_34_7496" x1="602.211" y1="276.167" x2="619.738" y2="309.883" gradientUnits="userSpaceOnUse">
<stop stop-color="#FF9649"/>
<stop offset="1" stop-color="#FF5C00"/>
</linearGradient>
<linearGradient id="paint4_linear_34_7496" x1="471.145" y1="155.598" x2="458.537" y2="179.473" gradientUnits="userSpaceOnUse">
<stop stop-color="#FF9649"/>
<stop offset="1" stop-color="#FF5C00"/>
</linearGradient>
<linearGradient id="paint5_linear_34_7496" x1="555.803" y1="180.623" x2="555.803" y2="249.96" gradientUnits="userSpaceOnUse">
<stop stop-color="#FF9649"/>
<stop offset="1" stop-color="#FF5C00"/>
</linearGradient>
</defs>
</svg>
