<svg width="923" height="1200" viewBox="0 0 923 1200" fill="none" xmlns="http://www.w3.org/2000/svg">
    <path fill-rule="evenodd" clip-rule="evenodd"
          d="M712.937 388.003L710.279 349.792L733.798 330.842L781.366 352.53L759.805 394.676L712.937 388.003Z"
          fill="url(#paint0_linear_5_2)"/>
    <path fill-rule="evenodd" clip-rule="evenodd"
          d="M712.937 388.003L744.826 385.2L758.394 350.444L733.798 330.842L710.279 349.792L712.937 388.003Z" fill="#FF7C25"/>
    <path opacity="0.5" fill-rule="evenodd" clip-rule="evenodd"
          d="M758.394 350.444L781.366 352.53L733.798 330.842L758.394 350.444Z" fill="#A67C4C"/>
    <g clip-path="url(#clip0_5_2)">
        <path fill-rule="evenodd" clip-rule="evenodd"
              d="M528.439 470.782L562.265 464.526C562.265 464.526 567.674 527.578 527.092 598.022H523.885L526.451 503.605L519.694 503.369L528.439 470.782Z"
              fill="url(#paint1_linear_5_2)"/>
        <path fill-rule="evenodd" clip-rule="evenodd"
              d="M373.98 470.954L339.235 464.526C339.235 464.526 333.826 527.578 374.407 598.022H377.615L375.049 503.605L381.805 503.369L373.98 470.954Z"
              fill="url(#paint2_linear_5_2)"/>
        <path fill-rule="evenodd" clip-rule="evenodd"
              d="M451.06 104.575C407.271 104.575 338.701 210.369 344.238 308.771C349.798 407.174 394.955 551.724 394.955 551.724L451.039 552.281L507.122 551.724C507.122 551.724 552.301 407.174 557.839 308.771C563.419 210.369 494.55 104.575 451.06 104.575Z"
              fill="url(#paint3_radial_5_2)"/>
        <path fill-rule="evenodd" clip-rule="evenodd"
              d="M394.955 551.724C394.955 551.724 458.8 546.046 507.143 551.724C507.143 551.724 444.496 557.937 394.955 551.724Z"
              fill="#31165F"/>
        <path fill-rule="evenodd" clip-rule="evenodd"
              d="M392.24 149.116C392.24 149.116 454.288 129.405 513.301 154.258C513.301 154.258 482.854 104.874 451.06 104.574C422.473 104.317 392.24 149.116 392.24 149.116Z"
              fill="url(#paint4_radial_5_2)"/>
        <path d="M513.088 154.751C458.201 131.013 393.031 149.459 392.389 149.631L392.09 148.602C392.753 148.409 458.266 129.877 513.515 153.765L513.088 154.751Z"
              fill="#53345F"/>
        <path fill-rule="evenodd" clip-rule="evenodd"
              d="M436.328 108.067L469.127 109.717C469.127 109.717 452.492 97.8263 436.328 108.067Z" fill="#53345F"/>
        <path fill-rule="evenodd" clip-rule="evenodd"
              d="M440.882 106.481C440.882 106.481 449.691 104.853 459.334 106.01C459.334 106.01 455.721 90.3701 450.098 89.8345C444.496 89.2775 440.882 106.481 440.882 106.481Z"
              fill="url(#paint5_linear_5_2)"/>
        <path opacity="0.5" fill-rule="evenodd" clip-rule="evenodd"
              d="M369.019 456.193C369.019 456.193 463.653 425.085 535.303 446.938C525.98 488.03 507.165 551.724 507.165 551.724C507.165 551.724 464.295 545.683 394.976 551.724C394.955 551.724 377.55 504.269 369.019 456.193Z"
              fill="url(#paint6_radial_5_2)"/>
        <path opacity="0.5" fill-rule="evenodd" clip-rule="evenodd"
              d="M447.403 175.704C407.891 178.789 379.753 225.987 377.935 267.165C376.139 308.342 413.685 333.495 453.732 332.359C493.78 331.224 526.964 303.608 522.367 258.509C518.24 217.781 491.257 172.297 447.403 175.704Z"
              fill="url(#paint7_radial_5_2)"/>
        <path fill-rule="evenodd" clip-rule="evenodd"
              d="M447.404 169.17C407.891 172.255 379.753 219.453 377.935 260.631C376.139 301.808 413.685 326.961 453.733 325.825C493.78 324.69 526.964 297.074 522.367 251.975C518.24 211.226 491.257 165.742 447.404 169.17Z"
              fill="#31165F"/>
        <path fill-rule="evenodd" clip-rule="evenodd"
              d="M447.403 164.585C407.891 167.67 379.753 214.868 377.935 256.045C376.139 297.223 413.685 322.375 453.732 321.24C493.78 320.104 526.964 292.488 522.367 247.39C518.24 206.662 491.257 161.178 447.403 164.585Z"
              fill="url(#paint8_radial_5_2)"/>
        <path fill-rule="evenodd" clip-rule="evenodd"
              d="M450.012 179.218C414.604 181.403 396.858 218.467 395.447 250.625C394.036 282.762 423.542 302.408 455.015 301.53C486.489 300.651 512.553 279.077 508.961 243.898C505.689 212.062 487.002 176.947 450.012 179.218Z"
              fill="#A6345F"/>
        <path fill-rule="evenodd" clip-rule="evenodd"
              d="M488.135 289.981C488.114 290.003 488.114 290.003 488.114 290.003L488.071 290.046C479.027 296.794 467.395 300.608 454.845 300.972C424.889 301.808 394.1 281.219 395.447 250.625C395.917 240.341 398.227 229.843 402.481 220.309C410.799 201.456 426.6 186.437 450.098 184.552C484.821 181.767 503.081 215.81 506.181 246.104C508.17 265.558 500.644 280.619 488.135 289.981Z"
              fill="url(#paint9_linear_5_2)"/>
        <path d="M453.968 325.824H452.899V440.166H453.968V325.824Z" fill="#53345F"/>
        <path d="M369.169 456.706L368.87 455.678C477.188 424.248 534.918 446.229 535.495 446.444L535.11 447.429C534.533 447.215 477.102 425.383 369.169 456.706Z"
              fill="#53345F"/>
        <path d="M360.702 418.549L360.103 417.649C360.424 417.435 393.95 395.625 453.391 392.411L453.455 393.482C394.314 396.675 361.023 418.335 360.702 418.549Z"
              fill="#53345F"/>
        <path fill-rule="evenodd" clip-rule="evenodd" d="M466.497 522.436L464.915 473.096L478.385 469.668L477.06 522.436H466.497Z"
              fill="#31165F"/>
        <path fill-rule="evenodd" clip-rule="evenodd"
              d="M404.235 552.731C404.235 552.731 452.963 548.017 500.708 552.281L497.821 574.391L406.929 571.949L404.235 552.731Z"
              fill="url(#paint10_radial_5_2)"/>
        <path opacity="0.5" fill-rule="evenodd" clip-rule="evenodd"
              d="M405.603 562.457C405.603 562.457 422.067 553.502 443.961 553.973C465.834 554.444 498.505 569.27 498.505 569.27L500.729 552.28C500.729 552.28 448.687 547.203 404.256 552.73L405.603 562.457Z"
              fill="#31165F"/>
        <path d="M471.821 198.071C471.821 198.071 480.16 205.655 487.536 220.009L495.148 215.575C495.148 215.575 489.311 201.477 478.407 196.507L471.821 198.071Z"
              fill="white"/>
        <path d="M406.48 260.608L412.744 271.706L406.48 275.434L401.947 266.157L406.48 260.608Z" fill="white"/>
        <path opacity="0.5" fill-rule="evenodd" clip-rule="evenodd"
              d="M379.539 169.105C379.539 169.105 441.631 137.033 522.388 168.998L513.28 154.279C513.28 154.279 466.626 132.362 392.218 149.137L379.539 169.105Z"
              fill="url(#paint11_radial_5_2)"/>
        <path d="M447.04 403.874C448.977 403.874 450.547 402.301 450.547 400.36C450.547 398.42 448.977 396.847 447.04 396.847C445.104 396.847 443.534 398.42 443.534 400.36C443.534 402.301 445.104 403.874 447.04 403.874Z"
              fill="url(#paint12_linear_5_2)"/>
        <path fill-rule="evenodd" clip-rule="evenodd"
              d="M449.82 400.36C449.82 401.882 448.58 403.124 447.062 403.124C445.544 403.124 444.303 401.882 444.303 400.36C444.303 398.839 445.544 397.597 447.062 397.597C448.58 397.597 449.82 398.818 449.82 400.36Z"
              fill="url(#paint13_radial_5_2)"/>
        <path d="M447.04 386.52C448.977 386.52 450.547 384.947 450.547 383.007C450.547 381.066 448.977 379.493 447.04 379.493C445.103 379.493 443.533 381.066 443.533 383.007C443.533 384.947 445.103 386.52 447.04 386.52Z"
              fill="url(#paint14_linear_5_2)"/>
        <path fill-rule="evenodd" clip-rule="evenodd"
              d="M449.82 383.007C449.82 384.528 448.58 385.771 447.061 385.771C445.543 385.771 444.303 384.528 444.303 383.007C444.303 381.486 445.543 380.243 447.061 380.243C448.58 380.243 449.82 381.464 449.82 383.007Z"
              fill="url(#paint15_radial_5_2)"/>
        <path fill-rule="evenodd" clip-rule="evenodd"
              d="M392.753 264.701C392.753 266.651 391.171 268.215 389.246 268.215C387.301 268.215 385.74 266.629 385.74 264.701C385.74 262.751 387.322 261.188 389.246 261.188C391.171 261.188 392.753 262.773 392.753 264.701Z"
              fill="#31165F"/>
        <path fill-rule="evenodd" clip-rule="evenodd"
              d="M392.004 264.701C392.004 266.222 390.764 267.465 389.246 267.465C387.728 267.465 386.488 266.222 386.488 264.701C386.488 263.18 387.728 261.938 389.246 261.938C390.764 261.938 392.004 263.18 392.004 264.701Z"
              fill="url(#paint16_radial_5_2)"/>
        <path d="M395.404 218.424C397.341 218.424 398.911 216.851 398.911 214.91C398.911 212.97 397.341 211.396 395.404 211.396C393.468 211.396 391.898 212.97 391.898 214.91C391.898 216.851 393.468 218.424 395.404 218.424Z"
              fill="#31165F"/>
        <path fill-rule="evenodd" clip-rule="evenodd"
              d="M398.162 214.91C398.162 216.431 396.922 217.674 395.404 217.674C393.886 217.674 392.646 216.431 392.646 214.91C392.646 213.389 393.886 212.146 395.404 212.146C396.922 212.146 398.162 213.389 398.162 214.91Z"
              fill="url(#paint17_radial_5_2)"/>
        <path fill-rule="evenodd" clip-rule="evenodd"
              d="M425.616 304.036C425.616 305.986 424.034 307.55 422.109 307.55C420.185 307.55 418.603 305.964 418.603 304.036C418.603 302.086 420.185 300.522 422.109 300.522C424.034 300.522 425.616 302.086 425.616 304.036Z"
              fill="#31165F"/>
        <path fill-rule="evenodd" clip-rule="evenodd"
              d="M424.868 304.036C424.868 305.558 423.627 306.8 422.109 306.8C420.591 306.8 419.351 305.558 419.351 304.036C419.351 302.515 420.591 301.273 422.109 301.273C423.627 301.251 424.868 302.494 424.868 304.036Z"
              fill="url(#paint18_radial_5_2)"/>
        <path fill-rule="evenodd" clip-rule="evenodd"
              d="M479.989 308.256C479.989 310.205 478.407 311.769 476.482 311.769C474.537 311.769 472.976 310.184 472.976 308.256C472.976 306.328 474.558 304.742 476.482 304.742C478.407 304.742 479.989 306.328 479.989 308.256Z"
              fill="#31165F"/>
        <path fill-rule="evenodd" clip-rule="evenodd"
              d="M479.241 308.256C479.241 309.777 478 311.02 476.482 311.02C474.964 311.02 473.724 309.777 473.724 308.256C473.724 306.735 474.964 305.492 476.482 305.492C478 305.492 479.241 306.735 479.241 308.256Z"
              fill="url(#paint19_radial_5_2)"/>
        <path fill-rule="evenodd" clip-rule="evenodd"
              d="M516.808 275.435C516.808 277.384 515.226 278.948 513.301 278.948C511.356 278.948 509.795 277.363 509.795 275.435C509.795 273.485 511.377 271.921 513.301 271.921C515.226 271.921 516.808 273.485 516.808 275.435Z"
              fill="#31165F"/>
        <path fill-rule="evenodd" clip-rule="evenodd"
              d="M516.059 275.435C516.059 276.956 514.819 278.199 513.301 278.199C511.783 278.199 510.543 276.956 510.543 275.435C510.543 273.914 511.783 272.671 513.301 272.671C514.819 272.65 516.059 273.892 516.059 275.435Z"
              fill="url(#paint20_radial_5_2)"/>
        <path fill-rule="evenodd" clip-rule="evenodd"
              d="M511.163 213.09C511.163 215.039 509.581 216.603 507.656 216.603C505.711 216.603 504.15 215.018 504.15 213.09C504.15 211.162 505.732 209.576 507.656 209.576C509.602 209.576 511.163 211.14 511.163 213.09Z"
              fill="#31165F"/>
        <path fill-rule="evenodd" clip-rule="evenodd"
              d="M510.415 213.09C510.415 214.611 509.174 215.854 507.656 215.854C506.138 215.854 504.898 214.611 504.898 213.09C504.898 211.569 506.138 210.326 507.656 210.326C509.174 210.305 510.415 211.548 510.415 213.09Z"
              fill="url(#paint21_radial_5_2)"/>
        <path d="M479.989 184.445C481.926 184.445 483.496 182.872 483.496 180.932C483.496 178.991 481.926 177.418 479.989 177.418C478.052 177.418 476.482 178.991 476.482 180.932C476.482 182.872 478.052 184.445 479.989 184.445Z"
              fill="#31165F"/>
        <path fill-rule="evenodd" clip-rule="evenodd"
              d="M482.747 180.932C482.747 182.453 481.507 183.695 479.989 183.695C478.471 183.695 477.231 182.453 477.231 180.932C477.231 179.411 478.471 178.168 479.989 178.168C481.507 178.168 482.747 179.411 482.747 180.932Z"
              fill="url(#paint22_radial_5_2)"/>
        <path d="M433.399 179.41C435.335 179.41 436.905 177.837 436.905 175.896C436.905 173.956 435.335 172.383 433.399 172.383C431.462 172.383 429.892 173.956 429.892 175.896C429.892 177.837 431.462 179.41 433.399 179.41Z"
              fill="#31165F"/>
        <path fill-rule="evenodd" clip-rule="evenodd"
              d="M436.157 175.897C436.157 177.418 434.917 178.66 433.399 178.66C431.881 178.66 430.64 177.418 430.64 175.897C430.64 174.375 431.881 173.133 433.399 173.133C434.917 173.133 436.157 174.375 436.157 175.897Z"
              fill="url(#paint23_radial_5_2)"/>
        <path fill-rule="evenodd" clip-rule="evenodd" d="M377.615 598H380.202L377.615 503.497L375.049 503.604L377.615 598Z"
              fill="#6F2561"/>
        <path fill-rule="evenodd" clip-rule="evenodd" d="M526.429 503.604L523.864 503.497L522.132 598H523.864L526.429 503.604Z"
              fill="#6F2561"/>
        <path fill-rule="evenodd" clip-rule="evenodd" d="M475.563 449.68H484.8L475.563 598.001H469.127L475.563 449.68Z"
              fill="url(#paint24_linear_5_2)"/>
        <path fill-rule="evenodd" clip-rule="evenodd" d="M475.563 449.68L469.127 482.523V598.001L475.563 449.68Z" fill="#FF4C61"/>
        <path opacity="0.5" fill-rule="evenodd" clip-rule="evenodd"
              d="M484.522 454.243L507.143 551.724L484.8 550.503L484.522 574.048H477.06L484.522 454.243Z" fill="#31165F"/>
        <path d="M372.505 197.427C372.505 197.427 371.585 187.229 378.042 180.931L383.302 181.188C383.302 181.188 379.197 190.593 375.113 197.427H372.505Z"
              fill="white"/>
        <path d="M535.281 421.913L544.946 377.8H547.661L538.467 421.913H535.281Z" fill="white"/>
        <path fill-rule="evenodd" clip-rule="evenodd"
              d="M546.485 224.53C546.485 224.53 562.821 221.145 550.911 240.341L546.485 224.53Z" fill="url(#paint25_linear_5_2)"/>
        <path fill-rule="evenodd" clip-rule="evenodd"
              d="M356.255 222.323C356.255 222.323 341.117 226.822 351.872 237.492L356.255 222.323Z"
              fill="url(#paint26_linear_5_2)"/>
        <path opacity="0.5" fill-rule="evenodd" clip-rule="evenodd"
              d="M410.799 550.116C410.799 550.116 368.634 419.449 352.128 321.903L348.001 323.939C348.001 323.939 367.822 473.588 397.2 551.53L410.799 550.116Z"
              fill="white"/>
        <path fill-rule="evenodd" clip-rule="evenodd" d="M546.442 367.773L551.296 340.586H553.862L549.008 367.773H546.442Z"
              fill="white"/>
        <path fill-rule="evenodd" clip-rule="evenodd"
              d="M376.31 411.929C376.31 411.929 404.256 399.418 430.897 396.847C430.897 396.847 404.363 402.781 376.31 411.929Z"
              fill="white"/>
        <path fill-rule="evenodd" clip-rule="evenodd"
              d="M454.738 336.493L455.422 436.717C455.4 436.717 457.154 400.359 454.738 336.493Z" fill="white"/>
        <path fill-rule="evenodd" clip-rule="evenodd"
              d="M389.246 452.036C389.246 452.036 455.849 432.432 519.673 445.008C519.673 445.008 472.334 433.375 389.246 452.036Z"
              fill="white"/>
        <path fill-rule="evenodd" clip-rule="evenodd"
              d="M404.106 188.858C404.106 188.858 413.172 192.522 418.496 175.532C418.496 175.532 409.516 181.917 404.106 188.858Z"
              fill="white"/>
        <path fill-rule="evenodd" clip-rule="evenodd"
              d="M461.687 320.683C461.687 320.683 483.474 319.547 509.26 295.873C509.26 295.852 493.801 317.447 461.687 320.683Z"
              fill="white"/>
        <path fill-rule="evenodd" clip-rule="evenodd"
              d="M453.433 301.55C453.433 301.55 472.463 311.791 485.463 293.023C485.484 293.023 475.371 302.065 453.433 301.55Z"
              fill="white"/>
        <g opacity="0.36">
            <path opacity="0.36" fill-rule="evenodd" clip-rule="evenodd"
                  d="M449.734 344.464C448.601 345.235 446.441 346.306 446.805 348.02C446.976 348.813 447.446 349.499 447.703 350.27C447.917 350.955 448.066 351.662 448.131 352.369C448.216 353.334 448.729 354.833 449.413 355.562C449.927 356.119 450.482 355.54 450.846 355.005C451.231 354.426 451.637 353.826 451.658 353.119C451.701 352.198 451.744 351.298 451.979 350.398C452.065 350.056 452.343 349.734 452.407 349.391C452.514 348.92 452.471 348.385 452.471 347.913C452.407 346.863 451.637 344.871 449.734 344.464Z"
                  fill="white"/>
            <path opacity="0.36" fill-rule="evenodd" clip-rule="evenodd"
                  d="M445.137 358.818C444.987 358.347 445.073 357.961 445.394 357.64C447.083 357.682 447.66 361.003 446.078 361.667C444.26 362.417 444.025 359.911 444.581 358.818H445.137Z"
                  fill="white"/>
            <path opacity="0.36" fill-rule="evenodd" clip-rule="evenodd"
                  d="M414.091 380.199C414.968 379.771 415.695 379.192 416.678 379.406C417.512 379.599 418.175 380.071 418.71 380.713C419.394 381.506 419.672 382.492 419.971 383.477C420.121 383.97 420.356 384.42 420.206 384.913C419.672 386.905 417.405 388.298 415.609 388.876C414.562 389.197 413.599 389.583 412.509 389.669C411.761 389.733 411.012 389.84 410.285 389.969C409.665 390.076 409.088 390.333 408.468 390.162C408.019 390.033 407.399 389.647 407.035 389.347C405.838 388.426 405.09 387.098 405.154 385.62C405.261 383.027 408.34 380.97 410.435 379.899C412.167 379.042 414.904 377.971 414.091 380.199Z"
                  fill="white"/>
            <path opacity="0.36" fill-rule="evenodd" clip-rule="evenodd"
                  d="M422.195 376.664C421.938 377.414 421.725 377.628 422.323 378.035C422.751 378.335 423.35 378.314 423.82 378.164C424.718 377.864 425.851 376.493 425.188 375.572C424.846 375.1 424.055 374.265 423.478 374.2C422.366 374.093 420.976 375.679 421.104 376.664H422.195Z"
                  fill="white"/>
            <path opacity="0.36" fill-rule="evenodd" clip-rule="evenodd"
                  d="M455.956 401.966C455.828 402.395 455.828 402.695 455.828 403.145C455.828 404.152 455.828 405.159 455.828 406.166C455.828 408.051 455.55 409.958 455.55 411.843C455.55 413.214 455.785 414.585 455.978 415.935C456.085 416.621 456.234 417.371 456.384 418.056C456.555 418.013 456.576 417.67 456.641 417.499C456.876 416.963 457.025 416.385 457.282 415.892C457.902 414.757 458.522 413.578 459.057 412.4C459.164 412.186 459.185 411.929 459.335 411.736C459.527 411.5 459.784 411.265 459.997 411.029C460.361 410.622 460.703 410.151 460.917 409.636C461.409 408.458 461.43 407.023 461.366 405.737C461.344 405.309 461.238 404.88 461.216 404.452C461.195 403.98 461.195 403.53 461.131 403.059C460.981 402.073 460.511 401.131 460.019 400.274C459.441 399.267 458.779 397.51 457.474 397.232C456.854 397.103 456.619 397.789 456.512 398.303C456.384 398.946 456.384 399.61 456.298 400.252C456.17 401.152 455.871 402.181 455.956 401.966Z"
                  fill="white"/>
            <path opacity="0.36" fill-rule="evenodd" clip-rule="evenodd"
                  d="M457.303 393.054C457.581 392.582 457.966 391.704 458.693 391.854C459.399 392.004 459.42 393.011 459.334 393.568C459.142 394.875 457.474 393.504 457.581 392.647L457.303 393.054Z"
                  fill="white"/>
            <path opacity="0.36" fill-rule="evenodd" clip-rule="evenodd"
                  d="M470.132 401.303C469.897 401.817 469.683 402.288 469.79 402.845C469.961 403.66 470.56 403.981 471.351 404.002C472.548 404.045 473.382 403.745 473.617 402.503C473.767 401.731 473.254 400.574 472.698 400.06C472.441 399.803 472.078 399.675 471.714 399.653C470.966 399.589 470.624 400.189 470.26 400.746L470.132 401.303Z"
                  fill="white"/>
            <path opacity="0.36" fill-rule="evenodd" clip-rule="evenodd"
                  d="M497.137 439.052C498.954 438.217 500.772 437.402 502.76 437.017C504.492 436.674 506.224 436.824 507.977 436.674C510.436 436.438 512.702 435.624 515.076 435.046C517.171 434.532 519.202 434.232 521.341 434.767C522.944 435.174 524.655 436.203 525.424 437.724C525.895 438.666 526.151 439.716 526.301 440.745C526.365 441.237 526.408 441.709 526.451 442.18C526.493 442.501 526.6 442.694 526.6 443.058C526.579 443.53 526.408 443.53 525.959 443.53C525.125 443.53 524.526 443.444 523.778 442.994C522.666 442.33 521.276 442.009 519.993 441.773C518.732 441.537 517.513 441.237 516.23 441.087C514.969 440.937 513.729 440.787 512.467 440.616C511.398 440.466 510.329 440.295 509.239 440.123C508.17 439.973 507.1 439.973 506.031 439.888C505.133 439.823 504.257 439.909 503.359 439.823C502.803 439.759 502.268 439.716 501.712 439.716C501.263 439.716 500.857 439.695 500.429 439.609C500.002 439.545 499.596 439.609 499.168 439.588C498.89 439.588 497.949 439.373 497.137 439.052Z"
                  fill="white"/>
            <path opacity="0.36" fill-rule="evenodd" clip-rule="evenodd"
                  d="M508.619 431.21C508.341 431.446 507.977 431.639 507.913 431.982C507.892 432.11 507.913 432.389 507.956 432.539C508.127 433.331 509.474 433.374 510.115 433.396C511.912 433.396 513.985 432.839 515.311 431.553C516.145 430.718 516.915 429.261 516.68 428.04C516.337 426.368 514.52 425.404 512.981 425.062C511.527 424.74 509.495 424.654 508.362 425.811C507.956 426.218 507.614 426.733 507.571 427.311C507.528 427.761 507.699 428.19 507.699 428.639C507.721 429.239 507.4 429.753 507.699 430.353C507.87 430.718 508.213 430.996 508.619 431.21Z"
                  fill="white"/>
            <path opacity="0.36" fill-rule="evenodd" clip-rule="evenodd"
                  d="M519.416 431.339C519.309 430.846 519.352 430.782 519.652 430.396C519.908 430.053 520.207 429.904 520.635 430.011C521.319 430.182 521.747 430.996 521.448 431.617C521.255 432.025 520.721 432.26 520.272 432.303C519.758 432.346 519.309 431.982 519.138 431.489L519.416 431.339Z"
                  fill="white"/>
            <path opacity="0.36" fill-rule="evenodd" clip-rule="evenodd"
                  d="M533.335 392.09C532.587 392.433 532.331 392.54 531.946 393.204C531.753 393.525 531.646 393.783 531.817 394.147C532.224 395.068 533.378 395.989 534.298 396.311C534.96 396.546 535.837 396.482 536.457 396.139C537.013 395.839 537.462 395.175 537.868 394.704C538.253 394.275 538.595 393.804 538.916 393.333C539.493 392.519 539.942 391.597 539.365 390.655C538.831 389.819 537.719 389.155 536.714 389.219C535.901 389.283 535.409 389.541 534.725 389.905C534.062 390.29 533.485 390.505 533.335 392.09Z"
                  fill="white"/>
            <path opacity="0.36" fill-rule="evenodd" clip-rule="evenodd"
                  d="M529.679 396.161C530.235 396.204 530.748 396.354 531.219 396.59C531.197 396.825 531.518 396.975 531.411 397.254C531.261 397.661 530.599 397.532 530.278 397.532C529.893 397.511 529.465 397.339 529.187 397.061C529.081 396.954 528.632 396.483 528.995 396.461L529.679 396.161Z"
                  fill="white"/>
            <path opacity="0.36" fill-rule="evenodd" clip-rule="evenodd"
                  d="M480.93 427.826C480.587 428.448 480.203 429.133 480.801 429.819C481.357 430.44 482.405 430.311 483.089 429.99C483.453 429.819 483.859 429.647 483.902 429.24C483.944 428.812 483.88 428.362 483.902 427.933C483.923 426.905 484.949 426.198 484.03 425.212C483.645 424.805 482.854 424.484 482.298 424.591C481.272 424.784 480.759 425.855 480.395 426.734L480.93 427.826Z"
                  fill="white"/>
            <path opacity="0.36" fill-rule="evenodd" clip-rule="evenodd"
                  d="M399.103 465.297C397.927 465.575 396.922 466.132 396.067 466.946C396.088 467.096 396.088 467.246 396.11 467.396C395.832 468.189 395.767 469.003 396.174 469.753C397.371 472.067 399.787 471.788 401.968 471.767C404.299 471.767 407.271 472.024 406.202 468.768C405.71 467.289 405.026 464.868 403.657 463.947C402.93 463.454 402.567 463.69 401.861 463.947C400.984 464.311 399.809 464.633 399.103 465.297Z"
                  fill="white"/>
            <path opacity="0.36" fill-rule="evenodd" clip-rule="evenodd"
                  d="M425.83 468.961C426.193 468.318 426.728 467.097 427.626 466.99C428.374 466.904 428.631 467.332 429.165 467.718C430.341 468.575 431.474 469.668 430.299 471.189C429.785 471.853 428.524 472.303 427.647 472.153C426.877 472.024 425.573 471.06 425.83 470.16V468.961Z"
                  fill="white"/>
            <path opacity="0.36" fill-rule="evenodd" clip-rule="evenodd"
                  d="M537.655 264.358C536.799 266.136 536.714 266.243 537.206 268.043C537.591 269.392 537.847 270.913 538.852 271.963C540.199 273.356 542.016 273.013 543.706 273.377C545.031 273.656 545.78 273.741 546.934 272.863C548.046 272.006 549.136 270.635 549.842 269.414C552.109 265.407 552.002 259.516 550.184 255.402C548.987 252.703 547.191 249.596 544.133 248.739C541.567 248.011 538.617 248.611 536.799 250.582C534.961 252.574 534.49 255.488 535.046 258.08C535.217 258.702 535.388 259.301 535.559 259.923C535.666 260.715 535.666 261.508 535.623 262.301C535.688 263.136 536.158 263.908 537.655 264.358Z"
                  fill="white"/>
            <path opacity="0.36" fill-rule="evenodd" clip-rule="evenodd"
                  d="M532.78 271.257C534.469 272.607 534.234 272.371 534.49 274.106C534.597 274.856 534.896 275.028 534.747 275.735C534.554 276.591 533.271 277.47 532.373 277.384C531.646 277.32 530.535 275.949 530.257 275.413C529.808 274.578 529.979 274.106 530.385 273.292L532.78 271.257Z"
                  fill="white"/>
            <path opacity="0.36" fill-rule="evenodd" clip-rule="evenodd"
                  d="M362.241 270.849C361.878 272.327 361.386 274.084 363.033 275.07C364.144 275.755 365.855 275.07 366.817 274.32C368.207 273.249 369.704 270.571 369.917 268.814C370.153 266.928 367.908 264.936 366.176 264.722C362.669 264.293 360.809 269.842 360.616 272.477L362.241 270.849Z"
                  fill="white"/>
            <path opacity="0.36" fill-rule="evenodd" clip-rule="evenodd"
                  d="M359.804 287.09C359.611 286.683 358.756 285.483 358.906 284.947C358.97 284.712 359.269 284.647 359.376 284.476C359.804 283.769 360.296 283.148 361.108 282.998C362.84 282.698 364.23 283.34 365.085 284.862C365.662 285.868 365.662 286.875 364.829 287.711C363.909 288.611 361.942 289.039 361.001 287.904L359.804 287.09Z"
                  fill="white"/>
            <path opacity="0.36" fill-rule="evenodd" clip-rule="evenodd"
                  d="M514.969 475.452C513.793 477.937 513.921 480.701 514.456 483.4C514.798 485.136 515.033 487.407 516.872 488.178C521.191 489.978 524.526 480.658 525.339 477.68C526.023 475.238 526.28 472.281 525.831 469.732C525.553 468.168 524.334 465.061 522.816 464.268C520.849 463.24 518.646 464.504 517.47 466.047C514.734 469.625 515.439 474.209 514.156 478.28L514.969 475.452Z"
                  fill="white"/>
            <path opacity="0.36" fill-rule="evenodd" clip-rule="evenodd"
                  d="M512.724 474.831C512.275 474.917 510.308 475.067 509.624 475.517C509.132 475.838 508.384 476.331 508.255 476.888C508.063 477.681 508.64 478.473 509.175 478.988C509.517 479.309 510.222 479.673 510.714 479.459C511.099 479.309 511.441 478.752 511.676 478.409C512.125 477.809 512.425 477.124 512.745 476.417C512.895 476.095 513.088 475.774 513.152 475.41C513.259 474.831 512.874 474.638 512.745 474.188V474.831H512.724Z"
                  fill="white"/>
            <path opacity="0.36" fill-rule="evenodd" clip-rule="evenodd"
                  d="M510.308 497.583C510.8 497.798 511.291 498.033 511.762 498.269C511.655 498.847 511.89 499.512 511.313 499.876C510.928 500.133 509.902 500.154 509.474 499.983C508.832 499.747 508.426 499.254 508.448 498.59C508.469 497.819 509.175 497.498 509.859 497.369L510.308 497.583Z"
                  fill="white"/>
            <path opacity="0.36" fill-rule="evenodd" clip-rule="evenodd"
                  d="M443.063 528.22C442.828 528.927 442.742 529.463 443.32 530.063C444.154 530.898 445.372 531.091 446.292 530.363C447.575 529.377 448.964 527.149 448.601 525.435C448.366 524.364 446.976 523.1 445.886 523.743C445.351 524.064 444.581 524.514 444.154 524.964C443.405 525.757 443.127 526.956 443.042 528.006V528.22H443.063Z"
                  fill="white"/>
            <path opacity="0.36" fill-rule="evenodd" clip-rule="evenodd"
                  d="M496.731 169.79C496.217 170.262 495.961 170.412 495.854 171.076C495.726 171.804 495.64 172.533 496.068 173.218C496.902 174.546 498.997 175.425 500.494 175.768C501.862 176.089 502.931 175.896 504.064 175.082C505.326 174.161 506.138 173.025 506.352 171.461C506.587 169.833 506.267 168.655 504.856 167.648C503.744 166.855 502.204 165.955 500.836 165.741C499.553 165.527 498.676 165.891 497.714 166.705C496.816 167.455 495.683 168.762 496.731 169.79Z"
                  fill="white"/>
            <path opacity="0.36" fill-rule="evenodd" clip-rule="evenodd"
                  d="M508.084 174.846C508.106 174.418 508.02 173.925 508.49 173.818C509.089 173.668 510.158 174.225 510.543 174.632C510.864 174.975 511.206 175.768 511.142 176.239C511.078 176.625 510.714 176.946 510.415 177.16C509.902 177.546 509.282 177.61 508.768 177.289C508.405 177.074 507.528 176.603 507.678 176.068L508.084 174.846Z"
                  fill="white"/>
            <path opacity="0.36" fill-rule="evenodd" clip-rule="evenodd"
                  d="M473.446 121.071C473.425 121.842 473.446 122.228 473.853 122.892C474.43 123.856 475.328 124.692 476.269 125.313C477.487 126.106 479.048 126.727 480.524 126.577C481.571 126.491 482.598 125.292 482.747 124.306C482.94 123.106 482.469 121.371 481.764 120.407C480.374 118.521 477.872 117 475.456 117.215C472.677 117.429 472.591 121.564 473.446 121.071Z"
                  fill="white"/>
            <path opacity="0.36" fill-rule="evenodd" clip-rule="evenodd"
                  d="M485.398 130.819C485.099 130.54 484.885 130.197 484.778 129.812C485.185 129.619 485.313 129.169 485.74 129.019C486.168 128.869 486.703 128.976 487.066 129.191C487.622 129.49 487.986 129.983 488.028 130.626C488.071 131.333 487.793 131.483 487.216 131.783C486.788 131.997 486.703 132.104 486.254 131.847C486.018 131.719 485.612 131.419 485.398 131.226V130.819Z"
                  fill="white"/>
        </g>
        <path fill-rule="evenodd" clip-rule="evenodd"
              d="M395.105 449.273C395.105 451.522 393.8 453.343 392.175 453.343C390.55 453.343 389.246 451.522 389.246 449.273C389.246 447.023 390.572 445.202 392.175 445.202C393.8 445.202 395.105 447.023 395.105 449.273Z"
              fill="url(#paint27_linear_5_2)"/>
        <path d="M392.175 452.465C393.451 452.465 394.485 451.036 394.485 449.273C394.485 447.51 393.451 446.081 392.175 446.081C390.9 446.081 389.866 447.51 389.866 449.273C389.866 451.036 390.9 452.465 392.175 452.465Z"
              fill="white"/>
        <path fill-rule="evenodd" clip-rule="evenodd"
              d="M512.275 440.81C512.275 443.059 510.821 444.881 509.025 444.881C507.229 444.881 505.775 443.059 505.775 440.81C505.775 438.56 507.229 436.739 509.025 436.739C510.821 436.739 512.275 438.56 512.275 440.81Z"
              fill="url(#paint28_linear_5_2)"/>
        <path fill-rule="evenodd" clip-rule="evenodd"
              d="M511.59 440.81C511.59 442.589 510.457 444.003 509.046 444.003C507.635 444.003 506.502 442.567 506.502 440.81C506.502 439.054 507.635 437.618 509.046 437.618C510.457 437.618 511.59 439.032 511.59 440.81Z"
              fill="white"/>
        <path fill-rule="evenodd" clip-rule="evenodd"
              d="M457.496 440.166C457.496 442.416 455.678 444.237 453.433 444.237C451.188 444.237 449.371 442.416 449.371 440.166C449.371 437.917 451.188 436.096 453.433 436.096C455.678 436.096 457.496 437.917 457.496 440.166Z"
              fill="url(#paint29_linear_5_2)"/>
        <path d="M453.433 443.359C455.193 443.359 456.619 441.93 456.619 440.167C456.619 438.404 455.193 436.975 453.433 436.975C451.674 436.975 450.248 438.404 450.248 440.167C450.248 441.93 451.674 443.359 453.433 443.359Z"
              fill="white"/>
    </g>
    <g clip-path="url(#clip1_5_2)">
        <path fill-rule="evenodd" clip-rule="evenodd"
              d="M862.874 1035.99C862.874 1316.82 634.96 1544.42 353.937 1544.42C276.562 1544.42 203.215 1527.13 137.561 1496.21C124.65 1490.17 111.922 1483.5 99.56 1476.36C50.1131 1447.82 5.9771 1411.23 -31.1081 1368.33C-44.6602 1352.77 -57.2051 1336.31 -68.7427 1319.2C-84.4009 1295.97 -98.2277 1271.27 -109.948 1245.38C-138.884 1181.53 -155 1110.63 -155 1035.99C-155 961.161 -138.793 890.175 -109.765 826.141C-100.517 805.65 -89.8034 785.799 -77.8995 766.863C-52.2604 725.699 -20.8524 688.65 15.2255 656.542L15.3171 656.451C105.237 576.225 223.91 527.468 353.937 527.468C395.601 527.468 435.982 532.499 474.716 541.921C528.649 555.002 579.012 576.591 624.705 605.315H624.796C633.678 610.895 642.377 616.749 650.893 622.878C658.036 628.001 664.995 633.307 671.771 638.704C705.193 665.324 735.045 696.06 760.684 730.181C814.251 801.167 849.597 886.607 859.852 979.548C861.867 998.118 862.874 1016.87 862.874 1035.99Z"
              fill="url(#paint30_radial_5_2)"/>
        <g opacity="0.58">
            <path opacity="0.58" fill-rule="evenodd" clip-rule="evenodd"
                  d="M195.981 1093.25C192.685 1094.63 186.275 1096.55 187.374 1099.57C187.832 1101.03 189.297 1102.22 189.938 1103.59C190.579 1104.78 190.945 1106.06 191.128 1107.34C191.403 1109.08 192.868 1111.73 194.883 1113.01C196.439 1114.02 197.996 1113.01 199.095 1112.01C200.194 1111 201.384 1109.9 201.476 1108.62C201.567 1106.98 201.75 1105.42 202.391 1103.77C202.666 1103.13 203.398 1102.58 203.673 1101.94C203.948 1101.12 203.856 1100.21 203.856 1099.29C203.856 1097.55 201.567 1093.99 195.981 1093.25Z"
                  fill="#9CBDFF"/>
            <path opacity="0.58" fill-rule="evenodd" clip-rule="evenodd"
                  d="M182.521 1118.78C182.063 1117.95 182.337 1117.22 183.253 1116.67C188.198 1116.76 189.938 1122.62 185.268 1123.81C179.957 1125.09 179.224 1120.7 180.872 1118.78H182.521Z"
                  fill="#9CBDFF"/>
            <path opacity="0.58" fill-rule="evenodd" clip-rule="evenodd"
                  d="M91.4104 1156.74C93.9743 1156.01 96.1719 1154.91 99.0105 1155.37C101.391 1155.73 103.406 1156.56 104.962 1157.66C106.977 1159.03 107.801 1160.86 108.625 1162.6C109.083 1163.42 109.724 1164.24 109.358 1165.16C107.801 1168.72 101.208 1171.19 95.8972 1172.2C92.8755 1172.75 90.0368 1173.48 86.832 1173.66C84.6343 1173.76 82.4367 1173.94 80.3306 1174.21C78.4992 1174.4 76.851 1174.85 74.9281 1174.58C73.5545 1174.4 71.8147 1173.66 70.7159 1173.12C67.2363 1171.47 65.0387 1169.09 65.2218 1166.53C65.4965 1161.96 74.5618 1158.3 80.6969 1156.38C85.8247 1154.73 93.7911 1152.81 91.4104 1156.74Z"
                  fill="#9CBDFF"/>
            <path opacity="0.58" fill-rule="evenodd" clip-rule="evenodd"
                  d="M115.218 1150.43C114.485 1151.71 113.844 1152.17 115.584 1152.9C116.866 1153.45 118.606 1153.36 119.979 1153.08C122.635 1152.53 125.931 1150.15 124.008 1148.51C123.001 1147.68 120.62 1146.22 118.972 1146.13C115.767 1145.95 111.647 1148.78 112.013 1150.52H115.218V1150.43Z"
                  fill="#9CBDFF"/>
            <path opacity="0.58" fill-rule="evenodd" clip-rule="evenodd"
                  d="M218.232 1179.52C219.056 1178.7 220.155 1177.14 222.261 1177.41C224.367 1177.69 224.367 1179.52 224.184 1180.43C223.635 1182.72 218.69 1180.34 219.056 1178.79L218.232 1179.52Z"
                  fill="#9CBDFF"/>
            <path opacity="0.58" fill-rule="evenodd" clip-rule="evenodd"
                  d="M255.867 1194.15C255.135 1195.07 254.494 1195.89 254.86 1196.9C255.318 1198.36 257.149 1198.91 259.438 1199C262.918 1199.09 265.39 1198.54 266.123 1196.35C266.581 1194.98 265.024 1192.96 263.467 1192.05C262.735 1191.59 261.636 1191.41 260.537 1191.32C258.339 1191.23 257.332 1192.23 256.325 1193.24L255.867 1194.15Z"
                  fill="#9CBDFF"/>
            <path opacity="0.58" fill-rule="evenodd" clip-rule="evenodd"
                  d="M441.201 1177.87C439.004 1178.51 438.271 1178.69 437.081 1179.88C436.531 1180.43 436.257 1180.89 436.715 1181.53C437.905 1183.18 441.293 1184.82 443.948 1185.37C445.871 1185.83 448.527 1185.74 450.267 1185.1C451.823 1184.55 453.197 1183.36 454.387 1182.54C455.486 1181.8 456.493 1180.98 457.501 1180.16C459.24 1178.69 460.522 1177.05 458.783 1175.4C457.226 1173.94 453.929 1172.75 450.999 1172.84C448.618 1172.93 447.153 1173.39 445.139 1174.03C443.399 1174.67 441.659 1175.04 441.201 1177.87Z"
                  fill="#9CBDFF"/>
            <path opacity="0.58" fill-rule="evenodd" clip-rule="evenodd"
                  d="M430.488 1185.1C432.136 1185.19 433.601 1185.46 435.066 1185.83C434.975 1186.29 435.891 1186.47 435.616 1187.02C435.158 1187.75 433.235 1187.57 432.319 1187.48C431.129 1187.48 429.939 1187.11 429.115 1186.65C428.84 1186.47 427.466 1185.65 428.565 1185.55L430.488 1185.1Z"
                  fill="#9CBDFF"/>
            <path opacity="0.58" fill-rule="evenodd" clip-rule="evenodd"
                  d="M453.929 951.099C451.365 954.209 451.182 954.484 452.647 957.594C453.746 959.972 454.479 962.717 457.501 964.546C461.438 967.016 466.84 966.467 471.785 967.108C475.631 967.657 477.92 967.748 481.217 966.193C484.422 964.638 487.718 962.259 489.733 960.064C496.417 952.929 496.051 942.5 490.74 935.182C487.26 930.334 481.949 924.845 472.976 923.382C465.467 922.101 456.768 923.107 451.457 926.675C446.055 930.242 444.681 935.365 446.329 939.939C446.879 941.037 447.336 942.134 447.794 943.232C448.069 944.604 448.161 946.068 447.977 947.44C448.161 948.904 449.534 950.276 453.929 951.099Z"
                  fill="#9CBDFF"/>
            <path opacity="0.58" fill-rule="evenodd" clip-rule="evenodd"
                  d="M439.645 963.357C444.589 965.736 443.857 965.37 444.681 968.389C445.047 969.761 445.871 970.035 445.413 971.316C444.864 972.871 441.11 974.426 438.454 974.243C436.348 974.152 433.052 971.682 432.228 970.767C430.946 969.303 431.403 968.48 432.594 967.017L439.645 963.357Z"
                  fill="#9CBDFF"/>
            <path opacity="0.58" fill-rule="evenodd" clip-rule="evenodd"
                  d="M557.035 869.136C553.738 870.508 547.329 872.429 548.427 875.448C548.885 876.911 550.35 878.1 550.991 879.473C551.632 880.662 551.999 881.943 552.182 883.223C552.456 884.961 553.921 887.614 555.936 888.895C557.493 889.901 559.049 888.895 560.148 887.889C561.247 886.882 562.437 885.785 562.529 884.504C562.62 882.857 562.804 881.302 563.445 879.656C563.719 879.015 564.452 878.466 564.727 877.826C565.001 877.003 564.91 876.088 564.91 875.173C564.91 873.435 562.62 869.868 557.035 869.136Z"
                  fill="#9CBDFF"/>
            <path opacity="0.58" fill-rule="evenodd" clip-rule="evenodd"
                  d="M543.575 894.566C543.117 893.743 543.392 893.011 544.307 892.462C549.252 892.553 550.992 898.408 546.322 899.597C541.011 900.878 540.278 896.487 541.927 894.566H543.575Z"
                  fill="#9CBDFF"/>
            <path opacity="0.58" fill-rule="evenodd" clip-rule="evenodd"
                  d="M579.195 955.4C580.019 954.576 581.118 953.021 583.224 953.296C585.33 953.57 585.33 955.4 585.147 956.314C584.597 958.601 579.653 956.223 580.019 954.668L579.195 955.4Z"
                  fill="#9CBDFF"/>
            <path opacity="0.58" fill-rule="evenodd" clip-rule="evenodd"
                  d="M616.829 970.035C616.097 970.95 615.456 971.773 615.822 972.779C616.28 974.243 618.111 974.792 620.4 974.883C623.88 974.975 626.352 974.426 627.085 972.23C627.543 970.858 625.986 968.846 624.429 967.931C623.697 967.474 622.598 967.291 621.499 967.199C619.302 967.108 618.294 968.114 617.287 969.12L616.829 970.035Z"
                  fill="#9CBDFF"/>
            <path opacity="0.58" fill-rule="evenodd" clip-rule="evenodd"
                  d="M729.733 1023.09C728.909 1023.46 727.902 1023.82 727.627 1024.46C727.536 1024.74 727.627 1025.2 727.719 1025.47C728.268 1026.93 732.114 1026.93 734.037 1026.93C739.348 1026.93 745.391 1025.93 749.237 1023.64C751.71 1022.18 753.999 1019.52 753.175 1017.42C752.167 1014.4 746.856 1012.76 742.278 1012.11C738.066 1011.57 732.022 1011.38 728.726 1013.4C727.536 1014.13 726.528 1015.04 726.345 1016.05C726.254 1016.87 726.711 1017.6 726.711 1018.43C726.711 1019.52 725.796 1020.44 726.711 1021.45C727.536 1022.27 728.634 1022.73 729.733 1023.09Z"
                  fill="#9CBDFF"/>
            <path opacity="0.58" fill-rule="evenodd" clip-rule="evenodd"
                  d="M761.416 1023.37C761.141 1022.45 761.233 1022.36 762.057 1021.72C762.79 1021.08 763.705 1020.81 764.987 1020.99C767.002 1021.26 768.192 1022.73 767.368 1023.82C766.819 1024.56 765.17 1024.92 763.98 1025.01C762.423 1025.1 761.141 1024.46 760.684 1023.55L761.416 1023.37Z"
                  fill="#9CBDFF"/>
            <path opacity="0.58" fill-rule="evenodd" clip-rule="evenodd"
                  d="M484.147 610.439C481.949 611.079 481.217 611.262 480.026 612.451C479.477 613 479.202 613.457 479.66 614.098C480.85 615.744 484.238 617.391 486.894 617.94C488.817 618.397 491.472 618.306 493.212 617.665C494.769 617.116 496.142 615.927 497.333 615.104C498.431 614.372 499.439 613.549 500.446 612.725C502.186 611.262 503.468 609.615 501.728 607.969C500.171 606.505 496.875 605.316 493.945 605.407C491.564 605.499 490.099 605.956 488.084 606.596C486.253 607.237 484.605 607.603 484.147 610.439Z"
                  fill="#9CBDFF"/>
            <path opacity="0.58" fill-rule="evenodd" clip-rule="evenodd"
                  d="M473.433 617.665C475.082 617.757 476.547 618.031 478.012 618.397C477.92 618.854 478.836 619.037 478.561 619.586C478.103 620.318 476.181 620.135 475.265 620.043C474.074 620.043 472.884 619.678 472.06 619.22C471.785 619.037 470.412 618.214 471.51 618.122L473.433 617.665Z"
                  fill="#9CBDFF"/>
            <path opacity="0.58" fill-rule="evenodd" clip-rule="evenodd"
                  d="M648.512 1017.15C647.505 1018.24 646.406 1019.43 648.146 1020.62C649.794 1021.72 652.908 1021.54 654.831 1020.99C655.838 1020.71 657.12 1020.35 657.211 1019.62C657.395 1018.88 657.12 1018.06 657.211 1017.33C657.303 1015.5 660.233 1014.22 657.578 1012.48C656.479 1011.75 654.098 1011.2 652.45 1011.38C649.428 1011.75 647.963 1013.67 646.864 1015.23L648.512 1017.15Z"
                  fill="#9CBDFF"/>
            <path opacity="0.58" fill-rule="evenodd" clip-rule="evenodd"
                  d="M486.894 1090.14C487.901 1089.05 489.458 1086.85 492.205 1086.67C494.402 1086.49 495.135 1087.31 496.692 1087.95C500.171 1089.41 503.468 1091.43 499.988 1094.17C498.431 1095.36 494.769 1096.18 492.205 1095.91C489.916 1095.63 486.07 1093.99 486.894 1092.34V1090.14Z"
                  fill="#9CBDFF"/>
            <path opacity="0.58" fill-rule="evenodd" clip-rule="evenodd"
                  d="M748.413 1101.67C744.934 1106.06 745.392 1111 746.948 1115.76C747.955 1118.87 748.596 1122.89 754.091 1124.27C766.819 1127.47 776.525 1110.91 778.997 1105.6C781.012 1101.21 781.744 1096 780.462 1091.52C779.638 1088.77 776.067 1083.19 771.672 1081.82C765.903 1079.99 759.493 1082.19 755.922 1085.02C747.864 1091.33 749.97 1099.48 746.216 1106.7L748.413 1101.67Z"
                  fill="#9CBDFF"/>
            <path opacity="0.58" fill-rule="evenodd" clip-rule="evenodd"
                  d="M741.82 1100.57C740.538 1100.66 734.678 1101.03 732.755 1101.76C731.382 1102.31 729.092 1103.23 728.726 1104.23C728.177 1105.6 729.825 1107.07 731.382 1107.98C732.389 1108.53 734.403 1109.17 735.868 1108.81C737.059 1108.53 737.974 1107.53 738.707 1106.98C739.989 1105.88 740.905 1104.69 741.82 1103.41C742.187 1102.86 742.828 1102.31 743.011 1101.67C743.285 1100.66 742.187 1100.3 741.82 1099.48V1100.57Z"
                  fill="#9CBDFF"/>
            <path opacity="0.58" fill-rule="evenodd" clip-rule="evenodd"
                  d="M333.883 783.146C332.418 783.97 331.685 784.244 331.319 785.433C330.953 786.714 330.678 787.995 331.96 789.184C334.432 791.562 340.567 793.117 344.963 793.758C348.992 794.307 352.105 794.032 355.401 792.568C359.156 790.922 361.445 788.909 362.086 786.165C362.727 783.238 361.811 781.134 357.691 779.396C354.394 778.024 349.907 776.377 345.878 776.011C342.124 775.645 339.56 776.285 336.721 777.749C334.158 779.03 330.861 781.317 333.883 783.146Z"
                  fill="#9CBDFF"/>
            <path opacity="0.58" fill-rule="evenodd" clip-rule="evenodd"
                  d="M367.122 792.204C367.214 791.472 366.939 790.557 368.313 790.374C370.053 790.1 373.166 791.106 374.356 791.838C375.272 792.387 376.279 793.85 376.096 794.674C375.913 795.314 374.814 795.954 373.99 796.32C372.433 796.961 370.694 797.144 369.137 796.503C368.13 796.137 365.474 795.314 365.932 794.308L367.122 792.204Z"
                  fill="#9CBDFF"/>
            <path opacity="0.58" fill-rule="evenodd" clip-rule="evenodd"
                  d="M265.573 696.701C265.482 698.073 265.573 698.805 266.764 699.903C268.503 701.641 271.067 703.105 273.906 704.202C277.477 705.575 282.055 706.672 286.451 706.489C289.564 706.306 292.494 704.202 292.952 702.464C293.502 700.36 292.128 697.25 290.022 695.512C285.901 692.219 278.576 689.475 271.525 689.84C263.376 690.206 263.009 697.525 265.573 696.701Z"
                  fill="#9CBDFF"/>
            <path opacity="0.58" fill-rule="evenodd" clip-rule="evenodd"
                  d="M300.552 713.99C299.637 713.533 298.996 712.892 298.721 712.161C299.911 711.795 300.277 711.063 301.559 710.788C302.841 710.514 304.398 710.697 305.497 711.063C307.145 711.612 308.244 712.526 308.335 713.624C308.427 714.905 307.603 715.179 305.955 715.728C304.764 716.094 304.49 716.277 303.116 715.82C302.384 715.637 301.193 715.088 300.644 714.722V713.99H300.552Z"
                  fill="#9CBDFF"/>
        </g>
        <path fill-rule="evenodd" clip-rule="evenodd"
              d="M-27.0788 696.792L-24.5149 651.968C-24.5149 651.968 124.101 526.279 337.547 496L367.032 527.468L387.177 559.302C387.177 559.302 204.956 655.902 87.3817 813.06L101.209 825.409L228.672 753.6L353.937 776.469L351.648 813.06C351.648 813.06 201.751 992.172 32.807 1113.74H-86.9645L-127.438 848.919L-135.313 796.777L-62.6989 712.069L-27.0788 696.792Z"
              fill="url(#paint31_linear_5_2)"/>
        <path fill-rule="evenodd" clip-rule="evenodd"
              d="M710.596 620.135C710.596 620.135 599.524 642.821 465.925 772.627L414.647 792.02C414.647 792.02 660.966 851.206 747.315 893.285L732.573 934.908L813.702 1011.11C813.702 1011.11 771.947 1161.86 679.646 1273.1L696.586 1301.36C696.586 1301.36 824.599 1277.95 885.492 1228.82L922.119 1070.84L900.143 1061.15C900.234 1061.24 887.506 727.712 710.596 620.135Z"
              fill="url(#paint32_linear_5_2)"/>
        <path fill-rule="evenodd" clip-rule="evenodd"
              d="M498.066 697.98C498.066 697.98 545.773 570.187 581.302 527.467C581.302 527.467 656.571 526.827 694.022 580.615L650.802 622.969C650.802 622.969 590.001 626.079 498.066 697.98Z"
              fill="url(#paint33_linear_5_2)"/>
        <path fill-rule="evenodd" clip-rule="evenodd"
              d="M337.547 496C337.547 496 136.829 656.359 61.651 804.827L-16.0906 908.196L228.672 753.6L353.937 776.469C353.937 776.469 142.872 1001.69 -0.0660858 1093.62L-86.9645 1113.74L-135.313 796.777L-56.2891 711.52L-45.3925 813.06L-24.5149 684.626V651.968C-24.5149 651.968 124.192 520.516 337.547 496Z"
              fill="#A99AF4"/>
        <path fill-rule="evenodd" clip-rule="evenodd"
              d="M707.94 1299.17L865.438 1105.79L922.21 1070.84L885.583 1228.82C885.583 1228.91 824.507 1287.92 707.94 1299.17Z"
              fill="#573DAE"/>
        <path fill-rule="evenodd" clip-rule="evenodd"
              d="M87.3815 813.06L-16.0908 908.196L61.6507 804.827C61.6507 804.827 191.769 590.313 337.546 496L422.522 555.46C422.613 555.46 198.088 668.16 87.3815 813.06Z"
              fill="#A972B0"/>
        <path fill-rule="evenodd" clip-rule="evenodd"
              d="M353.937 776.469L352.38 800.893L391.297 804.827C391.297 804.827 214.204 1011.66 46.6333 1115.39L32.8065 1113.65L353.937 776.469Z"
              fill="#A972B0"/>
        <path fill-rule="evenodd" clip-rule="evenodd"
              d="M498.065 697.982L664.354 633.033L650.802 622.97L694.113 580.708C694.113 580.708 595.22 582.72 498.065 697.982Z"
              fill="#A972B0"/>
        <path fill-rule="evenodd" clip-rule="evenodd"
              d="M747.406 893.377L823.5 813.06L646.406 825.41L433.876 796.777L741.18 908.196L747.406 893.377Z" fill="#A972B0"/>
        <path fill-rule="evenodd" clip-rule="evenodd"
              d="M259.714 996.93L458.966 858.708L660.142 891.091V960.796L486.803 1056.94L259.714 996.93Z"
              fill="url(#paint34_linear_5_2)"/>
        <path fill-rule="evenodd" clip-rule="evenodd"
              d="M228.671 1079.62L262.002 1061.24L347.069 1070.39L337.729 1105.79L282.514 1115.48L228.671 1079.62Z"
              fill="url(#paint35_linear_5_2)"/>
        <path fill-rule="evenodd" clip-rule="evenodd"
              d="M259.714 996.93L387.177 1006.35L509.42 870.417L458.966 858.708L259.714 996.93Z" fill="#A99AF4"/>
        <path opacity="0.88" fill-rule="evenodd" clip-rule="evenodd"
              d="M228.671 1079.62L270.243 1098.38L303.757 1079.62L347.069 1070.39L262.002 1061.24L228.671 1079.62Z"
              fill="#A99AF4"/>
        <path fill-rule="evenodd" clip-rule="evenodd"
              d="M387.176 1006.35L487.627 1035.9L660.142 960.795L523.705 1080.63L259.713 996.928L387.176 1006.35Z"
              fill="#A972B0"/>
        <path fill-rule="evenodd" clip-rule="evenodd"
              d="M282.514 1115.48L270.244 1098.38L303.758 1079.62L347.07 1070.38L364.742 1115.48H282.514Z" fill="#A972B0"/>
        <path fill-rule="evenodd" clip-rule="evenodd" d="M891.718 979.365L838.334 1041.57L793.19 1115.48L891.718 1041.57V979.365Z"
              fill="#573DAE"/>
        <path fill-rule="evenodd" clip-rule="evenodd" d="M732.664 934.998L859.761 979.639L813.885 1011.2L732.664 934.998Z"
              fill="#A972B0"/>
        <path d="M-86.416 1068.28L-87.4233 1066.27C-85.3172 1065.17 125.107 959.789 194.974 907.373C258.888 859.439 282.696 820.012 286.359 813.517L235.813 783.696L-109.766 961.802L-110.773 959.789L235.905 781.043L289.381 812.603L288.923 813.517C288.74 813.975 266.489 856.42 196.347 909.111C126.297 961.71 -84.3099 1067.18 -86.416 1068.28Z"
              fill="#00E7F4"/>
        <path d="M-96.3964 1049.07L-97.4952 1047.06L43.7033 974.152L166.863 858.799L154.135 850.292L-107.568 976.164L-108.575 974.152L154.318 847.639L170.526 858.524L169.427 859.531L44.8937 976.164L-96.3964 1049.07Z"
              fill="#00E7F4"/>
        <path d="M-112.878 932.62L-114.527 931.065L92.3264 693.957L287.092 504.142L288.649 505.788L93.9746 695.512L-112.878 932.62Z"
              fill="#00E7F4"/>
        <path d="M-122.677 907.281L-63.2486 718.198L-61.051 718.93L-116.175 894.291L-0.982132 733.291L167.778 540.915L169.518 542.47L0.757675 734.664L-122.677 907.281Z"
              fill="#00E7F4"/>
        <path d="M842.363 793.119L686.88 789.185L515.738 759.089V744.727L516.288 744.361L663.621 660.477L750.703 649.683L750.978 651.97L664.079 662.672L518.027 746.008V757.168L687.063 786.898L842.454 790.832L842.363 793.119Z"
              fill="#00E7F4"/>
        <path d="M694.113 766.773L594.945 754.606V744.269L595.311 743.903L673.694 678.955L771.763 671.545L771.947 673.832L674.609 681.15L597.234 745.367V752.594L694.205 764.486L829.451 761.558L829.543 763.845L694.113 766.773Z"
              fill="#00E7F4"/>
        <path d="M885.308 956.953L828.719 941.585L828.444 941.128L807.017 890.907L855.914 829.892L857.654 831.355L809.672 891.273L830.367 939.664L885.949 954.758L885.308 956.953Z"
              fill="#00E7F4"/>
        <path d="M885.216 944.329L855.823 932.712L855.731 932.163L845.75 900.603L846.025 900.238L866.811 865.934L868.826 867.123L848.223 900.969L857.746 930.974L886.041 942.226L885.216 944.329Z"
              fill="#00E7F4"/>
        <path d="M259.896 998.028L259.439 995.832L433.602 956.68L659.776 889.993L660.417 892.189L434.151 958.875L259.896 998.028Z"
              fill="#00E7F4"/>
        <path d="M487.719 1057.76L485.979 1056.21L528.65 1010.19L659.501 926.033L660.691 927.954L530.023 1012.02L487.719 1057.76Z"
              fill="#00E7F4"/>
        <path fill-rule="evenodd" clip-rule="evenodd"
              d="M-119.472 1195.16L-84.0348 1215.01H10.83L30.2425 1181.44L-99.9677 1166.89L-119.472 1195.16Z"
              fill="url(#paint36_linear_5_2)"/>
        <path fill-rule="evenodd" clip-rule="evenodd"
              d="M-119.472 1195.16L-72.2225 1202.66L13.1192 1195.16L30.2425 1181.44L-99.9677 1166.89L-119.472 1195.16Z"
              fill="#A99AF4"/>
        <path fill-rule="evenodd" clip-rule="evenodd"
              d="M30.2426 1181.44L13.1193 1195.16L-84.0348 1215.01L23.1002 1224.34L30.2426 1181.44Z" fill="#A972B0"/>
    </g>
    <g clip-path="url(#clip2_5_2)">
        <path fill-rule="evenodd" clip-rule="evenodd"
              d="M135.671 83.3153L155.411 17.7163L179.417 14.7986L235.992 65.7679L215.218 104.932L151.534 105.993L135.671 83.3153Z"
              fill="#0059FF"/>
        <path fill-rule="evenodd" clip-rule="evenodd"
              d="M154.052 49.8535L135.671 83.3158L151.534 105.993L215.218 104.932L154.052 49.8535Z"
              fill="url(#paint37_linear_5_2)"/>
        <path opacity="0.55" fill-rule="evenodd" clip-rule="evenodd"
              d="M151.534 105.993L167.662 94.609L235.992 65.7681L215.218 104.932L151.534 105.993Z" fill="#00C5FF"/>
        <path fill-rule="evenodd" clip-rule="evenodd"
              d="M151.534 105.993L167.663 94.6085L150.845 70.9147L135.671 83.315L151.534 105.993Z" fill="#12908B"/>
        <path fill-rule="evenodd" clip-rule="evenodd"
              d="M150.845 70.9151L179.417 14.7986L155.411 17.7163L135.671 83.3153L150.845 70.9151Z"
              fill="url(#paint38_linear_5_2)"/>
        <path opacity="0.75" fill-rule="evenodd" clip-rule="evenodd"
              d="M155.411 17.7163L154.052 49.8531L215.218 104.932L235.992 65.7679L179.417 14.7986L155.411 17.7163Z"
              fill="#5CF4FF"/>
        <path fill-rule="evenodd" clip-rule="evenodd"
              d="M194.178 89.4457L184.191 94.8145L189.768 99.696L202.03 96.3188L194.178 89.4457Z" fill="white"/>
        <path fill-rule="evenodd" clip-rule="evenodd" d="M154.052 49.8526L135.671 83.3149L155.411 17.7158L154.052 49.8526Z"
              fill="#5CF4FF"/>
    </g>
    <defs>
        <linearGradient id="paint0_linear_5_2" x1="759.804" y1="394.668" x2="728.213" y2="333.728" gradientUnits="userSpaceOnUse">
            <stop stop-color="#A43440"/>
            <stop offset="1" stop-color="#C75225"/>
        </linearGradient>
        <linearGradient id="paint1_linear_5_2" x1="541.083" y1="598.006" x2="541.083" y2="464.517" gradientUnits="userSpaceOnUse">
            <stop stop-color="#A43440"/>
            <stop offset="1" stop-color="#C73634"/>
        </linearGradient>
        <linearGradient id="paint2_linear_5_2" x1="360.41" y1="598.006" x2="360.41" y2="464.517" gradientUnits="userSpaceOnUse">
            <stop stop-color="#A43440"/>
            <stop offset="1" stop-color="#C73634"/>
        </linearGradient>
        <radialGradient id="paint3_radial_5_2" cx="0" cy="0" r="1" gradientUnits="userSpaceOnUse"
                        gradientTransform="translate(474.8 242.258) scale(149.321 273.438)">
            <stop stop-color="#F4BAB3"/>
            <stop offset="0.7654" stop-color="#8D6FC7"/>
            <stop offset="0.9637" stop-color="#B695E5"/>
        </radialGradient>
        <radialGradient id="paint4_radial_5_2" cx="0" cy="0" r="1" gradientUnits="userSpaceOnUse"
                        gradientTransform="translate(451.188 105.533) scale(40.1592 36.5218)">
            <stop offset="0.0223" stop-color="#AB5E75"/>
            <stop offset="0.2521" stop-color="#9F577B"/>
            <stop offset="0.6676" stop-color="#7F458C"/>
            <stop offset="0.9944" stop-color="#61349C"/>
        </radialGradient>
        <linearGradient id="paint5_linear_5_2" x1="450.106" y1="106.478" x2="450.106" y2="89.8129" gradientUnits="userSpaceOnUse">
            <stop stop-color="#FFFF18"/>
            <stop offset="1" stop-color="#FF7400"/>
        </linearGradient>
        <radialGradient id="paint6_radial_5_2" cx="0" cy="0" r="1" gradientUnits="userSpaceOnUse"
                        gradientTransform="translate(449.992 441.317) scale(70.9468 130.911)">
            <stop offset="0.0223" stop-color="#8881BC"/>
            <stop offset="0.2869" stop-color="#8375B7"/>
            <stop offset="0.7657" stop-color="#7555AA"/>
            <stop offset="0.9944" stop-color="#6D43A3"/>
        </radialGradient>
        <radialGradient id="paint7_radial_5_2" cx="0" cy="0" r="1" gradientUnits="userSpaceOnUse"
                        gradientTransform="translate(450.342 253.976) scale(75.4322 75.5838)">
            <stop offset="0.0223" stop-color="#8881BC"/>
            <stop offset="0.2869" stop-color="#8375B7"/>
            <stop offset="0.7657" stop-color="#7555AA"/>
            <stop offset="0.9944" stop-color="#6D43A3"/>
        </radialGradient>
        <radialGradient id="paint8_radial_5_2" cx="0" cy="0" r="1" gradientUnits="userSpaceOnUse"
                        gradientTransform="translate(448.458 167.418) scale(93.682 157.721)">
            <stop offset="0.0223" stop-color="#725EB0"/>
            <stop offset="0.3834" stop-color="#6D52AA"/>
            <stop offset="0.9944" stop-color="#61349C"/>
        </radialGradient>
        <linearGradient id="paint9_linear_5_2" x1="450.945" y1="300.997" x2="450.945" y2="184.392" gradientUnits="userSpaceOnUse">
            <stop stop-color="#FFFF97"/>
            <stop offset="1" stop-color="#FF7E59"/>
        </linearGradient>
        <radialGradient id="paint10_radial_5_2" cx="0" cy="0" r="1" gradientUnits="userSpaceOnUse"
                        gradientTransform="translate(451.221 550.962) scale(27.8715 51.4288)">
            <stop offset="0.0223" stop-color="#725EB0"/>
            <stop offset="0.3834" stop-color="#6D52AA"/>
            <stop offset="0.9944" stop-color="#61349C"/>
        </radialGradient>
        <radialGradient id="paint11_radial_5_2" cx="0" cy="0" r="1" gradientUnits="userSpaceOnUse"
                        gradientTransform="translate(450.969 155.945) scale(51.3507 51.4539)">
            <stop offset="0.0223" stop-color="#8881BC"/>
            <stop offset="0.2869" stop-color="#8375B7"/>
            <stop offset="0.7657" stop-color="#7555AA"/>
            <stop offset="0.9944" stop-color="#6D43A3"/>
        </radialGradient>
        <linearGradient id="paint12_linear_5_2" x1="447.05" y1="403.875" x2="447.05" y2="396.839" gradientUnits="userSpaceOnUse">
            <stop stop-color="#8DC7FF"/>
            <stop offset="0.3156" stop-color="#5C4D86"/>
        </linearGradient>
        <radialGradient id="paint13_radial_5_2" cx="0" cy="0" r="1" gradientUnits="userSpaceOnUse"
                        gradientTransform="translate(447.547 398.987) scale(2.76441 2.76998)">
            <stop offset="0.0223" stop-color="#8881BC"/>
            <stop offset="0.2884" stop-color="#8375B7"/>
            <stop offset="0.77" stop-color="#7555AA"/>
            <stop offset="1" stop-color="#6D43A3"/>
        </radialGradient>
        <linearGradient id="paint14_linear_5_2" x1="447.049" y1="386.52" x2="447.049" y2="379.484" gradientUnits="userSpaceOnUse">
            <stop stop-color="#8DC7FF"/>
            <stop offset="0.3156" stop-color="#5C4D86"/>
        </linearGradient>
        <radialGradient id="paint15_radial_5_2" cx="0" cy="0" r="1" gradientUnits="userSpaceOnUse"
                        gradientTransform="translate(447.547 381.632) scale(2.76441 2.76996)">
            <stop offset="0.0223" stop-color="#8881BC"/>
            <stop offset="0.2884" stop-color="#8375B7"/>
            <stop offset="0.77" stop-color="#7555AA"/>
            <stop offset="1" stop-color="#6D43A3"/>
        </radialGradient>
        <radialGradient id="paint16_radial_5_2" cx="0" cy="0" r="1" gradientUnits="userSpaceOnUse"
                        gradientTransform="translate(389.737 263.338) scale(2.76462 2.77018)">
            <stop stop-color="#F4BAB3"/>
            <stop offset="1" stop-color="#8D6FC7"/>
        </radialGradient>
        <radialGradient id="paint17_radial_5_2" cx="0" cy="0" r="1" gradientUnits="userSpaceOnUse"
                        gradientTransform="translate(395.895 213.543) scale(2.76462 2.77019)">
            <stop stop-color="#F4BAB3"/>
            <stop offset="1" stop-color="#8D6FC7"/>
        </radialGradient>
        <radialGradient id="paint18_radial_5_2" cx="0" cy="0" r="1" gradientUnits="userSpaceOnUse"
                        gradientTransform="translate(422.597 302.662) scale(2.7644 2.76996)">
            <stop stop-color="#F4BAB3"/>
            <stop offset="1" stop-color="#8D6FC7"/>
        </radialGradient>
        <radialGradient id="paint19_radial_5_2" cx="0" cy="0" r="1" gradientUnits="userSpaceOnUse"
                        gradientTransform="translate(476.973 306.893) scale(2.76462 2.77018)">
            <stop stop-color="#F4BAB3"/>
            <stop offset="1" stop-color="#8D6FC7"/>
        </radialGradient>
        <radialGradient id="paint20_radial_5_2" cx="0" cy="0" r="1" gradientUnits="userSpaceOnUse"
                        gradientTransform="translate(513.787 274.061) scale(2.76463 2.77018)">
            <stop stop-color="#F4BAB3"/>
            <stop offset="1" stop-color="#8D6FC7"/>
        </radialGradient>
        <radialGradient id="paint21_radial_5_2" cx="0" cy="0" r="1" gradientUnits="userSpaceOnUse"
                        gradientTransform="translate(508.151 211.716) scale(2.76462 2.77017)">
            <stop stop-color="#F4BAB3"/>
            <stop offset="1" stop-color="#8D6FC7"/>
        </radialGradient>
        <radialGradient id="paint22_radial_5_2" cx="0" cy="0" r="1" gradientUnits="userSpaceOnUse"
                        gradientTransform="translate(480.484 179.567) scale(2.7644 2.76996)">
            <stop stop-color="#F4BAB3"/>
            <stop offset="1" stop-color="#8D6FC7"/>
        </radialGradient>
        <radialGradient id="paint23_radial_5_2" cx="0" cy="0" r="1" gradientUnits="userSpaceOnUse"
                        gradientTransform="translate(433.895 174.528) scale(2.7644 2.76996)">
            <stop stop-color="#F4BAB3"/>
            <stop offset="1" stop-color="#8D6FC7"/>
        </radialGradient>
        <linearGradient id="paint24_linear_5_2" x1="476.964" y1="598.006" x2="476.964" y2="449.679"
                        gradientUnits="userSpaceOnUse">
            <stop stop-color="#A43411"/>
            <stop offset="1" stop-color="#C73634"/>
        </linearGradient>
        <linearGradient id="paint25_linear_5_2" x1="546.491" y1="232.31" x2="555.265" y2="232.31" gradientUnits="userSpaceOnUse">
            <stop stop-color="#FFFF18"/>
            <stop offset="1" stop-color="#FF7400"/>
        </linearGradient>
        <linearGradient id="paint26_linear_5_2" x1="348.017" y1="229.906" x2="356.257" y2="229.906"
                        gradientUnits="userSpaceOnUse">
            <stop stop-color="#FFFF18"/>
            <stop offset="1" stop-color="#FF7400"/>
        </linearGradient>
        <linearGradient id="paint27_linear_5_2" x1="392.176" y1="453.329" x2="392.176" y2="445.197"
                        gradientUnits="userSpaceOnUse">
            <stop stop-color="#8DC7FF"/>
            <stop offset="0.3156" stop-color="#5C4D86"/>
        </linearGradient>
        <linearGradient id="paint28_linear_5_2" x1="509.04" y1="444.876" x2="509.04" y2="436.744" gradientUnits="userSpaceOnUse">
            <stop stop-color="#8DC7FF"/>
            <stop offset="0.3156" stop-color="#5C4D86"/>
        </linearGradient>
        <linearGradient id="paint29_linear_5_2" x1="453.442" y1="444.238" x2="453.442" y2="436.106"
                        gradientUnits="userSpaceOnUse">
            <stop stop-color="#8DC7FF"/>
            <stop offset="0.3156" stop-color="#5C4D86"/>
        </linearGradient>
        <radialGradient id="paint30_radial_5_2" cx="0" cy="0" r="1" gradientUnits="userSpaceOnUse"
                        gradientTransform="translate(245.338 869.597) scale(699.773 699.075)">
            <stop stop-color="#B840C7"/>
            <stop offset="0.6983" stop-color="#750088"/>
            <stop offset="0.9478" stop-color="#5E1377"/>
            <stop offset="0.9972" stop-color="#8160FF"/>
        </radialGradient>
        <linearGradient id="paint31_linear_5_2" x1="125.955" y1="1113.73" x2="125.955" y2="496" gradientUnits="userSpaceOnUse">
            <stop stop-color="#4F0E6F"/>
            <stop offset="1" stop-color="#450086"/>
        </linearGradient>
        <linearGradient id="paint32_linear_5_2" x1="668.461" y1="1301.46" x2="668.461" y2="620.135"
                        gradientUnits="userSpaceOnUse">
            <stop stop-color="#4F0E6F"/>
            <stop offset="1" stop-color="#450086"/>
        </linearGradient>
        <linearGradient id="paint33_linear_5_2" x1="596.063" y1="697.99" x2="596.063" y2="527.491" gradientUnits="userSpaceOnUse">
            <stop stop-color="#4F0E6F"/>
            <stop offset="1" stop-color="#450086"/>
        </linearGradient>
        <linearGradient id="paint34_linear_5_2" x1="459.894" y1="1056.95" x2="459.894" y2="858.677"
                        gradientUnits="userSpaceOnUse">
            <stop stop-color="#4F0E6F"/>
            <stop offset="1" stop-color="#450086"/>
        </linearGradient>
        <linearGradient id="paint35_linear_5_2" x1="287.892" y1="1115.45" x2="287.892" y2="1061.2" gradientUnits="userSpaceOnUse">
            <stop stop-color="#4F0E6F"/>
            <stop offset="1" stop-color="#450086"/>
        </linearGradient>
        <linearGradient id="paint36_linear_5_2" x1="-44.5789" y1="1215" x2="-44.5789" y2="1166.93" gradientUnits="userSpaceOnUse">
            <stop stop-color="#4F0E6F"/>
            <stop offset="1" stop-color="#450086"/>
        </linearGradient>
        <linearGradient id="paint37_linear_5_2" x1="156.1" y1="109.997" x2="185.026" y2="76.9489" gradientUnits="userSpaceOnUse">
            <stop stop-color="#45CDFF"/>
            <stop offset="1" stop-color="#78DBFF"/>
        </linearGradient>
        <linearGradient id="paint38_linear_5_2" x1="126.223" y1="75.0476" x2="179.164" y2="14.5641"
                        gradientUnits="userSpaceOnUse">
            <stop stop-color="#41CBC5"/>
            <stop offset="1" stop-color="#48D5CF"/>
        </linearGradient>
        <clipPath id="clip0_5_2">
            <rect width="230" height="515" fill="white" transform="translate(339 83)"/>
        </clipPath>
        <clipPath id="clip1_5_2">
            <rect width="1077.21" height="1106.32" fill="white" transform="translate(-155 496)"/>
        </clipPath>
        <clipPath id="clip2_5_2">
            <rect width="128" height="128" fill="white" transform="translate(163.304) rotate(41.1951)"/>
        </clipPath>
    </defs>
</svg>