<svg width="27" height="24" viewBox="0 0 27 24" fill="none" xmlns="http://www.w3.org/2000/svg">
<path d="M25.184 6.13188C25.35 5.5665 25.184 5.15039 24.3851 5.15039H21.7418C21.0686 5.15039 20.7589 5.50771 20.5928 5.90573C20.5928 5.90573 19.2465 9.21203 17.3436 11.3559C16.7287 11.9756 16.446 12.1746 16.1094 12.1746C15.9434 12.1746 15.6875 11.9756 15.6875 11.4102V6.13188C15.6875 5.45343 15.4991 5.15039 14.9426 5.15039H10.7867C10.3649 5.15039 10.1136 5.467 10.1136 5.76099C10.1136 6.40326 11.065 6.55252 11.1637 8.36171V12.2877C11.1637 13.147 11.0111 13.3053 10.6745 13.3053C9.77696 13.3053 7.59583 9.98546 6.3033 6.18615C6.043 5.44891 5.78719 5.15039 5.10952 5.15039H2.46613C1.71216 5.15039 1.55957 5.50771 1.55957 5.90573C1.55957 6.61131 2.45715 10.1166 5.73783 14.7482C7.92344 17.9097 11.0022 19.6239 13.8026 19.6239C15.4856 19.6239 15.692 19.244 15.692 18.5882C15.692 15.5668 15.5394 15.2819 16.3832 15.2819C16.7736 15.2819 17.4468 15.4809 19.0176 17.0051C20.8128 18.8143 21.109 19.6239 22.1143 19.6239H24.7576C25.5116 19.6239 25.8931 19.244 25.6732 18.4932C25.1705 16.9147 21.7732 13.6672 21.6206 13.4501C21.2301 12.9435 21.3423 12.7173 21.6206 12.265C21.6251 12.2605 24.8519 7.68326 25.184 6.13188Z" fill="#FF640B"/>
<path d="M25.184 6.13188C25.35 5.5665 25.184 5.15039 24.3851 5.15039H21.7418C21.0686 5.15039 20.7589 5.50771 20.5928 5.90573C20.5928 5.90573 19.2465 9.21203 17.3436 11.3559C16.7287 11.9756 16.446 12.1746 16.1094 12.1746C15.9434 12.1746 15.6875 11.9756 15.6875 11.4102V6.13188C15.6875 5.45343 15.4991 5.15039 14.9426 5.15039H10.7867C10.3649 5.15039 10.1136 5.467 10.1136 5.76099C10.1136 6.40326 11.065 6.55252 11.1637 8.36171V12.2877C11.1637 13.147 11.0111 13.3053 10.6745 13.3053C9.77696 13.3053 7.59583 9.98546 6.3033 6.18615C6.043 5.44891 5.78719 5.15039 5.10952 5.15039H2.46613C1.71216 5.15039 1.55957 5.50771 1.55957 5.90573C1.55957 6.61131 2.45715 10.1166 5.73783 14.7482C7.92344 17.9097 11.0022 19.6239 13.8026 19.6239C15.4856 19.6239 15.692 19.244 15.692 18.5882C15.692 15.5668 15.5394 15.2819 16.3832 15.2819C16.7736 15.2819 17.4468 15.4809 19.0176 17.0051C20.8128 18.8143 21.109 19.6239 22.1143 19.6239H24.7576C25.5116 19.6239 25.8931 19.244 25.6732 18.4932C25.1705 16.9147 21.7732 13.6672 21.6206 13.4501C21.2301 12.9435 21.3423 12.7173 21.6206 12.265C21.6251 12.2605 24.8519 7.68326 25.184 6.13188Z" fill="url(#paint0_linear_1_1021)"/>
<defs>
<linearGradient id="paint0_linear_1_1021" x1="13.3603" y1="4.06647" x2="13.3603" y2="21.3667" gradientUnits="userSpaceOnUse">
<stop stop-color="#FF9649"/>
<stop offset="1" stop-color="#FF5C00"/>
</linearGradient>
</defs>
</svg>
