<svg width="1920" height="1120" viewBox="0 0 1920 1120" fill="none" xmlns="http://www.w3.org/2000/svg">
<g clip-path="url(#clip0_65_20)">
<path d="M2062.6 -159C2037.97 -117.838 2035.47 -68.6929 2057.64 -30.0622C1981.97 -24.5637 1911.16 33.7206 1902.8 97.4013C1846.63 96.6941 1799.31 148.664 1797.38 196.103C1795.46 243.542 1826.4 284.779 1861.24 319.29C1790.47 295.648 1700.64 309.15 1636.83 353.006C1573.02 396.862 1537.96 469.122 1549.17 533.609C1506.43 506.723 1431.07 526.01 1406.6 570.062C1376.02 534.3 1296.01 543.413 1269.29 585.582C1262.06 521.865 1162.98 507.495 1085.87 516.181C1026.41 522.833 963.86 535.912 917.963 571.221C872.066 606.531 851.737 669.961 888.752 706.078C817.986 703.525 757.429 785.627 794.652 833.799C794.397 833.668 794.164 833.628 793.804 833.522C755.249 821.707 714.928 854.363 723.783 890.048L730.584 917.456C791.906 1164.58 1047 1215.52 1328.77 1145.6L2324.99 898.397L2062.6 -159V-159Z" fill="white"/>
<path d="M2094.75 0.105415C2090.74 22.8172 2098.15 44.5948 2114.91 56.9256C2081.57 74.3206 2059.61 113.61 2066.89 142.844C2041.31 153.682 2028.89 185.578 2036.26 206.502C2043.64 227.426 2064.83 239.145 2086.61 247.178C2050.43 250.981 2012.07 274.651 1990.77 306.304C1969.47 337.957 1966.14 376.204 1982.43 401.905C1958.39 398.742 1927.58 422.048 1924.15 445.979C1904.07 436.561 1869.4 456.381 1864.62 479.943C1850.26 453.787 1802.86 467.223 1769.43 486.283C1743.63 500.962 1717.56 519.036 1702.89 543.433C1688.23 567.83 1690.04 599.331 1713.09 607.627C1680.58 620.563 1667.4 668.132 1692.65 681.607C1692.51 681.6 1692.39 681.629 1692.21 681.655C1672.69 684.188 1660.09 706.33 1670.3 720.026L1678.15 730.545C1748.89 825.394 1873.36 796.835 1988.91 710.65L2397.44 405.94L2094.75 0.105415V0.105415Z" fill="#232760"/>
<path d="M2131 759.227C2122.3 753.125 2112.28 748.12 2101.02 744.555C1995.3 711.304 1854.41 758.061 1829.25 834.779C1713.51 794.329 1553.04 842.321 1520.32 927.128C1452.71 863.025 1292.33 860.009 1221.89 921.506C1217.44 895.728 1187.28 872.624 1150.11 866.522C1112.86 860.42 1071.16 871.664 1050.64 893.329C1060.47 857.266 1011.11 819.079 957.115 820.999C933.758 774.173 876.548 735.574 807.519 719.942C738.489 704.38 659.341 712.195 600.524 740.442C584.354 720.148 548.515 707.876 515.135 711.167C481.755 714.458 453.197 733.174 447.05 755.73C448.28 717.131 369.51 689.845 324.972 713.498C333.009 674.831 293.105 636.3 241.096 619.092C189.087 601.884 128.095 602.501 71.7363 610.179C83.651 562.942 59.2542 511.865 8.5693 477.929C-42.1156 444.06 -117.765 428.292 -186.984 437.205C-139.325 406.284 -130.909 351.231 -168.071 313.592C-205.234 275.953 -283.625 260.116 -344.145 277.942C-362.773 213.428 -466.602 176.337 -564 180.382V1121.08H2131V759.227Z" fill="#232760"/>
</g>
<defs>
<clipPath id="clip0_65_20">
<rect width="1920" height="1120" fill="white"/>
</clipPath>
</defs>
</svg>
