<svg width="395" height="596" viewBox="0 0 395 596" fill="none" xmlns="http://www.w3.org/2000/svg">
<ellipse cx="299.483" cy="295.766" rx="244.363" ry="240.722" transform="rotate(15 299.483 295.766)" fill="#F28F2B"/>
<path d="M338.76 58.3581L339.342 58.4602L339.269 58.2616L338.76 58.3581Z" fill="#FFDF00"/>
<path d="M205.32 524.215L205.153 524.17L205.21 524.292L205.32 524.215Z" fill="#FFDF00"/>
<path d="M83.0737 388.65C83.7882 390.328 84.5315 392.032 85.2916 393.739L84.5526 392.019L83.0737 388.65Z" fill="#F59C44"/>
<path d="M88.3247 400.333C88.0568 399.795 87.8055 399.262 87.5588 398.713C88.1623 400.003 88.661 401.283 89.3692 402.583L89.2514 402.354L88.3247 400.333Z" fill="#F59C44"/>
<path d="M82.0515 386.117C82.2693 386.641 82.4613 387.194 82.6623 387.714L82.2814 386.662L82.0515 386.117Z" fill="#F59C44"/>
<path d="M75.4781 367.542L74.7688 365.311C75.479 367.739 76.236 370.127 77.0476 372.511L76.3927 370.545C76.1243 369.542 75.7844 368.537 75.4781 367.542Z" fill="#F59C44"/>
<path d="M77.3259 373.283C77.7644 374.654 78.2163 375.975 78.7028 377.234L78.1921 375.664L77.3259 373.283Z" fill="#F59C44"/>
<path d="M71.0133 350.929L70.7629 349.859C71.2971 352.277 71.8736 354.67 72.4123 357.07C72.1128 355.916 71.8757 354.796 71.5428 353.632C71.2099 352.468 71.2161 351.843 71.0133 350.929Z" fill="#F59C44"/>
<path d="M116.387 444.904L117.45 446.282L116.814 445.449C116.711 445.296 116.535 445.087 116.387 444.904Z" fill="#F59C44"/>
<path d="M220.612 519.213L221.602 519.532L221.009 519.337L220.612 519.213Z" fill="#F59C44"/>
<path d="M106.11 431.062L106.844 432.138L106.619 431.772L106.11 431.062Z" fill="#F59C44"/>
<path d="M107.339 432.828C108.264 434.186 109.207 435.478 110.163 436.79L108.425 434.319L107.339 432.828Z" fill="#F59C44"/>
<path d="M101.908 424.691L101.645 424.334C103.019 426.493 104.409 428.656 105.839 430.669C105.004 429.442 104.178 428.182 103.373 426.91L101.908 424.691Z" fill="#F59C44"/>
<path d="M216.632 517.752L219.381 518.721L218.064 518.225L216.632 517.752Z" fill="#F59C44"/>
<path d="M112.45 160.461C113.562 159.804 114.829 159.453 116.121 159.444C117.413 159.434 118.684 159.768 119.806 160.409L120.544 161.198C122.775 165.234 116.507 173.923 116.685 178.537C117.101 181.482 117.874 184.365 118.987 187.123C119.864 186.39 120.783 185.634 121.731 184.903C124.658 182.733 127.859 180.278 131.278 177.809C133.592 172.563 137.279 168.038 141.95 164.713C149.99 158.701 160.946 149.961 171.067 148.411C187.407 145.841 192.51 174.715 211.597 164.231C221.519 158.814 233.773 155.453 245.266 157.136C252.142 158.209 273.683 162.96 275.797 152.262C267.952 149.462 259.538 145.309 259.205 135.926C258.955 128.302 264.774 122.358 257.815 116.249C252.799 111.915 238.117 110.971 238.668 102.165C239.218 93.3587 254.518 89.7936 262.138 88.7554C269.537 81.1931 286.23 78.0376 293.694 77.3156C324.474 74.3886 356.176 82.9191 373.471 110.135C404.272 158.59 370.825 235.029 298.792 280.84C284.092 290.201 268.354 297.823 251.895 303.552C257.595 307.407 263.336 311.578 269.697 313.838C276.901 316.359 284.695 314.937 292.111 314.328C289.883 308.659 288.923 302.57 289.298 296.49C290.823 277.433 311.992 289.32 322.144 291.664C328.881 293.254 335.759 293.718 341.291 290.114C345.21 287.583 347.472 282.817 350.588 278.942C355.49 272.878 364.751 275.341 371.795 276.853C377.985 278.279 386.254 281.372 390.222 274.914C392.759 270.794 393.819 257.146 400.708 265.188C407.2 272.837 404.354 282.658 403.798 290.478L403.778 290.956C441.598 244.597 460.262 185.532 455.948 125.859C431.553 103.661 402.732 86.8826 371.384 76.6288C340.035 66.3751 306.869 62.8788 274.072 66.37C241.274 69.8612 209.588 80.2609 181.1 96.884C152.612 113.507 127.969 135.977 108.794 162.813L109.981 162.791C110.663 161.877 111.498 161.089 112.45 160.461ZM382.291 106.624C385.714 103.208 391.327 102.975 396.607 102.921C398.917 101.981 401.477 101.84 403.876 102.523C401.464 102.809 399.036 102.942 396.607 102.921C395.295 103.404 394.031 104.006 392.829 104.72C399.651 104.525 406.049 101.099 412.789 104.947C419.53 108.795 423.946 114.705 427.566 120.976C431.538 127.807 436.98 132.023 442.018 138.082C447.056 144.142 441.454 148.676 438.805 153.481C435.259 160.034 438.111 165.831 439.456 173.175C442.94 191.783 402.305 181.235 395.27 166.188C391.014 157.008 395.907 149.777 397.861 141.812C399.468 135.08 395.316 131.263 388.131 125.13C382.962 120.629 375.988 112.904 382.291 106.624Z" fill="#F59C44"/>
<path d="M332.623 349.394C330.233 347.537 327.741 345.817 325.157 344.242L323.611 343.327C322.669 343.882 321.696 344.387 320.699 344.838C316.796 346.64 314.298 346.006 310.172 345.832C308.702 345.726 307.225 345.85 305.794 346.199L303.428 347.141C302.379 347.696 301.36 348.308 300.376 348.973C296.784 351.288 295.037 351.124 290.849 349.644C288.038 348.64 284.541 345.25 281.506 345.35C278.47 345.45 274.599 348.871 271.41 349.611C265.443 351.139 259.142 350.706 253.439 348.377C249.662 347.257 245.815 346.387 241.924 345.775C239.01 354.843 227.566 355.985 219.657 358.701C210.555 361.795 197.877 373.154 190.583 363.285C175.871 343.405 155.077 335.398 130.964 337.371C112.007 338.882 96.6933 337.554 92.5816 316.342C90.8032 307.073 90.4291 297.643 88.3007 288.477C86.394 280.355 82.8432 272.689 80.758 264.698C79.3513 258.782 79.439 252.608 81.013 246.733C82.587 240.859 85.598 235.469 89.7745 231.048L89.8103 230.915C89.202 227.17 88.0624 224.071 88.3333 220.186C88.6962 215.824 90.664 212.09 91.8333 207.926C92.7734 204.417 92.329 201.666 92.3511 198.108C92.3693 190.287 98.2212 182.884 100.509 175.349C74.3142 217.494 62.1359 266.851 65.7199 316.343C101.384 348.671 146.158 369.202 193.926 375.133C241.695 381.064 290.13 372.106 332.617 349.482L332.623 349.394Z" fill="#F59C44"/>
<path d="M119.075 448.239L118.98 448.124L117.989 446.945C118.721 447.822 119.427 448.728 120.173 449.554L119.223 448.422L119.075 448.239Z" fill="#F59C44"/>
<path d="M182.058 501.428L182.785 501.856L182.295 501.545L182.058 501.428Z" fill="#F59C44"/>
<path d="M188.271 504.904L190.114 505.846L189.345 505.443L188.271 504.904Z" fill="#F59C44"/>
<path d="M175.333 497.395L175.48 497.505L175.444 497.442L175.333 497.395Z" fill="#F59C44"/>
<path d="M171.59 495.049L174.804 497.092L172.807 495.787L171.59 495.049Z" fill="#F59C44"/>
<path d="M179.425 499.956L178.635 499.494L180.766 500.764L180.094 500.333L179.425 499.956Z" fill="#F59C44"/>
<path d="M177.084 498.471L178.16 499.135L177.488 498.704L177.084 498.471Z" fill="#F59C44"/>
<path d="M203.553 512.367L205.485 513.243L204.353 512.725L203.553 512.367Z" fill="#F59C44"/>
<path d="M191.749 506.697L192.935 507.283L192.734 507.23L191.749 506.697Z" fill="#F59C44"/>
<path d="M209.285 514.834L211.048 515.539L210.319 515.254L209.285 514.834Z" fill="#F59C44"/>
<path d="M207.001 513.863L207.672 514.168L207.327 513.986L207.001 513.863Z" fill="#F59C44"/>
<path d="M198.691 510.133L200.918 511.177L199.948 510.72L198.691 510.133Z" fill="#F59C44"/>
<path d="M195.454 508.566L197.289 509.47L196.561 509.114L195.454 508.566Z" fill="#F59C44"/>
<path d="M183.579 502.303L185.682 503.475L185.063 503.112L183.579 502.303Z" fill="#F59C44"/>
<path d="M212.469 516.115L212.727 516.22L212.603 516.151L212.469 516.115Z" fill="#F59C44"/>
<path d="M132.164 462.811C132.931 463.554 133.703 464.351 134.504 465.103L133.53 464.126L132.164 462.811Z" fill="#F59C44"/>
<path d="M169.28 493.514L170.318 494.186L170.123 494.044L169.28 493.514Z" fill="#F59C44"/>
<path d="M129.616 460.158L131.117 461.707L130.425 460.948L129.616 460.158Z" fill="#F59C44"/>
<path d="M126.005 456.256L129.31 459.828L128.054 458.434C127.387 457.718 126.664 457.005 126.005 456.256Z" fill="#F59C44"/>
<path d="M121.122 450.682C121.833 451.571 122.574 452.414 123.32 453.24L122.299 452.036L121.122 450.682Z" fill="#F59C44"/>
<path d="M123.901 453.887L124.247 454.265L124.177 454.193L123.901 453.887Z" fill="#F59C44"/>
<path d="M124.302 454.328L125.866 456.108L124.607 454.661L124.302 454.328Z" fill="#F59C44"/>
<path d="M214.496 516.912L215.855 517.455L214.855 517.044L214.496 516.912Z" fill="#F59C44"/>
<path d="M156.643 484.467C158.309 485.737 159.979 486.99 161.691 488.219C160.195 487.12 158.707 485.987 157.225 484.837L156.643 484.467Z" fill="#F59C44"/>
<path d="M150.631 479.705C152.307 481.068 153.993 482.397 155.682 483.78C154.423 482.798 153.227 481.78 151.981 480.747L150.631 479.705Z" fill="#F59C44"/>
<path d="M165.397 490.825L163.672 489.646C165.011 490.596 166.371 491.534 167.718 492.522L166.723 491.825L165.397 490.825Z" fill="#F59C44"/>
<path d="M140.509 470.834C141.322 471.607 142.14 472.363 142.98 473.108L142.781 472.911C142 472.218 141.252 471.535 140.509 470.834Z" fill="#F59C44"/>
<path d="M146.23 475.947L144.572 474.518L143.989 474.021L148.48 477.911L147.616 477.125L146.23 475.947Z" fill="#F59C44"/>
<path d="M136.299 466.895L136.77 467.344L136.49 467.053L136.299 466.895Z" fill="#F59C44"/>
<path d="M73.0908 359.272L72.6282 357.59C73.2899 360.155 73.9883 362.694 74.7237 365.207L73.8896 362.172C73.6122 361.202 73.356 360.22 73.0908 359.272Z" fill="#F59C44"/>
<path d="M162.83 161.838C185.871 158.252 193.136 199.04 220.129 184.247C234.151 176.561 251.501 171.826 267.71 174.289C277.386 175.736 307.882 182.421 310.87 167.391C299.781 163.399 287.867 157.539 287.41 144.272C287.056 133.433 295.273 125.087 285.44 116.471C278.374 110.298 257.588 109.008 258.386 96.4719C258.646 93.5435 259.976 90.8139 262.124 88.8061C254.534 89.7987 239.204 93.4094 238.653 102.216C238.102 111.022 252.776 111.999 257.801 116.3C264.76 122.409 258.941 128.353 259.19 135.977C259.523 145.36 267.938 149.512 275.783 152.313C273.682 162.96 252.094 158.25 245.252 157.187C233.767 155.471 221.53 158.835 211.583 164.282C192.479 174.761 187.376 145.887 171.053 148.462C160.931 150.012 149.976 158.752 141.936 164.764C137.265 168.089 133.578 172.613 131.264 177.86C140.939 170.692 152.2 163.485 162.83 161.838Z" fill="#F0801D"/>
<path d="M117.959 201.175C118.193 206.986 122.888 208.244 126.531 211.889C133.709 219.184 127.888 229.282 138.214 234.717C143.81 237.456 148.276 242.059 150.843 247.736C152.582 251.335 153.917 257.047 157.371 259.531C162.159 262.98 168.394 260.694 172.93 264.685C177.466 268.676 179.549 274.803 183.306 279.427C187.447 284.423 195.239 287.155 201.234 289.442C207.905 291.946 213.27 291.306 219.985 291.709C229.188 292.348 238.12 295.096 246.09 299.742C247.996 300.915 249.88 302.172 251.767 303.484C268.226 297.754 283.964 290.133 298.664 280.772C370.697 234.961 404.121 158.605 373.343 110.066C356.049 82.8509 324.346 74.3203 293.566 77.2473C286.102 77.9693 269.476 81.1427 262.01 88.6871C259.863 90.6949 258.532 93.4245 258.273 96.3529C257.488 108.839 278.26 110.179 285.327 116.352C295.159 124.968 286.933 133.347 287.297 144.153C287.753 157.42 299.667 163.28 310.757 167.273C307.768 182.302 277.272 175.617 267.596 174.17C251.409 171.624 234.037 176.442 220.015 184.128C193.022 198.922 185.791 158.142 162.717 161.719C152.086 163.366 140.825 170.573 131.097 177.673C127.678 180.141 124.41 182.579 121.55 184.767C120.602 185.498 119.683 186.254 118.806 186.986C119.14 188.001 119.37 189.046 119.492 190.107C120.006 194.202 117.769 197.274 117.959 201.175Z" fill="#F8B162"/>
<path d="M156.602 484.42L156.644 484.467L157.142 484.815L156.602 484.42Z" fill="#F0801D"/>
<path d="M85.2747 393.734L85.4035 394.055C85.4063 394.091 85.3968 394.126 85.3767 394.155L84.469 391.996L85.2747 393.734Z" fill="#F0801D"/>
<path d="M185.062 503.115L185.681 503.478L186.882 504.14L185.714 503.487L185.062 503.115Z" fill="#F0801D"/>
<path d="M78.6836 377.3L78.7924 377.562L79.1135 378.436L78.1729 375.73L78.6836 377.3Z" fill="#F0801D"/>
<path d="M128.962 374.706L130.562 376.156C128.189 372.109 126.136 367.883 124.422 363.515C130.333 369.057 135.894 372.964 139.282 379.298C142.671 385.632 148.074 388.19 155.302 390.754C164.454 393.958 171.224 399.837 178.081 405.99C184.591 411.835 188.2 411.334 197.056 412.633C206.77 414.072 215.775 416.287 224.093 421.202C232.41 426.117 240.576 432.263 250.507 434.297C259 436.017 268.053 435.649 276.656 435.555C281.794 428.676 285.536 420.725 291.595 414.487C300.147 405.694 311.419 401.587 323.184 399.117C341.187 395.417 365.748 397.986 376.283 379.857L377.997 376.735C385.478 367.995 403.773 354.99 413.796 366.969C418.274 372.378 418.023 379.867 418.907 386.658C430.381 375.646 440.695 363.486 449.69 350.37C437.149 354.8 422.017 352.464 412.825 342.122C398.165 325.659 423.209 305.508 432.459 293.374C438.566 285.286 443.942 276.251 444.929 265.95C445.633 258.51 443.315 251.925 442.366 244.705C440.828 233.405 449.55 222.508 455.947 214.069C461.528 206.611 470.092 197.57 467.598 187.231C466.018 180.63 455.47 168.868 467.089 165.606C476.086 163.038 481.791 170.083 486.9 176.412C485.444 168.522 483.593 160.711 481.353 153.007C484.356 156.766 487.224 160.633 489.97 164.556C489.293 163.605 488.702 162.605 487.992 161.644L487.225 160.562C485.818 158.662 484.415 156.746 482.948 154.938L482.862 154.79C481.314 152.817 479.73 150.907 478.118 148.971L477.497 148.213C476.149 146.562 474.617 144.863 473.155 143.235L472.5 142.469C469.178 138.785 465.743 135.208 462.196 131.739L461.329 130.898C459.624 129.241 457.77 127.67 456.002 126.05C460.316 185.723 441.651 244.788 403.831 291.147C403.357 299.597 406.49 314.638 398.686 314.158C382.581 313.245 372.057 323.516 366.649 341.962C362.39 356.454 357.397 366.667 343.334 357.329C339.737 354.915 336.226 352.112 332.692 349.464C290.204 372.088 241.769 381.046 194.001 375.115C146.232 369.183 101.459 348.652 65.7945 316.325C66.2264 322.332 66.9278 328.268 67.8265 334.204L67.8042 334.287C68.1978 336.828 68.7353 339.3 69.2047 341.825L71.5129 345.041C79.4224 361.947 89.2944 377.863 100.925 392.461C123.494 412.7 149.8 428.332 178.365 438.479C177.608 437.842 176.895 437.154 176.231 436.421C173.34 433.175 172.15 430.063 167.724 428.071C162.926 425.926 161.376 427.301 158.321 423.062C156.115 420 156.065 416.512 154.579 413.303L153.842 411.977L153.764 411.867L153.478 411.396L152.79 410.424C151.096 408.322 148.999 406.793 147.001 404.36C139.429 395.512 133.338 385.498 128.962 374.706Z" fill="#F0801D"/>
<path d="M163.15 489.256L163.689 489.651L165.415 490.83C164.677 490.31 163.88 489.809 163.15 489.256Z" fill="#F0801D"/>
<path d="M203.979 512.516L202.699 512.012L203.553 512.366L204.353 512.724L203.979 512.516Z" fill="#F0801D"/>
<path d="M148.478 477.913L148.743 478.128L147.615 477.127L148.478 477.913Z" fill="#F0801D"/>
<path d="M123.528 453.407L122.301 452.039L123.321 453.244L123.902 453.883L124.178 454.189L123.528 453.407Z" fill="#F0801D"/>
<path d="M172.381 495.511C171.625 495.058 170.853 494.529 170.123 494.047L170.318 494.189L171.591 495.049L172.808 495.787L172.381 495.511Z" fill="#F0801D"/>
<path d="M178.902 499.564L177.486 498.701L178.159 499.132L178.653 499.426L179.442 499.888L178.902 499.564Z" fill="#F0801D"/>
<path d="M219.528 518.775L220.612 519.209L221.008 519.333L219.528 518.775Z" fill="#F0801D"/>
<path d="M134.934 465.508L134.591 465.184L135.384 465.969L136.3 466.895L136.49 467.053L134.934 465.508Z" fill="#F0801D"/>
<path d="M129.505 459.967L128.363 458.747L128.054 458.432L129.31 459.825L129.615 460.157L130.424 460.947L129.505 459.967Z" fill="#F0801D"/>
<path d="M106.616 431.775L106.841 432.14L107.337 432.828L108.424 434.319L106.616 431.775Z" fill="#F0801D"/>
<path d="M211.603 515.739L210.319 515.252L211.048 515.537L212.469 516.115L212.603 516.15L211.603 515.739Z" fill="#F0801D"/>
<path d="M116.814 445.447L117.45 446.28L117.989 446.944L118.98 448.123C118.253 447.229 117.52 446.353 116.814 445.447Z" fill="#F0801D"/>
<path d="M185.729 503.438L186.897 504.091L187.264 504.189L187.448 504.238L188.316 504.74L189.39 505.278L185.729 503.438Z" fill="#EC621F"/>
<path d="M180.112 500.264L180.785 500.695L182.056 501.429L182.307 501.497C181.572 501.121 180.84 500.709 180.112 500.264Z" fill="#EC621F"/>
<path d="M192.766 507.115L192.966 507.169C193.465 507.446 193.952 507.702 194.543 507.967L194.76 508.026L195.572 508.404L196.683 508.935C195.281 508.488 194.004 507.841 192.766 507.115Z" fill="#EC621F"/>
<path d="M172.38 495.508L172.807 495.784L174.804 497.088L175.331 497.391L175.448 497.423L172.38 495.508Z" fill="#EC621F"/>
<path d="M231.52 522.746C233.809 523.359 236.079 524.11 238.384 524.728C235.878 524.057 233.372 523.385 230.939 522.572L231.52 522.746Z" fill="#EC621F"/>
<path d="M214.854 517.043L215.871 517.459L216.656 517.669L218.087 518.142L214.854 517.043Z" fill="#EC621F"/>
<path d="M224.542 520.515L226.046 520.918L222.758 519.822L224.542 520.515Z" fill="#EC621F"/>
<path d="M207.522 467.283C208.472 463.617 210.401 460.277 213.101 457.621C210.863 457.63 208.627 457.492 206.407 457.207C200.982 456.201 198.989 455.219 196.336 451.285C193.683 447.351 192.515 445.498 187.34 443.09C184.19 441.902 181.202 440.325 178.444 438.396C149.879 428.249 123.572 412.617 101.004 392.379C128.652 426.981 165.607 452.968 207.522 467.283Z" fill="#EC621F"/>
<path d="M211.603 515.743C210.173 515.198 208.723 514.595 207.328 513.988L207.695 514.087L209.308 514.752L210.341 515.172L211.603 515.743Z" fill="#EC621F"/>
<path d="M133.53 464.125L134.504 465.102L134.604 465.129L134.947 465.454L133.53 464.125Z" fill="#EC621F"/>
<path d="M199.945 510.719L200.915 511.176L202.696 512.011L203.976 512.515C202.705 511.978 201.286 511.329 199.945 510.719Z" fill="#EC621F"/>
<path d="M320.246 514.411C307.032 514.004 295.583 507.677 283.021 504.436C271.693 501.401 261.965 503.217 250.905 506.468C241.177 509.359 230.689 512.744 221.289 506.859C210.374 499.941 203.59 480.95 207.396 467.214C165.481 452.899 128.526 426.912 100.878 392.31C89.2472 377.712 79.3752 361.795 71.4656 344.889L69.1575 341.674C69.6314 344.183 70.0083 346.719 70.558 349.212L70.7078 349.79L70.9582 350.859C71.1565 351.79 71.3626 352.759 71.6045 353.593C71.8464 354.428 72.1244 355.864 72.474 357.032L72.6205 357.555L73.0832 359.236C73.3483 360.185 73.6045 361.167 73.8819 362.137L74.7162 365.172L75.4255 367.403C75.7319 368.399 76.0471 369.361 76.4248 370.357L77.0797 372.323L77.3562 373.096L78.2047 375.544L79.1451 378.249C80.1002 380.833 81.0796 383.394 82.0831 385.931L82.313 386.476L82.694 387.527L83.1062 388.461L84.5686 391.826L85.4763 393.985C86.1642 395.495 86.8944 396.979 87.6035 398.477C87.8502 399.026 88.1014 399.559 88.3693 400.097L89.2916 402.135L89.4094 402.363L89.8563 403.235C90.9624 405.322 92.0418 407.509 93.1769 409.622L93.3515 409.974C94.5477 412.192 95.8397 414.455 97.1329 416.646L97.5944 417.396L97.7122 417.625C98.8464 419.54 99.9941 421.406 101.171 423.297L101.669 424.111L101.931 424.468L103.405 426.653C104.21 427.925 105.037 429.186 105.872 430.412L106.142 430.807L106.65 431.516L108.458 434.06L110.196 436.531L110.95 437.593C112.71 439.981 114.554 442.319 116.42 444.646C116.568 444.829 116.695 445.024 116.847 445.19C117.554 446.096 118.286 446.972 119.013 447.866L119.108 447.98L119.256 448.163L120.206 449.295L121.156 450.428L122.334 451.782L123.561 453.149L124.211 453.932L124.516 454.264L125.775 455.712L125.915 455.857C126.574 456.607 127.313 457.324 127.964 458.036L128.273 458.352L129.415 459.571L130.339 460.534L131.026 461.31L132.074 462.414L133.507 463.747L134.927 465.131L136.483 466.676L136.763 466.966L137.527 467.725C138.497 468.648 139.51 469.546 140.502 470.457C141.246 471.157 141.927 471.823 142.775 472.534L142.973 472.73L143.981 473.645L144.564 474.142L146.223 475.571L147.692 476.771L148.821 477.771L150.021 478.773L150.712 479.335L152.062 480.377C153.308 481.409 154.503 482.428 155.763 483.41L156.575 483.986L156.692 484.017L157.231 484.412C158.714 485.562 160.201 486.694 161.697 487.794L163.207 488.843C163.953 489.401 164.716 489.892 165.471 490.417L166.815 491.35L167.81 492.046L169.32 493.095L170.163 493.625C170.91 494.112 171.681 494.641 172.421 495.09L175.48 497.038L177.017 497.987L177.42 498.22L178.836 499.083L179.376 499.407L180.045 499.784C180.762 500.226 181.489 500.654 182.227 501.066L182.7 501.372L183.51 501.822L185.078 502.654L185.731 503.026L189.361 504.983L190.13 505.387L191.698 506.219L192.697 506.701C193.953 507.36 195.23 508.007 196.516 508.62L197.24 508.993L198.639 509.654L199.896 510.242C201.237 510.852 202.573 511.478 203.927 512.038L204.302 512.246L205.434 512.764L207.051 513.413L207.368 513.498C208.764 514.104 210.214 514.708 211.644 515.252L212.644 515.663L212.778 515.699L214.545 516.388L214.913 516.486L218.174 517.682L219.491 518.179L219.642 518.219L221.122 518.777L221.723 518.938L222.843 519.238L226.13 520.334L228.56 521.092L229.094 521.235L231.06 521.852C233.55 522.519 236.032 523.345 238.505 524.008C268.497 532.077 299.799 534.069 330.571 529.866C361.343 525.662 390.964 515.348 417.693 499.531C415.765 499.372 414.032 499.159 413.057 498.987C410.696 498.641 407.193 496.413 405.234 496.64C402.947 496.887 401.016 500.417 398.702 501.301C394.833 502.439 390.747 502.628 386.789 501.852C383.488 501.272 378.856 498.508 375.628 498.861C372.4 499.214 371.816 501.994 368.891 502.553C365.649 502.849 362.391 502.224 359.489 500.75C347.533 508.811 334.658 514.959 320.246 514.411Z" fill="#E6361E"/>
<path d="M459.356 345.245C465.928 340.166 471.455 333.839 478.094 328.777C485.658 323.139 494.185 319.049 501.946 313.679C504.432 312.032 506.692 310.067 508.669 307.834C514.068 301.652 514.903 294.928 513.275 287.705C511.623 281.542 509.169 275.622 505.977 270.098C494.55 248.717 493.606 226.509 505.954 205.087C512.107 194.487 496.627 187.367 490.176 180.23C489.047 179.032 487.929 177.658 486.791 176.225C481.682 169.896 476.043 162.869 466.979 165.419C455.343 168.748 465.89 180.51 467.488 187.044C469.983 197.383 461.453 206.361 455.838 213.882C449.524 222.344 440.802 233.24 442.257 244.518C443.222 251.743 445.524 258.323 444.82 265.763C443.849 276.068 438.457 285.099 432.35 293.186C423.086 305.371 398.065 325.438 412.716 341.935C421.907 352.277 437.04 354.613 449.58 350.183C453.088 349.086 456.391 347.418 459.356 345.245ZM430.458 342.086C426.435 341.069 422.803 338.887 420.015 335.814C414.84 329.933 420.21 321.719 432.924 307.684C435.517 304.69 438.057 301.897 440.145 299.251C445.68 291.959 453.251 280.611 454.536 266.862C454.879 261.043 454.355 255.205 452.981 249.54C452.576 247.444 452.177 245.457 451.921 243.472C451.074 237.21 457.384 228.497 463.442 220.056C469.838 211.222 477.706 200.24 478.597 188.624C479.75 189.47 480.852 190.303 481.892 191.298C487.289 195.752 493.908 203.865 489.443 222.331C484.237 243.965 488.26 257.489 497.522 274.852C507.617 293.781 506.05 299.432 496.545 305.964C493.378 308.16 490.06 310.118 486.504 312.228C481.637 314.972 476.926 317.984 472.393 321.251C468.665 324.144 465.093 327.234 461.693 330.507C458.901 333.108 456.262 335.606 453.452 337.736C450.186 340.13 446.426 341.763 442.448 342.515C438.469 343.268 434.372 343.122 430.458 342.086Z" fill="#EC621F"/>
<path d="M400.702 265.276C393.822 257.2 392.762 270.848 390.216 275.001C386.231 281.455 377.962 278.362 371.789 276.941C364.744 275.429 355.484 272.965 350.582 279.03C347.466 282.905 345.222 287.604 341.285 290.202C335.753 293.806 328.875 293.342 322.138 291.751C312.019 289.416 290.867 277.534 289.292 296.578C288.917 302.658 289.877 308.746 292.105 314.416L293.534 314.297C295.227 314.178 296.926 314.179 298.619 314.299C298.102 313.199 297.644 312.072 297.249 310.923C295.963 307.347 295.422 303.545 295.658 299.752C296.199 293.056 302.708 293.959 315.307 298.266C317.729 299.139 320.194 299.889 322.692 300.513C328.81 301.938 337.784 303.268 345.099 298.423C348.266 296.089 350.944 293.156 352.981 289.791C353.828 288.567 354.633 287.368 355.486 286.325C358.182 282.947 365.324 284.359 372.199 285.771C379.472 287.165 388.391 288.964 394.523 284.59C394.627 285.895 394.698 287.168 394.736 288.408C394.945 294.713 393.939 303.613 382.824 307.869C379.128 309.21 375.715 311.229 372.759 313.821C377.136 311.252 381.856 310.278 387.241 308.426C380.635 314.835 373.149 320.27 365.009 324.567C363.205 328.547 361.708 332.66 360.531 336.869C355.711 353.252 352.264 354.352 344.745 349.401C342.251 347.747 339.794 345.889 337.286 343.82L335.245 342.217C333.626 341.822 331.989 341.509 330.339 341.279C327.99 341.249 325.689 341.946 323.751 343.274L325.297 344.189C327.88 345.765 330.373 347.485 332.763 349.342C336.275 352.073 339.803 354.81 343.405 357.207C357.468 366.545 362.46 356.332 366.72 341.84C372.128 323.394 382.652 313.123 398.757 314.036C406.595 314.525 403.445 299.48 403.902 291.025L403.923 290.547C404.348 282.745 407.194 272.925 400.702 265.276Z" fill="#EC621F"/>
<path d="M315.761 318.892C322.364 321.718 324.578 323.815 331.648 321.555C339.055 319.242 346.299 317.136 353.977 318.423C357.353 319.163 360.846 319.19 364.234 318.503C366.217 317.097 368.381 315.967 370.668 315.142L372.814 313.818C375.769 311.226 379.183 309.207 382.879 307.866C393.976 303.676 395 294.71 394.791 288.405C394.733 287.195 394.662 285.923 394.578 284.587C388.464 288.894 379.578 287.104 372.253 285.768C365.463 284.378 358.27 282.952 355.54 286.322C354.688 287.365 353.883 288.564 353.036 289.788C350.999 293.153 348.321 296.086 345.153 298.42C337.838 303.265 328.865 301.935 322.746 300.51C320.248 299.886 317.784 299.136 315.362 298.263C302.763 293.956 296.231 293.137 295.713 299.749C295.476 303.542 296.018 307.344 297.304 310.92C297.699 312.069 298.156 313.196 298.674 314.296C304.591 314.838 310.371 316.393 315.761 318.892Z" fill="#B53D17"/>
<path d="M344.765 349.391C352.247 354.35 355.731 353.242 360.551 336.859C361.728 332.65 363.225 328.537 365.029 324.556C363.915 325.171 362.794 325.748 361.66 326.304L361.056 326.554C359.098 327.713 357.091 328.787 355.048 329.797L352.22 330.991C349.86 333.117 348.322 335.982 345.55 337.639C344.445 338.417 343.119 338.821 341.767 338.792C340.942 339.697 339.99 340.48 338.942 341.115C337.852 341.919 336.517 342.32 335.164 342.251L337.205 343.855C339.78 345.942 342.255 347.733 344.765 349.391Z" fill="#B53D17"/>
<path d="M234.87 343.561C231.564 342.066 228.34 342.599 224.877 341.957C216.248 340.344 213.633 330.922 204.42 332.894L203.742 333.017C207.243 337.784 211.715 341.754 216.864 344.663C215.652 345.377 214.42 346.032 213.159 346.661C206.942 349.812 196.828 352.672 181.668 341.214C163.915 327.807 149.9 326.112 130.283 327.678C108.91 329.383 104.311 325.697 102.131 314.386C101.355 310.597 100.928 306.776 100.422 302.718C99.8338 297.145 98.9253 291.61 97.7007 286.141C96.5682 281.574 95.1657 277.078 93.5006 272.677C92.2102 269.072 90.9933 265.594 90.1271 262.21C89.113 257.929 89.1952 253.461 90.3665 249.22C89.6651 246.677 89.381 244.036 89.5248 241.402C89.654 237.711 90.43 234.481 89.8392 230.938C85.6627 235.359 82.6517 240.749 81.0777 246.624C79.5037 252.498 79.4161 258.672 80.8228 264.588C82.8901 272.645 86.4586 280.245 88.3653 288.367C90.5103 297.537 90.8724 306.946 92.6463 316.232C96.7535 337.461 112.067 338.788 131.028 337.261C155.191 335.301 175.969 343.304 190.647 363.175C197.925 373.04 210.619 361.686 219.722 358.591C227.614 355.871 239.053 354.817 241.988 345.665C239.549 345.211 237.164 344.506 234.87 343.561Z" fill="#EC621F"/>
<path d="M93.5505 272.692C95.2156 277.093 96.6181 281.588 97.7506 286.155C98.9752 291.624 99.8837 297.16 100.472 302.733C100.978 306.79 101.467 310.646 102.181 314.401C104.356 325.728 108.91 329.384 130.333 327.693C149.95 326.126 163.983 327.755 181.718 341.229C196.878 352.686 206.968 349.785 213.209 346.676C214.47 346.047 215.702 345.392 216.914 344.678C211.765 341.768 207.292 337.799 203.792 333.032C200.103 333.834 199.215 334.008 195.854 332.248C193.426 330.673 190.608 329.806 187.714 329.745C185.514 329.603 181.82 329.956 179.999 328.465C177.784 326.708 178.188 322.859 175.567 321.279C171.527 318.782 163.723 320.971 159.828 317.062C158.104 315.275 158.952 312.511 156.894 310.903C154.836 309.295 150.434 309.548 147.955 308.508C144.839 307.326 142.12 305.287 140.111 302.628C138.946 300.829 139.223 296.856 137.767 295.606C136.556 294.512 133.155 294.908 131.405 294.153C129.335 293.258 123.1 290.262 121.855 288.424C120.611 286.586 121.537 284.13 120.237 282.099C116.322 276.125 107.318 276.847 104.063 270.351C102.444 267.035 104.124 263.438 101.456 260.699C98.7871 257.96 94.859 257.517 92.4133 253.745C91.5389 252.403 90.8692 250.938 90.4263 249.399C89.255 253.64 89.1726 258.108 90.1867 262.389C91.043 265.609 92.2935 269.096 93.5505 272.692Z" fill="#B53D17"/>
<path d="M221.347 506.911C230.748 512.797 241.185 509.398 250.964 506.52C262.024 503.27 271.738 501.503 283.079 504.488C295.61 507.846 307.081 514.089 320.305 514.463C334.668 514.927 347.543 508.778 359.4 501.354C355.782 499.883 352.247 498.041 349.109 497.988C345.331 497.853 343.611 501.332 340.229 501.59L338.482 501.426C332.801 503.755 326.71 504.919 320.571 504.846C317.086 504.69 313.63 504.13 310.273 503.179C306.547 502.181 302.84 500.847 298.898 499.451C294.957 498.055 290.456 496.472 285.911 495.255L285.46 495.134C272.294 491.606 261.047 493.481 248.208 497.222L247.007 497.563C240.454 499.496 234.272 501.314 229.477 500.029C228.402 499.736 227.376 499.286 226.432 498.693C220.109 494.689 215.248 482.893 216.028 473.432C216.483 467.859 218.675 464.22 222.503 462.631L222.841 462.507C221.795 461.048 220.494 459.789 219.001 458.792C217.106 457.942 215.043 457.531 212.967 457.587C210.267 460.243 208.338 463.582 207.388 467.249C203.649 481.002 210.433 499.994 221.347 506.911Z" fill="#E6361E"/>
<path d="M434.318 407.211C427.739 402.422 422.131 399.827 419.796 391.501C419.39 389.926 419.089 388.326 418.894 386.711C418.01 379.92 418.262 372.431 413.784 367.022C403.778 354.976 385.483 367.981 377.984 376.788L376.27 379.91C365.722 398.09 341.175 395.47 323.171 399.17C311.406 401.64 300.134 405.747 291.582 414.541C285.528 420.762 281.786 428.713 276.643 435.608C279.174 435.588 281.687 435.563 284.165 435.672C285.47 435.681 286.794 435.821 288.109 435.923C288.854 434.815 289.565 433.698 290.259 432.577C292.626 428.546 295.381 424.756 298.485 421.261C304.462 415.126 312.672 411.22 325.13 408.702C329.019 407.953 333.443 407.348 338.058 406.901C354.146 405.07 374.186 402.793 384.609 384.813L385.898 382.472C391.756 375.983 400.634 370.985 404.594 372.046C405.314 372.273 405.94 372.73 406.376 373.347C408.075 375.36 408.464 379.458 408.949 383.796C409.178 387.327 409.739 390.829 410.623 394.255C413.496 404.587 420.015 409.128 425.784 413.127C426.743 413.76 427.705 414.447 428.703 415.198C431.357 416.949 433.557 419.307 435.119 422.077C436.681 424.846 437.561 427.948 437.687 431.126C437.731 434.566 436.955 437.968 435.422 441.049C436.773 441.088 438.144 441.115 439.598 441.236C441.706 441.416 443.83 441.24 445.88 440.717C447.172 436.804 447.609 432.66 447.162 428.564C446.715 424.468 445.394 420.516 443.287 416.975C440.969 413.162 437.921 409.844 434.318 407.211Z" fill="#E6361E"/>
<path d="M216.081 473.496C215.334 482.966 220.163 494.754 226.486 498.758C227.429 499.351 228.455 499.801 229.53 500.093C234.326 501.378 240.428 499.521 247.06 497.627L248.262 497.287C261.096 493.563 272.33 491.738 285.514 495.199L285.965 495.32C290.509 496.537 294.81 498.066 298.952 499.516C303.094 500.966 306.601 502.246 310.327 503.244C313.684 504.195 317.139 504.755 320.625 504.911C326.764 504.983 332.855 503.82 338.535 501.491C335.936 500.701 333.42 499.655 331.027 498.369C327.792 496.817 324.263 495.975 320.675 495.899C315.693 495.513 315.083 494.848 310.836 491.651C301.805 484.79 293.631 491.303 283.208 487.83C279.036 486.425 275.82 484.059 271.335 483.556C263.192 482.466 256.106 478.705 248.166 477.061C240.225 475.417 233.969 473.168 227.691 467.994C225.898 466.332 224.293 464.479 222.905 462.467L222.567 462.591C218.728 464.285 216.536 467.923 216.081 473.496Z" fill="#B21E16"/>
<path d="M437.612 430.942C437.486 427.764 436.606 424.663 435.044 421.893C433.481 419.123 431.282 416.766 428.628 415.014C427.629 414.263 426.667 413.576 425.709 412.943C419.94 408.944 413.42 404.403 410.548 394.071C409.664 390.645 409.103 387.143 408.874 383.612C408.472 379.296 408.084 375.199 406.301 373.163C405.865 372.546 405.239 372.089 404.519 371.862C400.559 370.801 391.68 375.8 385.823 382.289L384.533 384.629C374.11 402.609 354.037 404.877 337.983 406.717C333.341 407.265 328.957 407.72 325.054 408.518C312.612 411.112 304.402 415.018 298.409 421.077C295.305 424.572 292.551 428.362 290.184 432.393C289.489 433.514 288.778 434.631 288.034 435.739C298.141 436.67 308.033 439.223 317.328 443.302C324.982 446.749 330.45 450.399 339.202 451.956C347.053 453.398 357.186 455.414 364.54 453.499C371.316 451.733 376.995 447.649 384.234 446.831C391.473 446.013 397.012 451.473 404.25 451.192C409.439 451.006 414.094 446.935 418.035 444.857C423.317 442.014 429.251 440.604 435.248 440.767C436.8 437.724 437.61 434.357 437.612 430.942Z" fill="#B21E16"/>
<path d="M388.152 125.045C395.304 131.17 399.472 135.062 397.882 141.728C395.91 149.759 391.017 156.99 395.291 166.104C402.326 181.151 442.961 191.699 439.477 173.091C438.136 165.73 435.263 159.946 438.826 153.397C441.484 148.558 447.222 144.186 442.039 137.998C436.856 131.81 431.559 127.722 427.587 120.892C423.918 114.536 419.373 108.573 412.811 104.863C406.248 101.152 399.672 104.44 392.85 104.636C394.052 103.922 395.316 103.319 396.628 102.837C391.348 102.89 385.802 103.141 382.312 106.54C375.987 112.903 382.961 120.628 388.152 125.045ZM392.665 112.68L393.136 114.329C395.724 114.208 398.299 113.892 400.839 113.384C402.902 112.862 405.041 112.708 407.157 112.929L408.103 113.343C412.151 115.61 415.71 119.572 419.314 125.838C422.23 130.583 425.73 134.944 429.732 138.819C431.233 140.367 432.681 141.848 434.014 143.422L433.067 144.816C432.117 146.111 431.247 147.463 430.461 148.863C425.863 157.266 427.696 164.794 429.16 170.828L429.778 173.465C426.852 173.557 423.929 173.185 421.12 172.362C412.448 170.039 405.518 165.227 404.16 162.141C402.802 159.055 403.298 156.538 405.3 150.735C406.087 148.564 406.757 146.353 407.308 144.11C410.416 131.441 401.602 123.904 394.537 117.856C392.866 116.515 391.387 114.95 390.143 113.204C390.966 112.954 391.81 112.778 392.665 112.68Z" fill="#F0801D"/>
<path d="M407.196 143.991C406.645 146.233 405.975 148.445 405.188 150.616C403.186 156.419 402.599 158.876 404.048 162.022C405.497 165.168 412.403 169.937 421.008 172.243C423.817 173.066 426.74 173.438 429.666 173.345L429.048 170.708C427.584 164.675 425.751 157.146 430.349 148.744C431.135 147.344 432.005 145.992 432.955 144.697L433.902 143.303C432.535 141.719 431.138 140.252 429.62 138.699C425.618 134.825 422.118 130.464 419.202 125.719C415.532 119.363 412.039 115.49 407.991 113.224L407.045 112.809C404.929 112.588 402.79 112.743 400.727 113.265C398.214 113.782 395.666 114.111 393.104 114.249L392.632 112.6C391.744 112.653 390.862 112.788 389.999 113.005C391.243 114.75 392.721 116.315 394.393 117.656C401.49 123.784 410.355 131.335 407.196 143.991Z" fill="#B53D17"/>
<path d="M153.868 411.877L153.791 411.696L153.689 411.543L153.504 411.297L153.79 411.767L153.868 411.877Z" fill="#B21E16"/>
<path d="M509.676 392.43C508.725 391.187 507.514 390.167 506.129 389.44C504.743 388.713 503.216 388.297 501.653 388.221L500.355 388.518C495.666 390.646 497.643 401.58 494.869 405.385C492.404 408.7 487.696 410.501 485.008 413.649C482.32 416.796 483.119 420.699 480.657 423.872C477.086 428.645 471.271 427.088 465.186 428.143C455.31 429.848 454.052 438.286 445.753 440.521C443.703 441.045 441.58 441.22 439.471 441.041C438.017 440.92 436.646 440.892 435.296 440.853C429.299 440.69 423.365 442.101 418.083 444.944C414.141 447.022 409.487 451.093 404.298 451.279C397.059 451.56 391.513 446.062 384.281 446.918C377.05 447.774 371.302 451.785 364.587 453.585C357.233 455.501 347.101 453.484 339.249 452.043C330.516 450.419 325.029 446.836 317.375 443.388C308.08 439.31 298.189 436.757 288.081 435.826C286.766 435.724 285.442 435.584 284.137 435.575C281.66 435.466 279.146 435.49 276.615 435.511C267.929 435.583 258.977 435.978 250.467 434.253C240.536 432.219 232.362 426.035 224.052 421.158C215.743 416.281 206.73 414.027 197.016 412.588C188.159 411.29 184.551 411.791 178.041 405.946C171.183 399.793 164.414 393.914 155.262 390.71C148.025 388.18 142.47 385.384 139.242 379.254C136.014 373.124 130.293 369.013 124.382 363.471C126.096 367.839 128.148 372.065 130.521 376.112C135.812 380.896 140.762 384.676 143.808 390.417C146.854 396.157 152.604 399.292 159.795 401.863C168.968 405.055 175.754 410.939 182.569 417.116C189.067 422.94 192.675 422.439 201.544 423.759C211.242 425.193 220.151 427.365 228.581 432.328C237.01 437.291 245.064 443.389 254.983 445.402C265.989 447.634 277.713 446.317 288.653 446.723C300.109 447.292 311.365 449.95 321.866 454.566C329.52 458.014 334.988 461.664 343.765 463.192C351.621 464.616 361.728 466.662 369.103 464.734C375.863 462.964 381.533 458.914 388.784 458.117C396.035 457.32 401.597 462.696 408.797 462.423C413.991 462.221 418.674 458.175 422.599 456.093C429.338 452.526 435.56 451.561 443.916 452.188C458.348 453.262 457.567 441.341 469.575 439.365C475.61 438.296 481.458 439.863 485.05 435.077C487.441 431.904 486.742 428.028 489.401 424.854C492.06 421.681 496.798 419.906 499.266 416.574C501.735 413.242 500.379 403.334 504.013 400.332C504.013 400.332 504.013 400.332 504.048 400.198L504.782 399.732L506.037 399.46C507.506 399.483 508.947 399.869 510.231 400.583C510.6 399.482 510.817 398.335 510.875 397.175C510.959 395.509 510.541 393.856 509.676 392.43Z" fill="#B21E16"/>
<path d="M499.419 416.543C496.95 419.875 492.241 421.675 489.553 424.823C486.865 427.971 487.66 431.89 485.202 435.046C481.627 439.836 475.779 438.27 469.727 439.334C457.725 441.49 458.478 453.314 444.068 452.157C435.712 451.53 429.49 452.495 422.751 456.061C418.826 458.144 414.143 462.19 408.949 462.392C401.715 462.656 396.154 457.28 388.936 458.086C381.718 458.892 375.965 462.919 369.255 464.703C361.88 466.631 351.773 464.585 343.918 463.161C335.163 461.549 329.672 457.983 322.018 454.535C311.517 449.919 300.262 447.261 288.805 446.692C277.849 446.281 266.124 447.599 255.135 445.37C245.217 443.357 237.047 437.157 228.733 432.297C220.418 427.437 211.394 425.162 201.696 423.727C192.827 422.407 189.219 422.909 182.721 417.085C175.873 410.898 169.086 405.015 159.947 401.832C152.743 399.311 147.184 396.532 143.96 390.385C140.736 384.239 135.973 380.831 130.673 376.081L129.074 374.631C133.467 385.39 139.568 395.369 147.139 404.184C149.137 406.618 151.235 408.147 152.928 410.248C154.804 410.729 156.647 411.33 158.445 412.049C162.817 414.044 164.032 417.127 166.956 420.382C170.259 424.096 173.315 424.987 177.987 427.134C183.112 429.528 184.259 431.196 186.988 435.312C189.717 439.428 191.608 440.257 197.055 441.251C200.718 441.946 206.485 441.074 209.766 442.866C213.046 444.658 215.357 449.736 218.409 452.112C224.714 457.186 230.768 459.453 238.883 461.18C246.998 462.906 253.931 466.573 262.057 467.658C266.515 468.261 269.766 470.565 273.93 471.932C284.311 475.429 292.477 468.878 301.559 475.753C305.788 479.017 306.423 479.653 311.389 480.034C314.982 480.104 318.519 480.948 321.757 482.508C324.239 483.603 328.109 486.001 330.974 485.802C334.373 485.548 336.085 482.032 339.847 482.162C345.714 482.32 353.053 488.548 359.529 487.436C362.433 486.889 363.051 484.046 366.245 483.756C369.439 483.466 374.121 486.242 377.406 486.746C381.366 487.526 385.456 487.331 389.323 486.179C391.638 485.295 393.555 481.815 395.93 481.574C397.893 481.33 401.397 483.558 403.774 483.909C406.533 484.308 415.101 485.278 417.465 484.408C419.83 483.537 420.184 480.946 422.852 479.942C430.457 477.091 440.008 482.748 447.211 479.055C450.83 477.177 451.054 473.136 455.515 472.326C459.976 471.516 464.528 473.308 469.355 471.468C473.592 469.829 477.114 466.745 479.298 462.761C481.25 459.488 482.175 456.369 484.942 453.529C487.708 450.688 490.775 448.734 492.533 445.248C494.626 441.314 494.563 437.071 495.594 432.888C496.543 429.346 498.579 427.295 500.598 424.237C504.939 417.592 502.75 408.052 504.399 400.363C500.522 403.336 501.996 413.007 499.419 416.543Z" fill="#FDC328"/>
<path d="M504.63 449.492L504.845 448.69C505.789 445.164 507.842 443.118 509.845 440.055C514.418 433.079 511.745 422.872 513.904 415.015L514.351 413.345C515.43 410.052 516.451 407.514 514.191 403.65C513.203 402.292 511.869 401.223 510.329 400.555C509.045 399.841 507.604 399.455 506.135 399.431L504.88 399.704L504.146 400.17C504.146 400.17 504.146 400.17 504.11 400.304C502.462 407.992 504.651 417.533 500.31 424.177C498.295 427.219 496.188 429.269 495.306 432.829C494.275 437.011 494.338 441.254 492.245 445.188C490.437 448.661 487.373 450.67 484.654 453.469C481.934 456.268 480.971 459.395 479.01 462.701C476.826 466.685 473.304 469.769 469.067 471.408C464.24 473.249 459.841 471.354 455.227 472.266C450.613 473.179 450.533 477.151 446.923 478.995C439.741 482.676 430.169 477.031 422.564 479.882C419.911 480.962 419.563 483.465 417.177 484.348C414.792 485.231 406.245 484.248 403.486 483.849C401.109 483.499 397.605 481.271 395.642 481.514C393.351 481.778 391.433 485.258 389.036 486.12C385.168 487.271 381.078 487.466 377.118 486.687C373.851 486.116 369.186 483.344 365.957 483.696C362.729 484.049 362.145 486.829 359.241 487.376C352.742 488.572 345.404 482.343 339.559 482.102C335.797 481.972 334.085 485.489 330.686 485.742C327.835 485.891 323.951 483.543 321.469 482.449C318.231 480.888 314.694 480.044 311.101 479.975C306.135 479.593 305.5 478.957 301.271 475.693C292.247 468.87 284.081 475.421 273.642 471.872C269.478 470.505 266.227 468.202 261.769 467.598C253.643 466.513 246.523 462.743 238.595 461.12C230.667 459.497 224.408 457.193 218.121 452.052C215.087 449.61 212.654 444.588 209.478 442.806C206.302 441.024 200.435 441.87 196.766 441.191C191.32 440.197 189.331 439.199 186.7 435.253C184.068 431.306 182.874 429.482 177.699 427.075C173.027 424.927 169.971 424.037 166.669 420.322C163.794 417.081 162.579 413.998 158.157 411.989C156.359 411.27 154.516 410.669 152.64 410.189L153.329 411.161L153.513 411.407L153.62 411.543L153.692 411.742L154.43 413.068C155.915 416.277 155.966 419.765 158.172 422.827C161.26 427.075 162.777 425.691 167.574 427.836C171.951 429.814 173.145 432.91 176.081 436.186C176.746 436.919 177.459 437.607 178.216 438.244C180.974 440.173 183.963 441.75 187.112 442.938C192.253 445.336 193.396 447.021 196.108 451.133C198.821 455.244 200.777 455.965 206.179 457.054C208.399 457.34 210.635 457.478 212.873 457.469C214.95 457.413 217.012 457.825 218.907 458.674C220.4 459.672 221.701 460.93 222.747 462.389C224.136 464.401 225.741 466.254 227.534 467.916C233.83 473.023 239.884 475.29 248.008 476.983C256.132 478.677 263.035 482.389 271.177 483.478C275.645 484.048 278.879 486.348 283.051 487.752C293.423 491.212 301.597 484.699 310.679 491.573C314.926 494.771 315.536 495.435 320.518 495.821C324.105 495.897 327.635 496.739 330.87 498.291C333.263 499.577 335.778 500.623 338.378 501.413L340.125 501.576C343.507 501.319 345.227 497.84 349.005 497.975C352.143 498.028 355.661 499.866 359.295 501.341C362.197 502.814 365.456 503.439 368.697 503.144C371.623 502.585 372.241 499.742 375.435 499.452C378.629 499.161 383.273 501.946 386.596 502.442C390.553 503.218 394.64 503.03 398.509 501.892C400.823 501.007 402.754 497.478 405.04 497.231C406.999 497.003 410.503 499.232 412.864 499.578C413.838 499.749 415.572 499.963 417.499 500.121C420.506 500.565 423.562 500.557 426.567 500.098C428.952 499.215 429.294 496.602 431.921 495.623C435.459 494.315 439.311 494.774 443.292 495.357L443.693 495.464C448.151 496.068 452.52 496.737 456.279 494.807C458.011 493.653 459.494 492.163 460.64 490.425C461.627 489.17 463.032 488.313 464.6 488.012C467.074 487.696 469.577 487.693 472.052 488.003C474.22 488.193 476.403 487.91 478.452 487.175C479.628 486.741 480.756 486.185 481.815 485.515C484.527 483.704 486.776 481.283 488.383 478.447C490.335 475.173 491.26 472.054 494.043 469.219C496.827 466.383 499.851 464.453 501.63 460.955L501.742 460.537L502.108 459.704C503.261 456.385 504.105 452.966 504.63 449.492Z" fill="#F28F2B"/>
<path d="M110.022 182.018C110.198 186.04 112.602 189.765 113.005 193.741C113.408 197.717 111.121 200.775 111.349 204.668C111.591 210.446 116.303 211.708 119.933 215.403C127.159 222.586 121.299 232.763 131.6 238.227C137.223 240.986 141.718 245.607 144.32 251.306C146.042 254.901 147.386 260.58 150.818 263.075C155.61 266.58 161.859 264.243 166.402 268.272C170.946 272.3 173.013 278.352 176.791 282.964C180.828 287.949 188.703 290.704 194.694 293.008C201.361 295.528 206.739 294.838 213.454 295.241C222.662 295.904 231.593 298.677 239.558 303.346C247.18 307.913 254.524 314.322 263.046 317.34C270.708 320.02 279.025 318.255 286.872 317.707C294.719 317.159 301.868 319.218 309.103 322.356C315.719 325.132 317.95 327.234 324.99 325.019C332.439 322.682 339.67 320.555 347.323 321.871C353.364 322.916 358.39 322.938 363.348 319.002L364.194 318.386C360.806 319.073 357.313 319.046 353.936 318.306C346.242 317.015 338.998 319.121 331.608 321.438C324.538 323.699 322.324 321.601 315.721 318.775C310.308 316.268 304.504 314.713 298.562 314.178C296.869 314.058 295.17 314.057 293.477 314.176L292.048 314.295C284.716 314.926 276.838 316.325 269.634 313.804C263.273 311.545 257.532 307.374 251.832 303.519C249.945 302.207 248.061 300.95 246.155 299.777C238.185 295.131 229.253 292.383 220.05 291.743C213.284 291.328 207.97 291.981 201.299 289.477C195.304 287.19 187.512 284.458 183.371 279.462C179.554 274.858 177.531 268.711 172.995 264.72C168.459 260.729 162.223 263.015 157.435 259.566C153.982 257.082 152.647 251.37 150.908 247.77C148.341 242.094 143.875 237.49 138.279 234.752C127.975 229.233 133.819 219.052 126.596 211.923C122.952 208.279 118.291 207.03 118.024 201.21C117.833 197.309 120.071 194.237 119.668 190.261C119.546 189.2 119.316 188.155 118.982 187.141C117.869 184.383 117.096 181.5 116.68 178.555C116.502 173.941 122.77 165.252 120.539 161.216L119.801 160.427C118.679 159.785 117.408 159.452 116.116 159.462C114.824 159.471 113.557 159.822 112.445 160.479C111.483 161.157 110.65 162.001 109.986 162.972C111.108 162.956 112.213 163.252 113.177 163.827L113.918 164.671L114.208 165.393C115.344 169.709 109.848 177.655 110.022 182.018Z" fill="#E6361E"/>
<path d="M380.612 311.916C374.749 317.621 368.17 322.54 361.04 326.549L361.644 326.299C362.777 325.743 363.912 325.116 365.013 324.552C373.153 320.255 380.639 314.82 387.245 308.411C381.86 310.263 377.141 311.237 372.763 313.806L370.618 315.13C373.759 313.966 377.046 313.127 380.612 311.916Z" fill="#E6361E"/>
<path d="M352.204 330.985C350.897 331.417 349.621 331.936 348.385 332.54L347.245 333.184L347.102 333.253L345.856 334.227C344.405 335.67 343.035 337.192 341.751 338.786C343.103 338.815 344.429 338.411 345.534 337.632C348.356 335.989 349.894 333.124 352.204 330.985Z" fill="#E6361E"/>
<path d="M355.031 329.788C357.091 328.782 359.165 327.726 361.039 326.545C368.17 322.536 374.749 317.617 380.611 311.912C377.046 313.123 373.759 313.962 370.684 315.144C368.397 315.968 366.233 317.099 364.25 318.505L363.405 319.12C358.46 323.006 353.417 322.98 347.379 321.989C339.693 320.664 332.462 322.791 325.046 325.138C318.006 327.352 315.775 325.251 309.159 322.475C301.924 319.336 294.868 317.267 286.928 317.825C278.989 318.384 270.765 320.138 263.102 317.458C254.614 314.45 247.237 308.032 239.614 303.464C231.65 298.796 222.718 296.023 213.51 295.36C206.745 294.944 201.404 295.697 194.75 293.126C188.76 290.823 180.968 288.09 176.848 283.083C173.015 278.474 170.982 272.36 166.459 268.39C161.935 264.42 155.666 266.698 150.874 263.194C147.442 260.698 146.099 255.02 144.376 251.424C141.774 245.726 137.28 241.105 131.656 238.346C121.368 232.832 127.229 222.655 119.989 215.522C116.359 211.827 111.681 210.573 111.405 204.787C111.227 200.907 113.44 197.793 113.062 193.859C112.683 189.926 110.254 186.159 110.078 182.136C109.904 177.774 115.434 169.836 114.218 165.553C111.913 173.083 106.027 180.549 105.995 188.42C106.002 192.004 106.501 194.752 105.506 198.264C104.392 202.424 102.374 206.145 102.002 210.541C101.66 214.424 102.861 217.558 103.495 221.273C104.129 224.989 103.33 228.106 103.209 231.834C102.826 236.101 103.812 240.38 106.024 244.049C108.453 247.816 112.313 248.116 115.059 250.965C117.806 253.814 116.033 257.422 117.683 260.621C120.876 267.082 129.942 266.396 133.815 272.394C135.069 274.395 134.226 276.873 135.471 278.711C136.715 280.549 142.946 283.561 144.995 284.468C146.753 285.19 150.146 284.828 151.378 285.91C152.61 286.992 152.561 291.116 153.723 292.931C155.734 295.582 158.46 297.604 161.58 298.761C164.055 299.747 168.467 299.389 170.502 301.152C172.536 302.915 171.676 305.657 173.436 307.31C177.317 311.341 185.098 309.164 189.148 311.628C191.786 313.212 191.276 317.051 193.58 318.814C195.426 320.276 199.12 319.923 201.307 320.115C204.198 320.176 207.017 321.024 209.461 322.568C213.021 324.453 213.738 324.18 218.063 323.28C227.276 321.307 229.875 330.725 238.503 332.338C241.912 332.983 245.19 332.446 248.479 333.937C254.51 336.627 261.045 336.498 267.164 338.657C272.88 340.952 279.175 341.385 285.151 339.895C288.316 339.113 292.232 335.793 295.247 335.634C298.262 335.475 301.783 338.908 304.607 339.933C308.743 341.471 310.538 341.522 314.101 339.253C317.663 336.984 319.339 335.876 323.901 336.095C328.043 336.274 330.546 336.891 334.431 335.156C337.853 333.548 340.102 331.303 343.928 331.594C345.479 331.777 347.013 332.086 348.515 332.519C349.751 331.914 351.027 331.395 352.334 330.964L355.031 329.788Z" fill="#FDC328"/>
<path d="M92.3993 197.997C92.3728 201.571 92.8886 204.324 91.8816 207.814C90.7624 211.991 88.7446 215.713 88.3817 220.075C88.0606 223.946 89.2458 227.075 89.8586 230.803L89.8228 230.937C90.3956 234.546 89.6376 237.71 89.5084 241.4C89.3646 244.034 89.6487 246.675 90.35 249.218C90.793 250.758 91.4627 252.223 92.3371 253.565C94.7828 257.336 98.6378 257.653 101.38 260.519C104.122 263.384 102.35 266.921 103.987 270.171C107.189 276.598 116.246 275.945 120.161 281.919C121.411 283.937 120.556 286.394 121.779 288.244C123.003 290.094 129.259 293.077 131.329 293.972C133.079 294.728 136.48 294.332 137.691 295.426C139.147 296.676 138.87 300.649 140.035 302.447C142.044 305.107 144.763 307.145 147.879 308.328C150.381 309.284 154.871 308.966 156.818 310.723C158.765 312.48 158.006 315.178 159.752 316.881C163.625 320.874 171.428 318.685 175.491 321.098C178.112 322.678 177.624 326.505 179.923 328.285C181.762 329.709 185.438 329.423 187.638 329.564C190.532 329.626 193.35 330.493 195.778 332.068C199.139 333.828 200.022 333.671 203.716 332.852L204.394 332.729C213.607 330.757 216.222 340.178 224.851 341.792C228.264 342.42 231.537 341.9 234.844 343.395C237.146 344.351 239.541 345.065 241.991 345.525C245.883 346.138 249.73 347.007 253.507 348.127C259.209 350.457 265.51 350.889 271.478 349.361C274.637 348.596 278.567 345.226 281.573 345.1C284.579 344.974 288.105 348.39 290.917 349.394C295.086 350.941 296.865 350.988 300.444 348.724C301.427 348.058 302.446 347.446 303.496 346.891L305.861 345.949C307.293 345.6 308.77 345.476 310.239 345.582C314.365 345.756 316.864 346.39 320.767 344.589C321.764 344.137 322.736 343.633 323.679 343.077C325.617 341.749 327.917 341.052 330.266 341.081C331.916 341.312 333.554 341.625 335.172 342.02C336.525 342.089 337.86 341.687 338.951 340.883C339.999 340.248 340.95 339.466 341.776 338.56C343.06 336.967 344.43 335.445 345.88 334.001L347.126 333.028L347.27 332.959L348.41 332.315C346.908 331.883 345.374 331.573 343.822 331.391C339.979 331.166 337.748 333.344 334.326 334.953C330.441 336.687 327.938 336.07 323.796 335.891C319.234 335.672 317.699 336.657 313.995 339.05C310.292 341.442 308.656 341.2 304.501 339.729C301.683 338.687 298.16 335.326 295.141 335.43C292.123 335.535 288.235 338.952 285.046 339.691C279.069 341.182 272.775 340.748 267.058 338.453C260.939 336.294 254.404 336.423 248.374 333.733C245.084 332.243 241.857 332.793 238.398 332.134C229.769 330.521 227.171 321.104 217.957 323.076C213.633 323.977 212.915 324.25 209.355 322.365C206.911 320.821 204.092 319.973 201.202 319.911C199.015 319.719 195.308 320.123 193.474 318.611C191.255 316.87 191.68 313.009 189.043 311.424C184.993 308.96 177.211 311.137 173.331 307.107C171.593 305.37 172.459 302.54 170.396 300.948C168.334 299.357 163.932 299.61 161.474 298.558C158.355 297.401 155.629 295.378 153.617 292.728C152.456 290.912 152.712 286.951 151.272 285.706C149.833 284.461 146.648 284.987 144.89 284.265C142.841 283.357 136.589 280.357 135.365 278.507C134.142 276.657 135.031 274.209 133.709 272.19C129.837 266.192 120.791 266.937 117.577 260.418C115.945 257.151 117.635 253.521 114.954 250.761C112.273 248.001 108.348 247.612 105.919 243.845C103.707 240.176 102.721 235.897 103.104 231.63C103.225 227.902 104.009 224.71 103.39 221.07C102.772 217.43 101.638 214.243 101.897 210.337C102.268 205.942 104.219 202.202 105.401 198.06C106.346 194.535 105.892 191.817 105.89 188.217C105.912 180.379 111.782 172.909 114.112 165.349L113.822 164.627L113.081 163.783C112.117 163.208 111.012 162.912 109.89 162.928L108.702 162.95C107.636 163.031 106.605 163.369 105.698 163.936C101.871 166.725 101.869 170.073 100.836 174.13L100.531 175.266C98.245 182.73 92.431 190.126 92.3993 197.997Z" fill="#F28F2B"/>
</svg>
