<svg width="24" height="24" viewBox="0 0 24 24" fill="none" xmlns="http://www.w3.org/2000/svg">
<path d="M11.8511 9.37294C10.1911 9.37294 8.8365 10.7276 8.8365 12.3875C8.8365 14.0474 10.1911 15.4021 11.8511 15.4021C13.511 15.4021 14.8656 14.0474 14.8656 12.3875C14.8656 10.7276 13.511 9.37294 11.8511 9.37294ZM20.8925 12.3875C20.8925 11.1392 20.9038 9.90213 20.8337 8.65605C20.7636 7.2087 20.4334 5.92417 19.375 4.86579C18.3144 3.80515 17.0321 3.47723 15.5848 3.40713C14.3364 3.33702 13.0994 3.34833 11.8533 3.34833C10.605 3.34833 9.36795 3.33702 8.12187 3.40713C6.67451 3.47723 5.38999 3.80741 4.33161 4.86579C3.27097 5.92643 2.94305 7.2087 2.87295 8.65605C2.80284 9.90439 2.81415 11.1414 2.81415 12.3875C2.81415 13.6336 2.80284 14.8729 2.87295 16.119C2.94305 17.5663 3.27323 18.8509 4.33161 19.9092C5.39225 20.9699 6.67451 21.2978 8.12187 21.3679C9.37021 21.438 10.6072 21.4267 11.8533 21.4267C13.1017 21.4267 14.3387 21.438 15.5848 21.3679C17.0321 21.2978 18.3167 20.9676 19.375 19.9092C20.4357 18.8486 20.7636 17.5663 20.8337 16.119C20.9061 14.8729 20.8925 13.6359 20.8925 12.3875ZM11.8511 17.0258C9.28427 17.0258 7.21275 14.9543 7.21275 12.3875C7.21275 9.82072 9.28427 7.74919 11.8511 7.74919C14.4179 7.74919 16.4894 9.82072 16.4894 12.3875C16.4894 14.9543 14.4179 17.0258 11.8511 17.0258ZM16.6794 8.64248C16.0801 8.64248 15.5961 8.15852 15.5961 7.55923C15.5961 6.95993 16.0801 6.47597 16.6794 6.47597C17.2786 6.47597 17.7626 6.95993 17.7626 7.55923C17.7628 7.70153 17.7349 7.84247 17.6805 7.97398C17.6261 8.10549 17.5463 8.22498 17.4457 8.3256C17.3451 8.42623 17.2256 8.50601 17.0941 8.56039C16.9626 8.61476 16.8217 8.64266 16.6794 8.64248Z" fill="#FF640B"/>
<path d="M11.8511 9.37294C10.1911 9.37294 8.8365 10.7276 8.8365 12.3875C8.8365 14.0474 10.1911 15.4021 11.8511 15.4021C13.511 15.4021 14.8656 14.0474 14.8656 12.3875C14.8656 10.7276 13.511 9.37294 11.8511 9.37294ZM20.8925 12.3875C20.8925 11.1392 20.9038 9.90213 20.8337 8.65605C20.7636 7.2087 20.4334 5.92417 19.375 4.86579C18.3144 3.80515 17.0321 3.47723 15.5848 3.40713C14.3364 3.33702 13.0994 3.34833 11.8533 3.34833C10.605 3.34833 9.36795 3.33702 8.12187 3.40713C6.67451 3.47723 5.38999 3.80741 4.33161 4.86579C3.27097 5.92643 2.94305 7.2087 2.87295 8.65605C2.80284 9.90439 2.81415 11.1414 2.81415 12.3875C2.81415 13.6336 2.80284 14.8729 2.87295 16.119C2.94305 17.5663 3.27323 18.8509 4.33161 19.9092C5.39225 20.9699 6.67451 21.2978 8.12187 21.3679C9.37021 21.438 10.6072 21.4267 11.8533 21.4267C13.1017 21.4267 14.3387 21.438 15.5848 21.3679C17.0321 21.2978 18.3167 20.9676 19.375 19.9092C20.4357 18.8486 20.7636 17.5663 20.8337 16.119C20.9061 14.8729 20.8925 13.6359 20.8925 12.3875ZM11.8511 17.0258C9.28427 17.0258 7.21275 14.9543 7.21275 12.3875C7.21275 9.82072 9.28427 7.74919 11.8511 7.74919C14.4179 7.74919 16.4894 9.82072 16.4894 12.3875C16.4894 14.9543 14.4179 17.0258 11.8511 17.0258ZM16.6794 8.64248C16.0801 8.64248 15.5961 8.15852 15.5961 7.55923C15.5961 6.95993 16.0801 6.47597 16.6794 6.47597C17.2786 6.47597 17.7626 6.95993 17.7626 7.55923C17.7628 7.70153 17.7349 7.84247 17.6805 7.97398C17.6261 8.10549 17.5463 8.22498 17.4457 8.3256C17.3451 8.42623 17.2256 8.50601 17.0941 8.56039C16.9626 8.61476 16.8217 8.64266 16.6794 8.64248Z" fill="#FF640B"/>
<path d="M11.8511 9.37294C10.1911 9.37294 8.8365 10.7276 8.8365 12.3875C8.8365 14.0474 10.1911 15.4021 11.8511 15.4021C13.511 15.4021 14.8656 14.0474 14.8656 12.3875C14.8656 10.7276 13.511 9.37294 11.8511 9.37294ZM20.8925 12.3875C20.8925 11.1392 20.9038 9.90213 20.8337 8.65605C20.7636 7.2087 20.4334 5.92417 19.375 4.86579C18.3144 3.80515 17.0321 3.47723 15.5848 3.40713C14.3364 3.33702 13.0994 3.34833 11.8533 3.34833C10.605 3.34833 9.36795 3.33702 8.12187 3.40713C6.67451 3.47723 5.38999 3.80741 4.33161 4.86579C3.27097 5.92643 2.94305 7.2087 2.87295 8.65605C2.80284 9.90439 2.81415 11.1414 2.81415 12.3875C2.81415 13.6336 2.80284 14.8729 2.87295 16.119C2.94305 17.5663 3.27323 18.8509 4.33161 19.9092C5.39225 20.9699 6.67451 21.2978 8.12187 21.3679C9.37021 21.438 10.6072 21.4267 11.8533 21.4267C13.1017 21.4267 14.3387 21.438 15.5848 21.3679C17.0321 21.2978 18.3167 20.9676 19.375 19.9092C20.4357 18.8486 20.7636 17.5663 20.8337 16.119C20.9061 14.8729 20.8925 13.6359 20.8925 12.3875ZM11.8511 17.0258C9.28427 17.0258 7.21275 14.9543 7.21275 12.3875C7.21275 9.82072 9.28427 7.74919 11.8511 7.74919C14.4179 7.74919 16.4894 9.82072 16.4894 12.3875C16.4894 14.9543 14.4179 17.0258 11.8511 17.0258ZM16.6794 8.64248C16.0801 8.64248 15.5961 8.15852 15.5961 7.55923C15.5961 6.95993 16.0801 6.47597 16.6794 6.47597C17.2786 6.47597 17.7626 6.95993 17.7626 7.55923C17.7628 7.70153 17.7349 7.84247 17.6805 7.97398C17.6261 8.10549 17.5463 8.22498 17.4457 8.3256C17.3451 8.42623 17.2256 8.50601 17.0941 8.56039C16.9626 8.61476 16.8217 8.64266 16.6794 8.64248Z" fill="url(#paint0_linear_1_1017)"/>
<defs>
<linearGradient id="paint0_linear_1_1017" x1="11.6389" y1="1.99367" x2="11.6389" y2="23.6044" gradientUnits="userSpaceOnUse">
<stop stop-color="#FF9649"/>
<stop offset="1" stop-color="#FF5C00"/>
</linearGradient>
</defs>
</svg>
