<svg width="24" height="24" viewBox="0 0 24 24" fill="none" xmlns="http://www.w3.org/2000/svg">
<g clip-path="url(#clip0_1_1025)">
<path d="M21.9564 2.86216L1.43981 10.8147C0.61418 11.1851 0.334931 11.9267 1.24025 12.3292L6.50365 14.0105L19.2299 6.10482C19.9247 5.60852 20.6361 5.74086 20.024 6.28683L9.09387 16.2345L8.75053 20.4443C9.06854 21.0943 9.65083 21.0973 10.0223 20.7742L13.0462 17.8981L18.2253 21.7963C19.4282 22.5121 20.0827 22.0502 20.3415 20.7382L23.7385 4.5699C24.0912 2.95497 23.4897 2.24342 21.9564 2.86216Z" fill="#FF640B"/>
<path d="M21.9564 2.86216L1.43981 10.8147C0.61418 11.1851 0.334931 11.9267 1.24025 12.3292L6.50365 14.0105L19.2299 6.10482C19.9247 5.60852 20.6361 5.74086 20.024 6.28683L9.09387 16.2345L8.75053 20.4443C9.06854 21.0943 9.65083 21.0973 10.0223 20.7742L13.0462 17.8981L18.2253 21.7963C19.4282 22.5121 20.0827 22.0502 20.3415 20.7382L23.7385 4.5699C24.0912 2.95497 23.4897 2.24342 21.9564 2.86216Z" fill="url(#paint0_linear_1_1025)"/>
</g>
<defs>
<linearGradient id="paint0_linear_1_1025" x1="11.9827" y1="1.18089" x2="11.9827" y2="24.4795" gradientUnits="userSpaceOnUse">
<stop stop-color="#FF9649"/>
<stop offset="1" stop-color="#FF5C00"/>
</linearGradient>
<clipPath id="clip0_1_1025">
<rect width="23.1577" height="23.1577" fill="white" transform="translate(0.678711 0.808594)"/>
</clipPath>
</defs>
</svg>
