<svg width="367" height="820" viewBox="0 0 367 820" fill="none" xmlns="http://www.w3.org/2000/svg">
<path d="M124.399 688.303C196.989 641.618 217.988 544.927 171.303 472.338C124.618 399.749 27.9271 378.749 -44.6622 425.434C-117.252 472.119 -138.251 568.81 -91.566 641.399C-44.881 713.989 51.8099 734.988 124.399 688.303Z" fill="url(#paint0_radial_1_8)"/>
<g style="mix-blend-mode:multiply" opacity="0.3">
<path d="M30.9503 544.225C51.154 564.849 88.2801 562.365 105.895 585.337C113.117 594.805 115.525 606.991 117.778 618.684C120.03 630.377 122.547 642.565 129.896 651.951C135.693 659.315 145.493 664.266 154.457 663.193C178.05 637.808 192.493 605.274 195.497 570.749C195.889 566.458 196.084 562.204 196.081 557.987C193.145 556.188 190.046 554.672 186.823 553.46C174.882 548.897 161.674 546.839 151.338 539.32C127.536 521.963 129.536 484.847 110.806 462.07C106.385 456.734 100.314 452.045 93.361 451.717C86.4082 451.389 79.0487 457.165 79.736 464.075C80.4216 471.599 88.9604 475.707 92.3096 482.452C98.0099 493.887 84.379 507.885 71.7859 505.719C59.1928 503.553 50.7993 490.614 49.3768 477.92C47.9543 465.225 51.7692 452.596 55.0474 440.223C58.3255 427.85 61.0456 414.72 57.4727 402.456C57.3988 402.185 57.3109 401.917 57.2092 401.655C56.0457 401.505 54.8691 401.38 53.6795 401.282C32.0995 399.342 10.352 401.938 -10.1646 408.905C-1.21586 415.099 5.66109 423.844 9.57115 434.001C16.3231 451.879 14.5254 471.642 14.7473 490.771C14.9691 509.9 17.6099 530.386 30.9503 544.225ZM95.5524 702.983C96.2256 697.947 96.1401 692.839 95.2987 687.829C93.7498 679.261 90.1062 671.209 84.692 664.391C79.2779 657.572 72.2615 652.198 64.2676 648.748C43.0042 639.753 15.3877 644.697 -0.758692 628.061C-11.7319 616.925 -13.249 599.527 -11.4706 583.984C-9.69211 568.44 -5.24349 552.994 -6.76106 537.413C-7.7597 526.77 -11.5209 516.573 -17.6721 507.831C-23.8232 499.089 -32.1511 492.105 -41.8312 487.57C-51.5113 483.036 -62.2081 481.109 -72.862 481.98C-83.5159 482.85 -93.7574 486.488 -102.573 492.534C-108.131 504.822 -112.057 517.785 -114.251 531.092C-110.499 528.784 -106.311 527.273 -101.949 526.654C-97.5864 526.035 -93.1434 526.322 -88.8968 527.496C-82.8528 529.235 -77.4086 532.613 -73.1681 537.258C-68.9276 541.902 -66.0567 547.631 -64.8736 553.808C-61.3947 573.557 -75.5409 595.671 -65.1951 612.819C-58.3327 624.244 -43.7181 627.68 -30.7769 630.863C-17.8356 634.046 -3.25201 639.642 0.842401 652.326C2.27038 656.749 2.17747 661.524 0.578357 665.888C-1.02074 670.253 -4.03412 673.958 -7.98194 676.412C-11.9298 678.866 -16.585 679.929 -21.2069 679.432C-25.8287 678.934 -30.1514 676.905 -33.4866 673.667C-40.9459 666.401 -42.6126 654.026 -51.3952 648.42C-60.1779 642.815 -72.8179 647.313 -78.2771 656.127C-78.6431 656.704 -78.9674 657.29 -79.2707 657.881C-58.3486 682.531 -30.2999 700.09 1.01393 708.141C32.3278 716.192 65.3671 714.339 95.5842 702.836L95.5524 702.983Z" fill="#7355A7"/>
</g>
<path style="mix-blend-mode:screen" d="M163.651 568.822C182.535 561.403 188.13 530.662 176.147 500.159C164.165 469.656 139.142 450.942 120.258 458.361C101.373 465.779 95.7782 496.521 107.761 527.023C119.743 557.526 144.766 576.24 163.651 568.822Z" fill="url(#paint1_linear_1_8)"/>
<path d="M149.421 559.81L178.646 569.28L189.611 564.809L246.478 605.429L210.692 652.267L200.019 651.492L148.832 684.258L142.652 615.279L134.371 610.431L137.697 579.82L133.461 571.631L133.376 550.41L149.421 559.81Z" fill="url(#paint2_linear_1_8)"/>
<path opacity="0.2" d="M133.376 550.409L145.108 581.025C145.108 581.025 180.703 605.73 181.738 606.335C182.772 606.94 193.959 609.216 193.959 609.216L207.734 618.143L246.478 605.429L189.606 564.819L178.641 569.289L149.416 559.82L133.376 550.409Z" fill="#FF9EAE"/>
<path style="mix-blend-mode:multiply" opacity="0.5" d="M145.109 581.025L142.653 615.279L134.372 610.43L145.109 581.025Z" fill="url(#paint3_linear_1_8)"/>
<path style="mix-blend-mode:multiply" opacity="0.5" d="M181.738 606.333L193.96 609.214L148.833 684.256L181.738 606.333Z" fill="url(#paint4_linear_1_8)"/>
<path style="mix-blend-mode:multiply" opacity="0.5" d="M207.735 618.142L200.02 651.49L210.693 652.266L246.479 605.428L207.735 618.142Z" fill="url(#paint5_linear_1_8)"/>
<path d="M-10.3736 31.1423L18.8515 40.6117L29.8163 36.1409L86.6837 76.7611L50.8979 123.599L40.225 122.824L-10.9619 155.59L-17.1423 86.6112L-25.4234 81.7631L-22.0969 51.1525L-26.3335 42.9634L-26.4186 21.7419L-10.3736 31.1423Z" fill="url(#paint6_linear_1_8)"/>
<path opacity="0.2" d="M-26.4181 21.7414L-14.6861 52.3575C-14.6861 52.3575 20.9091 77.0621 21.9433 77.6668C22.9775 78.2715 34.165 80.5479 34.165 80.5479L47.9402 89.4749L86.6842 76.7606L29.8114 36.1507L18.8466 40.6214L-10.3785 31.1521L-26.4181 21.7414Z" fill="#FF9EAE"/>
<path style="mix-blend-mode:multiply" opacity="0.5" d="M21.9437 77.6651L34.1654 80.5461L-10.961 155.588L21.9437 77.6651Z" fill="url(#paint7_linear_1_8)"/>
<path style="mix-blend-mode:multiply" opacity="0.5" d="M47.941 89.4742L40.2262 122.823L50.8992 123.598L86.685 76.7598L47.941 89.4742Z" fill="url(#paint8_linear_1_8)"/>
<path d="M31.9593 243.18L48.7959 248.635L55.1127 246.06L87.874 269.461L67.2578 296.444L61.1091 295.998L31.6205 314.874L28.0599 275.136L23.2892 272.343L25.2056 254.708L22.7649 249.99L22.7159 237.765L31.9593 243.18Z" fill="url(#paint9_linear_1_8)"/>
<path opacity="0.2" d="M22.716 237.764L29.4748 255.402C29.4748 255.402 49.9812 269.635 50.577 269.983C51.1728 270.331 57.6179 271.643 57.6179 271.643L65.5538 276.786L87.8742 269.461L55.1098 246.066L48.793 248.641L31.9564 243.186L22.716 237.764Z" fill="#FF9EAE"/>
<path style="mix-blend-mode:multiply" opacity="0.5" d="M29.4752 255.402L28.0605 275.136L23.2898 272.343L29.4752 255.402Z" fill="url(#paint10_linear_1_8)"/>
<path style="mix-blend-mode:multiply" opacity="0.5" d="M50.5773 269.981L57.6183 271.641L31.621 314.872L50.5773 269.981Z" fill="url(#paint11_linear_1_8)"/>
<path style="mix-blend-mode:multiply" opacity="0.5" d="M65.554 276.784L61.1095 295.996L67.2582 296.443L87.8744 269.459L65.554 276.784Z" fill="url(#paint12_linear_1_8)"/>
<defs>
<radialGradient id="paint0_radial_1_8" cx="0" cy="0" r="1" gradientUnits="userSpaceOnUse" gradientTransform="translate(102.56 507.475) rotate(27.0798) scale(228.802)">
<stop stop-color="#B85FAE"/>
<stop offset="0.19" stop-color="#993B88"/>
<stop offset="0.38" stop-color="#7F1E69"/>
<stop offset="0.54" stop-color="#700B56"/>
<stop offset="0.65" stop-color="#6A054F"/>
<stop offset="0.79" stop-color="#6E0B51"/>
<stop offset="0.99" stop-color="#7A1D57"/>
</radialGradient>
<linearGradient id="paint1_linear_1_8" x1="196.618" y1="472.167" x2="116.755" y2="514.809" gradientUnits="userSpaceOnUse">
<stop stop-color="#4D6321"/>
<stop offset="0.62" stop-color="#1B220B"/>
<stop offset="1"/>
</linearGradient>
<linearGradient id="paint2_linear_1_8" x1="126.504" y1="590.823" x2="214.277" y2="660.31" gradientUnits="userSpaceOnUse">
<stop stop-color="#DB3F6C"/>
<stop offset="0.61" stop-color="#A31A5E"/>
<stop offset="1" stop-color="#7D0155"/>
</linearGradient>
<linearGradient id="paint3_linear_1_8" x1="143.893" y1="598.307" x2="150.279" y2="600.418" gradientUnits="userSpaceOnUse">
<stop stop-color="#C77DC2"/>
<stop offset="1" stop-color="#97467C"/>
</linearGradient>
<linearGradient id="paint4_linear_1_8" x1="-58586.2" y1="117200" x2="-58349.4" y2="117315" gradientUnits="userSpaceOnUse">
<stop stop-color="#C77DC2"/>
<stop offset="1" stop-color="#97467C"/>
</linearGradient>
<linearGradient id="paint5_linear_1_8" x1="-35731.5" y1="81932" x2="-34761.4" y2="82332.4" gradientUnits="userSpaceOnUse">
<stop stop-color="#C77DC2"/>
<stop offset="1" stop-color="#97467C"/>
</linearGradient>
<linearGradient id="paint6_linear_1_8" x1="-33.2901" y1="62.1549" x2="54.483" y2="131.642" gradientUnits="userSpaceOnUse">
<stop stop-color="#DB3F6C"/>
<stop offset="0.61" stop-color="#A31A5E"/>
<stop offset="1" stop-color="#7D0155"/>
</linearGradient>
<linearGradient id="paint7_linear_1_8" x1="-58746" y1="116671" x2="-58509.2" y2="116786" gradientUnits="userSpaceOnUse">
<stop stop-color="#C77DC2"/>
<stop offset="1" stop-color="#97467C"/>
</linearGradient>
<linearGradient id="paint8_linear_1_8" x1="-35891.2" y1="81403.3" x2="-34921.2" y2="81803.8" gradientUnits="userSpaceOnUse">
<stop stop-color="#C77DC2"/>
<stop offset="1" stop-color="#97467C"/>
</linearGradient>
<linearGradient id="paint9_linear_1_8" x1="18.7572" y1="261.046" x2="69.3232" y2="301.078" gradientUnits="userSpaceOnUse">
<stop stop-color="#DB3F6C"/>
<stop offset="0.61" stop-color="#A31A5E"/>
<stop offset="1" stop-color="#7D0155"/>
</linearGradient>
<linearGradient id="paint10_linear_1_8" x1="28.7751" y1="265.358" x2="32.4538" y2="266.574" gradientUnits="userSpaceOnUse">
<stop stop-color="#C77DC2"/>
<stop offset="1" stop-color="#97467C"/>
</linearGradient>
<linearGradient id="paint11_linear_1_8" x1="-33805.6" y1="67439.3" x2="-33669.1" y2="67505.8" gradientUnits="userSpaceOnUse">
<stop stop-color="#C77DC2"/>
<stop offset="1" stop-color="#97467C"/>
</linearGradient>
<linearGradient id="paint12_linear_1_8" x1="-20639" y1="47121.6" x2="-20080.1" y2="47352.3" gradientUnits="userSpaceOnUse">
<stop stop-color="#C77DC2"/>
<stop offset="1" stop-color="#97467C"/>
</linearGradient>
</defs>
</svg>
