<svg width="26" height="27" viewBox="0 0 26 27" fill="none" xmlns="http://www.w3.org/2000/svg">
<path d="M20.7561 11.3636C20.7817 8.27142 18.1483 5.43692 14.8861 5.04452C14.8156 5.03573 14.7453 5.02503 14.6754 5.01245C14.5114 4.98105 14.3452 4.96317 14.1782 4.95898C13.5089 4.95898 13.3304 5.42944 13.2833 5.70851C13.2373 5.98116 13.2812 6.21104 13.4127 6.3896C13.634 6.69005 14.0243 6.74351 14.3376 6.78628C14.4284 6.79911 14.5151 6.81087 14.5878 6.82691C17.5196 7.48234 18.5064 8.51199 18.9887 11.4192C19.0004 11.4898 19.0058 11.5774 19.0122 11.6705C19.0336 12.018 19.0763 12.7407 19.8536 12.7407C19.9178 12.7407 19.9884 12.7354 20.0611 12.7247C20.7839 12.6146 20.7614 11.9538 20.7507 11.6362C20.7475 11.5464 20.7443 11.462 20.7529 11.4053C20.7546 11.3911 20.7553 11.3768 20.755 11.3625L20.7561 11.3636Z" fill="#FF640B"/>
<path d="M20.7561 11.3636C20.7817 8.27142 18.1483 5.43692 14.8861 5.04452C14.8156 5.03573 14.7453 5.02503 14.6754 5.01245C14.5114 4.98105 14.3452 4.96317 14.1782 4.95898C13.5089 4.95898 13.3304 5.42944 13.2833 5.70851C13.2373 5.98116 13.2812 6.21104 13.4127 6.3896C13.634 6.69005 14.0243 6.74351 14.3376 6.78628C14.4284 6.79911 14.5151 6.81087 14.5878 6.82691C17.5196 7.48234 18.5064 8.51199 18.9887 11.4192C19.0004 11.4898 19.0058 11.5774 19.0122 11.6705C19.0336 12.018 19.0763 12.7407 19.8536 12.7407C19.9178 12.7407 19.9884 12.7354 20.0611 12.7247C20.7839 12.6146 20.7614 11.9538 20.7507 11.6362C20.7475 11.5464 20.7443 11.462 20.7529 11.4053C20.7546 11.3911 20.7553 11.3768 20.755 11.3625L20.7561 11.3636Z" fill="url(#paint0_linear_1_1029)"/>
<path d="M13.9882 3.90939C14.0759 3.91581 14.1571 3.92223 14.2256 3.93185C19.0402 4.67282 21.2546 6.95345 21.8673 11.8056C21.8779 11.8879 21.8801 11.9884 21.8812 12.0942C21.8876 12.4738 21.9004 13.2629 22.7472 13.2789H22.7729C23.0391 13.2789 23.2498 13.1987 23.4016 13.0405C23.6646 12.7657 23.6475 12.3562 23.6315 12.0269C23.6283 11.9456 23.625 11.8697 23.625 11.8024C23.6871 6.84119 19.3909 2.34085 14.4341 2.17406C14.4127 2.17406 14.3934 2.17406 14.3742 2.17726C14.3547 2.17972 14.335 2.1808 14.3154 2.18047C14.2651 2.18047 14.2052 2.17619 14.14 2.17192C14.063 2.16657 13.9743 2.16016 13.8834 2.16016C13.0943 2.16016 12.9446 2.7215 12.9254 3.05616C12.8816 3.8292 13.6289 3.88373 13.9882 3.90939ZM21.6352 18.0765C21.5319 17.998 21.4296 17.9181 21.3284 17.837C20.8023 17.4136 20.2431 17.0244 19.7032 16.647L19.3664 16.4117C18.6735 15.9253 18.0512 15.689 17.4631 15.689C16.6698 15.689 15.9791 16.1273 15.4081 16.9902C15.1558 17.373 14.8489 17.559 14.4715 17.559C14.2093 17.5499 13.9521 17.4854 13.7166 17.3698C11.4819 16.3561 9.88454 14.8015 8.97142 12.7497C8.52984 11.7574 8.67311 11.1095 9.44936 10.5813C9.89095 10.2819 10.711 9.72486 10.6544 8.65672C10.5881 7.44529 7.91397 3.7982 6.78701 3.38441C6.30524 3.20867 5.77715 3.20716 5.29439 3.38013C3.99956 3.8153 3.07148 4.58086 2.60637 5.59127C2.1573 6.56854 2.17869 7.71581 2.66411 8.90905C4.07013 12.3594 6.04605 15.3682 8.53839 17.8509C10.9773 20.2812 13.9754 22.2711 17.4482 23.7669C17.7615 23.9016 18.0897 23.9754 18.3303 24.0288C18.4115 24.047 18.4821 24.0631 18.5334 24.077C18.5617 24.0846 18.5908 24.0885 18.62 24.0887H18.6478C20.2816 24.0887 22.2436 22.5961 22.8456 20.895C23.3738 19.4045 22.4093 18.6678 21.6352 18.0765ZM14.711 7.8516C14.4319 7.85801 13.8492 7.87298 13.645 8.46533C13.5487 8.74332 13.5605 8.98283 13.6792 9.18063C13.8524 9.46932 14.1849 9.55914 14.4864 9.60832C15.5824 9.78367 16.1459 10.3888 16.2581 11.5147C16.3105 12.0386 16.6644 12.4054 17.1167 12.4054C17.151 12.4053 17.1853 12.4032 17.2194 12.399C17.7647 12.3348 18.0288 11.9339 18.0052 11.2079C18.0138 10.4509 17.6182 9.59121 16.9435 8.90691C16.2678 8.22048 15.453 7.83342 14.711 7.8516Z" fill="#FF640B"/>
<path d="M13.9882 3.90939C14.0759 3.91581 14.1571 3.92223 14.2256 3.93185C19.0402 4.67282 21.2546 6.95345 21.8673 11.8056C21.8779 11.8879 21.8801 11.9884 21.8812 12.0942C21.8876 12.4738 21.9004 13.2629 22.7472 13.2789H22.7729C23.0391 13.2789 23.2498 13.1987 23.4016 13.0405C23.6646 12.7657 23.6475 12.3562 23.6315 12.0269C23.6283 11.9456 23.625 11.8697 23.625 11.8024C23.6871 6.84119 19.3909 2.34085 14.4341 2.17406C14.4127 2.17406 14.3934 2.17406 14.3742 2.17726C14.3547 2.17972 14.335 2.1808 14.3154 2.18047C14.2651 2.18047 14.2052 2.17619 14.14 2.17192C14.063 2.16657 13.9743 2.16016 13.8834 2.16016C13.0943 2.16016 12.9446 2.7215 12.9254 3.05616C12.8816 3.8292 13.6289 3.88373 13.9882 3.90939ZM21.6352 18.0765C21.5319 17.998 21.4296 17.9181 21.3284 17.837C20.8023 17.4136 20.2431 17.0244 19.7032 16.647L19.3664 16.4117C18.6735 15.9253 18.0512 15.689 17.4631 15.689C16.6698 15.689 15.9791 16.1273 15.4081 16.9902C15.1558 17.373 14.8489 17.559 14.4715 17.559C14.2093 17.5499 13.9521 17.4854 13.7166 17.3698C11.4819 16.3561 9.88454 14.8015 8.97142 12.7497C8.52984 11.7574 8.67311 11.1095 9.44936 10.5813C9.89095 10.2819 10.711 9.72486 10.6544 8.65672C10.5881 7.44529 7.91397 3.7982 6.78701 3.38441C6.30524 3.20867 5.77715 3.20716 5.29439 3.38013C3.99956 3.8153 3.07148 4.58086 2.60637 5.59127C2.1573 6.56854 2.17869 7.71581 2.66411 8.90905C4.07013 12.3594 6.04605 15.3682 8.53839 17.8509C10.9773 20.2812 13.9754 22.2711 17.4482 23.7669C17.7615 23.9016 18.0897 23.9754 18.3303 24.0288C18.4115 24.047 18.4821 24.0631 18.5334 24.077C18.5617 24.0846 18.5908 24.0885 18.62 24.0887H18.6478C20.2816 24.0887 22.2436 22.5961 22.8456 20.895C23.3738 19.4045 22.4093 18.6678 21.6352 18.0765ZM14.711 7.8516C14.4319 7.85801 13.8492 7.87298 13.645 8.46533C13.5487 8.74332 13.5605 8.98283 13.6792 9.18063C13.8524 9.46932 14.1849 9.55914 14.4864 9.60832C15.5824 9.78367 16.1459 10.3888 16.2581 11.5147C16.3105 12.0386 16.6644 12.4054 17.1167 12.4054C17.151 12.4053 17.1853 12.4032 17.2194 12.399C17.7647 12.3348 18.0288 11.9339 18.0052 11.2079C18.0138 10.4509 17.6182 9.59121 16.9435 8.90691C16.2678 8.22048 15.453 7.83342 14.711 7.8516Z" fill="url(#paint1_linear_1_1029)"/>
<defs>
<linearGradient id="paint0_linear_1_1029" x1="16.922" y1="4.37621" x2="16.922" y2="13.6778" gradientUnits="userSpaceOnUse">
<stop stop-color="#FF9649"/>
<stop offset="1" stop-color="#FF5C00"/>
</linearGradient>
<linearGradient id="paint1_linear_1_1029" x1="12.7083" y1="0.51793" x2="12.7083" y2="26.7292" gradientUnits="userSpaceOnUse">
<stop stop-color="#FF9649"/>
<stop offset="1" stop-color="#FF5C00"/>
</linearGradient>
</defs>
</svg>
