<svg width="296" height="230" viewBox="0 0 296 230" fill="none" xmlns="http://www.w3.org/2000/svg">
    <path d="M253.052 186.062C253.052 186.062 251.789 180.591 250.526 179.749C248.841 178.907 243.789 197.846 247.999 202.896C247.999 202.896 256.841 197.004 253.052 186.062Z"
          fill="#883020"/>
    <path d="M157.05 176.803C157.892 169.227 151.997 166.281 149.892 166.702L170.524 144.817L221.472 178.486L280.842 187.745C280 192.375 282.947 196.162 279.158 199.108C267.368 199.95 223.999 199.529 210.946 194.058C189.051 185.22 161.261 178.065 157.05 176.803Z"
          fill="#EC7F23"/>
    <path opacity="0.5"
          d="M248.42 182.695L280.421 187.745C279.579 192.375 282.526 196.162 278.737 199.108C272.842 199.529 260.21 199.529 246.736 199.108C248.841 193.637 249.683 188.166 248.42 182.695Z"
          fill="#EC7F23"/>
    <path opacity="0.5"
          d="M170.103 144.817L183.156 153.655C184.419 158.706 186.103 163.335 186.945 168.386C187.787 173.436 188.208 178.907 191.998 182.695C197.051 186.903 204.209 190.27 210.104 192.796C212.209 193.637 214.314 194.9 216.841 195.742C214.314 195.321 211.788 194.479 210.104 194.058C189.051 185.22 161.261 178.065 157.05 176.803C157.892 169.227 151.997 166.281 149.892 166.702L170.103 144.817Z"
          fill="#EC7F23"/>
    <path d="M295.579 201.212C295.579 202.475 295.158 203.738 295.158 204.579C294.316 211.313 292.632 217.205 290.105 223.097C286.737 226.885 282.947 226.885 282.947 221.835C282.947 213.417 277.894 204.158 275.789 202.054C273.684 199.95 247.578 202.896 247.578 202.896C253.473 192.795 250.947 182.695 250.104 179.749C257.262 181.432 265.263 181.432 272.842 182.695C278.737 183.957 284.631 182.695 290.526 182.274C293.895 188.166 295.579 194.479 295.579 201.212Z"
          fill="#B31020"/>
    <path d="M255.578 180.591C257.262 187.745 255.157 195.742 251.368 202.476C249.262 202.896 247.999 202.896 247.999 202.896C253.894 192.796 251.368 182.695 250.525 179.749C251.789 180.17 253.894 180.591 255.578 180.591Z"
          fill="#FF6208"/>
    <path d="M292.211 210.472C294.316 199.108 290.947 191.533 288.421 182.695C289.263 182.695 290.105 182.695 290.947 182.695C294.316 188.587 295.579 194.9 296 201.634C296 202.896 295.579 204.159 295.579 205C294.737 211.734 293.053 217.626 290.526 223.518C289.263 225.202 287.579 226.044 286.316 226.044C289.684 221.835 291.368 213.839 292.211 210.472Z"
          fill="#803020"/>
    <path d="M210.525 182.273C210.525 182.273 207.998 181.011 207.156 181.432C206.314 181.852 208.84 188.586 213.893 194.478C218.946 200.37 221.893 199.529 221.893 199.529C221.893 199.529 221.893 185.219 210.525 182.273Z"
          fill="#883020"/>
    <path d="M139.786 179.748C140.208 179.328 156.208 161.231 156.208 160.81C158.734 157.443 165.471 146.08 170.103 145.238C174.735 144.396 183.998 154.918 180.629 165.439L186.524 203.317L228.209 166.281C232.841 169.648 234.525 176.802 234.525 176.802C234.525 176.802 191.577 234.881 177.682 229.41C163.787 223.939 154.524 184.378 154.524 184.378L139.786 179.748Z"
          fill="#F19D00"/>
    <path opacity="0.6"
          d="M156.629 160.81C159.155 157.443 165.892 146.08 170.524 145.238C175.156 144.396 184.419 154.918 181.05 165.439L186.945 203.317L228.63 166.281C233.262 169.648 234.946 176.802 234.946 176.802C234.946 176.802 228.209 186.061 218.946 197.004C215.998 190.691 210.525 184.378 204.63 191.112C199.998 196.583 194.103 200.791 189.051 206.263C186.103 209.63 183.998 213.417 182.314 217.626C183.156 214.259 183.577 211.313 183.998 208.367C184.419 204.158 183.577 199.95 182.735 195.741C180.208 185.22 175.998 175.54 170.945 165.86C170.524 165.439 170.103 165.439 169.682 165.86C167.998 167.543 166.734 169.648 165.892 171.752C164.208 175.119 161.261 178.065 158.734 181.011C157.892 181.853 158.734 182.694 159.576 182.694C162.524 182.274 165.471 181.853 168.84 181.853C166.313 183.536 163.366 183.957 161.261 186.061C159.155 188.166 159.155 190.691 159.576 193.216C160.418 197.425 160.84 201.212 161.261 205.421C157.471 194.899 155.366 185.22 155.366 185.22L140.629 181.011C140.208 179.328 156.208 161.231 156.629 160.81Z"
          fill="#F19D00"/>
    <path d="M254.315 163.335C255.157 164.176 255.578 165.018 256.42 165.86C260.21 171.331 263.578 176.802 266.105 182.694C266.526 187.745 263.999 190.691 260.21 186.903C254.315 181.011 244.21 178.486 241.262 178.065C238.315 178.065 222.314 199.108 222.314 199.108C219.367 187.745 210.525 182.273 207.577 181.011C213.893 176.802 219.367 170.91 225.683 166.701C230.736 163.335 234.104 158.284 237.894 153.655C243.789 155.338 249.262 159.126 254.315 163.335Z"
          fill="#DA3020"/>
    <path d="M218.104 186.903C219.788 188.586 220.63 190.27 221.893 192.374C222.314 192.795 223.157 194.899 223.999 196.582C222.735 198.266 221.893 199.108 221.893 199.108C218.946 187.744 210.104 182.273 207.156 181.011C207.998 180.59 208.419 180.169 209.262 179.748C212.63 181.852 215.577 183.957 218.104 186.903Z"
          fill="#FF6208"/>
    <path d="M255.157 168.385C252.21 164.597 247.999 161.23 243.788 158.705C241.262 157.443 238.315 156.18 235.788 154.917C236.209 154.497 236.63 154.076 237.052 153.655C243.367 155.338 248.841 158.705 253.894 163.335C254.736 164.176 255.157 165.018 255.999 165.86C259.789 171.331 263.157 176.802 265.684 182.694C265.684 185.219 265.263 186.903 264.42 187.745C265.684 181.852 258.526 172.173 255.157 168.385Z"
          fill="#803020"/>
    <path d="M102.733 120.407C102.733 120.407 69.8904 125.037 55.1532 116.619C40.8372 108.202 30.3106 94.3137 30.3106 94.3137C30.3106 94.3137 24.4158 92.2094 20.2052 100.206C20.2052 100.206 52.6269 136.4 69.0482 138.504C85.0485 140.608 102.312 140.608 102.312 140.608L102.733 120.407Z"
          fill="#EC7F23"/>
    <path opacity="0.5"
          d="M82.5222 127.141C82.5222 126.72 73.2588 125.037 69.0482 123.774C65.2587 122.932 61.4691 122.09 57.6796 120.828C50.1005 118.303 36.6265 108.202 36.2055 108.202C34.5212 109.465 31.9949 109.886 29.8896 109.886C23.9947 103.993 20.2052 99.7849 20.2052 99.7849C24.4158 91.7885 30.3106 93.8928 30.3106 93.8928C30.3106 93.8928 40.8372 107.781 55.1532 116.198C69.4693 124.616 102.733 119.986 102.733 119.986L102.312 140.188C102.312 140.188 95.154 140.188 85.8907 139.767C83.3643 135.979 82.9432 130.929 82.5222 127.141Z"
          fill="#EC7F23"/>
    <path d="M154.945 164.598C150.734 170.069 140.207 180.17 139.786 179.749C135.997 177.644 129.681 174.698 125.891 172.594C113.26 165.019 99.7856 157.443 90.5223 145.238C87.9959 142.292 86.3117 138.925 85.0485 135.137C83.7853 125.458 89.6802 119.986 94.7329 117.04C103.154 111.99 105.68 113.253 114.944 115.778C116.628 116.199 126.312 120.828 128.418 121.249C129.681 121.67 130.944 122.091 131.786 122.512C140.629 126.299 149.05 130.929 157.05 135.558C159.576 137.242 162.524 138.504 165.05 140.188C165.471 149.026 159.997 157.864 154.945 164.598Z"
          fill="#F3BC70"/>
    <path d="M94.7329 117.04C103.154 111.99 105.681 113.253 114.944 115.778C116.628 116.199 126.312 120.828 128.418 121.249C129.681 121.67 130.944 122.091 131.786 122.512C140.629 126.299 149.05 130.929 157.05 135.558C159.576 137.242 162.524 138.504 165.05 140.188C165.05 146.08 162.945 151.972 159.576 157.443C153.681 156.601 148.208 156.601 142.734 154.076C137.26 151.551 132.207 148.605 126.734 146.501C125.891 146.08 125.049 146.922 125.47 147.763C127.576 155.76 127.576 164.598 125.891 172.594C119.154 168.806 112.417 165.019 106.523 160.389C105.259 156.601 103.575 152.814 101.891 149.447C98.5225 142.713 93.0487 136.4 91.7855 128.825C91.7855 127.983 90.9434 127.983 90.1013 128.404C87.1538 130.929 85.8907 134.717 86.3117 138.925C85.8907 137.663 85.4696 136.821 85.0485 135.558C83.7854 125.458 90.1013 119.986 94.7329 117.04Z"
          fill="#F3BC70"/>
    <path d="M161.261 137.242C161.261 137.242 169.682 142.713 172.629 144.817C172.629 144.817 157.05 170.49 140.207 180.17L133.471 175.961C133.471 176.382 150.313 165.86 161.261 137.242Z"
          fill="#DA3020"/>
    <path d="M150.313 158.285C154.103 152.814 157.892 146.08 160.839 137.663C160.839 137.663 169.261 143.134 172.208 145.238C172.208 145.238 167.998 152.393 161.261 160.389C157.892 159.968 154.103 159.126 150.313 158.285Z"
          fill="#B31020"/>
    <path d="M141.892 179.328C141.471 179.749 140.629 180.169 140.207 180.59L133.471 176.382C133.471 176.382 134.313 175.961 135.576 175.119C137.681 176.382 139.786 178.065 141.892 179.328Z"
          fill="#B31020"/>
    <path d="M29.0474 111.148C25.2579 108.202 20.2051 99.7852 17.6788 95.9974C19.363 94.314 26.9421 89.6845 27.3632 88.8428C30.3106 92.6305 37.4686 96.4183 40.4161 98.9434C39.1529 102.31 32.4159 110.307 29.0474 111.148Z"
          fill="#FF6208"/>
    <path opacity="0.5"
          d="M30.7317 101.469C29.4685 100.206 28.6264 98.1017 26.9421 97.6809C24.8368 96.8391 21.8894 97.26 19.7841 96.8391C18.942 96.8391 18.0998 96.4183 17.6788 96.4183C17.6788 96.4183 17.6788 96.4183 17.6788 95.9974C19.363 94.314 26.9421 89.6845 27.3632 88.8428C30.3106 92.6305 37.4686 96.4183 40.4161 98.9434C39.995 100.627 37.8897 103.573 35.3633 106.098C33.6791 104.835 32.4159 103.152 30.7317 101.469Z"
          fill="#FF6208"/>
    <path d="M1.25738 84.6341C0.415262 82.1089 -0.0057987 80.4254 2.52057 79.1629C1.67844 75.3751 7.15224 74.5334 7.15224 74.5334C7.15224 74.5334 7.99436 69.9039 11.7839 68.6413C18.5209 66.1162 24.8368 76.6377 25.6789 76.6377C29.0474 78.3211 30.7316 82.5298 30.3106 86.7384C29.8895 90.947 27.3632 93.4721 24.4157 95.5764C17.6788 100.627 12.205 98.5225 7.99436 93.4721C1.67844 92.6304 -2.1111 86.3175 1.25738 84.6341Z"
          fill="#FF6208"/>
    <path d="M23.9947 76.2168C23.9947 76.2168 22.7315 76.2168 20.6262 76.2168C19.363 76.2168 18.5209 76.2168 16.8367 76.6377C15.9945 76.6377 15.5735 76.6377 14.7313 77.0585C13.8892 77.0585 13.0471 77.4794 12.205 78.3211C12.205 78.3211 12.205 78.3211 11.7839 78.742C11.7839 78.742 11.7839 78.742 11.7839 79.1628V79.5837C12.205 80.0045 12.626 80.4254 12.626 80.8463C13.4682 81.2671 13.8892 81.688 14.7313 81.688C15.9945 82.1088 17.2577 82.1089 18.5209 82.1089C19.7841 82.1089 20.6262 82.1088 21.0473 81.688C21.4683 81.688 21.8894 81.688 21.8894 81.688C21.8894 81.688 21.4683 81.688 21.0473 81.688C20.6262 81.688 19.363 81.688 18.5209 81.2671C17.6788 81.2671 16.4156 80.8463 15.1524 80.4254C14.7313 80.4254 13.8892 80.0045 13.4682 79.5837C13.0471 79.5837 13.0471 79.1628 13.0471 79.1628V78.742C13.4682 78.3211 13.8892 78.3211 14.7313 77.9002C15.1524 77.9002 15.9945 77.4794 16.4156 77.4794C17.6788 77.0585 18.942 77.0585 19.7841 76.6377C20.6262 76.6377 21.4683 76.2168 22.3104 76.2168C23.5736 76.6377 23.9947 76.2168 23.9947 76.2168Z"
          fill="#013B67"/>
    <path d="M7.1523 74.5332C7.1523 75.3749 7.1523 75.7958 7.1523 76.2166C7.1523 77.0584 7.15229 77.4792 7.57336 77.9001C7.57336 78.3209 7.99442 79.1627 7.99442 79.5835L8.41548 80.4253C8.41548 81.267 8.41548 81.6878 8.41548 82.1087L8.83654 82.9504C8.83654 83.3713 9.2576 83.3713 9.2576 83.7921L10.5208 85.4756C10.5208 85.8964 10.9418 85.8964 10.9418 86.3173L11.784 87.159L13.0471 88.4216C13.4682 88.8425 14.3103 88.8425 14.7314 89.2633C15.1525 89.2633 15.1525 89.2633 15.5735 89.2633C15.9946 89.2633 15.9946 89.2633 16.4156 89.2633C16.8367 89.2633 16.8367 89.2633 17.2578 89.2633C17.6788 89.2633 17.6788 89.2633 18.0999 89.2633C18.5209 89.2633 18.5209 89.2633 18.942 88.8425C19.3631 88.8425 19.3631 88.4216 19.7841 88.4216C20.2052 88.4216 20.2052 88.0007 20.6262 87.5799C21.0473 87.159 21.0473 87.159 21.0473 86.7382C21.0473 86.3173 21.0473 85.8964 21.0473 85.8964C21.0473 85.4756 21.0473 85.4756 21.0473 85.0547V83.7921C21.0473 83.3713 20.6262 83.3713 20.6262 82.9504C20.2052 82.5296 20.2052 82.1087 19.7841 81.267C19.7841 81.6878 20.2052 82.5296 20.2052 82.9504C20.2052 83.3713 20.2052 83.3713 20.2052 83.7921V84.6339V85.4756C20.2052 85.8964 20.2052 85.8964 20.2052 86.3173C20.2052 86.7382 20.2052 86.7382 19.7841 86.7382L19.3631 87.159C19.3631 87.159 18.942 87.5799 18.5209 87.5799C18.0999 87.5799 18.0999 87.5799 17.6788 87.5799C17.2578 87.5799 17.2578 87.5799 16.8367 87.5799C16.4156 87.5799 16.4156 87.5799 15.9946 87.5799C15.5735 87.5799 15.5735 87.5799 15.1525 87.5799C14.7314 87.5799 14.7314 87.5799 14.3103 87.5799C13.8893 87.5799 13.4682 87.159 13.0471 87.159L11.3629 85.8964L10.9418 85.0547C10.5208 85.0547 10.5208 84.6339 10.5208 84.213L9.2576 82.9504C9.2576 82.5296 8.83654 82.5296 8.83654 82.1087L8.41548 81.267C8.41548 80.8461 7.99442 80.8461 7.99442 80.4253L8.83654 80.0044C8.41548 79.5835 8.41548 78.7418 7.99442 78.321C7.99442 77.9001 7.57336 77.0584 7.57336 76.6375C7.15229 75.7958 7.1523 75.3749 7.1523 74.5332Z"
          fill="#013B67"/>
    <path d="M15.9945 73.6914C15.9945 73.6914 15.5735 74.1123 15.5735 74.5331C15.5735 74.954 15.9945 75.3749 16.4156 75.7957C16.4156 75.7957 16.8366 76.2166 17.2577 76.6374C17.6788 77.0583 17.6788 77.0583 17.6788 77.0583C17.6788 77.0583 17.6788 76.6374 17.6788 76.2166C17.6788 75.7957 17.6788 75.3748 17.2577 74.954C16.8366 74.5331 16.8366 74.1123 16.4156 73.6914C15.9945 73.6914 15.9945 73.6914 15.9945 73.6914Z"
          fill="#013B67"/>
    <path d="M2.5206 79.1626C2.5206 80.0043 2.94166 80.4252 2.94166 80.846C3.36273 81.2669 3.36273 82.1086 3.78379 82.5295C4.20485 83.7921 4.62591 84.2129 4.62591 84.6338C5.04697 85.0547 5.46803 85.8964 5.88909 86.3172C5.88909 86.7381 5.88909 87.159 6.31015 87.159C6.73121 87.5798 7.15227 87.5798 7.15227 87.5798C7.99439 88.4215 8.41545 88.8424 8.83652 88.8424C9.25758 88.8424 9.25758 89.2633 9.67864 89.2633C10.0997 89.2633 10.0997 89.6841 10.5208 89.6841C10.9418 89.6841 11.3629 90.105 11.3629 90.105H12.205H12.6261H13.0471H13.4682C13.4682 90.105 13.4682 90.105 13.8892 89.6841L14.3103 89.2633C14.3103 88.8424 14.3103 88.8424 14.3103 88.4215C14.3103 88.8424 14.3103 88.8424 13.8892 88.8424L13.4682 89.2633C13.4682 89.2633 13.4682 89.2633 13.0471 89.2633H12.6261C12.6261 89.2633 12.6261 89.2633 12.205 89.2633H13.0471L12.205 88.8424C11.7839 88.8424 11.7839 88.4215 11.3629 88.4215C10.9418 88.4215 10.9418 88.0007 10.5208 88.0007C10.0997 88.0007 10.0997 87.5798 9.67864 87.5798C9.25758 87.159 8.83652 86.7381 8.41546 86.3172C7.99439 85.8964 7.57333 85.4755 7.15227 85.0547C6.31015 84.2129 5.46803 82.9503 4.62591 82.1086C3.78379 81.6878 3.36273 80.4252 2.5206 79.1626Z"
          fill="#013B67"/>
    <path d="M1.2574 84.6338C1.2574 84.6338 1.67846 85.4755 2.09953 86.3172C2.94165 87.5798 3.78377 88.8424 5.46801 89.6841C5.88907 90.105 6.31013 90.105 6.73119 90.105C7.15226 90.5258 7.15226 90.5258 7.57332 90.5258C7.99438 90.5258 8.8365 90.5258 9.25756 90.5258C9.67862 90.5258 10.0997 90.5258 10.5207 90.5258C10.9418 90.5258 10.9418 90.105 11.3629 90.105C11.7839 90.105 11.7839 89.6841 11.7839 89.6841C12.205 89.2633 12.205 89.2633 12.205 89.2633H11.7839H11.3629C10.9418 89.2633 10.9418 89.2633 10.5207 89.2633C10.0997 89.2633 10.0997 89.2633 9.67862 89.2633C9.25756 89.2633 8.8365 89.2633 8.8365 88.8424C8.41544 88.8424 7.99438 88.4215 7.99438 88.4215C7.57332 88.4215 7.15226 88.0007 7.15226 88.0007C5.46801 88.4215 4.62589 88.0007 4.20483 87.5798C3.78377 87.159 2.94165 86.7381 2.52059 86.3172C1.67846 85.4755 1.2574 84.6338 1.2574 84.6338Z"
          fill="#013B67"/>
    <path d="M10.5208 90.105L10.0998 90.5258C10.0998 90.9467 9.67869 91.7884 9.67869 92.2093L7.99445 93.051C7.99445 93.051 8.41551 93.051 8.83657 93.051C9.25763 93.051 9.25763 93.051 9.67869 93.051C10.0998 93.051 10.0998 92.6302 10.5208 92.6302C10.9419 92.2093 10.9419 92.2093 10.9419 91.7884C10.9419 91.3676 10.9419 91.3676 10.9419 90.9467C10.9419 90.5258 10.5208 90.105 10.5208 90.105Z"
          fill="#013B67"/>
    <path d="M117.891 120.407C119.997 123.774 120.839 128.404 121.26 131.771C122.523 137.663 123.786 143.555 124.628 149.447C125.891 157.022 125.891 165.019 125.47 172.594C123.365 198.267 81.68 167.123 81.68 167.123L85.0485 156.601C85.0485 156.601 107.365 170.069 109.049 165.86C109.891 163.335 100.207 137.663 99.7857 137.242C98.1014 133.033 99.3646 128.404 101.47 124.616C103.575 121.249 106.944 117.041 111.154 117.041C114.523 116.62 116.207 118.303 117.891 120.407Z"
          fill="#F09E3A"/>
    <path opacity="0.6"
          d="M106.944 131.35C106.523 131.35 105.681 131.771 105.681 132.191C106.102 136.4 108.207 140.188 109.891 144.396C111.575 149.447 113.26 154.918 113.26 159.968C113.26 162.493 112.839 165.86 114.523 167.965C116.628 170.49 119.154 172.173 121.26 174.278C117.049 172.173 113.26 170.069 108.207 169.227C107.786 169.227 107.365 169.227 106.944 170.069C106.523 173.436 105.681 176.803 104.838 180.17C93.4698 175.961 81.259 166.702 81.259 166.702L84.6275 156.181C84.6275 156.181 106.944 169.648 108.628 165.439C109.47 162.914 99.7857 137.242 99.3646 136.821C97.6804 132.612 98.9436 127.983 101.049 124.195C103.154 120.828 106.523 116.62 110.733 116.62C113.681 116.62 115.786 118.303 117.049 120.407C119.154 123.774 119.997 128.404 120.418 131.771C121.681 137.663 122.944 143.555 123.786 149.447V149.868C121.26 142.292 114.944 134.296 106.944 131.35Z"
          fill="#F19D00"/>
    <path d="M102.733 183.116C91.3645 178.907 77.4695 166.702 77.4695 166.702L85.8907 155.76C85.8907 155.76 97.2593 162.073 106.102 163.335C106.944 167.544 103.996 179.328 102.733 183.116Z"
          fill="#FF6208"/>
    <path d="M91.7855 159.127C90.1013 159.127 88.8381 159.547 87.996 160.81C85.8907 163.756 83.7854 167.123 80.838 169.227C78.7326 167.544 77.4695 166.281 77.4695 166.281L85.8907 155.339C85.8907 155.339 93.4698 159.547 100.628 161.652C97.2593 161.231 93.8908 159.547 91.7855 159.127Z"
          fill="#FF6208"/>
    <path d="M63.5745 157.443C63.5745 157.443 63.1534 154.497 65.6798 151.972C65.6798 151.972 65.2587 148.605 69.0483 146.921C69.0483 146.921 69.4694 141.871 73.68 142.292C77.8906 142.292 79.5748 146.501 79.5748 146.501C79.5748 146.501 80.838 145.659 82.5222 145.238C85.0486 146.501 87.1539 148.605 87.575 151.13C87.996 153.655 87.575 155.76 86.3118 157.864C85.0486 160.81 82.9433 163.335 80.838 165.86C78.3116 167.123 76.2063 170.069 70.7325 166.702C65.2587 163.335 62.7324 159.547 63.5745 157.443Z"
          fill="#FF6208"/>
    <path d="M83.3644 149.446C83.3644 149.446 82.9434 149.867 81.6802 149.867C80.8381 149.867 79.5749 149.867 78.3117 149.867C77.8906 149.867 77.8906 149.446 77.4696 149.446C77.0485 149.446 77.0485 149.026 76.6275 149.026C76.2064 149.026 76.2064 148.605 75.7853 148.184C75.7853 147.763 75.3643 147.763 75.3643 147.342C75.3643 146.921 75.3643 146.921 74.9432 146.5V146.08C74.9432 145.659 74.9432 145.659 74.9432 145.659C74.9432 145.659 74.9432 145.659 74.9432 146.08V146.5L75.3643 146.921L75.7853 147.342C75.7853 147.342 76.2064 147.763 76.6275 147.763C77.0485 147.763 77.0485 148.184 77.4696 148.184C77.8906 148.184 77.8906 148.605 78.3117 148.605C78.7328 148.605 79.5749 149.026 79.9959 149.026C80.417 149.026 81.2591 149.026 81.6802 149.026C82.9434 149.446 83.3644 149.446 83.3644 149.446Z"
          fill="#013B67"/>
    <path d="M79.5748 146.501C79.5748 146.501 79.5748 146.922 79.1537 146.922C79.1537 146.922 79.1537 147.342 78.7327 147.342L78.3116 147.763L77.8906 148.184L77.4695 148.605C77.4695 148.605 77.4695 148.605 77.0484 149.026C77.0484 149.026 77.0484 149.026 77.0484 148.605C77.0484 148.605 77.0484 148.605 77.0484 148.184C77.0484 148.184 77.0484 148.184 77.0484 147.763L77.4695 147.342C77.8906 146.922 78.3116 146.922 78.3116 146.922C79.1537 146.08 79.5748 146.501 79.5748 146.501Z"
          fill="#013B67"/>
    <path d="M71.5747 151.551C71.5747 151.551 71.1536 151.551 70.7326 151.13C70.7326 151.13 70.3115 151.13 70.3115 150.709C70.3115 150.709 69.8904 150.709 69.8904 150.288C69.4694 149.867 69.4694 149.447 69.0483 149.026C69.0483 149.026 69.0483 149.026 69.0483 148.605V148.184V147.763V147.342C69.0483 146.921 69.0483 146.5 69.0483 146.5C69.0483 146.5 69.0483 146.921 69.4694 147.342C69.4694 147.763 69.8904 147.763 69.8904 148.184C69.8904 148.605 70.3115 148.605 70.3115 149.026C70.3115 149.026 70.3115 149.447 70.7326 149.447C70.7326 149.447 70.7326 149.867 71.1536 149.867C71.1536 150.288 71.5747 150.288 71.5747 150.709C71.5747 151.551 71.5747 151.551 71.5747 151.551Z"
          fill="#013B67"/>
    <path d="M67.7851 156.601C67.7851 156.601 67.3641 156.601 66.943 156.18C66.943 156.18 66.522 155.759 66.1009 155.339C65.6798 154.918 65.6798 154.918 65.6798 154.918C65.6798 154.497 65.2588 154.497 65.2588 154.076C65.2588 153.655 65.2588 153.655 65.2588 153.234C65.2588 152.813 65.2588 152.393 65.2588 152.393C65.2588 152.393 65.2588 152.813 65.6798 153.234C65.6798 153.234 66.1009 153.655 66.1009 154.076C66.1009 154.076 66.1009 154.497 66.522 154.497C66.522 154.497 66.522 154.918 66.943 154.918C66.943 155.339 67.3641 155.339 67.3641 155.759C67.3641 156.18 67.7851 156.18 67.7851 156.601C67.7851 156.601 67.7851 156.18 67.7851 156.601Z"
          fill="#013B67"/>
    <path d="M66.1008 160.389C66.1008 160.389 65.6798 160.389 65.2587 160.389C65.2587 160.389 64.8377 160.389 64.4166 159.968C63.9955 159.968 63.9955 159.126 63.5745 159.126C63.5745 158.705 63.1534 159.126 63.1534 158.705V158.285V157.864C63.1534 157.443 63.1534 157.022 63.1534 157.022L63.5745 157.443C63.5745 157.443 63.5745 157.443 63.5745 157.864C63.5745 157.864 63.5745 157.864 63.5745 158.285C63.5745 158.285 63.5745 158.285 63.9955 158.705L64.4166 159.126C64.4166 159.126 64.4166 159.126 64.8377 159.547C64.8377 159.547 64.8377 159.547 65.2587 159.968L65.6798 160.389C66.1008 159.968 66.1008 160.389 66.1008 160.389Z"
          fill="#013B67"/>
    <path d="M74.522 133.454C74.522 133.875 74.943 134.716 75.3641 134.716C79.9958 134.296 85.0485 130.508 88.417 127.562C90.5223 125.458 93.0487 123.353 94.7329 121.249C94.3118 122.512 93.8908 123.353 93.8908 123.774C93.0487 127.141 93.0487 130.508 93.4697 133.875C93.8908 136.821 94.7329 139.767 95.9961 142.292C96.4171 143.134 98.1014 147.342 99.3646 147.763C103.575 149.026 103.575 135.137 103.575 133.033C103.575 129.666 102.733 125.878 101.47 122.932C101.049 121.67 99.3646 115.778 97.6803 115.357V114.936C97.6803 114.936 97.6803 114.936 97.2593 114.936C91.3644 113.253 84.2064 115.778 80.4168 121.249C77.8905 122.932 74.1009 129.245 74.522 133.454Z"
          fill="#FF6208"/>
    <path d="M87.5749 121.249C84.2064 121.67 81.6801 123.774 79.1537 126.299C77.8905 127.562 76.6273 128.824 75.7852 130.087C78.3116 125.878 81.6801 121.67 84.6275 118.724C85.0485 118.303 85.0485 117.461 84.2064 117.04C83.3643 117.04 82.5222 117.04 81.6801 117.04C85.8907 113.252 91.7855 111.569 96.8382 112.832C96.8382 112.832 96.8382 112.832 97.2593 112.832V113.252C98.9436 113.673 100.628 119.565 101.049 120.828C101.891 123.353 102.733 126.299 102.733 129.245C101.891 127.141 101.049 125.036 99.7857 123.353C99.3646 122.932 98.5225 122.932 98.1014 123.774C97.2593 127.141 97.2593 130.929 97.6804 134.716C97.2593 131.77 96.4172 128.403 95.9961 125.457C95.9961 124.616 94.7329 124.195 94.3119 125.036C93.4698 126.72 93.0487 128.403 92.6276 130.508C92.6276 127.983 92.6276 125.457 93.4698 122.511C93.4698 122.09 93.8908 121.249 94.3119 119.986C92.6276 122.511 90.5223 124.616 87.996 126.299C85.8907 127.983 82.9432 130.508 79.9958 131.77C83.3643 129.245 86.3117 125.457 88.417 121.67C88.8381 122.09 88.417 121.249 87.5749 121.249Z"
          fill="#FF6208"/>
    <path d="M93.0487 111.148C92.6276 110.306 92.6276 109.465 93.4697 108.623C94.7329 107.36 97.2593 106.519 98.5225 105.677C99.3646 105.256 99.7856 105.256 100.628 104.835C105.259 109.886 112.839 113.252 119.154 115.357C133.049 119.565 147.787 119.145 161.682 114.094C179.366 107.781 192.84 95.1554 209.261 86.3173C218.525 81.267 228.63 79.1627 238.736 77.0584C247.999 74.9541 256.841 73.6915 266.105 74.1124C272 87.5799 268.631 104.414 272 118.724C272.842 123.774 275.368 127.983 277.052 132.612C277.894 135.558 278.315 138.925 277.894 142.292C277.052 145.238 275.789 147.763 274.947 150.288C273.684 154.918 274.526 158.285 276.21 162.493C277.052 165.018 278.315 167.544 279.158 170.069C277.052 167.964 275.368 165.439 273.263 163.335C269.473 159.968 265.263 157.443 261.052 154.918C252.21 149.867 242.525 147.763 232.841 148.605C215.998 149.867 200.84 158.705 183.577 159.126C165.892 159.126 149.05 153.655 133.471 145.659C125.049 141.45 117.891 135.558 110.733 129.245C107.365 126.299 104.417 123.353 101.47 120.407C99.7856 118.724 98.1014 115.357 95.9961 113.673V114.094V114.515C95.9961 114.936 95.575 114.515 95.154 114.515C94.7329 113.673 94.3118 113.252 93.8908 112.411C93.4697 112.411 93.4697 111.99 93.0487 111.99C93.0487 111.99 92.6276 111.148 93.0487 111.148C93.0487 111.148 92.6276 111.148 93.0487 111.148Z"
          fill="#FF6208"/>
    <path opacity="0.5"
          d="M274.105 154.076C272.842 153.234 270.736 152.393 269.052 151.972C266.105 150.709 263.157 149.026 260.21 147.763C249.683 143.134 239.157 138.925 227.788 136.4C239.578 135.979 251.789 139.346 263.157 143.134C266.526 144.396 270.315 145.238 273.684 143.134C276.631 141.029 277.052 135.979 275.789 132.612C271.157 119.986 254.315 120.828 243.367 120.828C237.894 120.828 231.157 120.407 224.841 121.249C231.157 119.565 237.473 118.724 243.367 117.882C249.262 117.461 254.736 117.461 260.631 117.04C263.157 117.04 266.526 116.619 267.789 114.094C269.473 110.727 269.052 107.36 268.21 103.994C267.368 98.5223 268.631 93.8928 269.052 88.4217C269.052 87.5799 269.052 86.7382 269.052 85.8965C270.736 96.418 269.473 108.202 271.578 118.724C272.421 123.774 274.947 127.983 276.631 132.612C277.473 135.558 277.894 138.925 277.473 142.292C276.631 145.238 275.368 147.763 274.526 150.288C274.526 151.551 274.105 152.813 274.105 154.076Z"
          fill="#FF6208"/>
    <path opacity="0.5"
          d="M92.6276 110.728C93.0487 110.728 93.0487 110.728 93.4698 111.148C93.0487 110.307 93.0487 109.465 93.8908 108.623C95.154 107.361 97.6804 106.519 98.9435 105.677C99.7857 105.256 100.207 105.256 101.049 104.835C105.681 109.886 113.26 113.253 119.576 115.357C123.786 116.62 127.997 117.461 132.207 117.882C141.892 120.828 152.418 122.512 162.103 120.828C167.155 119.986 171.787 118.303 176.419 116.62C187.366 114.094 197.893 109.886 208.419 105.256C221.051 99.7851 233.683 95.5765 246.736 93.8931C239.157 96.4182 231.578 100.206 224.841 103.994C213.893 110.307 203.367 117.882 191.998 123.353C179.787 129.245 166.734 129.666 153.681 133.033C152.839 133.454 174.734 136.821 185.261 135.137C189.893 134.296 194.524 133.875 198.735 132.191C199.156 132.191 199.577 131.771 199.577 131.771C183.156 139.767 165.05 141.03 146.523 141.03C145.26 141.03 170.103 151.551 182.735 151.551C193.682 151.551 204.209 148.184 214.735 146.501C227.367 143.976 242.104 143.555 254.315 149.447C257.683 151.13 260.631 153.234 263.157 155.76C262.315 155.339 261.894 154.918 261.052 154.497C252.21 149.447 242.525 147.342 232.841 148.184C215.998 149.447 200.84 158.285 183.577 158.706C165.892 158.706 149.05 153.234 133.471 145.238C125.049 141.03 117.891 135.137 110.733 128.825C107.365 125.879 104.417 122.932 101.47 119.986C99.7857 118.303 98.1014 114.936 95.9961 113.253V113.674V114.094C95.9961 114.515 95.5751 114.094 95.154 114.094C94.7329 113.253 94.3119 112.832 93.8908 111.99C93.4697 111.99 93.4697 111.569 93.0487 111.569C92.2066 111.569 92.2066 110.728 92.6276 110.728Z"
          fill="#FF6208"/>
    <path d="M92.2065 95.5767L100.628 109.886C100.628 109.886 96.4172 125.879 92.2065 122.933C87.5749 119.987 79.9958 104.415 79.9958 104.415L92.2065 95.5767Z"
          fill="#B31020"/>
    <path d="M189.471 16.4549C189.893 12.2463 185.261 8.87941 185.261 8.87941C184.419 12.2463 179.787 13.9297 179.787 13.9297C182.735 11.4046 184.84 5.93339 184.84 5.93339C180.629 -0.80039 173.05 -0.379529 173.05 0.462193C173.05 9.72113 163.366 14.7715 154.523 10.9837C145.26 7.19597 137.681 5.93338 129.681 10.9837C121.681 16.4549 125.049 24.8721 125.049 24.8721C125.049 24.8721 124.628 50.5446 137.681 42.9692C151.155 35.3937 154.102 51.8072 173.471 46.336C192.84 40.8648 187.787 23.1887 187.787 23.1887C183.577 26.5556 181.471 24.8721 181.471 24.8721C185.261 24.0304 189.05 20.6635 189.471 16.4549Z"
          fill="#8D1113"/>
    <path d="M185.682 8.87939C185.682 9.30026 185.682 9.30026 185.261 9.72112C186.524 13.9297 186.524 18.5592 185.682 23.1887C187.787 21.0844 189.05 18.9801 189.472 16.4549C190.314 12.2463 185.682 8.87939 185.682 8.87939Z"
          fill="#8D1113"/>
    <path d="M185.261 24.872C185.261 25.2929 185.261 25.7138 184.84 26.5555C182.313 34.9727 175.998 39.1813 167.576 38.7604C162.945 37.9187 159.997 34.9727 155.787 33.2893C151.155 31.1849 146.944 31.6058 141.892 31.1849C141.471 31.1849 141.05 30.7641 141.05 30.3432C143.155 24.4512 149.471 24.872 154.523 25.2929C149.892 23.1886 145.26 23.6095 140.207 24.0303C138.102 24.0303 133.891 24.4512 133.47 21.5051C132.628 17.2965 136.839 14.7714 141.05 13.5088C136.418 13.9297 132.207 16.8757 127.576 18.98C127.155 19.4008 126.733 18.98 126.312 18.5591C126.312 17.2965 125.891 16.034 126.312 14.7714C123.786 19.4008 125.47 24.4512 125.47 24.4512C125.47 24.4512 125.049 50.1237 138.102 42.5482C151.576 34.9727 154.523 51.3863 173.892 45.9151C193.261 40.4439 188.208 22.7677 188.208 22.7677C187.366 24.0303 186.103 24.4512 185.261 24.872Z"
          fill="#8D1113"/>
    <path d="M134.734 66.5375C132.628 53.4908 123.786 42.5484 113.26 35.3938C101.47 26.9766 86.7327 19.8219 71.9956 19.4011C61.469 18.9802 52.2057 24.8723 46.3109 32.8686C44.6266 34.5521 43.3634 36.6564 42.1002 38.7607C41.2581 40.4441 40.8371 41.7067 40.416 43.3902C40.416 43.811 40.416 43.811 39.9949 44.2319C39.9949 44.2319 39.9949 44.2319 39.9949 44.6527C38.7318 50.5448 39.1528 56.8577 37.8896 62.7498C35.7843 71.167 30.7316 78.7425 31.5737 88.0014C31.9948 95.9978 37.0475 102.311 42.9424 107.361C52.2057 114.516 65.2586 117.883 76.6272 117.883C90.5222 117.883 109.049 107.782 119.997 98.9438C120.418 98.5229 120.839 98.1021 121.681 97.6812C125.891 94.7352 129.681 90.9475 132.628 86.318C135.997 80.0051 135.997 72.8504 134.734 66.5375Z"
          fill="#F4D9BF"/>
    <path d="M68.6271 58.9618C78.3115 60.2243 106.523 68.2207 100.207 84.6343C97.2592 92.2098 90.5222 92.6306 82.5221 92.2098C78.3115 92.2098 73.6798 90.9472 69.8903 88.8429C66.5218 86.7386 64.4165 84.2134 61.469 81.6883C57.6795 78.7422 53.0478 77.0588 48.8372 79.1631C45.0477 80.8465 40.8371 84.6343 36.6265 82.1091C34.5211 80.8465 33.679 79.1631 33.258 77.4796C34.5211 72.4293 37.0475 67.379 38.7318 61.9078C39.1528 60.6452 39.1528 59.3826 39.5739 58.12C42.5213 57.6992 45.4687 57.6992 47.153 57.2783C53.8899 57.2783 61.469 58.12 68.6271 58.9618Z"
          fill="#DA3020"/>
    <path d="M62.7322 75.7961C71.1535 77.4795 79.1536 81.2673 84.2063 88.4219C82.101 87.1593 79.5747 86.3176 77.4694 85.4759C72.4166 82.9507 66.9429 80.4255 61.4691 79.163C53.4689 77.0586 44.6266 75.7961 36.2054 76.2169C39.5739 75.3752 42.9424 74.9543 46.7319 74.9543C51.7847 74.5335 57.6795 74.5335 62.7322 75.7961Z"
          fill="#DA3020"/>
    <path d="M67.3638 110.728C61.469 110.307 55.5741 106.098 52.2056 101.469C60.2058 104.836 71.9955 102.311 78.7325 97.2603C77.8904 103.573 74.9429 111.149 67.3638 110.728Z"
          fill="#930323"/>
    <path d="M77.8904 101.048C78.3115 99.7854 78.7326 98.5228 78.7326 97.2603C73.6798 100.627 66.1007 103.152 58.9427 102.731C64.8375 109.044 71.9956 105.677 77.8904 101.048Z"
          fill="white"/>
    <path d="M72.4166 106.519C69.8903 107.361 67.785 109.044 65.6797 110.307C66.1007 110.307 66.9429 110.728 67.3639 110.728C71.5745 111.148 74.5219 108.623 76.2062 105.677C74.943 105.677 73.6798 106.098 72.4166 106.519Z"
          fill="#F9CBC0"/>
    <path d="M47.574 70.7458C47.1529 73.271 45.8898 75.3753 45.0476 74.9544C44.2055 74.9544 43.7845 72.4293 44.2055 69.9041C44.6266 67.3789 45.8898 65.2746 46.7319 65.6955C47.574 66.1164 47.9951 68.2207 47.574 70.7458Z"
          fill="#3D1A0B"/>
    <path d="M45.8898 68.6419C45.8898 69.4837 45.4687 69.9045 45.0476 69.9045C44.6266 69.9045 44.6266 69.0628 45.0476 68.2211C45.0476 67.3794 45.4687 66.9585 45.8898 66.9585C46.3108 66.9585 46.3108 67.8002 45.8898 68.6419Z"
          fill="white"/>
    <path d="M77.4693 74.9545C77.0483 78.3214 75.7851 80.4257 74.5219 80.4257C73.6798 80.0048 73.2587 77.4797 73.6798 74.1128C74.1008 70.7459 75.364 68.6416 76.6272 68.6416C77.4693 69.0625 77.8904 71.5876 77.4693 74.9545Z"
          fill="#3D1A0B"/>
    <path d="M75.7851 72.0086C75.364 72.8503 74.943 73.692 74.943 73.692C74.5219 73.692 74.5219 72.8503 74.943 71.5877C75.364 70.746 75.7851 69.9043 75.7851 69.9043C75.7851 70.3252 75.7851 71.1669 75.7851 72.0086Z"
          fill="white"/>
    <path d="M59.3637 79.5838C59.3637 79.5838 58.9427 79.5838 59.3637 79.5838C58.5216 82.9507 53.8899 78.3212 52.2057 79.5838C49.2583 81.2672 53.0478 85.8967 54.311 87.1593C54.311 87.1593 54.7321 87.1593 54.311 87.1593C53.4689 85.8967 52.6268 84.2133 52.2057 82.5298C52.2057 81.6881 52.2057 80.4255 53.0478 80.4255C53.8899 80.4255 54.311 80.8464 54.7321 81.2672C55.5742 81.6881 57.2584 82.5298 58.1006 82.109C59.3637 82.109 59.3637 80.8464 59.3637 79.5838Z"
          fill="#C39368"/>
    <path d="M77.8904 93.8933C77.4694 93.4724 77.4694 93.8933 77.8904 93.8933C77.8904 94.735 77.8904 95.5767 78.3115 95.9976C67.785 102.731 48.8372 105.677 43.7845 90.5264H43.3634C44.6266 95.9976 47.574 98.9436 51.3636 101.048C53.89 106.519 61.8901 111.99 68.206 111.99C75.7851 111.99 78.7326 103.994 79.9957 97.681C80.8379 98.5227 82.101 98.1019 83.3642 97.681C82.5221 97.681 81.68 97.2601 80.8379 96.8393C79.5747 95.9976 78.3115 95.1558 77.8904 93.8933ZM67.3639 110.728C61.4691 110.307 55.5742 106.098 52.2057 101.469C60.2059 104.836 71.9956 102.31 78.7326 97.2601C77.8904 103.573 74.943 111.149 67.3639 110.728Z"
          fill="#C39368"/>
    <path d="M79.5746 53.4907C75.7851 53.4907 71.9955 56.8576 70.3113 59.8036C70.3113 59.8036 70.3113 60.2245 70.7323 59.8036C72.8377 57.6993 75.7851 54.7533 79.1536 55.1742C82.9431 55.595 84.2063 60.6454 85.8905 63.1705C86.3116 64.0122 87.1537 63.1705 87.1537 62.7497C87.5748 58.5411 84.2063 53.4907 79.5746 53.4907Z"
          fill="#8D1113"/>
    <path d="M48.4161 50.5445C45.0477 50.9654 42.1002 56.0157 43.7845 58.9618C43.7845 59.3826 44.6266 59.3826 44.6266 58.9618C45.4687 56.8575 45.8898 54.3323 47.574 53.0697C50.9425 50.5445 53.4689 56.0157 54.311 58.12C54.311 58.5409 54.7321 58.5409 54.7321 58.12C55.5742 54.3323 52.2057 49.7028 48.4161 50.5445Z"
          fill="#8D1113"/>
    <path d="M143.576 57.6991C141.892 42.5481 135.155 27.818 122.523 18.5591C110.733 9.721 94.7328 5.93325 80.4167 5.51239C67.3638 5.09153 53.4688 9.30014 45.4687 20.2425C40.837 20.6634 36.2053 22.7677 32.4158 25.7137C30.7315 26.9763 26.0999 30.3432 26.0999 32.8683V33.2892C26.0999 33.2892 26.0999 33.2892 26.5209 33.2892C27.3631 34.1309 28.6262 34.5518 29.4684 35.3935C30.7315 36.2352 31.5737 37.9187 32.8368 38.7604C34.9422 40.8647 38.3106 41.7064 40.837 42.969H41.2581C42.1002 38.7604 47.1529 34.9727 50.9425 33.2892C51.3635 33.2892 51.7846 32.8683 52.2056 32.8683C50.5214 34.9727 49.2582 37.4978 48.4161 40.023C47.995 40.023 47.995 40.4438 48.4161 40.4438C54.732 41.7064 60.2058 45.0733 66.1007 47.1776C66.5217 47.1776 66.9428 47.1776 66.9428 46.7568C68.627 43.8107 70.7323 41.2856 72.8376 38.7604C71.5744 41.2856 71.1534 44.6525 70.7323 46.7568C70.3113 46.7568 70.3113 47.1776 70.7323 47.5985C75.7851 48.4402 80.4167 49.2819 85.0484 51.8071C85.0484 51.8071 85.4694 51.8071 85.4694 51.3862C86.3116 48.4402 88.4169 45.915 90.1011 43.8107C90.5222 43.3899 90.9433 42.969 91.3643 42.1273C90.9433 45.915 90.5222 49.7028 90.5222 53.0697C90.5222 53.4905 90.5222 53.4905 90.9433 53.4905C96.8381 54.3323 102.733 55.174 108.628 56.4366H109.049C110.733 54.7531 111.575 52.228 112.417 50.1236C111.996 56.4366 110.733 62.7495 110.733 69.0624C110.312 70.7458 110.312 72.8501 109.891 74.5336V74.9544V75.3753C109.891 75.7962 110.312 76.217 110.312 75.7962C111.575 74.1127 112.838 72.4293 114.102 70.325C114.102 74.1127 114.523 77.9005 114.523 81.6882V82.1091C114.523 82.5299 114.944 82.9508 114.944 82.5299C116.628 80.0048 118.733 77.0587 119.575 73.6919C125.891 72.8501 129.26 78.3213 128.839 84.2134C127.997 91.368 121.681 92.6306 116.207 90.9472C116.207 90.9472 115.786 91.368 116.207 91.368C116.628 91.7889 117.049 91.7889 117.049 92.2097C115.365 94.7349 114.102 97.6809 112.417 100.206C110.312 103.152 107.786 105.677 105.259 108.202V108.623C111.154 108.202 117.47 104.836 122.523 101.89C139.786 91.7889 145.26 75.3753 143.576 57.6991Z"
          fill="#8D1113"/>
    <path d="M143.576 57.6993C141.892 42.9691 135.576 29.0807 124.207 19.8218C127.154 23.1887 129.26 26.9764 131.365 30.7642C136.839 40.8648 140.628 52.6489 138.102 64.433C138.102 64.8539 137.681 64.8539 137.26 64.8539C126.312 64.433 127.576 53.0698 125.47 45.0734C125.049 48.0195 125.049 50.9655 124.628 53.9115C124.207 56.4367 123.786 61.9079 121.26 63.1705C117.891 64.433 117.049 58.1201 117.049 56.4367C117.049 49.7029 116.628 42.1274 112.838 36.2354C111.996 39.6022 111.575 43.39 109.891 46.336C107.786 49.282 104.417 48.4403 101.47 48.0195C99.7855 47.5986 95.1539 48.4403 94.7328 46.336C93.8907 42.5483 95.1539 38.3397 94.7328 34.5519C93.0485 37.9188 92.2064 41.2857 89.6801 44.2317C87.1537 46.7569 84.6273 46.336 81.2588 45.0734C78.3114 44.2317 74.9429 42.9691 74.5219 39.6022C74.5219 37.4979 74.9429 34.9728 75.7851 32.8685C73.2587 36.6562 70.7323 40.444 66.1007 41.2857C63.1532 41.7065 56.4163 39.6022 54.732 37.0771C53.0478 33.7102 58.1005 29.5016 59.7847 27.8181C61.89 26.1347 63.9954 24.0304 66.5217 22.7678C61.89 24.0304 57.6794 25.7138 53.4688 27.8181C48.8372 30.3433 45.0476 34.1311 40.837 37.0771C40.4159 37.4979 39.9949 37.0771 39.5738 36.6562C39.9949 32.4476 41.6791 29.5016 43.7844 26.9764C40.837 29.5016 38.3106 32.8685 35.3632 35.8145C34.9422 36.2354 34.5211 36.2354 34.5211 35.8145C32.4158 34.1311 30.7315 32.4476 28.2052 31.6059C27.7841 31.6059 27.7841 31.185 27.7841 30.7642C27.7841 30.3433 28.2052 29.9224 28.2052 29.5016C26.942 30.3433 26.0999 31.6059 26.0999 32.8685V33.2893C26.0999 33.2893 26.0999 33.2893 26.5209 33.2893C27.3631 34.1311 28.6262 34.5519 29.4684 35.3936C30.7315 36.2354 31.5737 37.9188 32.8368 38.7605C34.9422 40.8648 38.3106 41.7065 40.837 42.9691H41.2581C42.1002 38.7605 47.1529 34.9728 50.9425 33.2893C51.3635 33.2893 51.7846 32.8685 52.2056 32.8685C50.5214 34.9728 49.2582 37.4979 48.4161 40.0231C47.995 40.0231 47.995 40.444 48.4161 40.444C54.732 41.7065 60.2058 45.0734 66.1007 47.1777C66.5217 47.1777 66.9428 47.1777 66.9428 46.7569C68.627 43.8109 70.7323 41.2857 72.8376 38.7605C71.5744 41.2857 71.1534 44.6526 70.7323 46.7569C70.3113 46.7569 70.3113 47.1777 70.7323 47.5986C75.7851 48.4403 80.4167 49.282 85.0484 51.8072C85.0484 51.8072 85.4694 51.8072 85.4694 51.3863C86.3116 48.4403 88.4169 45.9152 90.1011 43.8109C90.5222 43.39 90.9433 42.9691 91.3643 42.1274C90.9433 45.9152 90.5222 49.7029 90.5222 53.0698C90.5222 53.4907 90.5222 53.4907 90.9433 53.4907C96.8381 54.3324 102.733 55.1741 108.628 56.4367H109.049C110.733 54.7532 111.575 52.2281 112.417 50.1238C111.996 56.4367 110.733 62.7496 110.733 69.0625C110.312 70.746 110.312 72.8503 109.891 74.5337V74.9546V75.3754C109.891 75.7963 110.312 76.2171 110.312 75.7963C111.575 74.1128 112.838 72.4294 114.102 70.3251C114.102 74.1128 114.523 77.9006 114.523 81.6883V82.1092C114.523 82.5301 114.944 82.9509 114.944 82.5301C116.628 80.0049 118.733 77.0589 119.575 73.692C125.891 72.8503 129.26 78.3215 128.839 84.2135C127.997 91.3681 121.681 92.6307 116.207 90.9473C116.207 90.9473 115.786 91.3681 116.207 91.3681C116.628 91.789 117.049 91.789 117.049 92.2099C115.365 94.735 114.102 97.681 112.417 100.206C110.312 103.152 107.786 105.677 105.259 108.203V108.623C111.154 108.203 117.47 104.836 122.523 101.89C139.786 91.789 145.26 75.3754 143.576 57.6993Z"
          fill="#8D1113"/>
    <path d="M126.733 80.8465C123.786 76.6379 119.996 81.2674 118.733 84.6343C118.733 84.6343 118.733 85.0552 119.154 85.0552C121.26 82.1091 122.944 79.1631 126.733 80.8465C126.733 81.2674 126.733 80.8465 126.733 80.8465Z"
          fill="#C39368"/>
</svg>
