<svg width="46" height="46" viewBox="0 0 46 46" fill="none" xmlns="http://www.w3.org/2000/svg">
    <circle cx="22.8036" cy="22.5893" r="22.5893" fill="#69BF54"/>
    <g clip-path="url(#clip0_150_98029)">
        <path d="M31.841 14.2612C30.7113 13.121 29.3659 12.217 27.8832 11.602C26.4006 10.9869 24.8104 10.6731 23.2053 10.6788C16.4793 10.6788 10.9978 16.1587 10.9916 22.8862C10.9916 25.041 11.5553 27.1371 12.6196 28.993L10.8931 35.3216L17.368 33.6244C19.1592 34.5992 21.166 35.1101 23.2053 35.1106H23.2114C29.9389 35.1106 35.4189 29.6307 35.425 22.897C35.4266 21.2922 35.1105 19.703 34.4952 18.2209C33.8798 16.7387 32.9772 15.393 31.8395 14.2612H31.841ZM23.2053 33.0437C21.3863 33.0443 19.6008 32.5549 18.0364 31.6268L17.6668 31.405L13.8256 32.4122L14.8513 28.665L14.6111 28.2784C13.5942 26.6617 13.0565 24.7899 13.0601 22.8801C13.0601 17.2954 17.6144 12.7395 23.2114 12.7395C24.5448 12.7372 25.8655 12.9987 27.0973 13.5092C28.3291 14.0196 29.4478 14.7688 30.3886 15.7136C31.3328 16.6548 32.0813 17.7735 32.591 19.0053C33.1006 20.2372 33.3614 21.5578 33.3581 22.8909C33.3519 28.4956 28.7976 33.0437 23.2053 33.0437ZM28.773 25.4445C28.4696 25.292 26.971 24.5543 26.6891 24.4495C26.4088 24.3494 26.204 24.297 26.0038 24.602C25.7989 24.9054 25.2136 25.597 25.0381 25.7956C24.8625 26.0005 24.6807 26.0236 24.3758 25.8726C24.0724 25.7186 23.0882 25.3983 21.9238 24.3556C21.0151 23.547 20.4067 22.5459 20.225 22.2424C20.0494 21.9375 20.2081 21.7742 20.3605 21.6218C20.4945 21.4862 20.664 21.2644 20.8164 21.0889C20.9705 20.9133 21.0213 20.7839 21.1214 20.5806C21.2215 20.3742 21.1738 20.1986 21.0983 20.0462C21.0213 19.8937 20.4129 18.3889 20.1557 17.7821C19.9093 17.183 19.6582 17.2661 19.4703 17.2584C19.2947 17.2476 19.0899 17.2476 18.8851 17.2476C18.7304 17.2515 18.5781 17.2873 18.4379 17.3527C18.2977 17.4182 18.1726 17.5119 18.0703 17.6281C17.79 17.933 17.006 18.6708 17.006 20.1755C17.006 21.6803 18.0996 23.1265 18.2536 23.3314C18.4045 23.5362 20.4006 26.615 23.464 27.9396C24.1879 28.2553 24.7578 28.4417 25.2029 28.5834C25.9345 28.8175 26.5952 28.782 27.1219 28.7066C27.7072 28.6172 28.9255 27.9673 29.1827 27.2542C29.4353 26.5395 29.4353 25.9296 29.3583 25.8018C29.2828 25.6724 29.078 25.597 28.773 25.4445Z"
              fill="white"/>
    </g>
    <defs>
        <clipPath id="clip0_150_98029">
            <rect width="24.6429" height="24.6429" fill="white" transform="translate(10.8931 10.6787)"/>
        </clipPath>
    </defs>
</svg>