<svg width="436" height="419" viewBox="0 0 436 419" fill="none" xmlns="http://www.w3.org/2000/svg">
    <g filter="url(#filter0_d_131_3088)">
        <path d="M335.871 153.738C351.151 173.323 345.419 201.898 355.311 230.775C365.255 259.485 390.588 288.432 387.08 309.762C383.573 331.093 351.51 344.703 319.157 353.48C286.803 362.257 254.575 366.499 223.273 362.771C191.788 358.81 161.412 347.112 128.491 333.796C95.8549 320.377 60.6223 305.507 49.4158 285.04C38.4946 264.469 51.314 238.403 56.607 212.083C61.6664 185.698 58.6804 159.097 75.4853 147.296C92.2902 135.496 128.938 138.327 161.141 134.992C193.059 131.761 220.766 122.43 252.533 122.996C284.299 123.561 320.591 134.154 335.871 153.738Z"
              fill="#212073"/>
    </g>
    <path d="M360.171 168.517C373.069 181.055 371.654 201.865 381.548 221.487C391.463 240.985 412.511 259.269 412.012 274.734C411.513 290.199 389.661 302.745 367.14 311.884C344.618 321.023 321.755 326.929 298.8 327.092C275.692 327.106 252.647 321.525 227.609 315.024C202.768 308.423 175.915 301.026 165.873 287.495C156.028 273.865 162.799 254.201 164.112 235.032C165.25 215.838 160.559 197.213 171.567 187.322C182.575 177.432 209.303 176.152 232.235 170.892C254.97 165.731 274.085 156.616 297.073 154.165C320.061 151.715 347.272 155.98 360.171 168.517Z"
          fill="#FE6001"/>
    <mask id="mask0_131_3088" style="mask-type:alpha" maskUnits="userSpaceOnUse" x="64" y="118" width="331" height="230">
        <path d="M343.985 148.465C358.773 167.082 353.4 194.123 363.052 221.519C372.753 248.755 397.254 276.285 393.984 296.473C390.715 316.662 359.948 329.414 328.879 337.586C297.809 345.758 266.838 349.635 236.719 345.967C206.424 342.078 177.157 330.866 145.434 318.109C113.986 305.256 80.0334 291.018 69.1577 271.582C58.556 252.05 70.7572 227.417 75.7197 202.509C80.4571 177.54 77.4568 152.331 93.5597 141.227C109.663 130.122 144.917 132.964 175.869 129.946C206.546 127.025 233.145 118.307 263.695 118.982C294.245 119.657 329.196 129.848 343.985 148.465Z"
              fill="white"/>
    </mask>
    <g mask="url(#mask0_131_3088)">
        <path d="M343.985 148.465C358.773 167.082 353.4 194.123 363.052 221.519C372.753 248.755 397.254 276.285 393.984 296.473C390.715 316.662 359.948 329.414 328.879 337.586C297.809 345.758 266.838 349.635 236.719 345.967C206.424 342.078 177.157 330.866 145.434 318.109C113.986 305.256 80.0334 291.018 69.1577 271.582C58.556 252.05 70.7572 227.417 75.7197 202.509C80.4571 177.54 77.4568 152.331 93.5597 141.227C109.663 130.122 144.917 132.964 175.869 129.946C206.546 127.025 233.145 118.307 263.695 118.982C294.245 119.657 329.196 129.848 343.985 148.465Z"
              fill="white"/>
        <path d="M234.328 398.682C234.584 398.735 234.856 398.722 235.119 398.628C235.889 398.357 236.292 397.515 236.021 396.745C225.216 366.179 239.519 329.314 239.665 328.945C239.964 328.188 239.592 327.328 238.832 327.03C238.076 326.729 237.215 327.1 236.913 327.86C236.302 329.407 222.064 366.13 233.233 397.726C233.412 398.232 233.838 398.581 234.328 398.682Z"
              fill="black"/>
        <path d="M191.277 389.025C191.431 389.057 191.596 389.064 191.759 389.044C192.57 388.941 193.145 388.204 193.041 387.394C186.154 332.704 198.759 317.369 198.886 317.22C199.418 316.601 199.348 315.669 198.73 315.139C198.112 314.606 197.179 314.675 196.646 315.291C196.087 315.939 183.058 331.778 190.109 387.762C190.188 388.407 190.672 388.9 191.277 389.025Z"
              fill="black"/>
        <path d="M268.614 277.89C268.614 277.89 275.448 305.682 264.228 330.75C264.228 330.75 248.77 337.347 225.044 329.178C225.044 329.178 226.255 320.889 225.376 314.174C225.376 314.174 221.313 322.881 218.635 326.096C218.635 326.096 192.26 323.408 183.664 306.558C183.664 306.558 192.432 288.519 193.926 281.291C195.421 274.062 268.614 277.89 268.614 277.89Z"
              fill="#C7B999"/>
        <path d="M234.535 332.56C252.739 336.324 264.045 331.63 264.519 331.429L264.785 331.316L264.904 331.052C276.097 306.041 269.4 277.996 269.333 277.714L269.201 277.18L268.653 277.151C256.323 276.507 194.746 273.67 193.202 281.139C191.743 288.193 183.084 306.053 182.999 306.233L182.838 306.562L183.005 306.889C189.353 319.331 204.923 324.211 213.639 326.013C213.64 326.013 213.639 326.013 213.64 326.013C216.589 326.623 218.481 326.819 218.56 326.827L218.952 326.867L219.204 326.564C221.045 324.357 223.467 319.735 224.883 316.887C225.214 322.798 224.325 328.996 224.314 329.067L224.227 329.671L224.806 329.871C228.045 330.994 231.319 331.896 234.535 332.56ZM263.676 330.174C261.883 330.843 251.059 334.469 234.834 331.115C231.868 330.502 228.852 329.682 225.855 328.676C226.119 326.62 226.862 319.845 226.108 314.081L225.781 311.561L224.706 313.863C224.666 313.947 220.9 321.99 218.313 325.317C217.615 325.228 216.04 325.007 213.938 324.573C205.557 322.84 190.663 318.202 184.49 306.549C185.731 303.975 193.247 288.221 194.649 281.442C195.585 276.913 237.918 277.05 268.016 278.6C268.866 282.542 273.654 307.591 263.676 330.174Z"
              fill="black"/>
        <path d="M151.963 274.879C152.346 274.958 152.755 274.888 153.103 274.649C178.725 256.997 189.17 229.039 189.604 227.857C189.884 227.091 189.489 226.244 188.721 225.964C187.951 225.696 187.106 226.077 186.826 226.842C186.723 227.124 176.248 255.115 151.422 272.217C150.749 272.681 150.581 273.6 151.044 274.27C151.271 274.597 151.604 274.805 151.963 274.879Z"
              fill="black"/>
        <path d="M199.687 235.754C199.687 235.754 186.132 235.59 178.874 225.045C178.874 225.045 202.448 199.897 210.022 209.505C217.597 219.106 199.687 235.754 199.687 235.754Z"
              fill="#F2C153"/>
        <path d="M195.011 235.898C197.738 236.462 199.601 236.49 199.678 236.49L199.975 236.495L200.192 236.293C200.944 235.594 218.512 219.07 210.602 209.047C209.637 207.823 208.385 207.044 206.884 206.733C197.065 204.703 179.097 223.728 178.336 224.539L177.93 224.974L178.268 225.461C182.889 232.181 189.926 234.847 195.011 235.898ZM199.403 235.005C198.791 234.973 197.278 234.86 195.309 234.453C190.615 233.482 184.179 231.073 179.83 225.115C182.587 222.27 198.339 206.476 206.585 208.18C207.752 208.422 208.687 209.004 209.442 209.961C216.072 218.366 201.391 233.078 199.403 235.005Z"
              fill="black"/>
        <path d="M305.395 331.596C305.835 331.659 316.308 333.034 326.913 323.658C337.203 314.563 350.973 293.425 349.925 244.044C348.896 195.559 334.611 145.601 313.738 107.107C289.662 62.7089 256.675 36.0647 218.373 30.0848C196.575 26.675 177.146 31.9721 160.633 45.8216C120.158 79.7781 108.288 154.853 107.666 189.804C106.674 245.411 111.928 274.555 124.195 281.518L125.289 279.593C113.961 273.161 113.71 203.53 115.521 185.884C117.331 168.237 122.195 80.9591 162.059 47.5147C178.058 34.0924 196.89 28.9625 218.03 32.2646C298.507 44.9253 342.046 150.542 344.028 243.798C345.056 292.258 334.633 311.482 324.724 320.283C314.905 329.005 305.806 329.418 305.707 329.403L305.395 331.596Z"
              fill="#FF6B00"/>
        <path d="M187.831 525.946C210.181 530.569 240.985 529.654 267.113 514.232C290.129 500.646 305.624 478.444 313.171 448.239C332.766 369.805 306.026 329.456 305.753 329.058L303.924 330.328C304.191 330.719 330.347 370.329 311.02 447.699C303.624 477.3 288.476 499.035 265.994 512.305C237.879 528.896 204.206 528.325 182.048 522.265C149.567 513.369 79.1314 472.058 126.52 281.081L124.367 280.545C76.504 473.437 148.348 515.353 181.459 524.422C183.491 524.979 185.621 525.49 187.831 525.946Z"
              fill="#FF6B00"/>
        <path d="M236.82 209.513C236.82 209.513 241.061 227.35 254.547 238.804C268.033 250.259 272.301 275.259 272.628 280.982C272.628 280.982 243.474 317.916 192.356 283.985C192.356 283.985 187.423 225.681 209.869 206.579L236.82 209.513Z"
              fill="#C3DD7C"/>
        <path d="M221.911 297.807C254.528 304.548 273.027 281.671 273.21 281.439L273.384 281.22L273.369 280.941C273.047 275.288 268.77 249.917 255.028 238.242C241.892 227.084 237.582 209.518 237.54 209.342L237.42 208.835L209.637 205.812L209.392 206.018C186.916 225.146 191.421 281.651 191.624 284.047L191.656 284.403L191.954 284.6C202.131 291.356 212.212 295.802 221.911 297.807ZM271.873 280.736C269.937 283.012 252.234 302.567 222.211 296.362L222.208 296.361C212.792 294.414 202.992 290.111 193.07 283.568C192.717 278.692 189.378 225.422 210.112 207.347L236.233 210.192C237.06 213.211 241.832 228.973 254.07 239.367C267.197 250.517 271.437 274.684 271.873 280.736Z"
              fill="black"/>
        <path d="M249.472 239.012C249.472 239.012 234.361 228.1 233.307 211.299C233.307 211.299 243.34 206.59 251.124 213.978C258.91 221.365 270.486 225.017 270.486 225.017C270.486 225.017 266.087 240.187 249.472 239.012Z"
              fill="#F2C153"/>
        <path d="M249.21 239.735L249.419 239.75C266.434 240.951 271.148 225.383 271.195 225.226L271.395 224.535L270.707 224.318C270.593 224.282 259.201 220.626 251.633 213.445C249.448 211.372 246.887 210.018 244.022 209.426C238.216 208.226 233.204 210.534 232.993 210.633L232.538 210.846L232.57 211.346C233.633 228.303 248.411 239.158 249.039 239.612L249.21 239.735ZM269.548 225.482C268.495 228.355 263.597 239.155 249.739 238.289C248.126 237.059 235.305 226.801 234.082 211.777C235.402 211.267 239.372 209.97 243.722 210.87C246.313 211.405 248.632 212.632 250.613 214.515C257.412 220.963 266.876 224.555 269.548 225.482Z"
              fill="black"/>
        <path d="M293.603 300.644C293.721 300.669 293.842 300.68 293.968 300.674C294.783 300.639 295.415 299.949 295.378 299.133C293.757 262.98 263.931 231.756 262.662 230.445C262.096 229.855 261.16 229.84 260.571 230.409C259.983 230.976 259.967 231.911 260.534 232.497C260.839 232.81 290.854 264.245 292.423 299.264C292.458 299.953 292.955 300.51 293.603 300.644Z"
              fill="black"/>
        <path d="M149.344 268.057C155.739 267.635 163.143 280.458 155.336 284.121C155.336 284.121 151.14 291.039 142.885 289.584C134.627 288.128 128.171 269.459 149.344 268.057Z"
              fill="#FCDFC0"/>
        <path d="M142.556 290.27C142.557 290.271 142.556 290.27 142.556 290.27L142.756 290.31C150.608 291.694 155.05 285.848 155.84 284.697C158.493 283.369 159.745 280.913 159.37 277.76C158.813 273.083 154.834 268.256 150.855 267.434C150.326 267.324 149.801 267.287 149.293 267.319C136.423 268.172 134.564 275.115 134.359 278.06C133.991 283.486 137.897 289.307 142.556 290.27ZM150.558 268.879C153.92 269.574 157.422 273.891 157.901 277.935C158.119 279.735 157.79 282.155 155.02 283.455L154.82 283.549L154.706 283.738C154.542 284.004 150.653 290.204 143.012 288.858L142.704 289.55L142.854 288.827C138.927 288.015 135.516 282.833 135.838 278.162C136.208 272.754 141.15 269.34 149.395 268.796C149.768 268.769 150.159 268.797 150.558 268.879Z"
              fill="black"/>
        <path d="M292.572 295.91C300.417 293.724 307.644 304.55 304.297 314.663C300.948 324.776 284.363 325.87 281.58 314.993C278.794 304.116 284.295 298.217 292.572 295.91Z"
              fill="#FCDFC0"/>
        <path d="M289.427 323.166C295.331 324.387 302.769 321.628 304.997 314.895C306.532 310.263 306.017 305.021 303.617 300.874C300.998 296.348 296.506 294.05 292.372 295.202C282.367 297.992 278.28 305.084 280.864 315.176C281.931 319.347 285.051 322.261 289.427 323.166ZM296.004 296.507C298.443 297.012 300.753 298.871 302.337 301.612C304.527 305.398 304.998 310.192 303.593 314.43C301.625 320.38 294.997 322.809 289.726 321.719C285.926 320.933 283.217 318.415 282.297 314.811C279.282 303.029 286.328 298.416 292.772 296.62C293.839 296.322 294.929 296.285 296.004 296.507Z"
              fill="black"/>
        <path d="M288.109 310.188L293.637 307.186L309.934 326.948L302.248 333.083L288.109 310.188Z" fill="#105A9E"/>
        <path d="M302.059 334.18L310.983 327.059L293.821 306.246L287.071 309.91L302.059 334.18ZM308.887 326.838L302.44 331.985L289.149 310.463L293.454 308.123L308.887 326.838Z"
              fill="black"/>
        <path d="M146.872 277.594L143.937 283.581L125.806 284.545L124.193 275.92L146.872 277.594Z" fill="#105A9E"/>
        <path d="M125.198 285.316L144.409 284.297L148.017 276.938L123.289 275.113L125.198 285.316ZM143.462 282.869L126.412 283.774L125.095 276.73L145.726 278.252L143.462 282.869Z"
              fill="black"/>
        <path d="M291.211 304.923C291.211 304.923 294.868 315.229 291.432 316.022C287.995 316.822 283.99 308.203 283.99 308.203"
              fill="#FCDFC0"/>
        <path d="M290.388 316.749C290.791 316.832 291.195 316.836 291.601 316.741C292.257 316.59 292.786 316.177 293.13 315.55C294.686 312.715 292.197 305.492 291.908 304.677L290.514 305.171C291.522 308.007 292.769 313.141 291.834 314.842C291.689 315.103 291.515 315.247 291.266 315.304C289.197 315.797 286.115 311.018 284.661 307.896L283.32 308.516C283.709 309.354 286.912 316.031 290.388 316.749Z"
              fill="black"/>
        <path d="M149.073 273.03C149.073 273.03 141.016 279.146 144.047 281.535C147.073 283.923 152.289 276.955 152.289 276.955"
              fill="#FCDFC0"/>
        <path d="M144.848 282.707C145.198 282.779 145.569 282.79 145.96 282.739C149.16 282.321 152.73 277.596 152.881 277.397L151.696 276.514C150.773 277.744 147.91 280.998 145.766 281.277C145.273 281.346 144.86 281.24 144.504 280.957C144.223 280.737 144.101 280.487 144.105 280.149C144.12 278.375 147.434 275.203 149.52 273.618L148.625 272.442C148.014 272.908 142.653 277.064 142.629 280.136C142.62 280.93 142.952 281.612 143.591 282.115C143.971 282.415 144.391 282.612 144.848 282.707Z"
              fill="black"/>
        <path d="M219.395 233.549C219.395 233.549 203.592 233.296 199.902 228.011L210.895 247.869L198.798 243.106L207.974 259.577L199.964 256.917L214.571 287.32L207.257 265.461L219.869 273.842L212.734 256.038L229.316 263.484L219.395 233.549Z"
              fill="#FFC05C"/>
        <path d="M213.906 287.64L215.276 287.089L208.642 267.268L221.44 275.773L214.103 257.462L230.545 264.847L219.932 232.82L219.407 232.809C219.355 232.809 214.252 232.715 209.273 231.686C204.761 230.753 201.731 229.337 200.509 227.589L199.254 228.368L209.256 246.429L197.151 241.663L206.406 258.277L198.547 255.667L213.906 287.64ZM205.874 263.657L210.124 276.355L201.387 258.168L209.545 260.877L200.45 244.55L212.539 249.309L202.379 230.96C204.059 231.846 206.263 232.575 208.976 233.135C213.206 234.01 217.406 234.225 218.857 234.276L228.087 262.126L211.371 254.62L218.302 271.915L205.874 263.657Z"
              fill="#E28100"/>
        <g opacity="0.47">
            <path opacity="0.47"
                  d="M274.484 176.274C272.238 182.092 269.091 187.288 265.28 191.776C265.292 191.769 265.313 191.768 265.328 191.759C277.453 187.163 280.009 178.392 280.009 178.392L279.102 184.629C282.447 181.804 284.687 174.708 284.687 174.708L284.576 180.828L292.805 178.329C296.756 161.622 294.662 148.244 294.662 148.244L299.576 145.25C293.818 125.566 283.105 119.043 277.231 116.9C277.166 123.421 276.544 143.428 271.647 161.289C273.484 163.324 275.297 165.54 276.952 167.922C276.362 170.725 275.549 173.513 274.484 176.274Z"
                  fill="#896042"/>
        </g>
        <path d="M274.483 176.274C263.988 203.441 233.991 217.228 207.489 207.074C180.983 196.921 168.005 166.669 178.499 139.51C188.994 112.347 218.989 98.5521 245.495 108.71C272.001 118.863 284.978 149.111 274.483 176.274Z"
              fill="#FCDFC0"/>
        <path d="M215.237 209.838C212.556 209.283 209.893 208.503 207.317 207.515C180.61 197.283 167.482 166.702 178.053 139.341C187.537 114.799 212.638 100.758 237.738 105.947C240.421 106.502 243.089 107.284 245.667 108.27C258.606 113.226 268.777 123.05 274.302 135.93C279.827 148.805 280.048 163.192 274.927 176.445C265.446 200.984 240.343 215.028 215.237 209.838ZM237.547 106.871C212.904 101.776 188.257 115.574 178.943 139.68C168.557 166.557 181.44 196.595 207.658 206.637C210.184 207.603 212.797 208.368 215.431 208.913C240.077 214.008 264.727 200.211 274.04 176.105C279.073 163.081 278.855 148.944 273.43 136.295C268.006 123.654 258.027 114.012 245.328 109.149C242.798 108.181 240.18 107.415 237.547 106.871Z"
              fill="black"/>
        <path d="M274.483 176.275C279.079 164.381 279.176 151.886 275.597 140.754C273.83 154.788 270.17 171.352 262.592 181.987C247.269 203.493 228.654 212.79 203.354 204.812L203.463 205.316C204.768 205.95 206.102 206.549 207.487 207.076C233.991 217.228 263.988 203.441 274.483 176.275Z"
              fill="#FCDFC0"/>
        <path d="M198.648 153.683C197.764 155.972 195.829 157.354 194.324 156.777C192.816 156.201 192.312 153.884 193.196 151.6C194.076 149.313 196.014 147.929 197.519 148.509C199.028 149.081 199.532 151.403 198.648 153.683Z"
              fill="#572800"/>
        <path d="M243.401 167.494C242.518 169.778 240.581 171.16 239.076 170.587C237.571 170.008 237.065 167.69 237.948 165.404C238.832 163.118 240.767 161.734 242.271 162.313C243.78 162.887 244.285 165.207 243.401 167.494Z"
              fill="#572800"/>
        <path d="M292.807 178.33C296.757 161.623 294.664 148.244 294.664 148.244L299.578 145.251C291.378 117.214 273.118 115.866 273.118 115.866L279.202 111.782C272.881 110.641 268.404 113.805 268.404 113.805C270.528 110.253 270.02 101.849 270.02 101.849L265.639 108.639C255.989 75.9397 215.968 82.9369 215.968 82.9369L220.206 86.8755C188.354 84.7225 166.037 111.414 163.159 115.041L166.94 122.763C171.276 116.724 175.479 114.057 175.479 114.057C172.068 118.568 168.637 127.01 168.637 127.01L172.164 137.765C173.085 135.382 177.456 131.411 177.456 131.411C173.571 139.945 173.122 147.44 175.102 153.988C175.55 149.153 176.656 144.286 178.501 139.512C179.385 137.223 180.42 135.034 181.564 132.945C189.597 132.368 215.099 131.627 242.737 142.216C242.737 142.216 239.577 144.77 237.137 145.036C237.137 145.036 241.795 147.672 251.839 145.874C251.839 145.874 249.968 150.292 250.384 153.533C250.8 156.767 257.045 148.381 257.045 148.381C257.045 148.381 268.892 156.309 276.953 167.925C276.361 170.729 275.547 173.516 274.481 176.278C272.235 182.096 269.088 187.292 265.277 191.779C265.289 191.773 265.31 191.772 265.325 191.763C277.45 187.167 280.007 178.396 280.007 178.396L279.099 184.633C282.444 181.807 284.684 174.712 284.684 174.712L284.573 180.831L292.807 178.33Z"
              fill="#896042"/>
        <path d="M265.499 192.201L264.915 191.473C268.795 186.903 271.865 181.733 274.038 176.106C275.037 173.518 275.846 170.799 276.447 168.023C269.33 157.846 259.208 150.471 257.154 149.027C255.779 150.839 252.374 155.056 250.772 154.725C250.498 154.668 250.024 154.445 249.913 153.589C249.589 151.063 250.57 147.923 251.095 146.48C245.97 147.298 242.318 146.946 240.116 146.491C237.993 146.052 236.947 145.469 236.904 145.444L235.632 144.726L237.082 144.567C238.707 144.39 240.732 143.087 241.764 142.35C235.038 139.823 227.946 137.781 220.668 136.276C202.568 132.534 187.677 132.994 181.857 133.396C180.733 135.47 179.752 137.584 178.941 139.682C177.162 144.286 176.028 149.114 175.572 154.031L174.645 154.12C172.702 147.7 173.189 140.74 176.09 133.399C174.786 134.736 173.115 136.615 172.604 137.936L172.126 139.179L168.13 126.989L168.195 126.831C168.312 126.542 170.666 120.779 173.422 116.262C171.824 117.658 169.587 119.889 167.323 123.038L166.859 123.684L162.598 114.98L162.782 114.75C165.233 111.663 187.378 84.9698 218.926 86.3359L214.947 82.6399L215.88 82.476C215.982 82.4578 226.05 80.7476 237.189 83.0503C247.38 85.1572 260.511 91.1216 265.79 107.529L270.403 100.376L270.49 101.828C270.51 102.137 270.882 108.663 269.445 112.667C271.26 111.776 274.808 110.515 279.28 111.32L280.428 111.529L274.377 115.588C278.555 116.405 293.001 121.097 300.03 145.121L300.13 145.465L295.171 148.486C295.45 150.604 296.859 163.232 293.263 178.44L293.201 178.702L284.084 181.47L284.155 177.488C283.177 179.85 281.516 183.208 279.403 184.99L278.442 185.801L279.069 181.507C277.272 184.544 273.371 189.217 265.499 192.201ZM256.933 147.735L257.311 147.99C257.43 148.07 269.326 156.101 277.344 167.659L277.46 167.824L277.417 168.022C276.804 170.917 275.967 173.749 274.925 176.445C272.939 181.586 270.216 186.355 266.822 190.641C277.144 186.066 279.528 178.342 279.552 178.259L280.479 178.461L279.778 183.278C282.439 180.17 284.214 174.627 284.235 174.563L285.162 174.717L285.064 180.185L292.405 177.956C296.204 161.661 294.215 148.446 294.194 148.313L294.145 148.003L299.019 145.032C290.916 117.815 273.199 116.337 273.082 116.329L271.723 116.227L277.911 112.073C272.494 111.546 268.719 114.156 268.679 114.185L267.993 113.56C269.489 111.062 269.624 105.939 269.592 103.383L265.479 109.762L265.184 108.766C261.227 95.3576 251.747 87.0108 237.004 83.9627C228.021 82.1056 219.76 82.9001 217.015 83.2582L221.507 87.4295L220.18 87.3406C189.098 85.2398 166.952 111.093 163.719 115.096L167.024 121.841C171.19 116.251 175.058 113.76 175.225 113.654L175.861 114.335C172.78 118.41 169.632 125.85 169.145 127.024L172.264 136.539C173.744 134.152 176.978 131.201 177.135 131.057L177.891 131.601C174.716 138.574 173.724 145.202 174.933 151.34C175.514 147.235 176.561 143.206 178.057 139.335C178.913 137.122 179.954 134.893 181.147 132.711L181.272 132.485L181.529 132.467C187.195 132.06 202.368 131.523 220.862 135.346C228.481 136.921 235.9 139.083 242.908 141.769L243.672 142.063L243.037 142.576C242.93 142.662 240.821 144.354 238.665 145.135C239.103 145.276 239.649 145.426 240.308 145.563C242.542 146.024 246.342 146.371 251.755 145.404L252.618 145.248L252.281 146.051C252.261 146.093 250.461 150.394 250.858 153.467C250.891 153.733 250.961 153.792 250.962 153.794C251.72 153.95 254.521 150.971 256.665 148.092L256.933 147.735Z"
              fill="black"/>
        <path d="M209.669 193.843C208.449 193.591 207.32 193.15 206.283 192.522C201.296 189.499 200.351 183.277 200.313 183.014L201.253 182.882C201.264 182.943 202.18 188.934 206.783 191.721C209.761 193.525 213.643 193.623 218.318 192.016C222.187 190.688 224.526 186.766 225.424 183.538L226.341 183.793C225.378 187.251 222.846 191.461 218.632 192.908C215.261 194.068 212.259 194.378 209.669 193.843Z"
              fill="black"/>
        <path d="M224.247 187.472C222.986 189.578 221.104 191.561 218.474 192.464C216.454 193.159 214.671 193.504 213.079 193.6C214.652 197.729 217.871 203.604 222.947 201.192C229.555 198.051 227.04 190.969 224.247 187.472Z"
              fill="#FFB6C9"/>
        <path d="M219.638 202.122C216.213 201.412 213.939 197.186 212.637 193.763L212.41 193.167L213.052 193.129C214.691 193.03 216.461 192.658 218.318 192.018C221.085 191.069 222.848 188.892 223.838 187.231L224.192 186.644L224.62 187.18C226.411 189.418 228.216 193.253 227.423 196.688C226.923 198.85 225.489 200.506 223.156 201.617C221.956 202.186 220.77 202.356 219.638 202.122ZM213.756 194.02C214.999 197.098 217.008 200.615 219.829 201.198C220.754 201.39 221.732 201.246 222.742 200.766C224.799 199.788 226.064 198.344 226.495 196.475C227.115 193.789 225.882 190.548 224.284 188.306C223.161 189.996 221.343 191.978 218.63 192.91C216.933 193.494 215.295 193.867 213.756 194.02Z"
              fill="black"/>
        <path d="M219.347 191.938C219.347 191.938 221.621 194.697 222.154 197.635L219.347 191.938Z" fill="#FFB6C9"/>
        <path d="M221.686 197.719C221.181 194.932 218.999 192.264 218.978 192.238L219.712 191.643C219.808 191.759 222.072 194.53 222.619 197.554L221.686 197.719Z"
              fill="black"/>
    </g>
    <g clip-path="url(#clip0_131_3088)">
        <path d="M233.713 398.682C233.968 398.735 234.241 398.722 234.503 398.628C235.273 398.357 235.676 397.515 235.405 396.745C224.6 366.179 238.903 329.314 239.049 328.945C239.349 328.188 238.976 327.328 238.216 327.03C237.46 326.729 236.599 327.1 236.297 327.86C235.686 329.407 221.448 366.13 232.617 397.726C232.796 398.232 233.223 398.581 233.713 398.682Z"
              fill="black"/>
        <path d="M190.661 389.025C190.815 389.057 190.98 389.064 191.143 389.044C191.954 388.941 192.53 388.204 192.426 387.394C185.538 332.704 198.143 317.369 198.271 317.22C198.802 316.601 198.732 315.669 198.115 315.139C197.496 314.606 196.563 314.675 196.031 315.291C195.472 315.939 182.442 331.778 189.493 387.762C189.572 388.407 190.056 388.9 190.661 389.025Z"
              fill="black"/>
        <path d="M267.999 277.89C267.999 277.89 274.832 305.682 263.613 330.75C263.613 330.75 248.155 337.347 224.428 329.178C224.428 329.178 225.64 320.889 224.761 314.174C224.761 314.174 220.697 322.881 218.019 326.096C218.019 326.096 191.644 323.408 183.049 306.558C183.049 306.558 191.816 288.519 193.311 281.291C194.805 274.062 267.999 277.89 267.999 277.89Z"
              fill="#D9CCAD"/>
        <path d="M233.919 332.56C252.123 336.324 263.429 331.63 263.903 331.429L264.169 331.316L264.288 331.052C275.482 306.041 268.785 277.996 268.718 277.714L268.585 277.18L268.037 277.151C255.707 276.507 194.131 273.67 192.586 281.139C191.128 288.193 182.469 306.053 182.383 306.233L182.223 306.562L182.389 306.889C188.737 319.331 204.308 324.211 213.023 326.013C213.025 326.013 213.023 326.013 213.025 326.013C215.974 326.623 217.866 326.819 217.945 326.827L218.337 326.867L218.589 326.564C220.43 324.357 222.852 319.735 224.268 316.887C224.598 322.798 223.71 328.996 223.699 329.067L223.611 329.671L224.19 329.871C227.429 330.994 230.703 331.896 233.919 332.56ZM263.06 330.174C261.268 330.843 250.443 334.469 234.218 331.115C231.252 330.502 228.236 329.682 225.239 328.676C225.504 326.62 226.247 319.845 225.493 314.081L225.165 311.561L224.091 313.863C224.05 313.947 220.285 321.99 217.698 325.317C217 325.228 215.425 325.007 213.323 324.573C204.941 322.84 190.048 318.202 183.874 306.549C185.116 303.975 192.632 288.221 194.033 281.442C194.97 276.913 237.303 277.05 267.4 278.6C268.25 282.542 273.039 307.591 263.06 330.174Z"
              fill="black"/>
        <path d="M151.348 274.879C151.73 274.958 152.14 274.887 152.487 274.649C178.11 256.997 188.555 229.038 188.988 227.856C189.268 227.09 188.874 226.243 188.106 225.963C187.336 225.695 186.491 226.077 186.211 226.841C186.108 227.123 175.633 255.115 150.807 272.216C150.134 272.68 149.966 273.599 150.429 274.27C150.656 274.597 150.988 274.804 151.348 274.879Z"
              fill="black"/>
        <path d="M199.072 235.754C199.072 235.754 185.517 235.589 178.259 225.044C178.259 225.044 201.833 199.896 209.406 209.504C216.981 219.106 199.072 235.754 199.072 235.754Z"
              fill="#4B3A8E"/>
        <path d="M194.395 235.898C197.123 236.462 198.986 236.49 199.063 236.49L199.36 236.495L199.577 236.293C200.329 235.594 217.896 219.07 209.987 209.047C209.021 207.823 207.769 207.044 206.269 206.733C196.45 204.703 178.481 223.728 177.72 224.539L177.314 224.974L177.653 225.461C182.274 232.181 189.31 234.847 194.395 235.898ZM198.787 235.005C198.176 234.973 196.663 234.86 194.694 234.453C190 233.482 183.564 231.073 179.214 225.115C181.972 222.27 197.723 206.476 205.969 208.18C207.136 208.422 208.072 209.004 208.826 209.961C215.457 218.366 200.776 233.077 198.787 235.005Z"
              fill="black"/>
        <g filter="url(#filter1_d_131_3088)">
            <path d="M304.779 331.597C305.22 331.659 315.693 333.034 326.298 323.658C336.587 314.563 348.635 293.354 347.587 243.973C346.557 195.487 334.89 139.216 313.122 107.107C289.046 62.7091 256.06 36.0649 217.758 30.085C195.959 26.6752 176.53 31.9724 160.018 45.8218C119.542 79.7784 107.673 154.853 107.05 189.804C106.059 245.411 111.312 274.555 123.579 281.518L124.674 279.593C113.346 273.161 112.16 244.019 113.12 190.058C113.735 155.455 127.411 84.0336 167.275 50.5892C183.274 37.1668 196.302 34.3443 217.442 37.6465C297.919 50.3071 343.387 150.761 345.369 244.017C346.397 292.477 334.797 313.145 324.888 321.945C315.069 330.667 305.19 329.418 305.092 329.403L304.779 331.597Z"
                  fill="#FF6B00"/>
        </g>
        <path d="M236.205 209.513C236.205 209.513 240.446 227.35 253.932 238.804C267.418 250.259 271.686 275.259 272.012 280.982C272.012 280.982 242.859 317.916 191.741 283.985C191.741 283.985 186.808 225.681 209.254 206.579L236.205 209.513Z"
              fill="#4B3A8E"/>
        <path d="M221.295 297.807C253.912 304.548 272.411 281.671 272.595 281.439L272.769 281.22L272.753 280.941C272.432 275.288 268.155 249.917 254.413 238.242C241.276 227.084 236.967 209.518 236.925 209.342L236.804 208.835L209.021 205.812L208.777 206.018C186.301 225.146 190.805 281.651 191.008 284.047L191.04 284.403L191.339 284.6C201.516 291.356 211.596 295.802 221.295 297.807ZM271.257 280.736C269.322 283.012 251.619 302.567 221.596 296.362L221.593 296.361C212.176 294.414 202.377 290.111 192.454 283.568C192.101 278.692 188.763 225.422 209.497 207.347L235.618 210.192C236.444 213.211 241.216 228.973 253.455 239.367C266.582 250.517 270.822 274.684 271.257 280.736Z"
              fill="black"/>
        <path d="M248.856 239.012C248.856 239.012 233.745 228.101 232.692 211.299C232.692 211.299 242.725 206.591 250.509 213.979C258.295 221.366 269.87 225.018 269.87 225.018C269.87 225.018 265.471 240.187 248.856 239.012Z"
              fill="#4B3A8E"/>
        <path d="M248.594 239.736L248.804 239.751C265.819 240.951 270.533 225.383 270.579 225.227L270.78 224.535L270.092 224.318C269.978 224.282 258.585 220.627 251.017 213.445C248.832 211.372 246.271 210.019 243.407 209.427C237.6 208.226 232.589 210.534 232.377 210.633L231.922 210.846L231.955 211.347C233.017 228.304 247.795 239.159 248.423 239.613L248.594 239.736ZM268.933 225.482C267.88 228.355 262.981 239.156 249.124 238.29C247.511 237.059 234.689 226.802 233.466 211.777C234.787 211.267 238.756 209.971 243.107 210.87C245.697 211.406 248.016 212.632 249.998 214.515C256.797 220.963 266.261 224.555 268.933 225.482Z"
              fill="black"/>
        <path d="M292.987 300.645C293.106 300.669 293.227 300.68 293.353 300.674C294.168 300.639 294.8 299.949 294.763 299.134C293.142 262.981 263.316 231.757 262.047 230.446C261.481 229.856 260.544 229.841 259.955 230.409C259.368 230.976 259.352 231.911 259.918 232.497C260.223 232.81 290.238 264.246 291.808 299.265C291.842 299.953 292.34 300.511 292.987 300.645Z"
              fill="black"/>
        <path d="M148.728 268.057C155.124 267.635 162.527 280.458 154.72 284.121C154.72 284.121 150.525 291.039 142.27 289.584C134.011 288.128 127.555 269.459 148.728 268.057Z"
              fill="#FFE9D9"/>
        <path d="M141.94 290.27C141.942 290.271 141.94 290.27 141.94 290.27L142.141 290.31C149.992 291.694 154.435 285.848 155.225 284.697C157.877 283.369 159.13 280.913 158.754 277.76C158.198 273.083 154.218 268.256 150.24 267.434C149.71 267.324 149.186 267.287 148.677 267.319C135.807 268.172 133.949 275.115 133.743 278.06C133.375 283.486 137.282 289.307 141.94 290.27ZM149.943 268.879C153.304 269.574 156.807 273.891 157.286 277.935C157.503 279.735 157.174 282.155 154.404 283.455L154.204 283.549L154.09 283.738C153.926 284.004 150.038 290.204 142.396 288.858L142.089 289.55L142.239 288.827C138.312 288.015 134.9 282.833 135.223 278.162C135.592 272.754 140.534 269.34 148.779 268.796C149.153 268.769 149.544 268.797 149.943 268.879Z"
              fill="black"/>
        <path d="M291.957 295.911C299.801 293.724 307.028 304.55 303.682 314.663C300.333 324.776 283.747 325.87 280.965 314.993C278.179 304.117 283.679 298.218 291.957 295.911Z"
              fill="#FFE9D9"/>
        <path d="M288.812 323.166C294.716 324.387 302.154 321.628 304.382 314.895C305.917 310.263 305.401 305.021 303.002 300.874C300.382 296.348 295.891 294.05 291.756 295.202C281.752 297.992 277.665 305.084 280.248 315.176C281.315 319.348 284.436 322.261 288.812 323.166ZM295.388 296.507C297.828 297.012 300.138 298.871 301.722 301.612C303.912 305.398 304.382 310.192 302.977 314.43C301.01 320.38 294.381 322.809 289.111 321.719C285.311 320.933 282.602 318.415 281.682 314.811C278.667 303.029 285.712 298.416 292.156 296.62C293.224 296.322 294.314 296.285 295.388 296.507Z"
              fill="black"/>
        <path d="M287.493 310.188L293.021 307.186L309.319 326.948L301.633 333.083L287.493 310.188Z" fill="#424242"/>
        <path d="M301.444 334.18L310.368 327.059L293.205 306.246L286.455 309.91L301.444 334.18ZM308.271 326.838L301.824 331.985L288.533 310.463L292.838 308.123L308.271 326.838Z"
              fill="black"/>
        <path d="M146.256 277.595L143.321 283.582L125.19 284.545L123.577 275.92L146.256 277.595Z" fill="#424242"/>
        <path d="M124.582 285.316L143.793 284.297L147.401 276.938L122.674 275.113L124.582 285.316ZM142.847 282.869L125.796 283.774L124.48 276.73L145.111 278.252L142.847 282.869Z"
              fill="black"/>
        <path d="M290.595 304.923C290.595 304.923 294.253 315.229 290.816 316.022C287.379 316.822 283.375 308.203 283.375 308.203"
              fill="#FCDFC0"/>
        <path d="M289.772 316.749C290.175 316.833 290.58 316.836 290.985 316.741C291.642 316.59 292.17 316.177 292.514 315.55C294.071 312.715 291.582 305.492 291.293 304.677L289.899 305.171C290.906 308.007 292.153 313.141 291.219 314.842C291.074 315.103 290.899 315.247 290.65 315.304C288.581 315.797 285.499 311.018 284.046 307.896L282.704 308.516C283.094 309.354 286.296 316.031 289.772 316.749Z"
              fill="black"/>
        <path d="M148.458 273.03C148.458 273.03 140.401 279.146 143.432 281.535C146.458 283.923 151.673 276.955 151.673 276.955"
              fill="#FCDFC0"/>
        <path d="M144.233 282.707C144.582 282.779 144.954 282.79 145.345 282.739C148.545 282.321 152.114 277.596 152.266 277.397L151.08 276.514C150.158 277.744 147.295 280.998 145.15 281.277C144.657 281.346 144.245 281.24 143.889 280.957C143.608 280.737 143.486 280.487 143.49 280.149C143.504 278.375 146.819 275.203 148.904 273.618L148.009 272.442C147.399 272.908 142.037 277.064 142.013 280.136C142.004 280.93 142.337 281.612 142.976 282.115C143.355 282.415 143.775 282.612 144.233 282.707Z"
              fill="black"/>
        <path d="M227.3 232.443C227.3 232.443 211.497 232.19 207.807 226.906L218.8 246.763L206.703 242.001L215.879 258.471L207.869 255.811L222.476 286.214L215.163 264.355L227.774 272.736L220.639 254.932L237.221 262.379L227.3 232.443Z"
              fill="#FF6B00"/>
        <path d="M221.811 286.535L223.181 285.983L216.547 266.162L229.345 274.667L222.008 256.356L238.45 263.742L227.837 231.714L227.312 231.704C227.26 231.704 222.157 231.61 217.179 230.581C212.666 229.648 209.636 228.231 208.414 226.484L207.16 227.263L217.161 245.323L205.056 240.558L214.311 257.171L206.452 254.562L221.811 286.535ZM213.779 262.551L218.029 275.249L209.292 257.063L217.45 259.771L208.355 243.444L220.444 248.203L210.284 229.855C211.964 230.741 214.169 231.469 216.881 232.03C221.111 232.904 225.311 233.12 226.762 233.17L235.992 261.02L219.276 253.514L226.207 270.81L213.779 262.551Z"
              fill="black"/>
        <g opacity="0.47">
            <path opacity="0.47"
                  d="M273.868 176.274C271.622 182.092 268.475 187.288 264.664 191.776C264.676 191.769 264.698 191.768 264.712 191.759C276.837 187.163 279.394 178.392 279.394 178.392L278.487 184.629C281.831 181.804 284.072 174.708 284.072 174.708L283.961 180.828L292.19 178.329C296.14 161.622 294.047 148.244 294.047 148.244L298.961 145.25C293.202 125.566 282.49 119.043 276.616 116.9C276.55 123.421 275.928 143.428 271.031 161.289C272.869 163.324 274.681 165.54 276.336 167.922C275.746 170.725 274.934 173.513 273.868 176.274Z"
                  fill="#896042"/>
        </g>
        <path d="M273.868 176.274C263.373 203.441 233.375 217.228 206.873 207.074C180.368 196.921 167.39 166.669 177.884 139.51C188.379 112.347 218.374 98.5521 244.88 108.71C271.386 118.863 284.363 149.111 273.868 176.274Z"
              fill="#FFE9D9"/>
        <path d="M214.622 209.838C211.941 209.283 209.278 208.503 206.702 207.515C179.994 197.283 166.866 166.702 177.438 139.341C186.921 114.799 212.022 100.758 237.122 105.947C239.805 106.502 242.474 107.284 245.052 108.27C257.991 113.226 268.162 123.05 273.687 135.93C279.211 148.805 279.433 163.192 274.312 176.445C264.831 200.984 239.727 215.028 214.622 209.838ZM236.931 106.871C212.289 101.776 187.642 115.574 178.327 139.68C167.942 166.557 180.825 196.595 207.042 206.637C209.569 207.603 212.182 208.368 214.815 208.913C239.461 214.008 264.112 200.211 273.424 176.105C278.457 163.081 278.239 148.944 272.815 136.295C267.39 123.654 257.412 114.012 244.713 109.149C242.183 108.181 239.565 107.415 236.931 106.871Z"
              fill="black"/>
        <path d="M273.868 176.275C278.464 164.381 278.56 151.886 274.982 140.754C273.215 154.788 269.555 171.352 261.977 181.987C246.654 203.493 228.038 212.79 202.739 204.812L202.847 205.316C204.153 205.95 205.487 206.549 206.871 207.076C233.375 217.228 263.372 203.441 273.868 176.275Z"
              fill="#FFE4C7"/>
        <path d="M198.033 153.683C197.148 155.972 195.214 157.354 193.709 156.777C192.2 156.201 191.697 153.884 192.58 151.6C193.46 149.313 195.399 147.929 196.903 148.509C198.412 149.081 198.917 151.403 198.033 153.683Z"
              fill="#572800"/>
        <path d="M242.785 167.494C241.902 169.778 239.966 171.16 238.46 170.587C236.956 170.008 236.449 167.69 237.333 165.404C238.216 163.118 240.151 161.734 241.656 162.313C243.164 162.887 243.669 165.207 242.785 167.494Z"
              fill="#572800"/>
        <path d="M292.191 178.33C296.142 161.623 294.049 148.244 294.049 148.244L298.962 145.251C290.763 117.214 272.502 115.866 272.502 115.866L278.587 111.782C272.266 110.641 267.788 113.805 267.788 113.805C269.913 110.253 269.405 101.849 269.405 101.849L265.024 108.639C255.373 75.9397 215.353 82.9369 215.353 82.9369L219.591 86.8755C187.739 84.7225 165.422 111.414 162.544 115.041L166.325 122.763C170.661 116.724 174.864 114.056 174.864 114.056C171.453 118.568 168.021 127.01 168.021 127.01L171.549 137.765C172.47 135.382 176.841 131.411 176.841 131.411C172.956 139.945 172.507 147.44 174.487 153.988C174.935 149.153 176.041 144.286 177.885 139.512C178.77 137.223 179.804 135.034 180.949 132.945C188.981 132.368 214.484 131.627 242.121 142.216C242.121 142.216 238.962 144.77 236.522 145.036C236.522 145.036 241.179 147.672 251.223 145.874C251.223 145.874 249.352 150.292 249.769 153.533C250.184 156.767 256.429 148.381 256.429 148.381C256.429 148.381 268.277 156.309 276.338 167.925C275.745 170.729 274.931 173.516 273.866 176.278C271.62 182.096 268.473 187.292 264.662 191.779C264.674 191.773 264.695 191.772 264.71 191.763C276.835 187.167 279.391 178.396 279.391 178.396L278.484 184.633C281.829 181.807 284.069 174.712 284.069 174.712L283.958 180.831L292.191 178.33Z"
              fill="#D04628"/>
        <path d="M264.883 192.201L264.3 191.473C268.18 186.903 271.249 181.733 273.422 176.106C274.422 173.518 275.23 170.799 275.831 168.023C268.715 157.846 258.593 150.471 256.538 149.027C255.163 150.839 251.758 155.056 250.156 154.725C249.882 154.668 249.408 154.445 249.298 153.589C248.973 151.063 249.955 147.923 250.48 146.48C245.355 147.298 241.702 146.947 239.501 146.491C237.378 146.052 236.332 145.469 236.289 145.444L235.017 144.726L236.467 144.567C238.092 144.39 240.117 143.087 241.148 142.35C234.423 139.823 227.331 137.781 220.052 136.276C201.953 132.534 187.061 132.994 181.242 133.396C180.118 135.47 179.136 137.584 178.325 139.682C176.546 144.286 175.412 149.114 174.957 154.031L174.029 154.12C172.087 147.7 172.574 140.74 175.474 133.399C174.17 134.736 172.499 136.615 171.988 137.936L171.51 139.179L167.515 126.989L167.579 126.831C167.696 126.542 170.051 120.779 172.807 116.262C171.209 117.658 168.972 119.889 166.708 123.038L166.243 123.684L161.983 114.98L162.166 114.75C164.618 111.663 186.762 84.9698 218.311 86.3359L214.332 82.6399L215.264 82.476C215.366 82.4578 225.435 80.7476 236.573 83.0503C246.764 85.1572 259.895 91.1216 265.175 107.529L269.787 100.376L269.875 101.828C269.895 102.137 270.266 108.663 268.829 112.667C270.645 111.776 274.193 110.515 278.664 111.32L279.813 111.529L273.762 115.588C277.94 116.405 292.386 121.097 299.414 145.121L299.515 145.465L294.556 148.486C294.834 150.604 296.243 163.232 292.647 178.44L292.586 178.702L283.468 181.47L283.54 177.488C282.562 179.85 280.901 183.208 278.787 184.99L277.826 185.801L278.453 181.507C276.657 184.544 272.755 189.217 264.883 192.201ZM256.318 147.735L256.696 147.99C256.815 148.07 268.711 156.101 276.728 167.659L276.844 167.824L276.801 168.022C276.189 170.917 275.351 173.749 274.31 176.445C272.323 181.586 269.601 186.355 266.206 190.641C276.528 186.066 278.913 178.342 278.937 178.259L279.863 178.461L279.162 183.278C281.824 180.17 283.599 174.627 283.619 174.563L284.547 174.717L284.449 180.185L291.79 177.956C295.589 161.661 293.599 148.446 293.579 148.313L293.53 148.003L298.404 145.032C290.301 117.815 272.583 116.337 272.467 116.329L271.107 116.227L277.295 112.073C271.879 111.546 268.103 114.156 268.063 114.185L267.378 113.56C268.874 111.062 269.009 105.939 268.976 103.383L264.863 109.762L264.569 108.766C260.611 95.3576 251.132 87.0108 236.388 83.9627C227.405 82.1056 219.144 82.9001 216.399 83.2582L220.891 87.4295L219.564 87.3406C188.482 85.2398 166.336 111.093 163.104 115.096L166.408 121.841C170.574 116.251 174.443 113.761 174.609 113.654L175.246 114.335C172.165 118.41 169.017 125.85 168.529 127.024L171.648 136.539C173.128 134.152 176.363 131.201 176.519 131.057L177.275 131.601C174.1 138.574 173.109 145.202 174.318 151.34C174.899 147.235 175.946 143.206 177.441 139.335C178.297 137.122 179.339 134.893 180.531 132.711L180.657 132.485L180.914 132.467C186.579 132.06 201.753 131.523 220.247 135.346C227.866 136.921 235.285 139.083 242.292 141.769L243.057 142.063L242.422 142.576C242.315 142.662 240.205 144.354 238.05 145.135C238.487 145.276 239.033 145.426 239.693 145.563C241.927 146.024 245.727 146.371 251.14 145.404L252.003 145.248L251.665 146.051C251.646 146.093 249.846 150.394 250.243 153.467C250.276 153.733 250.346 153.792 250.347 153.794C251.104 153.95 253.905 150.971 256.049 148.092L256.318 147.735Z"
              fill="black"/>
        <path d="M218.732 191.939C218.732 191.939 221.006 194.697 221.538 197.636L218.732 191.939Z" fill="#FFB6C9"/>
        <path d="M209.053 193.843C207.833 193.591 206.704 193.15 205.668 192.522C200.681 189.499 199.736 183.277 199.697 183.014L200.638 182.882C200.648 182.943 201.564 188.934 206.167 191.721C209.146 193.525 213.027 193.623 217.703 192.016C221.572 190.688 223.91 186.766 224.808 183.538L225.725 183.793C224.762 187.251 222.23 191.461 218.017 192.908C214.645 194.068 211.644 194.378 209.053 193.843Z"
              fill="black"/>
        <path d="M223.632 187.472C222.371 189.578 220.489 191.561 217.858 192.464C215.839 193.159 214.056 193.504 212.464 193.6C214.036 197.729 217.256 203.604 222.332 201.192C228.939 198.051 226.425 190.969 223.632 187.472Z"
              fill="#F37972"/>
        <path d="M219.022 202.122C215.598 201.412 213.323 197.186 212.021 193.763L211.794 193.167L212.436 193.129C214.075 193.03 215.846 192.658 217.702 192.018C220.469 191.069 222.233 188.892 223.223 187.231L223.576 186.644L224.005 187.18C225.795 189.418 227.6 193.253 226.808 196.688C226.307 198.85 224.873 200.506 222.541 201.617C221.34 202.186 220.155 202.356 219.022 202.122ZM213.14 194.02C214.383 197.098 216.393 200.615 219.213 201.198C220.138 201.39 221.117 201.246 222.127 200.766C224.184 199.788 225.449 198.344 225.88 196.475C226.5 193.789 225.267 190.548 223.669 188.306C222.546 189.996 220.728 191.978 218.014 192.91C216.318 193.494 214.679 193.867 213.14 194.02Z"
              fill="black"/>
        <path d="M221.071 197.719C220.566 194.932 218.384 192.264 218.363 192.238L219.097 191.643C219.192 191.759 221.457 194.53 222.003 197.554L221.071 197.719Z"
              fill="black"/>
    </g>
    <defs>
        <filter id="filter0_d_131_3088" x="0.13916" y="86.9707" width="432.272" height="331.156" filterUnits="userSpaceOnUse"
                color-interpolation-filters="sRGB">
            <feFlood flood-opacity="0" result="BackgroundImageFix"/>
            <feColorMatrix in="SourceAlpha" type="matrix" values="0 0 0 0 0 0 0 0 0 0 0 0 0 0 0 0 0 0 127 0" result="hardAlpha"/>
            <feOffset dy="9"/>
            <feGaussianBlur stdDeviation="22.5"/>
            <feComposite in2="hardAlpha" operator="out"/>
            <feColorMatrix type="matrix" values="0 0 0 0 1 0 0 0 0 1 0 0 0 0 1 0 0 0 0.06 0"/>
            <feBlend mode="normal" in2="BackgroundImageFix" result="effect1_dropShadow_131_3088"/>
            <feBlend mode="normal" in="SourceGraphic" in2="effect1_dropShadow_131_3088" result="shape"/>
        </filter>
        <filter id="filter1_d_131_3088" x="84.9329" y="7.08252" width="284.718" height="346.619" filterUnits="userSpaceOnUse"
                color-interpolation-filters="sRGB">
            <feFlood flood-opacity="0" result="BackgroundImageFix"/>
            <feColorMatrix in="SourceAlpha" type="matrix" values="0 0 0 0 0 0 0 0 0 0 0 0 0 0 0 0 0 0 127 0" result="hardAlpha"/>
            <feOffset/>
            <feGaussianBlur stdDeviation="11"/>
            <feComposite in2="hardAlpha" operator="out"/>
            <feColorMatrix type="matrix" values="0 0 0 0 1 0 0 0 0 0.419608 0 0 0 0 0 0 0 0 0.4 0"/>
            <feBlend mode="normal" in2="BackgroundImageFix" result="effect1_dropShadow_131_3088"/>
            <feBlend mode="normal" in="SourceGraphic" in2="effect1_dropShadow_131_3088" result="shape"/>
        </filter>
        <clipPath id="clip0_131_3088">
            <rect width="337.594" height="290.49" fill="white"
                  transform="matrix(-0.97929 -0.20246 -0.20246 0.97929 435 68.3491)"/>
        </clipPath>
    </defs>
</svg>