<svg width="448" height="338" viewBox="0 0 448 338" fill="none" xmlns="http://www.w3.org/2000/svg">
    <path d="M321.932 91.9863C343.883 114.29 357.353 140.718 364.292 167.619C371.419 194.574 371.827 221.949 353.822 236.908C335.773 252.01 299.311 254.696 270.58 255.692C241.893 256.545 220.893 255.852 197.405 257.876C173.874 260.044 147.666 264.875 119.201 260.339C90.5019 255.893 59.3997 241.882 45.7777 221.954C31.9665 201.971 35.402 176.159 45.0464 154.922C54.6908 133.685 70.5441 117.022 87.0979 100.092C103.507 82.9644 121.038 65.5342 146.319 54.3638C171.744 43.3905 205.196 38.4446 237.138 45.0621C269.27 51.7336 299.936 69.8253 321.932 91.9863Z"
          fill="#FE6001"/>
    <g filter="url(#filter0_d_131_3521)">
        <path d="M345.484 83.7163C370.491 106.721 386.662 134.86 395.853 163.979C405.25 193.144 407.461 223.243 389.103 240.971C370.708 258.859 331.744 264.376 300.969 267.491C270.232 270.445 247.645 271.157 222.565 275.035C197.447 279.074 169.629 286.232 138.78 283.24C107.687 280.362 73.3941 267.128 57.4812 246.152C41.3617 225.13 43.3771 196.481 52.3535 172.431C61.3299 148.381 77.2672 128.929 93.9392 109.133C110.443 89.1307 128.132 68.7163 154.544 54.6467C181.125 40.7839 216.711 32.9908 251.427 38.0299C286.349 43.1151 320.438 60.8719 345.484 83.7163Z"
              fill="#212073"/>
    </g>
    <g clip-path="url(#clip0_131_3521)">
        <mask id="mask0_131_3521" style="mask-type:alpha" maskUnits="userSpaceOnUse" x="61" y="30" width="329" height="241">
            <path d="M330.804 69.9716C354.803 90.7681 370.928 116.901 380.691 144.309C390.647 171.752 394.05 200.434 378.014 218.277C361.95 236.275 326.446 243.433 298.347 247.898C270.275 252.208 249.58 253.98 226.742 258.9C203.876 263.975 178.676 272.165 150.23 270.793C121.565 269.542 89.4914 258.539 73.9308 239.244C58.1783 219.916 58.7195 192.416 65.8585 168.979C72.9976 145.542 86.7345 126.167 101.13 106.428C115.361 86.4992 130.662 66.119 154.257 51.3864C178.016 36.8435 210.317 27.6712 242.404 30.8149C274.684 33.9926 306.777 49.3307 330.804 69.9716Z"
                  fill="white"/>
        </mask>
        <g mask="url(#mask0_131_3521)">
            <path d="M330.804 69.9716C354.803 90.7681 370.928 116.901 380.691 144.309C390.647 171.752 394.05 200.434 378.014 218.277C361.95 236.275 326.446 243.433 298.347 247.898C270.275 252.208 249.58 253.98 226.742 258.9C203.876 263.975 178.676 272.165 150.23 270.793C121.565 269.542 89.4914 258.539 73.9308 239.244C58.1783 219.916 58.7195 192.416 65.8585 168.979C72.9976 145.542 86.7345 126.167 101.13 106.428C115.361 86.4992 130.662 66.119 154.257 51.3864C178.016 36.8435 210.317 27.6712 242.404 30.8149C274.684 33.9926 306.777 49.3307 330.804 69.9716Z"
                  fill="white"/>
            <path d="M257.287 152.817C257.287 152.817 329.191 186.305 382.214 192.037C382.214 192.037 388.322 192.312 378.865 197.845C369.409 203.376 388.022 237.242 374.019 247.035C360.012 256.831 353.589 251.196 342.014 255.972C330.438 260.748 326.514 275.735 320.897 287.893C315.279 300.046 289.719 298.081 278.399 291.01C267.078 283.942 260.786 287.742 253.392 296.399C246.003 305.058 230.785 300.148 224.699 296.834C218.608 293.52 212.638 299.981 210.523 299.224C208.409 298.47 202.289 247.902 202.289 247.902C202.289 247.902 196.642 207.07 200.575 204.566C204.503 202.071 257.287 152.817 257.287 152.817Z"
                  fill="#FE6001"/>
            <path d="M306.075 296.963C296.728 298.094 284.959 295.801 278.088 291.509C273.637 288.731 269.825 287.579 266.426 287.99C262.398 288.477 258.75 291.025 253.836 296.781C251.486 299.533 248.205 301.182 244.089 301.681C236.519 302.597 228.16 299.389 224.418 297.351C223.046 296.604 221.595 296.334 219.983 296.529C217.873 296.785 215.859 297.81 214.246 298.63C212.58 299.475 211.231 300.106 210.326 299.778C208.187 299.017 204.007 266.994 201.705 247.975C200.754 241.105 196.215 206.651 200.259 204.077C204.098 201.636 256.359 152.881 256.885 152.389L257.174 152.119L257.532 152.288C258.249 152.62 329.959 185.803 382.277 191.461C382.46 191.465 384.388 191.588 384.699 192.861C385.037 194.221 383.325 195.914 379.161 198.354C375.265 200.628 376.684 208.867 378.186 217.586C380.152 228.986 382.373 241.908 374.352 247.518C367.643 252.21 362.716 253.33 358.788 253.805C357.283 253.988 355.824 254.077 354.363 254.166C352.922 254.254 351.482 254.347 349.998 254.526C347.17 254.869 344.707 255.501 342.239 256.519C333.133 260.275 328.789 270.715 324.588 280.81C323.55 283.298 322.521 285.774 321.426 288.144C318.608 294.237 311.524 296.303 306.075 296.963ZM266.285 286.83C269.96 286.385 274.019 287.592 278.709 290.518C285.376 294.68 296.826 296.903 305.935 295.801C311.088 295.177 317.773 293.258 320.362 287.65C321.454 285.298 322.475 282.832 323.505 280.36C327.8 270.041 332.241 259.375 341.789 255.432C344.357 254.373 346.922 253.714 349.857 253.359C351.365 253.177 352.829 253.085 354.289 252.998C355.727 252.91 357.164 252.823 358.649 252.644C362.435 252.185 367.185 251.103 373.681 246.558C381.096 241.372 378.94 228.843 377.033 217.781C375.395 208.256 373.975 200.032 378.57 197.342C383.693 194.347 383.592 193.255 383.566 193.143C383.496 192.86 382.703 192.649 382.189 192.625C331.561 187.152 262.979 156.072 257.4 153.514C252.767 157.833 204.71 202.635 200.887 205.064C198.256 206.741 200.705 232.184 202.869 247.827C205.143 266.619 209.317 297.053 210.842 298.747C210.802 298.707 210.919 298.713 211.062 298.696C211.684 298.62 212.628 298.14 213.716 297.588C215.413 296.724 217.526 295.65 219.844 295.369C221.68 295.147 223.407 295.47 224.981 296.324C228.602 298.297 236.673 301.402 243.95 300.521C247.767 300.057 250.795 298.546 252.948 296.025C256.695 291.634 260.905 287.481 266.285 286.83Z"
                  fill="black"/>
            <path d="M186.549 359.79C166.752 307.29 179.952 265.476 180.089 265.061L182.313 265.785C182.18 266.192 169.246 307.272 188.741 358.964L186.549 359.79Z"
                  fill="black"/>
            <path d="M255.683 355.884C235.862 321.748 234.147 264.655 234.131 264.083L236.471 264.018C236.483 264.587 238.19 321.095 257.707 354.708L255.683 355.884Z"
                  fill="black"/>
            <path d="M163.379 141.833C103.739 107.158 97.9941 83.4371 97.779 82.4436L100.067 81.942C100.12 82.1748 106.05 105.788 164.558 139.806L163.379 141.833Z"
                  fill="black"/>
            <path d="M328.738 212.419C311.395 195.557 260.549 157.582 260.039 157.2L261.44 155.322C261.954 155.706 312.92 193.768 330.37 210.738L328.738 212.419Z"
                  fill="black"/>
            <path d="M80.2204 62.1826C73.1842 65.3519 75.3938 92.8917 100.037 86.451C120.653 81.0605 100.708 52.9512 80.2204 62.1826Z"
                  fill="#FCC9A4"/>
            <path d="M96.0168 87.8216C96.0154 87.8217 96.0139 87.8219 96.0139 87.8219C81.8544 89.5355 77.7917 79.0379 76.8842 75.7827C75.1731 69.6477 76.5913 63.1763 79.9781 61.652C81.9922 60.7431 84.0789 60.1566 86.1853 59.9016C97.3901 58.5456 107.523 66.7975 109.102 75.0853C110.192 80.8113 106.857 85.2727 100.184 87.0168C98.7524 87.3898 97.3496 87.6603 96.0168 87.8216ZM86.3271 61.0616C84.3372 61.3024 82.3649 61.8576 80.4615 62.7167C77.6199 63.997 76.475 69.954 78.0114 75.4654C78.8555 78.4979 82.6396 88.2605 95.8732 86.6589C95.8732 86.6589 95.8746 86.6587 95.876 86.6586C97.1571 86.5035 98.5072 86.2439 99.8874 85.8828C105.988 84.2883 108.93 80.4286 107.953 75.2987C106.473 67.5226 96.9094 59.7809 86.3271 61.0616Z"
                  fill="black"/>
            <path d="M100.918 77.9676C100.026 78.0755 98.9912 78.0316 97.8147 77.8341C93.8066 77.1654 91.1411 75.1994 90.6905 72.573C90.3998 70.8943 91.1574 69.2827 92.6229 68.4694C94.8645 67.2223 98.0006 68.087 101.019 70.7717L100.239 71.6493C97.6116 69.3082 94.9773 68.5039 93.1917 69.4931C92.1531 70.0724 91.6375 71.1763 91.844 72.3765C92.2084 74.4839 94.5117 76.097 98.0092 76.6801C100.592 77.1114 102.307 76.7493 103.11 75.6121C104.853 73.13 102.237 67.2388 101.083 65.1803L102.102 64.6077C102.286 64.9369 106.589 72.6953 104.07 76.2865C103.396 77.2301 102.341 77.7953 100.918 77.9676Z"
                  fill="black"/>
            <path d="M329.78 227.418C325.541 227.337 317.775 214.691 327.243 206.459C336.712 198.221 358.236 203.127 358.459 213.353C358.685 223.58 335.313 225.731 333.579 222.566C333.579 222.566 334.63 227.506 329.78 227.418Z"
                  fill="#FFE9D9"/>
            <path d="M330.695 227.959C330.407 227.994 330.103 228.009 329.771 228.004C327.436 227.955 324.488 224.847 323.066 220.919C322.102 218.269 320.54 211.506 326.857 206.016C329.378 203.82 332.868 202.402 336.947 201.908C343.839 201.074 351.327 202.989 355.576 206.674C357.791 208.592 358.993 210.899 359.045 213.339C359.192 219.939 350.449 223.341 342.921 224.252C339.865 224.622 336.205 224.655 334.257 223.807C334.237 224.6 334.067 225.602 333.474 226.438C332.858 227.299 331.923 227.81 330.695 227.959ZM337.089 203.071C333.245 203.536 329.971 204.862 327.628 206.898C321.86 211.914 323.285 218.095 324.165 220.521C325.521 224.257 328.171 226.803 329.795 226.832C331.116 226.856 331.99 226.5 332.522 225.758C333.379 224.562 333.015 222.707 333.01 222.69L334.096 222.286C334.494 223.017 337.738 223.703 342.782 223.093C350.382 222.173 357.996 218.812 357.876 213.369C357.831 211.267 356.771 209.258 354.811 207.56C350.794 204.08 343.672 202.274 337.089 203.071Z"
                  fill="black"/>
            <path d="M334.163 222.624L332.998 222.507C333.262 219.822 329.827 217.052 329.793 217.023L330.522 216.106C330.685 216.238 334.493 219.301 334.163 222.624Z"
                  fill="black"/>
            <path d="M161.923 243.918C161.923 243.918 152.186 277.96 156.53 279.599C160.872 281.24 200 290.086 200.849 285.546C201.694 281.005 202.278 263.584 203.359 266.393C204.442 269.2 204.706 283.803 207.597 285.514C210.487 287.224 239.575 290.753 259.729 280.708C264.211 278.473 252.036 235.592 250.705 235.768C249.373 235.944 165.238 235.635 165.238 235.635L161.923 243.918Z"
                  fill="#D9CCAD"/>
            <path d="M238.911 287.316C223.912 289.301 209.605 287.429 207.319 286.076C205.324 284.896 204.551 279.517 203.753 272.609C203.55 270.87 203.359 269.197 203.149 268.009C202.848 270.052 202.554 273.761 202.324 276.675C202.028 280.4 201.752 283.916 201.422 285.673C201.198 286.87 199.742 287.196 198.663 287.339C189.866 288.503 159.781 281.507 156.339 280.206C151.811 278.499 159.042 251.853 161.364 243.729L164.857 234.994L165.239 234.998C194.185 235.104 249.282 235.266 250.641 235.131C252.053 234.944 255.254 246.52 257.031 253.436C260.079 265.289 263.064 279.747 259.968 281.289C254.103 284.213 247.019 286.243 238.911 287.316ZM203.045 265.45C203.299 265.417 203.656 265.512 203.896 266.145C204.305 267.198 204.573 269.514 204.915 272.448C205.447 277.041 206.252 283.984 207.876 284.951C209.655 286.003 223.451 288.073 238.77 286.046C246.757 284.989 253.728 282.995 259.486 280.126C259.704 280.016 259.894 279.578 260.005 278.921C261.374 270.832 252.179 239.074 250.509 236.414C245.37 236.562 172.352 236.301 165.621 236.276L162.457 244.173C157.879 260.198 154.37 278.108 156.721 278.996C160.051 280.251 190.1 287.182 198.523 286.067C199.893 285.886 200.252 285.536 200.275 285.419C200.59 283.732 200.878 280.088 201.158 276.566C201.951 266.531 202.205 265.562 203.045 265.45Z"
                  fill="black"/>
            <path d="M223.845 135.936C223.845 135.936 230.019 135.83 237.351 139.687C244.681 143.54 273.143 158.322 273.052 160.359C272.959 162.397 257.533 174.392 256.161 174.218C254.789 174.045 246.927 164.87 247.29 167.865C247.652 170.862 261.624 233.304 256.676 234.237C251.723 235.175 218.6 243.234 192.791 241.968C166.98 240.706 150.654 233.905 151.985 231.041C153.312 228.182 165.493 175.404 178.945 158.247C178.945 158.247 154.377 147.72 152.313 144.594C150.244 141.471 162.648 128.492 166.562 130.717C170.481 132.944 223.845 135.936 223.845 135.936Z"
                  fill="#1CB6F0"/>
            <path d="M220.84 241.191C210.156 242.484 200.71 242.941 192.763 242.552C169.561 241.419 153.702 235.783 151.61 232.322C151.207 231.653 151.3 231.123 151.453 230.796C151.699 230.271 152.43 227.58 153.443 223.861C157.637 208.477 167.369 172.734 178.026 158.489C173.497 156.534 153.795 147.9 151.824 144.918C151.311 144.144 151.402 142.989 152.094 141.491C154.145 137.053 161.045 130.391 165.029 129.909C165.736 129.823 166.35 129.925 166.854 130.209C169.969 131.98 209.076 134.522 223.879 135.353C224.096 135.348 230.244 135.29 237.624 139.169L239.241 140.018C271.074 156.71 273.688 159.232 273.639 160.386C273.519 162.963 257.998 174.593 256.311 174.797C255.424 174.713 254.389 173.788 252.01 171.535C250.775 170.363 248.821 168.514 247.916 167.989C248.075 169.001 248.566 171.385 249.211 174.532C254.831 201.873 260.226 230.347 257.635 234.205C257.355 234.624 257.017 234.767 256.782 234.81C256.189 234.923 255.192 235.139 253.848 235.427C247.749 236.741 235.062 239.469 220.84 241.191ZM165.168 131.071C161.673 131.494 155.027 137.935 153.155 141.981C152.667 143.039 152.536 143.873 152.798 144.267C154.242 146.457 169.361 153.504 179.176 157.708L179.875 158.01L179.406 158.61C168.719 172.238 158.805 208.628 154.574 224.169C153.375 228.56 152.79 230.7 152.515 231.289C152.469 231.391 152.501 231.533 152.612 231.72C154.333 234.566 169.242 240.23 192.82 241.386C200.701 241.773 210.08 241.316 220.701 240.03C234.868 238.316 247.524 235.594 253.604 234.285C254.959 233.995 255.968 233.776 256.565 233.665C259.328 229.585 250.85 188.327 248.067 174.771C247.26 170.864 246.778 168.506 246.709 167.937C246.578 166.853 247.316 166.708 247.463 166.69C248.37 166.58 249.785 167.824 252.813 170.685C254.075 171.883 255.803 173.516 256.252 173.643C257.716 173.399 272.139 162.203 272.468 160.325C271.853 159.005 260.485 152.484 238.697 141.058L237.08 140.207C229.979 136.474 223.915 136.521 223.853 136.524C221.628 136.398 170.267 133.495 166.274 131.227C165.991 131.067 165.62 131.016 165.168 131.071Z"
                  fill="black"/>
            <path d="M247.288 167.863C247.288 167.863 240.652 154.872 240.116 153.226Z" fill="white"/>
            <path d="M246.767 168.128C246.496 167.601 240.105 155.076 239.56 153.41L240.673 153.045C241.085 154.311 245.521 163.12 247.808 167.601L246.767 168.128Z"
                  fill="black"/>
            <path d="M198.065 140.802C181.714 162.599 164.829 195.577 165.165 237.159C167.905 238.116 171.326 238.599 175.341 239.42C173.907 197.143 190.369 163.913 206.796 141.421C203.968 141.234 201.014 141.024 198.065 140.802Z"
                  fill="#5458B3"/>
            <path d="M178.367 135.233C174.516 140.144 170.598 145.684 166.821 151.832C169.226 153.054 171.906 154.333 174.463 155.51C178.544 148.329 182.892 141.861 187.193 136.197C183.807 135.875 180.786 135.559 178.367 135.233Z"
                  fill="#52C69D"/>
            <path d="M241.114 236.756C243.773 236.268 246.204 235.79 248.337 235.352C248.343 221.557 249.566 210.839 252.697 199.052C251.592 193.264 250.474 187.738 249.563 183.271C243.634 199.51 240.587 216.039 241.114 236.756Z"
                  fill="#5458B3"/>
            <path d="M226.026 140.86C226.026 140.86 222.704 140.677 217.716 140.374C201.39 163.449 185.679 198.436 188.059 240.937C190.781 241.221 193.336 241.221 196.349 241.369C198.043 241.447 200.164 241.328 201.914 241.333C199.462 199.097 214.8 164.641 230.992 141.52C228.011 140.851 226.026 140.86 226.026 140.86Z"
                  fill="#5458B3"/>
            <path d="M252.593 170.46C254.176 171.945 255.663 173.348 256.18 173.412C256.611 173.464 258.561 172.218 260.941 170.478C263.041 165.696 265.323 161.182 267.7 156.891C265.869 155.759 263.6 154.448 261.119 153.06C258.075 158.452 255.195 164.263 252.593 170.46Z"
                  fill="#5BB354"/>
            <path d="M241.241 142.476C226.32 165.541 212.558 201.061 215.107 240.573C219.67 240.191 224.19 239.653 228.495 239.034C226.936 203.25 238.805 170.327 252.23 148.249C247.944 145.967 243.939 143.878 241.241 142.476Z"
                  fill="#5458B3"/>
            <path d="M198.638 140.338C198.638 140.338 194.552 153.317 204.694 153.442C214.837 153.565 219.159 143.253 217.176 140.118C215.193 136.982 198.638 140.338 198.638 140.338Z"
                  fill="#ED1C24"/>
            <path d="M206.638 153.923C206.012 153.998 205.362 154.038 204.688 154.029C202.001 153.995 200 153.097 198.741 151.359C195.858 147.377 197.99 140.451 198.082 140.162L198.185 139.833L198.524 139.761C198.558 139.755 201.86 139.089 205.649 138.63C216.132 137.362 217.293 139.202 217.675 139.805C218.565 141.218 218.37 143.763 217.167 146.287C215.162 150.516 211.224 153.367 206.638 153.923ZM199.104 140.842C198.731 142.224 197.478 147.621 199.69 150.675C200.721 152.093 202.407 152.829 204.702 152.856C205.323 152.864 205.923 152.83 206.496 152.761L206.497 152.761C212.7 152.01 215.421 147.231 216.111 145.785C217.126 143.648 217.356 141.493 216.684 140.431C216.414 140.007 214.832 138.7 205.789 139.795C202.756 140.162 200.042 140.66 199.104 140.842Z"
                  fill="black"/>
            <path d="M203.424 153.349C203.424 153.349 196.537 148.352 185.582 150.806C174.626 153.253 169.908 167.646 174.663 164.905C183.938 159.555 194.668 166.757 203.424 153.349Z"
                  fill="#ED1C24"/>
            <path d="M173.845 165.825C173.026 165.924 172.424 165.437 172.271 164.557C171.726 161.382 176.908 152.144 185.452 150.235C196.552 147.752 203.501 152.68 203.765 152.876L204.218 153.203L203.912 153.668C199.353 160.649 194.158 162.144 189.677 162.687C188.347 162.848 187.01 162.931 185.676 163.012C184.373 163.091 183.072 163.168 181.781 163.324C178.976 163.664 176.869 164.31 174.954 165.412C174.544 165.653 174.18 165.784 173.845 165.825ZM188.451 150.905C187.571 151.011 186.654 151.165 185.708 151.377C177.533 153.208 173.017 161.978 173.425 164.362C173.485 164.69 173.573 164.679 173.706 164.663C173.826 164.649 174.038 164.591 174.37 164.4C176.428 163.213 178.673 162.52 181.642 162.161C182.954 162.002 184.28 161.925 185.609 161.844C186.917 161.763 188.232 161.684 189.538 161.526C193.851 161.004 198.413 159.663 202.604 153.518C201.07 152.607 195.921 150.001 188.451 150.905Z"
                  fill="black"/>
            <path d="M196.867 152.918C196.612 155.066 199.449 160.043 201.77 157.175C204.231 154.137 205.585 157.796 207.641 155.901C209.695 154.004 210.783 148.643 204.17 148.412C197.557 148.181 197.017 151.652 196.867 152.918Z"
                  fill="#ED1C24"/>
            <path d="M200.497 158.613C199.731 158.706 198.947 158.373 198.225 157.655C197.006 156.44 196.119 154.24 196.284 152.851C196.7 149.365 199.388 147.66 204.188 147.826C207.764 147.95 209.075 149.487 209.547 150.755C210.271 152.704 209.348 155.12 208.039 156.328C207.584 156.746 207.113 156.984 206.601 157.046C205.984 157.119 205.424 156.924 204.932 156.752C203.986 156.423 203.175 156.365 202.224 157.54C201.713 158.175 201.131 158.536 200.497 158.613ZM201.982 149.075C197.854 149.574 197.557 152.055 197.448 152.985C197.337 153.912 198.016 155.793 199.051 156.827C199.575 157.349 200.511 157.797 201.316 156.807C202.637 155.167 204.193 155.257 205.319 155.65C205.745 155.797 206.114 155.925 206.462 155.884C206.726 155.852 206.973 155.721 207.244 155.474C208.25 154.544 208.995 152.632 208.45 151.165C207.954 149.829 206.467 149.079 204.15 149C203.362 148.967 202.635 148.996 201.982 149.075Z"
                  fill="black"/>
            <path d="M209.292 150.196C209.292 150.196 211.546 149.262 219.444 152.93C229.569 157.633 233.255 164.4 235.241 168.941C237.223 173.479 235.894 171.968 219.816 167.224C209.121 164.065 202.76 152.321 209.292 150.196Z"
                  fill="#ED1C24"/>
            <path d="M235.46 172.234C234.431 172.358 232.472 171.744 228.181 170.396C225.958 169.699 223.154 168.818 219.651 167.785C211.723 165.443 206.126 158.591 206.064 153.909C206.037 151.803 207.116 150.286 209.11 149.64C209.122 149.633 209.283 149.576 209.591 149.538C210.758 149.397 213.615 149.584 219.688 152.399C229.647 157.024 233.517 163.544 235.776 168.707C236.396 170.131 236.75 171.042 236.379 171.685C236.259 171.899 236.001 172.168 235.46 172.234ZM209.733 150.7C209.572 150.719 209.499 150.745 209.496 150.746C207.969 151.241 207.216 152.298 207.235 153.891C207.295 158.158 212.757 164.527 219.983 166.661C223.493 167.697 226.306 168.578 228.532 169.28C232.278 170.46 234.541 171.162 235.321 171.068C235.393 171.059 235.415 171.049 235.416 171.049C235.435 170.84 234.904 169.629 234.707 169.176C232.53 164.2 228.803 157.921 219.198 153.462C213.003 150.585 210.384 150.621 209.733 150.7Z"
                  fill="black"/>
        </g>
        <g clip-path="url(#clip1_131_3521)">
            <path d="M257.286 152.817C257.286 152.817 329.191 186.306 382.214 192.038C382.214 192.038 388.322 192.312 378.864 197.846C369.409 203.376 388.022 237.242 374.019 247.035C360.012 256.831 353.589 251.197 342.013 255.973C330.438 260.749 326.514 275.736 320.896 287.893C315.279 300.047 289.719 298.082 278.399 291.01C267.078 283.942 260.786 287.742 253.391 296.4C246.003 305.058 230.785 300.148 224.698 296.834C218.608 293.521 212.638 299.981 210.523 299.225C208.408 298.47 202.288 247.902 202.288 247.902C202.288 247.902 196.642 207.07 200.574 204.567C204.503 202.071 257.286 152.817 257.286 152.817Z"
                  fill="#FE6001"/>
            <path d="M306.075 296.963C296.728 298.094 284.959 295.802 278.087 291.509C273.637 288.731 269.824 287.579 266.425 287.991C262.398 288.478 258.75 291.026 253.836 296.781C251.486 299.533 248.205 301.182 244.088 301.682C236.518 302.598 228.16 299.389 224.418 297.351C223.045 296.604 221.595 296.335 219.983 296.53C217.872 296.785 215.859 297.811 214.246 298.63C212.58 299.475 211.231 300.107 210.326 299.779C208.187 299.018 204.007 266.995 201.705 247.976C200.754 241.106 196.215 206.651 200.258 204.077C204.097 201.636 256.359 152.882 256.884 152.389L257.174 152.119L257.532 152.289C258.249 152.621 329.959 185.803 382.277 191.461C382.46 191.466 384.387 191.588 384.699 192.862C385.037 194.221 383.325 195.915 379.161 198.354C375.265 200.629 376.684 208.867 378.185 217.586C380.152 228.987 382.373 241.908 374.352 247.519C367.643 252.211 362.716 253.33 358.788 253.806C357.282 253.988 355.824 254.077 354.363 254.166C352.922 254.255 351.482 254.347 349.998 254.527C347.17 254.869 344.706 255.501 342.239 256.519C333.133 260.276 328.789 270.716 324.588 280.81C323.55 283.299 322.52 285.775 321.426 288.145C318.608 294.237 311.524 296.303 306.075 296.963ZM266.285 286.83C269.96 286.386 274.019 287.592 278.709 290.518C285.376 294.681 296.826 296.904 305.934 295.801C311.087 295.178 317.773 293.259 320.362 287.65C321.453 285.298 322.475 282.832 323.505 280.361C327.8 270.042 332.241 259.376 341.789 255.433C344.357 254.374 346.922 253.715 349.857 253.36C351.365 253.177 352.829 253.086 354.289 252.998C355.727 252.91 357.163 252.824 358.649 252.644C362.434 252.186 367.185 251.103 373.681 246.558C381.096 241.373 378.939 228.843 377.033 217.781C375.395 208.256 373.975 200.032 378.57 197.342C383.693 194.347 383.591 193.256 383.566 193.143C383.495 192.86 382.703 192.65 382.189 192.626C331.561 187.153 262.979 156.073 257.4 153.514C252.767 157.834 204.71 202.636 200.887 205.065C198.255 206.741 200.704 232.185 202.869 247.828C205.143 266.62 209.316 297.053 210.842 298.748C210.802 298.707 210.919 298.713 211.062 298.696C211.684 298.621 212.628 298.14 213.715 297.589C215.413 296.724 217.526 295.65 219.844 295.37C221.68 295.147 223.407 295.471 224.981 296.325C228.601 298.298 236.673 301.402 243.949 300.521C247.767 300.058 250.795 298.546 252.948 296.025C256.695 291.635 260.905 287.482 266.285 286.83Z"
                  fill="black"/>
            <path d="M163.379 141.834C103.738 107.158 97.9938 83.4376 97.7787 82.444L100.067 81.9425C100.12 82.1753 106.05 105.789 164.558 139.806L163.379 141.834Z"
                  fill="black"/>
            <path d="M328.738 212.42C311.395 195.558 260.549 157.582 260.038 157.2L261.439 155.323C261.954 155.707 312.92 193.769 330.369 210.739L328.738 212.42Z"
                  fill="black"/>
            <path d="M80.2202 62.1831C73.184 65.3524 75.3936 92.8922 100.036 86.4514C120.653 81.061 100.707 52.9517 80.2202 62.1831Z"
                  fill="#FFE9D9"/>
            <path d="M96.0165 87.822C96.0151 87.8222 96.0137 87.8224 96.0137 87.8224C81.8541 89.536 77.7914 79.0384 76.884 75.7832C75.1728 69.6482 76.5911 63.1768 79.9779 61.6525C81.992 60.7436 84.0787 60.1571 86.1851 59.9021C97.3899 58.5461 107.523 66.798 109.102 75.0858C110.192 80.8118 106.857 85.2732 100.183 87.0173C98.7522 87.3903 97.3494 87.6607 96.0165 87.822ZM86.3269 61.0621C84.337 61.3029 82.3647 61.8581 80.4612 62.7171C77.6197 63.9975 76.4747 69.9545 78.0112 75.4659C78.8552 78.4983 82.6393 88.261 95.8729 86.6594C95.8729 86.6594 95.8744 86.6592 95.8758 86.6591C97.1569 86.504 98.507 86.2443 99.8872 85.8833C105.988 84.2888 108.93 80.4291 107.953 75.2992C106.472 67.5231 96.9092 59.7814 86.3269 61.0621Z"
                  fill="black"/>
            <path d="M100.918 77.9681C100.026 78.076 98.9909 78.0321 97.8145 77.8346C93.8063 77.1659 91.1408 75.1999 90.6902 72.5735C90.3995 70.8948 91.1571 69.2832 92.6226 68.4699C94.8642 67.2228 98.0004 68.0875 101.018 70.7722L100.239 71.6498C97.6113 69.3087 94.977 68.5044 93.1915 69.4936C92.1528 70.0729 91.6372 71.1767 91.8437 72.377C92.2082 74.4844 94.5115 76.0974 98.0089 76.6806C100.592 77.1119 102.306 76.7498 103.11 75.6126C104.853 73.1305 102.236 67.2393 101.083 65.1808L102.102 64.6082C102.286 64.9374 106.589 72.6958 104.07 76.287C103.396 77.2306 102.341 77.7958 100.918 77.9681Z"
                  fill="black"/>
            <path d="M329.78 227.418C325.541 227.337 317.775 214.692 327.243 206.46C336.712 198.222 358.236 203.128 358.458 213.353C358.685 223.58 335.313 225.732 333.579 222.566C333.579 222.566 334.629 227.507 329.78 227.418Z"
                  fill="#FCC9A4"/>
            <path d="M223.845 135.936C223.845 135.936 230.019 135.831 237.351 139.687C244.681 143.54 273.143 158.323 273.052 160.36C272.959 162.397 257.533 174.393 256.161 174.219C254.789 174.045 246.927 164.871 247.29 167.865C247.652 170.863 261.624 233.305 256.676 234.237C251.723 235.175 218.6 243.234 192.791 241.969C166.98 240.706 150.654 233.906 151.985 231.042C153.312 228.183 165.493 175.404 178.945 158.248C178.945 158.248 154.377 147.72 152.312 144.595C150.244 141.471 162.647 128.492 166.562 130.717C170.48 132.944 223.845 135.936 223.845 135.936Z"
                  fill="#1CB6F0"/>
            <path d="M220.84 241.191C210.156 242.484 200.709 242.942 192.763 242.553C169.561 241.42 153.702 235.783 151.61 232.323C151.207 231.654 151.3 231.123 151.453 230.797C151.699 230.271 152.429 227.581 153.442 223.861C157.636 208.477 167.368 172.734 178.026 158.489C173.497 156.534 153.795 147.9 151.823 144.918C151.311 144.144 151.402 142.99 152.094 141.491C154.145 137.054 161.045 130.391 165.029 129.909C165.736 129.824 166.35 129.926 166.854 130.209C169.968 131.981 209.076 134.522 223.879 135.353C224.096 135.349 230.244 135.29 237.624 139.17L239.241 140.018C271.074 156.711 273.687 159.233 273.639 160.387C273.519 162.964 257.998 174.593 256.311 174.797C255.424 174.714 254.389 173.789 252.01 171.536C250.775 170.364 248.821 168.514 247.916 167.989C248.075 169.001 248.566 171.385 249.211 174.532C254.831 201.874 260.226 230.348 257.635 234.206C257.354 234.625 257.017 234.768 256.782 234.811C256.188 234.924 255.192 235.139 253.848 235.427C247.749 236.741 235.061 239.47 220.84 241.191ZM165.168 131.071C161.673 131.494 155.027 137.936 153.154 141.981C152.667 143.039 152.536 143.873 152.798 144.268C154.242 146.457 169.361 153.505 179.176 157.708L179.874 158.01L179.406 158.611C168.719 172.238 158.804 208.629 154.574 224.169C153.375 228.56 152.789 230.701 152.515 231.29C152.469 231.392 152.501 231.534 152.612 231.72C154.332 234.566 169.242 240.23 192.82 241.386C200.701 241.773 210.08 241.316 220.701 240.031C234.868 238.316 247.524 235.594 253.603 234.285C254.959 233.996 255.968 233.776 256.564 233.666C259.328 229.586 250.85 188.328 248.067 174.771C247.26 170.865 246.778 168.506 246.709 167.937C246.578 166.853 247.316 166.708 247.462 166.691C248.37 166.581 249.785 167.824 252.813 170.686C254.075 171.884 255.803 173.517 256.252 173.644C257.716 173.399 272.139 162.203 272.467 160.326C271.852 159.006 260.485 152.484 238.697 141.059L237.08 140.207C229.978 136.475 223.915 136.522 223.853 136.525C221.627 136.399 170.267 133.495 166.274 131.227C165.99 131.068 165.619 131.016 165.168 131.071Z"
                  fill="black"/>
            <path d="M247.288 167.864C247.288 167.864 240.652 154.873 240.116 153.227Z" fill="white"/>
            <path d="M246.767 168.128C246.496 167.601 240.105 155.076 239.56 153.411L240.673 153.046C241.084 154.311 245.52 163.12 247.807 167.601L246.767 168.128Z"
                  fill="black"/>
            <path d="M198.064 140.803C181.714 162.6 164.828 195.578 165.165 237.16C167.905 238.117 171.326 238.6 175.341 239.421C173.907 197.144 190.369 163.914 206.796 141.422C203.968 141.235 201.013 141.025 198.064 140.803Z"
                  fill="#5458B3"/>
            <path d="M178.367 135.234C174.516 140.144 170.598 145.684 166.821 151.833C169.226 153.054 171.906 154.333 174.463 155.51C178.544 148.33 182.892 141.861 187.193 136.198C183.807 135.875 180.786 135.56 178.367 135.234Z"
                  fill="#5458B3"/>
            <path d="M241.114 236.756C243.773 236.268 246.204 235.79 248.336 235.353C248.343 221.558 249.565 210.839 252.696 199.052C251.592 193.264 250.474 187.738 249.563 183.272C243.634 199.51 240.587 216.039 241.114 236.756Z"
                  fill="#52C69D"/>
            <path d="M226.026 140.861C226.026 140.861 222.704 140.678 217.716 140.374C201.39 163.449 185.679 198.436 188.059 240.937C190.781 241.222 193.335 241.222 196.348 241.369C198.043 241.447 200.164 241.329 201.914 241.333C199.462 199.098 214.8 164.641 230.992 141.52C228.011 140.851 226.026 140.861 226.026 140.861Z"
                  fill="#5458B3"/>
            <path d="M252.593 170.46C254.176 171.946 255.663 173.348 256.18 173.413C256.611 173.464 258.561 172.219 260.941 170.478C263.041 165.696 265.323 161.183 267.7 156.891C265.869 155.759 263.599 154.448 261.119 153.061C258.075 158.453 255.195 164.264 252.593 170.46Z"
                  fill="#5458B3"/>
            <path d="M241.241 142.477C226.32 165.542 212.558 201.062 215.106 240.574C219.67 240.192 224.19 239.654 228.495 239.035C226.936 203.251 238.805 170.328 252.23 148.25C247.944 145.968 243.939 143.879 241.241 142.477Z"
                  fill="#5458B3"/>
            <path d="M198.638 140.339C198.638 140.339 194.552 153.318 204.694 153.443C214.837 153.566 219.159 143.254 217.176 140.119C215.193 136.983 198.638 140.339 198.638 140.339Z"
                  fill="#FE6001"/>
            <path d="M206.638 153.924C206.012 153.999 205.362 154.039 204.688 154.03C202.001 153.996 200 153.098 198.741 151.36C195.858 147.378 197.99 140.452 198.082 140.163L198.185 139.834L198.524 139.762C198.558 139.756 201.86 139.09 205.649 138.631C216.132 137.363 217.293 139.203 217.675 139.806C218.565 141.219 218.37 143.764 217.167 146.288C215.162 150.517 211.224 153.368 206.638 153.924ZM199.104 140.843C198.731 142.225 197.478 147.622 199.69 150.676C200.721 152.094 202.407 152.83 204.702 152.857C205.323 152.865 205.923 152.831 206.496 152.762L206.497 152.762C212.7 152.011 215.421 147.232 216.111 145.786C217.126 143.649 217.356 141.494 216.684 140.432C216.414 140.008 214.832 138.701 205.789 139.796C202.756 140.163 200.042 140.661 199.104 140.843Z"
                  fill="black"/>
            <path d="M203.424 153.35C203.424 153.35 196.538 148.353 185.582 150.807C174.626 153.254 169.908 167.647 174.664 164.906C183.938 159.556 194.669 166.758 203.424 153.35Z"
                  fill="#FE6001"/>
            <path d="M173.846 165.826C173.026 165.925 172.425 165.438 172.271 164.558C171.727 161.383 176.908 152.145 185.452 150.236C196.553 147.753 203.501 152.681 203.765 152.877L204.218 153.204L203.912 153.669C199.353 160.65 194.158 162.145 189.677 162.688C188.347 162.849 187.01 162.932 185.677 163.013C184.373 163.092 183.072 163.169 181.781 163.325C178.976 163.665 176.869 164.311 174.954 165.413C174.544 165.654 174.181 165.785 173.846 165.826ZM188.451 150.906C187.571 151.012 186.654 151.166 185.708 151.378C177.533 153.209 173.017 161.979 173.425 164.363C173.485 164.691 173.573 164.68 173.707 164.664C173.826 164.65 174.038 164.592 174.371 164.401C176.428 163.214 178.673 162.521 181.642 162.162C182.955 162.003 184.28 161.926 185.61 161.845C186.917 161.764 188.232 161.685 189.538 161.527C193.851 161.005 198.413 159.664 202.604 153.519C201.07 152.608 195.922 150.002 188.451 150.906Z"
                  fill="black"/>
            <path d="M196.867 152.919C196.612 155.067 199.449 160.044 201.771 157.176C204.232 154.138 205.585 157.797 207.641 155.901C209.695 154.005 210.784 148.644 204.17 148.413C197.557 148.182 197.017 151.653 196.867 152.919Z"
                  fill="#FE6001"/>
            <path d="M200.497 158.614C199.731 158.707 198.947 158.374 198.225 157.656C197.006 156.441 196.12 154.241 196.284 152.852C196.7 149.366 199.388 147.661 204.189 147.827C207.765 147.951 209.075 149.488 209.547 150.756C210.272 152.705 209.349 155.121 208.039 156.329C207.585 156.747 207.113 156.985 206.601 157.047C205.984 157.12 205.424 156.925 204.932 156.753C203.986 156.424 203.175 156.366 202.225 157.541C201.714 158.176 201.131 158.537 200.497 158.614ZM201.982 149.076C197.854 149.575 197.558 152.056 197.449 152.986C197.338 153.913 198.016 155.794 199.051 156.828C199.576 157.35 200.511 157.798 201.316 156.808C202.638 155.168 204.194 155.258 205.319 155.651C205.746 155.798 206.114 155.926 206.462 155.885C206.727 155.853 206.973 155.722 207.244 155.475C208.251 154.545 208.995 152.633 208.45 151.166C207.954 149.83 206.467 149.08 204.15 149.001C203.362 148.968 202.635 148.997 201.982 149.076Z"
                  fill="black"/>
            <path d="M209.292 150.197C209.292 150.197 211.546 149.263 219.444 152.931C229.569 157.634 233.255 164.401 235.241 168.942C237.223 173.48 235.894 171.969 219.816 167.224C209.121 164.066 202.76 152.322 209.292 150.197Z"
                  fill="#FE6001"/>
            <path d="M235.46 172.235C234.431 172.359 232.472 171.745 228.181 170.397C225.958 169.7 223.154 168.819 219.651 167.786C211.723 165.444 206.126 158.592 206.064 153.91C206.037 151.804 207.116 150.286 209.11 149.641C209.122 149.634 209.283 149.576 209.591 149.539C210.758 149.398 213.615 149.585 219.688 152.4C229.647 157.025 233.517 163.545 235.776 168.708C236.396 170.132 236.75 171.043 236.379 171.686C236.259 171.9 236.001 172.169 235.46 172.235ZM209.733 150.701C209.572 150.72 209.499 150.746 209.496 150.747C207.969 151.242 207.216 152.299 207.235 153.892C207.295 158.159 212.757 164.528 219.983 166.662C223.493 167.698 226.306 168.579 228.532 169.281C232.278 170.461 234.541 171.163 235.321 171.069C235.393 171.06 235.415 171.05 235.416 171.05C235.435 170.841 234.904 169.63 234.707 169.177C232.53 164.201 228.803 157.922 219.198 153.463C213.003 150.586 210.384 150.622 209.733 150.701Z"
                  fill="black"/>
            <path d="M233.858 22.832C233.858 22.832 236.687 8.8457 253.175 10.1001C269.663 11.3559 282.855 34.0162 288.193 45.5045C293.53 56.993 302.212 73.0679 309.585 61.058C309.585 61.058 312.297 70.0475 305.327 71.9354C305.327 71.9354 309.417 78.8575 303.522 81.9587C303.522 81.9587 306.008 102.502 288.885 106.839C288.885 106.839 291.259 97.6818 287.106 92.1414C287.106 92.1414 289.478 104.082 271.011 106.934C271.011 106.934 276.38 99.4622 272.3 88.8149C268.228 78.1667 257.052 64.9476 257.052 64.9476C257.052 64.9476 230.731 35.6948 233.858 22.832Z"
                  fill="#FFE7A8"/>
            <path d="M288.403 107.316L288.55 106.749C288.571 106.665 290.541 98.8581 287.556 93.4709C287.555 94.9705 287.232 97.4717 285.462 99.9979C282.833 103.756 277.985 106.205 271.065 107.273L270.255 107.399L270.733 106.731C270.785 106.655 275.938 99.2746 271.982 88.9363C267.974 78.4656 256.902 65.2981 256.792 65.1671C255.715 63.9759 230.39 35.641 233.524 22.7481C233.543 22.6482 235.971 11.333 248.32 9.83843C249.856 9.65259 251.498 9.62451 253.205 9.75635C271.257 11.1307 284.791 37.3553 288.511 45.3593C292.568 54.0956 298.628 65.6321 304.372 64.937C306.114 64.7262 307.77 63.3603 309.291 60.8804L309.694 60.2233L309.918 60.9606C309.975 61.1564 311.354 65.8277 309.464 69.2305C308.687 70.6329 307.466 71.6106 305.834 72.1451C306.352 73.156 307.569 75.9711 306.817 78.6133C306.393 80.1056 305.408 81.2969 303.889 82.1503C304.091 84.4698 305.191 103.065 288.969 107.173L288.403 107.316ZM287.382 91.9327C291.035 96.8044 289.803 104.239 289.352 106.355C305.386 101.843 303.2 82.2002 303.175 82.0004L303.147 81.7646L303.361 81.6527C304.823 80.8835 305.763 79.7998 306.15 78.4314C306.99 75.4898 305.049 72.1467 305.028 72.1114L304.798 71.722L305.236 71.6019C306.892 71.155 308.11 70.2447 308.859 68.8953C310.178 66.5215 309.739 63.3568 309.439 61.9229C307.915 64.161 306.241 65.4066 304.455 65.6227C298.264 66.3719 292.035 54.5846 287.884 45.6511C284.205 37.7311 270.826 11.7911 253.151 10.4469C251.487 10.3201 249.893 10.3453 248.403 10.5256C236.549 11.9603 234.219 22.7909 234.199 22.9013C231.146 35.4532 257.049 64.4227 257.315 64.7144C257.433 64.8576 268.577 78.1111 272.627 88.6905C276.029 97.5863 272.892 104.385 271.706 106.469C278.035 105.373 282.469 103.066 284.899 99.6022C287.47 95.9303 286.774 92.244 286.767 92.2084L287.382 91.9327Z"
                  fill="black"/>
            <path d="M271.204 107.22L270.822 106.643C270.927 106.576 281.007 99.4622 271.503 71.5436C261.993 43.6197 249.58 44.0557 249.454 44.0651L249.407 43.375C249.937 43.3387 262.453 42.8231 272.155 71.3187C281.854 99.8191 271.644 106.932 271.204 107.22Z"
                  fill="black"/>
            <path d="M276.453 106.014L276.125 105.409C285.618 100.243 284.027 83.1754 271.518 56.0506C261.663 34.6741 244.071 29.7944 243.895 29.7472L244.072 29.0796C244.252 29.1279 262.154 34.0895 272.148 55.7585C285.015 83.6655 286.463 100.572 276.453 106.014Z"
                  fill="black"/>
            <path d="M289.204 106.964L288.561 106.713C292.958 95.485 287.949 75.1119 274.812 50.8127C260.737 24.7731 243.653 25.4505 243.481 25.4611L243.443 24.77C243.615 24.7594 261.12 24.0251 275.422 50.4866C288.848 75.3211 293.744 95.3812 289.204 106.964Z"
                  fill="black"/>
            <path d="M290.969 106.469L290.366 106.126C290.471 105.947 300.509 87.837 290.495 65.3579C280.607 43.1553 267.246 17.8651 251.533 19.3875C245.837 19.9368 242.257 19.5561 241.453 18.3129C241.222 17.9544 241.222 17.5372 241.45 17.1318C242.264 15.7074 246.15 14.2963 251.002 14.4939C257.343 14.7563 273.711 18.6318 288.701 48.8913C296.382 64.3946 300.68 71.3425 303.077 72.126C303.77 72.3529 304.281 72.0883 304.927 71.7519L305.17 71.6277L305.481 72.2421L305.244 72.367C304.55 72.7311 303.827 73.103 302.862 72.7836C300.643 72.0589 297.282 67.7703 288.081 49.1967C272.836 18.4285 255.828 15.3846 250.976 15.1855C246.189 14.9874 242.66 16.4136 242.051 17.4763C241.921 17.7064 241.974 17.843 242.033 17.9364C242.205 18.1986 243.458 19.4735 251.464 18.6986C267.614 17.135 281.145 42.6629 291.128 65.0757C301.287 87.8873 291.072 106.286 290.969 106.469Z"
                  fill="black"/>
            <path d="M223.306 22.4532C223.306 22.4532 224.201 10.3564 229.068 10.2881C233.939 10.2238 239.133 27.8775 234.598 28.947C230.063 30.021 223.306 22.4532 223.306 22.4532Z"
                  fill="#FE6001"/>
            <path d="M234.222 29.3676C229.578 29.9296 223.311 22.9821 223.048 22.6858L222.95 22.5751L222.963 22.4291C222.998 21.9348 223.927 10.025 229.066 9.94282C232.581 9.8951 235.905 17.8625 236.557 23.1528C236.997 26.7169 236.328 28.8968 234.679 29.286C234.529 29.3231 234.38 29.3484 234.222 29.3676ZM223.665 22.3325C224.51 23.2468 230.496 29.5837 234.523 28.6135C235.748 28.3237 236.252 26.3169 235.873 23.2399C235.17 17.5327 231.893 10.5983 229.074 10.6362C224.799 10.6838 223.784 20.9717 223.665 22.3325Z"
                  fill="black"/>
            <path d="M245.256 35.5022C245.256 35.5022 249.423 33.1236 250.43 27.0578C251.439 20.9903 247.877 20.5551 243.615 21.9373C239.357 23.3249 232.942 25.7144 234.169 29.0258C235.398 32.3369 245.256 35.5022 245.256 35.5022Z"
                  fill="#FE6001"/>
            <path d="M245.292 35.8785L245.149 35.8316C244.742 35.6999 235.113 32.574 233.839 29.1458C233.579 28.4305 233.614 27.71 233.954 27.0096C235.12 24.6004 239.669 22.8581 243.511 21.607C246.572 20.6107 248.736 20.734 249.922 21.9747C250.884 22.9814 251.174 24.7112 250.774 27.1138C249.75 33.2721 245.605 35.702 245.429 35.8036L245.292 35.8785ZM246.194 21.6862C245.464 21.7746 244.634 21.9684 243.721 22.2686C240.306 23.3805 235.64 25.1107 234.576 27.315C234.315 27.844 234.287 28.3652 234.493 28.9077C235.566 31.8074 243.969 34.7112 245.209 35.1241C245.899 34.6717 249.219 32.2351 250.09 27.0026C250.452 24.8248 250.227 23.2942 249.421 22.4553C248.767 21.7643 247.68 21.5065 246.194 21.6862Z"
                  fill="black"/>
            <path d="M230.578 47.2007C199.475 30.0658 172.638 48.1756 172.638 48.1756C172.638 48.1756 140.574 115.191 195.922 133.116C247.66 149.867 262.299 93.1738 263.991 85.7051C259.207 72.5905 248.719 57.195 230.578 47.2007Z"
                  fill="#FFE9D9"/>
            <path d="M219.417 136.279L219.414 136.279C212.149 137.158 204.2 136.223 195.795 133.502C181.636 128.912 171.922 120.696 166.929 109.074C155.759 83.0766 172.103 48.3482 172.269 47.9998L172.409 47.8385C172.505 47.7744 181.9 41.522 195.778 39.8425C207.899 38.3756 219.672 40.73 230.771 46.8433C246.261 55.3773 258.511 69.4904 264.372 85.5655L264.414 85.6786L264.389 85.7969C262.64 93.5263 252.244 132.306 219.417 136.279ZM172.958 48.4548C171.984 50.5519 157.593 83.5291 168.318 108.489C173.215 119.883 182.122 128.216 196.047 132.729C204.339 135.411 212.168 136.334 219.317 135.471C251.445 131.584 261.762 93.6369 263.569 85.7357C257.756 69.8882 245.665 55.979 230.379 47.5587C219.436 41.5287 207.828 39.2039 195.877 40.6502C182.935 42.2164 173.957 47.8072 172.958 48.4548Z"
                  fill="black"/>
            <path d="M233.721 25.2251C193.016 -0.265352 172.638 48.1752 172.638 48.1752C172.638 48.1752 199.473 30.0656 230.578 47.2004C248.719 57.1946 259.209 72.5899 263.992 85.7045C264.109 85.1829 264.167 84.8957 264.167 84.8957C264.167 84.8957 274.428 50.7167 233.721 25.2251Z"
                  fill="#FFE7A8"/>
            <path d="M264.07 86.9281L263.667 85.8231C257.864 69.9175 245.743 55.9507 230.409 47.5013C219.454 41.4684 207.832 39.1408 195.87 40.5885C182.174 42.2459 172.924 48.3991 172.831 48.4614L171.871 49.1086L172.318 48.0407C172.433 47.7628 184.168 20.4724 207.094 17.6979C215.58 16.6709 224.6 19.1048 233.907 24.9303C274.286 50.2194 264.64 84.5122 264.498 84.9917C264.498 84.9932 264.442 85.2785 264.329 85.7794L264.07 86.9281ZM195.785 39.9044C207.897 38.4386 219.657 40.7902 230.741 46.898C245.873 55.2319 257.906 68.8928 263.913 84.5083C264.796 80.9649 271.461 49.2676 233.536 25.5192C224.371 19.7772 215.501 17.3777 207.176 18.3852C187.17 20.8063 175.803 42.2979 173.427 47.2837C176.181 45.6639 184.498 41.2703 195.785 39.9044Z"
                  fill="black"/>
            <path d="M193.429 40.6025L192.74 40.5503C192.754 40.375 194.396 23.0272 218.687 18.4014L218.814 19.0803C195.037 23.609 193.443 40.4361 193.429 40.6025Z"
                  fill="black"/>
            <path d="M202.985 40.0341L202.423 39.6339C202.969 38.8603 215.954 20.6723 222.955 19.6339L223.056 20.3188C216.343 21.3107 203.119 39.8471 202.985 40.0341Z"
                  fill="black"/>
            <path d="M218.267 42.308L217.916 41.7101C227.594 36.0579 227.371 22.0691 227.368 21.9308L228.062 21.9125C228.064 22.0582 228.291 36.452 218.267 42.308Z"
                  fill="black"/>
            <path d="M230.791 47.4731L230.363 46.9268C238.576 40.5403 235.691 26.91 235.66 26.7723L236.338 26.6246C236.37 26.7666 239.354 40.8167 230.791 47.4731Z"
                  fill="black"/>
            <path d="M240.939 54.1444L240.455 53.6516C250.316 43.9399 243.781 32.9917 243.713 32.8819L244.3 32.519C244.371 32.6344 251.199 44.0387 240.939 54.1444Z"
                  fill="black"/>
            <path d="M251.221 64.0398L250.803 63.4894C257.845 58.1636 253.781 43.4011 253.737 43.2533L254.403 43.0619C254.578 43.6898 258.634 58.4343 251.221 64.0398Z"
                  fill="black"/>
            <path d="M258.138 73.8303L258.041 73.1464C258.802 73.0382 259.427 72.5833 259.951 71.7527C262.478 67.7536 261.358 56.6913 261.101 55.8705L261.744 55.6148C262.007 56.254 263.205 67.4789 260.668 71.9036C260.019 73.0368 259.165 73.6871 258.138 73.8303Z"
                  fill="black"/>
            <path d="M185.34 42.5004C185.34 42.5004 172.16 32.676 161.862 47.3896C161.862 47.3896 167.861 29.8136 187.626 37.7065C187.626 37.7065 179.258 25.5025 161.824 37.5033C161.824 37.5033 181.72 20.7937 193.743 40.108C193.743 40.108 194.151 40.5954 191.973 40.8443C189.322 41.1433 185.34 42.5004 185.34 42.5004Z"
                  fill="#FFE7A8"/>
            <path d="M162.146 47.5858L161.533 47.2748C161.569 47.1713 165.252 36.737 175.88 35.4507C179.112 35.0596 182.673 35.549 186.488 36.9047C184.822 35.1795 180.702 31.8886 174.107 32.6868C170.337 33.143 166.27 34.8575 162.023 37.7841L161.603 37.2325C161.672 37.1774 168.453 31.5492 176.419 30.5852C183.704 29.7035 189.632 32.8441 194.038 39.922C194.096 39.9865 194.166 40.1822 194.082 40.3936C193.928 40.7857 193.321 41.0254 192.112 41.1718L191.927 41.1942C189.339 41.5074 185.49 42.8104 185.453 42.8237L185.282 42.8838L185.135 42.7761C185.083 42.7371 179.946 38.9801 173.733 39.732C169.316 40.268 165.418 42.9101 162.146 47.5858ZM173.65 39.0463C179.62 38.3238 184.479 41.4727 185.397 42.1142C186.186 41.854 189.467 40.7975 191.842 40.5101L192.028 40.4876C192.902 40.3818 193.249 40.2436 193.377 40.1698C189.112 33.4132 183.442 30.4324 176.501 31.2725C174.775 31.4813 173.109 31.9149 171.556 32.4631C172.39 32.2528 173.213 32.0978 174.022 31.9998C183.255 30.8825 187.865 37.4426 187.91 37.5042L188.554 38.4459L187.496 38.024C183.31 36.353 179.43 35.7169 175.962 36.1366C169.253 36.9485 165.425 41.56 163.582 44.6537C166.532 41.3824 169.906 39.4994 173.65 39.0463Z"
                  fill="black"/>
            <path d="M224.851 78.5686C225.14 80.9549 224.349 83.0126 223.085 83.1655C221.822 83.3183 220.562 81.509 220.273 79.1226C219.984 76.7362 220.777 74.677 222.039 74.5243C223.303 74.3727 224.562 76.1836 224.851 78.5686Z"
                  fill="#572800"/>
            <path d="M189.055 76.7487C188.173 78.9865 186.501 80.4199 185.316 79.9537C184.13 79.4874 183.883 77.3002 184.764 75.0611C185.644 72.8265 187.317 71.3901 188.501 71.8565C189.689 72.3238 189.935 74.5111 189.055 76.7487Z"
                  fill="#572800"/>
            <path d="M181.54 96.7212C181.728 103.639 183.326 118.491 193.206 125.816C206.34 135.556 222.585 132.572 227.861 120.509C231.517 112.145 232.326 100.316 230.69 92.6969C204.958 104.73 188.907 100.44 181.54 96.7212Z"
                  fill="#F69576"/>
            <path d="M212.625 131.808C206.018 132.607 199.047 130.579 192.997 126.091C182.852 118.57 181.365 103.051 181.192 96.7294L181.181 96.1517L181.698 96.41C186.355 98.7651 194.351 101.273 206 99.8635C213.657 98.9369 221.911 96.4224 230.544 92.3846L230.937 92.2013L231.028 92.625C232.566 99.7875 232.085 111.714 228.177 120.646C225.454 126.874 219.785 130.941 212.625 131.808ZM181.904 97.285C182.146 103.825 183.802 118.411 193.408 125.535C199.317 129.916 206.112 131.9 212.542 131.122C219.454 130.286 224.92 126.366 227.542 120.37C231.312 111.744 231.845 100.289 230.439 93.1937C221.881 97.1555 213.691 99.63 206.082 100.551C194.685 101.93 186.712 99.6015 181.904 97.285Z"
                  fill="black"/>
            <path d="M213.432 119.957C219.732 118.853 222.647 126.116 223.025 126.545C223.4 126.98 213.986 134.291 201.923 129.926C201.923 129.925 200.981 122.136 213.432 119.957Z"
                  fill="#F37972"/>
            <path d="M194.203 100.677C194.203 100.677 193.405 105.593 202.563 105.008C211.725 104.42 212.117 101.813 211.597 99.6486C211.595 99.6473 202.766 101.645 194.203 100.677Z"
                  fill="white"/>
            <path d="M206.003 100.508C186.031 102.925 176.398 93.9766 176.269 93.8521L176.749 93.3551C176.922 93.5222 194.442 109.738 231.582 91.7921L231.882 92.4151C221.867 97.2562 213.255 99.6302 206.003 100.508Z"
                  fill="black"/>
            <g opacity="0.5">
                <path opacity="0.5"
                      d="M252.231 65.2098C252.231 65.2098 263.118 116.136 224.892 134.825C224.892 134.825 244.304 129.936 254.14 110.788C262.518 94.4748 263.992 85.7037 263.992 85.7037C263.992 85.7037 257.811 71.3112 252.231 65.2098Z"
                      fill="#FFE3BB"/>
            </g>
        </g>
    </g>
    <defs>
        <filter id="filter0_d_131_3521" x="0.469727" y="0.490234" width="447.487" height="337.461" filterUnits="userSpaceOnUse"
                color-interpolation-filters="sRGB">
            <feFlood flood-opacity="0" result="BackgroundImageFix"/>
            <feColorMatrix in="SourceAlpha" type="matrix" values="0 0 0 0 0 0 0 0 0 0 0 0 0 0 0 0 0 0 127 0" result="hardAlpha"/>
            <feOffset dy="9"/>
            <feGaussianBlur stdDeviation="22.5"/>
            <feComposite in2="hardAlpha" operator="out"/>
            <feColorMatrix type="matrix" values="0 0 0 0 1 0 0 0 0 1 0 0 0 0 1 0 0 0 0.06 0"/>
            <feBlend mode="normal" in2="BackgroundImageFix" result="effect1_dropShadow_131_3521"/>
            <feBlend mode="normal" in="SourceGraphic" in2="effect1_dropShadow_131_3521" result="shape"/>
        </filter>
        <clipPath id="clip0_131_3521">
            <rect width="331" height="267" fill="white" transform="translate(61 4.00098)"/>
        </clipPath>
        <clipPath id="clip1_131_3521">
            <rect width="291.757" height="168.42" fill="white" transform="translate(71 29.0542) rotate(-6.9005)"/>
        </clipPath>
    </defs>
</svg>
